%TF.GenerationSoftware,KiCad,Pcbnew,8.0.6*%
%TF.CreationDate,2025-01-14T14:49:09-07:00*%
%TF.ProjectId,ChargerBoard,43686172-6765-4724-926f-6172642e6b69,rev?*%
%TF.SameCoordinates,Original*%
%TF.FileFunction,Legend,Bot*%
%TF.FilePolarity,Positive*%
%FSLAX46Y46*%
G04 Gerber Fmt 4.6, Leading zero omitted, Abs format (unit mm)*
G04 Created by KiCad (PCBNEW 8.0.6) date 2025-01-14 14:49:09*
%MOMM*%
%LPD*%
G01*
G04 APERTURE LIST*
%ADD10C,0.150000*%
%ADD11C,0.250000*%
G04 APERTURE END LIST*
D10*
X144731009Y-92890476D02*
X144778628Y-93033333D01*
X144778628Y-93033333D02*
X144826247Y-93080952D01*
X144826247Y-93080952D02*
X144921485Y-93128571D01*
X144921485Y-93128571D02*
X145064342Y-93128571D01*
X145064342Y-93128571D02*
X145159580Y-93080952D01*
X145159580Y-93080952D02*
X145207200Y-93033333D01*
X145207200Y-93033333D02*
X145254819Y-92938095D01*
X145254819Y-92938095D02*
X145254819Y-92557143D01*
X145254819Y-92557143D02*
X144254819Y-92557143D01*
X144254819Y-92557143D02*
X144254819Y-92890476D01*
X144254819Y-92890476D02*
X144302438Y-92985714D01*
X144302438Y-92985714D02*
X144350057Y-93033333D01*
X144350057Y-93033333D02*
X144445295Y-93080952D01*
X144445295Y-93080952D02*
X144540533Y-93080952D01*
X144540533Y-93080952D02*
X144635771Y-93033333D01*
X144635771Y-93033333D02*
X144683390Y-92985714D01*
X144683390Y-92985714D02*
X144731009Y-92890476D01*
X144731009Y-92890476D02*
X144731009Y-92557143D01*
X145350057Y-94223809D02*
X145302438Y-94128571D01*
X145302438Y-94128571D02*
X145207200Y-94033333D01*
X145207200Y-94033333D02*
X145064342Y-93890476D01*
X145064342Y-93890476D02*
X145016723Y-93795238D01*
X145016723Y-93795238D02*
X145016723Y-93700000D01*
X145254819Y-93747619D02*
X145207200Y-93652381D01*
X145207200Y-93652381D02*
X145111961Y-93557143D01*
X145111961Y-93557143D02*
X144921485Y-93509524D01*
X144921485Y-93509524D02*
X144588152Y-93509524D01*
X144588152Y-93509524D02*
X144397676Y-93557143D01*
X144397676Y-93557143D02*
X144302438Y-93652381D01*
X144302438Y-93652381D02*
X144254819Y-93747619D01*
X144254819Y-93747619D02*
X144254819Y-93938095D01*
X144254819Y-93938095D02*
X144302438Y-94033333D01*
X144302438Y-94033333D02*
X144397676Y-94128571D01*
X144397676Y-94128571D02*
X144588152Y-94176190D01*
X144588152Y-94176190D02*
X144921485Y-94176190D01*
X144921485Y-94176190D02*
X145111961Y-94128571D01*
X145111961Y-94128571D02*
X145207200Y-94033333D01*
X145207200Y-94033333D02*
X145254819Y-93938095D01*
X145254819Y-93938095D02*
X145254819Y-93747619D01*
X144350057Y-94557143D02*
X144302438Y-94604762D01*
X144302438Y-94604762D02*
X144254819Y-94700000D01*
X144254819Y-94700000D02*
X144254819Y-94938095D01*
X144254819Y-94938095D02*
X144302438Y-95033333D01*
X144302438Y-95033333D02*
X144350057Y-95080952D01*
X144350057Y-95080952D02*
X144445295Y-95128571D01*
X144445295Y-95128571D02*
X144540533Y-95128571D01*
X144540533Y-95128571D02*
X144683390Y-95080952D01*
X144683390Y-95080952D02*
X145254819Y-94509524D01*
X145254819Y-94509524D02*
X145254819Y-95128571D01*
X144254819Y-96033333D02*
X144254819Y-95557143D01*
X144254819Y-95557143D02*
X144731009Y-95509524D01*
X144731009Y-95509524D02*
X144683390Y-95557143D01*
X144683390Y-95557143D02*
X144635771Y-95652381D01*
X144635771Y-95652381D02*
X144635771Y-95890476D01*
X144635771Y-95890476D02*
X144683390Y-95985714D01*
X144683390Y-95985714D02*
X144731009Y-96033333D01*
X144731009Y-96033333D02*
X144826247Y-96080952D01*
X144826247Y-96080952D02*
X145064342Y-96080952D01*
X145064342Y-96080952D02*
X145159580Y-96033333D01*
X145159580Y-96033333D02*
X145207200Y-95985714D01*
X145207200Y-95985714D02*
X145254819Y-95890476D01*
X145254819Y-95890476D02*
X145254819Y-95652381D01*
X145254819Y-95652381D02*
X145207200Y-95557143D01*
X145207200Y-95557143D02*
X145159580Y-95509524D01*
X145254819Y-97033333D02*
X145254819Y-96461905D01*
X145254819Y-96747619D02*
X144254819Y-96747619D01*
X144254819Y-96747619D02*
X144397676Y-96652381D01*
X144397676Y-96652381D02*
X144492914Y-96557143D01*
X144492914Y-96557143D02*
X144540533Y-96461905D01*
X144254819Y-97366667D02*
X144254819Y-98033333D01*
X144254819Y-98033333D02*
X145254819Y-97604762D01*
X144350057Y-98366667D02*
X144302438Y-98414286D01*
X144302438Y-98414286D02*
X144254819Y-98509524D01*
X144254819Y-98509524D02*
X144254819Y-98747619D01*
X144254819Y-98747619D02*
X144302438Y-98842857D01*
X144302438Y-98842857D02*
X144350057Y-98890476D01*
X144350057Y-98890476D02*
X144445295Y-98938095D01*
X144445295Y-98938095D02*
X144540533Y-98938095D01*
X144540533Y-98938095D02*
X144683390Y-98890476D01*
X144683390Y-98890476D02*
X145254819Y-98319048D01*
X145254819Y-98319048D02*
X145254819Y-98938095D01*
X145254819Y-99366667D02*
X144254819Y-99366667D01*
X144254819Y-99366667D02*
X144254819Y-99604762D01*
X144254819Y-99604762D02*
X144302438Y-99747619D01*
X144302438Y-99747619D02*
X144397676Y-99842857D01*
X144397676Y-99842857D02*
X144492914Y-99890476D01*
X144492914Y-99890476D02*
X144683390Y-99938095D01*
X144683390Y-99938095D02*
X144826247Y-99938095D01*
X144826247Y-99938095D02*
X145016723Y-99890476D01*
X145016723Y-99890476D02*
X145111961Y-99842857D01*
X145111961Y-99842857D02*
X145207200Y-99747619D01*
X145207200Y-99747619D02*
X145254819Y-99604762D01*
X145254819Y-99604762D02*
X145254819Y-99366667D01*
X145207200Y-100319048D02*
X145254819Y-100461905D01*
X145254819Y-100461905D02*
X145254819Y-100700000D01*
X145254819Y-100700000D02*
X145207200Y-100795238D01*
X145207200Y-100795238D02*
X145159580Y-100842857D01*
X145159580Y-100842857D02*
X145064342Y-100890476D01*
X145064342Y-100890476D02*
X144969104Y-100890476D01*
X144969104Y-100890476D02*
X144873866Y-100842857D01*
X144873866Y-100842857D02*
X144826247Y-100795238D01*
X144826247Y-100795238D02*
X144778628Y-100700000D01*
X144778628Y-100700000D02*
X144731009Y-100509524D01*
X144731009Y-100509524D02*
X144683390Y-100414286D01*
X144683390Y-100414286D02*
X144635771Y-100366667D01*
X144635771Y-100366667D02*
X144540533Y-100319048D01*
X144540533Y-100319048D02*
X144445295Y-100319048D01*
X144445295Y-100319048D02*
X144350057Y-100366667D01*
X144350057Y-100366667D02*
X144302438Y-100414286D01*
X144302438Y-100414286D02*
X144254819Y-100509524D01*
X144254819Y-100509524D02*
X144254819Y-100747619D01*
X144254819Y-100747619D02*
X144302438Y-100890476D01*
X144302438Y-101842857D02*
X144254819Y-101747619D01*
X144254819Y-101747619D02*
X144254819Y-101604762D01*
X144254819Y-101604762D02*
X144302438Y-101461905D01*
X144302438Y-101461905D02*
X144397676Y-101366667D01*
X144397676Y-101366667D02*
X144492914Y-101319048D01*
X144492914Y-101319048D02*
X144683390Y-101271429D01*
X144683390Y-101271429D02*
X144826247Y-101271429D01*
X144826247Y-101271429D02*
X145016723Y-101319048D01*
X145016723Y-101319048D02*
X145111961Y-101366667D01*
X145111961Y-101366667D02*
X145207200Y-101461905D01*
X145207200Y-101461905D02*
X145254819Y-101604762D01*
X145254819Y-101604762D02*
X145254819Y-101700000D01*
X145254819Y-101700000D02*
X145207200Y-101842857D01*
X145207200Y-101842857D02*
X145159580Y-101890476D01*
X145159580Y-101890476D02*
X144826247Y-101890476D01*
X144826247Y-101890476D02*
X144826247Y-101700000D01*
X145254819Y-102890476D02*
X144778628Y-102557143D01*
X145254819Y-102319048D02*
X144254819Y-102319048D01*
X144254819Y-102319048D02*
X144254819Y-102700000D01*
X144254819Y-102700000D02*
X144302438Y-102795238D01*
X144302438Y-102795238D02*
X144350057Y-102842857D01*
X144350057Y-102842857D02*
X144445295Y-102890476D01*
X144445295Y-102890476D02*
X144588152Y-102890476D01*
X144588152Y-102890476D02*
X144683390Y-102842857D01*
X144683390Y-102842857D02*
X144731009Y-102795238D01*
X144731009Y-102795238D02*
X144778628Y-102700000D01*
X144778628Y-102700000D02*
X144778628Y-102319048D01*
%TO.C,U1*%
X146790966Y-96401999D02*
X148790968Y-96401999D01*
X146790966Y-99201999D02*
X148790968Y-99201999D01*
D11*
X149947033Y-97051998D02*
G75*
G02*
X149697031Y-97051998I-125001J0D01*
G01*
X149697031Y-97051998D02*
G75*
G02*
X149947033Y-97051998I125001J0D01*
G01*
%TD*%
M02*
