%TF.GenerationSoftware,KiCad,Pcbnew,8.0.6*%
%TF.CreationDate,2025-01-14T14:49:09-07:00*%
%TF.ProjectId,ChargerBoard,43686172-6765-4724-926f-6172642e6b69,rev?*%
%TF.SameCoordinates,Original*%
%TF.FileFunction,Legend,Top*%
%TF.FilePolarity,Positive*%
%FSLAX46Y46*%
G04 Gerber Fmt 4.6, Leading zero omitted, Abs format (unit mm)*
G04 Created by KiCad (PCBNEW 8.0.6) date 2025-01-14 14:49:09*
%MOMM*%
%LPD*%
G01*
G04 APERTURE LIST*
%ADD10C,0.250000*%
%ADD11C,0.200000*%
G04 APERTURE END LIST*
D10*
X144103044Y-93352619D02*
X144293520Y-93352619D01*
X144293520Y-93352619D02*
X144388758Y-93400238D01*
X144388758Y-93400238D02*
X144483996Y-93495476D01*
X144483996Y-93495476D02*
X144531615Y-93685952D01*
X144531615Y-93685952D02*
X144531615Y-94019285D01*
X144531615Y-94019285D02*
X144483996Y-94209761D01*
X144483996Y-94209761D02*
X144388758Y-94305000D01*
X144388758Y-94305000D02*
X144293520Y-94352619D01*
X144293520Y-94352619D02*
X144103044Y-94352619D01*
X144103044Y-94352619D02*
X144007806Y-94305000D01*
X144007806Y-94305000D02*
X143912568Y-94209761D01*
X143912568Y-94209761D02*
X143864949Y-94019285D01*
X143864949Y-94019285D02*
X143864949Y-93685952D01*
X143864949Y-93685952D02*
X143912568Y-93495476D01*
X143912568Y-93495476D02*
X144007806Y-93400238D01*
X144007806Y-93400238D02*
X144103044Y-93352619D01*
X144960187Y-93352619D02*
X144960187Y-94162142D01*
X144960187Y-94162142D02*
X145007806Y-94257380D01*
X145007806Y-94257380D02*
X145055425Y-94305000D01*
X145055425Y-94305000D02*
X145150663Y-94352619D01*
X145150663Y-94352619D02*
X145341139Y-94352619D01*
X145341139Y-94352619D02*
X145436377Y-94305000D01*
X145436377Y-94305000D02*
X145483996Y-94257380D01*
X145483996Y-94257380D02*
X145531615Y-94162142D01*
X145531615Y-94162142D02*
X145531615Y-93352619D01*
X145864949Y-93352619D02*
X146436377Y-93352619D01*
X146150663Y-94352619D02*
X146150663Y-93352619D01*
X150672568Y-94364619D02*
X150672568Y-93364619D01*
X151148758Y-94364619D02*
X151148758Y-93364619D01*
X151148758Y-93364619D02*
X151720186Y-94364619D01*
X151720186Y-94364619D02*
X151720186Y-93364619D01*
X148595711Y-100972619D02*
X148929044Y-101972619D01*
X148929044Y-101972619D02*
X149262377Y-100972619D01*
X149548092Y-101925000D02*
X149690949Y-101972619D01*
X149690949Y-101972619D02*
X149929044Y-101972619D01*
X149929044Y-101972619D02*
X150024282Y-101925000D01*
X150024282Y-101925000D02*
X150071901Y-101877380D01*
X150071901Y-101877380D02*
X150119520Y-101782142D01*
X150119520Y-101782142D02*
X150119520Y-101686904D01*
X150119520Y-101686904D02*
X150071901Y-101591666D01*
X150071901Y-101591666D02*
X150024282Y-101544047D01*
X150024282Y-101544047D02*
X149929044Y-101496428D01*
X149929044Y-101496428D02*
X149738568Y-101448809D01*
X149738568Y-101448809D02*
X149643330Y-101401190D01*
X149643330Y-101401190D02*
X149595711Y-101353571D01*
X149595711Y-101353571D02*
X149548092Y-101258333D01*
X149548092Y-101258333D02*
X149548092Y-101163095D01*
X149548092Y-101163095D02*
X149595711Y-101067857D01*
X149595711Y-101067857D02*
X149643330Y-101020238D01*
X149643330Y-101020238D02*
X149738568Y-100972619D01*
X149738568Y-100972619D02*
X149976663Y-100972619D01*
X149976663Y-100972619D02*
X150119520Y-101020238D01*
X150548092Y-101448809D02*
X150881425Y-101448809D01*
X151024282Y-101972619D02*
X150548092Y-101972619D01*
X150548092Y-101972619D02*
X150548092Y-100972619D01*
X150548092Y-100972619D02*
X151024282Y-100972619D01*
X151309997Y-100972619D02*
X151881425Y-100972619D01*
X151595711Y-101972619D02*
X151595711Y-100972619D01*
X150373711Y-95892619D02*
X150945139Y-95892619D01*
X150659425Y-96892619D02*
X150659425Y-95892619D01*
X151230854Y-96845000D02*
X151373711Y-96892619D01*
X151373711Y-96892619D02*
X151611806Y-96892619D01*
X151611806Y-96892619D02*
X151707044Y-96845000D01*
X151707044Y-96845000D02*
X151754663Y-96797380D01*
X151754663Y-96797380D02*
X151802282Y-96702142D01*
X151802282Y-96702142D02*
X151802282Y-96606904D01*
X151802282Y-96606904D02*
X151754663Y-96511666D01*
X151754663Y-96511666D02*
X151707044Y-96464047D01*
X151707044Y-96464047D02*
X151611806Y-96416428D01*
X151611806Y-96416428D02*
X151421330Y-96368809D01*
X151421330Y-96368809D02*
X151326092Y-96321190D01*
X151326092Y-96321190D02*
X151278473Y-96273571D01*
X151278473Y-96273571D02*
X151230854Y-96178333D01*
X151230854Y-96178333D02*
X151230854Y-96083095D01*
X151230854Y-96083095D02*
X151278473Y-95987857D01*
X151278473Y-95987857D02*
X151326092Y-95940238D01*
X151326092Y-95940238D02*
X151421330Y-95892619D01*
X151421330Y-95892619D02*
X151659425Y-95892619D01*
X151659425Y-95892619D02*
X151802282Y-95940238D01*
X149246568Y-99686619D02*
X149246568Y-98686619D01*
X149675139Y-99639000D02*
X149817996Y-99686619D01*
X149817996Y-99686619D02*
X150056091Y-99686619D01*
X150056091Y-99686619D02*
X150151329Y-99639000D01*
X150151329Y-99639000D02*
X150198948Y-99591380D01*
X150198948Y-99591380D02*
X150246567Y-99496142D01*
X150246567Y-99496142D02*
X150246567Y-99400904D01*
X150246567Y-99400904D02*
X150198948Y-99305666D01*
X150198948Y-99305666D02*
X150151329Y-99258047D01*
X150151329Y-99258047D02*
X150056091Y-99210428D01*
X150056091Y-99210428D02*
X149865615Y-99162809D01*
X149865615Y-99162809D02*
X149770377Y-99115190D01*
X149770377Y-99115190D02*
X149722758Y-99067571D01*
X149722758Y-99067571D02*
X149675139Y-98972333D01*
X149675139Y-98972333D02*
X149675139Y-98877095D01*
X149675139Y-98877095D02*
X149722758Y-98781857D01*
X149722758Y-98781857D02*
X149770377Y-98734238D01*
X149770377Y-98734238D02*
X149865615Y-98686619D01*
X149865615Y-98686619D02*
X150103710Y-98686619D01*
X150103710Y-98686619D02*
X150246567Y-98734238D01*
X150675139Y-99162809D02*
X151008472Y-99162809D01*
X151151329Y-99686619D02*
X150675139Y-99686619D01*
X150675139Y-99686619D02*
X150675139Y-98686619D01*
X150675139Y-98686619D02*
X151151329Y-98686619D01*
X151437044Y-98686619D02*
X152008472Y-98686619D01*
X151722758Y-99686619D02*
X151722758Y-98686619D01*
X144436377Y-101020238D02*
X144341139Y-100972619D01*
X144341139Y-100972619D02*
X144198282Y-100972619D01*
X144198282Y-100972619D02*
X144055425Y-101020238D01*
X144055425Y-101020238D02*
X143960187Y-101115476D01*
X143960187Y-101115476D02*
X143912568Y-101210714D01*
X143912568Y-101210714D02*
X143864949Y-101401190D01*
X143864949Y-101401190D02*
X143864949Y-101544047D01*
X143864949Y-101544047D02*
X143912568Y-101734523D01*
X143912568Y-101734523D02*
X143960187Y-101829761D01*
X143960187Y-101829761D02*
X144055425Y-101925000D01*
X144055425Y-101925000D02*
X144198282Y-101972619D01*
X144198282Y-101972619D02*
X144293520Y-101972619D01*
X144293520Y-101972619D02*
X144436377Y-101925000D01*
X144436377Y-101925000D02*
X144483996Y-101877380D01*
X144483996Y-101877380D02*
X144483996Y-101544047D01*
X144483996Y-101544047D02*
X144293520Y-101544047D01*
X144912568Y-101972619D02*
X144912568Y-100972619D01*
X144912568Y-100972619D02*
X145483996Y-101972619D01*
X145483996Y-101972619D02*
X145483996Y-100972619D01*
X145960187Y-101972619D02*
X145960187Y-100972619D01*
X145960187Y-100972619D02*
X146198282Y-100972619D01*
X146198282Y-100972619D02*
X146341139Y-101020238D01*
X146341139Y-101020238D02*
X146436377Y-101115476D01*
X146436377Y-101115476D02*
X146483996Y-101210714D01*
X146483996Y-101210714D02*
X146531615Y-101401190D01*
X146531615Y-101401190D02*
X146531615Y-101544047D01*
X146531615Y-101544047D02*
X146483996Y-101734523D01*
X146483996Y-101734523D02*
X146436377Y-101829761D01*
X146436377Y-101829761D02*
X146341139Y-101925000D01*
X146341139Y-101925000D02*
X146198282Y-101972619D01*
X146198282Y-101972619D02*
X145960187Y-101972619D01*
X143864949Y-99385000D02*
X144007806Y-99432619D01*
X144007806Y-99432619D02*
X144245901Y-99432619D01*
X144245901Y-99432619D02*
X144341139Y-99385000D01*
X144341139Y-99385000D02*
X144388758Y-99337380D01*
X144388758Y-99337380D02*
X144436377Y-99242142D01*
X144436377Y-99242142D02*
X144436377Y-99146904D01*
X144436377Y-99146904D02*
X144388758Y-99051666D01*
X144388758Y-99051666D02*
X144341139Y-99004047D01*
X144341139Y-99004047D02*
X144245901Y-98956428D01*
X144245901Y-98956428D02*
X144055425Y-98908809D01*
X144055425Y-98908809D02*
X143960187Y-98861190D01*
X143960187Y-98861190D02*
X143912568Y-98813571D01*
X143912568Y-98813571D02*
X143864949Y-98718333D01*
X143864949Y-98718333D02*
X143864949Y-98623095D01*
X143864949Y-98623095D02*
X143912568Y-98527857D01*
X143912568Y-98527857D02*
X143960187Y-98480238D01*
X143960187Y-98480238D02*
X144055425Y-98432619D01*
X144055425Y-98432619D02*
X144293520Y-98432619D01*
X144293520Y-98432619D02*
X144436377Y-98480238D01*
X144722092Y-98432619D02*
X145293520Y-98432619D01*
X145007806Y-99432619D02*
X145007806Y-98432619D01*
X145579235Y-99146904D02*
X146055425Y-99146904D01*
X145483997Y-99432619D02*
X145817330Y-98432619D01*
X145817330Y-98432619D02*
X146150663Y-99432619D01*
X146341140Y-98432619D02*
X146912568Y-98432619D01*
X146626854Y-99432619D02*
X146626854Y-98432619D01*
X143769711Y-95892619D02*
X144341139Y-95892619D01*
X144055425Y-96892619D02*
X144055425Y-95892619D01*
X144674473Y-96892619D02*
X144674473Y-95892619D01*
X144674473Y-95892619D02*
X145007806Y-96606904D01*
X145007806Y-96606904D02*
X145341139Y-95892619D01*
X145341139Y-95892619D02*
X145341139Y-96892619D01*
X146388758Y-96892619D02*
X146055425Y-96416428D01*
X145817330Y-96892619D02*
X145817330Y-95892619D01*
X145817330Y-95892619D02*
X146198282Y-95892619D01*
X146198282Y-95892619D02*
X146293520Y-95940238D01*
X146293520Y-95940238D02*
X146341139Y-95987857D01*
X146341139Y-95987857D02*
X146388758Y-96083095D01*
X146388758Y-96083095D02*
X146388758Y-96225952D01*
X146388758Y-96225952D02*
X146341139Y-96321190D01*
X146341139Y-96321190D02*
X146293520Y-96368809D01*
X146293520Y-96368809D02*
X146198282Y-96416428D01*
X146198282Y-96416428D02*
X145817330Y-96416428D01*
D11*
%TO.C,J2*%
X152300000Y-92610000D02*
X155040000Y-92610000D01*
X152300000Y-102970000D02*
X152300000Y-92610000D01*
X155040000Y-92610000D02*
X155040000Y-102970000D01*
X155040000Y-102970000D02*
X152300000Y-102970000D01*
X154670000Y-102490000D02*
G75*
G02*
X154470000Y-102490000I-100000J0D01*
G01*
X154470000Y-102490000D02*
G75*
G02*
X154670000Y-102490000I100000J0D01*
G01*
%TO.C,J1*%
X140380000Y-92610000D02*
X143120000Y-92610000D01*
X140380000Y-102970000D02*
X140380000Y-92610000D01*
X143120000Y-92610000D02*
X143120000Y-102970000D01*
X143120000Y-102970000D02*
X140380000Y-102970000D01*
X140950000Y-93090000D02*
G75*
G02*
X140750000Y-93090000I-100000J0D01*
G01*
X140750000Y-93090000D02*
G75*
G02*
X140950000Y-93090000I100000J0D01*
G01*
%TD*%
M02*
