%TF.GenerationSoftware,KiCad,Pcbnew,8.0.6*%
%TF.CreationDate,2025-03-17T23:33:18-06:00*%
%TF.ProjectId,PDU,5044552e-6b69-4636-9164-5f7063625858,rev?*%
%TF.SameCoordinates,Original*%
%TF.FileFunction,Copper,L1,Top*%
%TF.FilePolarity,Positive*%
%FSLAX46Y46*%
G04 Gerber Fmt 4.6, Leading zero omitted, Abs format (unit mm)*
G04 Created by KiCad (PCBNEW 8.0.6) date 2025-03-17 23:33:18*
%MOMM*%
%LPD*%
G01*
G04 APERTURE LIST*
G04 Aperture macros list*
%AMRoundRect*
0 Rectangle with rounded corners*
0 $1 Rounding radius*
0 $2 $3 $4 $5 $6 $7 $8 $9 X,Y pos of 4 corners*
0 Add a 4 corners polygon primitive as box body*
4,1,4,$2,$3,$4,$5,$6,$7,$8,$9,$2,$3,0*
0 Add four circle primitives for the rounded corners*
1,1,$1+$1,$2,$3*
1,1,$1+$1,$4,$5*
1,1,$1+$1,$6,$7*
1,1,$1+$1,$8,$9*
0 Add four rect primitives between the rounded corners*
20,1,$1+$1,$2,$3,$4,$5,0*
20,1,$1+$1,$4,$5,$6,$7,0*
20,1,$1+$1,$6,$7,$8,$9,0*
20,1,$1+$1,$8,$9,$2,$3,0*%
G04 Aperture macros list end*
%TA.AperFunction,ComponentPad*%
%ADD10C,6.000000*%
%TD*%
%TA.AperFunction,SMDPad,CuDef*%
%ADD11RoundRect,1.075000X-1.075000X-3.954749X1.075000X-3.954749X1.075000X3.954749X-1.075000X3.954749X0*%
%TD*%
%TA.AperFunction,SMDPad,CuDef*%
%ADD12RoundRect,1.110802X-1.110801X-3.939270X1.110801X-3.939270X1.110801X3.939270X-1.110801X3.939270X0*%
%TD*%
%TA.AperFunction,ComponentPad*%
%ADD13C,4.000000*%
%TD*%
%TA.AperFunction,ComponentPad*%
%ADD14C,1.320800*%
%TD*%
%TA.AperFunction,ComponentPad*%
%ADD15C,1.803400*%
%TD*%
%TA.AperFunction,ComponentPad*%
%ADD16C,1.498600*%
%TD*%
%TA.AperFunction,ViaPad*%
%ADD17C,4.000000*%
%TD*%
%TA.AperFunction,ViaPad*%
%ADD18C,0.600000*%
%TD*%
%TA.AperFunction,ViaPad*%
%ADD19C,1.200000*%
%TD*%
%TA.AperFunction,Conductor*%
%ADD20C,0.200000*%
%TD*%
%TA.AperFunction,Conductor*%
%ADD21C,1.000000*%
%TD*%
%TA.AperFunction,Conductor*%
%ADD22C,0.500000*%
%TD*%
G04 APERTURE END LIST*
D10*
%TO.P,H2,1*%
%TO.N,N/C*%
X165100000Y-131860000D03*
X165100000Y-149860000D03*
%TD*%
D11*
%TO.P,M1,1,+*%
%TO.N,/2S2P Battery Pack/VBATT+*%
X102357000Y-50685751D03*
D12*
%TO.P,M1,2,-*%
%TO.N,GND*%
X151887000Y-146139500D03*
D13*
%TO.P,M1,3,MT*%
%TO.N,unconnected-(M1-MT-Pad3)_1*%
X126741000Y-36017000D03*
%TO.P,M1,4,MT*%
%TO.N,N/C*%
X126741000Y-160758000D03*
%TD*%
D14*
%TO.P,J5,1,1*%
%TO.N,+5V_HEATER*%
X138698600Y-37995100D03*
%TO.P,J5,2,2*%
%TO.N,Net-(J5-Pad2)*%
X138698600Y-35995099D03*
%TD*%
%TO.P,J6,1,1*%
%TO.N,GND*%
X115316000Y-36099999D03*
%TO.P,J6,2,2*%
%TO.N,Net-(U6-TS)*%
X115316000Y-38100000D03*
%TD*%
D10*
%TO.P,H1,1*%
%TO.N,N/C*%
X165100000Y-94124000D03*
X165100000Y-112124000D03*
%TD*%
D15*
%TO.P,J3,1,1*%
%TO.N,/MPPT/VIN*%
X117856000Y-160782000D03*
%TO.P,J3,2,2*%
%TO.N,GND*%
X117856000Y-155782000D03*
%TD*%
D16*
%TO.P,J1,1,1*%
%TO.N,+5V*%
X165100000Y-75264000D03*
%TO.P,J1,2,2*%
%TO.N,+3.3V*%
X165100000Y-77764000D03*
%TO.P,J1,3,3*%
%TO.N,/VBAT_SENSE*%
X165100000Y-80264000D03*
%TO.P,J1,4,4*%
%TO.N,/PWM_HEATER*%
X165100000Y-82764000D03*
%TO.P,J1,5,5*%
%TO.N,GND*%
X165100000Y-85264000D03*
%TD*%
D17*
%TO.N,*%
X165500000Y-37500000D03*
X103500000Y-159500000D03*
X103500000Y-37500000D03*
X165500000Y-159500000D03*
D18*
%TO.N,GND*%
X124460000Y-145288000D03*
X139700000Y-152908000D03*
X144780000Y-74168000D03*
X104140000Y-127508000D03*
X162560000Y-142748000D03*
X160020000Y-117348000D03*
X149860000Y-152908000D03*
X154940000Y-56388000D03*
X139700000Y-43688000D03*
X111760000Y-155448000D03*
X109220000Y-64008000D03*
X150108100Y-93632000D03*
X129540000Y-150368000D03*
X134620000Y-155448000D03*
X162560000Y-99568000D03*
X167640000Y-135128000D03*
X129540000Y-89408000D03*
X117074463Y-157753537D03*
X162560000Y-79248000D03*
X144780000Y-150368000D03*
X116840000Y-38608000D03*
X167640000Y-71628000D03*
X124460000Y-48768000D03*
X101600000Y-112268000D03*
X149860000Y-160528000D03*
X127000000Y-71628000D03*
X134620000Y-74168000D03*
X157480000Y-114808000D03*
X111760000Y-64008000D03*
X109220000Y-38608000D03*
X129540000Y-48768000D03*
X154940000Y-46228000D03*
X101600000Y-117348000D03*
X137160000Y-155448000D03*
X160020000Y-130048000D03*
X160020000Y-140208000D03*
X152400000Y-76708000D03*
X121920000Y-150368000D03*
X132080000Y-142748000D03*
X106680000Y-135128000D03*
X106680000Y-142748000D03*
X142240000Y-43688000D03*
X152400000Y-56388000D03*
X154940000Y-140208000D03*
X165100000Y-107188000D03*
X144780000Y-43688000D03*
X111760000Y-41148000D03*
X149860000Y-91948000D03*
X160020000Y-119888000D03*
X157480000Y-71628000D03*
X106680000Y-147828000D03*
X129540000Y-99568000D03*
X147320000Y-160528000D03*
X106680000Y-137668000D03*
X137160000Y-76708000D03*
X160020000Y-142748000D03*
X165100000Y-119888000D03*
X106680000Y-76708000D03*
X134620000Y-150368000D03*
X157480000Y-94488000D03*
X132080000Y-132588000D03*
X157480000Y-104648000D03*
X137160000Y-61468000D03*
X147320000Y-107188000D03*
X160020000Y-132588000D03*
X119380000Y-48768000D03*
X101600000Y-147828000D03*
X149860000Y-157988000D03*
X139700000Y-48768000D03*
X106680000Y-64008000D03*
X109220000Y-61468000D03*
X149860000Y-64008000D03*
X116840000Y-104648000D03*
X165100000Y-145288000D03*
X132080000Y-46228000D03*
X137160000Y-147828000D03*
X119380000Y-41148000D03*
X144780000Y-41148000D03*
X121920000Y-91948000D03*
X152400000Y-160528000D03*
X141434000Y-96641900D03*
X147320000Y-48768000D03*
X127000000Y-150368000D03*
X109220000Y-51308000D03*
X111760000Y-97028000D03*
X109220000Y-94488000D03*
X106680000Y-51308000D03*
X101600000Y-107188000D03*
X147320000Y-157988000D03*
X104140000Y-109728000D03*
X129540000Y-119888000D03*
X104140000Y-142748000D03*
X147320000Y-51308000D03*
X165100000Y-71628000D03*
X160020000Y-79248000D03*
X111760000Y-74168000D03*
X104140000Y-91948000D03*
X160020000Y-137668000D03*
X147320000Y-36068000D03*
X101600000Y-137668000D03*
X167640000Y-124968000D03*
X134620000Y-46228000D03*
X145542000Y-131572000D03*
X137160000Y-53848000D03*
X116840000Y-76708000D03*
X134620000Y-147828000D03*
X116840000Y-64008000D03*
X167640000Y-99568000D03*
X147320000Y-56388000D03*
X106680000Y-140208000D03*
X132080000Y-155448000D03*
X121920000Y-152908000D03*
X167640000Y-97028000D03*
X157480000Y-109728000D03*
X157480000Y-147828000D03*
X160020000Y-145288000D03*
X114300000Y-135128000D03*
X114300000Y-160528000D03*
X109220000Y-58928000D03*
X134620000Y-157988000D03*
X167640000Y-117348000D03*
X137160000Y-46228000D03*
X134620000Y-66548000D03*
X116840000Y-152908000D03*
X121920000Y-89408000D03*
X121920000Y-81788000D03*
X160020000Y-104648000D03*
X119380000Y-38608000D03*
X104140000Y-71628000D03*
X108458000Y-162306000D03*
X124460000Y-56388000D03*
X116840000Y-36068000D03*
X111760000Y-56388000D03*
X111760000Y-145288000D03*
X144780000Y-61468000D03*
X106680000Y-150368000D03*
X144780000Y-53848000D03*
X129540000Y-76708000D03*
X152400000Y-81788000D03*
X116840000Y-41148000D03*
X149860000Y-46228000D03*
X127000000Y-97028000D03*
X134620000Y-152908000D03*
X129540000Y-130048000D03*
X160020000Y-127508000D03*
X132080000Y-38608000D03*
X167640000Y-102108000D03*
X109220000Y-97028000D03*
X129540000Y-147828000D03*
X101600000Y-114808000D03*
X162560000Y-114808000D03*
X142240000Y-66548000D03*
X121920000Y-69088000D03*
X132080000Y-157988000D03*
X154940000Y-145288000D03*
X154940000Y-69088000D03*
X101600000Y-127508000D03*
X157480000Y-76708000D03*
X154940000Y-84328000D03*
X157480000Y-99568000D03*
X106680000Y-58928000D03*
X124460000Y-97028000D03*
X142240000Y-46228000D03*
X129540000Y-64008000D03*
X167640000Y-114808000D03*
X162560000Y-140208000D03*
X160020000Y-112268000D03*
X134620000Y-58928000D03*
X157480000Y-102108000D03*
X106680000Y-66548000D03*
X160020000Y-99568000D03*
X144780000Y-58928000D03*
X160020000Y-46228000D03*
X129540000Y-102108000D03*
X142240000Y-155448000D03*
X121920000Y-64008000D03*
X104140000Y-99568000D03*
X157480000Y-124968000D03*
X101600000Y-124968000D03*
X157480000Y-81788000D03*
X109220000Y-48768000D03*
X150714852Y-109917612D03*
X119380000Y-102108000D03*
X137160000Y-66548000D03*
X124460000Y-135128000D03*
X127000000Y-91948000D03*
X162560000Y-124968000D03*
X127000000Y-155448000D03*
X134620000Y-71628000D03*
X101600000Y-109728000D03*
X154940000Y-48768000D03*
X106680000Y-130048000D03*
X162560000Y-137668000D03*
X132080000Y-48768000D03*
X167640000Y-152908000D03*
X106680000Y-132588000D03*
X101600000Y-132588000D03*
X121920000Y-76708000D03*
X121920000Y-48768000D03*
X137160000Y-71628000D03*
X167640000Y-107188000D03*
X160020000Y-74168000D03*
X160020000Y-107188000D03*
X157480000Y-145288000D03*
X132080000Y-79248000D03*
X121920000Y-56388000D03*
X160020000Y-53848000D03*
X114300000Y-61468000D03*
X116840000Y-94488000D03*
X142240000Y-157988000D03*
X157480000Y-160528000D03*
X116840000Y-58928000D03*
X134620000Y-36068000D03*
X124460000Y-71628000D03*
X154940000Y-81788000D03*
X144780000Y-160528000D03*
X157480000Y-43688000D03*
X124460000Y-91948000D03*
X121920000Y-41148000D03*
X106680000Y-56388000D03*
X144780000Y-38608000D03*
X124460000Y-130048000D03*
X134620000Y-56388000D03*
X106680000Y-104648000D03*
X111760000Y-160528000D03*
X109220000Y-66548000D03*
X104140000Y-130048000D03*
X109220000Y-155448000D03*
X114300000Y-51308000D03*
X149860000Y-56388000D03*
X119380000Y-36068000D03*
X157480000Y-119888000D03*
X104140000Y-66548000D03*
X111760000Y-58928000D03*
X132080000Y-64008000D03*
X152400000Y-79248000D03*
X147320000Y-152908000D03*
X137160000Y-56388000D03*
X116840000Y-69088000D03*
X152400000Y-152908000D03*
X121920000Y-104648000D03*
X139700000Y-79248000D03*
X162560000Y-76708000D03*
X129540000Y-51308000D03*
X147320000Y-81788000D03*
X109220000Y-102108000D03*
X119380000Y-76708000D03*
X165100000Y-99568000D03*
X124460000Y-150368000D03*
X160020000Y-152908000D03*
X101600000Y-140208000D03*
X121920000Y-74168000D03*
X116840000Y-102108000D03*
X154940000Y-43688000D03*
X165100000Y-117348000D03*
X167640000Y-137668000D03*
X139700000Y-155448000D03*
X129540000Y-56388000D03*
X162560000Y-107188000D03*
X162560000Y-74168000D03*
X160020000Y-66548000D03*
X124460000Y-51308000D03*
X114300000Y-41148000D03*
X149860000Y-61468000D03*
X134620000Y-48768000D03*
X124460000Y-89408000D03*
X116478537Y-160889463D03*
X132080000Y-160528000D03*
X101600000Y-145288000D03*
X147320000Y-61468000D03*
X134620000Y-51308000D03*
X111760000Y-104648000D03*
X119380000Y-99568000D03*
X109220000Y-152908000D03*
X157480000Y-152908000D03*
X132080000Y-74168000D03*
X167640000Y-119888000D03*
X152400000Y-84328000D03*
X129540000Y-152908000D03*
X124968000Y-115570000D03*
X124460000Y-41148000D03*
X154940000Y-142748000D03*
X157480000Y-84328000D03*
X116840000Y-97028000D03*
X104140000Y-147828000D03*
X142240000Y-147828000D03*
X109220000Y-36068000D03*
X129540000Y-160528000D03*
X147320000Y-58928000D03*
X109220000Y-147828000D03*
X154940000Y-157988000D03*
X114300000Y-64008000D03*
X152400000Y-107188000D03*
X101600000Y-152908000D03*
X104140000Y-122428000D03*
X157480000Y-130048000D03*
X144780000Y-56388000D03*
X106680000Y-48768000D03*
X101600000Y-130048000D03*
X154940000Y-41148000D03*
X114300000Y-69088000D03*
X160020000Y-76708000D03*
X160020000Y-71628000D03*
X165100000Y-104648000D03*
X104140000Y-117348000D03*
X154940000Y-53848000D03*
X154940000Y-71628000D03*
X119380000Y-89408000D03*
X144780000Y-48768000D03*
X124460000Y-66548000D03*
X111760000Y-51308000D03*
X157480000Y-38608000D03*
X139700000Y-145288000D03*
X127000000Y-147828000D03*
X142240000Y-74168000D03*
X129540000Y-142748000D03*
X116840000Y-48768000D03*
X132080000Y-140208000D03*
X106680000Y-102108000D03*
X124460000Y-99568000D03*
X104140000Y-132588000D03*
X139700000Y-150368000D03*
X147320000Y-142748000D03*
X114300000Y-147828000D03*
X160020000Y-157988000D03*
X116840000Y-81788000D03*
X160020000Y-58928000D03*
X116840000Y-66548000D03*
X124460000Y-61468000D03*
X142240000Y-53848000D03*
X165100000Y-86868000D03*
X147320000Y-46228000D03*
X121920000Y-51308000D03*
X119380000Y-91948000D03*
X154940000Y-64008000D03*
X154940000Y-135128000D03*
X149860000Y-107188000D03*
X109220000Y-41148000D03*
X139700000Y-56388000D03*
X162560000Y-86868000D03*
X121920000Y-142748000D03*
X160020000Y-81788000D03*
X162560000Y-117348000D03*
X124460000Y-58928000D03*
X121920000Y-66548000D03*
X121920000Y-147828000D03*
X101600000Y-135128000D03*
X104140000Y-64008000D03*
X152400000Y-41148000D03*
X147320000Y-41148000D03*
X132080000Y-58928000D03*
X104140000Y-94488000D03*
X162560000Y-81788000D03*
X154940000Y-127508000D03*
X144780000Y-46228000D03*
X127000000Y-94488000D03*
X137160000Y-157988000D03*
X111760000Y-61468000D03*
X160020000Y-155448000D03*
X139700000Y-76708000D03*
X111760000Y-36068000D03*
X134620000Y-145288000D03*
X106680000Y-69088000D03*
X114300000Y-66548000D03*
X127000000Y-69088000D03*
X132080000Y-53848000D03*
X154940000Y-132588000D03*
X157480000Y-46228000D03*
X165100000Y-102108000D03*
X160020000Y-38608000D03*
X124460000Y-81788000D03*
X127000000Y-84328000D03*
X150368000Y-118110000D03*
X147320000Y-150368000D03*
X104140000Y-112268000D03*
X134620000Y-61468000D03*
X162560000Y-119888000D03*
X124460000Y-157988000D03*
X152400000Y-71628000D03*
X152400000Y-53848000D03*
X116840000Y-147828000D03*
X116840000Y-99568000D03*
X129540000Y-41148000D03*
X167640000Y-142748000D03*
X142240000Y-152908000D03*
X139700000Y-147828000D03*
X145288000Y-119380000D03*
X139700000Y-51308000D03*
X132080000Y-71628000D03*
X160020000Y-114808000D03*
X157480000Y-155448000D03*
X154940000Y-79248000D03*
X167640000Y-122428000D03*
X116840000Y-155448000D03*
X142240000Y-150368000D03*
X135128000Y-120904000D03*
X127000000Y-99568000D03*
X109220000Y-99568000D03*
X142240000Y-41148000D03*
X152400000Y-64008000D03*
X160020000Y-41148000D03*
X132080000Y-147828000D03*
X132080000Y-66548000D03*
X124460000Y-64008000D03*
X109220000Y-46228000D03*
X121920000Y-97028000D03*
X160020000Y-91948000D03*
X152400000Y-51308000D03*
X121920000Y-99568000D03*
X108458000Y-154686000D03*
X132080000Y-130048000D03*
X129540000Y-58928000D03*
X149860000Y-38608000D03*
X104140000Y-102108000D03*
X160020000Y-64008000D03*
X160020000Y-102108000D03*
X104140000Y-119888000D03*
X127000000Y-89408000D03*
X157480000Y-41148000D03*
X124460000Y-155448000D03*
X147320000Y-155448000D03*
X167640000Y-145288000D03*
X160020000Y-48768000D03*
X111760000Y-142748000D03*
X134620000Y-160528000D03*
X114300000Y-130048000D03*
X121920000Y-61468000D03*
X134620000Y-53848000D03*
X154940000Y-137668000D03*
X129540000Y-71628000D03*
X104140000Y-135128000D03*
X139700000Y-46228000D03*
X137160000Y-74168000D03*
X119380000Y-94488000D03*
X149860000Y-76708000D03*
X129540000Y-117348000D03*
X109220000Y-150368000D03*
X104140000Y-43688000D03*
X137160000Y-152908000D03*
X129540000Y-74168000D03*
X160020000Y-150368000D03*
X129540000Y-36068000D03*
X162560000Y-127508000D03*
X154940000Y-130048000D03*
X152400000Y-89408000D03*
X111760000Y-99568000D03*
X104140000Y-140208000D03*
X149860000Y-43688000D03*
X157480000Y-132588000D03*
X160020000Y-84328000D03*
X137160000Y-150368000D03*
X124460000Y-152908000D03*
X129540000Y-132588000D03*
X119380000Y-152908000D03*
X119380000Y-74168000D03*
X167640000Y-140208000D03*
X142240000Y-38608000D03*
X111760000Y-152908000D03*
X127000000Y-132588000D03*
X144780000Y-145288000D03*
X116840000Y-51308000D03*
X165100000Y-122428000D03*
X127000000Y-152908000D03*
X157480000Y-107188000D03*
X157480000Y-51308000D03*
X119380000Y-71628000D03*
X154940000Y-61468000D03*
X152400000Y-157988000D03*
X121920000Y-102108000D03*
X127000000Y-157988000D03*
X154940000Y-160528000D03*
X152400000Y-91948000D03*
X162560000Y-135128000D03*
X124460000Y-104648000D03*
X167640000Y-104648000D03*
X121920000Y-38608000D03*
X147320000Y-53848000D03*
X132080000Y-61468000D03*
X114300000Y-74168000D03*
X139700000Y-74168000D03*
X157480000Y-74168000D03*
X157480000Y-117348000D03*
X104140000Y-104648000D03*
X109220000Y-142748000D03*
X106680000Y-46228000D03*
X129540000Y-66548000D03*
X149860000Y-53848000D03*
X157480000Y-91948000D03*
X114300000Y-58928000D03*
X124460000Y-147828000D03*
X154940000Y-76708000D03*
X106680000Y-74168000D03*
X127000000Y-76708000D03*
X119380000Y-147828000D03*
X144780000Y-142748000D03*
X142240000Y-48768000D03*
X137160000Y-79248000D03*
X119380000Y-81788000D03*
X109220000Y-160528000D03*
X139700000Y-58928000D03*
X132080000Y-76708000D03*
X129540000Y-61468000D03*
X157480000Y-69088000D03*
X127000000Y-41148000D03*
X157480000Y-140208000D03*
X119380000Y-160528000D03*
X154940000Y-74168000D03*
X160020000Y-61468000D03*
X139700000Y-64008000D03*
X132080000Y-152908000D03*
X157480000Y-150368000D03*
X121920000Y-130048000D03*
X106680000Y-43688000D03*
X129540000Y-114808000D03*
X152400000Y-61468000D03*
X121920000Y-58928000D03*
X101600000Y-122428000D03*
X111760000Y-102108000D03*
X119380000Y-104648000D03*
X160020000Y-97028000D03*
X106680000Y-61468000D03*
X104140000Y-145288000D03*
X124460000Y-94488000D03*
X104140000Y-61468000D03*
X109220000Y-69088000D03*
X111760000Y-147828000D03*
X160020000Y-124968000D03*
X121920000Y-71628000D03*
X137160000Y-43688000D03*
X111760000Y-38608000D03*
X152400000Y-48768000D03*
X114300000Y-56388000D03*
X165100000Y-127508000D03*
X129540000Y-157988000D03*
X104140000Y-150368000D03*
X157480000Y-79248000D03*
X104140000Y-69088000D03*
X121920000Y-155448000D03*
X111760000Y-76708000D03*
X139700000Y-61468000D03*
X152400000Y-109728000D03*
X142240000Y-36068000D03*
X132080000Y-56388000D03*
X149860000Y-66548000D03*
X145341374Y-114607374D03*
X147320000Y-145288000D03*
X165100000Y-124968000D03*
X157480000Y-53848000D03*
X121920000Y-160528000D03*
X157480000Y-64008000D03*
X121920000Y-157988000D03*
X116840000Y-61468000D03*
X109220000Y-104648000D03*
X101600000Y-142748000D03*
X101600000Y-119888000D03*
X137160000Y-58928000D03*
X121920000Y-145288000D03*
X104140000Y-56388000D03*
X109220000Y-74168000D03*
X137160000Y-160528000D03*
X101600000Y-150368000D03*
X154940000Y-155448000D03*
X162560000Y-102108000D03*
X147320000Y-147828000D03*
X167640000Y-89408000D03*
X104140000Y-114808000D03*
X121920000Y-94488000D03*
X142240000Y-145288000D03*
X137160000Y-64008000D03*
X142240000Y-160528000D03*
X157480000Y-58928000D03*
X127000000Y-145288000D03*
X165100000Y-140208000D03*
X111760000Y-69088000D03*
X106680000Y-94488000D03*
X149860000Y-41148000D03*
X137160000Y-51308000D03*
X116840000Y-74168000D03*
X137160000Y-145288000D03*
X157480000Y-157988000D03*
X132080000Y-137668000D03*
X142240000Y-61468000D03*
X160020000Y-94488000D03*
X132080000Y-145288000D03*
X134620000Y-76708000D03*
X132080000Y-51308000D03*
X160020000Y-51308000D03*
X114300000Y-155448000D03*
X160020000Y-109728000D03*
X121920000Y-53848000D03*
X162560000Y-122428000D03*
X157480000Y-137668000D03*
X129540000Y-53848000D03*
X109220000Y-56388000D03*
X152400000Y-43688000D03*
X142240000Y-56388000D03*
X134620000Y-79248000D03*
X119380000Y-97028000D03*
X139700000Y-41148000D03*
X144780000Y-152908000D03*
X160020000Y-147828000D03*
X154940000Y-150368000D03*
X109220000Y-145288000D03*
X129540000Y-145288000D03*
X154940000Y-152908000D03*
X152400000Y-38608000D03*
X157480000Y-56388000D03*
X160020000Y-135128000D03*
X167640000Y-127508000D03*
X104140000Y-137668000D03*
X152400000Y-69088000D03*
X139700000Y-157988000D03*
X157480000Y-122428000D03*
X144780000Y-66548000D03*
X111760000Y-66548000D03*
X104140000Y-97028000D03*
X114300000Y-132588000D03*
X154940000Y-66548000D03*
X144780000Y-147828000D03*
X154940000Y-51308000D03*
X167640000Y-74168000D03*
X144780000Y-155448000D03*
X139700000Y-66548000D03*
X137160000Y-48768000D03*
X152400000Y-46228000D03*
X162560000Y-104648000D03*
X124460000Y-69088000D03*
X139700000Y-53848000D03*
X111760000Y-94488000D03*
X145542000Y-129032000D03*
X165100000Y-137668000D03*
X109220000Y-43688000D03*
X144780000Y-157988000D03*
X152400000Y-58928000D03*
X154940000Y-38608000D03*
X165100000Y-142748000D03*
X132080000Y-150368000D03*
X139700000Y-160528000D03*
X116840000Y-89408000D03*
X149860000Y-74168000D03*
X114300000Y-152908000D03*
X144780000Y-51308000D03*
X124460000Y-119888000D03*
X160020000Y-160528000D03*
X106680000Y-152908000D03*
X157480000Y-97028000D03*
X160020000Y-56388000D03*
X160020000Y-122428000D03*
X104140000Y-58928000D03*
X154940000Y-58928000D03*
X157480000Y-61468000D03*
X129540000Y-155448000D03*
X106680000Y-145288000D03*
X127000000Y-102108000D03*
X149860000Y-48768000D03*
X119380000Y-155448000D03*
X162560000Y-97028000D03*
X134620000Y-43688000D03*
X152400000Y-155448000D03*
X129540000Y-104648000D03*
X149860000Y-58928000D03*
X157480000Y-112268000D03*
X149860000Y-155448000D03*
X106680000Y-99568000D03*
X114300000Y-76708000D03*
X154940000Y-147828000D03*
X157480000Y-48768000D03*
X162560000Y-145288000D03*
X114300000Y-48768000D03*
X152400000Y-74168000D03*
X104140000Y-124968000D03*
X157480000Y-135128000D03*
X162560000Y-152908000D03*
X134620000Y-64008000D03*
X142240000Y-51308000D03*
X124460000Y-102108000D03*
X129540000Y-79248000D03*
X108458000Y-159766000D03*
X160020000Y-36068000D03*
X149860000Y-51308000D03*
X116840000Y-56388000D03*
X157480000Y-127508000D03*
X127000000Y-104648000D03*
X106680000Y-97028000D03*
X152400000Y-127508000D03*
X147320000Y-43688000D03*
X160020000Y-43688000D03*
X142240000Y-58928000D03*
X152400000Y-66548000D03*
X137160000Y-41148000D03*
X157480000Y-142748000D03*
%TO.N,Net-(U1-FB)*%
X146610735Y-134963265D03*
X147828000Y-132842000D03*
D19*
%TO.N,+5V*%
X137668000Y-126492000D03*
D18*
%TO.N,+3.3V*%
X140768000Y-92329000D03*
X150622000Y-81534000D03*
X121180498Y-135138001D03*
X145288000Y-86106000D03*
D19*
%TO.N,/2S2P Battery Pack/VBATT+*%
X107188000Y-53848000D03*
%TO.N,+5V_HEATER*%
X137160000Y-109728000D03*
D18*
%TO.N,/PWM_HEATER*%
X119380000Y-86868000D03*
%TO.N,/MPPT/+12V*%
X119380000Y-123952000D03*
X101600000Y-103632000D03*
%TO.N,Net-(U9-FB)*%
X147530000Y-96641900D03*
X146006000Y-99689900D03*
%TO.N,Net-(U6-TS)*%
X125475996Y-76708000D03*
%TO.N,/VBAT_SENSE*%
X146812000Y-64008000D03*
%TO.N,Net-(U3-FB)*%
X146604085Y-117691265D03*
X148292000Y-115476000D03*
%TD*%
D20*
%TO.N,Net-(U1-FB)*%
X147828000Y-132842000D02*
X147828000Y-133746000D01*
X147828000Y-133746000D02*
X146610735Y-134963265D01*
D21*
%TO.N,+5V*%
X154432000Y-124460000D02*
X152400000Y-126492000D01*
X154432000Y-91440000D02*
X154432000Y-124460000D01*
X167132000Y-77296000D02*
X167132000Y-87376000D01*
X165100000Y-89408000D02*
X156464000Y-89408000D01*
X156464000Y-89408000D02*
X154432000Y-91440000D01*
X165100000Y-75264000D02*
X167132000Y-77296000D01*
X152400000Y-126492000D02*
X137668000Y-126492000D01*
X167132000Y-87376000D02*
X165100000Y-89408000D01*
D20*
%TO.N,+3.3V*%
X139954000Y-111760000D02*
X135636000Y-111760000D01*
X150368000Y-84328000D02*
X150622000Y-84074000D01*
X145288000Y-86106000D02*
X147066000Y-84328000D01*
X150622000Y-84074000D02*
X150622000Y-81534000D01*
X140768000Y-92329000D02*
X140768000Y-110946000D01*
X121180498Y-135105502D02*
X121180498Y-135138001D01*
X135636000Y-111760000D02*
X134070000Y-113326000D01*
X140768000Y-110946000D02*
X139954000Y-111760000D01*
X134070000Y-122216000D02*
X121180498Y-135105502D01*
X147066000Y-84328000D02*
X150368000Y-84328000D01*
X134070000Y-113326000D02*
X134070000Y-122216000D01*
D21*
%TO.N,/2S2P Battery Pack/VBATT+*%
X107188000Y-53848000D02*
X104911323Y-53848000D01*
X104911323Y-53848000D02*
X101769397Y-50706074D01*
%TO.N,+5V_HEATER*%
X136756900Y-37995100D02*
X138698600Y-37995100D01*
X116840000Y-82804000D02*
X125984000Y-82804000D01*
X137160000Y-109728000D02*
X118364000Y-109728000D01*
X118364000Y-109728000D02*
X114808000Y-106172000D01*
X114808000Y-84836000D02*
X116840000Y-82804000D01*
X128524000Y-46228000D02*
X136756900Y-37995100D01*
X125984000Y-82804000D02*
X128524000Y-80264000D01*
X128524000Y-80264000D02*
X128524000Y-46228000D01*
X114808000Y-106172000D02*
X114808000Y-84836000D01*
D20*
%TO.N,/PWM_HEATER*%
X160996000Y-86868000D02*
X119380000Y-86868000D01*
X165100000Y-82764000D02*
X160996000Y-86868000D01*
D22*
%TO.N,/MPPT/+12V*%
X101600000Y-103632000D02*
X119380000Y-121412000D01*
X119380000Y-121412000D02*
X119380000Y-123952000D01*
D20*
%TO.N,Net-(U9-FB)*%
X146006000Y-99689900D02*
X147530000Y-98165900D01*
X147530000Y-98165900D02*
X147530000Y-96641900D01*
%TO.N,Net-(U6-TS)*%
X115301400Y-38172901D02*
X125475996Y-48347497D01*
X125475996Y-48347497D02*
X125475996Y-76708000D01*
%TO.N,/VBAT_SENSE*%
X146812000Y-78232000D02*
X146812000Y-64008000D01*
X165100000Y-80264000D02*
X148844000Y-80264000D01*
X148844000Y-80264000D02*
X146812000Y-78232000D01*
%TO.N,Net-(U3-FB)*%
X146604085Y-117163915D02*
X148292000Y-115476000D01*
X146604085Y-117691265D02*
X146604085Y-117163915D01*
%TD*%
%TA.AperFunction,Conductor*%
%TO.N,GND*%
G36*
X125542581Y-34020185D02*
G01*
X125588336Y-34072989D01*
X125598280Y-34142147D01*
X125569255Y-34205703D01*
X125539971Y-34230448D01*
X125497951Y-34256000D01*
X125269743Y-34441661D01*
X125068932Y-34656676D01*
X124899282Y-34897016D01*
X124899278Y-34897022D01*
X124763927Y-35158237D01*
X124665409Y-35435440D01*
X124665404Y-35435456D01*
X124605552Y-35723486D01*
X124605551Y-35723488D01*
X124585475Y-36017000D01*
X124605551Y-36310511D01*
X124605552Y-36310513D01*
X124665404Y-36598543D01*
X124665409Y-36598559D01*
X124763927Y-36875762D01*
X124899278Y-37136977D01*
X124899282Y-37136983D01*
X125068932Y-37377323D01*
X125269743Y-37592338D01*
X125397384Y-37696181D01*
X125497951Y-37777999D01*
X125497953Y-37778000D01*
X125497954Y-37778001D01*
X125749319Y-37930860D01*
X125749324Y-37930862D01*
X126019154Y-38048065D01*
X126019159Y-38048067D01*
X126302445Y-38127440D01*
X126558681Y-38162659D01*
X126593901Y-38167500D01*
X126593902Y-38167500D01*
X126888099Y-38167500D01*
X126919520Y-38163180D01*
X127179555Y-38127440D01*
X127462841Y-38048067D01*
X127732682Y-37930859D01*
X127984049Y-37777999D01*
X128212260Y-37592335D01*
X128413065Y-37377326D01*
X128582722Y-37136976D01*
X128718072Y-36875764D01*
X128816592Y-36598554D01*
X128816592Y-36598549D01*
X128816595Y-36598543D01*
X128862003Y-36380022D01*
X128876448Y-36310511D01*
X128896525Y-36017000D01*
X128895027Y-35995096D01*
X137882569Y-35995096D01*
X137882569Y-35995101D01*
X137903027Y-36176678D01*
X137903028Y-36176682D01*
X137963381Y-36349164D01*
X137963384Y-36349169D01*
X138060596Y-36503880D01*
X138060601Y-36503886D01*
X138189812Y-36633097D01*
X138189818Y-36633102D01*
X138344529Y-36730314D01*
X138344534Y-36730317D01*
X138517016Y-36790670D01*
X138517020Y-36790671D01*
X138698597Y-36811130D01*
X138698600Y-36811130D01*
X138698603Y-36811130D01*
X138880179Y-36790671D01*
X138880182Y-36790670D01*
X138880184Y-36790670D01*
X139052663Y-36730318D01*
X139052665Y-36730317D01*
X139052670Y-36730314D01*
X139207381Y-36633102D01*
X139207382Y-36633101D01*
X139207387Y-36633098D01*
X139336599Y-36503886D01*
X139414427Y-36380024D01*
X139433815Y-36349169D01*
X139433818Y-36349164D01*
X139446077Y-36314130D01*
X139494171Y-36176683D01*
X139502812Y-36099999D01*
X139514631Y-35995101D01*
X139514631Y-35995096D01*
X139494172Y-35813519D01*
X139494171Y-35813515D01*
X139433818Y-35641033D01*
X139433815Y-35641028D01*
X139336603Y-35486317D01*
X139336598Y-35486311D01*
X139207387Y-35357100D01*
X139207381Y-35357095D01*
X139052670Y-35259883D01*
X139052665Y-35259880D01*
X138880183Y-35199527D01*
X138880179Y-35199526D01*
X138698603Y-35179068D01*
X138698597Y-35179068D01*
X138517020Y-35199526D01*
X138517016Y-35199527D01*
X138344534Y-35259880D01*
X138344529Y-35259883D01*
X138189818Y-35357095D01*
X138189812Y-35357100D01*
X138060601Y-35486311D01*
X138060596Y-35486317D01*
X137963384Y-35641028D01*
X137963381Y-35641033D01*
X137903028Y-35813515D01*
X137903027Y-35813519D01*
X137882569Y-35995096D01*
X128895027Y-35995096D01*
X128876448Y-35723489D01*
X128847907Y-35586141D01*
X128816595Y-35435456D01*
X128816590Y-35435440D01*
X128732747Y-35199528D01*
X128718072Y-35158236D01*
X128582722Y-34897024D01*
X128582721Y-34897022D01*
X128582717Y-34897016D01*
X128413067Y-34656676D01*
X128212256Y-34441661D01*
X127984048Y-34256000D01*
X127942029Y-34230448D01*
X127894977Y-34178796D01*
X127883320Y-34109906D01*
X127910758Y-34045649D01*
X127968580Y-34006427D01*
X128006458Y-34000500D01*
X168875500Y-34000500D01*
X168942539Y-34020185D01*
X168988294Y-34072989D01*
X168999500Y-34124500D01*
X168999500Y-43519500D01*
X168979815Y-43586539D01*
X168927011Y-43632294D01*
X168875500Y-43643500D01*
X162322108Y-43643500D01*
X162194812Y-43677608D01*
X162080686Y-43743500D01*
X162080683Y-43743502D01*
X161987502Y-43836683D01*
X161987500Y-43836686D01*
X161921608Y-43950812D01*
X161887500Y-44078108D01*
X161887500Y-69101891D01*
X161921608Y-69229187D01*
X161954554Y-69286250D01*
X161987500Y-69343314D01*
X162080686Y-69436500D01*
X162194814Y-69502392D01*
X162322108Y-69536500D01*
X168875500Y-69536500D01*
X168942539Y-69556185D01*
X168988294Y-69608989D01*
X168999500Y-69660500D01*
X168999500Y-162875500D01*
X168979815Y-162942539D01*
X168927011Y-162988294D01*
X168875500Y-162999500D01*
X127575097Y-162999500D01*
X127508058Y-162979815D01*
X127462303Y-162927011D01*
X127452359Y-162857853D01*
X127481384Y-162794297D01*
X127525696Y-162761766D01*
X127732675Y-162671862D01*
X127732680Y-162671860D01*
X127732682Y-162671859D01*
X127984049Y-162518999D01*
X128212260Y-162333335D01*
X128413065Y-162118326D01*
X128582722Y-161877976D01*
X128718072Y-161616764D01*
X128816592Y-161339554D01*
X128816592Y-161339549D01*
X128816595Y-161339543D01*
X128849511Y-161181135D01*
X128876448Y-161051511D01*
X128896525Y-160758000D01*
X128876448Y-160464489D01*
X128820365Y-160194601D01*
X128816595Y-160176456D01*
X128816590Y-160176440D01*
X128782869Y-160081559D01*
X128718072Y-159899236D01*
X128582722Y-159638024D01*
X128582721Y-159638022D01*
X128582717Y-159638016D01*
X128485295Y-159500000D01*
X163344475Y-159500000D01*
X163364551Y-159793511D01*
X163364552Y-159793513D01*
X163424404Y-160081543D01*
X163424409Y-160081559D01*
X163522927Y-160358762D01*
X163658278Y-160619977D01*
X163658282Y-160619983D01*
X163827932Y-160860323D01*
X164028743Y-161075338D01*
X164156384Y-161179181D01*
X164256951Y-161260999D01*
X164256953Y-161261000D01*
X164256954Y-161261001D01*
X164508319Y-161413860D01*
X164508324Y-161413862D01*
X164774823Y-161529618D01*
X164778159Y-161531067D01*
X165061445Y-161610440D01*
X165317681Y-161645659D01*
X165352901Y-161650500D01*
X165352902Y-161650500D01*
X165647099Y-161650500D01*
X165678520Y-161646180D01*
X165938555Y-161610440D01*
X166221841Y-161531067D01*
X166491682Y-161413859D01*
X166743049Y-161260999D01*
X166971260Y-161075335D01*
X167172065Y-160860326D01*
X167341722Y-160619976D01*
X167477072Y-160358764D01*
X167575592Y-160081554D01*
X167575592Y-160081549D01*
X167575595Y-160081543D01*
X167613478Y-159899236D01*
X167635448Y-159793511D01*
X167655525Y-159500000D01*
X167635448Y-159206489D01*
X167591916Y-158997001D01*
X167575595Y-158918456D01*
X167575590Y-158918440D01*
X167507529Y-158726934D01*
X167477072Y-158641236D01*
X167341722Y-158380024D01*
X167341721Y-158380022D01*
X167341717Y-158380016D01*
X167172067Y-158139676D01*
X166971256Y-157924661D01*
X166743045Y-157738998D01*
X166491680Y-157586139D01*
X166491675Y-157586137D01*
X166221845Y-157468934D01*
X165938560Y-157389561D01*
X165938556Y-157389560D01*
X165938555Y-157389560D01*
X165792826Y-157369530D01*
X165647099Y-157349500D01*
X165647098Y-157349500D01*
X165352902Y-157349500D01*
X165352901Y-157349500D01*
X165061445Y-157389560D01*
X165061439Y-157389561D01*
X164778154Y-157468934D01*
X164508324Y-157586137D01*
X164508319Y-157586139D01*
X164256954Y-157738998D01*
X164028743Y-157924661D01*
X163827932Y-158139676D01*
X163658282Y-158380016D01*
X163658278Y-158380022D01*
X163522927Y-158641237D01*
X163424409Y-158918440D01*
X163424404Y-158918456D01*
X163364552Y-159206486D01*
X163364551Y-159206488D01*
X163344475Y-159500000D01*
X128485295Y-159500000D01*
X128413067Y-159397676D01*
X128212256Y-159182661D01*
X127984045Y-158996998D01*
X127732680Y-158844139D01*
X127732675Y-158844137D01*
X127462845Y-158726934D01*
X127179560Y-158647561D01*
X127179556Y-158647560D01*
X127179555Y-158647560D01*
X127033826Y-158627530D01*
X126888099Y-158607500D01*
X126888098Y-158607500D01*
X126593902Y-158607500D01*
X126593901Y-158607500D01*
X126302445Y-158647560D01*
X126302439Y-158647561D01*
X126019154Y-158726934D01*
X125749324Y-158844137D01*
X125749319Y-158844139D01*
X125497954Y-158996998D01*
X125269743Y-159182661D01*
X125068932Y-159397676D01*
X124899282Y-159638016D01*
X124899278Y-159638022D01*
X124763927Y-159899237D01*
X124665409Y-160176440D01*
X124665404Y-160176456D01*
X124605552Y-160464486D01*
X124605551Y-160464488D01*
X124585475Y-160758000D01*
X124605551Y-161051511D01*
X124605552Y-161051513D01*
X124665404Y-161339543D01*
X124665409Y-161339559D01*
X124763927Y-161616762D01*
X124899278Y-161877977D01*
X124899282Y-161877983D01*
X125068932Y-162118323D01*
X125269743Y-162333338D01*
X125397384Y-162437181D01*
X125497951Y-162518999D01*
X125497953Y-162519000D01*
X125497954Y-162519001D01*
X125749319Y-162671860D01*
X125749324Y-162671862D01*
X125956304Y-162761766D01*
X126009952Y-162806529D01*
X126030881Y-162873190D01*
X126012449Y-162940585D01*
X125960507Y-162987315D01*
X125906903Y-162999500D01*
X100124500Y-162999500D01*
X100057461Y-162979815D01*
X100011706Y-162927011D01*
X100000500Y-162875500D01*
X100000500Y-159500000D01*
X101344475Y-159500000D01*
X101364551Y-159793511D01*
X101364552Y-159793513D01*
X101424404Y-160081543D01*
X101424409Y-160081559D01*
X101522927Y-160358762D01*
X101658278Y-160619977D01*
X101658282Y-160619983D01*
X101827932Y-160860323D01*
X102028743Y-161075338D01*
X102156384Y-161179181D01*
X102256951Y-161260999D01*
X102256953Y-161261000D01*
X102256954Y-161261001D01*
X102508319Y-161413860D01*
X102508324Y-161413862D01*
X102774823Y-161529618D01*
X102778159Y-161531067D01*
X103061445Y-161610440D01*
X103317681Y-161645659D01*
X103352901Y-161650500D01*
X103352902Y-161650500D01*
X103647099Y-161650500D01*
X103678520Y-161646180D01*
X103938555Y-161610440D01*
X104221841Y-161531067D01*
X104491682Y-161413859D01*
X104743049Y-161260999D01*
X104971260Y-161075335D01*
X105172065Y-160860326D01*
X105227353Y-160782000D01*
X116798709Y-160782000D01*
X116819024Y-160988262D01*
X116819024Y-160988265D01*
X116879191Y-161186611D01*
X116917620Y-161258505D01*
X116976895Y-161369399D01*
X116976897Y-161369401D01*
X117108381Y-161529618D01*
X117205156Y-161609038D01*
X117268601Y-161661105D01*
X117451392Y-161758810D01*
X117649733Y-161818975D01*
X117856000Y-161839291D01*
X118062267Y-161818975D01*
X118260608Y-161758810D01*
X118443399Y-161661105D01*
X118603618Y-161529618D01*
X118735105Y-161369399D01*
X118832810Y-161186608D01*
X118892975Y-160988267D01*
X118913291Y-160782000D01*
X118892975Y-160575733D01*
X118832810Y-160377392D01*
X118735105Y-160194601D01*
X118642322Y-160081543D01*
X118603618Y-160034381D01*
X118443401Y-159902897D01*
X118443402Y-159902897D01*
X118443399Y-159902895D01*
X118332505Y-159843620D01*
X118260611Y-159805191D01*
X118222113Y-159793513D01*
X118062267Y-159745025D01*
X118062265Y-159745024D01*
X118062263Y-159745024D01*
X117856000Y-159724709D01*
X117649737Y-159745024D01*
X117649734Y-159745024D01*
X117451388Y-159805191D01*
X117315822Y-159877654D01*
X117268601Y-159902895D01*
X117268599Y-159902896D01*
X117268598Y-159902897D01*
X117108381Y-160034381D01*
X116976897Y-160194598D01*
X116879191Y-160377388D01*
X116819024Y-160575734D01*
X116819024Y-160575737D01*
X116798709Y-160782000D01*
X105227353Y-160782000D01*
X105341722Y-160619976D01*
X105477072Y-160358764D01*
X105575592Y-160081554D01*
X105575592Y-160081549D01*
X105575595Y-160081543D01*
X105613478Y-159899236D01*
X105635448Y-159793511D01*
X105655525Y-159500000D01*
X105635448Y-159206489D01*
X105591916Y-158997001D01*
X105575595Y-158918456D01*
X105575590Y-158918440D01*
X105507529Y-158726934D01*
X105477072Y-158641236D01*
X105341722Y-158380024D01*
X105341721Y-158380022D01*
X105341717Y-158380016D01*
X105172067Y-158139676D01*
X104971256Y-157924661D01*
X104743045Y-157738998D01*
X104491680Y-157586139D01*
X104491675Y-157586137D01*
X104221845Y-157468934D01*
X103938560Y-157389561D01*
X103938556Y-157389560D01*
X103938555Y-157389560D01*
X103792826Y-157369530D01*
X103647099Y-157349500D01*
X103647098Y-157349500D01*
X103352902Y-157349500D01*
X103352901Y-157349500D01*
X103061445Y-157389560D01*
X103061439Y-157389561D01*
X102778154Y-157468934D01*
X102508324Y-157586137D01*
X102508319Y-157586139D01*
X102256954Y-157738998D01*
X102028743Y-157924661D01*
X101827932Y-158139676D01*
X101658282Y-158380016D01*
X101658278Y-158380022D01*
X101522927Y-158641237D01*
X101424409Y-158918440D01*
X101424404Y-158918456D01*
X101364552Y-159206486D01*
X101364551Y-159206488D01*
X101344475Y-159500000D01*
X100000500Y-159500000D01*
X100000500Y-155781994D01*
X116449496Y-155781994D01*
X116449496Y-155782005D01*
X116468678Y-156013499D01*
X116525704Y-156238691D01*
X116619015Y-156451418D01*
X116703584Y-156580861D01*
X117256718Y-156027727D01*
X117282016Y-156088801D01*
X117352899Y-156194885D01*
X117443115Y-156285101D01*
X117549199Y-156355984D01*
X117610271Y-156381281D01*
X117055989Y-156935562D01*
X117055990Y-156935563D01*
X117086712Y-156959475D01*
X117086718Y-156959480D01*
X117291007Y-157070035D01*
X117291017Y-157070040D01*
X117510721Y-157145464D01*
X117739853Y-157183700D01*
X117972147Y-157183700D01*
X118201278Y-157145464D01*
X118420982Y-157070040D01*
X118420987Y-157070038D01*
X118625288Y-156959475D01*
X118656008Y-156935563D01*
X118656008Y-156935562D01*
X118101728Y-156381281D01*
X118162801Y-156355984D01*
X118268885Y-156285101D01*
X118359101Y-156194885D01*
X118429984Y-156088801D01*
X118455281Y-156027728D01*
X119008414Y-156580861D01*
X119092980Y-156451425D01*
X119092985Y-156451417D01*
X119186295Y-156238691D01*
X119243321Y-156013499D01*
X119262504Y-155782005D01*
X119262504Y-155781994D01*
X119243321Y-155550500D01*
X119186295Y-155325308D01*
X119092982Y-155112576D01*
X119008414Y-154983137D01*
X118455280Y-155536270D01*
X118429984Y-155475199D01*
X118359101Y-155369115D01*
X118268885Y-155278899D01*
X118162801Y-155208016D01*
X118101727Y-155182718D01*
X118656009Y-154628436D01*
X118656009Y-154628435D01*
X118625286Y-154604523D01*
X118625281Y-154604519D01*
X118420992Y-154493964D01*
X118420982Y-154493959D01*
X118201278Y-154418535D01*
X117972147Y-154380300D01*
X117739853Y-154380300D01*
X117510721Y-154418535D01*
X117291017Y-154493959D01*
X117291007Y-154493964D01*
X117086717Y-154604520D01*
X117086706Y-154604527D01*
X117055990Y-154628434D01*
X117055990Y-154628436D01*
X117610272Y-155182718D01*
X117549199Y-155208016D01*
X117443115Y-155278899D01*
X117352899Y-155369115D01*
X117282016Y-155475199D01*
X117256718Y-155536271D01*
X116703584Y-154983137D01*
X116619016Y-155112578D01*
X116525704Y-155325308D01*
X116468678Y-155550500D01*
X116449496Y-155781994D01*
X100000500Y-155781994D01*
X100000500Y-149214655D01*
X149165396Y-149214655D01*
X149165396Y-150142051D01*
X149165397Y-150142066D01*
X149180307Y-150331532D01*
X149239495Y-150578072D01*
X149336522Y-150812317D01*
X149336524Y-150812320D01*
X149468998Y-151028499D01*
X149468999Y-151028501D01*
X149633667Y-151221301D01*
X149826467Y-151385969D01*
X149826469Y-151385970D01*
X150042648Y-151518444D01*
X150042651Y-151518446D01*
X150276896Y-151615473D01*
X150523430Y-151674660D01*
X150712910Y-151689572D01*
X153061082Y-151689572D01*
X153061097Y-151689571D01*
X153250563Y-151674661D01*
X153497103Y-151615473D01*
X153731348Y-151518446D01*
X153731351Y-151518444D01*
X153947530Y-151385970D01*
X153947532Y-151385969D01*
X154140332Y-151221301D01*
X154305000Y-151028501D01*
X154305001Y-151028499D01*
X154437475Y-150812320D01*
X154437477Y-150812317D01*
X154534504Y-150578072D01*
X154593691Y-150331538D01*
X154608603Y-150142065D01*
X154608603Y-149860000D01*
X161944536Y-149860000D01*
X161964376Y-150213295D01*
X161964378Y-150213307D01*
X162023649Y-150562153D01*
X162023651Y-150562162D01*
X162121608Y-150902178D01*
X162257021Y-151229098D01*
X162257023Y-151229102D01*
X162428194Y-151538812D01*
X162428197Y-151538817D01*
X162632956Y-151827396D01*
X162632962Y-151827404D01*
X162868748Y-152091248D01*
X162868751Y-152091251D01*
X163132595Y-152327037D01*
X163132603Y-152327043D01*
X163421182Y-152531802D01*
X163421187Y-152531805D01*
X163730897Y-152702976D01*
X163730901Y-152702978D01*
X163837013Y-152746930D01*
X164057816Y-152838390D01*
X164397843Y-152936350D01*
X164746700Y-152995623D01*
X165100000Y-153015464D01*
X165453300Y-152995623D01*
X165802157Y-152936350D01*
X166142184Y-152838390D01*
X166469105Y-152702975D01*
X166778808Y-152531808D01*
X166778813Y-152531804D01*
X166778817Y-152531802D01*
X166869786Y-152467255D01*
X167067400Y-152327041D01*
X167331250Y-152091250D01*
X167567041Y-151827400D01*
X167771808Y-151538808D01*
X167942975Y-151229105D01*
X168078390Y-150902184D01*
X168176350Y-150562157D01*
X168235623Y-150213300D01*
X168255464Y-149860000D01*
X168235623Y-149506700D01*
X168176350Y-149157843D01*
X168078390Y-148817816D01*
X167949874Y-148507550D01*
X167942978Y-148490901D01*
X167942976Y-148490897D01*
X167771805Y-148181187D01*
X167771802Y-148181182D01*
X167567043Y-147892603D01*
X167567037Y-147892595D01*
X167331251Y-147628751D01*
X167331248Y-147628748D01*
X167067404Y-147392962D01*
X167067396Y-147392956D01*
X166778817Y-147188197D01*
X166778812Y-147188194D01*
X166469102Y-147017023D01*
X166469098Y-147017021D01*
X166242221Y-146923046D01*
X166142184Y-146881610D01*
X166142180Y-146881608D01*
X166142178Y-146881608D01*
X165802162Y-146783651D01*
X165802153Y-146783649D01*
X165453307Y-146724378D01*
X165453295Y-146724376D01*
X165100000Y-146704536D01*
X164746704Y-146724376D01*
X164746692Y-146724378D01*
X164397846Y-146783649D01*
X164397837Y-146783651D01*
X164057821Y-146881608D01*
X163730901Y-147017021D01*
X163730897Y-147017023D01*
X163421187Y-147188194D01*
X163421182Y-147188197D01*
X163132603Y-147392956D01*
X163132595Y-147392962D01*
X162868751Y-147628748D01*
X162868748Y-147628751D01*
X162632962Y-147892595D01*
X162632956Y-147892603D01*
X162428197Y-148181182D01*
X162428194Y-148181187D01*
X162257023Y-148490897D01*
X162257021Y-148490901D01*
X162121608Y-148817821D01*
X162023651Y-149157837D01*
X162023649Y-149157846D01*
X161964378Y-149506692D01*
X161964376Y-149506704D01*
X161944536Y-149860000D01*
X154608603Y-149860000D01*
X154608603Y-149214656D01*
X151887000Y-146493053D01*
X149165396Y-149214655D01*
X100000500Y-149214655D01*
X100000500Y-148507550D01*
X149165396Y-148507550D01*
X151533447Y-146139500D01*
X151533447Y-146139499D01*
X152240553Y-146139499D01*
X152240553Y-146139501D01*
X154608602Y-148507550D01*
X154608603Y-148507549D01*
X154608603Y-143771449D01*
X154608602Y-143771448D01*
X152240553Y-146139499D01*
X151533447Y-146139499D01*
X149165396Y-143771448D01*
X149165396Y-148507550D01*
X100000500Y-148507550D01*
X100000500Y-142136934D01*
X149165396Y-142136934D01*
X149165396Y-143064343D01*
X151886999Y-145785946D01*
X154608603Y-143064342D01*
X154608603Y-142136948D01*
X154608602Y-142136933D01*
X154593692Y-141947467D01*
X154534504Y-141700927D01*
X154437477Y-141466682D01*
X154437475Y-141466679D01*
X154305001Y-141250500D01*
X154305000Y-141250498D01*
X154140332Y-141057698D01*
X153947532Y-140893030D01*
X153947530Y-140893029D01*
X153731351Y-140760555D01*
X153731348Y-140760553D01*
X153497103Y-140663526D01*
X153250569Y-140604339D01*
X153061089Y-140589427D01*
X150712917Y-140589427D01*
X150712902Y-140589428D01*
X150523436Y-140604338D01*
X150276896Y-140663526D01*
X150042651Y-140760553D01*
X150042648Y-140760555D01*
X149826469Y-140893029D01*
X149826467Y-140893030D01*
X149633667Y-141057698D01*
X149468999Y-141250498D01*
X149468998Y-141250500D01*
X149336524Y-141466679D01*
X149336522Y-141466682D01*
X149239495Y-141700927D01*
X149180308Y-141947461D01*
X149165396Y-142136934D01*
X100000500Y-142136934D01*
X100000500Y-137618000D01*
X134360000Y-137618000D01*
X134367682Y-137610317D01*
X134429003Y-137576834D01*
X134455362Y-137574000D01*
X134810638Y-137574000D01*
X134877677Y-137593685D01*
X134898319Y-137610319D01*
X134906000Y-137618000D01*
X141460000Y-137618000D01*
X141460000Y-134963265D01*
X146155602Y-134963265D01*
X146174037Y-135091490D01*
X146227852Y-135209326D01*
X146227853Y-135209328D01*
X146312686Y-135307232D01*
X146421666Y-135377269D01*
X146545960Y-135413764D01*
X146545962Y-135413765D01*
X146545963Y-135413765D01*
X146675508Y-135413765D01*
X146675508Y-135413764D01*
X146799804Y-135377269D01*
X146908784Y-135307232D01*
X146993617Y-135209328D01*
X147047432Y-135091491D01*
X147065868Y-134963265D01*
X147062021Y-134936511D01*
X147071962Y-134867354D01*
X147097074Y-134831184D01*
X147952455Y-133975804D01*
X147952458Y-133975802D01*
X147969896Y-133958364D01*
X147969897Y-133958364D01*
X148040364Y-133887897D01*
X148065423Y-133827400D01*
X148078501Y-133795827D01*
X148078501Y-133696172D01*
X148078501Y-133686183D01*
X148078500Y-133686169D01*
X148078500Y-133283796D01*
X148098185Y-133216757D01*
X148121302Y-133190079D01*
X148126038Y-133185973D01*
X148126049Y-133185967D01*
X148210882Y-133088063D01*
X148264697Y-132970226D01*
X148283133Y-132842000D01*
X148264697Y-132713774D01*
X148210882Y-132595937D01*
X148126049Y-132498033D01*
X148017069Y-132427996D01*
X148017065Y-132427994D01*
X148017064Y-132427994D01*
X147892774Y-132391500D01*
X147892772Y-132391500D01*
X147763228Y-132391500D01*
X147763226Y-132391500D01*
X147638935Y-132427994D01*
X147638932Y-132427995D01*
X147638931Y-132427996D01*
X147587677Y-132460934D01*
X147529950Y-132498033D01*
X147445118Y-132595937D01*
X147445117Y-132595938D01*
X147391302Y-132713774D01*
X147372867Y-132842000D01*
X147391302Y-132970225D01*
X147445117Y-133088061D01*
X147445120Y-133088067D01*
X147514265Y-133167865D01*
X147529951Y-133185967D01*
X147529957Y-133185971D01*
X147534698Y-133190079D01*
X147572475Y-133248856D01*
X147577500Y-133283796D01*
X147577500Y-133590876D01*
X147557815Y-133657915D01*
X147541181Y-133678557D01*
X146743292Y-134476446D01*
X146681969Y-134509931D01*
X146655611Y-134512765D01*
X146545961Y-134512765D01*
X146421670Y-134549259D01*
X146421667Y-134549260D01*
X146421666Y-134549261D01*
X146370412Y-134582199D01*
X146312685Y-134619298D01*
X146227853Y-134717202D01*
X146227852Y-134717203D01*
X146174037Y-134835039D01*
X146155602Y-134963265D01*
X141460000Y-134963265D01*
X141460000Y-131860000D01*
X161944536Y-131860000D01*
X161964376Y-132213295D01*
X161964378Y-132213307D01*
X162023649Y-132562153D01*
X162023651Y-132562162D01*
X162033382Y-132595938D01*
X162121610Y-132902184D01*
X162149794Y-132970226D01*
X162257021Y-133229098D01*
X162257023Y-133229102D01*
X162428194Y-133538812D01*
X162428197Y-133538817D01*
X162632956Y-133827396D01*
X162632962Y-133827404D01*
X162868748Y-134091248D01*
X162868751Y-134091251D01*
X163132595Y-134327037D01*
X163132603Y-134327043D01*
X163421182Y-134531802D01*
X163421187Y-134531805D01*
X163421190Y-134531806D01*
X163421192Y-134531808D01*
X163452771Y-134549261D01*
X163730897Y-134702976D01*
X163730901Y-134702978D01*
X163837013Y-134746930D01*
X164057816Y-134838390D01*
X164397843Y-134936350D01*
X164746700Y-134995623D01*
X165100000Y-135015464D01*
X165453300Y-134995623D01*
X165802157Y-134936350D01*
X166142184Y-134838390D01*
X166469105Y-134702975D01*
X166778808Y-134531808D01*
X166778813Y-134531804D01*
X166778817Y-134531802D01*
X166869786Y-134467255D01*
X167067400Y-134327041D01*
X167331250Y-134091250D01*
X167567041Y-133827400D01*
X167771808Y-133538808D01*
X167942975Y-133229105D01*
X168078390Y-132902184D01*
X168176350Y-132562157D01*
X168235623Y-132213300D01*
X168255464Y-131860000D01*
X168235623Y-131506700D01*
X168176350Y-131157843D01*
X168078390Y-130817816D01*
X167986930Y-130597013D01*
X167942978Y-130490901D01*
X167942976Y-130490897D01*
X167771805Y-130181187D01*
X167771802Y-130181182D01*
X167567043Y-129892603D01*
X167567037Y-129892595D01*
X167331251Y-129628751D01*
X167331248Y-129628748D01*
X167067404Y-129392962D01*
X167067396Y-129392956D01*
X166778817Y-129188197D01*
X166778812Y-129188194D01*
X166469102Y-129017023D01*
X166469098Y-129017021D01*
X166242221Y-128923046D01*
X166142184Y-128881610D01*
X166142180Y-128881608D01*
X166142178Y-128881608D01*
X165802162Y-128783651D01*
X165802153Y-128783649D01*
X165453307Y-128724378D01*
X165453295Y-128724376D01*
X165100000Y-128704536D01*
X164746704Y-128724376D01*
X164746692Y-128724378D01*
X164397846Y-128783649D01*
X164397837Y-128783651D01*
X164057821Y-128881608D01*
X163730901Y-129017021D01*
X163730897Y-129017023D01*
X163421187Y-129188194D01*
X163421182Y-129188197D01*
X163132603Y-129392956D01*
X163132595Y-129392962D01*
X162868751Y-129628748D01*
X162868748Y-129628751D01*
X162632962Y-129892595D01*
X162632956Y-129892603D01*
X162428197Y-130181182D01*
X162428194Y-130181187D01*
X162257023Y-130490897D01*
X162257021Y-130490901D01*
X162121608Y-130817821D01*
X162023651Y-131157837D01*
X162023649Y-131157846D01*
X161964378Y-131506692D01*
X161964376Y-131506704D01*
X161944536Y-131860000D01*
X141460000Y-131860000D01*
X141460000Y-130418000D01*
X134360000Y-130418000D01*
X134360000Y-137618000D01*
X100000500Y-137618000D01*
X100000500Y-135138001D01*
X120725365Y-135138001D01*
X120743800Y-135266226D01*
X120794513Y-135377269D01*
X120797616Y-135384064D01*
X120882449Y-135481968D01*
X120991429Y-135552005D01*
X121115723Y-135588500D01*
X121115725Y-135588501D01*
X121115726Y-135588501D01*
X121245271Y-135588501D01*
X121245271Y-135588500D01*
X121369567Y-135552005D01*
X121478547Y-135481968D01*
X121563380Y-135384064D01*
X121617195Y-135266227D01*
X121635631Y-135138001D01*
X121627698Y-135082830D01*
X121637641Y-135013675D01*
X121662752Y-134977507D01*
X130148262Y-126491997D01*
X136912751Y-126491997D01*
X136912751Y-126492002D01*
X136931685Y-126660056D01*
X136987545Y-126819694D01*
X136987547Y-126819697D01*
X137077518Y-126962884D01*
X137077523Y-126962890D01*
X137197109Y-127082476D01*
X137197115Y-127082481D01*
X137340302Y-127172452D01*
X137340305Y-127172454D01*
X137340309Y-127172455D01*
X137340310Y-127172456D01*
X137412913Y-127197860D01*
X137499943Y-127228314D01*
X137667997Y-127247249D01*
X137668000Y-127247249D01*
X137668003Y-127247249D01*
X137768835Y-127235887D01*
X137836059Y-127228313D01*
X137995690Y-127172456D01*
X138013117Y-127161506D01*
X138079088Y-127142500D01*
X152464071Y-127142500D01*
X152548615Y-127125682D01*
X152589744Y-127117501D01*
X152708127Y-127068465D01*
X152814669Y-126997277D01*
X154937277Y-124874669D01*
X155008465Y-124768127D01*
X155057501Y-124649744D01*
X155082500Y-124524069D01*
X155082500Y-112124000D01*
X161944536Y-112124000D01*
X161964376Y-112477295D01*
X161964377Y-112477300D01*
X162023650Y-112826157D01*
X162121610Y-113166184D01*
X162163046Y-113266221D01*
X162257021Y-113493098D01*
X162257023Y-113493102D01*
X162428194Y-113802812D01*
X162428197Y-113802817D01*
X162632956Y-114091396D01*
X162632962Y-114091404D01*
X162868748Y-114355248D01*
X162868751Y-114355251D01*
X163132595Y-114591037D01*
X163132603Y-114591043D01*
X163421182Y-114795802D01*
X163421187Y-114795805D01*
X163730897Y-114966976D01*
X163730901Y-114966978D01*
X163837013Y-115010930D01*
X164057816Y-115102390D01*
X164397843Y-115200350D01*
X164746700Y-115259623D01*
X165100000Y-115279464D01*
X165453300Y-115259623D01*
X165802157Y-115200350D01*
X166142184Y-115102390D01*
X166469105Y-114966975D01*
X166778808Y-114795808D01*
X166778813Y-114795804D01*
X166778817Y-114795802D01*
X166869786Y-114731255D01*
X167067400Y-114591041D01*
X167331250Y-114355250D01*
X167567041Y-114091400D01*
X167771808Y-113802808D01*
X167942975Y-113493105D01*
X168078390Y-113166184D01*
X168176350Y-112826157D01*
X168235623Y-112477300D01*
X168255464Y-112124000D01*
X168235623Y-111770700D01*
X168176350Y-111421843D01*
X168078390Y-111081816D01*
X167979154Y-110842239D01*
X167942978Y-110754901D01*
X167942976Y-110754897D01*
X167771805Y-110445187D01*
X167771802Y-110445182D01*
X167567043Y-110156603D01*
X167567037Y-110156595D01*
X167331251Y-109892751D01*
X167331248Y-109892748D01*
X167067404Y-109656962D01*
X167067396Y-109656956D01*
X166778817Y-109452197D01*
X166778812Y-109452194D01*
X166469102Y-109281023D01*
X166469098Y-109281021D01*
X166242221Y-109187046D01*
X166142184Y-109145610D01*
X166142180Y-109145608D01*
X166142178Y-109145608D01*
X165802162Y-109047651D01*
X165802153Y-109047649D01*
X165453307Y-108988378D01*
X165453295Y-108988376D01*
X165100000Y-108968536D01*
X164746704Y-108988376D01*
X164746692Y-108988378D01*
X164397846Y-109047649D01*
X164397837Y-109047651D01*
X164057821Y-109145608D01*
X163730901Y-109281021D01*
X163730897Y-109281023D01*
X163421187Y-109452194D01*
X163421182Y-109452197D01*
X163132603Y-109656956D01*
X163132595Y-109656962D01*
X162868751Y-109892748D01*
X162868748Y-109892751D01*
X162632962Y-110156595D01*
X162632956Y-110156603D01*
X162428197Y-110445182D01*
X162428194Y-110445187D01*
X162257023Y-110754897D01*
X162257021Y-110754901D01*
X162121608Y-111081821D01*
X162023651Y-111421837D01*
X162023649Y-111421846D01*
X161964378Y-111770692D01*
X161964376Y-111770704D01*
X161944536Y-112124000D01*
X155082500Y-112124000D01*
X155082500Y-94124000D01*
X161944536Y-94124000D01*
X161964376Y-94477295D01*
X161964378Y-94477307D01*
X162023649Y-94826153D01*
X162023651Y-94826162D01*
X162121608Y-95166178D01*
X162257021Y-95493098D01*
X162257023Y-95493102D01*
X162428194Y-95802812D01*
X162428197Y-95802817D01*
X162632956Y-96091396D01*
X162632962Y-96091404D01*
X162868748Y-96355248D01*
X162868751Y-96355251D01*
X163132595Y-96591037D01*
X163132603Y-96591043D01*
X163421182Y-96795802D01*
X163421187Y-96795805D01*
X163730897Y-96966976D01*
X163730901Y-96966978D01*
X163837013Y-97010930D01*
X164057816Y-97102390D01*
X164397843Y-97200350D01*
X164746700Y-97259623D01*
X165100000Y-97279464D01*
X165453300Y-97259623D01*
X165802157Y-97200350D01*
X166142184Y-97102390D01*
X166469105Y-96966975D01*
X166778808Y-96795808D01*
X166778813Y-96795804D01*
X166778817Y-96795802D01*
X166869786Y-96731255D01*
X167067400Y-96591041D01*
X167331250Y-96355250D01*
X167567041Y-96091400D01*
X167771808Y-95802808D01*
X167942975Y-95493105D01*
X168078390Y-95166184D01*
X168176350Y-94826157D01*
X168235623Y-94477300D01*
X168255464Y-94124000D01*
X168235623Y-93770700D01*
X168176350Y-93421843D01*
X168078390Y-93081816D01*
X167986930Y-92861013D01*
X167942978Y-92754901D01*
X167942976Y-92754897D01*
X167942975Y-92754895D01*
X167771808Y-92445192D01*
X167771806Y-92445190D01*
X167771805Y-92445187D01*
X167771802Y-92445182D01*
X167567043Y-92156603D01*
X167567037Y-92156595D01*
X167331251Y-91892751D01*
X167331248Y-91892748D01*
X167067404Y-91656962D01*
X167067396Y-91656956D01*
X166778817Y-91452197D01*
X166778812Y-91452194D01*
X166469102Y-91281023D01*
X166469098Y-91281021D01*
X166242221Y-91187046D01*
X166142184Y-91145610D01*
X166142180Y-91145608D01*
X166142178Y-91145608D01*
X165802162Y-91047651D01*
X165802153Y-91047649D01*
X165453307Y-90988378D01*
X165453295Y-90988376D01*
X165100000Y-90968536D01*
X164746704Y-90988376D01*
X164746692Y-90988378D01*
X164397846Y-91047649D01*
X164397837Y-91047651D01*
X164057821Y-91145608D01*
X163730901Y-91281021D01*
X163730897Y-91281023D01*
X163421187Y-91452194D01*
X163421182Y-91452197D01*
X163132603Y-91656956D01*
X163132595Y-91656962D01*
X162868751Y-91892748D01*
X162868748Y-91892751D01*
X162632962Y-92156595D01*
X162632956Y-92156603D01*
X162428197Y-92445182D01*
X162428194Y-92445187D01*
X162257023Y-92754897D01*
X162257021Y-92754901D01*
X162121608Y-93081821D01*
X162023651Y-93421837D01*
X162023649Y-93421846D01*
X161964378Y-93770692D01*
X161964376Y-93770704D01*
X161944536Y-94124000D01*
X155082500Y-94124000D01*
X155082500Y-91760808D01*
X155102185Y-91693769D01*
X155118819Y-91673127D01*
X156697127Y-90094819D01*
X156758450Y-90061334D01*
X156784808Y-90058500D01*
X165164071Y-90058500D01*
X165248615Y-90041682D01*
X165289744Y-90033501D01*
X165408127Y-89984465D01*
X165514669Y-89913277D01*
X167637277Y-87790669D01*
X167708465Y-87684127D01*
X167757501Y-87565744D01*
X167782500Y-87440069D01*
X167782500Y-77231931D01*
X167782500Y-77231928D01*
X167757502Y-77106261D01*
X167757501Y-77106260D01*
X167757501Y-77106256D01*
X167708465Y-76987873D01*
X167637277Y-76881331D01*
X167637275Y-76881329D01*
X167637273Y-76881326D01*
X167637272Y-76881325D01*
X166034021Y-75278075D01*
X166000536Y-75216752D01*
X165998381Y-75203354D01*
X165984985Y-75075894D01*
X165984985Y-75075892D01*
X165984983Y-75075887D01*
X165926536Y-74896003D01*
X165831963Y-74732198D01*
X165705400Y-74591635D01*
X165654392Y-74554576D01*
X165552376Y-74480456D01*
X165379584Y-74403525D01*
X165194573Y-74364200D01*
X165005427Y-74364200D01*
X164820415Y-74403525D01*
X164820414Y-74403525D01*
X164647623Y-74480456D01*
X164494598Y-74591636D01*
X164368036Y-74732199D01*
X164273464Y-74896002D01*
X164273461Y-74896008D01*
X164215016Y-75075887D01*
X164215015Y-75075891D01*
X164195244Y-75264000D01*
X164215015Y-75452109D01*
X164215016Y-75452112D01*
X164273461Y-75631991D01*
X164273464Y-75631997D01*
X164368037Y-75795802D01*
X164494600Y-75936365D01*
X164596614Y-76010483D01*
X164647623Y-76047543D01*
X164820415Y-76124474D01*
X165005427Y-76163800D01*
X165028492Y-76163800D01*
X165095531Y-76183485D01*
X165116173Y-76200119D01*
X165700602Y-76784548D01*
X165734087Y-76845871D01*
X165729103Y-76915563D01*
X165687231Y-76971496D01*
X165621767Y-76995913D01*
X165558717Y-76982197D01*
X165558315Y-76983101D01*
X165553961Y-76981162D01*
X165553494Y-76981061D01*
X165552576Y-76980546D01*
X165379584Y-76903525D01*
X165194573Y-76864200D01*
X165005427Y-76864200D01*
X164820415Y-76903525D01*
X164820414Y-76903525D01*
X164647623Y-76980456D01*
X164494598Y-77091636D01*
X164368036Y-77232199D01*
X164273464Y-77396002D01*
X164273461Y-77396008D01*
X164215016Y-77575887D01*
X164215015Y-77575891D01*
X164195244Y-77764000D01*
X164215015Y-77952109D01*
X164215016Y-77952112D01*
X164273461Y-78131991D01*
X164273464Y-78131997D01*
X164368037Y-78295802D01*
X164494600Y-78436365D01*
X164596614Y-78510483D01*
X164647623Y-78547543D01*
X164820415Y-78624474D01*
X165005427Y-78663800D01*
X165194573Y-78663800D01*
X165379585Y-78624474D01*
X165552378Y-78547542D01*
X165705400Y-78436365D01*
X165831963Y-78295802D01*
X165926536Y-78131997D01*
X165984985Y-77952109D01*
X166004756Y-77764000D01*
X165984985Y-77575891D01*
X165926536Y-77396003D01*
X165870839Y-77299534D01*
X165854367Y-77231635D01*
X165877220Y-77165608D01*
X165932141Y-77122417D01*
X166001694Y-77115776D01*
X166063797Y-77147792D01*
X166065908Y-77149854D01*
X166445181Y-77529127D01*
X166478666Y-77590450D01*
X166481500Y-77616808D01*
X166481500Y-84711213D01*
X166461815Y-84778252D01*
X166409011Y-84824007D01*
X166339853Y-84833951D01*
X166276297Y-84804926D01*
X166245118Y-84763618D01*
X166186058Y-84636964D01*
X166142621Y-84574930D01*
X165579124Y-85138426D01*
X165561546Y-85072821D01*
X165496339Y-84959879D01*
X165404121Y-84867661D01*
X165291179Y-84802454D01*
X165225572Y-84784874D01*
X165789068Y-84221378D01*
X165789067Y-84221377D01*
X165727036Y-84177942D01*
X165727034Y-84177941D01*
X165528919Y-84085559D01*
X165528910Y-84085555D01*
X165317771Y-84028981D01*
X165317761Y-84028979D01*
X165100002Y-84009928D01*
X165099998Y-84009928D01*
X164882238Y-84028979D01*
X164882228Y-84028981D01*
X164671089Y-84085555D01*
X164671080Y-84085559D01*
X164472960Y-84177944D01*
X164410931Y-84221376D01*
X164410930Y-84221377D01*
X164974428Y-84784874D01*
X164908821Y-84802454D01*
X164795879Y-84867661D01*
X164703661Y-84959879D01*
X164638454Y-85072821D01*
X164620874Y-85138427D01*
X164057377Y-84574930D01*
X164057376Y-84574931D01*
X164013944Y-84636960D01*
X163921559Y-84835080D01*
X163921555Y-84835089D01*
X163864981Y-85046228D01*
X163864979Y-85046238D01*
X163845928Y-85263998D01*
X163845928Y-85264001D01*
X163864979Y-85481761D01*
X163864981Y-85481771D01*
X163921555Y-85692910D01*
X163921559Y-85692919D01*
X164013941Y-85891034D01*
X164013942Y-85891036D01*
X164057377Y-85953067D01*
X164057378Y-85953068D01*
X164620874Y-85389571D01*
X164638454Y-85455179D01*
X164703661Y-85568121D01*
X164795879Y-85660339D01*
X164908821Y-85725546D01*
X164974427Y-85743125D01*
X164410930Y-86306621D01*
X164472964Y-86350057D01*
X164671080Y-86442440D01*
X164671089Y-86442444D01*
X164882228Y-86499018D01*
X164882238Y-86499020D01*
X165099998Y-86518072D01*
X165100002Y-86518072D01*
X165317761Y-86499020D01*
X165317771Y-86499018D01*
X165528910Y-86442444D01*
X165528919Y-86442440D01*
X165727035Y-86350058D01*
X165727039Y-86350056D01*
X165789068Y-86306622D01*
X165789068Y-86306621D01*
X165225572Y-85743125D01*
X165291179Y-85725546D01*
X165404121Y-85660339D01*
X165496339Y-85568121D01*
X165561546Y-85455179D01*
X165579125Y-85389572D01*
X166142621Y-85953068D01*
X166142622Y-85953068D01*
X166186056Y-85891039D01*
X166186060Y-85891031D01*
X166245118Y-85764382D01*
X166291290Y-85711942D01*
X166358483Y-85692790D01*
X166425365Y-85713006D01*
X166470699Y-85766171D01*
X166481500Y-85816786D01*
X166481500Y-87055192D01*
X166461815Y-87122231D01*
X166445181Y-87142873D01*
X164866873Y-88721181D01*
X164805550Y-88754666D01*
X164779192Y-88757500D01*
X156399929Y-88757500D01*
X156274261Y-88782497D01*
X156274255Y-88782499D01*
X156155874Y-88831534D01*
X156049326Y-88902726D01*
X153926726Y-91025326D01*
X153855534Y-91131874D01*
X153806499Y-91250255D01*
X153806497Y-91250261D01*
X153781500Y-91375928D01*
X153781500Y-124139192D01*
X153761815Y-124206231D01*
X153745181Y-124226873D01*
X152166873Y-125805181D01*
X152105550Y-125838666D01*
X152079192Y-125841500D01*
X138079088Y-125841500D01*
X138013117Y-125822494D01*
X138004168Y-125816871D01*
X137995690Y-125811544D01*
X137995689Y-125811543D01*
X137995688Y-125811543D01*
X137836057Y-125755686D01*
X137668003Y-125736751D01*
X137667997Y-125736751D01*
X137499943Y-125755685D01*
X137340305Y-125811545D01*
X137340302Y-125811547D01*
X137197115Y-125901518D01*
X137197109Y-125901523D01*
X137077523Y-126021109D01*
X137077518Y-126021115D01*
X136987547Y-126164302D01*
X136987545Y-126164305D01*
X136931685Y-126323943D01*
X136912751Y-126491997D01*
X130148262Y-126491997D01*
X134211895Y-122428364D01*
X134211897Y-122428364D01*
X134282364Y-122357897D01*
X134298160Y-122319760D01*
X134320501Y-122265827D01*
X134320501Y-122166172D01*
X134320501Y-122156183D01*
X134320500Y-122156169D01*
X134320500Y-119546000D01*
X134646665Y-119546000D01*
X134696665Y-119596000D01*
X141288000Y-119596000D01*
X141288000Y-117691265D01*
X146148952Y-117691265D01*
X146167387Y-117819490D01*
X146221202Y-117937326D01*
X146221203Y-117937328D01*
X146306036Y-118035232D01*
X146415016Y-118105269D01*
X146539310Y-118141764D01*
X146539312Y-118141765D01*
X146539313Y-118141765D01*
X146668858Y-118141765D01*
X146668858Y-118141764D01*
X146793154Y-118105269D01*
X146902134Y-118035232D01*
X146986967Y-117937328D01*
X147040782Y-117819491D01*
X147059218Y-117691265D01*
X147040782Y-117563039D01*
X146986967Y-117445202D01*
X146918697Y-117366413D01*
X146889673Y-117302857D01*
X146899617Y-117233699D01*
X146924727Y-117197533D01*
X148159441Y-115962818D01*
X148220764Y-115929334D01*
X148247122Y-115926500D01*
X148356773Y-115926500D01*
X148356773Y-115926499D01*
X148481069Y-115890004D01*
X148590049Y-115819967D01*
X148674882Y-115722063D01*
X148728697Y-115604226D01*
X148747133Y-115476000D01*
X148728697Y-115347774D01*
X148674882Y-115229937D01*
X148590049Y-115132033D01*
X148481069Y-115061996D01*
X148481065Y-115061994D01*
X148481064Y-115061994D01*
X148356774Y-115025500D01*
X148356772Y-115025500D01*
X148227228Y-115025500D01*
X148227226Y-115025500D01*
X148102935Y-115061994D01*
X148102932Y-115061995D01*
X148102931Y-115061996D01*
X148051677Y-115094934D01*
X147993950Y-115132033D01*
X147909118Y-115229937D01*
X147909117Y-115229938D01*
X147855302Y-115347774D01*
X147836867Y-115476000D01*
X147836867Y-115476002D01*
X147840713Y-115502755D01*
X147830769Y-115571913D01*
X147805656Y-115608081D01*
X146462188Y-116951551D01*
X146391722Y-117022016D01*
X146391721Y-117022017D01*
X146353585Y-117114085D01*
X146353585Y-117249467D01*
X146333900Y-117316506D01*
X146310789Y-117343179D01*
X146306037Y-117347296D01*
X146221203Y-117445202D01*
X146221202Y-117445203D01*
X146167387Y-117563039D01*
X146148952Y-117691265D01*
X141288000Y-117691265D01*
X141288000Y-115062007D01*
X141288000Y-115062000D01*
X141165619Y-113464665D01*
X134646665Y-113464665D01*
X134646665Y-119546000D01*
X134320500Y-119546000D01*
X134320500Y-113481123D01*
X134340185Y-113414084D01*
X134356819Y-113393442D01*
X135703442Y-112046819D01*
X135764765Y-112013334D01*
X135791123Y-112010500D01*
X140003826Y-112010500D01*
X140003828Y-112010500D01*
X140095897Y-111972364D01*
X140892455Y-111175803D01*
X140892458Y-111175802D01*
X140909896Y-111158364D01*
X140909897Y-111158364D01*
X140980364Y-111087897D01*
X141018500Y-110995828D01*
X141018500Y-99689900D01*
X145550867Y-99689900D01*
X145569302Y-99818125D01*
X145623117Y-99935961D01*
X145623118Y-99935963D01*
X145707951Y-100033867D01*
X145816931Y-100103904D01*
X145941225Y-100140399D01*
X145941227Y-100140400D01*
X145941228Y-100140400D01*
X146070773Y-100140400D01*
X146070773Y-100140399D01*
X146195069Y-100103904D01*
X146304049Y-100033867D01*
X146388882Y-99935963D01*
X146442697Y-99818126D01*
X146461133Y-99689900D01*
X146457286Y-99663147D01*
X146467227Y-99593990D01*
X146492339Y-99557820D01*
X147742364Y-98307797D01*
X147780500Y-98215728D01*
X147780500Y-98116073D01*
X147780500Y-97083696D01*
X147800185Y-97016657D01*
X147823302Y-96989979D01*
X147828038Y-96985873D01*
X147828049Y-96985867D01*
X147912882Y-96887963D01*
X147966697Y-96770126D01*
X147985133Y-96641900D01*
X147966697Y-96513674D01*
X147912882Y-96395837D01*
X147828049Y-96297933D01*
X147719069Y-96227896D01*
X147719065Y-96227894D01*
X147719064Y-96227894D01*
X147594774Y-96191400D01*
X147594772Y-96191400D01*
X147465228Y-96191400D01*
X147465226Y-96191400D01*
X147340935Y-96227894D01*
X147340932Y-96227895D01*
X147340931Y-96227896D01*
X147289677Y-96260834D01*
X147231950Y-96297933D01*
X147147118Y-96395837D01*
X147147117Y-96395838D01*
X147093302Y-96513674D01*
X147074867Y-96641900D01*
X147093302Y-96770125D01*
X147147117Y-96887961D01*
X147147120Y-96887967D01*
X147215581Y-96966975D01*
X147231951Y-96985867D01*
X147231957Y-96985871D01*
X147236698Y-96989979D01*
X147274475Y-97048756D01*
X147279500Y-97083696D01*
X147279500Y-98010776D01*
X147259815Y-98077815D01*
X147243181Y-98098457D01*
X146138557Y-99203081D01*
X146077234Y-99236566D01*
X146050876Y-99239400D01*
X145941226Y-99239400D01*
X145816935Y-99275894D01*
X145816932Y-99275895D01*
X145816931Y-99275896D01*
X145765677Y-99308834D01*
X145707950Y-99345933D01*
X145623118Y-99443837D01*
X145623117Y-99443838D01*
X145569302Y-99561674D01*
X145550867Y-99689900D01*
X141018500Y-99689900D01*
X141018500Y-92770796D01*
X141038185Y-92703757D01*
X141061302Y-92677079D01*
X141066038Y-92672973D01*
X141066049Y-92672967D01*
X141150882Y-92575063D01*
X141204697Y-92457226D01*
X141223133Y-92329000D01*
X141204697Y-92200774D01*
X141150882Y-92082937D01*
X141066049Y-91985033D01*
X140957069Y-91914996D01*
X140957065Y-91914994D01*
X140957064Y-91914994D01*
X140832774Y-91878500D01*
X140832772Y-91878500D01*
X140703228Y-91878500D01*
X140703226Y-91878500D01*
X140578935Y-91914994D01*
X140578932Y-91914995D01*
X140578931Y-91914996D01*
X140527677Y-91947934D01*
X140469950Y-91985033D01*
X140385118Y-92082937D01*
X140385117Y-92082938D01*
X140331302Y-92200774D01*
X140312867Y-92329000D01*
X140331302Y-92457225D01*
X140385117Y-92575061D01*
X140385120Y-92575067D01*
X140454265Y-92654865D01*
X140469951Y-92672967D01*
X140469957Y-92672971D01*
X140474698Y-92677079D01*
X140512475Y-92735856D01*
X140517500Y-92770796D01*
X140517500Y-110790877D01*
X140497815Y-110857916D01*
X140481181Y-110878558D01*
X139886558Y-111473181D01*
X139825235Y-111506666D01*
X139798877Y-111509500D01*
X135586170Y-111509500D01*
X135494102Y-111547636D01*
X133857636Y-113184102D01*
X133819500Y-113276170D01*
X133819500Y-122060877D01*
X133799815Y-122127916D01*
X133783181Y-122148558D01*
X121280557Y-134651182D01*
X121219234Y-134684667D01*
X121192876Y-134687501D01*
X121115724Y-134687501D01*
X120991433Y-134723995D01*
X120991430Y-134723996D01*
X120991429Y-134723997D01*
X120940175Y-134756935D01*
X120882448Y-134794034D01*
X120797616Y-134891938D01*
X120797615Y-134891939D01*
X120743800Y-135009775D01*
X120725365Y-135138001D01*
X100000500Y-135138001D01*
X100000500Y-103632000D01*
X101144867Y-103632000D01*
X101163302Y-103760225D01*
X101217117Y-103878061D01*
X101217118Y-103878063D01*
X101301951Y-103975967D01*
X101301952Y-103975968D01*
X101410925Y-104046001D01*
X101410929Y-104046003D01*
X101410931Y-104046004D01*
X101432489Y-104052333D01*
X101485237Y-104083630D01*
X118943181Y-121541574D01*
X118976666Y-121602897D01*
X118979500Y-121629255D01*
X118979500Y-123717539D01*
X118968295Y-123769049D01*
X118943303Y-123823773D01*
X118943302Y-123823778D01*
X118924867Y-123952000D01*
X118943302Y-124080225D01*
X118970232Y-124139192D01*
X118997118Y-124198063D01*
X119081951Y-124295967D01*
X119190931Y-124366004D01*
X119315225Y-124402499D01*
X119315227Y-124402500D01*
X119315228Y-124402500D01*
X119444773Y-124402500D01*
X119444773Y-124402499D01*
X119569069Y-124366004D01*
X119678049Y-124295967D01*
X119762882Y-124198063D01*
X119816697Y-124080226D01*
X119835133Y-123952000D01*
X119816697Y-123823774D01*
X119791705Y-123769049D01*
X119780500Y-123717539D01*
X119780500Y-121359275D01*
X119780500Y-121359273D01*
X119753207Y-121257413D01*
X119753207Y-121257412D01*
X119700480Y-121166087D01*
X104770464Y-106236071D01*
X114157499Y-106236071D01*
X114182497Y-106361738D01*
X114182499Y-106361744D01*
X114231534Y-106480125D01*
X114302726Y-106586673D01*
X117949324Y-110233271D01*
X117949331Y-110233277D01*
X118055871Y-110304464D01*
X118055870Y-110304464D01*
X118090544Y-110318826D01*
X118174256Y-110353501D01*
X118174260Y-110353501D01*
X118174261Y-110353502D01*
X118299928Y-110378500D01*
X118299931Y-110378500D01*
X136748912Y-110378500D01*
X136814883Y-110397506D01*
X136832310Y-110408456D01*
X136991941Y-110464313D01*
X137033955Y-110469047D01*
X137159997Y-110483249D01*
X137160000Y-110483249D01*
X137160003Y-110483249D01*
X137328056Y-110464314D01*
X137328059Y-110464313D01*
X137487690Y-110408456D01*
X137487692Y-110408454D01*
X137487694Y-110408454D01*
X137487697Y-110408452D01*
X137630884Y-110318481D01*
X137630885Y-110318480D01*
X137630890Y-110318477D01*
X137750477Y-110198890D01*
X137840452Y-110055697D01*
X137840454Y-110055694D01*
X137840454Y-110055692D01*
X137840456Y-110055690D01*
X137896313Y-109896059D01*
X137896313Y-109896058D01*
X137896314Y-109896056D01*
X137915249Y-109728002D01*
X137915249Y-109727997D01*
X137896314Y-109559943D01*
X137840454Y-109400305D01*
X137840452Y-109400302D01*
X137750481Y-109257115D01*
X137750476Y-109257109D01*
X137630890Y-109137523D01*
X137630884Y-109137518D01*
X137487697Y-109047547D01*
X137487694Y-109047545D01*
X137328056Y-108991685D01*
X137160003Y-108972751D01*
X137159997Y-108972751D01*
X136991942Y-108991686D01*
X136832311Y-109047543D01*
X136814883Y-109058494D01*
X136748912Y-109077500D01*
X118684808Y-109077500D01*
X118617769Y-109057815D01*
X118597127Y-109041181D01*
X115494819Y-105938873D01*
X115461334Y-105877550D01*
X115458500Y-105851192D01*
X115458500Y-104935000D01*
X129991300Y-104935000D01*
X140176700Y-104935000D01*
X140176700Y-93860600D01*
X129991300Y-93860600D01*
X129991300Y-104935000D01*
X115458500Y-104935000D01*
X115458500Y-86868000D01*
X118924867Y-86868000D01*
X118943302Y-86996225D01*
X118981728Y-87080364D01*
X118997118Y-87114063D01*
X119081951Y-87211967D01*
X119190931Y-87282004D01*
X119315225Y-87318499D01*
X119315227Y-87318500D01*
X119315228Y-87318500D01*
X119444773Y-87318500D01*
X119444773Y-87318499D01*
X119569069Y-87282004D01*
X119678049Y-87211967D01*
X119721953Y-87161297D01*
X119780731Y-87123523D01*
X119815667Y-87118500D01*
X161045826Y-87118500D01*
X161045828Y-87118500D01*
X161137897Y-87080364D01*
X164603343Y-83614916D01*
X164664664Y-83581433D01*
X164734356Y-83586417D01*
X164741458Y-83589320D01*
X164820410Y-83624472D01*
X164820415Y-83624474D01*
X165005427Y-83663800D01*
X165194573Y-83663800D01*
X165379585Y-83624474D01*
X165476257Y-83581433D01*
X165552376Y-83547543D01*
X165552376Y-83547542D01*
X165552378Y-83547542D01*
X165705400Y-83436365D01*
X165831963Y-83295802D01*
X165926536Y-83131997D01*
X165984985Y-82952109D01*
X166004756Y-82764000D01*
X165984985Y-82575891D01*
X165926536Y-82396003D01*
X165831963Y-82232198D01*
X165705400Y-82091635D01*
X165654392Y-82054576D01*
X165552376Y-81980456D01*
X165379584Y-81903525D01*
X165194573Y-81864200D01*
X165005427Y-81864200D01*
X164820415Y-81903525D01*
X164820414Y-81903525D01*
X164647623Y-81980456D01*
X164494598Y-82091636D01*
X164368036Y-82232199D01*
X164273464Y-82396002D01*
X164273461Y-82396008D01*
X164215016Y-82575887D01*
X164215015Y-82575891D01*
X164195244Y-82764000D01*
X164215015Y-82952109D01*
X164215016Y-82952112D01*
X164275472Y-83138178D01*
X164272655Y-83139093D01*
X164280197Y-83195625D01*
X164250527Y-83258882D01*
X164245326Y-83264411D01*
X160928558Y-86581181D01*
X160867235Y-86614666D01*
X160840877Y-86617500D01*
X145712403Y-86617500D01*
X145645364Y-86597815D01*
X145599609Y-86545011D01*
X145589665Y-86475853D01*
X145618689Y-86412298D01*
X145621976Y-86408504D01*
X145670882Y-86352063D01*
X145724697Y-86234226D01*
X145743133Y-86106000D01*
X145739286Y-86079246D01*
X145749227Y-86010089D01*
X145774339Y-85973919D01*
X147133441Y-84614819D01*
X147194764Y-84581334D01*
X147221122Y-84578500D01*
X150417826Y-84578500D01*
X150417828Y-84578500D01*
X150509897Y-84540364D01*
X150834364Y-84215897D01*
X150872500Y-84123828D01*
X150872500Y-84024172D01*
X150872500Y-81975796D01*
X150892185Y-81908757D01*
X150915302Y-81882079D01*
X150920038Y-81877973D01*
X150920049Y-81877967D01*
X151004882Y-81780063D01*
X151058697Y-81662226D01*
X151077133Y-81534000D01*
X151058697Y-81405774D01*
X151004882Y-81287937D01*
X150920049Y-81190033D01*
X150811069Y-81119996D01*
X150811065Y-81119994D01*
X150811064Y-81119994D01*
X150686774Y-81083500D01*
X150686772Y-81083500D01*
X150557228Y-81083500D01*
X150557226Y-81083500D01*
X150432935Y-81119994D01*
X150432932Y-81119995D01*
X150432931Y-81119996D01*
X150381677Y-81152934D01*
X150323950Y-81190033D01*
X150239118Y-81287937D01*
X150239117Y-81287938D01*
X150185302Y-81405774D01*
X150166867Y-81534000D01*
X150185302Y-81662225D01*
X150239117Y-81780061D01*
X150239120Y-81780067D01*
X150308265Y-81859865D01*
X150323951Y-81877967D01*
X150323957Y-81877971D01*
X150328698Y-81882079D01*
X150366475Y-81940856D01*
X150371500Y-81975796D01*
X150371500Y-83918877D01*
X150351815Y-83985916D01*
X150335181Y-84006558D01*
X150300558Y-84041181D01*
X150239235Y-84074666D01*
X150212877Y-84077500D01*
X147130270Y-84077500D01*
X147130262Y-84077499D01*
X147115828Y-84077499D01*
X147016173Y-84077499D01*
X147016172Y-84077499D01*
X146989206Y-84088669D01*
X146962240Y-84099839D01*
X146924103Y-84115636D01*
X146924101Y-84115637D01*
X146853635Y-84186104D01*
X145420557Y-85619181D01*
X145359234Y-85652666D01*
X145332876Y-85655500D01*
X145223226Y-85655500D01*
X145098935Y-85691994D01*
X145098932Y-85691995D01*
X145098931Y-85691996D01*
X145066239Y-85713006D01*
X144989950Y-85762033D01*
X144905118Y-85859937D01*
X144905117Y-85859938D01*
X144851302Y-85977774D01*
X144832867Y-86106000D01*
X144851302Y-86234225D01*
X144904201Y-86350056D01*
X144905118Y-86352063D01*
X144950709Y-86404679D01*
X144957311Y-86412298D01*
X144986335Y-86475854D01*
X144976391Y-86545013D01*
X144930635Y-86597816D01*
X144863597Y-86617500D01*
X119815667Y-86617500D01*
X119748628Y-86597815D01*
X119721953Y-86574702D01*
X119678049Y-86524033D01*
X119668773Y-86518072D01*
X119569069Y-86453996D01*
X119569065Y-86453994D01*
X119569064Y-86453994D01*
X119444774Y-86417500D01*
X119444772Y-86417500D01*
X119315228Y-86417500D01*
X119315226Y-86417500D01*
X119190935Y-86453994D01*
X119190932Y-86453995D01*
X119190931Y-86453996D01*
X119156921Y-86475853D01*
X119081950Y-86524033D01*
X118997118Y-86621937D01*
X118997117Y-86621938D01*
X118943302Y-86739774D01*
X118924867Y-86868000D01*
X115458500Y-86868000D01*
X115458500Y-85156808D01*
X115478185Y-85089769D01*
X115494819Y-85069127D01*
X117073127Y-83490819D01*
X117134450Y-83457334D01*
X117160808Y-83454500D01*
X126048071Y-83454500D01*
X126139247Y-83436363D01*
X126173744Y-83429501D01*
X126292127Y-83380465D01*
X126398669Y-83309277D01*
X129029276Y-80678670D01*
X129100465Y-80572127D01*
X129149501Y-80453744D01*
X129149606Y-80453214D01*
X129149828Y-80452101D01*
X129149829Y-80452101D01*
X129149829Y-80452093D01*
X129174500Y-80328069D01*
X129174500Y-64008000D01*
X146356867Y-64008000D01*
X146375302Y-64136225D01*
X146429117Y-64254061D01*
X146429120Y-64254067D01*
X146498265Y-64333865D01*
X146513951Y-64351967D01*
X146513957Y-64351971D01*
X146518698Y-64356079D01*
X146556475Y-64414856D01*
X146561500Y-64449796D01*
X146561500Y-78182172D01*
X146561500Y-78281828D01*
X146599636Y-78373897D01*
X148702103Y-80476364D01*
X148794172Y-80514500D01*
X148893828Y-80514500D01*
X164145195Y-80514500D01*
X164212234Y-80534185D01*
X164257989Y-80586989D01*
X164263126Y-80600181D01*
X164273462Y-80631993D01*
X164273464Y-80631997D01*
X164368037Y-80795802D01*
X164494600Y-80936365D01*
X164596614Y-81010483D01*
X164647623Y-81047543D01*
X164728385Y-81083500D01*
X164820415Y-81124474D01*
X165005427Y-81163800D01*
X165194573Y-81163800D01*
X165379585Y-81124474D01*
X165552378Y-81047542D01*
X165705400Y-80936365D01*
X165831963Y-80795802D01*
X165926536Y-80631997D01*
X165984985Y-80452109D01*
X166004756Y-80264000D01*
X165984985Y-80075891D01*
X165926536Y-79896003D01*
X165831963Y-79732198D01*
X165705400Y-79591635D01*
X165654392Y-79554576D01*
X165552376Y-79480456D01*
X165379584Y-79403525D01*
X165194573Y-79364200D01*
X165005427Y-79364200D01*
X164820415Y-79403525D01*
X164820414Y-79403525D01*
X164647623Y-79480456D01*
X164494598Y-79591636D01*
X164368036Y-79732199D01*
X164273464Y-79896002D01*
X164273462Y-79896006D01*
X164263126Y-79927819D01*
X164223688Y-79985494D01*
X164159329Y-80012692D01*
X164145195Y-80013500D01*
X148999123Y-80013500D01*
X148932084Y-79993815D01*
X148911442Y-79977181D01*
X147098819Y-78164558D01*
X147065334Y-78103235D01*
X147062500Y-78076877D01*
X147062500Y-64449796D01*
X147082185Y-64382757D01*
X147105302Y-64356079D01*
X147110038Y-64351973D01*
X147110049Y-64351967D01*
X147194882Y-64254063D01*
X147248697Y-64136226D01*
X147267133Y-64008000D01*
X147248697Y-63879774D01*
X147194882Y-63761937D01*
X147110049Y-63664033D01*
X147001069Y-63593996D01*
X147001065Y-63593994D01*
X147001064Y-63593994D01*
X146876774Y-63557500D01*
X146876772Y-63557500D01*
X146747228Y-63557500D01*
X146747226Y-63557500D01*
X146622935Y-63593994D01*
X146622932Y-63593995D01*
X146622931Y-63593996D01*
X146571677Y-63626934D01*
X146513950Y-63664033D01*
X146429118Y-63761937D01*
X146429117Y-63761938D01*
X146375302Y-63879774D01*
X146356867Y-64008000D01*
X129174500Y-64008000D01*
X129174500Y-46548808D01*
X129194185Y-46481769D01*
X129210819Y-46461127D01*
X136990027Y-38681919D01*
X137051350Y-38648434D01*
X137077708Y-38645600D01*
X138173984Y-38645600D01*
X138239956Y-38664606D01*
X138344530Y-38730315D01*
X138344537Y-38730319D01*
X138517016Y-38790671D01*
X138517020Y-38790672D01*
X138698597Y-38811131D01*
X138698600Y-38811131D01*
X138698603Y-38811131D01*
X138880179Y-38790672D01*
X138880182Y-38790671D01*
X138880184Y-38790671D01*
X139052663Y-38730319D01*
X139052665Y-38730318D01*
X139052670Y-38730315D01*
X139207381Y-38633103D01*
X139207382Y-38633102D01*
X139207387Y-38633099D01*
X139336599Y-38503887D01*
X139336603Y-38503881D01*
X139433815Y-38349170D01*
X139433818Y-38349165D01*
X139433819Y-38349163D01*
X139494171Y-38176684D01*
X139502812Y-38100002D01*
X139514631Y-37995102D01*
X139514631Y-37995097D01*
X139494172Y-37813520D01*
X139494171Y-37813516D01*
X139433818Y-37641034D01*
X139433815Y-37641029D01*
X139345200Y-37500000D01*
X163344475Y-37500000D01*
X163364551Y-37793511D01*
X163364552Y-37793513D01*
X163424404Y-38081543D01*
X163424409Y-38081559D01*
X163522927Y-38358762D01*
X163658278Y-38619977D01*
X163658282Y-38619983D01*
X163827932Y-38860323D01*
X164028743Y-39075338D01*
X164156384Y-39179181D01*
X164256951Y-39260999D01*
X164256953Y-39261000D01*
X164256954Y-39261001D01*
X164508319Y-39413860D01*
X164508324Y-39413862D01*
X164778154Y-39531065D01*
X164778159Y-39531067D01*
X165061445Y-39610440D01*
X165317681Y-39645659D01*
X165352901Y-39650500D01*
X165352902Y-39650500D01*
X165647099Y-39650500D01*
X165678520Y-39646180D01*
X165938555Y-39610440D01*
X166221841Y-39531067D01*
X166491682Y-39413859D01*
X166743049Y-39260999D01*
X166971260Y-39075335D01*
X167172065Y-38860326D01*
X167341722Y-38619976D01*
X167477072Y-38358764D01*
X167575592Y-38081554D01*
X167575592Y-38081549D01*
X167575595Y-38081543D01*
X167631290Y-37813520D01*
X167635448Y-37793511D01*
X167655525Y-37500000D01*
X167635448Y-37206489D01*
X167608771Y-37078113D01*
X167575595Y-36918456D01*
X167575590Y-36918440D01*
X167530181Y-36790670D01*
X167477072Y-36641236D01*
X167341722Y-36380024D01*
X167341721Y-36380022D01*
X167341717Y-36380016D01*
X167172067Y-36139676D01*
X166971256Y-35924661D01*
X166743045Y-35738998D01*
X166491680Y-35586139D01*
X166491675Y-35586137D01*
X166221845Y-35468934D01*
X165938560Y-35389561D01*
X165938556Y-35389560D01*
X165938555Y-35389560D01*
X165792826Y-35369530D01*
X165647099Y-35349500D01*
X165647098Y-35349500D01*
X165352902Y-35349500D01*
X165352901Y-35349500D01*
X165061445Y-35389560D01*
X165061439Y-35389561D01*
X164778154Y-35468934D01*
X164508324Y-35586137D01*
X164508319Y-35586139D01*
X164256954Y-35738998D01*
X164028743Y-35924661D01*
X163827932Y-36139676D01*
X163658282Y-36380016D01*
X163658278Y-36380022D01*
X163522927Y-36641237D01*
X163424409Y-36918440D01*
X163424404Y-36918456D01*
X163364552Y-37206486D01*
X163364551Y-37206488D01*
X163344475Y-37500000D01*
X139345200Y-37500000D01*
X139336603Y-37486318D01*
X139336598Y-37486312D01*
X139207387Y-37357101D01*
X139207381Y-37357096D01*
X139052670Y-37259884D01*
X139052665Y-37259881D01*
X138880183Y-37199528D01*
X138880179Y-37199527D01*
X138698603Y-37179069D01*
X138698597Y-37179069D01*
X138517020Y-37199527D01*
X138517016Y-37199528D01*
X138344535Y-37259881D01*
X138239956Y-37325594D01*
X138173984Y-37344600D01*
X136692829Y-37344600D01*
X136567161Y-37369597D01*
X136567155Y-37369599D01*
X136448774Y-37418634D01*
X136342226Y-37489826D01*
X128018726Y-45813326D01*
X127947534Y-45919874D01*
X127898499Y-46038255D01*
X127898497Y-46038261D01*
X127873500Y-46163928D01*
X127873500Y-79943192D01*
X127853815Y-80010231D01*
X127837181Y-80030873D01*
X125750873Y-82117181D01*
X125689550Y-82150666D01*
X125663192Y-82153500D01*
X116775929Y-82153500D01*
X116650261Y-82178497D01*
X116650255Y-82178499D01*
X116531874Y-82227534D01*
X116425326Y-82298726D01*
X116425325Y-82298727D01*
X114302725Y-84421328D01*
X114302722Y-84421331D01*
X114270272Y-84469896D01*
X114270273Y-84469897D01*
X114231534Y-84527874D01*
X114182499Y-84646255D01*
X114182497Y-84646261D01*
X114157500Y-84771928D01*
X114157500Y-84771931D01*
X114157500Y-106236069D01*
X114157500Y-106236071D01*
X114157499Y-106236071D01*
X104770464Y-106236071D01*
X102051280Y-103516887D01*
X102026167Y-103480717D01*
X101982884Y-103385940D01*
X101982882Y-103385938D01*
X101982882Y-103385937D01*
X101898049Y-103288033D01*
X101789069Y-103217996D01*
X101789065Y-103217994D01*
X101789064Y-103217994D01*
X101664774Y-103181500D01*
X101664772Y-103181500D01*
X101535228Y-103181500D01*
X101535226Y-103181500D01*
X101410935Y-103217994D01*
X101410932Y-103217995D01*
X101410931Y-103217996D01*
X101359677Y-103250934D01*
X101301950Y-103288033D01*
X101217118Y-103385937D01*
X101217117Y-103385938D01*
X101163302Y-103503774D01*
X101144867Y-103632000D01*
X100000500Y-103632000D01*
X100000500Y-55339435D01*
X100020185Y-55272396D01*
X100072989Y-55226641D01*
X100142147Y-55216697D01*
X100205703Y-55245722D01*
X100226428Y-55268819D01*
X100337449Y-55429068D01*
X100493431Y-55585050D01*
X100674756Y-55710673D01*
X100674757Y-55710673D01*
X100674761Y-55710676D01*
X100808875Y-55771593D01*
X100875604Y-55801903D01*
X100875605Y-55801903D01*
X100875607Y-55801904D01*
X101089515Y-55855804D01*
X101219067Y-55866000D01*
X103494932Y-55865999D01*
X103624485Y-55855804D01*
X103838393Y-55801904D01*
X104039239Y-55710676D01*
X104220567Y-55585051D01*
X104376551Y-55429067D01*
X104502176Y-55247739D01*
X104593404Y-55046893D01*
X104647304Y-54832985D01*
X104657500Y-54703433D01*
X104657499Y-54611847D01*
X104677183Y-54544811D01*
X104729986Y-54499055D01*
X104799145Y-54489111D01*
X104805665Y-54490227D01*
X104847254Y-54498500D01*
X106776912Y-54498500D01*
X106842883Y-54517506D01*
X106860310Y-54528456D01*
X107019941Y-54584313D01*
X107061955Y-54589047D01*
X107187997Y-54603249D01*
X107188000Y-54603249D01*
X107188003Y-54603249D01*
X107356056Y-54584314D01*
X107356059Y-54584313D01*
X107515690Y-54528456D01*
X107515692Y-54528454D01*
X107515694Y-54528454D01*
X107515697Y-54528452D01*
X107658884Y-54438481D01*
X107658885Y-54438480D01*
X107658890Y-54438477D01*
X107778477Y-54318890D01*
X107868452Y-54175697D01*
X107868454Y-54175694D01*
X107868454Y-54175692D01*
X107868456Y-54175690D01*
X107924313Y-54016059D01*
X107924313Y-54016058D01*
X107924314Y-54016056D01*
X107943249Y-53848002D01*
X107943249Y-53847997D01*
X107924314Y-53679943D01*
X107868454Y-53520305D01*
X107868452Y-53520302D01*
X107778481Y-53377115D01*
X107778476Y-53377109D01*
X107658890Y-53257523D01*
X107658884Y-53257518D01*
X107515697Y-53167547D01*
X107515694Y-53167545D01*
X107356056Y-53111685D01*
X107188003Y-53092751D01*
X107187997Y-53092751D01*
X107019942Y-53111686D01*
X106860311Y-53167543D01*
X106842883Y-53178494D01*
X106776912Y-53197500D01*
X105232131Y-53197500D01*
X105165092Y-53177815D01*
X105144450Y-53161181D01*
X104693818Y-52710549D01*
X104660333Y-52649226D01*
X104657499Y-52622868D01*
X104657499Y-46668077D01*
X104657498Y-46668069D01*
X104647304Y-46538517D01*
X104593404Y-46324609D01*
X104502176Y-46123763D01*
X104442936Y-46038256D01*
X104376550Y-45942433D01*
X104220568Y-45786451D01*
X104039243Y-45660828D01*
X103838395Y-45569598D01*
X103695787Y-45533664D01*
X103624485Y-45515698D01*
X103494933Y-45505502D01*
X103494931Y-45505502D01*
X101219075Y-45505502D01*
X101219060Y-45505503D01*
X101089515Y-45515698D01*
X100875604Y-45569598D01*
X100674756Y-45660828D01*
X100493431Y-45786451D01*
X100337449Y-45942433D01*
X100226428Y-46102682D01*
X100172069Y-46146579D01*
X100102607Y-46154118D01*
X100040096Y-46122907D01*
X100004383Y-46062854D01*
X100000500Y-46032066D01*
X100000500Y-37500000D01*
X101344475Y-37500000D01*
X101364551Y-37793511D01*
X101364552Y-37793513D01*
X101424404Y-38081543D01*
X101424409Y-38081559D01*
X101522927Y-38358762D01*
X101658278Y-38619977D01*
X101658282Y-38619983D01*
X101827932Y-38860323D01*
X102028743Y-39075338D01*
X102156384Y-39179181D01*
X102256951Y-39260999D01*
X102256953Y-39261000D01*
X102256954Y-39261001D01*
X102508319Y-39413860D01*
X102508324Y-39413862D01*
X102778154Y-39531065D01*
X102778159Y-39531067D01*
X103061445Y-39610440D01*
X103317681Y-39645659D01*
X103352901Y-39650500D01*
X103352902Y-39650500D01*
X103647099Y-39650500D01*
X103678520Y-39646180D01*
X103938555Y-39610440D01*
X104221841Y-39531067D01*
X104491682Y-39413859D01*
X104743049Y-39260999D01*
X104971260Y-39075335D01*
X105172065Y-38860326D01*
X105341722Y-38619976D01*
X105477072Y-38358764D01*
X105575592Y-38081554D01*
X105575592Y-38081549D01*
X105575595Y-38081543D01*
X105631290Y-37813520D01*
X105635448Y-37793511D01*
X105655525Y-37500000D01*
X105635448Y-37206489D01*
X105608771Y-37078113D01*
X105575595Y-36918456D01*
X105575590Y-36918440D01*
X105530181Y-36790670D01*
X105477072Y-36641236D01*
X105341722Y-36380024D01*
X105341721Y-36380022D01*
X105341717Y-36380016D01*
X105172067Y-36139676D01*
X105135011Y-36099999D01*
X114150629Y-36099999D01*
X114170471Y-36314130D01*
X114229325Y-36520983D01*
X114325182Y-36713488D01*
X114335410Y-36727033D01*
X114335411Y-36727034D01*
X114909600Y-36152845D01*
X114909600Y-36153503D01*
X114937295Y-36256864D01*
X114990799Y-36349535D01*
X115066464Y-36425200D01*
X115159135Y-36478704D01*
X115262496Y-36506399D01*
X115263153Y-36506399D01*
X114691436Y-37078113D01*
X114796545Y-37143194D01*
X114796554Y-37143198D01*
X114886706Y-37178123D01*
X114942108Y-37220696D01*
X114965699Y-37286463D01*
X114949988Y-37354543D01*
X114907886Y-37398743D01*
X114807214Y-37461999D01*
X114678001Y-37591212D01*
X114677996Y-37591218D01*
X114580784Y-37745929D01*
X114580781Y-37745934D01*
X114520428Y-37918416D01*
X114520427Y-37918420D01*
X114499969Y-38099997D01*
X114499969Y-38100002D01*
X114520427Y-38281579D01*
X114520428Y-38281583D01*
X114580781Y-38454065D01*
X114580784Y-38454070D01*
X114677996Y-38608781D01*
X114678001Y-38608787D01*
X114807212Y-38737998D01*
X114807218Y-38738003D01*
X114961929Y-38835215D01*
X114961934Y-38835218D01*
X115134416Y-38895571D01*
X115134420Y-38895572D01*
X115315997Y-38916031D01*
X115316000Y-38916031D01*
X115316003Y-38916031D01*
X115497579Y-38895572D01*
X115497580Y-38895571D01*
X115497584Y-38895571D01*
X115551626Y-38876660D01*
X115621401Y-38873098D01*
X115680259Y-38906021D01*
X125189177Y-48414938D01*
X125222662Y-48476261D01*
X125225496Y-48502619D01*
X125225496Y-76266202D01*
X125205811Y-76333241D01*
X125182700Y-76359914D01*
X125177948Y-76364031D01*
X125093114Y-76461937D01*
X125093113Y-76461938D01*
X125039298Y-76579774D01*
X125020863Y-76708000D01*
X125039298Y-76836225D01*
X125059898Y-76881331D01*
X125093114Y-76954063D01*
X125177947Y-77051967D01*
X125286927Y-77122004D01*
X125288334Y-77122417D01*
X125411221Y-77158499D01*
X125411223Y-77158500D01*
X125411224Y-77158500D01*
X125540769Y-77158500D01*
X125540769Y-77158499D01*
X125665065Y-77122004D01*
X125774045Y-77051967D01*
X125858878Y-76954063D01*
X125912693Y-76836226D01*
X125931129Y-76708000D01*
X125912693Y-76579774D01*
X125858878Y-76461937D01*
X125774045Y-76364033D01*
X125774044Y-76364032D01*
X125774043Y-76364031D01*
X125769292Y-76359914D01*
X125731519Y-76301136D01*
X125726496Y-76266202D01*
X125726496Y-48411767D01*
X125726497Y-48411758D01*
X125726497Y-48297671D01*
X125726496Y-48297667D01*
X125688360Y-48205601D01*
X125688359Y-48205599D01*
X125610828Y-48128068D01*
X125610821Y-48128062D01*
X116076248Y-38593488D01*
X116042763Y-38532165D01*
X116047747Y-38462473D01*
X116050698Y-38455550D01*
X116051217Y-38454065D01*
X116051219Y-38454063D01*
X116111571Y-38281584D01*
X116124426Y-38167500D01*
X116132031Y-38100002D01*
X116132031Y-38099997D01*
X116111572Y-37918420D01*
X116111571Y-37918416D01*
X116051218Y-37745934D01*
X116051215Y-37745929D01*
X115954003Y-37591218D01*
X115953998Y-37591212D01*
X115824787Y-37462001D01*
X115824784Y-37461999D01*
X115724113Y-37398743D01*
X115677823Y-37346409D01*
X115667175Y-37277356D01*
X115695550Y-37213507D01*
X115745293Y-37178123D01*
X115835445Y-37143198D01*
X115835449Y-37143196D01*
X115940562Y-37078113D01*
X115368848Y-36506399D01*
X115369504Y-36506399D01*
X115472865Y-36478704D01*
X115565536Y-36425200D01*
X115641201Y-36349535D01*
X115694705Y-36256864D01*
X115722400Y-36153503D01*
X115722400Y-36152846D01*
X116296588Y-36727034D01*
X116306816Y-36713490D01*
X116402674Y-36520983D01*
X116461528Y-36314130D01*
X116481370Y-36099999D01*
X116461528Y-35885867D01*
X116402674Y-35679014D01*
X116306821Y-35486516D01*
X116306813Y-35486503D01*
X116296587Y-35472962D01*
X115722400Y-36047150D01*
X115722400Y-36046495D01*
X115694705Y-35943134D01*
X115641201Y-35850463D01*
X115565536Y-35774798D01*
X115472865Y-35721294D01*
X115369504Y-35693599D01*
X115368848Y-35693599D01*
X115940562Y-35121883D01*
X115835447Y-35056800D01*
X115634916Y-34979115D01*
X115423525Y-34939599D01*
X115208475Y-34939599D01*
X114997083Y-34979115D01*
X114997082Y-34979115D01*
X114796551Y-35056801D01*
X114796548Y-35056802D01*
X114691436Y-35121883D01*
X115263153Y-35693599D01*
X115262496Y-35693599D01*
X115159135Y-35721294D01*
X115066464Y-35774798D01*
X114990799Y-35850463D01*
X114937295Y-35943134D01*
X114909600Y-36046495D01*
X114909600Y-36047152D01*
X114335411Y-35472963D01*
X114325179Y-35486514D01*
X114229325Y-35679014D01*
X114170471Y-35885867D01*
X114150629Y-36099999D01*
X105135011Y-36099999D01*
X104971256Y-35924661D01*
X104743045Y-35738998D01*
X104491680Y-35586139D01*
X104491675Y-35586137D01*
X104221845Y-35468934D01*
X103938560Y-35389561D01*
X103938556Y-35389560D01*
X103938555Y-35389560D01*
X103792826Y-35369530D01*
X103647099Y-35349500D01*
X103647098Y-35349500D01*
X103352902Y-35349500D01*
X103352901Y-35349500D01*
X103061445Y-35389560D01*
X103061439Y-35389561D01*
X102778154Y-35468934D01*
X102508324Y-35586137D01*
X102508319Y-35586139D01*
X102256954Y-35738998D01*
X102028743Y-35924661D01*
X101827932Y-36139676D01*
X101658282Y-36380016D01*
X101658278Y-36380022D01*
X101522927Y-36641237D01*
X101424409Y-36918440D01*
X101424404Y-36918456D01*
X101364552Y-37206486D01*
X101364551Y-37206488D01*
X101344475Y-37500000D01*
X100000500Y-37500000D01*
X100000500Y-34124500D01*
X100020185Y-34057461D01*
X100072989Y-34011706D01*
X100124500Y-34000500D01*
X125475542Y-34000500D01*
X125542581Y-34020185D01*
G37*
%TD.AperFunction*%
%TD*%
M02*
