%TF.GenerationSoftware,KiCad,Pcbnew,8.0.6*%
%TF.CreationDate,2025-02-14T12:01:04-07:00*%
%TF.ProjectId,PDU,5044552e-6b69-4636-9164-5f7063625858,rev?*%
%TF.SameCoordinates,Original*%
%TF.FileFunction,Soldermask,Top*%
%TF.FilePolarity,Negative*%
%FSLAX46Y46*%
G04 Gerber Fmt 4.6, Leading zero omitted, Abs format (unit mm)*
G04 Created by KiCad (PCBNEW 8.0.6) date 2025-02-14 12:01:04*
%MOMM*%
%LPD*%
G01*
G04 APERTURE LIST*
G04 Aperture macros list*
%AMRoundRect*
0 Rectangle with rounded corners*
0 $1 Rounding radius*
0 $2 $3 $4 $5 $6 $7 $8 $9 X,Y pos of 4 corners*
0 Add a 4 corners polygon primitive as box body*
4,1,4,$2,$3,$4,$5,$6,$7,$8,$9,$2,$3,0*
0 Add four circle primitives for the rounded corners*
1,1,$1+$1,$2,$3*
1,1,$1+$1,$4,$5*
1,1,$1+$1,$6,$7*
1,1,$1+$1,$8,$9*
0 Add four rect primitives between the rounded corners*
20,1,$1+$1,$2,$3,$4,$5,0*
20,1,$1+$1,$4,$5,$6,$7,0*
20,1,$1+$1,$6,$7,$8,$9,0*
20,1,$1+$1,$8,$9,$2,$3,0*%
%AMFreePoly0*
4,1,5,0.300000,-0.325000,-0.300000,-0.325000,-0.300000,0.325000,0.300000,0.325000,0.300000,-0.325000,0.300000,-0.325000,$1*%
G04 Aperture macros list end*
%ADD10RoundRect,0.250000X0.400000X0.625000X-0.400000X0.625000X-0.400000X-0.625000X0.400000X-0.625000X0*%
%ADD11R,1.700000X1.700000*%
%ADD12O,1.700000X1.700000*%
%ADD13RoundRect,0.250000X0.650000X-0.412500X0.650000X0.412500X-0.650000X0.412500X-0.650000X-0.412500X0*%
%ADD14RoundRect,0.250000X-0.625000X0.400000X-0.625000X-0.400000X0.625000X-0.400000X0.625000X0.400000X0*%
%ADD15C,1.473200*%
%ADD16RoundRect,0.250000X-0.400000X-0.625000X0.400000X-0.625000X0.400000X0.625000X-0.400000X0.625000X0*%
%ADD17O,3.500000X3.500000*%
%ADD18R,1.905000X2.000000*%
%ADD19O,1.905000X2.000000*%
%ADD20R,3.500000X2.950000*%
%ADD21R,1.625600X1.625600*%
%ADD22C,1.625600*%
%ADD23RoundRect,0.250000X-0.412500X-0.650000X0.412500X-0.650000X0.412500X0.650000X-0.412500X0.650000X0*%
%ADD24RoundRect,0.250000X0.475000X-0.337500X0.475000X0.337500X-0.475000X0.337500X-0.475000X-0.337500X0*%
%ADD25RoundRect,0.250000X-0.650000X0.412500X-0.650000X-0.412500X0.650000X-0.412500X0.650000X0.412500X0*%
%ADD26RoundRect,0.250000X0.625000X-0.400000X0.625000X0.400000X-0.625000X0.400000X-0.625000X-0.400000X0*%
%ADD27FreePoly0,90.000000*%
%ADD28R,0.249999X0.599999*%
%ADD29R,2.400000X0.299999*%
%ADD30RoundRect,0.250000X0.412500X0.650000X-0.412500X0.650000X-0.412500X-0.650000X0.412500X-0.650000X0*%
%ADD31R,1.498600X1.498600*%
%ADD32C,1.498600*%
%ADD33R,0.609600X0.279400*%
%ADD34R,3.960000X1.980000*%
%ADD35O,3.960000X1.980000*%
%ADD36C,1.400000*%
%ADD37O,1.400000X1.400000*%
%ADD38R,0.806066X0.256842*%
%ADD39R,1.000000X1.699999*%
%ADD40R,1.400000X0.400000*%
%ADD41R,1.900000X2.300000*%
%ADD42R,1.900000X1.800000*%
%ADD43RoundRect,0.250001X-0.624999X0.462499X-0.624999X-0.462499X0.624999X-0.462499X0.624999X0.462499X0*%
%ADD44R,1.574800X3.429000*%
%ADD45C,1.600000*%
%ADD46O,1.600000X1.600000*%
%ADD47R,1.041400X0.330200*%
%ADD48R,1.219200X0.812800*%
%ADD49R,1.219200X2.870200*%
%ADD50R,1.219200X3.962400*%
%ADD51R,1.213000X0.962000*%
%ADD52R,0.625000X1.038000*%
%ADD53R,3.251200X2.921000*%
G04 APERTURE END LIST*
D10*
%TO.C,R9*%
X146055383Y-61515001D03*
X142955383Y-61515001D03*
%TD*%
D11*
%TO.C,J7*%
X188659381Y-83598000D03*
D12*
X188659381Y-86138000D03*
%TD*%
D11*
%TO.C,J5*%
X150305381Y-39153000D03*
D12*
X150305381Y-41693000D03*
%TD*%
D13*
%TO.C,C10*%
X139907383Y-55431501D03*
X139907383Y-52306501D03*
%TD*%
D14*
%TO.C,R33*%
X174069381Y-85609000D03*
X174069381Y-88709000D03*
%TD*%
D15*
%TO.C,R2*%
X160781384Y-138721000D03*
X136781383Y-138721000D03*
%TD*%
D16*
%TO.C,R20*%
X189395381Y-42709000D03*
X192495381Y-42709000D03*
%TD*%
D13*
%TO.C,C17*%
X137769263Y-35046492D03*
X137769263Y-31921492D03*
%TD*%
D17*
%TO.C,Q1*%
X122989381Y-78713000D03*
D18*
X120449381Y-95373000D03*
D19*
X122989381Y-95373000D03*
X125529381Y-95373000D03*
%TD*%
D20*
%TO.C,L1*%
X178245381Y-39984000D03*
X178245381Y-45434000D03*
%TD*%
D16*
%TO.C,R26*%
X191543381Y-67816900D03*
X194643381Y-67816900D03*
%TD*%
D21*
%TO.C,F1*%
X191453381Y-107606000D03*
D22*
X191453381Y-102526000D03*
%TD*%
D13*
%TO.C,C18*%
X135229263Y-35046492D03*
X135229263Y-31921492D03*
%TD*%
D23*
%TO.C,C4*%
X173230381Y-83349000D03*
X176355381Y-83349000D03*
%TD*%
D15*
%TO.C,R4*%
X160781382Y-120179000D03*
X136781381Y-120179000D03*
%TD*%
D24*
%TO.C,C21*%
X186373381Y-47302500D03*
X186373381Y-45227500D03*
%TD*%
D16*
%TO.C,R21*%
X189421381Y-45249000D03*
X192521381Y-45249000D03*
%TD*%
D25*
%TO.C,C11*%
X100521381Y-83818500D03*
X100521381Y-86943500D03*
%TD*%
D16*
%TO.C,R14*%
X180139381Y-88683000D03*
X183239381Y-88683000D03*
%TD*%
D11*
%TO.C,J9*%
X168847381Y-41947000D03*
D12*
X168847381Y-44487000D03*
%TD*%
D26*
%TO.C,R32*%
X171529381Y-88709000D03*
X171529381Y-85609000D03*
%TD*%
D27*
%TO.C,U5*%
X136498982Y-58876028D03*
D28*
X137154384Y-58871004D03*
X137604386Y-58871004D03*
D27*
X138255933Y-58871002D03*
D29*
X137379385Y-58221003D03*
X137379385Y-57721003D03*
D27*
X138256771Y-57072737D03*
D28*
X137604386Y-57071002D03*
X137154384Y-57071002D03*
D27*
X136504512Y-57070499D03*
%TD*%
D23*
%TO.C,C24*%
X186196881Y-71880900D03*
X189321881Y-71880900D03*
%TD*%
D26*
%TO.C,R30*%
X108903381Y-92519000D03*
X108903381Y-89419000D03*
%TD*%
D10*
%TO.C,R28*%
X138396883Y-64055001D03*
X135296883Y-64055001D03*
%TD*%
D30*
%TO.C,C5*%
X181512381Y-83349000D03*
X178387381Y-83349000D03*
%TD*%
D17*
%TO.C,Q2*%
X134165381Y-78713000D03*
D18*
X131625381Y-95373000D03*
D19*
X134165381Y-95373000D03*
X136705381Y-95373000D03*
%TD*%
D31*
%TO.C,U2*%
X103569381Y-78777000D03*
D32*
X103569381Y-81317000D03*
X103569381Y-83857000D03*
X103569381Y-86397000D03*
X111189381Y-86397000D03*
X111189381Y-83857000D03*
X111189381Y-81317000D03*
X111189381Y-78777000D03*
%TD*%
D26*
%TO.C,R8*%
X134827383Y-55419001D03*
X134827383Y-52319001D03*
%TD*%
D33*
%TO.C,U1*%
X183846081Y-42470748D03*
X183846081Y-42970874D03*
X183846081Y-43471000D03*
X185344681Y-43471000D03*
X185344681Y-42970874D03*
X185344681Y-42470748D03*
%TD*%
D25*
%TO.C,C12*%
X132779381Y-38860500D03*
X132779381Y-41985500D03*
%TD*%
D10*
%TO.C,R22*%
X192495381Y-47789000D03*
X189395381Y-47789000D03*
%TD*%
D13*
%TO.C,C14*%
X145389263Y-35046492D03*
X145389263Y-31921492D03*
%TD*%
D34*
%TO.C,J3*%
X103569381Y-39741000D03*
D35*
X103569381Y-44741000D03*
%TD*%
D14*
%TO.C,R3*%
X153469381Y-84339000D03*
X153469381Y-87439000D03*
%TD*%
D36*
%TO.C,TH1*%
X128715381Y-138721000D03*
D37*
X126815381Y-138721000D03*
%TD*%
D26*
%TO.C,R16*%
X103823381Y-92519000D03*
X103823381Y-89419000D03*
%TD*%
D16*
%TO.C,R27*%
X191569381Y-70356900D03*
X194669381Y-70356900D03*
%TD*%
%TO.C,R13*%
X180139381Y-86143000D03*
X183239381Y-86143000D03*
%TD*%
D38*
%TO.C,U6*%
X176318348Y-85393002D03*
X176318348Y-85893000D03*
X176318348Y-86393000D03*
X176318348Y-86893001D03*
X178424414Y-86893001D03*
X178424414Y-86393000D03*
X178424414Y-85893000D03*
X178424414Y-85393002D03*
D39*
X177371381Y-86143000D03*
%TD*%
D23*
%TO.C,C22*%
X186196881Y-62736900D03*
X189321881Y-62736900D03*
%TD*%
D24*
%TO.C,C19*%
X184087381Y-47302500D03*
X184087381Y-45227500D03*
%TD*%
D11*
%TO.C,J8*%
X168847381Y-66082000D03*
D12*
X168847381Y-63542000D03*
%TD*%
D16*
%TO.C,R19*%
X189395381Y-40169000D03*
X192495381Y-40169000D03*
%TD*%
%TO.C,C3*%
X184061381Y-49567000D03*
X187161381Y-49567000D03*
%TD*%
D14*
%TO.C,R17*%
X106363381Y-89419000D03*
X106363381Y-92519000D03*
%TD*%
D16*
%TO.C,R1*%
X189395381Y-37629000D03*
X192495381Y-37629000D03*
%TD*%
D40*
%TO.C,J2*%
X103061381Y-58905000D03*
X103061381Y-59555000D03*
X103061381Y-60205000D03*
X103061381Y-60855000D03*
X103061381Y-61505000D03*
D41*
X100211381Y-56455000D03*
D42*
X100211381Y-59055000D03*
X100211381Y-61355000D03*
D41*
X100211381Y-63955000D03*
%TD*%
D11*
%TO.C,J12*%
X205994000Y-79756000D03*
D12*
X205994000Y-82296000D03*
X205994000Y-84836000D03*
X205994000Y-87376000D03*
X205994000Y-89916000D03*
%TD*%
D26*
%TO.C,R11*%
X140669383Y-64309001D03*
X140669383Y-61209001D03*
%TD*%
D24*
%TO.C,C26*%
X188521381Y-69616400D03*
X188521381Y-67541400D03*
%TD*%
D16*
%TO.C,R23*%
X191543381Y-60196900D03*
X194643381Y-60196900D03*
%TD*%
D43*
%TO.C,D1*%
X177371381Y-88973500D03*
X177371381Y-91948500D03*
%TD*%
D24*
%TO.C,C25*%
X186235381Y-69616400D03*
X186235381Y-67541400D03*
%TD*%
D10*
%TO.C,R24*%
X194643381Y-62736900D03*
X191543381Y-62736900D03*
%TD*%
D11*
%TO.C,J6*%
X164783381Y-85630000D03*
D12*
X164783381Y-88170000D03*
%TD*%
D16*
%TO.C,R25*%
X191543381Y-65276900D03*
X194643381Y-65276900D03*
%TD*%
D34*
%TO.C,J11*%
X201359381Y-107907000D03*
D35*
X201359381Y-102907000D03*
%TD*%
D44*
%TO.C,L2*%
X141123281Y-43471000D03*
X146787481Y-43471000D03*
%TD*%
D10*
%TO.C,C27*%
X184229381Y-71880900D03*
X181129381Y-71880900D03*
%TD*%
D14*
%TO.C,R31*%
X111443381Y-89419000D03*
X111443381Y-92519000D03*
%TD*%
D45*
%TO.C,R18*%
X114999381Y-36613000D03*
D46*
X114999381Y-51853000D03*
%TD*%
D47*
%TO.C,U8*%
X134995382Y-38553001D03*
X134995382Y-39153000D03*
D48*
X135085381Y-40011609D03*
D49*
X135085372Y-42119897D03*
D50*
X137515263Y-41573492D03*
D47*
X137605381Y-39153000D03*
X137605381Y-38553001D03*
D51*
X137518881Y-37620109D03*
D52*
X136300381Y-37674008D03*
D51*
X135081881Y-37620109D03*
%TD*%
D16*
%TO.C,R15*%
X180139381Y-91223000D03*
X183239381Y-91223000D03*
%TD*%
D23*
%TO.C,C1*%
X184048881Y-40169000D03*
X187173881Y-40169000D03*
%TD*%
%TO.C,C2*%
X184048881Y-37629000D03*
X187173881Y-37629000D03*
%TD*%
D14*
%TO.C,R29*%
X137367383Y-52319001D03*
X137367383Y-55419001D03*
%TD*%
D16*
%TO.C,R5*%
X130039883Y-61515001D03*
X133139883Y-61515001D03*
%TD*%
D13*
%TO.C,C16*%
X140309263Y-35046492D03*
X140309263Y-31921492D03*
%TD*%
D33*
%TO.C,U9*%
X185981381Y-64784648D03*
X185981381Y-65284774D03*
X185981381Y-65784900D03*
X187479981Y-65784900D03*
X187479981Y-65284774D03*
X187479981Y-64784648D03*
%TD*%
D23*
%TO.C,R6*%
X135296883Y-61515001D03*
X138421883Y-61515001D03*
%TD*%
D11*
%TO.C,J4*%
X127191381Y-37883000D03*
D12*
X127191381Y-40423000D03*
X127191381Y-42963000D03*
%TD*%
D23*
%TO.C,C23*%
X186196881Y-60196900D03*
X189321881Y-60196900D03*
%TD*%
D10*
%TO.C,R7*%
X138421883Y-66595001D03*
X135321883Y-66595001D03*
%TD*%
%TO.C,R10*%
X138473883Y-69135001D03*
X135373883Y-69135001D03*
%TD*%
D30*
%TO.C,C20*%
X181839881Y-49567000D03*
X178714881Y-49567000D03*
%TD*%
D53*
%TO.C,L3*%
X177737381Y-60311200D03*
X177737381Y-68871000D03*
%TD*%
D14*
%TO.C,R12*%
X168989381Y-85609000D03*
X168989381Y-88709000D03*
%TD*%
D23*
%TO.C,C13*%
X139852881Y-38137000D03*
X142977881Y-38137000D03*
%TD*%
D13*
%TO.C,C15*%
X142849263Y-35046492D03*
X142849263Y-31921492D03*
%TD*%
D17*
%TO.C,Q3*%
X145341381Y-78713000D03*
D18*
X142801381Y-95373000D03*
D19*
X145341381Y-95373000D03*
X147881381Y-95373000D03*
%TD*%
D11*
%TO.C,J10*%
X124185383Y-58866001D03*
D12*
X124185383Y-61406001D03*
%TD*%
M02*
