%TF.GenerationSoftware,KiCad,Pcbnew,8.0.6*%
%TF.CreationDate,2025-01-20T17:22:48-07:00*%
%TF.ProjectId,PDU,5044552e-6b69-4636-9164-5f7063625858,rev?*%
%TF.SameCoordinates,Original*%
%TF.FileFunction,Paste,Top*%
%TF.FilePolarity,Positive*%
%FSLAX46Y46*%
G04 Gerber Fmt 4.6, Leading zero omitted, Abs format (unit mm)*
G04 Created by KiCad (PCBNEW 8.0.6) date 2025-01-20 17:22:48*
%MOMM*%
%LPD*%
G01*
G04 APERTURE LIST*
G04 Aperture macros list*
%AMRoundRect*
0 Rectangle with rounded corners*
0 $1 Rounding radius*
0 $2 $3 $4 $5 $6 $7 $8 $9 X,Y pos of 4 corners*
0 Add a 4 corners polygon primitive as box body*
4,1,4,$2,$3,$4,$5,$6,$7,$8,$9,$2,$3,0*
0 Add four circle primitives for the rounded corners*
1,1,$1+$1,$2,$3*
1,1,$1+$1,$4,$5*
1,1,$1+$1,$6,$7*
1,1,$1+$1,$8,$9*
0 Add four rect primitives between the rounded corners*
20,1,$1+$1,$2,$3,$4,$5,0*
20,1,$1+$1,$4,$5,$6,$7,0*
20,1,$1+$1,$6,$7,$8,$9,0*
20,1,$1+$1,$8,$9,$2,$3,0*%
G04 Aperture macros list end*
%ADD10C,0.000000*%
%ADD11RoundRect,0.250000X0.400000X0.625000X-0.400000X0.625000X-0.400000X-0.625000X0.400000X-0.625000X0*%
%ADD12RoundRect,0.250000X0.650000X-0.412500X0.650000X0.412500X-0.650000X0.412500X-0.650000X-0.412500X0*%
%ADD13RoundRect,0.250000X-0.625000X0.400000X-0.625000X-0.400000X0.625000X-0.400000X0.625000X0.400000X0*%
%ADD14RoundRect,0.250000X-0.400000X-0.625000X0.400000X-0.625000X0.400000X0.625000X-0.400000X0.625000X0*%
%ADD15R,3.500000X2.950000*%
%ADD16RoundRect,0.250000X-0.412500X-0.650000X0.412500X-0.650000X0.412500X0.650000X-0.412500X0.650000X0*%
%ADD17RoundRect,0.250000X0.475000X-0.337500X0.475000X0.337500X-0.475000X0.337500X-0.475000X-0.337500X0*%
%ADD18RoundRect,0.250000X-0.650000X0.412500X-0.650000X-0.412500X0.650000X-0.412500X0.650000X0.412500X0*%
%ADD19RoundRect,0.250000X0.625000X-0.400000X0.625000X0.400000X-0.625000X0.400000X-0.625000X-0.400000X0*%
%ADD20R,0.249999X0.599999*%
%ADD21RoundRect,0.250000X0.412500X0.650000X-0.412500X0.650000X-0.412500X-0.650000X0.412500X-0.650000X0*%
%ADD22R,0.609600X0.279400*%
%ADD23R,0.806066X0.256842*%
%ADD24R,1.400000X0.400000*%
%ADD25R,1.900000X2.300000*%
%ADD26R,1.900000X1.800000*%
%ADD27RoundRect,0.250001X-0.624999X0.462499X-0.624999X-0.462499X0.624999X-0.462499X0.624999X0.462499X0*%
%ADD28R,1.574800X3.429000*%
%ADD29R,1.041400X0.330200*%
%ADD30R,1.219200X0.812800*%
%ADD31R,1.219200X2.870200*%
%ADD32R,1.219200X3.962400*%
%ADD33R,1.213000X0.962000*%
%ADD34R,0.625000X1.038000*%
%ADD35R,3.251200X2.921000*%
G04 APERTURE END LIST*
D10*
%TO.C,U5*%
G36*
X137279385Y-58131003D02*
G01*
X137279385Y-58311002D01*
X137229385Y-58361002D01*
X136269385Y-58361002D01*
X136219385Y-58311002D01*
X136219385Y-58131003D01*
X136269385Y-58081003D01*
X137229385Y-58081003D01*
X137279385Y-58131003D01*
G37*
G36*
X137279385Y-57631004D02*
G01*
X137279385Y-57811003D01*
X137229385Y-57861003D01*
X136269385Y-57861003D01*
X136219385Y-57811003D01*
X136219385Y-57631004D01*
X136269385Y-57581004D01*
X137229385Y-57581004D01*
X137279385Y-57631004D01*
G37*
G36*
X138539385Y-57631004D02*
G01*
X138539385Y-57811003D01*
X138489385Y-57861003D01*
X137529385Y-57861003D01*
X137479385Y-57811003D01*
X137479385Y-57631004D01*
X137529385Y-57581004D01*
X138489385Y-57581004D01*
X138539385Y-57631004D01*
G37*
G36*
X138539385Y-58131003D02*
G01*
X138539385Y-58311002D01*
X138489385Y-58361002D01*
X137529385Y-58361002D01*
X137479385Y-58311002D01*
X137479385Y-58131003D01*
X137529385Y-58081003D01*
X138489385Y-58081003D01*
X138539385Y-58131003D01*
G37*
%TO.C,U6*%
G36*
X177644291Y-86765912D02*
G01*
X177098468Y-86765912D01*
X177098468Y-85520088D01*
X177644291Y-85520088D01*
X177644291Y-86765912D01*
G37*
%TD*%
D11*
%TO.C,R9*%
X146055383Y-61515001D03*
X142955383Y-61515001D03*
%TD*%
D12*
%TO.C,C10*%
X139907383Y-55431501D03*
X139907383Y-52306501D03*
%TD*%
D13*
%TO.C,R33*%
X174069381Y-85609000D03*
X174069381Y-88709000D03*
%TD*%
D14*
%TO.C,R20*%
X189395381Y-42709000D03*
X192495381Y-42709000D03*
%TD*%
D12*
%TO.C,C17*%
X137769263Y-35046492D03*
X137769263Y-31921492D03*
%TD*%
D15*
%TO.C,L1*%
X178245381Y-39984000D03*
X178245381Y-45434000D03*
%TD*%
D14*
%TO.C,R26*%
X191543381Y-67816900D03*
X194643381Y-67816900D03*
%TD*%
D12*
%TO.C,C18*%
X135229263Y-35046492D03*
X135229263Y-31921492D03*
%TD*%
D16*
%TO.C,C4*%
X173230381Y-83349000D03*
X176355381Y-83349000D03*
%TD*%
D17*
%TO.C,C21*%
X186373381Y-47302500D03*
X186373381Y-45227500D03*
%TD*%
D14*
%TO.C,R21*%
X189421381Y-45249000D03*
X192521381Y-45249000D03*
%TD*%
D18*
%TO.C,C11*%
X100521381Y-83818500D03*
X100521381Y-86943500D03*
%TD*%
D14*
%TO.C,R14*%
X180139381Y-88683000D03*
X183239381Y-88683000D03*
%TD*%
D19*
%TO.C,R32*%
X171529381Y-88709000D03*
X171529381Y-85609000D03*
%TD*%
D20*
%TO.C,U5*%
X137154384Y-58871004D03*
X137604386Y-58871004D03*
X137604386Y-57071002D03*
X137154384Y-57071002D03*
%TD*%
D16*
%TO.C,C24*%
X186196881Y-71880900D03*
X189321881Y-71880900D03*
%TD*%
D19*
%TO.C,R30*%
X108903381Y-92519000D03*
X108903381Y-89419000D03*
%TD*%
D11*
%TO.C,R28*%
X138396883Y-64055001D03*
X135296883Y-64055001D03*
%TD*%
D21*
%TO.C,C5*%
X181512381Y-83349000D03*
X178387381Y-83349000D03*
%TD*%
D19*
%TO.C,R8*%
X134827383Y-55419001D03*
X134827383Y-52319001D03*
%TD*%
D22*
%TO.C,U1*%
X183846081Y-42470748D03*
X183846081Y-42970874D03*
X183846081Y-43471000D03*
X185344681Y-43471000D03*
X185344681Y-42970874D03*
X185344681Y-42470748D03*
%TD*%
D18*
%TO.C,C12*%
X132779381Y-38860500D03*
X132779381Y-41985500D03*
%TD*%
D11*
%TO.C,R22*%
X192495381Y-47789000D03*
X189395381Y-47789000D03*
%TD*%
D12*
%TO.C,C14*%
X145389263Y-35046492D03*
X145389263Y-31921492D03*
%TD*%
D13*
%TO.C,R3*%
X153469381Y-84339000D03*
X153469381Y-87439000D03*
%TD*%
D19*
%TO.C,R16*%
X103823381Y-92519000D03*
X103823381Y-89419000D03*
%TD*%
D14*
%TO.C,R27*%
X191569381Y-70356900D03*
X194669381Y-70356900D03*
%TD*%
%TO.C,R13*%
X180139381Y-86143000D03*
X183239381Y-86143000D03*
%TD*%
D23*
%TO.C,U6*%
X176318348Y-85393002D03*
X176318348Y-85893000D03*
X176318348Y-86393000D03*
X176318348Y-86893001D03*
X178424414Y-86893001D03*
X178424414Y-86393000D03*
X178424414Y-85893000D03*
X178424414Y-85393002D03*
%TD*%
D16*
%TO.C,C22*%
X186196881Y-62736900D03*
X189321881Y-62736900D03*
%TD*%
D17*
%TO.C,C19*%
X184087381Y-47302500D03*
X184087381Y-45227500D03*
%TD*%
D14*
%TO.C,R19*%
X189395381Y-40169000D03*
X192495381Y-40169000D03*
%TD*%
%TO.C,C3*%
X184061381Y-49567000D03*
X187161381Y-49567000D03*
%TD*%
D13*
%TO.C,R17*%
X106363381Y-89419000D03*
X106363381Y-92519000D03*
%TD*%
D14*
%TO.C,R1*%
X189395381Y-37629000D03*
X192495381Y-37629000D03*
%TD*%
D24*
%TO.C,J2*%
X103061381Y-58905000D03*
X103061381Y-59555000D03*
X103061381Y-60205000D03*
X103061381Y-60855000D03*
X103061381Y-61505000D03*
D25*
X100211381Y-56455000D03*
D26*
X100211381Y-59055000D03*
X100211381Y-61355000D03*
D25*
X100211381Y-63955000D03*
%TD*%
D19*
%TO.C,R11*%
X140669383Y-64309001D03*
X140669383Y-61209001D03*
%TD*%
D17*
%TO.C,C26*%
X188521381Y-69616400D03*
X188521381Y-67541400D03*
%TD*%
D14*
%TO.C,R23*%
X191543381Y-60196900D03*
X194643381Y-60196900D03*
%TD*%
D27*
%TO.C,D1*%
X177371381Y-88973500D03*
X177371381Y-91948500D03*
%TD*%
D17*
%TO.C,C25*%
X186235381Y-69616400D03*
X186235381Y-67541400D03*
%TD*%
D11*
%TO.C,R24*%
X194643381Y-62736900D03*
X191543381Y-62736900D03*
%TD*%
D14*
%TO.C,R25*%
X191543381Y-65276900D03*
X194643381Y-65276900D03*
%TD*%
D28*
%TO.C,L2*%
X141123281Y-43471000D03*
X146787481Y-43471000D03*
%TD*%
D11*
%TO.C,C27*%
X184229381Y-71880900D03*
X181129381Y-71880900D03*
%TD*%
D13*
%TO.C,R31*%
X111443381Y-89419000D03*
X111443381Y-92519000D03*
%TD*%
D29*
%TO.C,U8*%
X134995382Y-38553001D03*
X134995382Y-39153000D03*
D30*
X135085381Y-40011609D03*
D31*
X135085372Y-42119897D03*
D32*
X137515263Y-41573492D03*
D29*
X137605381Y-39153000D03*
X137605381Y-38553001D03*
D33*
X137518881Y-37620109D03*
D34*
X136300381Y-37674008D03*
D33*
X135081881Y-37620109D03*
%TD*%
D14*
%TO.C,R15*%
X180139381Y-91223000D03*
X183239381Y-91223000D03*
%TD*%
D16*
%TO.C,C1*%
X184048881Y-40169000D03*
X187173881Y-40169000D03*
%TD*%
%TO.C,C2*%
X184048881Y-37629000D03*
X187173881Y-37629000D03*
%TD*%
D13*
%TO.C,R29*%
X137367383Y-52319001D03*
X137367383Y-55419001D03*
%TD*%
D14*
%TO.C,R5*%
X130039883Y-61515001D03*
X133139883Y-61515001D03*
%TD*%
D12*
%TO.C,C16*%
X140309263Y-35046492D03*
X140309263Y-31921492D03*
%TD*%
D22*
%TO.C,U9*%
X185981381Y-64784648D03*
X185981381Y-65284774D03*
X185981381Y-65784900D03*
X187479981Y-65784900D03*
X187479981Y-65284774D03*
X187479981Y-64784648D03*
%TD*%
D16*
%TO.C,R6*%
X135296883Y-61515001D03*
X138421883Y-61515001D03*
%TD*%
%TO.C,C23*%
X186196881Y-60196900D03*
X189321881Y-60196900D03*
%TD*%
D11*
%TO.C,R7*%
X138421883Y-66595001D03*
X135321883Y-66595001D03*
%TD*%
%TO.C,R10*%
X138473883Y-69135001D03*
X135373883Y-69135001D03*
%TD*%
D21*
%TO.C,C20*%
X181839881Y-49567000D03*
X178714881Y-49567000D03*
%TD*%
D35*
%TO.C,L3*%
X177737381Y-68871000D03*
X177737381Y-60311200D03*
%TD*%
D13*
%TO.C,R12*%
X168989381Y-85609000D03*
X168989381Y-88709000D03*
%TD*%
D16*
%TO.C,C13*%
X139852881Y-38137000D03*
X142977881Y-38137000D03*
%TD*%
D12*
%TO.C,C15*%
X142849263Y-35046492D03*
X142849263Y-31921492D03*
%TD*%
M02*
