M48
; DRILL file {KiCad 8.0.6} date 2025-01-20T17:22:46-0700
; FORMAT={-:-/ absolute / inch / decimal}
; #@! TF.CreationDate,2025-01-20T17:22:46-07:00
; #@! TF.GenerationSoftware,Kicad,Pcbnew,8.0.6
; #@! TF.FileFunction,Plated,1,2,PTH
FMAT,2
INCH
; #@! TA.AperFunction,Plated,PTH,ViaDrill
T1C0.0118
; #@! TA.AperFunction,Plated,PTH,ViaDrill
T2C0.0276
; #@! TA.AperFunction,Plated,PTH,ComponentDrill
T3C0.0276
; #@! TA.AperFunction,Plated,PTH,ComponentDrill
T4C0.0315
; #@! TA.AperFunction,Plated,PTH,ComponentDrill
T5C0.0380
; #@! TA.AperFunction,Plated,PTH,ComponentDrill
T6C0.0390
; #@! TA.AperFunction,Plated,PTH,ComponentDrill
T7C0.0394
; #@! TA.AperFunction,Plated,PTH,ComponentDrill
T8C0.0433
; #@! TA.AperFunction,Plated,PTH,ComponentDrill
T9C0.0440
; #@! TA.AperFunction,Plated,PTH,ComponentDrill
T10C0.0520
%
G90
G05
T1
X3.9529Y-1.7704
X3.9529Y-1.9279
X3.9529Y-2.0854
X3.9529Y-2.7153
X3.9529Y-2.8728
X3.9529Y-3.0302
X3.9529Y-3.5027
X3.9529Y-3.6602
X3.9529Y-3.8176
X3.9529Y-3.9751
X3.9529Y-4.1326
X3.9529Y-4.2901
X3.9529Y-4.4476
X3.9529Y-4.605
X3.9529Y-4.7625
X3.9529Y-4.92
X3.9529Y-5.235
X3.9529Y-5.3924
X3.9529Y-5.5499
X3.9529Y-5.7074
X4.1104Y-1.9279
X4.1104Y-2.0854
X4.1104Y-2.4003
X4.1104Y-2.5578
X4.1104Y-2.7153
X4.1104Y-2.8728
X4.1104Y-3.8176
X4.1104Y-3.9751
X4.1104Y-4.1326
X4.1104Y-4.2901
X4.1104Y-4.4476
X4.1104Y-4.605
X4.1104Y-4.7625
X4.1104Y-4.92
X4.1104Y-5.0775
X4.1104Y-5.3924
X4.1104Y-5.5499
X4.1104Y-5.7074
X4.1104Y-5.8649
X4.2679Y-1.298
X4.2679Y-1.7704
X4.2679Y-1.9279
X4.2679Y-2.0854
X4.2679Y-2.4003
X4.2679Y-2.5578
X4.2679Y-2.7153
X4.2679Y-2.8728
X4.2679Y-3.1877
X4.2679Y-3.8176
X4.2679Y-3.9751
X4.2679Y-4.1326
X4.2679Y-4.2901
X4.2679Y-4.4476
X4.2679Y-4.605
X4.2679Y-4.7625
X4.2679Y-4.92
X4.2679Y-5.0775
X4.2679Y-5.235
X4.2679Y-5.5499
X4.2679Y-5.7074
X4.2679Y-5.8649
X4.2679Y-6.0224
X4.4254Y-1.298
X4.4254Y-1.7704
X4.4254Y-1.9279
X4.4254Y-2.0854
X4.4254Y-2.4003
X4.4254Y-2.5578
X4.4254Y-2.7153
X4.4254Y-2.8728
X4.4254Y-3.8176
X4.4254Y-3.9751
X4.4254Y-4.1326
X4.4254Y-4.2901
X4.4254Y-4.4476
X4.4254Y-4.605
X4.4254Y-4.7625
X4.4254Y-4.92
X4.4254Y-5.0775
X4.4254Y-5.235
X4.4254Y-5.3924
X4.4254Y-5.7074
X4.4254Y-5.8649
X4.4254Y-6.0224
X4.5828Y-1.298
X4.5828Y-2.4003
X4.5828Y-2.5578
X4.5828Y-2.7153
X4.5828Y-2.8728
X4.5828Y-3.0302
X4.5828Y-3.1877
X4.5828Y-3.3452
X4.5828Y-3.5027
X4.5828Y-3.8176
X4.5828Y-3.9751
X4.5828Y-4.1326
X4.5828Y-4.2901
X4.5828Y-4.4476
X4.5828Y-4.605
X4.5828Y-4.7625
X4.5828Y-4.92
X4.5828Y-5.0775
X4.5828Y-5.235
X4.5828Y-5.3924
X4.5828Y-5.5499
X4.5828Y-5.7074
X4.5828Y-5.8649
X4.5828Y-6.0224
X4.7403Y-1.298
X4.7403Y-1.4554
X4.7403Y-2.4003
X4.7403Y-2.5578
X4.7403Y-2.7153
X4.7403Y-2.8728
X4.7403Y-3.0302
X4.7403Y-3.1877
X4.7403Y-3.3452
X4.7403Y-3.5027
X4.7403Y-3.9751
X4.7403Y-4.1326
X4.7403Y-4.2901
X4.7403Y-4.4476
X4.7403Y-4.605
X4.7403Y-4.7625
X4.7403Y-4.92
X4.7403Y-5.0775
X4.7403Y-5.235
X4.7403Y-5.3924
X4.7403Y-5.5499
X4.7403Y-5.7074
X4.7403Y-5.8649
X4.7403Y-6.0224
X4.8978Y-1.298
X4.8978Y-1.4554
X4.8978Y-2.5578
X4.8978Y-2.7153
X4.8978Y-2.8728
X4.8978Y-3.1877
X4.8978Y-3.3452
X4.8978Y-3.5027
X4.8978Y-4.1326
X4.8978Y-4.2901
X4.8978Y-4.4476
X4.8978Y-4.605
X4.8978Y-4.7625
X4.8978Y-4.92
X4.8978Y-5.0775
X4.8978Y-5.235
X4.8978Y-5.3924
X4.8978Y-5.5499
X4.8978Y-5.7074
X4.8978Y-5.8649
X4.8978Y-6.0224
X5.0553Y-1.298
X5.0553Y-1.9279
X5.0553Y-2.0854
X5.0553Y-2.7153
X5.0553Y-2.8728
X5.0553Y-3.0302
X5.0553Y-3.1877
X5.0553Y-3.3452
X5.0553Y-3.5027
X5.0553Y-4.2901
X5.0553Y-4.4476
X5.0553Y-4.605
X5.0553Y-4.7625
X5.0553Y-4.92
X5.0553Y-5.0775
X5.0553Y-5.235
X5.0553Y-5.3924
X5.0553Y-5.5499
X5.0553Y-5.7074
X5.0553Y-5.8649
X5.0553Y-6.0224
X5.2128Y-1.298
X5.2128Y-1.4554
X5.2128Y-1.9279
X5.2128Y-2.0854
X5.2128Y-2.5578
X5.2128Y-2.7153
X5.2128Y-2.8728
X5.2128Y-3.1877
X5.2128Y-3.3452
X5.2128Y-3.5027
X5.2128Y-3.6602
X5.2128Y-4.1326
X5.2128Y-4.4476
X5.2128Y-4.605
X5.2128Y-4.7625
X5.2128Y-4.92
X5.2128Y-5.0775
X5.2128Y-5.235
X5.2128Y-5.3924
X5.2128Y-5.5499
X5.2128Y-5.7074
X5.2128Y-5.8649
X5.2128Y-6.0224
X5.3702Y-1.9279
X5.3702Y-2.8728
X5.3702Y-3.0302
X5.3702Y-3.1877
X5.3702Y-3.3452
X5.3702Y-3.5027
X5.3702Y-3.6602
X5.3702Y-4.1326
X5.3702Y-4.2901
X5.3702Y-5.5499
X5.3702Y-5.7074
X5.3702Y-5.8649
X5.3702Y-6.0224
X5.5277Y-1.9279
X5.5277Y-2.7153
X5.5277Y-2.8728
X5.5277Y-3.0302
X5.5277Y-3.1877
X5.5277Y-3.3452
X5.5277Y-3.6602
X5.5277Y-4.1326
X5.5277Y-4.2901
X5.5277Y-4.4476
X5.5277Y-4.605
X5.5277Y-4.7625
X5.5277Y-4.92
X5.5277Y-5.0775
X5.5277Y-5.235
X5.5277Y-5.3924
X5.5277Y-5.5499
X5.5277Y-5.7074
X5.5277Y-5.8649
X5.5277Y-6.0224
X5.5375Y-2.4815
X5.6852Y-1.9279
X5.6852Y-2.0854
X5.6852Y-2.5578
X5.6852Y-2.7153
X5.6852Y-2.8728
X5.6852Y-3.3452
X5.6852Y-3.6602
X5.6852Y-4.1326
X5.6852Y-4.2901
X5.6852Y-4.4476
X5.6852Y-4.605
X5.6852Y-4.7625
X5.6852Y-4.92
X5.6852Y-5.0775
X5.6852Y-5.235
X5.6852Y-5.3924
X5.6852Y-5.5499
X5.6852Y-5.7074
X5.6852Y-5.8649
X5.6852Y-6.0224
X5.8427Y-1.9279
X5.8427Y-2.0854
X5.8427Y-2.5578
X5.8427Y-2.8728
X5.8427Y-3.0302
X5.8427Y-3.1877
X5.8427Y-4.1326
X5.8427Y-4.2901
X5.8427Y-4.4476
X5.8427Y-4.605
X5.8427Y-4.7625
X5.8427Y-4.92
X5.8427Y-5.0775
X5.8427Y-5.235
X5.8427Y-5.3924
X5.8427Y-5.5499
X5.8427Y-5.7074
X5.8427Y-5.8649
X5.8427Y-6.0224
X6.0002Y-1.9279
X6.0002Y-2.0854
X6.0002Y-2.2428
X6.0002Y-2.5578
X6.0002Y-2.8728
X6.0002Y-3.0302
X6.0002Y-4.1326
X6.0002Y-4.2901
X6.0002Y-4.4476
X6.0002Y-4.605
X6.0002Y-4.7625
X6.0002Y-4.92
X6.0002Y-5.0775
X6.0002Y-5.235
X6.0002Y-5.3924
X6.0002Y-5.5499
X6.0002Y-5.7074
X6.0002Y-5.8649
X6.0002Y-6.0224
X6.0175Y-3.1415
X6.1576Y-1.298
X6.1576Y-1.4554
X6.1576Y-1.6129
X6.1576Y-1.7704
X6.1576Y-2.0854
X6.1576Y-2.2428
X6.1576Y-2.4003
X6.1576Y-3.6602
X6.1576Y-4.1326
X6.1576Y-4.2901
X6.1576Y-4.4476
X6.1576Y-4.605
X6.1576Y-4.7625
X6.1576Y-4.92
X6.1576Y-5.0775
X6.1576Y-5.235
X6.1576Y-5.3924
X6.1576Y-5.5499
X6.1576Y-5.7074
X6.1576Y-5.8649
X6.1576Y-6.0224
X6.3151Y-1.298
X6.3151Y-1.4554
X6.3151Y-1.6129
X6.3151Y-1.7704
X6.3151Y-1.9279
X6.3151Y-2.2428
X6.3151Y-2.5578
X6.3151Y-2.8728
X6.3151Y-3.0302
X6.3151Y-3.1877
X6.3151Y-3.3452
X6.3151Y-3.6602
X6.3151Y-4.1326
X6.3151Y-4.2901
X6.3151Y-4.4476
X6.3151Y-4.605
X6.3151Y-5.7074
X6.3151Y-5.8649
X6.3151Y-6.0224
X6.4726Y-1.298
X6.4726Y-1.4554
X6.4726Y-1.6129
X6.4726Y-1.7704
X6.4726Y-1.9279
X6.4726Y-2.0854
X6.4726Y-3.6602
X6.4726Y-4.1326
X6.4726Y-4.2901
X6.4726Y-4.4476
X6.4726Y-4.605
X6.4726Y-4.7625
X6.4726Y-4.92
X6.4726Y-5.0775
X6.4726Y-5.235
X6.4726Y-5.3924
X6.4726Y-5.5499
X6.4726Y-5.7074
X6.4726Y-5.8649
X6.4726Y-6.0224
X6.6301Y-1.298
X6.6301Y-1.4554
X6.6301Y-1.9279
X6.6301Y-2.8728
X6.6301Y-3.0302
X6.6301Y-3.1877
X6.6301Y-3.6602
X6.6301Y-4.1326
X6.6301Y-4.2901
X6.6301Y-4.4476
X6.6301Y-4.605
X6.6301Y-4.7625
X6.6301Y-4.92
X6.6301Y-5.0775
X6.6301Y-5.235
X6.6301Y-5.3924
X6.6301Y-5.5499
X6.6301Y-5.7074
X6.6301Y-5.8649
X6.6301Y-6.0224
X6.7876Y-1.298
X6.7876Y-1.4554
X6.7876Y-1.6129
X6.7876Y-1.9279
X6.7876Y-2.0854
X6.7876Y-2.2428
X6.7876Y-2.8728
X6.7876Y-3.0302
X6.7876Y-3.1877
X6.7876Y-3.6602
X6.7876Y-4.1326
X6.7876Y-4.2901
X6.7876Y-4.4476
X6.7876Y-4.605
X6.7876Y-4.7625
X6.7876Y-4.92
X6.7876Y-5.0775
X6.7876Y-5.235
X6.7876Y-5.3924
X6.7876Y-5.5499
X6.7876Y-5.7074
X6.7876Y-5.8649
X6.7876Y-6.0224
X6.9075Y-3.8815
X6.9175Y-2.8315
X6.945Y-1.298
X6.945Y-3.0302
X6.945Y-3.1877
X6.945Y-4.1326
X6.945Y-4.2901
X6.945Y-4.4476
X6.945Y-4.605
X6.945Y-4.7625
X6.945Y-4.92
X6.945Y-5.0775
X6.945Y-5.235
X6.945Y-5.3924
X6.945Y-5.5499
X6.945Y-5.7074
X6.945Y-5.8649
X6.945Y-6.0224
X7.1025Y-1.298
X7.1025Y-3.0302
X7.1025Y-3.6602
X7.1025Y-4.1326
X7.1025Y-4.2901
X7.1025Y-4.4476
X7.1025Y-4.605
X7.1025Y-4.7625
X7.1025Y-4.92
X7.1025Y-5.0775
X7.1025Y-5.235
X7.1025Y-5.3924
X7.1025Y-5.5499
X7.1025Y-5.7074
X7.1025Y-5.8649
X7.1025Y-6.0224
X7.1425Y-3.1765
X7.2475Y-2.6515
X7.26Y-1.298
X7.26Y-3.0302
X7.26Y-3.1877
X7.26Y-3.6602
X7.26Y-4.1326
X7.26Y-4.2901
X7.26Y-4.4476
X7.26Y-4.605
X7.26Y-4.7625
X7.26Y-4.92
X7.26Y-5.0775
X7.26Y-5.235
X7.26Y-5.3924
X7.26Y-5.5499
X7.26Y-5.7074
X7.26Y-5.8649
X7.26Y-6.0224
X7.3175Y-3.4315
X7.3603Y-1.6442
X7.3975Y-1.7715
X7.4175Y-1.298
X7.4175Y-2.2428
X7.4175Y-3.0302
X7.4175Y-3.1877
X7.4175Y-3.9751
X7.4175Y-4.1326
X7.4175Y-4.2901
X7.4175Y-4.4476
X7.4175Y-4.605
X7.4175Y-4.7625
X7.4175Y-4.92
X7.4175Y-5.0775
X7.4175Y-5.235
X7.4175Y-5.3924
X7.4175Y-5.5499
X7.4175Y-5.7074
X7.4175Y-5.8649
X7.4175Y-6.0224
X7.4275Y-2.5315
X7.4875Y-2.6515
X7.575Y-1.298
X7.575Y-2.2428
X7.575Y-3.0302
X7.575Y-3.1877
X7.575Y-4.1326
X7.575Y-4.2901
X7.575Y-4.4476
X7.575Y-4.605
X7.575Y-4.7625
X7.575Y-4.92
X7.575Y-5.0775
X7.575Y-5.235
X7.575Y-5.3924
X7.575Y-5.5499
X7.575Y-5.7074
X7.575Y-5.8649
X7.575Y-6.0224
X7.589Y-2.77
X7.7324Y-1.298
X7.7324Y-1.4554
X7.7324Y-1.6129
X7.7324Y-1.7704
X7.7324Y-2.2428
X7.7324Y-2.4003
X7.7324Y-2.5578
X7.7324Y-2.7153
X7.7324Y-3.6602
X7.7324Y-3.9751
X7.7324Y-4.1326
X7.7324Y-4.2901
X7.7324Y-4.4476
X7.7324Y-4.605
X7.7324Y-4.7625
X7.7324Y-4.92
X7.7324Y-5.0775
X7.7324Y-5.235
X7.7324Y-5.3924
X7.7324Y-5.5499
X7.7324Y-5.7074
X7.7324Y-5.8649
X7.7324Y-6.0224
X7.8899Y-1.4554
X7.8899Y-1.6129
X7.8899Y-1.7704
X7.8899Y-2.2428
X7.8899Y-2.4003
X7.8899Y-2.5578
X7.8899Y-2.7153
X7.8899Y-3.3452
X7.8899Y-3.8176
X7.8899Y-3.9751
X7.8899Y-4.1326
X7.8899Y-4.4476
X7.8899Y-4.605
X7.8899Y-4.7625
X7.8899Y-4.92
X7.8899Y-5.0775
X7.8899Y-5.235
X7.8899Y-5.3924
X7.8899Y-5.5499
X7.8899Y-5.7074
X7.8899Y-5.8649
X7.9075Y-3.2715
X8.0474Y-1.4554
X8.0474Y-1.6129
X8.0474Y-1.7704
X8.0474Y-3.3452
X8.0474Y-3.6602
X8.0474Y-3.8176
X8.0474Y-3.9751
X8.0474Y-4.1326
X8.0474Y-4.2901
X8.0474Y-4.4476
X8.0474Y-4.605
X8.0474Y-4.7625
X8.0474Y-4.92
X8.0474Y-5.0775
X8.0474Y-5.235
X8.0474Y-5.3924
X8.0474Y-5.5499
X8.0474Y-5.7074
T2
X6.1475Y-2.6015
X6.5865Y-2.1515
T3
X4.9927Y-5.4615
X5.0675Y-5.4615
T4
X4.5275Y-1.4415
X4.5275Y-2.0415
T5
X5.3851Y-4.7315
X5.3851Y-5.4615
X6.33Y-4.7315
X6.33Y-5.4615
T6
X4.0775Y-3.1015
X4.0775Y-3.2015
X4.0775Y-3.3015
X4.0775Y-3.4015
X4.3775Y-3.1015
X4.3775Y-3.2015
X4.3775Y-3.3015
X4.3775Y-3.4015
T7
X4.8892Y-2.3176
X4.8892Y-2.4176
X5.0075Y-1.4915
X5.0075Y-1.5915
X5.0075Y-1.6915
X5.9175Y-1.5415
X5.9175Y-1.6415
X6.4875Y-3.3713
X6.4875Y-3.4713
X6.6475Y-1.6515
X6.6475Y-1.7515
X6.6475Y-2.5017
X6.6475Y-2.6017
X7.4275Y-3.2913
X7.4275Y-3.3913
X8.11Y-3.14
X8.11Y-3.24
X8.11Y-3.34
X8.11Y-3.44
X8.11Y-3.54
T8
X4.7421Y-3.7548
X4.8421Y-3.7548
X4.9421Y-3.7548
X5.1821Y-3.7548
X5.2821Y-3.7548
X5.3821Y-3.7548
X5.6221Y-3.7548
X5.7221Y-3.7548
X5.8221Y-3.7548
T9
X7.5375Y-4.0365
X7.5375Y-4.2365
T10
X4.0775Y-1.5646
X4.0775Y-1.7615
X7.9275Y-4.0515
X7.9275Y-4.2483
M30
