%TF.GenerationSoftware,KiCad,Pcbnew,8.0.6*%
%TF.CreationDate,2025-03-17T23:33:19-06:00*%
%TF.ProjectId,PDU,5044552e-6b69-4636-9164-5f7063625858,rev?*%
%TF.SameCoordinates,Original*%
%TF.FileFunction,Legend,Top*%
%TF.FilePolarity,Positive*%
%FSLAX46Y46*%
G04 Gerber Fmt 4.6, Leading zero omitted, Abs format (unit mm)*
G04 Created by KiCad (PCBNEW 8.0.6) date 2025-03-17 23:33:19*
%MOMM*%
%LPD*%
G01*
G04 APERTURE LIST*
%ADD10C,0.100000*%
%ADD11C,0.150000*%
%ADD12C,1.000000*%
%ADD13C,0.152400*%
%ADD14C,0.508000*%
G04 APERTURE END LIST*
D10*
X117744419Y-39462972D02*
X117744419Y-38891544D01*
X118744419Y-39177258D02*
X117744419Y-39177258D01*
X118744419Y-38558210D02*
X117744419Y-38558210D01*
X118220609Y-38558210D02*
X118220609Y-37986782D01*
X118744419Y-37986782D02*
X117744419Y-37986782D01*
X118220609Y-37510591D02*
X118220609Y-37177258D01*
X118744419Y-37034401D02*
X118744419Y-37510591D01*
X118744419Y-37510591D02*
X117744419Y-37510591D01*
X117744419Y-37510591D02*
X117744419Y-37034401D01*
X118744419Y-36034401D02*
X118268228Y-36367734D01*
X118744419Y-36605829D02*
X117744419Y-36605829D01*
X117744419Y-36605829D02*
X117744419Y-36224877D01*
X117744419Y-36224877D02*
X117792038Y-36129639D01*
X117792038Y-36129639D02*
X117839657Y-36082020D01*
X117839657Y-36082020D02*
X117934895Y-36034401D01*
X117934895Y-36034401D02*
X118077752Y-36034401D01*
X118077752Y-36034401D02*
X118172990Y-36082020D01*
X118172990Y-36082020D02*
X118220609Y-36129639D01*
X118220609Y-36129639D02*
X118268228Y-36224877D01*
X118268228Y-36224877D02*
X118268228Y-36605829D01*
X118744419Y-35605829D02*
X117744419Y-35605829D01*
X117744419Y-35605829D02*
X118458704Y-35272496D01*
X118458704Y-35272496D02*
X117744419Y-34939163D01*
X117744419Y-34939163D02*
X118744419Y-34939163D01*
X146684419Y-39320115D02*
X145684419Y-39320115D01*
X146160609Y-39320115D02*
X146160609Y-38748687D01*
X146684419Y-38748687D02*
X145684419Y-38748687D01*
X146160609Y-38272496D02*
X146160609Y-37939163D01*
X146684419Y-37796306D02*
X146684419Y-38272496D01*
X146684419Y-38272496D02*
X145684419Y-38272496D01*
X145684419Y-38272496D02*
X145684419Y-37796306D01*
X146398704Y-37415353D02*
X146398704Y-36939163D01*
X146684419Y-37510591D02*
X145684419Y-37177258D01*
X145684419Y-37177258D02*
X146684419Y-36843925D01*
X145684419Y-36653448D02*
X145684419Y-36082020D01*
X146684419Y-36367734D02*
X145684419Y-36367734D01*
X146160609Y-35748686D02*
X146160609Y-35415353D01*
X146684419Y-35272496D02*
X146684419Y-35748686D01*
X146684419Y-35748686D02*
X145684419Y-35748686D01*
X145684419Y-35748686D02*
X145684419Y-35272496D01*
X146684419Y-34272496D02*
X146208228Y-34605829D01*
X146684419Y-34843924D02*
X145684419Y-34843924D01*
X145684419Y-34843924D02*
X145684419Y-34462972D01*
X145684419Y-34462972D02*
X145732038Y-34367734D01*
X145732038Y-34367734D02*
X145779657Y-34320115D01*
X145779657Y-34320115D02*
X145874895Y-34272496D01*
X145874895Y-34272496D02*
X146017752Y-34272496D01*
X146017752Y-34272496D02*
X146112990Y-34320115D01*
X146112990Y-34320115D02*
X146160609Y-34367734D01*
X146160609Y-34367734D02*
X146208228Y-34462972D01*
X146208228Y-34462972D02*
X146208228Y-34843924D01*
X126331476Y-98444919D02*
X126331476Y-97444919D01*
X126331476Y-97444919D02*
X126664809Y-98159204D01*
X126664809Y-98159204D02*
X126998142Y-97444919D01*
X126998142Y-97444919D02*
X126998142Y-98444919D01*
X127998142Y-98444919D02*
X127426714Y-98444919D01*
X127712428Y-98444919D02*
X127712428Y-97444919D01*
X127712428Y-97444919D02*
X127617190Y-97587776D01*
X127617190Y-97587776D02*
X127521952Y-97683014D01*
X127521952Y-97683014D02*
X127426714Y-97730633D01*
D11*
X135810666Y-34252819D02*
X135810666Y-34967104D01*
X135810666Y-34967104D02*
X135763047Y-35109961D01*
X135763047Y-35109961D02*
X135667809Y-35205200D01*
X135667809Y-35205200D02*
X135524952Y-35252819D01*
X135524952Y-35252819D02*
X135429714Y-35252819D01*
X136763047Y-34252819D02*
X136286857Y-34252819D01*
X136286857Y-34252819D02*
X136239238Y-34729009D01*
X136239238Y-34729009D02*
X136286857Y-34681390D01*
X136286857Y-34681390D02*
X136382095Y-34633771D01*
X136382095Y-34633771D02*
X136620190Y-34633771D01*
X136620190Y-34633771D02*
X136715428Y-34681390D01*
X136715428Y-34681390D02*
X136763047Y-34729009D01*
X136763047Y-34729009D02*
X136810666Y-34824247D01*
X136810666Y-34824247D02*
X136810666Y-35062342D01*
X136810666Y-35062342D02*
X136763047Y-35157580D01*
X136763047Y-35157580D02*
X136715428Y-35205200D01*
X136715428Y-35205200D02*
X136620190Y-35252819D01*
X136620190Y-35252819D02*
X136382095Y-35252819D01*
X136382095Y-35252819D02*
X136286857Y-35205200D01*
X136286857Y-35205200D02*
X136239238Y-35157580D01*
X107362666Y-34252819D02*
X107362666Y-34967104D01*
X107362666Y-34967104D02*
X107315047Y-35109961D01*
X107315047Y-35109961D02*
X107219809Y-35205200D01*
X107219809Y-35205200D02*
X107076952Y-35252819D01*
X107076952Y-35252819D02*
X106981714Y-35252819D01*
X108267428Y-34252819D02*
X108076952Y-34252819D01*
X108076952Y-34252819D02*
X107981714Y-34300438D01*
X107981714Y-34300438D02*
X107934095Y-34348057D01*
X107934095Y-34348057D02*
X107838857Y-34490914D01*
X107838857Y-34490914D02*
X107791238Y-34681390D01*
X107791238Y-34681390D02*
X107791238Y-35062342D01*
X107791238Y-35062342D02*
X107838857Y-35157580D01*
X107838857Y-35157580D02*
X107886476Y-35205200D01*
X107886476Y-35205200D02*
X107981714Y-35252819D01*
X107981714Y-35252819D02*
X108172190Y-35252819D01*
X108172190Y-35252819D02*
X108267428Y-35205200D01*
X108267428Y-35205200D02*
X108315047Y-35157580D01*
X108315047Y-35157580D02*
X108362666Y-35062342D01*
X108362666Y-35062342D02*
X108362666Y-34824247D01*
X108362666Y-34824247D02*
X108315047Y-34729009D01*
X108315047Y-34729009D02*
X108267428Y-34681390D01*
X108267428Y-34681390D02*
X108172190Y-34633771D01*
X108172190Y-34633771D02*
X107981714Y-34633771D01*
X107981714Y-34633771D02*
X107886476Y-34681390D01*
X107886476Y-34681390D02*
X107838857Y-34729009D01*
X107838857Y-34729009D02*
X107791238Y-34824247D01*
%TO.C,H2*%
D10*
X153994000Y-126285000D02*
X169544000Y-126285000D01*
X169544000Y-155435000D01*
X153994000Y-155435000D01*
X153994000Y-126285000D01*
%TO.C,M1*%
X99491000Y-40887500D02*
X99491000Y-45337500D01*
X99491000Y-55897500D02*
X99491000Y-154013500D01*
X99491000Y-154013500D02*
X121741000Y-154013500D01*
D12*
X105309750Y-50687500D02*
X107172250Y-50687500D01*
X106241000Y-49687500D02*
X106241000Y-51687500D01*
D10*
X121741000Y-33587500D02*
X121741000Y-40887500D01*
X121741000Y-40887500D02*
X99491000Y-40887500D01*
X121741000Y-154013500D02*
X121741000Y-163387500D01*
X121741000Y-163387500D02*
X131741000Y-163387500D01*
X131741000Y-33587500D02*
X121741000Y-33587500D01*
X131741000Y-33587500D02*
X131741000Y-40887500D01*
X131741000Y-154013500D02*
X153991000Y-154013500D01*
X131741000Y-163387500D02*
X131741000Y-154013500D01*
D12*
X146378500Y-146387500D02*
X148103500Y-146387500D01*
D10*
X153991000Y-40887500D02*
X131741000Y-40887500D01*
X153991000Y-40887500D02*
X153991000Y-140837500D01*
X153991000Y-154013500D02*
X153991000Y-151487500D01*
D13*
%TO.C,J5*%
X137221600Y-33921700D02*
X137221600Y-40068500D01*
X137221600Y-40068500D02*
X145070200Y-40068500D01*
X145070200Y-33921700D02*
X137221600Y-33921700D01*
X145070200Y-40068500D02*
X145070200Y-33921700D01*
D14*
X139079600Y-41846500D02*
G75*
G02*
X138317600Y-41846500I-381000J0D01*
G01*
X138317600Y-41846500D02*
G75*
G02*
X139079600Y-41846500I381000J0D01*
G01*
D13*
%TO.C,J6*%
X108944400Y-34026599D02*
X108944400Y-40173399D01*
X108944400Y-40173399D02*
X116793000Y-40173399D01*
X116793000Y-34026599D02*
X108944400Y-34026599D01*
X116793000Y-40173399D02*
X116793000Y-34026599D01*
D14*
X115697000Y-32248599D02*
G75*
G02*
X114935000Y-32248599I-381000J0D01*
G01*
X114935000Y-32248599D02*
G75*
G02*
X115697000Y-32248599I381000J0D01*
G01*
%TO.C,H1*%
D10*
X153994000Y-88549000D02*
X169544000Y-88549000D01*
X169544000Y-117699000D01*
X153994000Y-117699000D01*
X153994000Y-88549000D01*
D14*
%TO.C,J3*%
X118237000Y-165187000D02*
G75*
G02*
X117475000Y-165187000I-381000J0D01*
G01*
X117475000Y-165187000D02*
G75*
G02*
X118237000Y-165187000I381000J0D01*
G01*
%TO.C,J1*%
X165481000Y-72047100D02*
G75*
G02*
X164719000Y-72047100I-381000J0D01*
G01*
X164719000Y-72047100D02*
G75*
G02*
X165481000Y-72047100I381000J0D01*
G01*
%TD*%
M02*
