M48
; DRILL file {KiCad 8.0.6} date 2025-03-17T23:33:15-0600
; FORMAT={-:-/ absolute / inch / decimal}
; #@! TF.CreationDate,2025-03-17T23:33:15-06:00
; #@! TF.GenerationSoftware,Kicad,Pcbnew,8.0.6
; #@! TF.FileFunction,Plated,1,2,PTH
FMAT,2
INCH
; #@! TA.AperFunction,Plated,PTH,ViaDrill
T1C0.0118
; #@! TA.AperFunction,Plated,PTH,ViaDrill
T2C0.0276
; #@! TA.AperFunction,Plated,PTH,ComponentDrill
T3C0.0320
; #@! TA.AperFunction,Plated,PTH,ComponentDrill
T4C0.0390
; #@! TA.AperFunction,Plated,PTH,ComponentDrill
T5C0.0510
; #@! TA.AperFunction,Plated,PTH,ViaDrill
T6C0.0866
; #@! TA.AperFunction,Plated,PTH,ComponentDrill
T7C0.1457
; #@! TA.AperFunction,Plated,PTH,ComponentDrill
T8C0.1575
%
G90
G05
T1
X4.0Y-4.08
X4.0Y-4.22
X4.0Y-4.32
X4.0Y-4.42
X4.0Y-4.52
X4.0Y-4.62
X4.0Y-4.72
X4.0Y-4.82
X4.0Y-4.92
X4.0Y-5.02
X4.0Y-5.12
X4.0Y-5.22
X4.0Y-5.32
X4.0Y-5.42
X4.0Y-5.52
X4.0Y-5.62
X4.0Y-5.72
X4.0Y-5.82
X4.0Y-5.92
X4.0Y-6.02
X4.1Y-1.72
X4.1Y-2.22
X4.1Y-2.32
X4.1Y-2.42
X4.1Y-2.52
X4.1Y-2.62
X4.1Y-2.72
X4.1Y-2.82
X4.1Y-3.62
X4.1Y-3.72
X4.1Y-3.82
X4.1Y-3.92
X4.1Y-4.02
X4.1Y-4.12
X4.1Y-4.32
X4.1Y-4.42
X4.1Y-4.52
X4.1Y-4.62
X4.1Y-4.72
X4.1Y-4.82
X4.1Y-4.92
X4.1Y-5.02
X4.1Y-5.12
X4.1Y-5.22
X4.1Y-5.32
X4.1Y-5.42
X4.1Y-5.52
X4.1Y-5.62
X4.1Y-5.72
X4.1Y-5.82
X4.1Y-5.92
X4.2Y-1.72
X4.2Y-1.82
X4.2Y-1.92
X4.2Y-2.02
X4.2Y-2.22
X4.2Y-2.32
X4.2Y-2.42
X4.2Y-2.52
X4.2Y-2.62
X4.2Y-2.72
X4.2Y-2.92
X4.2Y-3.02
X4.2Y-3.72
X4.2Y-3.82
X4.2Y-3.92
X4.2Y-4.02
X4.2Y-4.12
X4.2Y-5.12
X4.2Y-5.22
X4.2Y-5.32
X4.2Y-5.42
X4.2Y-5.52
X4.2Y-5.62
X4.2Y-5.72
X4.2Y-5.82
X4.2Y-5.92
X4.2Y-6.02
X4.27Y-6.09
X4.27Y-6.29
X4.27Y-6.39
X4.3Y-1.42
X4.3Y-1.52
X4.3Y-1.62
X4.3Y-1.72
X4.3Y-1.82
X4.3Y-1.92
X4.3Y-2.02
X4.3Y-2.22
X4.3Y-2.32
X4.3Y-2.42
X4.3Y-2.52
X4.3Y-2.62
X4.3Y-2.72
X4.3Y-2.92
X4.3Y-3.72
X4.3Y-3.82
X4.3Y-3.92
X4.3Y-4.02
X4.3Y-4.12
X4.3Y-5.62
X4.3Y-5.72
X4.3Y-5.82
X4.3Y-5.92
X4.3Y-6.02
X4.3Y-6.12
X4.3Y-6.32
X4.4Y-1.42
X4.4Y-1.52
X4.4Y-1.62
X4.4Y-2.02
X4.4Y-2.22
X4.4Y-2.32
X4.4Y-2.42
X4.4Y-2.52
X4.4Y-2.62
X4.4Y-2.72
X4.4Y-2.92
X4.4Y-3.02
X4.4Y-3.72
X4.4Y-3.82
X4.4Y-3.92
X4.4Y-4.02
X4.4Y-4.12
X4.4Y-5.62
X4.4Y-5.72
X4.4Y-5.82
X4.4Y-6.02
X4.4Y-6.12
X4.4Y-6.32
X4.5Y-1.62
X4.5Y-1.92
X4.5Y-2.02
X4.5Y-2.22
X4.5Y-2.32
X4.5Y-2.42
X4.5Y-2.52
X4.5Y-2.62
X4.5Y-2.72
X4.5Y-2.92
X4.5Y-3.02
X4.5Y-5.12
X4.5Y-5.22
X4.5Y-5.32
X4.5Y-5.82
X4.5Y-6.02
X4.5Y-6.12
X4.5Y-6.32
X4.5858Y-6.3342
X4.6Y-1.42
X4.6Y-1.52
X4.6Y-1.62
X4.6Y-1.92
X4.6Y-2.02
X4.6Y-2.22
X4.6Y-2.32
X4.6Y-2.42
X4.6Y-2.52
X4.6Y-2.62
X4.6Y-2.72
X4.6Y-2.92
X4.6Y-3.02
X4.6Y-3.22
X4.6Y-3.52
X4.6Y-3.72
X4.6Y-3.82
X4.6Y-3.92
X4.6Y-4.02
X4.6Y-4.12
X4.6Y-5.82
X4.6Y-6.02
X4.6Y-6.12
X4.6092Y-6.2108
X4.7Y-1.42
X4.7Y-1.52
X4.7Y-1.62
X4.7Y-1.92
X4.7Y-2.82
X4.7Y-2.92
X4.7Y-3.02
X4.7Y-3.22
X4.7Y-3.42
X4.7Y-3.52
X4.7Y-3.62
X4.7Y-3.72
X4.7Y-3.82
X4.7Y-3.92
X4.7Y-4.02
X4.7Y-4.12
X4.7Y-4.88
X4.7Y-5.82
X4.7Y-6.02
X4.7Y-6.12
X4.7Y-6.32
X4.7709Y-5.3204
X4.8Y-1.52
X4.8Y-1.62
X4.8Y-1.92
X4.8Y-2.02
X4.8Y-2.12
X4.8Y-2.22
X4.8Y-2.32
X4.8Y-2.42
X4.8Y-2.52
X4.8Y-2.62
X4.8Y-2.72
X4.8Y-2.82
X4.8Y-2.92
X4.8Y-3.02
X4.8Y-3.22
X4.8Y-3.52
X4.8Y-3.62
X4.8Y-3.72
X4.8Y-3.82
X4.8Y-3.92
X4.8Y-4.02
X4.8Y-4.12
X4.8Y-5.12
X4.8Y-5.62
X4.8Y-5.72
X4.8Y-5.82
X4.8Y-5.92
X4.8Y-6.02
X4.8Y-6.12
X4.8Y-6.22
X4.8Y-6.32
X4.9Y-1.62
X4.9Y-1.92
X4.9Y-2.02
X4.9Y-2.22
X4.9Y-2.32
X4.9Y-2.42
X4.9Y-2.52
X4.9Y-2.62
X4.9Y-2.72
X4.9Y-2.82
X4.9Y-3.22
X4.9Y-3.52
X4.9Y-3.62
X4.9Y-3.72
X4.9Y-3.82
X4.9Y-3.92
X4.9Y-4.02
X4.9Y-4.12
X4.9Y-4.72
X4.9Y-5.12
X4.9Y-5.32
X4.9Y-5.72
X4.9Y-5.82
X4.9Y-5.92
X4.9Y-6.02
X4.9Y-6.12
X4.9Y-6.22
X4.92Y-4.55
X4.94Y-3.02
X5.0Y-1.62
X5.0Y-2.72
X5.0Y-2.82
X5.0Y-3.02
X5.0Y-3.32
X5.0Y-3.52
X5.0Y-3.62
X5.0Y-3.72
X5.0Y-3.82
X5.0Y-3.92
X5.0Y-4.02
X5.0Y-4.12
X5.0Y-5.22
X5.0Y-5.72
X5.0Y-5.82
X5.0Y-5.92
X5.0Y-6.02
X5.0Y-6.12
X5.0Y-6.22
X5.1Y-1.42
X5.1Y-1.62
X5.1Y-1.92
X5.1Y-2.02
X5.1Y-2.12
X5.1Y-2.22
X5.1Y-2.32
X5.1Y-2.42
X5.1Y-2.52
X5.1Y-2.62
X5.1Y-2.82
X5.1Y-2.92
X5.1Y-3.02
X5.1Y-3.12
X5.1Y-3.52
X5.1Y-3.92
X5.1Y-4.02
X5.1Y-4.12
X5.1Y-4.52
X5.1Y-4.62
X5.1Y-4.72
X5.1Y-5.12
X5.1Y-5.22
X5.1Y-5.62
X5.1Y-5.72
X5.1Y-5.82
X5.1Y-5.92
X5.1Y-6.02
X5.1Y-6.12
X5.1Y-6.22
X5.1Y-6.32
X5.2Y-1.52
X5.2Y-1.82
X5.2Y-1.92
X5.2Y-2.02
X5.2Y-2.12
X5.2Y-2.22
X5.2Y-2.32
X5.2Y-2.42
X5.2Y-2.52
X5.2Y-2.62
X5.2Y-2.82
X5.2Y-2.92
X5.2Y-3.02
X5.2Y-3.12
X5.2Y-5.12
X5.2Y-5.22
X5.2Y-5.42
X5.2Y-5.52
X5.2Y-5.62
X5.2Y-5.72
X5.2Y-5.82
X5.2Y-5.92
X5.2Y-6.02
X5.2Y-6.12
X5.2Y-6.22
X5.2Y-6.32
X5.3Y-1.42
X5.3Y-1.72
X5.3Y-1.82
X5.3Y-1.92
X5.3Y-2.02
X5.3Y-2.12
X5.3Y-2.22
X5.3Y-2.32
X5.3Y-2.42
X5.3Y-2.52
X5.3Y-2.62
X5.3Y-2.82
X5.3Y-2.92
X5.3Y-3.02
X5.3Y-3.12
X5.3Y-5.72
X5.3Y-5.82
X5.3Y-5.92
X5.3Y-6.02
X5.3Y-6.12
X5.3Y-6.22
X5.3Y-6.32
X5.32Y-4.76
X5.4Y-1.62
X5.4Y-1.72
X5.4Y-1.82
X5.4Y-1.92
X5.4Y-2.02
X5.4Y-2.12
X5.4Y-2.22
X5.4Y-2.32
X5.4Y-2.42
X5.4Y-2.52
X5.4Y-2.62
X5.4Y-2.82
X5.4Y-2.92
X5.4Y-3.02
X5.4Y-3.12
X5.4Y-5.72
X5.4Y-5.82
X5.4Y-5.92
X5.4Y-6.02
X5.4Y-6.12
X5.4Y-6.22
X5.4Y-6.32
X5.5Y-1.62
X5.5Y-1.72
X5.5Y-1.82
X5.5Y-1.92
X5.5Y-2.02
X5.5Y-2.12
X5.5Y-2.22
X5.5Y-2.32
X5.5Y-2.42
X5.5Y-2.52
X5.5Y-2.62
X5.5Y-2.92
X5.5Y-3.02
X5.5Y-3.12
X5.5Y-5.72
X5.5Y-5.82
X5.5Y-5.92
X5.5Y-6.02
X5.5Y-6.12
X5.5Y-6.22
X5.5Y-6.32
X5.542Y-3.635
X5.5683Y-3.8048
X5.6Y-1.42
X5.6Y-1.52
X5.6Y-1.62
X5.6Y-1.72
X5.6Y-1.82
X5.6Y-1.92
X5.6Y-2.02
X5.6Y-2.12
X5.6Y-2.22
X5.6Y-2.32
X5.6Y-2.42
X5.6Y-2.62
X5.6Y-2.92
X5.6Y-5.72
X5.6Y-5.82
X5.6Y-5.92
X5.6Y-6.02
X5.6Y-6.12
X5.6Y-6.22
X5.6Y-6.32
X5.7Y-1.52
X5.7Y-1.62
X5.7Y-1.72
X5.7Y-1.82
X5.7Y-1.92
X5.7Y-2.02
X5.7Y-2.12
X5.7Y-2.22
X5.7Y-2.32
X5.7Y-2.42
X5.7Y-2.62
X5.7Y-2.92
X5.7Y-5.62
X5.7Y-5.72
X5.7Y-5.82
X5.7Y-5.92
X5.7Y-6.02
X5.7Y-6.12
X5.7Y-6.22
X5.7Y-6.32
X5.72Y-3.39
X5.72Y-4.7
X5.7221Y-4.5121
X5.73Y-5.08
X5.73Y-5.18
X5.7483Y-3.9248
X5.7718Y-4.6335
X5.7721Y-5.3135
X5.78Y-2.52
X5.8Y-1.42
X5.8Y-1.62
X5.8Y-1.72
X5.8Y-1.82
X5.8Y-1.92
X5.8Y-2.02
X5.8Y-2.12
X5.8Y-2.22
X5.8Y-2.32
X5.8Y-2.42
X5.8Y-3.22
X5.8Y-4.22
X5.8Y-5.62
X5.8Y-5.72
X5.8Y-5.82
X5.8Y-5.92
X5.8Y-6.02
X5.8Y-6.12
X5.8Y-6.22
X5.8Y-6.32
X5.8083Y-3.8048
X5.82Y-5.23
X5.8383Y-4.5463
X5.9Y-1.52
X5.9Y-1.62
X5.9Y-1.72
X5.9Y-1.82
X5.9Y-1.92
X5.9Y-2.02
X5.9Y-2.12
X5.9Y-2.22
X5.9Y-2.32
X5.9Y-2.42
X5.9Y-2.52
X5.9Y-2.62
X5.9Y-2.92
X5.9Y-3.02
X5.9Y-3.62
X5.9Y-4.22
X5.9Y-6.02
X5.9Y-6.12
X5.9Y-6.22
X5.9Y-6.32
X5.9098Y-3.6863
X5.92Y-4.65
X5.93Y-3.21
X5.9337Y-4.3275
X6.0Y-1.52
X6.0Y-1.62
X6.0Y-1.72
X6.0Y-1.82
X6.0Y-1.92
X6.0Y-2.02
X6.0Y-2.12
X6.0Y-2.22
X6.0Y-2.32
X6.0Y-2.42
X6.0Y-2.52
X6.0Y-2.62
X6.0Y-2.72
X6.0Y-2.82
X6.0Y-2.92
X6.0Y-3.02
X6.0Y-3.12
X6.0Y-3.22
X6.0Y-3.32
X6.0Y-3.52
X6.0Y-3.62
X6.0Y-4.22
X6.0Y-4.32
X6.0Y-5.02
X6.0Y-6.02
X6.0Y-6.12
X6.0Y-6.22
X6.0Y-6.32
X6.1Y-1.52
X6.1Y-1.62
X6.1Y-1.72
X6.1Y-1.82
X6.1Y-1.92
X6.1Y-2.02
X6.1Y-2.12
X6.1Y-2.22
X6.1Y-2.32
X6.1Y-2.42
X6.1Y-2.52
X6.1Y-2.62
X6.1Y-2.72
X6.1Y-2.82
X6.1Y-2.92
X6.1Y-3.02
X6.1Y-3.12
X6.1Y-3.22
X6.1Y-3.32
X6.1Y-5.02
X6.1Y-5.12
X6.1Y-5.22
X6.1Y-5.32
X6.1Y-5.42
X6.1Y-5.52
X6.1Y-5.62
X6.1Y-5.72
X6.1Y-5.82
X6.1Y-5.92
X6.1Y-6.02
X6.1Y-6.12
X6.1Y-6.22
X6.1Y-6.32
X6.2Y-1.52
X6.2Y-1.62
X6.2Y-1.72
X6.2Y-1.82
X6.2Y-1.92
X6.2Y-2.02
X6.2Y-2.12
X6.2Y-2.22
X6.2Y-2.32
X6.2Y-2.42
X6.2Y-2.52
X6.2Y-2.72
X6.2Y-2.82
X6.2Y-2.92
X6.2Y-3.02
X6.2Y-3.12
X6.2Y-3.22
X6.2Y-3.32
X6.2Y-3.62
X6.2Y-3.72
X6.2Y-3.82
X6.2Y-3.92
X6.2Y-4.02
X6.2Y-4.12
X6.2Y-4.22
X6.2Y-4.32
X6.2Y-4.42
X6.2Y-4.52
X6.2Y-4.62
X6.2Y-4.72
X6.2Y-4.82
X6.2Y-4.92
X6.2Y-5.02
X6.2Y-5.12
X6.2Y-5.22
X6.2Y-5.32
X6.2Y-5.42
X6.2Y-5.52
X6.2Y-5.62
X6.2Y-5.72
X6.2Y-5.82
X6.2Y-5.92
X6.2Y-6.02
X6.2Y-6.12
X6.2Y-6.22
X6.2Y-6.32
X6.3Y-1.42
X6.3Y-1.52
X6.3Y-1.62
X6.3Y-1.72
X6.3Y-1.82
X6.3Y-1.92
X6.3Y-2.02
X6.3Y-2.12
X6.3Y-2.22
X6.3Y-2.32
X6.3Y-2.42
X6.3Y-2.52
X6.3Y-2.62
X6.3Y-2.82
X6.3Y-2.92
X6.3Y-3.02
X6.3Y-3.12
X6.3Y-3.22
X6.3Y-3.32
X6.3Y-3.62
X6.3Y-3.72
X6.3Y-3.82
X6.3Y-3.92
X6.3Y-4.02
X6.3Y-4.12
X6.3Y-4.22
X6.3Y-4.32
X6.3Y-4.42
X6.3Y-4.52
X6.3Y-4.62
X6.3Y-4.72
X6.3Y-4.82
X6.3Y-4.92
X6.3Y-5.02
X6.3Y-5.12
X6.3Y-5.22
X6.3Y-5.32
X6.3Y-5.42
X6.3Y-5.52
X6.3Y-5.62
X6.3Y-5.72
X6.3Y-5.82
X6.3Y-5.92
X6.3Y-6.02
X6.3Y-6.12
X6.3Y-6.22
X6.3Y-6.32
X6.4Y-2.92
X6.4Y-3.02
X6.4Y-3.12
X6.4Y-3.22
X6.4Y-3.42
X6.4Y-3.82
X6.4Y-3.92
X6.4Y-4.02
X6.4Y-4.12
X6.4Y-4.22
X6.4Y-4.52
X6.4Y-4.62
X6.4Y-4.72
X6.4Y-4.82
X6.4Y-4.92
X6.4Y-5.02
X6.4Y-5.32
X6.4Y-5.42
X6.4Y-5.52
X6.4Y-5.62
X6.4Y-5.72
X6.4Y-6.02
X6.5Y-2.82
X6.5Y-3.42
X6.5Y-3.92
X6.5Y-4.02
X6.5Y-4.12
X6.5Y-4.22
X6.5Y-4.62
X6.5Y-4.72
X6.5Y-4.82
X6.5Y-4.92
X6.5Y-5.02
X6.5Y-5.42
X6.5Y-5.52
X6.5Y-5.62
X6.5Y-5.72
X6.6Y-2.82
X6.6Y-2.92
X6.6Y-3.52
X6.6Y-3.82
X6.6Y-3.92
X6.6Y-4.02
X6.6Y-4.12
X6.6Y-4.22
X6.6Y-4.52
X6.6Y-4.62
X6.6Y-4.72
X6.6Y-4.82
X6.6Y-4.92
X6.6Y-5.02
X6.6Y-5.32
X6.6Y-5.42
X6.6Y-5.52
X6.6Y-5.62
X6.6Y-5.72
X6.6Y-6.02
T2
X4.22Y-2.12
X5.4Y-4.32
X5.42Y-4.98
T3
X4.54Y-1.4213
X4.54Y-1.5
X5.4606Y-1.4171
X5.4606Y-1.4959
T4
X6.5Y-2.9631
X6.5Y-3.0616
X6.5Y-3.16
X6.5Y-3.2584
X6.5Y-3.3569
T5
X4.64Y-6.1331
X4.64Y-6.33
T6
X4.0748Y-1.4764
X4.0748Y-6.2795
X6.5157Y-1.4764
X6.5157Y-6.2795
T7
X4.9898Y-1.418
X4.9898Y-6.3291
T8
X6.5Y-3.7057
X6.5Y-4.4143
X6.5Y-5.1913
X6.5Y-5.9
M30
