%TF.GenerationSoftware,KiCad,Pcbnew,8.0.6*%
%TF.CreationDate,2025-01-14T17:23:09-07:00*%
%TF.ProjectId,MPPT,4d505054-2e6b-4696-9361-645f70636258,rev?*%
%TF.SameCoordinates,Original*%
%TF.FileFunction,Copper,L2,Bot*%
%TF.FilePolarity,Positive*%
%FSLAX46Y46*%
G04 Gerber Fmt 4.6, Leading zero omitted, Abs format (unit mm)*
G04 Created by KiCad (PCBNEW 8.0.6) date 2025-01-14 17:23:09*
%MOMM*%
%LPD*%
G01*
G04 APERTURE LIST*
%TA.AperFunction,ComponentPad*%
%ADD10C,1.650000*%
%TD*%
%TA.AperFunction,SMDPad,CuDef*%
%ADD11R,1.041400X0.330200*%
%TD*%
%TA.AperFunction,SMDPad,CuDef*%
%ADD12R,1.219200X0.812800*%
%TD*%
%TA.AperFunction,SMDPad,CuDef*%
%ADD13R,1.219200X2.870200*%
%TD*%
%TA.AperFunction,SMDPad,CuDef*%
%ADD14R,1.219200X3.962400*%
%TD*%
%TA.AperFunction,SMDPad,CuDef*%
%ADD15R,1.213000X0.962000*%
%TD*%
%TA.AperFunction,SMDPad,CuDef*%
%ADD16R,0.625000X1.038000*%
%TD*%
%TA.AperFunction,Conductor*%
%ADD17C,0.200000*%
%TD*%
G04 APERTURE END LIST*
D10*
%TO.P,J1,1*%
%TO.N,/PV-*%
X137160000Y-93980000D03*
%TO.P,J1,2*%
X137160000Y-96520000D03*
%TO.P,J1,3*%
X137160000Y-99060000D03*
%TO.P,J1,4*%
X137160000Y-101600000D03*
%TO.P,J1,5*%
%TO.N,/VBST*%
X137160000Y-104140000D03*
%TD*%
%TO.P,J2,1*%
%TO.N,/VCC*%
X149860000Y-93980000D03*
%TO.P,J2,2*%
%TO.N,/PV-*%
X149860000Y-96520000D03*
%TO.P,J2,3*%
X149860000Y-99060000D03*
%TO.P,J2,4*%
%TO.N,/PV+*%
X149860000Y-101600000D03*
%TO.P,J2,5*%
%TO.N,/OUT*%
X149860000Y-104140000D03*
%TD*%
D11*
%TO.P,U1,1,VCC*%
%TO.N,/VCC*%
X144759881Y-98033104D03*
%TO.P,U1,2,PV-*%
%TO.N,/PV-*%
X144759881Y-98633103D03*
D12*
%TO.P,U1,3,PV-*%
X144669882Y-99491712D03*
D13*
%TO.P,U1,4,PV+*%
%TO.N,/PV+*%
X144669891Y-101600000D03*
D14*
%TO.P,U1,5,OUT*%
%TO.N,/OUT*%
X142240000Y-101053595D03*
D11*
%TO.P,U1,6,VBST*%
%TO.N,/VBST*%
X142149882Y-98633103D03*
%TO.P,U1,7,PV-*%
%TO.N,/PV-*%
X142149882Y-98033104D03*
D15*
%TO.P,U1,8,PV-*%
X142236382Y-97100212D03*
D16*
%TO.P,U1,9,PV-*%
X143454882Y-97154111D03*
D15*
%TO.P,U1,10,PV-*%
X144673382Y-97100212D03*
%TD*%
D17*
%TO.N,/VBST*%
X138285000Y-103015000D02*
X137160000Y-104140000D01*
X141330400Y-101239600D02*
X139555000Y-103015000D01*
X141330400Y-98772395D02*
X141330400Y-101239600D01*
X142149882Y-98633103D02*
X141469692Y-98633103D01*
X141469692Y-98633103D02*
X141330400Y-98772395D01*
X139555000Y-103015000D02*
X138285000Y-103015000D01*
%TO.N,/VCC*%
X144759881Y-98033104D02*
X145806896Y-98033104D01*
X145806896Y-98033104D02*
X149860000Y-93980000D01*
%TD*%
%TA.AperFunction,Conductor*%
%TO.N,/OUT*%
G36*
X142433039Y-100823280D02*
G01*
X142478794Y-100876084D01*
X142490000Y-100927595D01*
X142490000Y-103534795D01*
X142897428Y-103534795D01*
X142897444Y-103534794D01*
X142956972Y-103528393D01*
X142956979Y-103528391D01*
X143091686Y-103478149D01*
X143091693Y-103478145D01*
X143206787Y-103391985D01*
X143206790Y-103391982D01*
X143292950Y-103276888D01*
X143292954Y-103276881D01*
X143338440Y-103154928D01*
X143380311Y-103098994D01*
X143445775Y-103074577D01*
X143514048Y-103089429D01*
X143563454Y-103138834D01*
X143570804Y-103154928D01*
X143616493Y-103277428D01*
X143616497Y-103277435D01*
X143702743Y-103392644D01*
X143702746Y-103392647D01*
X143817955Y-103478893D01*
X143817962Y-103478897D01*
X143952808Y-103529191D01*
X143952807Y-103529191D01*
X143959735Y-103529935D01*
X144012418Y-103535600D01*
X145327363Y-103535599D01*
X145386974Y-103529191D01*
X145440902Y-103509076D01*
X145510593Y-103504092D01*
X145554775Y-103526210D01*
X145555698Y-103524774D01*
X145563152Y-103529564D01*
X145563155Y-103529567D01*
X145563158Y-103529568D01*
X145563159Y-103529569D01*
X145661710Y-103574577D01*
X145694032Y-103589338D01*
X145761071Y-103609023D01*
X145761075Y-103609024D01*
X145903491Y-103629500D01*
X145903494Y-103629500D01*
X148463447Y-103629500D01*
X148530486Y-103649185D01*
X148576241Y-103701989D01*
X148586185Y-103771147D01*
X148583222Y-103785593D01*
X148550147Y-103909031D01*
X148550145Y-103909041D01*
X148529939Y-104139999D01*
X148529939Y-104140000D01*
X148550145Y-104370958D01*
X148550147Y-104370968D01*
X148610148Y-104594900D01*
X148610152Y-104594909D01*
X148708133Y-104805030D01*
X148763023Y-104883422D01*
X149336212Y-104310233D01*
X149347482Y-104352292D01*
X149419890Y-104477708D01*
X149522292Y-104580110D01*
X149647708Y-104652518D01*
X149689765Y-104663787D01*
X149116576Y-105236975D01*
X149119920Y-105275193D01*
X149106153Y-105343693D01*
X149057538Y-105393876D01*
X148996392Y-105410000D01*
X144052345Y-105410000D01*
X143988549Y-105392329D01*
X141538202Y-103922121D01*
X141490844Y-103870750D01*
X141478000Y-103815792D01*
X141478000Y-103658795D01*
X141497685Y-103591756D01*
X141550489Y-103546001D01*
X141602000Y-103534795D01*
X141990000Y-103534795D01*
X141990000Y-100927595D01*
X142009685Y-100860556D01*
X142062489Y-100814801D01*
X142114000Y-100803595D01*
X142366000Y-100803595D01*
X142433039Y-100823280D01*
G37*
%TD.AperFunction*%
%TA.AperFunction,Conductor*%
G36*
X150959596Y-104886042D02*
G01*
X151018216Y-104897824D01*
X151068399Y-104946440D01*
X151083765Y-104993891D01*
X151114700Y-105272306D01*
X151102539Y-105341110D01*
X151055110Y-105392416D01*
X150991458Y-105410000D01*
X150723607Y-105410000D01*
X150656568Y-105390315D01*
X150610813Y-105337511D01*
X150600079Y-105275194D01*
X150603422Y-105236976D01*
X150030234Y-104663787D01*
X150072292Y-104652518D01*
X150197708Y-104580110D01*
X150300110Y-104477708D01*
X150372518Y-104352292D01*
X150383787Y-104310233D01*
X150959596Y-104886042D01*
G37*
%TD.AperFunction*%
%TD*%
%TA.AperFunction,Conductor*%
%TO.N,/PV+*%
G36*
X149028003Y-100095685D02*
G01*
X149032065Y-100098409D01*
X149194718Y-100212301D01*
X149206710Y-100217893D01*
X149259149Y-100264062D01*
X149278303Y-100331255D01*
X149258089Y-100398137D01*
X149206717Y-100442655D01*
X149194966Y-100448134D01*
X149116576Y-100503022D01*
X149689766Y-101076212D01*
X149647708Y-101087482D01*
X149522292Y-101159890D01*
X149419890Y-101262292D01*
X149347482Y-101387708D01*
X149336212Y-101429766D01*
X148763022Y-100856576D01*
X148708134Y-100934967D01*
X148610152Y-101145090D01*
X148610148Y-101145099D01*
X148550147Y-101369031D01*
X148550145Y-101369041D01*
X148529939Y-101599999D01*
X148529939Y-101600000D01*
X148550145Y-101830958D01*
X148550147Y-101830968D01*
X148610148Y-102054900D01*
X148610152Y-102054909D01*
X148708133Y-102265030D01*
X148763023Y-102343422D01*
X149336212Y-101770233D01*
X149347482Y-101812292D01*
X149419890Y-101937708D01*
X149522292Y-102040110D01*
X149647708Y-102112518D01*
X149689765Y-102123787D01*
X149116576Y-102696975D01*
X149194966Y-102751864D01*
X149206709Y-102757340D01*
X149259149Y-102803511D01*
X149278303Y-102870704D01*
X149258089Y-102937586D01*
X149206716Y-102982104D01*
X149194722Y-102987697D01*
X149194720Y-102987698D01*
X149194719Y-102987699D01*
X149032086Y-103101575D01*
X148965881Y-103123902D01*
X148960964Y-103124000D01*
X145903491Y-103124000D01*
X145836452Y-103104315D01*
X145790697Y-103051511D01*
X145779491Y-103000000D01*
X145779491Y-101850000D01*
X144543891Y-101850000D01*
X144476852Y-101830315D01*
X144431097Y-101777511D01*
X144419891Y-101726000D01*
X144419891Y-101474000D01*
X144439576Y-101406961D01*
X144492380Y-101361206D01*
X144543891Y-101350000D01*
X145779491Y-101350000D01*
X145779491Y-100200000D01*
X145799176Y-100132961D01*
X145851980Y-100087206D01*
X145903491Y-100076000D01*
X148960964Y-100076000D01*
X149028003Y-100095685D01*
G37*
%TD.AperFunction*%
%TA.AperFunction,Conductor*%
G36*
X150956975Y-102343421D02*
G01*
X150995193Y-102340078D01*
X151063693Y-102353845D01*
X151113876Y-102402460D01*
X151130000Y-102463606D01*
X151130000Y-103000000D01*
X151110315Y-103067039D01*
X151057511Y-103112794D01*
X151006000Y-103124000D01*
X150759036Y-103124000D01*
X150691997Y-103104315D01*
X150687934Y-103101590D01*
X150525282Y-102987699D01*
X150513286Y-102982105D01*
X150460848Y-102935932D01*
X150441697Y-102868738D01*
X150461914Y-102801857D01*
X150513294Y-102757339D01*
X150525034Y-102751864D01*
X150603422Y-102696976D01*
X150603422Y-102696975D01*
X150030235Y-102123787D01*
X150072292Y-102112518D01*
X150197708Y-102040110D01*
X150300110Y-101937708D01*
X150372518Y-101812292D01*
X150383787Y-101770234D01*
X150956975Y-102343421D01*
G37*
%TD.AperFunction*%
%TA.AperFunction,Conductor*%
G36*
X151073039Y-100095685D02*
G01*
X151118794Y-100148489D01*
X151130000Y-100200000D01*
X151130000Y-100736392D01*
X151110315Y-100803431D01*
X151057511Y-100849186D01*
X150995193Y-100859920D01*
X150956975Y-100856576D01*
X150383787Y-101429764D01*
X150372518Y-101387708D01*
X150300110Y-101262292D01*
X150197708Y-101159890D01*
X150072292Y-101087482D01*
X150030234Y-101076212D01*
X150603422Y-100503023D01*
X150525029Y-100448132D01*
X150513286Y-100442656D01*
X150460848Y-100396482D01*
X150441697Y-100329289D01*
X150461914Y-100262408D01*
X150513289Y-100217893D01*
X150525282Y-100212301D01*
X150687913Y-100098424D01*
X150754118Y-100076098D01*
X150759036Y-100076000D01*
X151006000Y-100076000D01*
X151073039Y-100095685D01*
G37*
%TD.AperFunction*%
%TD*%
%TA.AperFunction,Conductor*%
%TO.N,/PV-*%
G36*
X136647482Y-101812292D02*
G01*
X136719890Y-101937708D01*
X136822292Y-102040110D01*
X136947708Y-102112518D01*
X136989765Y-102123787D01*
X136416576Y-102696975D01*
X136494966Y-102751864D01*
X136506709Y-102757340D01*
X136559149Y-102803511D01*
X136578303Y-102870704D01*
X136558089Y-102937586D01*
X136506716Y-102982104D01*
X136494722Y-102987697D01*
X136494714Y-102987701D01*
X136304735Y-103120726D01*
X136304729Y-103120731D01*
X136140731Y-103284729D01*
X136140724Y-103284738D01*
X136108074Y-103331367D01*
X136053497Y-103374992D01*
X135983999Y-103382184D01*
X135921644Y-103350662D01*
X135886231Y-103290432D01*
X135882500Y-103260243D01*
X135882500Y-102462950D01*
X135902185Y-102395911D01*
X135954989Y-102350156D01*
X136017308Y-102339422D01*
X136063024Y-102343422D01*
X136636212Y-101770233D01*
X136647482Y-101812292D01*
G37*
%TD.AperFunction*%
%TA.AperFunction,Conductor*%
G36*
X149047283Y-92722185D02*
G01*
X149093038Y-92774989D01*
X149102982Y-92844147D01*
X149073957Y-92907703D01*
X149051367Y-92928075D01*
X149004735Y-92960726D01*
X149004729Y-92960731D01*
X148840731Y-93124729D01*
X148840726Y-93124735D01*
X148707701Y-93314714D01*
X148707699Y-93314718D01*
X148609681Y-93524917D01*
X148549651Y-93748948D01*
X148549650Y-93748955D01*
X148529437Y-93979998D01*
X148529437Y-93980001D01*
X148549650Y-94211044D01*
X148549652Y-94211055D01*
X148579739Y-94323343D01*
X148578076Y-94393193D01*
X148547645Y-94443117D01*
X145991563Y-96999200D01*
X145930240Y-97032685D01*
X145860548Y-97027701D01*
X145804615Y-96985829D01*
X145780198Y-96920365D01*
X145779882Y-96911519D01*
X145779882Y-96571384D01*
X145779881Y-96571363D01*
X145773480Y-96511839D01*
X145773478Y-96511832D01*
X145723236Y-96377125D01*
X145723232Y-96377118D01*
X145637072Y-96262024D01*
X145637069Y-96262021D01*
X145521975Y-96175861D01*
X145521968Y-96175857D01*
X145387261Y-96125615D01*
X145387254Y-96125613D01*
X145327726Y-96119212D01*
X144923382Y-96119212D01*
X144923382Y-97243504D01*
X144903697Y-97310543D01*
X144850893Y-97356298D01*
X144799382Y-97367504D01*
X144492036Y-97367504D01*
X144433147Y-97350212D01*
X144294564Y-97350212D01*
X144268082Y-97364671D01*
X144241729Y-97367504D01*
X144191311Y-97367504D01*
X144191304Y-97367505D01*
X144131697Y-97373912D01*
X144071694Y-97396293D01*
X144028361Y-97404111D01*
X143704882Y-97404111D01*
X143704882Y-98174649D01*
X143736516Y-98232583D01*
X143738640Y-98245687D01*
X143745919Y-98313399D01*
X143745091Y-98313487D01*
X143745092Y-98352774D01*
X143746412Y-98352916D01*
X143739181Y-98420158D01*
X143739181Y-98468003D01*
X143753878Y-98468003D01*
X143820917Y-98487688D01*
X143853144Y-98517691D01*
X143880356Y-98554042D01*
X143886913Y-98562800D01*
X143911330Y-98628264D01*
X143896479Y-98696537D01*
X143847074Y-98745943D01*
X143778801Y-98760795D01*
X143748487Y-98754765D01*
X143696181Y-98737355D01*
X143616928Y-98843223D01*
X143573798Y-98958861D01*
X143531926Y-99014794D01*
X143466462Y-99039211D01*
X143398189Y-99024359D01*
X143348784Y-98974954D01*
X143341434Y-98958860D01*
X143293397Y-98830066D01*
X143293396Y-98830065D01*
X143293396Y-98830064D01*
X143207146Y-98714849D01*
X143201831Y-98707749D01*
X143202934Y-98706923D01*
X143173915Y-98653779D01*
X143171081Y-98627421D01*
X143171081Y-98420132D01*
X143171080Y-98420126D01*
X143169312Y-98403680D01*
X143164673Y-98360520D01*
X143163844Y-98352806D01*
X143164675Y-98352716D01*
X143164675Y-98313435D01*
X143163351Y-98313293D01*
X143170559Y-98246251D01*
X143197297Y-98181700D01*
X143204882Y-98173255D01*
X143204882Y-97404111D01*
X142704643Y-97404111D01*
X142637604Y-97384426D01*
X142616962Y-97367792D01*
X142599382Y-97350212D01*
X142486382Y-97350212D01*
X142486382Y-97843503D01*
X142466697Y-97910542D01*
X142413893Y-97956297D01*
X142362382Y-97967503D01*
X142108782Y-97967503D01*
X142041743Y-97947818D01*
X141995988Y-97895014D01*
X141984782Y-97843503D01*
X141984782Y-97350212D01*
X141129882Y-97350212D01*
X141129882Y-97629056D01*
X141136283Y-97688588D01*
X141137785Y-97694943D01*
X141134697Y-97752446D01*
X141137368Y-97753077D01*
X141135583Y-97760628D01*
X141129182Y-97820159D01*
X141129182Y-97868004D01*
X141131108Y-97868004D01*
X141198147Y-97887689D01*
X141243902Y-97940493D01*
X141253846Y-98009651D01*
X141224821Y-98073207D01*
X141193108Y-98099390D01*
X141173941Y-98110457D01*
X141100977Y-98152582D01*
X141100974Y-98152584D01*
X140849881Y-98403677D01*
X140849879Y-98403680D01*
X140799761Y-98490489D01*
X140799759Y-98490491D01*
X140770825Y-98540604D01*
X140770824Y-98540605D01*
X140767224Y-98554042D01*
X140729899Y-98693338D01*
X140729899Y-98693340D01*
X140729899Y-98861441D01*
X140729900Y-98861454D01*
X140729900Y-100939502D01*
X140710215Y-101006541D01*
X140693581Y-101027183D01*
X139342584Y-102378181D01*
X139281261Y-102411666D01*
X139254903Y-102414500D01*
X138436809Y-102414500D01*
X138369770Y-102394815D01*
X138324015Y-102342011D01*
X138314071Y-102272853D01*
X138324427Y-102238095D01*
X138409847Y-102054909D01*
X138409851Y-102054900D01*
X138469852Y-101830968D01*
X138469854Y-101830958D01*
X138490061Y-101600000D01*
X138490061Y-101599999D01*
X138469854Y-101369041D01*
X138469852Y-101369031D01*
X138409851Y-101145099D01*
X138409847Y-101145090D01*
X138311867Y-100934971D01*
X138311866Y-100934969D01*
X138256975Y-100856577D01*
X138256975Y-100856576D01*
X137683787Y-101429764D01*
X137672518Y-101387708D01*
X137600110Y-101262292D01*
X137497708Y-101159890D01*
X137372292Y-101087482D01*
X137330234Y-101076212D01*
X137903422Y-100503023D01*
X137825032Y-100448134D01*
X137812698Y-100442383D01*
X137760258Y-100396211D01*
X137741106Y-100329017D01*
X137761321Y-100262136D01*
X137812701Y-100217616D01*
X137825033Y-100211865D01*
X137825034Y-100211865D01*
X137903422Y-100156976D01*
X137903422Y-100156975D01*
X137330235Y-99583787D01*
X137372292Y-99572518D01*
X137497708Y-99500110D01*
X137600110Y-99397708D01*
X137672518Y-99272292D01*
X137683787Y-99230234D01*
X138256975Y-99803422D01*
X138256976Y-99803422D01*
X138311865Y-99725034D01*
X138311867Y-99725030D01*
X138409847Y-99514909D01*
X138409851Y-99514900D01*
X138469852Y-99290968D01*
X138469854Y-99290958D01*
X138490061Y-99060000D01*
X138490061Y-99059999D01*
X138469854Y-98829041D01*
X138469852Y-98829031D01*
X138409851Y-98605099D01*
X138409847Y-98605090D01*
X138311867Y-98394971D01*
X138311866Y-98394969D01*
X138256975Y-98316577D01*
X138256975Y-98316576D01*
X137683787Y-98889764D01*
X137672518Y-98847708D01*
X137600110Y-98722292D01*
X137497708Y-98619890D01*
X137372292Y-98547482D01*
X137330234Y-98536212D01*
X137903422Y-97963023D01*
X137825032Y-97908134D01*
X137812698Y-97902383D01*
X137760258Y-97856211D01*
X137741106Y-97789017D01*
X137761321Y-97722136D01*
X137812701Y-97677616D01*
X137825033Y-97671865D01*
X137825034Y-97671865D01*
X137903422Y-97616976D01*
X137903422Y-97616975D01*
X137330235Y-97043787D01*
X137372292Y-97032518D01*
X137497708Y-96960110D01*
X137600110Y-96857708D01*
X137672518Y-96732292D01*
X137683787Y-96690234D01*
X138256975Y-97263422D01*
X138256976Y-97263422D01*
X138311865Y-97185034D01*
X138311867Y-97185030D01*
X138409847Y-96974909D01*
X138409851Y-96974900D01*
X138469852Y-96750968D01*
X138469854Y-96750958D01*
X138485565Y-96571384D01*
X141129882Y-96571384D01*
X141129882Y-96850212D01*
X141986382Y-96850212D01*
X142486382Y-96850212D01*
X143204882Y-96850212D01*
X143204882Y-96135111D01*
X143704882Y-96135111D01*
X143704882Y-96850212D01*
X144423382Y-96850212D01*
X144423382Y-96119212D01*
X144019037Y-96119212D01*
X143959509Y-96125613D01*
X143959502Y-96125615D01*
X143934905Y-96134789D01*
X143878319Y-96141896D01*
X143815210Y-96135111D01*
X143704882Y-96135111D01*
X143204882Y-96135111D01*
X143094554Y-96135111D01*
X143031445Y-96141896D01*
X142974858Y-96134788D01*
X142950263Y-96125615D01*
X142950259Y-96125614D01*
X142890726Y-96119212D01*
X142486382Y-96119212D01*
X142486382Y-96850212D01*
X141986382Y-96850212D01*
X141986382Y-96119212D01*
X141582037Y-96119212D01*
X141522509Y-96125613D01*
X141522502Y-96125615D01*
X141387795Y-96175857D01*
X141387788Y-96175861D01*
X141272694Y-96262021D01*
X141272691Y-96262024D01*
X141186531Y-96377118D01*
X141186527Y-96377125D01*
X141136285Y-96511832D01*
X141136283Y-96511839D01*
X141129883Y-96571363D01*
X141129882Y-96571384D01*
X138485565Y-96571384D01*
X138490061Y-96520000D01*
X138490061Y-96519999D01*
X138469854Y-96289041D01*
X138469852Y-96289031D01*
X138409851Y-96065099D01*
X138409847Y-96065090D01*
X138311867Y-95854971D01*
X138311866Y-95854969D01*
X138256975Y-95776577D01*
X138256975Y-95776576D01*
X137683787Y-96349764D01*
X137672518Y-96307708D01*
X137600110Y-96182292D01*
X137497708Y-96079890D01*
X137372292Y-96007482D01*
X137330234Y-95996212D01*
X137903422Y-95423023D01*
X137825032Y-95368134D01*
X137812698Y-95362383D01*
X137760258Y-95316211D01*
X137741106Y-95249017D01*
X137761321Y-95182136D01*
X137812701Y-95137616D01*
X137825033Y-95131865D01*
X137825034Y-95131865D01*
X137903422Y-95076976D01*
X137903422Y-95076975D01*
X137330235Y-94503787D01*
X137372292Y-94492518D01*
X137497708Y-94420110D01*
X137600110Y-94317708D01*
X137672518Y-94192292D01*
X137683787Y-94150234D01*
X138256975Y-94723422D01*
X138256976Y-94723422D01*
X138311865Y-94645034D01*
X138311867Y-94645030D01*
X138409847Y-94434909D01*
X138409851Y-94434900D01*
X138469852Y-94210968D01*
X138469854Y-94210958D01*
X138490061Y-93980000D01*
X138490061Y-93979999D01*
X138469854Y-93749041D01*
X138469852Y-93749031D01*
X138409851Y-93525099D01*
X138409847Y-93525090D01*
X138311867Y-93314971D01*
X138311866Y-93314969D01*
X138256975Y-93236577D01*
X138256975Y-93236576D01*
X137683787Y-93809764D01*
X137672518Y-93767708D01*
X137600110Y-93642292D01*
X137497708Y-93539890D01*
X137372292Y-93467482D01*
X137330234Y-93456212D01*
X137903422Y-92883023D01*
X137899423Y-92837307D01*
X137913190Y-92768807D01*
X137961805Y-92718624D01*
X138022951Y-92702500D01*
X148980244Y-92702500D01*
X149047283Y-92722185D01*
G37*
%TD.AperFunction*%
%TA.AperFunction,Conductor*%
G36*
X136647482Y-99272292D02*
G01*
X136719890Y-99397708D01*
X136822292Y-99500110D01*
X136947708Y-99572518D01*
X136989765Y-99583787D01*
X136416576Y-100156975D01*
X136494967Y-100211865D01*
X136507302Y-100217617D01*
X136559742Y-100263789D01*
X136578894Y-100330983D01*
X136558679Y-100397864D01*
X136507304Y-100442381D01*
X136494970Y-100448132D01*
X136494969Y-100448133D01*
X136416576Y-100503022D01*
X136989766Y-101076212D01*
X136947708Y-101087482D01*
X136822292Y-101159890D01*
X136719890Y-101262292D01*
X136647482Y-101387708D01*
X136636212Y-101429766D01*
X136063022Y-100856576D01*
X136017307Y-100860576D01*
X135948807Y-100846809D01*
X135898624Y-100798194D01*
X135882500Y-100737048D01*
X135882500Y-99922950D01*
X135902185Y-99855911D01*
X135954989Y-99810156D01*
X136017308Y-99799422D01*
X136063024Y-99803422D01*
X136636212Y-99230233D01*
X136647482Y-99272292D01*
G37*
%TD.AperFunction*%
%TA.AperFunction,Conductor*%
G36*
X148454635Y-96337111D02*
G01*
X148510568Y-96378983D01*
X148534985Y-96444447D01*
X148534829Y-96464099D01*
X148529939Y-96519996D01*
X148529939Y-96520000D01*
X148550145Y-96750958D01*
X148550147Y-96750968D01*
X148610148Y-96974900D01*
X148610152Y-96974909D01*
X148708133Y-97185030D01*
X148763023Y-97263422D01*
X149336212Y-96690233D01*
X149347482Y-96732292D01*
X149419890Y-96857708D01*
X149522292Y-96960110D01*
X149647708Y-97032518D01*
X149689765Y-97043787D01*
X149116576Y-97616975D01*
X149194967Y-97671865D01*
X149207302Y-97677617D01*
X149259742Y-97723789D01*
X149278894Y-97790983D01*
X149258679Y-97857864D01*
X149207304Y-97902381D01*
X149194970Y-97908132D01*
X149194969Y-97908133D01*
X149116576Y-97963022D01*
X149689766Y-98536212D01*
X149647708Y-98547482D01*
X149522292Y-98619890D01*
X149419890Y-98722292D01*
X149347482Y-98847708D01*
X149336212Y-98889766D01*
X148763022Y-98316576D01*
X148708134Y-98394967D01*
X148610152Y-98605090D01*
X148610148Y-98605099D01*
X148550147Y-98829031D01*
X148550145Y-98829041D01*
X148529939Y-99059999D01*
X148529939Y-99060000D01*
X148550145Y-99290958D01*
X148550147Y-99290968D01*
X148583222Y-99414407D01*
X148581559Y-99484257D01*
X148542396Y-99542119D01*
X148478167Y-99569623D01*
X148463447Y-99570500D01*
X145903491Y-99570500D01*
X145903482Y-99570500D01*
X145903481Y-99570501D01*
X145796040Y-99582052D01*
X145796028Y-99582054D01*
X145744518Y-99593260D01*
X145641993Y-99627383D01*
X145641989Y-99627385D01*
X145557800Y-99681490D01*
X145490760Y-99701174D01*
X145447429Y-99693356D01*
X145386976Y-99670809D01*
X145386974Y-99670808D01*
X145327374Y-99664401D01*
X145327372Y-99664400D01*
X145327364Y-99664400D01*
X145327356Y-99664400D01*
X144543882Y-99664400D01*
X144476843Y-99644715D01*
X144431088Y-99591911D01*
X144419882Y-99540400D01*
X144419882Y-98822703D01*
X144439567Y-98755664D01*
X144492371Y-98709909D01*
X144543878Y-98698703D01*
X144800982Y-98698703D01*
X144868020Y-98718388D01*
X144913775Y-98771192D01*
X144924981Y-98822703D01*
X144924981Y-99241712D01*
X145779482Y-99241712D01*
X145779482Y-99037484D01*
X145779481Y-99037467D01*
X145773081Y-98977944D01*
X145771691Y-98972064D01*
X145774814Y-98913703D01*
X145772394Y-98913132D01*
X145774179Y-98905575D01*
X145780580Y-98846047D01*
X145780581Y-98846030D01*
X145780581Y-98756222D01*
X145800266Y-98689183D01*
X145853070Y-98643428D01*
X145878234Y-98636201D01*
X145878102Y-98635708D01*
X145885950Y-98633605D01*
X145885953Y-98633605D01*
X146038681Y-98592681D01*
X146105600Y-98554045D01*
X146175612Y-98513624D01*
X146287416Y-98401820D01*
X146287416Y-98401818D01*
X146297620Y-98391615D01*
X146297623Y-98391610D01*
X148323625Y-96365608D01*
X148384943Y-96332127D01*
X148454635Y-96337111D01*
G37*
%TD.AperFunction*%
%TA.AperFunction,Conductor*%
G36*
X136647482Y-96732292D02*
G01*
X136719890Y-96857708D01*
X136822292Y-96960110D01*
X136947708Y-97032518D01*
X136989765Y-97043787D01*
X136416576Y-97616975D01*
X136494967Y-97671865D01*
X136507302Y-97677617D01*
X136559742Y-97723789D01*
X136578894Y-97790983D01*
X136558679Y-97857864D01*
X136507304Y-97902381D01*
X136494970Y-97908132D01*
X136494969Y-97908133D01*
X136416576Y-97963022D01*
X136989766Y-98536212D01*
X136947708Y-98547482D01*
X136822292Y-98619890D01*
X136719890Y-98722292D01*
X136647482Y-98847708D01*
X136636212Y-98889766D01*
X136063022Y-98316576D01*
X136017307Y-98320576D01*
X135948807Y-98306809D01*
X135898624Y-98258194D01*
X135882500Y-98197048D01*
X135882500Y-97382950D01*
X135902185Y-97315911D01*
X135954989Y-97270156D01*
X136017308Y-97259422D01*
X136063024Y-97263422D01*
X136636212Y-96690233D01*
X136647482Y-96732292D01*
G37*
%TD.AperFunction*%
%TA.AperFunction,Conductor*%
G36*
X150956975Y-97263421D02*
G01*
X151002693Y-97259422D01*
X151071193Y-97273189D01*
X151121376Y-97321804D01*
X151137500Y-97382950D01*
X151137500Y-98197049D01*
X151117815Y-98264088D01*
X151065011Y-98309843D01*
X151002692Y-98320577D01*
X150956975Y-98316576D01*
X150383787Y-98889764D01*
X150372518Y-98847708D01*
X150300110Y-98722292D01*
X150197708Y-98619890D01*
X150072292Y-98547482D01*
X150030234Y-98536212D01*
X150603422Y-97963023D01*
X150525032Y-97908134D01*
X150512698Y-97902383D01*
X150460258Y-97856211D01*
X150441106Y-97789017D01*
X150461321Y-97722136D01*
X150512701Y-97677616D01*
X150525033Y-97671865D01*
X150525034Y-97671865D01*
X150603422Y-97616976D01*
X150603422Y-97616975D01*
X150030235Y-97043787D01*
X150072292Y-97032518D01*
X150197708Y-96960110D01*
X150300110Y-96857708D01*
X150372518Y-96732292D01*
X150383787Y-96690234D01*
X150956975Y-97263421D01*
G37*
%TD.AperFunction*%
%TA.AperFunction,Conductor*%
G36*
X136647482Y-94192292D02*
G01*
X136719890Y-94317708D01*
X136822292Y-94420110D01*
X136947708Y-94492518D01*
X136989765Y-94503787D01*
X136416576Y-95076975D01*
X136494967Y-95131865D01*
X136507302Y-95137617D01*
X136559742Y-95183789D01*
X136578894Y-95250983D01*
X136558679Y-95317864D01*
X136507304Y-95362381D01*
X136494970Y-95368132D01*
X136494969Y-95368133D01*
X136416576Y-95423022D01*
X136989766Y-95996212D01*
X136947708Y-96007482D01*
X136822292Y-96079890D01*
X136719890Y-96182292D01*
X136647482Y-96307708D01*
X136636212Y-96349766D01*
X136063022Y-95776576D01*
X136017307Y-95780576D01*
X135948807Y-95766809D01*
X135898624Y-95718194D01*
X135882500Y-95657048D01*
X135882500Y-94842950D01*
X135902185Y-94775911D01*
X135954989Y-94730156D01*
X136017308Y-94719422D01*
X136063024Y-94723422D01*
X136636212Y-94150233D01*
X136647482Y-94192292D01*
G37*
%TD.AperFunction*%
%TA.AperFunction,Conductor*%
G36*
X151098355Y-94769337D02*
G01*
X151133769Y-94829567D01*
X151137500Y-94859756D01*
X151137500Y-95657049D01*
X151117815Y-95724088D01*
X151065011Y-95769843D01*
X151002692Y-95780577D01*
X150956975Y-95776576D01*
X150383787Y-96349764D01*
X150372518Y-96307708D01*
X150300110Y-96182292D01*
X150197708Y-96079890D01*
X150072292Y-96007482D01*
X150030234Y-95996212D01*
X150603422Y-95423023D01*
X150525029Y-95368132D01*
X150513286Y-95362656D01*
X150460848Y-95316482D01*
X150441697Y-95249289D01*
X150461914Y-95182408D01*
X150513289Y-95137893D01*
X150525282Y-95132301D01*
X150715269Y-94999270D01*
X150879270Y-94835269D01*
X150911925Y-94788632D01*
X150966502Y-94745008D01*
X151036000Y-94737815D01*
X151098355Y-94769337D01*
G37*
%TD.AperFunction*%
%TA.AperFunction,Conductor*%
G36*
X136364088Y-92722185D02*
G01*
X136409843Y-92774989D01*
X136420577Y-92837308D01*
X136416577Y-92883023D01*
X136989766Y-93456212D01*
X136947708Y-93467482D01*
X136822292Y-93539890D01*
X136719890Y-93642292D01*
X136647482Y-93767708D01*
X136636212Y-93809766D01*
X136063022Y-93236576D01*
X136017307Y-93240576D01*
X135948807Y-93226809D01*
X135898624Y-93178194D01*
X135882500Y-93117048D01*
X135882500Y-92826500D01*
X135902185Y-92759461D01*
X135954989Y-92713706D01*
X136006500Y-92702500D01*
X136297049Y-92702500D01*
X136364088Y-92722185D01*
G37*
%TD.AperFunction*%
%TD*%
M02*
