%TF.GenerationSoftware,KiCad,Pcbnew,8.0.6*%
%TF.CreationDate,2025-01-14T17:23:09-07:00*%
%TF.ProjectId,MPPT,4d505054-2e6b-4696-9361-645f70636258,rev?*%
%TF.SameCoordinates,Original*%
%TF.FileFunction,Legend,Top*%
%TF.FilePolarity,Positive*%
%FSLAX46Y46*%
G04 Gerber Fmt 4.6, Leading zero omitted, Abs format (unit mm)*
G04 Created by KiCad (PCBNEW 8.0.6) date 2025-01-14 17:23:09*
%MOMM*%
%LPD*%
G01*
G04 APERTURE LIST*
%ADD10C,0.100000*%
%ADD11C,0.200000*%
G04 APERTURE END LIST*
D10*
X144941027Y-93360419D02*
X145274360Y-94360419D01*
X145274360Y-94360419D02*
X145607693Y-93360419D01*
X146512455Y-94265180D02*
X146464836Y-94312800D01*
X146464836Y-94312800D02*
X146321979Y-94360419D01*
X146321979Y-94360419D02*
X146226741Y-94360419D01*
X146226741Y-94360419D02*
X146083884Y-94312800D01*
X146083884Y-94312800D02*
X145988646Y-94217561D01*
X145988646Y-94217561D02*
X145941027Y-94122323D01*
X145941027Y-94122323D02*
X145893408Y-93931847D01*
X145893408Y-93931847D02*
X145893408Y-93788990D01*
X145893408Y-93788990D02*
X145941027Y-93598514D01*
X145941027Y-93598514D02*
X145988646Y-93503276D01*
X145988646Y-93503276D02*
X146083884Y-93408038D01*
X146083884Y-93408038D02*
X146226741Y-93360419D01*
X146226741Y-93360419D02*
X146321979Y-93360419D01*
X146321979Y-93360419D02*
X146464836Y-93408038D01*
X146464836Y-93408038D02*
X146512455Y-93455657D01*
X147512455Y-94265180D02*
X147464836Y-94312800D01*
X147464836Y-94312800D02*
X147321979Y-94360419D01*
X147321979Y-94360419D02*
X147226741Y-94360419D01*
X147226741Y-94360419D02*
X147083884Y-94312800D01*
X147083884Y-94312800D02*
X146988646Y-94217561D01*
X146988646Y-94217561D02*
X146941027Y-94122323D01*
X146941027Y-94122323D02*
X146893408Y-93931847D01*
X146893408Y-93931847D02*
X146893408Y-93788990D01*
X146893408Y-93788990D02*
X146941027Y-93598514D01*
X146941027Y-93598514D02*
X146988646Y-93503276D01*
X146988646Y-93503276D02*
X147083884Y-93408038D01*
X147083884Y-93408038D02*
X147226741Y-93360419D01*
X147226741Y-93360419D02*
X147321979Y-93360419D01*
X147321979Y-93360419D02*
X147464836Y-93408038D01*
X147464836Y-93408038D02*
X147512455Y-93455657D01*
X145337884Y-96900419D02*
X145337884Y-95900419D01*
X145337884Y-95900419D02*
X145718836Y-95900419D01*
X145718836Y-95900419D02*
X145814074Y-95948038D01*
X145814074Y-95948038D02*
X145861693Y-95995657D01*
X145861693Y-95995657D02*
X145909312Y-96090895D01*
X145909312Y-96090895D02*
X145909312Y-96233752D01*
X145909312Y-96233752D02*
X145861693Y-96328990D01*
X145861693Y-96328990D02*
X145814074Y-96376609D01*
X145814074Y-96376609D02*
X145718836Y-96424228D01*
X145718836Y-96424228D02*
X145337884Y-96424228D01*
X146195027Y-95900419D02*
X146528360Y-96900419D01*
X146528360Y-96900419D02*
X146861693Y-95900419D01*
X147195027Y-96519466D02*
X147956932Y-96519466D01*
X145337884Y-99440419D02*
X145337884Y-98440419D01*
X145337884Y-98440419D02*
X145718836Y-98440419D01*
X145718836Y-98440419D02*
X145814074Y-98488038D01*
X145814074Y-98488038D02*
X145861693Y-98535657D01*
X145861693Y-98535657D02*
X145909312Y-98630895D01*
X145909312Y-98630895D02*
X145909312Y-98773752D01*
X145909312Y-98773752D02*
X145861693Y-98868990D01*
X145861693Y-98868990D02*
X145814074Y-98916609D01*
X145814074Y-98916609D02*
X145718836Y-98964228D01*
X145718836Y-98964228D02*
X145337884Y-98964228D01*
X146195027Y-98440419D02*
X146528360Y-99440419D01*
X146528360Y-99440419D02*
X146861693Y-98440419D01*
X147195027Y-99059466D02*
X147956932Y-99059466D01*
X145337884Y-101980419D02*
X145337884Y-100980419D01*
X145337884Y-100980419D02*
X145718836Y-100980419D01*
X145718836Y-100980419D02*
X145814074Y-101028038D01*
X145814074Y-101028038D02*
X145861693Y-101075657D01*
X145861693Y-101075657D02*
X145909312Y-101170895D01*
X145909312Y-101170895D02*
X145909312Y-101313752D01*
X145909312Y-101313752D02*
X145861693Y-101408990D01*
X145861693Y-101408990D02*
X145814074Y-101456609D01*
X145814074Y-101456609D02*
X145718836Y-101504228D01*
X145718836Y-101504228D02*
X145337884Y-101504228D01*
X146195027Y-100980419D02*
X146528360Y-101980419D01*
X146528360Y-101980419D02*
X146861693Y-100980419D01*
X147195027Y-101599466D02*
X147956932Y-101599466D01*
X147575979Y-101980419D02*
X147575979Y-101218514D01*
X145528360Y-103520419D02*
X145718836Y-103520419D01*
X145718836Y-103520419D02*
X145814074Y-103568038D01*
X145814074Y-103568038D02*
X145909312Y-103663276D01*
X145909312Y-103663276D02*
X145956931Y-103853752D01*
X145956931Y-103853752D02*
X145956931Y-104187085D01*
X145956931Y-104187085D02*
X145909312Y-104377561D01*
X145909312Y-104377561D02*
X145814074Y-104472800D01*
X145814074Y-104472800D02*
X145718836Y-104520419D01*
X145718836Y-104520419D02*
X145528360Y-104520419D01*
X145528360Y-104520419D02*
X145433122Y-104472800D01*
X145433122Y-104472800D02*
X145337884Y-104377561D01*
X145337884Y-104377561D02*
X145290265Y-104187085D01*
X145290265Y-104187085D02*
X145290265Y-103853752D01*
X145290265Y-103853752D02*
X145337884Y-103663276D01*
X145337884Y-103663276D02*
X145433122Y-103568038D01*
X145433122Y-103568038D02*
X145528360Y-103520419D01*
X146385503Y-103520419D02*
X146385503Y-104329942D01*
X146385503Y-104329942D02*
X146433122Y-104425180D01*
X146433122Y-104425180D02*
X146480741Y-104472800D01*
X146480741Y-104472800D02*
X146575979Y-104520419D01*
X146575979Y-104520419D02*
X146766455Y-104520419D01*
X146766455Y-104520419D02*
X146861693Y-104472800D01*
X146861693Y-104472800D02*
X146909312Y-104425180D01*
X146909312Y-104425180D02*
X146956931Y-104329942D01*
X146956931Y-104329942D02*
X146956931Y-103520419D01*
X147290265Y-103520419D02*
X147861693Y-103520419D01*
X147575979Y-104520419D02*
X147575979Y-103520419D01*
X139353027Y-103520419D02*
X139686360Y-104520419D01*
X139686360Y-104520419D02*
X140019693Y-103520419D01*
X140686360Y-103996609D02*
X140829217Y-104044228D01*
X140829217Y-104044228D02*
X140876836Y-104091847D01*
X140876836Y-104091847D02*
X140924455Y-104187085D01*
X140924455Y-104187085D02*
X140924455Y-104329942D01*
X140924455Y-104329942D02*
X140876836Y-104425180D01*
X140876836Y-104425180D02*
X140829217Y-104472800D01*
X140829217Y-104472800D02*
X140733979Y-104520419D01*
X140733979Y-104520419D02*
X140353027Y-104520419D01*
X140353027Y-104520419D02*
X140353027Y-103520419D01*
X140353027Y-103520419D02*
X140686360Y-103520419D01*
X140686360Y-103520419D02*
X140781598Y-103568038D01*
X140781598Y-103568038D02*
X140829217Y-103615657D01*
X140829217Y-103615657D02*
X140876836Y-103710895D01*
X140876836Y-103710895D02*
X140876836Y-103806133D01*
X140876836Y-103806133D02*
X140829217Y-103901371D01*
X140829217Y-103901371D02*
X140781598Y-103948990D01*
X140781598Y-103948990D02*
X140686360Y-103996609D01*
X140686360Y-103996609D02*
X140353027Y-103996609D01*
X141305408Y-104472800D02*
X141448265Y-104520419D01*
X141448265Y-104520419D02*
X141686360Y-104520419D01*
X141686360Y-104520419D02*
X141781598Y-104472800D01*
X141781598Y-104472800D02*
X141829217Y-104425180D01*
X141829217Y-104425180D02*
X141876836Y-104329942D01*
X141876836Y-104329942D02*
X141876836Y-104234704D01*
X141876836Y-104234704D02*
X141829217Y-104139466D01*
X141829217Y-104139466D02*
X141781598Y-104091847D01*
X141781598Y-104091847D02*
X141686360Y-104044228D01*
X141686360Y-104044228D02*
X141495884Y-103996609D01*
X141495884Y-103996609D02*
X141400646Y-103948990D01*
X141400646Y-103948990D02*
X141353027Y-103901371D01*
X141353027Y-103901371D02*
X141305408Y-103806133D01*
X141305408Y-103806133D02*
X141305408Y-103710895D01*
X141305408Y-103710895D02*
X141353027Y-103615657D01*
X141353027Y-103615657D02*
X141400646Y-103568038D01*
X141400646Y-103568038D02*
X141495884Y-103520419D01*
X141495884Y-103520419D02*
X141733979Y-103520419D01*
X141733979Y-103520419D02*
X141876836Y-103568038D01*
X142162551Y-103520419D02*
X142733979Y-103520419D01*
X142448265Y-104520419D02*
X142448265Y-103520419D01*
X139495884Y-101980419D02*
X139495884Y-100980419D01*
X139495884Y-100980419D02*
X139876836Y-100980419D01*
X139876836Y-100980419D02*
X139972074Y-101028038D01*
X139972074Y-101028038D02*
X140019693Y-101075657D01*
X140019693Y-101075657D02*
X140067312Y-101170895D01*
X140067312Y-101170895D02*
X140067312Y-101313752D01*
X140067312Y-101313752D02*
X140019693Y-101408990D01*
X140019693Y-101408990D02*
X139972074Y-101456609D01*
X139972074Y-101456609D02*
X139876836Y-101504228D01*
X139876836Y-101504228D02*
X139495884Y-101504228D01*
X140353027Y-100980419D02*
X140686360Y-101980419D01*
X140686360Y-101980419D02*
X141019693Y-100980419D01*
X141353027Y-101599466D02*
X142114932Y-101599466D01*
X139495884Y-99440419D02*
X139495884Y-98440419D01*
X139495884Y-98440419D02*
X139876836Y-98440419D01*
X139876836Y-98440419D02*
X139972074Y-98488038D01*
X139972074Y-98488038D02*
X140019693Y-98535657D01*
X140019693Y-98535657D02*
X140067312Y-98630895D01*
X140067312Y-98630895D02*
X140067312Y-98773752D01*
X140067312Y-98773752D02*
X140019693Y-98868990D01*
X140019693Y-98868990D02*
X139972074Y-98916609D01*
X139972074Y-98916609D02*
X139876836Y-98964228D01*
X139876836Y-98964228D02*
X139495884Y-98964228D01*
X140353027Y-98440419D02*
X140686360Y-99440419D01*
X140686360Y-99440419D02*
X141019693Y-98440419D01*
X141353027Y-99059466D02*
X142114932Y-99059466D01*
X139495884Y-96900419D02*
X139495884Y-95900419D01*
X139495884Y-95900419D02*
X139876836Y-95900419D01*
X139876836Y-95900419D02*
X139972074Y-95948038D01*
X139972074Y-95948038D02*
X140019693Y-95995657D01*
X140019693Y-95995657D02*
X140067312Y-96090895D01*
X140067312Y-96090895D02*
X140067312Y-96233752D01*
X140067312Y-96233752D02*
X140019693Y-96328990D01*
X140019693Y-96328990D02*
X139972074Y-96376609D01*
X139972074Y-96376609D02*
X139876836Y-96424228D01*
X139876836Y-96424228D02*
X139495884Y-96424228D01*
X140353027Y-95900419D02*
X140686360Y-96900419D01*
X140686360Y-96900419D02*
X141019693Y-95900419D01*
X141353027Y-96519466D02*
X142114932Y-96519466D01*
X139495884Y-94360419D02*
X139495884Y-93360419D01*
X139495884Y-93360419D02*
X139876836Y-93360419D01*
X139876836Y-93360419D02*
X139972074Y-93408038D01*
X139972074Y-93408038D02*
X140019693Y-93455657D01*
X140019693Y-93455657D02*
X140067312Y-93550895D01*
X140067312Y-93550895D02*
X140067312Y-93693752D01*
X140067312Y-93693752D02*
X140019693Y-93788990D01*
X140019693Y-93788990D02*
X139972074Y-93836609D01*
X139972074Y-93836609D02*
X139876836Y-93884228D01*
X139876836Y-93884228D02*
X139495884Y-93884228D01*
X140353027Y-93360419D02*
X140686360Y-94360419D01*
X140686360Y-94360419D02*
X141019693Y-93360419D01*
X141353027Y-93979466D02*
X142114932Y-93979466D01*
D11*
%TO.C,J1*%
X135790000Y-92610000D02*
X138530000Y-92610000D01*
X135790000Y-105510000D02*
X135790000Y-92610000D01*
X138530000Y-92610000D02*
X138530000Y-105510000D01*
X138530000Y-105510000D02*
X135790000Y-105510000D01*
X136360000Y-93060000D02*
G75*
G02*
X136160000Y-93060000I-100000J0D01*
G01*
X136160000Y-93060000D02*
G75*
G02*
X136360000Y-93060000I100000J0D01*
G01*
%TO.C,J2*%
X148490000Y-92610000D02*
X151230000Y-92610000D01*
X148490000Y-105510000D02*
X148490000Y-92610000D01*
X151230000Y-92610000D02*
X151230000Y-105510000D01*
X151230000Y-105510000D02*
X148490000Y-105510000D01*
X149060000Y-93060000D02*
G75*
G02*
X148860000Y-93060000I-100000J0D01*
G01*
X148860000Y-93060000D02*
G75*
G02*
X149060000Y-93060000I100000J0D01*
G01*
%TD*%
M02*
