%TF.GenerationSoftware,KiCad,Pcbnew,8.0.6*%
%TF.CreationDate,2025-01-14T17:23:09-07:00*%
%TF.ProjectId,MPPT,4d505054-2e6b-4696-9361-645f70636258,rev?*%
%TF.SameCoordinates,Original*%
%TF.FileFunction,Copper,L1,Top*%
%TF.FilePolarity,Positive*%
%FSLAX46Y46*%
G04 Gerber Fmt 4.6, Leading zero omitted, Abs format (unit mm)*
G04 Created by KiCad (PCBNEW 8.0.6) date 2025-01-14 17:23:09*
%MOMM*%
%LPD*%
G01*
G04 APERTURE LIST*
%TA.AperFunction,ComponentPad*%
%ADD10C,1.650000*%
%TD*%
G04 APERTURE END LIST*
D10*
%TO.P,J1,1*%
%TO.N,/PV-*%
X137160000Y-93980000D03*
%TO.P,J1,2*%
X137160000Y-96520000D03*
%TO.P,J1,3*%
X137160000Y-99060000D03*
%TO.P,J1,4*%
X137160000Y-101600000D03*
%TO.P,J1,5*%
%TO.N,/VBST*%
X137160000Y-104140000D03*
%TD*%
%TO.P,J2,1*%
%TO.N,/VCC*%
X149860000Y-93980000D03*
%TO.P,J2,2*%
%TO.N,/PV-*%
X149860000Y-96520000D03*
%TO.P,J2,3*%
X149860000Y-99060000D03*
%TO.P,J2,4*%
%TO.N,/PV+*%
X149860000Y-101600000D03*
%TO.P,J2,5*%
%TO.N,/OUT*%
X149860000Y-104140000D03*
%TD*%
%TA.AperFunction,Conductor*%
%TO.N,/PV-*%
G36*
X149047283Y-92722185D02*
G01*
X149093038Y-92774989D01*
X149102982Y-92844147D01*
X149073957Y-92907703D01*
X149051367Y-92928075D01*
X149004735Y-92960726D01*
X149004729Y-92960731D01*
X148840731Y-93124729D01*
X148840726Y-93124735D01*
X148707701Y-93314714D01*
X148707699Y-93314718D01*
X148609681Y-93524917D01*
X148549651Y-93748948D01*
X148549650Y-93748955D01*
X148529437Y-93979998D01*
X148529437Y-93980001D01*
X148549650Y-94211044D01*
X148549651Y-94211051D01*
X148609678Y-94435074D01*
X148609679Y-94435076D01*
X148609680Y-94435079D01*
X148707699Y-94645282D01*
X148840730Y-94835269D01*
X149004731Y-94999270D01*
X149194718Y-95132301D01*
X149206710Y-95137893D01*
X149259149Y-95184062D01*
X149278303Y-95251255D01*
X149258089Y-95318137D01*
X149206717Y-95362655D01*
X149194966Y-95368134D01*
X149116576Y-95423022D01*
X149689766Y-95996212D01*
X149647708Y-96007482D01*
X149522292Y-96079890D01*
X149419890Y-96182292D01*
X149347482Y-96307708D01*
X149336212Y-96349766D01*
X148763022Y-95776576D01*
X148708134Y-95854967D01*
X148610152Y-96065090D01*
X148610148Y-96065099D01*
X148550147Y-96289031D01*
X148550145Y-96289041D01*
X148529939Y-96519999D01*
X148529939Y-96520000D01*
X148550145Y-96750958D01*
X148550147Y-96750968D01*
X148610148Y-96974900D01*
X148610152Y-96974909D01*
X148708133Y-97185030D01*
X148763023Y-97263422D01*
X149336212Y-96690233D01*
X149347482Y-96732292D01*
X149419890Y-96857708D01*
X149522292Y-96960110D01*
X149647708Y-97032518D01*
X149689765Y-97043787D01*
X149116576Y-97616975D01*
X149194967Y-97671865D01*
X149207302Y-97677617D01*
X149259742Y-97723789D01*
X149278894Y-97790983D01*
X149258679Y-97857864D01*
X149207304Y-97902381D01*
X149194970Y-97908132D01*
X149194969Y-97908133D01*
X149116576Y-97963022D01*
X149689766Y-98536212D01*
X149647708Y-98547482D01*
X149522292Y-98619890D01*
X149419890Y-98722292D01*
X149347482Y-98847708D01*
X149336212Y-98889766D01*
X148763022Y-98316576D01*
X148708134Y-98394967D01*
X148610152Y-98605090D01*
X148610148Y-98605099D01*
X148550147Y-98829031D01*
X148550145Y-98829041D01*
X148529939Y-99059999D01*
X148529939Y-99060000D01*
X148550145Y-99290958D01*
X148550147Y-99290968D01*
X148610148Y-99514900D01*
X148610152Y-99514909D01*
X148708133Y-99725030D01*
X148763023Y-99803422D01*
X149336212Y-99230233D01*
X149347482Y-99272292D01*
X149419890Y-99397708D01*
X149522292Y-99500110D01*
X149647708Y-99572518D01*
X149689765Y-99583787D01*
X149116576Y-100156975D01*
X149194966Y-100211864D01*
X149206709Y-100217340D01*
X149259149Y-100263511D01*
X149278303Y-100330704D01*
X149258089Y-100397586D01*
X149206716Y-100442104D01*
X149194722Y-100447697D01*
X149194714Y-100447701D01*
X149004735Y-100580726D01*
X149004729Y-100580731D01*
X148840731Y-100744729D01*
X148840726Y-100744735D01*
X148707701Y-100934714D01*
X148707699Y-100934718D01*
X148609681Y-101144917D01*
X148549651Y-101368948D01*
X148549650Y-101368955D01*
X148529437Y-101599998D01*
X148529437Y-101600001D01*
X148549650Y-101831044D01*
X148549651Y-101831051D01*
X148609678Y-102055074D01*
X148609679Y-102055076D01*
X148609680Y-102055079D01*
X148707699Y-102265282D01*
X148840730Y-102455269D01*
X149004731Y-102619270D01*
X149194718Y-102752301D01*
X149206121Y-102757618D01*
X149258560Y-102803790D01*
X149277712Y-102870984D01*
X149257496Y-102937865D01*
X149206123Y-102982381D01*
X149194720Y-102987698D01*
X149194714Y-102987701D01*
X149004735Y-103120726D01*
X149004729Y-103120731D01*
X148840731Y-103284729D01*
X148840726Y-103284735D01*
X148707701Y-103474714D01*
X148707699Y-103474718D01*
X148609681Y-103684917D01*
X148549651Y-103908948D01*
X148549650Y-103908955D01*
X148529437Y-104139998D01*
X148529437Y-104140001D01*
X148549650Y-104371044D01*
X148549651Y-104371051D01*
X148609678Y-104595074D01*
X148609679Y-104595076D01*
X148609680Y-104595079D01*
X148707699Y-104805282D01*
X148840730Y-104995269D01*
X149004731Y-105159270D01*
X149004733Y-105159272D01*
X149004735Y-105159273D01*
X149051367Y-105191925D01*
X149094992Y-105246502D01*
X149102185Y-105316000D01*
X149070663Y-105378355D01*
X149010433Y-105413769D01*
X148980244Y-105417500D01*
X138039756Y-105417500D01*
X137972717Y-105397815D01*
X137926962Y-105345011D01*
X137917018Y-105275853D01*
X137946043Y-105212297D01*
X137968633Y-105191925D01*
X138015269Y-105159270D01*
X138179270Y-104995269D01*
X138312301Y-104805282D01*
X138410320Y-104595079D01*
X138470349Y-104371050D01*
X138490563Y-104140000D01*
X138470349Y-103908950D01*
X138410320Y-103684921D01*
X138312301Y-103474719D01*
X138312299Y-103474716D01*
X138312298Y-103474714D01*
X138179273Y-103284735D01*
X138179268Y-103284729D01*
X138015269Y-103120730D01*
X138015263Y-103120726D01*
X137825282Y-102987699D01*
X137813880Y-102982382D01*
X137813286Y-102982105D01*
X137760848Y-102935932D01*
X137741697Y-102868738D01*
X137761914Y-102801857D01*
X137813294Y-102757339D01*
X137825034Y-102751864D01*
X137903422Y-102696976D01*
X137903422Y-102696975D01*
X137330235Y-102123787D01*
X137372292Y-102112518D01*
X137497708Y-102040110D01*
X137600110Y-101937708D01*
X137672518Y-101812292D01*
X137683787Y-101770234D01*
X138256975Y-102343422D01*
X138256976Y-102343422D01*
X138311865Y-102265034D01*
X138311867Y-102265030D01*
X138409847Y-102054909D01*
X138409851Y-102054900D01*
X138469852Y-101830968D01*
X138469854Y-101830958D01*
X138490061Y-101600000D01*
X138490061Y-101599999D01*
X138469854Y-101369041D01*
X138469852Y-101369031D01*
X138409851Y-101145099D01*
X138409847Y-101145090D01*
X138311867Y-100934971D01*
X138311866Y-100934969D01*
X138256975Y-100856577D01*
X138256975Y-100856576D01*
X137683787Y-101429764D01*
X137672518Y-101387708D01*
X137600110Y-101262292D01*
X137497708Y-101159890D01*
X137372292Y-101087482D01*
X137330234Y-101076212D01*
X137903422Y-100503023D01*
X137825032Y-100448134D01*
X137812698Y-100442383D01*
X137760258Y-100396211D01*
X137741106Y-100329017D01*
X137761321Y-100262136D01*
X137812701Y-100217616D01*
X137825033Y-100211865D01*
X137825034Y-100211865D01*
X137903422Y-100156976D01*
X137903422Y-100156975D01*
X137330235Y-99583787D01*
X137372292Y-99572518D01*
X137497708Y-99500110D01*
X137600110Y-99397708D01*
X137672518Y-99272292D01*
X137683787Y-99230234D01*
X138256975Y-99803422D01*
X138256976Y-99803422D01*
X138311865Y-99725034D01*
X138311867Y-99725030D01*
X138409847Y-99514909D01*
X138409851Y-99514900D01*
X138469852Y-99290968D01*
X138469854Y-99290958D01*
X138490061Y-99060000D01*
X138490061Y-99059999D01*
X138469854Y-98829041D01*
X138469852Y-98829031D01*
X138409851Y-98605099D01*
X138409847Y-98605090D01*
X138311867Y-98394971D01*
X138311866Y-98394969D01*
X138256975Y-98316577D01*
X138256975Y-98316576D01*
X137683787Y-98889764D01*
X137672518Y-98847708D01*
X137600110Y-98722292D01*
X137497708Y-98619890D01*
X137372292Y-98547482D01*
X137330234Y-98536212D01*
X137903422Y-97963023D01*
X137825032Y-97908134D01*
X137812698Y-97902383D01*
X137760258Y-97856211D01*
X137741106Y-97789017D01*
X137761321Y-97722136D01*
X137812701Y-97677616D01*
X137825033Y-97671865D01*
X137825034Y-97671865D01*
X137903422Y-97616976D01*
X137903422Y-97616975D01*
X137330235Y-97043787D01*
X137372292Y-97032518D01*
X137497708Y-96960110D01*
X137600110Y-96857708D01*
X137672518Y-96732292D01*
X137683787Y-96690234D01*
X138256975Y-97263422D01*
X138256976Y-97263422D01*
X138311865Y-97185034D01*
X138311867Y-97185030D01*
X138409847Y-96974909D01*
X138409851Y-96974900D01*
X138469852Y-96750968D01*
X138469854Y-96750958D01*
X138490061Y-96520000D01*
X138490061Y-96519999D01*
X138469854Y-96289041D01*
X138469852Y-96289031D01*
X138409851Y-96065099D01*
X138409847Y-96065090D01*
X138311867Y-95854971D01*
X138311866Y-95854969D01*
X138256975Y-95776577D01*
X138256975Y-95776576D01*
X137683787Y-96349764D01*
X137672518Y-96307708D01*
X137600110Y-96182292D01*
X137497708Y-96079890D01*
X137372292Y-96007482D01*
X137330234Y-95996212D01*
X137903422Y-95423023D01*
X137825032Y-95368134D01*
X137812698Y-95362383D01*
X137760258Y-95316211D01*
X137741106Y-95249017D01*
X137761321Y-95182136D01*
X137812701Y-95137616D01*
X137825033Y-95131865D01*
X137825034Y-95131865D01*
X137903422Y-95076976D01*
X137903422Y-95076975D01*
X137330235Y-94503787D01*
X137372292Y-94492518D01*
X137497708Y-94420110D01*
X137600110Y-94317708D01*
X137672518Y-94192292D01*
X137683787Y-94150234D01*
X138256975Y-94723422D01*
X138256976Y-94723422D01*
X138311865Y-94645034D01*
X138311867Y-94645030D01*
X138409847Y-94434909D01*
X138409851Y-94434900D01*
X138469852Y-94210968D01*
X138469854Y-94210958D01*
X138490061Y-93980000D01*
X138490061Y-93979999D01*
X138469854Y-93749041D01*
X138469852Y-93749031D01*
X138409851Y-93525099D01*
X138409847Y-93525090D01*
X138311867Y-93314971D01*
X138311866Y-93314969D01*
X138256975Y-93236577D01*
X138256975Y-93236576D01*
X137683787Y-93809764D01*
X137672518Y-93767708D01*
X137600110Y-93642292D01*
X137497708Y-93539890D01*
X137372292Y-93467482D01*
X137330234Y-93456212D01*
X137903422Y-92883023D01*
X137899423Y-92837307D01*
X137913190Y-92768807D01*
X137961805Y-92718624D01*
X138022951Y-92702500D01*
X148980244Y-92702500D01*
X149047283Y-92722185D01*
G37*
%TD.AperFunction*%
%TA.AperFunction,Conductor*%
G36*
X136647482Y-101812292D02*
G01*
X136719890Y-101937708D01*
X136822292Y-102040110D01*
X136947708Y-102112518D01*
X136989765Y-102123787D01*
X136416576Y-102696975D01*
X136494966Y-102751864D01*
X136506709Y-102757340D01*
X136559149Y-102803511D01*
X136578303Y-102870704D01*
X136558089Y-102937586D01*
X136506716Y-102982104D01*
X136494722Y-102987697D01*
X136494714Y-102987701D01*
X136304735Y-103120726D01*
X136304729Y-103120731D01*
X136140731Y-103284729D01*
X136140724Y-103284738D01*
X136108074Y-103331367D01*
X136053497Y-103374992D01*
X135983999Y-103382184D01*
X135921644Y-103350662D01*
X135886231Y-103290432D01*
X135882500Y-103260243D01*
X135882500Y-102462950D01*
X135902185Y-102395911D01*
X135954989Y-102350156D01*
X136017308Y-102339422D01*
X136063024Y-102343422D01*
X136636212Y-101770233D01*
X136647482Y-101812292D01*
G37*
%TD.AperFunction*%
%TA.AperFunction,Conductor*%
G36*
X136647482Y-99272292D02*
G01*
X136719890Y-99397708D01*
X136822292Y-99500110D01*
X136947708Y-99572518D01*
X136989765Y-99583787D01*
X136416576Y-100156975D01*
X136494967Y-100211865D01*
X136507302Y-100217617D01*
X136559742Y-100263789D01*
X136578894Y-100330983D01*
X136558679Y-100397864D01*
X136507304Y-100442381D01*
X136494970Y-100448132D01*
X136494969Y-100448133D01*
X136416576Y-100503022D01*
X136989766Y-101076212D01*
X136947708Y-101087482D01*
X136822292Y-101159890D01*
X136719890Y-101262292D01*
X136647482Y-101387708D01*
X136636212Y-101429766D01*
X136063022Y-100856576D01*
X136017307Y-100860576D01*
X135948807Y-100846809D01*
X135898624Y-100798194D01*
X135882500Y-100737048D01*
X135882500Y-99922950D01*
X135902185Y-99855911D01*
X135954989Y-99810156D01*
X136017308Y-99799422D01*
X136063024Y-99803422D01*
X136636212Y-99230233D01*
X136647482Y-99272292D01*
G37*
%TD.AperFunction*%
%TA.AperFunction,Conductor*%
G36*
X150956975Y-99803421D02*
G01*
X151002693Y-99799422D01*
X151071193Y-99813189D01*
X151121376Y-99861804D01*
X151137500Y-99922950D01*
X151137500Y-100720243D01*
X151117815Y-100787282D01*
X151065011Y-100833037D01*
X150995853Y-100842981D01*
X150932297Y-100813956D01*
X150911926Y-100791367D01*
X150879275Y-100744738D01*
X150879268Y-100744729D01*
X150715269Y-100580730D01*
X150525903Y-100448134D01*
X150525282Y-100447699D01*
X150513882Y-100442383D01*
X150513286Y-100442105D01*
X150460848Y-100395932D01*
X150441697Y-100328738D01*
X150461914Y-100261857D01*
X150513294Y-100217339D01*
X150525034Y-100211864D01*
X150603422Y-100156976D01*
X150603422Y-100156975D01*
X150030235Y-99583787D01*
X150072292Y-99572518D01*
X150197708Y-99500110D01*
X150300110Y-99397708D01*
X150372518Y-99272292D01*
X150383787Y-99230234D01*
X150956975Y-99803421D01*
G37*
%TD.AperFunction*%
%TA.AperFunction,Conductor*%
G36*
X136647482Y-96732292D02*
G01*
X136719890Y-96857708D01*
X136822292Y-96960110D01*
X136947708Y-97032518D01*
X136989765Y-97043787D01*
X136416576Y-97616975D01*
X136494967Y-97671865D01*
X136507302Y-97677617D01*
X136559742Y-97723789D01*
X136578894Y-97790983D01*
X136558679Y-97857864D01*
X136507304Y-97902381D01*
X136494970Y-97908132D01*
X136494969Y-97908133D01*
X136416576Y-97963022D01*
X136989766Y-98536212D01*
X136947708Y-98547482D01*
X136822292Y-98619890D01*
X136719890Y-98722292D01*
X136647482Y-98847708D01*
X136636212Y-98889766D01*
X136063022Y-98316576D01*
X136017307Y-98320576D01*
X135948807Y-98306809D01*
X135898624Y-98258194D01*
X135882500Y-98197048D01*
X135882500Y-97382950D01*
X135902185Y-97315911D01*
X135954989Y-97270156D01*
X136017308Y-97259422D01*
X136063024Y-97263422D01*
X136636212Y-96690233D01*
X136647482Y-96732292D01*
G37*
%TD.AperFunction*%
%TA.AperFunction,Conductor*%
G36*
X150956975Y-97263421D02*
G01*
X151002693Y-97259422D01*
X151071193Y-97273189D01*
X151121376Y-97321804D01*
X151137500Y-97382950D01*
X151137500Y-98197049D01*
X151117815Y-98264088D01*
X151065011Y-98309843D01*
X151002692Y-98320577D01*
X150956975Y-98316576D01*
X150383787Y-98889764D01*
X150372518Y-98847708D01*
X150300110Y-98722292D01*
X150197708Y-98619890D01*
X150072292Y-98547482D01*
X150030234Y-98536212D01*
X150603422Y-97963023D01*
X150525032Y-97908134D01*
X150512698Y-97902383D01*
X150460258Y-97856211D01*
X150441106Y-97789017D01*
X150461321Y-97722136D01*
X150512701Y-97677616D01*
X150525033Y-97671865D01*
X150525034Y-97671865D01*
X150603422Y-97616976D01*
X150603422Y-97616975D01*
X150030235Y-97043787D01*
X150072292Y-97032518D01*
X150197708Y-96960110D01*
X150300110Y-96857708D01*
X150372518Y-96732292D01*
X150383787Y-96690234D01*
X150956975Y-97263421D01*
G37*
%TD.AperFunction*%
%TA.AperFunction,Conductor*%
G36*
X136647482Y-94192292D02*
G01*
X136719890Y-94317708D01*
X136822292Y-94420110D01*
X136947708Y-94492518D01*
X136989765Y-94503787D01*
X136416576Y-95076975D01*
X136494967Y-95131865D01*
X136507302Y-95137617D01*
X136559742Y-95183789D01*
X136578894Y-95250983D01*
X136558679Y-95317864D01*
X136507304Y-95362381D01*
X136494970Y-95368132D01*
X136494969Y-95368133D01*
X136416576Y-95423022D01*
X136989766Y-95996212D01*
X136947708Y-96007482D01*
X136822292Y-96079890D01*
X136719890Y-96182292D01*
X136647482Y-96307708D01*
X136636212Y-96349766D01*
X136063022Y-95776576D01*
X136017307Y-95780576D01*
X135948807Y-95766809D01*
X135898624Y-95718194D01*
X135882500Y-95657048D01*
X135882500Y-94842950D01*
X135902185Y-94775911D01*
X135954989Y-94730156D01*
X136017308Y-94719422D01*
X136063024Y-94723422D01*
X136636212Y-94150233D01*
X136647482Y-94192292D01*
G37*
%TD.AperFunction*%
%TA.AperFunction,Conductor*%
G36*
X151098355Y-94769337D02*
G01*
X151133769Y-94829567D01*
X151137500Y-94859756D01*
X151137500Y-95657049D01*
X151117815Y-95724088D01*
X151065011Y-95769843D01*
X151002692Y-95780577D01*
X150956975Y-95776576D01*
X150383787Y-96349764D01*
X150372518Y-96307708D01*
X150300110Y-96182292D01*
X150197708Y-96079890D01*
X150072292Y-96007482D01*
X150030234Y-95996212D01*
X150603422Y-95423023D01*
X150525029Y-95368132D01*
X150513286Y-95362656D01*
X150460848Y-95316482D01*
X150441697Y-95249289D01*
X150461914Y-95182408D01*
X150513289Y-95137893D01*
X150525282Y-95132301D01*
X150715269Y-94999270D01*
X150879270Y-94835269D01*
X150911925Y-94788632D01*
X150966502Y-94745008D01*
X151036000Y-94737815D01*
X151098355Y-94769337D01*
G37*
%TD.AperFunction*%
%TA.AperFunction,Conductor*%
G36*
X136364088Y-92722185D02*
G01*
X136409843Y-92774989D01*
X136420577Y-92837308D01*
X136416577Y-92883023D01*
X136989766Y-93456212D01*
X136947708Y-93467482D01*
X136822292Y-93539890D01*
X136719890Y-93642292D01*
X136647482Y-93767708D01*
X136636212Y-93809766D01*
X136063022Y-93236576D01*
X136017307Y-93240576D01*
X135948807Y-93226809D01*
X135898624Y-93178194D01*
X135882500Y-93117048D01*
X135882500Y-92826500D01*
X135902185Y-92759461D01*
X135954989Y-92713706D01*
X136006500Y-92702500D01*
X136297049Y-92702500D01*
X136364088Y-92722185D01*
G37*
%TD.AperFunction*%
%TD*%
M02*
