%TF.GenerationSoftware,KiCad,Pcbnew,8.0.6*%
%TF.CreationDate,2025-01-14T17:23:09-07:00*%
%TF.ProjectId,MPPT,4d505054-2e6b-4696-9361-645f70636258,rev?*%
%TF.SameCoordinates,Original*%
%TF.FileFunction,Legend,Bot*%
%TF.FilePolarity,Positive*%
%FSLAX46Y46*%
G04 Gerber Fmt 4.6, Leading zero omitted, Abs format (unit mm)*
G04 Created by KiCad (PCBNEW 8.0.6) date 2025-01-14 17:23:09*
%MOMM*%
%LPD*%
G01*
G04 APERTURE LIST*
%ADD10C,0.150000*%
%ADD11C,0.152400*%
G04 APERTURE END LIST*
D10*
X140154819Y-93012381D02*
X139154819Y-93012381D01*
X139154819Y-93012381D02*
X139869104Y-93345714D01*
X139869104Y-93345714D02*
X139154819Y-93679047D01*
X139154819Y-93679047D02*
X140154819Y-93679047D01*
X139869104Y-94107619D02*
X139869104Y-94583809D01*
X140154819Y-94012381D02*
X139154819Y-94345714D01*
X139154819Y-94345714D02*
X140154819Y-94679047D01*
X139154819Y-94917143D02*
X140154819Y-95583809D01*
X139154819Y-95583809D02*
X140154819Y-94917143D01*
X139250057Y-95917143D02*
X139202438Y-95964762D01*
X139202438Y-95964762D02*
X139154819Y-96060000D01*
X139154819Y-96060000D02*
X139154819Y-96298095D01*
X139154819Y-96298095D02*
X139202438Y-96393333D01*
X139202438Y-96393333D02*
X139250057Y-96440952D01*
X139250057Y-96440952D02*
X139345295Y-96488571D01*
X139345295Y-96488571D02*
X139440533Y-96488571D01*
X139440533Y-96488571D02*
X139583390Y-96440952D01*
X139583390Y-96440952D02*
X140154819Y-95869524D01*
X140154819Y-95869524D02*
X140154819Y-96488571D01*
X139154819Y-97107619D02*
X139154819Y-97202857D01*
X139154819Y-97202857D02*
X139202438Y-97298095D01*
X139202438Y-97298095D02*
X139250057Y-97345714D01*
X139250057Y-97345714D02*
X139345295Y-97393333D01*
X139345295Y-97393333D02*
X139535771Y-97440952D01*
X139535771Y-97440952D02*
X139773866Y-97440952D01*
X139773866Y-97440952D02*
X139964342Y-97393333D01*
X139964342Y-97393333D02*
X140059580Y-97345714D01*
X140059580Y-97345714D02*
X140107200Y-97298095D01*
X140107200Y-97298095D02*
X140154819Y-97202857D01*
X140154819Y-97202857D02*
X140154819Y-97107619D01*
X140154819Y-97107619D02*
X140107200Y-97012381D01*
X140107200Y-97012381D02*
X140059580Y-96964762D01*
X140059580Y-96964762D02*
X139964342Y-96917143D01*
X139964342Y-96917143D02*
X139773866Y-96869524D01*
X139773866Y-96869524D02*
X139535771Y-96869524D01*
X139535771Y-96869524D02*
X139345295Y-96917143D01*
X139345295Y-96917143D02*
X139250057Y-96964762D01*
X139250057Y-96964762D02*
X139202438Y-97012381D01*
X139202438Y-97012381D02*
X139154819Y-97107619D01*
X139583390Y-98012381D02*
X139535771Y-97917143D01*
X139535771Y-97917143D02*
X139488152Y-97869524D01*
X139488152Y-97869524D02*
X139392914Y-97821905D01*
X139392914Y-97821905D02*
X139345295Y-97821905D01*
X139345295Y-97821905D02*
X139250057Y-97869524D01*
X139250057Y-97869524D02*
X139202438Y-97917143D01*
X139202438Y-97917143D02*
X139154819Y-98012381D01*
X139154819Y-98012381D02*
X139154819Y-98202857D01*
X139154819Y-98202857D02*
X139202438Y-98298095D01*
X139202438Y-98298095D02*
X139250057Y-98345714D01*
X139250057Y-98345714D02*
X139345295Y-98393333D01*
X139345295Y-98393333D02*
X139392914Y-98393333D01*
X139392914Y-98393333D02*
X139488152Y-98345714D01*
X139488152Y-98345714D02*
X139535771Y-98298095D01*
X139535771Y-98298095D02*
X139583390Y-98202857D01*
X139583390Y-98202857D02*
X139583390Y-98012381D01*
X139583390Y-98012381D02*
X139631009Y-97917143D01*
X139631009Y-97917143D02*
X139678628Y-97869524D01*
X139678628Y-97869524D02*
X139773866Y-97821905D01*
X139773866Y-97821905D02*
X139964342Y-97821905D01*
X139964342Y-97821905D02*
X140059580Y-97869524D01*
X140059580Y-97869524D02*
X140107200Y-97917143D01*
X140107200Y-97917143D02*
X140154819Y-98012381D01*
X140154819Y-98012381D02*
X140154819Y-98202857D01*
X140154819Y-98202857D02*
X140107200Y-98298095D01*
X140107200Y-98298095D02*
X140059580Y-98345714D01*
X140059580Y-98345714D02*
X139964342Y-98393333D01*
X139964342Y-98393333D02*
X139773866Y-98393333D01*
X139773866Y-98393333D02*
X139678628Y-98345714D01*
X139678628Y-98345714D02*
X139631009Y-98298095D01*
X139631009Y-98298095D02*
X139583390Y-98202857D01*
X139154819Y-99012381D02*
X139154819Y-99107619D01*
X139154819Y-99107619D02*
X139202438Y-99202857D01*
X139202438Y-99202857D02*
X139250057Y-99250476D01*
X139250057Y-99250476D02*
X139345295Y-99298095D01*
X139345295Y-99298095D02*
X139535771Y-99345714D01*
X139535771Y-99345714D02*
X139773866Y-99345714D01*
X139773866Y-99345714D02*
X139964342Y-99298095D01*
X139964342Y-99298095D02*
X140059580Y-99250476D01*
X140059580Y-99250476D02*
X140107200Y-99202857D01*
X140107200Y-99202857D02*
X140154819Y-99107619D01*
X140154819Y-99107619D02*
X140154819Y-99012381D01*
X140154819Y-99012381D02*
X140107200Y-98917143D01*
X140107200Y-98917143D02*
X140059580Y-98869524D01*
X140059580Y-98869524D02*
X139964342Y-98821905D01*
X139964342Y-98821905D02*
X139773866Y-98774286D01*
X139773866Y-98774286D02*
X139535771Y-98774286D01*
X139535771Y-98774286D02*
X139345295Y-98821905D01*
X139345295Y-98821905D02*
X139250057Y-98869524D01*
X139250057Y-98869524D02*
X139202438Y-98917143D01*
X139202438Y-98917143D02*
X139154819Y-99012381D01*
X140154819Y-100298095D02*
X140154819Y-99726667D01*
X140154819Y-100012381D02*
X139154819Y-100012381D01*
X139154819Y-100012381D02*
X139297676Y-99917143D01*
X139297676Y-99917143D02*
X139392914Y-99821905D01*
X139392914Y-99821905D02*
X139440533Y-99726667D01*
X139154819Y-100583810D02*
X139154819Y-101155238D01*
X140154819Y-100869524D02*
X139154819Y-100869524D01*
X140154819Y-101488572D02*
X139154819Y-101488572D01*
X139154819Y-101488572D02*
X139154819Y-101869524D01*
X139154819Y-101869524D02*
X139202438Y-101964762D01*
X139202438Y-101964762D02*
X139250057Y-102012381D01*
X139250057Y-102012381D02*
X139345295Y-102060000D01*
X139345295Y-102060000D02*
X139488152Y-102060000D01*
X139488152Y-102060000D02*
X139583390Y-102012381D01*
X139583390Y-102012381D02*
X139631009Y-101964762D01*
X139631009Y-101964762D02*
X139678628Y-101869524D01*
X139678628Y-101869524D02*
X139678628Y-101488572D01*
X139631009Y-102821905D02*
X139678628Y-102964762D01*
X139678628Y-102964762D02*
X139726247Y-103012381D01*
X139726247Y-103012381D02*
X139821485Y-103060000D01*
X139821485Y-103060000D02*
X139964342Y-103060000D01*
X139964342Y-103060000D02*
X140059580Y-103012381D01*
X140059580Y-103012381D02*
X140107200Y-102964762D01*
X140107200Y-102964762D02*
X140154819Y-102869524D01*
X140154819Y-102869524D02*
X140154819Y-102488572D01*
X140154819Y-102488572D02*
X139154819Y-102488572D01*
X139154819Y-102488572D02*
X139154819Y-102821905D01*
X139154819Y-102821905D02*
X139202438Y-102917143D01*
X139202438Y-102917143D02*
X139250057Y-102964762D01*
X139250057Y-102964762D02*
X139345295Y-103012381D01*
X139345295Y-103012381D02*
X139440533Y-103012381D01*
X139440533Y-103012381D02*
X139535771Y-102964762D01*
X139535771Y-102964762D02*
X139583390Y-102917143D01*
X139583390Y-102917143D02*
X139631009Y-102821905D01*
X139631009Y-102821905D02*
X139631009Y-102488572D01*
X139869104Y-103440953D02*
X139869104Y-103917143D01*
X140154819Y-103345715D02*
X139154819Y-103679048D01*
X139154819Y-103679048D02*
X140154819Y-104012381D01*
X139773866Y-104345715D02*
X139773866Y-105107620D01*
X140154819Y-104726667D02*
X139392914Y-104726667D01*
D11*
%TO.C,U1*%
X143182340Y-102904102D02*
X143727551Y-102904102D01*
%TD*%
M02*
