%TF.GenerationSoftware,KiCad,Pcbnew,8.0.6*%
%TF.CreationDate,2025-03-07T17:01:16-07:00*%
%TF.ProjectId,Capstone_DataLogger,43617073-746f-46e6-955f-446174614c6f,rev?*%
%TF.SameCoordinates,Original*%
%TF.FileFunction,Copper,L2,Bot*%
%TF.FilePolarity,Positive*%
%FSLAX46Y46*%
G04 Gerber Fmt 4.6, Leading zero omitted, Abs format (unit mm)*
G04 Created by KiCad (PCBNEW 8.0.6) date 2025-03-07 17:01:16*
%MOMM*%
%LPD*%
G01*
G04 APERTURE LIST*
G04 Aperture macros list*
%AMRoundRect*
0 Rectangle with rounded corners*
0 $1 Rounding radius*
0 $2 $3 $4 $5 $6 $7 $8 $9 X,Y pos of 4 corners*
0 Add a 4 corners polygon primitive as box body*
4,1,4,$2,$3,$4,$5,$6,$7,$8,$9,$2,$3,0*
0 Add four circle primitives for the rounded corners*
1,1,$1+$1,$2,$3*
1,1,$1+$1,$4,$5*
1,1,$1+$1,$6,$7*
1,1,$1+$1,$8,$9*
0 Add four rect primitives between the rounded corners*
20,1,$1+$1,$2,$3,$4,$5,0*
20,1,$1+$1,$4,$5,$6,$7,0*
20,1,$1+$1,$6,$7,$8,$9,0*
20,1,$1+$1,$8,$9,$2,$3,0*%
G04 Aperture macros list end*
%TA.AperFunction,ComponentPad*%
%ADD10R,1.700000X1.700000*%
%TD*%
%TA.AperFunction,ComponentPad*%
%ADD11O,1.700000X1.700000*%
%TD*%
%TA.AperFunction,ComponentPad*%
%ADD12C,1.701800*%
%TD*%
%TA.AperFunction,ComponentPad*%
%ADD13R,1.422400X1.422400*%
%TD*%
%TA.AperFunction,ComponentPad*%
%ADD14C,1.422400*%
%TD*%
%TA.AperFunction,ComponentPad*%
%ADD15C,1.752600*%
%TD*%
%TA.AperFunction,ComponentPad*%
%ADD16C,1.498600*%
%TD*%
%TA.AperFunction,ComponentPad*%
%ADD17R,1.600000X1.600000*%
%TD*%
%TA.AperFunction,ComponentPad*%
%ADD18O,1.600000X1.600000*%
%TD*%
%TA.AperFunction,ComponentPad*%
%ADD19C,1.524000*%
%TD*%
%TA.AperFunction,ComponentPad*%
%ADD20R,1.560000X1.560000*%
%TD*%
%TA.AperFunction,ComponentPad*%
%ADD21C,1.560000*%
%TD*%
%TA.AperFunction,ComponentPad*%
%ADD22R,1.498600X1.498600*%
%TD*%
%TA.AperFunction,ComponentPad*%
%ADD23RoundRect,0.250000X-0.650000X-0.650000X0.650000X-0.650000X0.650000X0.650000X-0.650000X0.650000X0*%
%TD*%
%TA.AperFunction,ComponentPad*%
%ADD24C,1.800000*%
%TD*%
%TA.AperFunction,ViaPad*%
%ADD25C,0.600000*%
%TD*%
%TA.AperFunction,ViaPad*%
%ADD26C,4.000000*%
%TD*%
%TA.AperFunction,ViaPad*%
%ADD27C,8.000000*%
%TD*%
%TA.AperFunction,Conductor*%
%ADD28C,0.200000*%
%TD*%
%TA.AperFunction,Conductor*%
%ADD29C,1.000000*%
%TD*%
G04 APERTURE END LIST*
D10*
%TO.P,J6,1,Pin_1*%
%TO.N,unconnected-(J6-Pin_1-Pad1)*%
X154000000Y-67220000D03*
D11*
%TO.P,J6,2,Pin_2*%
%TO.N,+5V*%
X154000000Y-69760000D03*
%TO.P,J6,3,Pin_3*%
%TO.N,GND*%
X154000000Y-72300000D03*
%TO.P,J6,4,Pin_4*%
%TO.N,/MCU/MISO*%
X154000000Y-74840000D03*
%TO.P,J6,5,Pin_5*%
%TO.N,/MCU/SCK*%
X154000000Y-77380000D03*
%TO.P,J6,6,Pin_6*%
%TO.N,/MCU/~{RESET}*%
X154000000Y-79920000D03*
%TO.P,J6,7,Pin_7*%
%TO.N,/MCU/MOSI*%
X154000000Y-82460000D03*
%TO.P,J6,8,Pin_8*%
%TO.N,unconnected-(J6-Pin_8-Pad8)*%
X154000000Y-85000000D03*
%TD*%
D12*
%TO.P,U5,1,GATE*%
%TO.N,/MCU/ESP_EN*%
X151580000Y-101500000D03*
%TO.P,U5,2,DRAIN*%
%TO.N,Net-(U2-EN)*%
X149040000Y-101500000D03*
%TO.P,U5,3,SOURCE*%
%TO.N,GND*%
X146500000Y-101500000D03*
%TD*%
D13*
%TO.P,XTAL1,1,1*%
%TO.N,/MCU/BUZZER*%
X153500000Y-43500000D03*
D14*
%TO.P,XTAL1,2,2*%
%TO.N,GND*%
X158500000Y-43500000D03*
%TD*%
D15*
%TO.P,J7,1,1*%
%TO.N,+5V*%
X165529801Y-117783400D03*
%TO.P,J7,2,2*%
%TO.N,/MCU/SDA*%
X165529801Y-120283400D03*
%TO.P,J7,3,3*%
%TO.N,/MCU/SCL*%
X165529801Y-122783400D03*
%TO.P,J7,4,4*%
%TO.N,GND*%
X165529801Y-125283400D03*
%TD*%
D16*
%TO.P,J3,1,1*%
%TO.N,+3.3V*%
X167500000Y-68500000D03*
%TO.P,J3,2,2*%
%TO.N,+5V*%
X167500000Y-71000000D03*
%TO.P,J3,3,3*%
%TO.N,/MCU/VBAT*%
X167500000Y-73500000D03*
%TO.P,J3,4,4*%
%TO.N,/MCU/PWM_HEATER*%
X167500000Y-76000000D03*
%TO.P,J3,5,5*%
%TO.N,GND*%
X167500000Y-78500000D03*
%TD*%
D17*
%TO.P,U3,1,~{RESET}/PC6*%
%TO.N,/MCU/~{RESET}*%
X136700000Y-48500000D03*
D18*
%TO.P,U3,2,PD0*%
%TO.N,/MCU/ESP_TX*%
X136700000Y-51040000D03*
%TO.P,U3,3,PD1*%
%TO.N,/MCU/ESP_RX*%
X136700000Y-53580000D03*
%TO.P,U3,4,PD2*%
%TO.N,/MCU/MFP*%
X136700000Y-56120000D03*
%TO.P,U3,5,PD3*%
%TO.N,/MCU/BUZZER*%
X136700000Y-58660000D03*
%TO.P,U3,6,PD4*%
%TO.N,/MCU/ESP_EN*%
X136700000Y-61200000D03*
%TO.P,U3,7,VCC*%
%TO.N,+5V*%
X136700000Y-63740000D03*
%TO.P,U3,8,GND*%
%TO.N,GND*%
X136700000Y-66280000D03*
%TO.P,U3,9,XTAL1/PB6*%
%TO.N,unconnected-(U3-XTAL1{slash}PB6-Pad9)*%
X136700000Y-68820000D03*
%TO.P,U3,10,XTAL2/PB7*%
%TO.N,unconnected-(U3-XTAL2{slash}PB7-Pad10)*%
X136700000Y-71360000D03*
%TO.P,U3,11,PD5*%
%TO.N,unconnected-(U3-PD5-Pad11)*%
X136700000Y-73900000D03*
%TO.P,U3,12,PD6*%
%TO.N,unconnected-(U3-PD6-Pad12)*%
X136700000Y-76440000D03*
%TO.P,U3,13,PD7*%
%TO.N,unconnected-(U3-PD7-Pad13)*%
X136700000Y-78980000D03*
%TO.P,U3,14,PB0*%
%TO.N,/MCU/ESP_SLEEP*%
X136700000Y-81520000D03*
%TO.P,U3,15,PB1*%
%TO.N,/MCU/PWM_HEATER*%
X144320000Y-81520000D03*
%TO.P,U3,16,PB2*%
%TO.N,unconnected-(U3-PB2-Pad16)*%
X144320000Y-78980000D03*
%TO.P,U3,17,PB3*%
%TO.N,/MCU/MOSI*%
X144320000Y-76440000D03*
%TO.P,U3,18,PB4*%
%TO.N,/MCU/MISO*%
X144320000Y-73900000D03*
%TO.P,U3,19,PB5*%
%TO.N,/MCU/SCK*%
X144320000Y-71360000D03*
%TO.P,U3,20,AVCC*%
%TO.N,+5V*%
X144320000Y-68820000D03*
%TO.P,U3,21,AREF*%
%TO.N,unconnected-(U3-AREF-Pad21)*%
X144320000Y-66280000D03*
%TO.P,U3,22,GND*%
%TO.N,GND*%
X144320000Y-63740000D03*
%TO.P,U3,23,PC0*%
%TO.N,/MCU/THERM*%
X144320000Y-61200000D03*
%TO.P,U3,24,PC1*%
%TO.N,/MCU/WIFI_STAT*%
X144320000Y-58660000D03*
%TO.P,U3,25,PC2*%
%TO.N,/MCU/VBAT*%
X144320000Y-56120000D03*
%TO.P,U3,26,PC3*%
%TO.N,/MCU/VIBE_SENSE*%
X144320000Y-53580000D03*
%TO.P,U3,27,PC4*%
%TO.N,/MCU/SDA*%
X144320000Y-51040000D03*
%TO.P,U3,28,PC5*%
%TO.N,/MCU/SCL*%
X144320000Y-48500000D03*
%TD*%
D10*
%TO.P,J11,1,Pin_1*%
%TO.N,+5V*%
X137500000Y-109420000D03*
D11*
%TO.P,J11,2,Pin_2*%
%TO.N,/MCU/VIBE_SENSE*%
X137500000Y-111960000D03*
%TO.P,J11,3,Pin_3*%
%TO.N,unconnected-(J11-Pin_3-Pad3)*%
X137500000Y-114500000D03*
%TO.P,J11,4,Pin_4*%
%TO.N,GND*%
X137500000Y-117040000D03*
%TD*%
D19*
%TO.P,Y2,1,1*%
%TO.N,Net-(U4-X1)*%
X148500000Y-94770000D03*
%TO.P,Y2,2,2*%
%TO.N,Net-(U4-X2)*%
X148500000Y-92230000D03*
%TD*%
D20*
%TO.P,U2,J2-1,3V3*%
%TO.N,+3.3V*%
X132000000Y-94760000D03*
D21*
%TO.P,U2,J2-2,EN*%
%TO.N,Net-(U2-EN)*%
X132000000Y-92220000D03*
%TO.P,U2,J2-3,SENSOR_VP*%
%TO.N,unconnected-(U2-SENSOR_VP-PadJ2-3)*%
X132000000Y-89680000D03*
%TO.P,U2,J2-4,SENSOR_VN*%
%TO.N,unconnected-(U2-SENSOR_VN-PadJ2-4)*%
X132000000Y-87140000D03*
%TO.P,U2,J2-5,IO34*%
%TO.N,unconnected-(U2-IO34-PadJ2-5)*%
X132000000Y-84600000D03*
%TO.P,U2,J2-6,IO35*%
%TO.N,unconnected-(U2-IO35-PadJ2-6)*%
X132000000Y-82060000D03*
%TO.P,U2,J2-7,IO32*%
%TO.N,unconnected-(U2-IO32-PadJ2-7)*%
X132000000Y-79520000D03*
%TO.P,U2,J2-8,IO33*%
%TO.N,unconnected-(U2-IO33-PadJ2-8)*%
X132000000Y-76980000D03*
%TO.P,U2,J2-9,IO25*%
%TO.N,unconnected-(U2-IO25-PadJ2-9)*%
X132000000Y-74440000D03*
%TO.P,U2,J2-10,IO26*%
%TO.N,unconnected-(U2-IO26-PadJ2-10)*%
X132000000Y-71900000D03*
%TO.P,U2,J2-11,IO27*%
%TO.N,/MCU/ESP_SLEEP*%
X132000000Y-69360000D03*
%TO.P,U2,J2-12,IO14*%
%TO.N,/MCU/CLK*%
X132000000Y-66820000D03*
%TO.P,U2,J2-13,IO12*%
%TO.N,/MCU/D2*%
X132000000Y-64280000D03*
%TO.P,U2,J2-14,GND1*%
%TO.N,unconnected-(U2-GND1-PadJ2-14)*%
X132000000Y-61740000D03*
%TO.P,U2,J2-15,IO13*%
%TO.N,/MCU/D3*%
X132000000Y-59200000D03*
%TO.P,U2,J2-16,SD2*%
%TO.N,unconnected-(U2-SD2-PadJ2-16)*%
X132000000Y-56660000D03*
%TO.P,U2,J2-17,SD3*%
%TO.N,unconnected-(U2-SD3-PadJ2-17)*%
X132000000Y-54120000D03*
%TO.P,U2,J2-18,CMD*%
%TO.N,unconnected-(U2-CMD-PadJ2-18)*%
X132000000Y-51580000D03*
%TO.P,U2,J2-19,EXT_5V*%
%TO.N,unconnected-(U2-EXT_5V-PadJ2-19)*%
X132000000Y-49040000D03*
%TO.P,U2,J3-1,GND3*%
%TO.N,GND*%
X106600000Y-94760000D03*
%TO.P,U2,J3-2,IO23*%
%TO.N,unconnected-(U2-IO23-PadJ3-2)*%
X106600000Y-92220000D03*
%TO.P,U2,J3-3,IO22*%
%TO.N,unconnected-(U2-IO22-PadJ3-3)*%
X106600000Y-89680000D03*
%TO.P,U2,J3-4,TXD0*%
%TO.N,unconnected-(U2-TXD0-PadJ3-4)*%
X106600000Y-87140000D03*
%TO.P,U2,J3-5,RXD0*%
%TO.N,unconnected-(U2-RXD0-PadJ3-5)*%
X106600000Y-84600000D03*
%TO.P,U2,J3-6,IO21*%
%TO.N,unconnected-(U2-IO21-PadJ3-6)*%
X106600000Y-82060000D03*
%TO.P,U2,J3-7,GND2*%
%TO.N,GND*%
X106600000Y-79520000D03*
%TO.P,U2,J3-8,IO19*%
%TO.N,unconnected-(U2-IO19-PadJ3-8)*%
X106600000Y-76980000D03*
%TO.P,U2,J3-9,IO18*%
%TO.N,unconnected-(U2-IO18-PadJ3-9)*%
X106600000Y-74440000D03*
%TO.P,U2,J3-10,IO5*%
%TO.N,unconnected-(U2-IO5-PadJ3-10)*%
X106600000Y-71900000D03*
%TO.P,U2,J3-11,IO17*%
%TO.N,/MCU/ESP_TX*%
X106600000Y-69360000D03*
%TO.P,U2,J3-12,IO16*%
%TO.N,/MCU/ESP_RX*%
X106600000Y-66820000D03*
%TO.P,U2,J3-13,IO4*%
%TO.N,/MCU/D1*%
X106600000Y-64280000D03*
%TO.P,U2,J3-14,IO0*%
%TO.N,unconnected-(U2-IO0-PadJ3-14)*%
X106600000Y-61740000D03*
%TO.P,U2,J3-15,IO2*%
%TO.N,/MCU/D0*%
X106600000Y-59200000D03*
%TO.P,U2,J3-16,IO15*%
%TO.N,/MCU/CMD*%
X106600000Y-56660000D03*
%TO.P,U2,J3-17,SD1*%
%TO.N,unconnected-(U2-SD1-PadJ3-17)*%
X106600000Y-54120000D03*
%TO.P,U2,J3-18,SD0*%
%TO.N,unconnected-(U2-SD0-PadJ3-18)*%
X106600000Y-51580000D03*
%TO.P,U2,J3-19,CLK*%
%TO.N,unconnected-(U2-CLK-PadJ3-19)*%
X106600000Y-49040000D03*
%TD*%
D15*
%TO.P,J9,1,1*%
%TO.N,+5V*%
X165529801Y-131783400D03*
%TO.P,J9,2,2*%
%TO.N,/MCU/SDA*%
X165529801Y-134283400D03*
%TO.P,J9,3,3*%
%TO.N,/MCU/SCL*%
X165529801Y-136783400D03*
%TO.P,J9,4,4*%
%TO.N,GND*%
X165529801Y-139283400D03*
%TD*%
D10*
%TO.P,U1,1,VCC*%
%TO.N,+3.3V*%
X169500000Y-41920000D03*
D11*
%TO.P,U1,2,GND*%
%TO.N,GND*%
X169500000Y-44460000D03*
%TO.P,U1,3,D0*%
%TO.N,/MCU/D0*%
X169500000Y-47000000D03*
%TO.P,U1,4,CMD*%
%TO.N,/MCU/CMD*%
X169500000Y-49540000D03*
%TO.P,U1,5,CLK*%
%TO.N,/MCU/CLK*%
X169500000Y-52080000D03*
%TO.P,U1,6,D3*%
%TO.N,/MCU/D3*%
X169500000Y-54620000D03*
%TO.P,U1,7,D2*%
%TO.N,/MCU/D2*%
X169500000Y-57160000D03*
%TO.P,U1,8,D1*%
%TO.N,/MCU/D1*%
X169500000Y-59700000D03*
%TO.P,U1,9,CD*%
%TO.N,/MCU/CD*%
X169500000Y-62240000D03*
%TD*%
D22*
%TO.P,U4,1,X1*%
%TO.N,Net-(U4-X1)*%
X144620000Y-94810000D03*
D16*
%TO.P,U4,2,X2*%
%TO.N,Net-(U4-X2)*%
X144620000Y-92270000D03*
%TO.P,U4,3,NC*%
%TO.N,unconnected-(U4-NC-Pad3)*%
X144620000Y-89730000D03*
%TO.P,U4,4,VSS*%
%TO.N,GND*%
X144620000Y-87190000D03*
%TO.P,U4,5,SDA*%
%TO.N,/MCU/SDA*%
X137000000Y-87190000D03*
%TO.P,U4,6,SCL*%
%TO.N,/MCU/SCL*%
X137000000Y-89730000D03*
%TO.P,U4,7,MFP*%
%TO.N,/MCU/MFP*%
X137000000Y-92270000D03*
%TO.P,U4,8,VCC*%
%TO.N,+5V*%
X137000000Y-94810000D03*
%TD*%
D23*
%TO.P,J10,1*%
%TO.N,+5V*%
X147410000Y-112150000D03*
D24*
%TO.P,J10,2*%
%TO.N,/MCU/SDA*%
X148680000Y-109610000D03*
%TO.P,J10,3*%
%TO.N,/MCU/SCL*%
X149950000Y-112150000D03*
%TO.P,J10,4*%
%TO.N,GND*%
X151220000Y-109610000D03*
%TD*%
D16*
%TO.P,J5,1,1*%
%TO.N,Net-(J4-Pad2)*%
X117992601Y-132000000D03*
%TO.P,J5,2,2*%
%TO.N,GND*%
X117992601Y-134500000D03*
%TD*%
D15*
%TO.P,J8,1,1*%
%TO.N,+5V*%
X165529801Y-103783400D03*
%TO.P,J8,2,2*%
%TO.N,/MCU/SDA*%
X165529801Y-106283400D03*
%TO.P,J8,3,3*%
%TO.N,/MCU/SCL*%
X165529801Y-108783400D03*
%TO.P,J8,4,4*%
%TO.N,GND*%
X165529801Y-111283400D03*
%TD*%
D16*
%TO.P,J12,1,1*%
%TO.N,+5V*%
X165500000Y-94500000D03*
%TO.P,J12,2,2*%
%TO.N,/MCU/THERM*%
X165500000Y-97000000D03*
%TD*%
%TO.P,J1,1,1*%
%TO.N,Net-(J1-Pad1)*%
X127462800Y-131934700D03*
%TO.P,J1,2,2*%
%TO.N,Net-(J1-Pad2)*%
X127462800Y-134434700D03*
%TD*%
%TO.P,J4,1,1*%
%TO.N,Net-(J4-Pad1)*%
X108500000Y-132000000D03*
%TO.P,J4,2,2*%
%TO.N,Net-(J4-Pad2)*%
X108500000Y-134500000D03*
%TD*%
%TO.P,J2,1,1*%
%TO.N,Net-(J1-Pad2)*%
X137000000Y-131783400D03*
%TO.P,J2,2,2*%
%TO.N,GND*%
X137000000Y-134283400D03*
%TD*%
D25*
%TO.N,Net-(J1-Pad1)*%
X141000000Y-103500000D03*
X147756478Y-52662761D03*
D26*
%TO.N,*%
X106500000Y-33000000D03*
X168500000Y-155000000D03*
X168500000Y-33000000D03*
D27*
X137500000Y-36500000D03*
D26*
X106500000Y-155000000D03*
D27*
X137500000Y-151500000D03*
D25*
%TO.N,GND*%
X155257028Y-52176268D03*
X153500000Y-61500000D03*
%TO.N,/MCU/PWM_HEATER*%
X140350000Y-78000000D03*
%TO.N,/MCU/SCL*%
X164000000Y-84500000D03*
%TO.N,/MCU/SDA*%
X161000000Y-84500000D03*
%TO.N,Net-(J4-Pad1)*%
X148000000Y-55999986D03*
X138500000Y-121500000D03*
%TD*%
D28*
%TO.N,Net-(U2-EN)*%
X135000000Y-123500000D02*
X133500000Y-122000000D01*
X133500000Y-93720000D02*
X132000000Y-92220000D01*
X142500000Y-111500000D02*
X142500000Y-123500000D01*
X147480000Y-106520000D02*
X142500000Y-111500000D01*
X147480000Y-103060000D02*
X147480000Y-106520000D01*
X149040000Y-101500000D02*
X147480000Y-103060000D01*
X142500000Y-123500000D02*
X135000000Y-123500000D01*
X133500000Y-122000000D02*
X133500000Y-93720000D01*
%TO.N,Net-(J4-Pad1)*%
X140500000Y-111500000D02*
X140500000Y-119500000D01*
X140500000Y-119500000D02*
X138500000Y-121500000D01*
X145000000Y-107000000D02*
X140500000Y-111500000D01*
X146000000Y-57999986D02*
X146000000Y-99000000D01*
X146000000Y-99000000D02*
X145000000Y-100000000D01*
X145000000Y-100000000D02*
X145000000Y-107000000D01*
X148000000Y-55999986D02*
X146000000Y-57999986D01*
%TO.N,/MCU/CLK*%
X130820000Y-66820000D02*
X132000000Y-66820000D01*
X130000000Y-48000000D02*
X130000000Y-66000000D01*
X133000000Y-45000000D02*
X130000000Y-48000000D01*
X146500000Y-45000000D02*
X133000000Y-45000000D01*
X149500000Y-48000000D02*
X146500000Y-45000000D01*
X152000000Y-48000000D02*
X149500000Y-48000000D01*
X156080000Y-52080000D02*
X152000000Y-48000000D01*
X130000000Y-66000000D02*
X130820000Y-66820000D01*
X169500000Y-52080000D02*
X156080000Y-52080000D01*
%TO.N,/MCU/PWM_HEATER*%
X140420000Y-65080000D02*
X140420000Y-77930000D01*
X140500000Y-65000000D02*
X140420000Y-65080000D01*
X142560000Y-49940000D02*
X140500000Y-52000000D01*
X140420000Y-77930000D02*
X140350000Y-78000000D01*
X150440000Y-49940000D02*
X142560000Y-49940000D01*
X151740000Y-51240000D02*
X150440000Y-49940000D01*
X151740000Y-56723935D02*
X151740000Y-51240000D01*
X140500000Y-52000000D02*
X140500000Y-65000000D01*
X167934635Y-72450700D02*
X167466765Y-72450700D01*
X168549300Y-73934635D02*
X168549300Y-73065365D01*
X168549300Y-73065365D02*
X167934635Y-72450700D01*
X167466765Y-72450700D02*
X151740000Y-56723935D01*
X167500000Y-74983935D02*
X168549300Y-73934635D01*
X167500000Y-76000000D02*
X167500000Y-74983935D01*
D29*
%TO.N,+3.3V*%
X130260000Y-96500000D02*
X132000000Y-94760000D01*
X106246963Y-96500000D02*
X130260000Y-96500000D01*
X104500000Y-94753037D02*
X106246963Y-96500000D01*
X106600000Y-41900000D02*
X104500000Y-44000000D01*
X169200000Y-41900000D02*
X106600000Y-41900000D01*
X104500000Y-44000000D02*
X104500000Y-94753037D01*
D28*
%TO.N,Net-(J1-Pad1)*%
X143360000Y-52140000D02*
X147233717Y-52140000D01*
X141000000Y-54500000D02*
X143360000Y-52140000D01*
X141000000Y-103500000D02*
X141000000Y-54500000D01*
X147233717Y-52140000D02*
X147756478Y-52662761D01*
%TO.N,/MCU/VIBE_SENSE*%
X141650000Y-107810000D02*
X137500000Y-111960000D01*
X141650000Y-56250000D02*
X141650000Y-107810000D01*
X144320000Y-53580000D02*
X141650000Y-56250000D01*
%TO.N,/MCU/VBAT*%
X148500000Y-54500000D02*
X167500000Y-73500000D01*
X145940000Y-54500000D02*
X148500000Y-54500000D01*
X144320000Y-56120000D02*
X145940000Y-54500000D01*
%TO.N,/MCU/MFP*%
X135600000Y-57220000D02*
X136700000Y-56120000D01*
X135950700Y-83824935D02*
X135600000Y-83474235D01*
X135600000Y-83474235D02*
X135600000Y-57220000D01*
X135950700Y-91220700D02*
X135950700Y-83824935D01*
X137000000Y-92270000D02*
X135950700Y-91220700D01*
%TO.N,/MCU/ESP_RX*%
X105520000Y-67900000D02*
X106600000Y-66820000D01*
X134000000Y-68887351D02*
X132447351Y-70440000D01*
X106152649Y-70440000D02*
X105520000Y-69807351D01*
X105520000Y-69807351D02*
X105520000Y-67900000D01*
X135420000Y-53580000D02*
X134000000Y-55000000D01*
X134000000Y-55000000D02*
X134000000Y-68887351D01*
X132447351Y-70440000D02*
X106152649Y-70440000D01*
X136700000Y-53580000D02*
X135420000Y-53580000D01*
%TO.N,/MCU/ESP_TX*%
X107960000Y-68000000D02*
X106600000Y-69360000D01*
X132347351Y-68000000D02*
X107960000Y-68000000D01*
X133080000Y-67267351D02*
X132347351Y-68000000D01*
X133080000Y-54660000D02*
X133080000Y-67267351D01*
X136700000Y-51040000D02*
X133080000Y-54660000D01*
%TO.N,/MCU/SCL*%
X166706101Y-87206101D02*
X164000000Y-84500000D01*
X165529801Y-108783400D02*
X166706101Y-107607100D01*
X166706101Y-107607100D02*
X166706101Y-87206101D01*
%TO.N,/MCU/SDA*%
X165529801Y-106283400D02*
X161000000Y-101753599D01*
X161000000Y-101753599D02*
X161000000Y-84500000D01*
%TD*%
%TA.AperFunction,Conductor*%
%TO.N,GND*%
G36*
X150800667Y-109783694D02*
G01*
X150859910Y-109886306D01*
X150943694Y-109970090D01*
X151046306Y-110029333D01*
X151131414Y-110052138D01*
X150424805Y-110758747D01*
X150363482Y-110792232D01*
X150300063Y-110788533D01*
X150299955Y-110788961D01*
X150297726Y-110788396D01*
X150296857Y-110788346D01*
X150294981Y-110787702D01*
X150191889Y-110770499D01*
X150066049Y-110749500D01*
X149833951Y-110749500D01*
X149833945Y-110749500D01*
X149828840Y-110749923D01*
X149828690Y-110748124D01*
X149767157Y-110740689D01*
X149713335Y-110696136D01*
X149692145Y-110629557D01*
X149710313Y-110562091D01*
X149724878Y-110542785D01*
X149788979Y-110473153D01*
X149846490Y-110385124D01*
X149899635Y-110339769D01*
X149968866Y-110330345D01*
X150032202Y-110359846D01*
X150054107Y-110385125D01*
X150068812Y-110407633D01*
X150777861Y-109698584D01*
X150800667Y-109783694D01*
G37*
%TD.AperFunction*%
%TA.AperFunction,Conductor*%
G36*
X171942539Y-29520185D02*
G01*
X171988294Y-29572989D01*
X171999500Y-29624500D01*
X171999500Y-69003950D01*
X171979815Y-69070989D01*
X171927011Y-69116744D01*
X171857853Y-69126688D01*
X171802976Y-69104529D01*
X171788978Y-69094435D01*
X171788975Y-69094434D01*
X171788976Y-69094434D01*
X171788974Y-69094433D01*
X171694106Y-69051107D01*
X171658100Y-69034663D01*
X171591055Y-69014976D01*
X171514365Y-69003950D01*
X171448638Y-68994500D01*
X171448636Y-68994500D01*
X168822987Y-68994500D01*
X168755948Y-68974815D01*
X168710193Y-68922011D01*
X168700249Y-68852853D01*
X168703212Y-68838407D01*
X168721966Y-68768416D01*
X168735514Y-68717854D01*
X168754574Y-68500000D01*
X168735514Y-68282146D01*
X168678914Y-68070910D01*
X168586493Y-67872713D01*
X168461059Y-67693575D01*
X168306425Y-67538941D01*
X168127287Y-67413507D01*
X168127288Y-67413507D01*
X168127286Y-67413506D01*
X167970558Y-67340423D01*
X167929090Y-67321086D01*
X167929086Y-67321085D01*
X167929082Y-67321083D01*
X167717859Y-67264487D01*
X167717849Y-67264485D01*
X167500001Y-67245426D01*
X167499999Y-67245426D01*
X167282150Y-67264485D01*
X167282140Y-67264487D01*
X167070917Y-67321083D01*
X167070908Y-67321087D01*
X166872713Y-67413506D01*
X166775096Y-67481859D01*
X166693575Y-67538941D01*
X166693573Y-67538942D01*
X166693570Y-67538945D01*
X166538945Y-67693570D01*
X166413506Y-67872713D01*
X166321087Y-68070908D01*
X166321083Y-68070917D01*
X166264487Y-68282140D01*
X166264485Y-68282150D01*
X166245426Y-68499999D01*
X166245426Y-68500000D01*
X166264485Y-68717849D01*
X166264487Y-68717859D01*
X166296788Y-68838407D01*
X166295125Y-68908256D01*
X166255962Y-68966119D01*
X166191734Y-68993623D01*
X166177013Y-68994500D01*
X165664643Y-68994500D01*
X165646660Y-68994820D01*
X165639015Y-68995093D01*
X165637770Y-68995138D01*
X165637766Y-68995138D01*
X165637744Y-68995139D01*
X165619758Y-68996103D01*
X165619743Y-68996105D01*
X165479167Y-69026686D01*
X165479162Y-69026687D01*
X165479161Y-69026688D01*
X165463335Y-69032590D01*
X165413695Y-69051105D01*
X165413691Y-69051107D01*
X165287423Y-69120055D01*
X165224066Y-69183409D01*
X165162742Y-69216892D01*
X165093050Y-69211906D01*
X165048706Y-69183406D01*
X152376819Y-56511519D01*
X152343334Y-56450196D01*
X152340500Y-56423838D01*
X152340500Y-51329060D01*
X152340501Y-51329047D01*
X152340501Y-51160944D01*
X152334988Y-51140368D01*
X152299577Y-51008216D01*
X152290209Y-50991990D01*
X152220524Y-50871290D01*
X152220518Y-50871282D01*
X150927590Y-49578355D01*
X150927588Y-49578352D01*
X150808717Y-49459481D01*
X150808709Y-49459475D01*
X150706560Y-49400500D01*
X150671788Y-49380424D01*
X150671787Y-49380423D01*
X150610693Y-49364053D01*
X150519057Y-49339499D01*
X150360943Y-49339499D01*
X150353347Y-49339499D01*
X150353331Y-49339500D01*
X145557512Y-49339500D01*
X145490473Y-49319815D01*
X145444718Y-49267011D01*
X145434774Y-49197853D01*
X145448636Y-49157806D01*
X145448280Y-49157640D01*
X145449887Y-49154193D01*
X145450130Y-49153492D01*
X145450559Y-49152746D01*
X145450568Y-49152734D01*
X145546739Y-48946496D01*
X145605635Y-48726692D01*
X145622634Y-48532384D01*
X145625468Y-48500001D01*
X145625468Y-48499998D01*
X145609457Y-48316998D01*
X145605635Y-48273308D01*
X145546739Y-48053504D01*
X145450568Y-47847266D01*
X145320047Y-47660861D01*
X145320045Y-47660858D01*
X145159141Y-47499954D01*
X144972734Y-47369432D01*
X144972732Y-47369431D01*
X144766497Y-47273261D01*
X144766488Y-47273258D01*
X144546697Y-47214366D01*
X144546693Y-47214365D01*
X144546692Y-47214365D01*
X144546691Y-47214364D01*
X144546686Y-47214364D01*
X144320002Y-47194532D01*
X144319998Y-47194532D01*
X144093313Y-47214364D01*
X144093302Y-47214366D01*
X143873511Y-47273258D01*
X143873502Y-47273261D01*
X143667267Y-47369431D01*
X143667265Y-47369432D01*
X143480858Y-47499954D01*
X143319954Y-47660858D01*
X143189432Y-47847265D01*
X143189431Y-47847267D01*
X143093261Y-48053502D01*
X143093258Y-48053511D01*
X143034366Y-48273302D01*
X143034364Y-48273313D01*
X143014532Y-48499998D01*
X143014532Y-48500001D01*
X143034364Y-48726686D01*
X143034366Y-48726697D01*
X143093258Y-48946488D01*
X143093261Y-48946496D01*
X143189432Y-49152734D01*
X143189435Y-49152738D01*
X143189870Y-49153492D01*
X143189961Y-49153868D01*
X143191720Y-49157640D01*
X143190962Y-49157993D01*
X143206348Y-49221391D01*
X143183501Y-49287419D01*
X143128583Y-49330614D01*
X143082488Y-49339500D01*
X142646669Y-49339500D01*
X142646653Y-49339499D01*
X142639057Y-49339499D01*
X142480943Y-49339499D01*
X142404579Y-49359961D01*
X142328212Y-49380423D01*
X142328211Y-49380424D01*
X142293440Y-49400500D01*
X142191287Y-49459477D01*
X142191282Y-49459481D01*
X140019480Y-51631283D01*
X140018597Y-51632813D01*
X140003201Y-51659481D01*
X139940423Y-51768215D01*
X139899499Y-51920943D01*
X139899499Y-51920945D01*
X139899499Y-52089046D01*
X139899500Y-52089059D01*
X139899500Y-64747306D01*
X139882887Y-64809306D01*
X139860423Y-64848215D01*
X139819499Y-65000943D01*
X139819499Y-65000945D01*
X139819499Y-65169046D01*
X139819500Y-65169059D01*
X139819500Y-77347060D01*
X139799815Y-77414099D01*
X139783181Y-77434741D01*
X139720184Y-77497737D01*
X139624211Y-77650476D01*
X139564631Y-77820745D01*
X139564630Y-77820750D01*
X139544435Y-77999996D01*
X139544435Y-78000003D01*
X139564630Y-78179249D01*
X139564631Y-78179254D01*
X139624211Y-78349523D01*
X139690697Y-78455334D01*
X139720184Y-78502262D01*
X139847738Y-78629816D01*
X139879861Y-78650000D01*
X139995547Y-78722691D01*
X140000478Y-78725789D01*
X140170745Y-78785368D01*
X140170749Y-78785369D01*
X140261607Y-78795605D01*
X140289383Y-78798735D01*
X140353797Y-78825801D01*
X140393352Y-78883395D01*
X140399500Y-78921955D01*
X140399500Y-102917587D01*
X140379815Y-102984626D01*
X140372450Y-102994896D01*
X140370186Y-102997734D01*
X140274211Y-103150476D01*
X140214631Y-103320745D01*
X140214630Y-103320750D01*
X140194435Y-103499996D01*
X140194435Y-103500003D01*
X140214630Y-103679249D01*
X140214631Y-103679254D01*
X140274211Y-103849523D01*
X140288246Y-103871859D01*
X140370184Y-104002262D01*
X140497738Y-104129816D01*
X140650478Y-104225789D01*
X140820745Y-104285368D01*
X140820749Y-104285369D01*
X140911607Y-104295605D01*
X140939383Y-104298735D01*
X141003797Y-104325801D01*
X141043352Y-104383395D01*
X141049500Y-104421955D01*
X141049500Y-107509902D01*
X141029815Y-107576941D01*
X141013181Y-107597583D01*
X139062180Y-109548584D01*
X139000857Y-109582069D01*
X138931165Y-109577085D01*
X138875232Y-109535213D01*
X138850815Y-109469749D01*
X138850499Y-109460903D01*
X138850499Y-108522129D01*
X138850498Y-108522123D01*
X138850497Y-108522116D01*
X138844091Y-108462517D01*
X138833281Y-108433535D01*
X138793797Y-108327671D01*
X138793793Y-108327664D01*
X138707547Y-108212455D01*
X138707544Y-108212452D01*
X138592335Y-108126206D01*
X138592328Y-108126202D01*
X138457482Y-108075908D01*
X138457483Y-108075908D01*
X138397883Y-108069501D01*
X138397881Y-108069500D01*
X138397873Y-108069500D01*
X138397864Y-108069500D01*
X136602129Y-108069500D01*
X136602123Y-108069501D01*
X136542516Y-108075908D01*
X136407671Y-108126202D01*
X136407664Y-108126206D01*
X136292455Y-108212452D01*
X136292452Y-108212455D01*
X136206206Y-108327664D01*
X136206202Y-108327671D01*
X136155908Y-108462517D01*
X136149501Y-108522116D01*
X136149501Y-108522123D01*
X136149500Y-108522135D01*
X136149500Y-110317870D01*
X136149501Y-110317876D01*
X136155908Y-110377483D01*
X136206202Y-110512328D01*
X136206206Y-110512335D01*
X136292452Y-110627544D01*
X136292455Y-110627547D01*
X136407664Y-110713793D01*
X136407671Y-110713797D01*
X136539081Y-110762810D01*
X136595015Y-110804681D01*
X136619432Y-110870145D01*
X136604580Y-110938418D01*
X136583430Y-110966673D01*
X136461503Y-111088600D01*
X136325965Y-111282169D01*
X136325964Y-111282171D01*
X136226098Y-111496335D01*
X136226094Y-111496344D01*
X136164938Y-111724586D01*
X136164936Y-111724596D01*
X136144341Y-111959999D01*
X136144341Y-111960000D01*
X136164936Y-112195403D01*
X136164938Y-112195413D01*
X136226094Y-112423655D01*
X136226096Y-112423659D01*
X136226097Y-112423663D01*
X136284122Y-112548098D01*
X136325965Y-112637830D01*
X136325967Y-112637834D01*
X136461501Y-112831395D01*
X136461506Y-112831402D01*
X136628597Y-112998493D01*
X136628603Y-112998498D01*
X136814158Y-113128425D01*
X136857783Y-113183002D01*
X136864977Y-113252500D01*
X136833454Y-113314855D01*
X136814158Y-113331575D01*
X136628597Y-113461505D01*
X136461505Y-113628597D01*
X136325965Y-113822169D01*
X136325964Y-113822171D01*
X136226098Y-114036335D01*
X136226094Y-114036344D01*
X136164938Y-114264586D01*
X136164936Y-114264596D01*
X136144341Y-114499999D01*
X136144341Y-114500000D01*
X136164936Y-114735403D01*
X136164938Y-114735413D01*
X136226094Y-114963655D01*
X136226096Y-114963659D01*
X136226097Y-114963663D01*
X136292592Y-115106262D01*
X136325965Y-115177830D01*
X136325967Y-115177834D01*
X136434281Y-115332521D01*
X136440847Y-115341899D01*
X136461501Y-115371395D01*
X136461506Y-115371402D01*
X136628597Y-115538493D01*
X136628603Y-115538498D01*
X136814594Y-115668730D01*
X136858219Y-115723307D01*
X136865413Y-115792805D01*
X136833890Y-115855160D01*
X136814595Y-115871880D01*
X136628922Y-116001890D01*
X136628920Y-116001891D01*
X136461891Y-116168920D01*
X136461886Y-116168926D01*
X136326400Y-116362420D01*
X136326399Y-116362422D01*
X136226570Y-116576507D01*
X136226567Y-116576513D01*
X136169364Y-116789999D01*
X136169364Y-116790000D01*
X137066988Y-116790000D01*
X137034075Y-116847007D01*
X137000000Y-116974174D01*
X137000000Y-117105826D01*
X137034075Y-117232993D01*
X137066988Y-117290000D01*
X136169364Y-117290000D01*
X136226567Y-117503486D01*
X136226570Y-117503492D01*
X136326399Y-117717578D01*
X136461894Y-117911082D01*
X136628917Y-118078105D01*
X136822421Y-118213600D01*
X137036507Y-118313429D01*
X137036516Y-118313433D01*
X137250000Y-118370634D01*
X137250000Y-117473012D01*
X137307007Y-117505925D01*
X137434174Y-117540000D01*
X137565826Y-117540000D01*
X137692993Y-117505925D01*
X137750000Y-117473012D01*
X137750000Y-118370633D01*
X137963483Y-118313433D01*
X137963492Y-118313429D01*
X138177578Y-118213600D01*
X138371082Y-118078105D01*
X138538105Y-117911082D01*
X138673600Y-117717578D01*
X138773429Y-117503492D01*
X138773432Y-117503486D01*
X138830636Y-117290000D01*
X137933012Y-117290000D01*
X137965925Y-117232993D01*
X138000000Y-117105826D01*
X138000000Y-116974174D01*
X137965925Y-116847007D01*
X137933012Y-116790000D01*
X138830636Y-116790000D01*
X138830635Y-116789999D01*
X138773432Y-116576513D01*
X138773429Y-116576507D01*
X138673600Y-116362422D01*
X138673599Y-116362420D01*
X138538113Y-116168926D01*
X138538108Y-116168920D01*
X138371078Y-116001890D01*
X138185405Y-115871879D01*
X138141780Y-115817302D01*
X138134588Y-115747804D01*
X138166110Y-115685449D01*
X138185406Y-115668730D01*
X138371401Y-115538495D01*
X138538495Y-115371401D01*
X138674035Y-115177830D01*
X138773903Y-114963663D01*
X138835063Y-114735408D01*
X138855659Y-114500000D01*
X138835063Y-114264592D01*
X138773903Y-114036337D01*
X138674035Y-113822171D01*
X138538495Y-113628599D01*
X138538494Y-113628597D01*
X138371402Y-113461506D01*
X138371396Y-113461501D01*
X138185842Y-113331575D01*
X138142217Y-113276998D01*
X138135023Y-113207500D01*
X138166546Y-113145145D01*
X138185842Y-113128425D01*
X138246789Y-113085749D01*
X138371401Y-112998495D01*
X138538495Y-112831401D01*
X138674035Y-112637830D01*
X138773903Y-112423663D01*
X138835063Y-112195408D01*
X138855659Y-111960000D01*
X138835063Y-111724592D01*
X138800671Y-111596239D01*
X138802334Y-111526393D01*
X138832763Y-111476470D01*
X142008506Y-108300728D01*
X142008511Y-108300724D01*
X142018714Y-108290520D01*
X142018716Y-108290520D01*
X142130520Y-108178716D01*
X142193575Y-108069501D01*
X142209577Y-108041785D01*
X142250500Y-107889058D01*
X142250500Y-107730943D01*
X142250500Y-56550096D01*
X142270185Y-56483057D01*
X142286815Y-56462419D01*
X142810571Y-55938662D01*
X142871894Y-55905178D01*
X142941586Y-55910162D01*
X142997519Y-55952034D01*
X143021936Y-56017498D01*
X143021780Y-56037151D01*
X143014532Y-56119997D01*
X143014532Y-56120001D01*
X143034364Y-56346686D01*
X143034366Y-56346697D01*
X143093258Y-56566488D01*
X143093261Y-56566497D01*
X143189431Y-56772732D01*
X143189432Y-56772734D01*
X143319954Y-56959141D01*
X143480858Y-57120045D01*
X143480861Y-57120047D01*
X143667266Y-57250568D01*
X143725275Y-57277618D01*
X143777714Y-57323791D01*
X143796866Y-57390984D01*
X143776650Y-57457865D01*
X143725275Y-57502382D01*
X143667267Y-57529431D01*
X143667265Y-57529432D01*
X143480858Y-57659954D01*
X143319954Y-57820858D01*
X143189432Y-58007265D01*
X143189431Y-58007267D01*
X143093261Y-58213502D01*
X143093258Y-58213511D01*
X143034366Y-58433302D01*
X143034364Y-58433313D01*
X143014532Y-58659998D01*
X143014532Y-58660001D01*
X143034364Y-58886686D01*
X143034366Y-58886697D01*
X143093258Y-59106488D01*
X143093261Y-59106497D01*
X143189431Y-59312732D01*
X143189432Y-59312734D01*
X143319954Y-59499141D01*
X143480858Y-59660045D01*
X143480861Y-59660047D01*
X143667266Y-59790568D01*
X143725275Y-59817618D01*
X143777714Y-59863791D01*
X143796866Y-59930984D01*
X143776650Y-59997865D01*
X143725275Y-60042382D01*
X143667267Y-60069431D01*
X143667265Y-60069432D01*
X143480858Y-60199954D01*
X143319954Y-60360858D01*
X143189432Y-60547265D01*
X143189431Y-60547267D01*
X143093261Y-60753502D01*
X143093258Y-60753511D01*
X143034366Y-60973302D01*
X143034364Y-60973313D01*
X143014532Y-61199998D01*
X143014532Y-61200001D01*
X143034364Y-61426686D01*
X143034366Y-61426697D01*
X143093258Y-61646488D01*
X143093261Y-61646497D01*
X143189431Y-61852732D01*
X143189432Y-61852734D01*
X143319954Y-62039141D01*
X143480858Y-62200045D01*
X143480861Y-62200047D01*
X143667266Y-62330568D01*
X143725865Y-62357893D01*
X143778305Y-62404065D01*
X143797457Y-62471258D01*
X143777242Y-62538139D01*
X143725867Y-62582657D01*
X143667515Y-62609867D01*
X143481179Y-62740342D01*
X143320342Y-62901179D01*
X143189865Y-63087517D01*
X143093734Y-63293673D01*
X143093730Y-63293682D01*
X143041127Y-63489999D01*
X143041128Y-63490000D01*
X144004314Y-63490000D01*
X143999920Y-63494394D01*
X143947259Y-63585606D01*
X143920000Y-63687339D01*
X143920000Y-63792661D01*
X143947259Y-63894394D01*
X143999920Y-63985606D01*
X144004314Y-63990000D01*
X143041128Y-63990000D01*
X143093730Y-64186317D01*
X143093734Y-64186326D01*
X143189865Y-64392482D01*
X143320342Y-64578820D01*
X143481179Y-64739657D01*
X143667518Y-64870134D01*
X143667520Y-64870135D01*
X143725865Y-64897342D01*
X143778305Y-64943514D01*
X143797457Y-65010707D01*
X143777242Y-65077589D01*
X143725867Y-65122105D01*
X143724685Y-65122657D01*
X143667264Y-65149433D01*
X143480858Y-65279954D01*
X143319954Y-65440858D01*
X143189432Y-65627265D01*
X143189431Y-65627267D01*
X143093261Y-65833502D01*
X143093258Y-65833511D01*
X143034366Y-66053302D01*
X143034364Y-66053313D01*
X143014532Y-66279998D01*
X143014532Y-66279999D01*
X143034364Y-66506686D01*
X143034366Y-66506697D01*
X143093258Y-66726488D01*
X143093261Y-66726497D01*
X143189431Y-66932732D01*
X143189432Y-66932734D01*
X143319954Y-67119141D01*
X143480858Y-67280045D01*
X143480861Y-67280047D01*
X143667266Y-67410568D01*
X143724681Y-67437341D01*
X143725275Y-67437618D01*
X143777714Y-67483791D01*
X143796866Y-67550984D01*
X143776650Y-67617865D01*
X143725275Y-67662382D01*
X143667267Y-67689431D01*
X143667265Y-67689432D01*
X143480858Y-67819954D01*
X143319954Y-67980858D01*
X143189432Y-68167265D01*
X143189431Y-68167267D01*
X143093261Y-68373502D01*
X143093258Y-68373511D01*
X143034366Y-68593302D01*
X143034364Y-68593313D01*
X143014532Y-68819998D01*
X143014532Y-68820001D01*
X143034364Y-69046686D01*
X143034366Y-69046697D01*
X143093258Y-69266488D01*
X143093261Y-69266497D01*
X143189431Y-69472732D01*
X143189432Y-69472734D01*
X143319954Y-69659141D01*
X143480858Y-69820045D01*
X143508643Y-69839500D01*
X143667266Y-69950568D01*
X143725275Y-69977618D01*
X143777714Y-70023791D01*
X143796866Y-70090984D01*
X143776650Y-70157865D01*
X143725275Y-70202382D01*
X143667267Y-70229431D01*
X143667265Y-70229432D01*
X143480858Y-70359954D01*
X143319954Y-70520858D01*
X143189432Y-70707265D01*
X143189431Y-70707267D01*
X143093261Y-70913502D01*
X143093258Y-70913511D01*
X143034366Y-71133302D01*
X143034364Y-71133313D01*
X143014532Y-71359998D01*
X143014532Y-71360001D01*
X143034364Y-71586686D01*
X143034366Y-71586697D01*
X143093258Y-71806488D01*
X143093261Y-71806497D01*
X143189431Y-72012732D01*
X143189432Y-72012734D01*
X143319954Y-72199141D01*
X143480858Y-72360045D01*
X143480861Y-72360047D01*
X143667266Y-72490568D01*
X143725275Y-72517618D01*
X143777714Y-72563791D01*
X143796866Y-72630984D01*
X143776650Y-72697865D01*
X143725275Y-72742382D01*
X143667267Y-72769431D01*
X143667265Y-72769432D01*
X143480858Y-72899954D01*
X143319954Y-73060858D01*
X143189432Y-73247265D01*
X143189431Y-73247267D01*
X143093261Y-73453502D01*
X143093258Y-73453511D01*
X143034366Y-73673302D01*
X143034364Y-73673313D01*
X143014532Y-73899998D01*
X143014532Y-73900001D01*
X143034364Y-74126686D01*
X143034366Y-74126697D01*
X143093258Y-74346488D01*
X143093261Y-74346497D01*
X143189431Y-74552732D01*
X143189432Y-74552734D01*
X143319954Y-74739141D01*
X143480858Y-74900045D01*
X143480861Y-74900047D01*
X143667266Y-75030568D01*
X143725275Y-75057618D01*
X143777714Y-75103791D01*
X143796866Y-75170984D01*
X143776650Y-75237865D01*
X143725275Y-75282382D01*
X143667267Y-75309431D01*
X143667265Y-75309432D01*
X143480858Y-75439954D01*
X143319954Y-75600858D01*
X143189432Y-75787265D01*
X143189431Y-75787267D01*
X143093261Y-75993502D01*
X143093258Y-75993511D01*
X143034366Y-76213302D01*
X143034364Y-76213313D01*
X143014532Y-76439998D01*
X143014532Y-76440001D01*
X143034364Y-76666686D01*
X143034366Y-76666697D01*
X143093258Y-76886488D01*
X143093261Y-76886497D01*
X143189431Y-77092732D01*
X143189432Y-77092734D01*
X143319954Y-77279141D01*
X143480858Y-77440045D01*
X143480861Y-77440047D01*
X143667266Y-77570568D01*
X143725275Y-77597618D01*
X143777714Y-77643791D01*
X143796866Y-77710984D01*
X143776650Y-77777865D01*
X143725275Y-77822382D01*
X143667267Y-77849431D01*
X143667265Y-77849432D01*
X143480858Y-77979954D01*
X143319954Y-78140858D01*
X143189432Y-78327265D01*
X143189431Y-78327267D01*
X143093261Y-78533502D01*
X143093258Y-78533511D01*
X143034366Y-78753302D01*
X143034364Y-78753313D01*
X143014532Y-78979998D01*
X143014532Y-78980001D01*
X143034364Y-79206686D01*
X143034366Y-79206697D01*
X143093258Y-79426488D01*
X143093261Y-79426497D01*
X143189431Y-79632732D01*
X143189432Y-79632734D01*
X143319954Y-79819141D01*
X143480858Y-79980045D01*
X143480861Y-79980047D01*
X143667266Y-80110568D01*
X143725275Y-80137618D01*
X143777714Y-80183791D01*
X143796866Y-80250984D01*
X143776650Y-80317865D01*
X143725275Y-80362382D01*
X143667267Y-80389431D01*
X143667265Y-80389432D01*
X143480858Y-80519954D01*
X143319954Y-80680858D01*
X143189432Y-80867265D01*
X143189431Y-80867267D01*
X143093261Y-81073502D01*
X143093258Y-81073511D01*
X143034366Y-81293302D01*
X143034364Y-81293313D01*
X143014532Y-81519998D01*
X143014532Y-81520001D01*
X143034364Y-81746686D01*
X143034366Y-81746697D01*
X143093258Y-81966488D01*
X143093261Y-81966497D01*
X143189431Y-82172732D01*
X143189432Y-82172734D01*
X143319954Y-82359141D01*
X143480858Y-82520045D01*
X143480861Y-82520047D01*
X143667266Y-82650568D01*
X143873504Y-82746739D01*
X144093308Y-82805635D01*
X144255230Y-82819801D01*
X144319998Y-82825468D01*
X144320000Y-82825468D01*
X144320002Y-82825468D01*
X144376673Y-82820509D01*
X144546692Y-82805635D01*
X144766496Y-82746739D01*
X144972734Y-82650568D01*
X145159139Y-82520047D01*
X145159141Y-82520045D01*
X145187819Y-82491368D01*
X145249142Y-82457883D01*
X145318834Y-82462867D01*
X145374767Y-82504739D01*
X145399184Y-82570203D01*
X145399500Y-82579049D01*
X145399500Y-85980396D01*
X145379815Y-86047435D01*
X145327011Y-86093190D01*
X145257853Y-86103134D01*
X145223095Y-86092778D01*
X145048919Y-86011559D01*
X145048910Y-86011555D01*
X144837771Y-85954981D01*
X144837761Y-85954979D01*
X144620002Y-85935928D01*
X144619998Y-85935928D01*
X144402238Y-85954979D01*
X144402228Y-85954981D01*
X144191089Y-86011555D01*
X144191080Y-86011559D01*
X143992960Y-86103944D01*
X143930931Y-86147376D01*
X143930930Y-86147377D01*
X144494427Y-86710874D01*
X144428821Y-86728454D01*
X144315879Y-86793661D01*
X144223661Y-86885879D01*
X144158454Y-86998821D01*
X144140874Y-87064427D01*
X143577377Y-86500930D01*
X143577376Y-86500931D01*
X143533944Y-86562960D01*
X143441559Y-86761080D01*
X143441555Y-86761089D01*
X143384981Y-86972228D01*
X143384979Y-86972238D01*
X143365928Y-87189998D01*
X143365928Y-87190001D01*
X143384979Y-87407761D01*
X143384981Y-87407771D01*
X143441555Y-87618910D01*
X143441559Y-87618919D01*
X143533941Y-87817034D01*
X143533942Y-87817036D01*
X143577377Y-87879067D01*
X143577378Y-87879068D01*
X144140874Y-87315571D01*
X144158454Y-87381179D01*
X144223661Y-87494121D01*
X144315879Y-87586339D01*
X144428821Y-87651546D01*
X144494426Y-87669124D01*
X143930930Y-88232621D01*
X143992965Y-88276058D01*
X143992967Y-88276059D01*
X144145832Y-88347341D01*
X144198272Y-88393513D01*
X144217424Y-88460706D01*
X144197209Y-88527588D01*
X144145833Y-88572105D01*
X143992713Y-88643506D01*
X143873201Y-88727190D01*
X143813575Y-88768941D01*
X143813573Y-88768942D01*
X143813570Y-88768945D01*
X143658945Y-88923570D01*
X143533506Y-89102713D01*
X143441087Y-89300908D01*
X143441083Y-89300917D01*
X143384487Y-89512140D01*
X143384485Y-89512150D01*
X143365426Y-89729999D01*
X143365426Y-89730000D01*
X143384485Y-89947849D01*
X143384487Y-89947859D01*
X143441083Y-90159082D01*
X143441085Y-90159086D01*
X143441086Y-90159090D01*
X143487296Y-90258188D01*
X143533506Y-90357286D01*
X143533507Y-90357287D01*
X143658941Y-90536425D01*
X143813575Y-90691059D01*
X143992713Y-90816493D01*
X144133482Y-90882135D01*
X144145241Y-90887618D01*
X144197680Y-90933790D01*
X144216832Y-91000984D01*
X144196616Y-91067865D01*
X144145241Y-91112382D01*
X143992713Y-91183506D01*
X143884648Y-91259175D01*
X143813575Y-91308941D01*
X143813573Y-91308942D01*
X143813570Y-91308945D01*
X143658945Y-91463570D01*
X143533506Y-91642713D01*
X143441087Y-91840908D01*
X143441083Y-91840917D01*
X143384487Y-92052140D01*
X143384485Y-92052150D01*
X143365426Y-92269999D01*
X143365426Y-92270000D01*
X143384485Y-92487849D01*
X143384487Y-92487859D01*
X143441083Y-92699082D01*
X143441085Y-92699086D01*
X143441086Y-92699090D01*
X143487296Y-92798188D01*
X143533506Y-92897286D01*
X143533507Y-92897287D01*
X143658941Y-93076425D01*
X143813575Y-93231059D01*
X143961486Y-93334627D01*
X144005108Y-93389202D01*
X144012301Y-93458701D01*
X143980779Y-93521055D01*
X143920549Y-93556469D01*
X143890362Y-93560200D01*
X143822830Y-93560200D01*
X143822823Y-93560201D01*
X143763216Y-93566608D01*
X143628371Y-93616902D01*
X143628364Y-93616906D01*
X143513155Y-93703152D01*
X143513152Y-93703155D01*
X143426906Y-93818364D01*
X143426902Y-93818371D01*
X143376608Y-93953217D01*
X143370201Y-94012816D01*
X143370200Y-94012835D01*
X143370200Y-95607170D01*
X143370201Y-95607176D01*
X143376608Y-95666783D01*
X143426902Y-95801628D01*
X143426906Y-95801635D01*
X143513152Y-95916844D01*
X143513155Y-95916847D01*
X143628364Y-96003093D01*
X143628371Y-96003097D01*
X143763217Y-96053391D01*
X143763216Y-96053391D01*
X143770144Y-96054135D01*
X143822827Y-96059800D01*
X145275500Y-96059799D01*
X145342539Y-96079484D01*
X145388294Y-96132287D01*
X145399500Y-96183799D01*
X145399500Y-98699902D01*
X145379815Y-98766941D01*
X145363181Y-98787583D01*
X144519481Y-99631282D01*
X144519479Y-99631285D01*
X144469361Y-99718094D01*
X144469359Y-99718096D01*
X144440425Y-99768209D01*
X144440424Y-99768210D01*
X144440423Y-99768215D01*
X144399499Y-99920943D01*
X144399499Y-99920945D01*
X144399499Y-100089046D01*
X144399500Y-100089059D01*
X144399500Y-106699902D01*
X144379815Y-106766941D01*
X144363181Y-106787583D01*
X140019481Y-111131282D01*
X140019479Y-111131284D01*
X140001344Y-111162697D01*
X139980096Y-111199500D01*
X139970212Y-111216620D01*
X139940428Y-111268207D01*
X139940423Y-111268215D01*
X139899499Y-111420943D01*
X139899499Y-111420945D01*
X139899499Y-111589046D01*
X139899500Y-111589059D01*
X139899500Y-119199902D01*
X139879815Y-119266941D01*
X139863181Y-119287583D01*
X138481465Y-120669298D01*
X138420142Y-120702783D01*
X138407668Y-120704837D01*
X138320750Y-120714630D01*
X138150478Y-120774210D01*
X137997737Y-120870184D01*
X137870184Y-120997737D01*
X137774211Y-121150476D01*
X137714631Y-121320745D01*
X137714630Y-121320750D01*
X137694435Y-121499996D01*
X137694435Y-121500003D01*
X137714630Y-121679249D01*
X137714631Y-121679254D01*
X137774211Y-121849523D01*
X137827827Y-121934851D01*
X137870184Y-122002262D01*
X137997738Y-122129816D01*
X138150478Y-122225789D01*
X138320745Y-122285368D01*
X138320750Y-122285369D01*
X138499996Y-122305565D01*
X138500000Y-122305565D01*
X138500004Y-122305565D01*
X138679249Y-122285369D01*
X138679252Y-122285368D01*
X138679255Y-122285368D01*
X138849522Y-122225789D01*
X139002262Y-122129816D01*
X139129816Y-122002262D01*
X139225789Y-121849522D01*
X139285368Y-121679255D01*
X139295161Y-121592329D01*
X139322226Y-121527918D01*
X139330690Y-121518543D01*
X140858506Y-119990728D01*
X140858511Y-119990724D01*
X140868714Y-119980520D01*
X140868716Y-119980520D01*
X140980520Y-119868716D01*
X141032560Y-119778580D01*
X141059577Y-119731785D01*
X141100500Y-119579057D01*
X141100500Y-119420943D01*
X141100500Y-111800096D01*
X141120185Y-111733057D01*
X141136814Y-111712420D01*
X141765373Y-111083860D01*
X141826695Y-111050377D01*
X141896387Y-111055361D01*
X141952320Y-111097233D01*
X141976737Y-111162697D01*
X141961885Y-111230970D01*
X141960440Y-111233542D01*
X141940425Y-111268207D01*
X141940424Y-111268210D01*
X141936354Y-111283400D01*
X141899499Y-111420943D01*
X141899499Y-111420945D01*
X141899499Y-111589046D01*
X141899500Y-111589059D01*
X141899500Y-122775500D01*
X141879815Y-122842539D01*
X141827011Y-122888294D01*
X141775500Y-122899500D01*
X135300097Y-122899500D01*
X135233058Y-122879815D01*
X135212416Y-122863181D01*
X134136819Y-121787584D01*
X134103334Y-121726261D01*
X134100500Y-121699903D01*
X134100500Y-93640945D01*
X134100500Y-93640943D01*
X134059577Y-93488216D01*
X134058245Y-93485909D01*
X133980524Y-93351290D01*
X133980521Y-93351286D01*
X133980520Y-93351284D01*
X133868716Y-93239480D01*
X133868715Y-93239479D01*
X133864385Y-93235149D01*
X133864374Y-93235139D01*
X133275610Y-92646375D01*
X133242125Y-92585052D01*
X133243517Y-92526598D01*
X133253901Y-92487849D01*
X133265863Y-92443206D01*
X133285391Y-92220000D01*
X133265863Y-91996794D01*
X133207872Y-91780370D01*
X133113181Y-91577305D01*
X132999801Y-91415380D01*
X132984668Y-91393768D01*
X132916319Y-91325419D01*
X132826233Y-91235333D01*
X132826229Y-91235330D01*
X132826228Y-91235329D01*
X132642700Y-91106821D01*
X132642692Y-91106817D01*
X132563904Y-91070078D01*
X132547399Y-91062381D01*
X132494960Y-91016210D01*
X132475808Y-90949017D01*
X132496023Y-90882135D01*
X132547400Y-90837618D01*
X132642696Y-90793181D01*
X132826233Y-90664667D01*
X132984667Y-90506233D01*
X133113181Y-90322696D01*
X133207872Y-90119630D01*
X133265863Y-89903206D01*
X133285391Y-89680000D01*
X133265863Y-89456794D01*
X133207872Y-89240370D01*
X133113181Y-89037305D01*
X132984667Y-88853767D01*
X132826233Y-88695333D01*
X132826229Y-88695330D01*
X132826228Y-88695329D01*
X132642700Y-88566821D01*
X132642692Y-88566817D01*
X132596988Y-88545505D01*
X132547399Y-88522381D01*
X132494960Y-88476210D01*
X132475808Y-88409017D01*
X132496023Y-88342135D01*
X132547400Y-88297618D01*
X132642696Y-88253181D01*
X132826233Y-88124667D01*
X132984667Y-87966233D01*
X133113181Y-87782696D01*
X133207872Y-87579630D01*
X133265863Y-87363206D01*
X133285391Y-87140000D01*
X133284257Y-87127044D01*
X133273039Y-86998821D01*
X133265863Y-86916794D01*
X133207872Y-86700370D01*
X133113181Y-86497305D01*
X132984667Y-86313767D01*
X132826233Y-86155333D01*
X132826229Y-86155330D01*
X132826228Y-86155329D01*
X132642700Y-86026821D01*
X132642692Y-86026817D01*
X132547400Y-85982382D01*
X132494960Y-85936210D01*
X132475808Y-85869017D01*
X132496023Y-85802135D01*
X132547400Y-85757618D01*
X132642696Y-85713181D01*
X132826233Y-85584667D01*
X132984667Y-85426233D01*
X133113181Y-85242696D01*
X133207872Y-85039630D01*
X133265863Y-84823206D01*
X133285391Y-84600000D01*
X133265863Y-84376794D01*
X133207872Y-84160370D01*
X133113181Y-83957305D01*
X133013437Y-83814855D01*
X132984668Y-83773768D01*
X132916319Y-83705419D01*
X132826233Y-83615333D01*
X132826229Y-83615330D01*
X132826228Y-83615329D01*
X132642700Y-83486821D01*
X132642692Y-83486817D01*
X132547400Y-83442382D01*
X132494960Y-83396210D01*
X132475808Y-83329017D01*
X132496023Y-83262135D01*
X132547400Y-83217618D01*
X132642696Y-83173181D01*
X132826233Y-83044667D01*
X132984667Y-82886233D01*
X133113181Y-82702696D01*
X133207872Y-82499630D01*
X133265863Y-82283206D01*
X133285391Y-82060000D01*
X133265863Y-81836794D01*
X133207872Y-81620370D01*
X133113181Y-81417305D01*
X133013437Y-81274855D01*
X132984668Y-81233768D01*
X132916319Y-81165419D01*
X132826233Y-81075333D01*
X132826229Y-81075330D01*
X132826228Y-81075329D01*
X132642700Y-80946821D01*
X132642692Y-80946817D01*
X132547400Y-80902382D01*
X132494960Y-80856210D01*
X132475808Y-80789017D01*
X132496023Y-80722135D01*
X132547400Y-80677618D01*
X132547994Y-80677341D01*
X132642696Y-80633181D01*
X132826233Y-80504667D01*
X132984667Y-80346233D01*
X133113181Y-80162696D01*
X133207872Y-79959630D01*
X133265863Y-79743206D01*
X133285391Y-79520000D01*
X133265863Y-79296794D01*
X133207872Y-79080370D01*
X133113181Y-78877305D01*
X133001468Y-78717761D01*
X132984668Y-78693768D01*
X132918400Y-78627500D01*
X132826233Y-78535333D01*
X132826229Y-78535330D01*
X132826228Y-78535329D01*
X132642700Y-78406821D01*
X132642692Y-78406817D01*
X132547400Y-78362382D01*
X132494960Y-78316210D01*
X132475808Y-78249017D01*
X132496023Y-78182135D01*
X132547400Y-78137618D01*
X132642696Y-78093181D01*
X132826233Y-77964667D01*
X132984667Y-77806233D01*
X133113181Y-77622696D01*
X133207872Y-77419630D01*
X133265863Y-77203206D01*
X133285391Y-76980000D01*
X133283733Y-76961054D01*
X133279811Y-76916226D01*
X133265863Y-76756794D01*
X133207872Y-76540370D01*
X133113181Y-76337305D01*
X133048924Y-76245536D01*
X132984668Y-76153768D01*
X132916319Y-76085419D01*
X132826233Y-75995333D01*
X132826229Y-75995330D01*
X132826228Y-75995329D01*
X132642700Y-75866821D01*
X132642692Y-75866817D01*
X132547400Y-75822382D01*
X132494960Y-75776210D01*
X132475808Y-75709017D01*
X132496023Y-75642135D01*
X132547400Y-75597618D01*
X132642696Y-75553181D01*
X132826233Y-75424667D01*
X132984667Y-75266233D01*
X133113181Y-75082696D01*
X133207872Y-74879630D01*
X133265863Y-74663206D01*
X133285391Y-74440000D01*
X133265863Y-74216794D01*
X133207872Y-74000370D01*
X133113181Y-73797305D01*
X132984667Y-73613767D01*
X132826233Y-73455333D01*
X132826229Y-73455330D01*
X132826228Y-73455329D01*
X132642700Y-73326821D01*
X132642692Y-73326817D01*
X132547400Y-73282382D01*
X132494960Y-73236210D01*
X132475808Y-73169017D01*
X132496023Y-73102135D01*
X132547400Y-73057618D01*
X132642696Y-73013181D01*
X132826233Y-72884667D01*
X132984667Y-72726233D01*
X133113181Y-72542696D01*
X133207872Y-72339630D01*
X133265863Y-72123206D01*
X133285391Y-71900000D01*
X133285382Y-71899901D01*
X133279623Y-71834075D01*
X133265863Y-71676794D01*
X133207872Y-71460370D01*
X133113181Y-71257305D01*
X132984667Y-71073767D01*
X132984665Y-71073764D01*
X132911425Y-71000524D01*
X132877940Y-70939201D01*
X132882924Y-70869509D01*
X132911424Y-70825162D01*
X132927871Y-70808716D01*
X132927871Y-70808714D01*
X132938076Y-70798510D01*
X132938080Y-70798505D01*
X134368713Y-69367872D01*
X134368716Y-69367871D01*
X134480520Y-69256067D01*
X134530639Y-69169255D01*
X134559577Y-69119136D01*
X134600500Y-68966409D01*
X134600500Y-68808294D01*
X134600500Y-55300096D01*
X134620185Y-55233057D01*
X134636815Y-55212419D01*
X135484323Y-54364910D01*
X135545644Y-54331427D01*
X135615335Y-54336411D01*
X135671269Y-54378283D01*
X135673577Y-54381470D01*
X135699954Y-54419141D01*
X135860858Y-54580045D01*
X135860861Y-54580047D01*
X136047266Y-54710568D01*
X136105275Y-54737618D01*
X136157714Y-54783791D01*
X136176866Y-54850984D01*
X136156650Y-54917865D01*
X136105275Y-54962382D01*
X136047267Y-54989431D01*
X136047265Y-54989432D01*
X135860858Y-55119954D01*
X135699954Y-55280858D01*
X135569432Y-55467265D01*
X135569431Y-55467267D01*
X135473261Y-55673502D01*
X135473258Y-55673511D01*
X135414366Y-55893302D01*
X135414364Y-55893313D01*
X135394532Y-56119998D01*
X135394532Y-56120001D01*
X135414364Y-56346686D01*
X135414366Y-56346697D01*
X135440152Y-56442931D01*
X135438489Y-56512781D01*
X135408058Y-56562705D01*
X135231286Y-56739478D01*
X135119481Y-56851282D01*
X135119480Y-56851284D01*
X135077156Y-56924592D01*
X135040423Y-56988215D01*
X134999499Y-57140943D01*
X134999499Y-57140945D01*
X134999499Y-57309046D01*
X134999500Y-57309059D01*
X134999500Y-83387565D01*
X134999499Y-83387583D01*
X134999499Y-83553289D01*
X134999498Y-83553289D01*
X134999499Y-83553292D01*
X135040423Y-83706020D01*
X135063435Y-83745878D01*
X135119477Y-83842947D01*
X135119481Y-83842952D01*
X135313881Y-84037352D01*
X135347366Y-84098675D01*
X135350200Y-84125033D01*
X135350200Y-91134030D01*
X135350199Y-91134048D01*
X135350199Y-91299754D01*
X135350198Y-91299754D01*
X135350199Y-91299757D01*
X135391123Y-91452485D01*
X135397524Y-91463572D01*
X135397525Y-91463575D01*
X135397526Y-91463575D01*
X135470177Y-91589412D01*
X135470181Y-91589417D01*
X135589049Y-91708285D01*
X135589055Y-91708290D01*
X135749455Y-91868690D01*
X135782940Y-91930013D01*
X135781549Y-91988464D01*
X135764487Y-92052140D01*
X135764485Y-92052150D01*
X135745426Y-92269999D01*
X135745426Y-92270000D01*
X135764485Y-92487849D01*
X135764487Y-92487859D01*
X135821083Y-92699082D01*
X135821085Y-92699086D01*
X135821086Y-92699090D01*
X135867296Y-92798188D01*
X135913506Y-92897286D01*
X135913507Y-92897287D01*
X136038941Y-93076425D01*
X136193575Y-93231059D01*
X136372713Y-93356493D01*
X136517621Y-93424065D01*
X136525241Y-93427618D01*
X136577680Y-93473790D01*
X136596832Y-93540984D01*
X136576616Y-93607865D01*
X136525241Y-93652382D01*
X136372713Y-93723506D01*
X136264648Y-93799175D01*
X136193575Y-93848941D01*
X136193573Y-93848942D01*
X136193570Y-93848945D01*
X136038945Y-94003570D01*
X136038942Y-94003573D01*
X136038941Y-94003575D01*
X136032463Y-94012827D01*
X135913506Y-94182713D01*
X135821087Y-94380908D01*
X135821083Y-94380917D01*
X135764487Y-94592140D01*
X135764485Y-94592150D01*
X135745426Y-94809999D01*
X135745426Y-94810000D01*
X135764485Y-95027849D01*
X135764487Y-95027859D01*
X135821083Y-95239082D01*
X135821085Y-95239086D01*
X135821086Y-95239090D01*
X135840163Y-95280000D01*
X135913506Y-95437286D01*
X135913507Y-95437287D01*
X136038941Y-95616425D01*
X136193575Y-95771059D01*
X136372713Y-95896493D01*
X136570910Y-95988914D01*
X136782146Y-96045514D01*
X136945411Y-96059798D01*
X136999999Y-96064574D01*
X137000000Y-96064574D01*
X137000001Y-96064574D01*
X137054566Y-96059800D01*
X137217854Y-96045514D01*
X137429090Y-95988914D01*
X137627287Y-95896493D01*
X137806425Y-95771059D01*
X137961059Y-95616425D01*
X138086493Y-95437287D01*
X138178914Y-95239090D01*
X138235514Y-95027854D01*
X138254574Y-94810000D01*
X138235514Y-94592146D01*
X138178914Y-94380910D01*
X138086493Y-94182713D01*
X137961059Y-94003575D01*
X137806425Y-93848941D01*
X137627287Y-93723507D01*
X137474756Y-93652380D01*
X137422319Y-93606210D01*
X137403167Y-93539016D01*
X137423383Y-93472135D01*
X137474756Y-93427619D01*
X137627287Y-93356493D01*
X137806425Y-93231059D01*
X137961059Y-93076425D01*
X138086493Y-92897287D01*
X138178914Y-92699090D01*
X138235514Y-92487854D01*
X138254574Y-92270000D01*
X138235514Y-92052146D01*
X138178914Y-91840910D01*
X138086493Y-91642713D01*
X137961059Y-91463575D01*
X137806425Y-91308941D01*
X137627287Y-91183507D01*
X137474756Y-91112380D01*
X137422319Y-91066210D01*
X137403167Y-90999016D01*
X137423383Y-90932135D01*
X137474756Y-90887619D01*
X137627287Y-90816493D01*
X137806425Y-90691059D01*
X137961059Y-90536425D01*
X138086493Y-90357287D01*
X138178914Y-90159090D01*
X138235514Y-89947854D01*
X138254574Y-89730000D01*
X138235514Y-89512146D01*
X138178914Y-89300910D01*
X138086493Y-89102713D01*
X137961059Y-88923575D01*
X137806425Y-88768941D01*
X137627287Y-88643507D01*
X137474756Y-88572380D01*
X137422319Y-88526210D01*
X137403167Y-88459016D01*
X137423383Y-88392135D01*
X137474756Y-88347619D01*
X137627287Y-88276493D01*
X137806425Y-88151059D01*
X137961059Y-87996425D01*
X138086493Y-87817287D01*
X138178914Y-87619090D01*
X138235514Y-87407854D01*
X138254574Y-87190000D01*
X138235514Y-86972146D01*
X138178914Y-86760910D01*
X138086493Y-86562713D01*
X137961059Y-86383575D01*
X137806425Y-86228941D01*
X137663114Y-86128593D01*
X137627286Y-86103506D01*
X137487875Y-86038498D01*
X137429090Y-86011086D01*
X137429086Y-86011085D01*
X137429082Y-86011083D01*
X137217859Y-85954487D01*
X137217849Y-85954485D01*
X137000001Y-85935426D01*
X136999999Y-85935426D01*
X136782150Y-85954485D01*
X136782137Y-85954488D01*
X136707292Y-85974542D01*
X136637442Y-85972879D01*
X136579580Y-85933716D01*
X136552077Y-85869487D01*
X136551200Y-85854767D01*
X136551200Y-83913995D01*
X136551201Y-83913982D01*
X136551201Y-83745878D01*
X136540360Y-83705419D01*
X136510277Y-83593151D01*
X136448887Y-83486819D01*
X136431224Y-83456225D01*
X136431218Y-83456217D01*
X136236819Y-83261818D01*
X136203334Y-83200495D01*
X136200500Y-83174137D01*
X136200500Y-82894136D01*
X136220185Y-82827097D01*
X136272989Y-82781342D01*
X136342147Y-82771398D01*
X136356582Y-82774358D01*
X136473308Y-82805635D01*
X136635230Y-82819801D01*
X136699998Y-82825468D01*
X136700000Y-82825468D01*
X136700002Y-82825468D01*
X136756673Y-82820509D01*
X136926692Y-82805635D01*
X137146496Y-82746739D01*
X137352734Y-82650568D01*
X137539139Y-82520047D01*
X137700047Y-82359139D01*
X137830568Y-82172734D01*
X137926739Y-81966496D01*
X137985635Y-81746692D01*
X138005468Y-81520000D01*
X137985635Y-81293308D01*
X137926739Y-81073504D01*
X137830568Y-80867266D01*
X137700047Y-80680861D01*
X137700045Y-80680858D01*
X137539141Y-80519954D01*
X137352734Y-80389432D01*
X137352728Y-80389429D01*
X137294725Y-80362382D01*
X137242285Y-80316210D01*
X137223133Y-80249017D01*
X137243348Y-80182135D01*
X137294725Y-80137618D01*
X137352734Y-80110568D01*
X137539139Y-79980047D01*
X137700047Y-79819139D01*
X137830568Y-79632734D01*
X137926739Y-79426496D01*
X137985635Y-79206692D01*
X138005468Y-78980000D01*
X138003853Y-78961546D01*
X137990627Y-78810372D01*
X137985635Y-78753308D01*
X137926739Y-78533504D01*
X137830568Y-78327266D01*
X137700047Y-78140861D01*
X137700045Y-78140858D01*
X137539141Y-77979954D01*
X137352734Y-77849432D01*
X137352728Y-77849429D01*
X137294725Y-77822382D01*
X137242285Y-77776210D01*
X137223133Y-77709017D01*
X137243348Y-77642135D01*
X137294725Y-77597618D01*
X137352734Y-77570568D01*
X137539139Y-77440047D01*
X137700047Y-77279139D01*
X137830568Y-77092734D01*
X137926739Y-76886496D01*
X137985635Y-76666692D01*
X138005468Y-76440000D01*
X138004513Y-76429090D01*
X137986033Y-76217859D01*
X137985635Y-76213308D01*
X137926739Y-75993504D01*
X137830568Y-75787266D01*
X137700047Y-75600861D01*
X137700045Y-75600858D01*
X137539141Y-75439954D01*
X137352734Y-75309432D01*
X137352728Y-75309429D01*
X137294725Y-75282382D01*
X137242285Y-75236210D01*
X137223133Y-75169017D01*
X137243348Y-75102135D01*
X137294725Y-75057618D01*
X137352734Y-75030568D01*
X137539139Y-74900047D01*
X137700047Y-74739139D01*
X137830568Y-74552734D01*
X137926739Y-74346496D01*
X137985635Y-74126692D01*
X138005468Y-73900000D01*
X137985635Y-73673308D01*
X137926739Y-73453504D01*
X137830568Y-73247266D01*
X137700047Y-73060861D01*
X137700045Y-73060858D01*
X137539141Y-72899954D01*
X137352734Y-72769432D01*
X137352728Y-72769429D01*
X137294725Y-72742382D01*
X137242285Y-72696210D01*
X137223133Y-72629017D01*
X137243348Y-72562135D01*
X137294725Y-72517618D01*
X137352734Y-72490568D01*
X137539139Y-72360047D01*
X137700047Y-72199139D01*
X137830568Y-72012734D01*
X137926739Y-71806496D01*
X137985635Y-71586692D01*
X138005468Y-71360000D01*
X137985635Y-71133308D01*
X137935299Y-70945449D01*
X137926741Y-70913511D01*
X137926738Y-70913502D01*
X137830568Y-70707267D01*
X137830567Y-70707265D01*
X137779499Y-70634332D01*
X137700047Y-70520861D01*
X137700045Y-70520858D01*
X137539141Y-70359954D01*
X137352734Y-70229432D01*
X137352728Y-70229429D01*
X137294725Y-70202382D01*
X137242285Y-70156210D01*
X137223133Y-70089017D01*
X137243348Y-70022135D01*
X137294725Y-69977618D01*
X137352734Y-69950568D01*
X137539139Y-69820047D01*
X137700047Y-69659139D01*
X137830568Y-69472734D01*
X137926739Y-69266496D01*
X137985635Y-69046692D01*
X138005468Y-68820000D01*
X138000802Y-68766673D01*
X137996483Y-68717305D01*
X137985635Y-68593308D01*
X137940916Y-68426415D01*
X137926741Y-68373511D01*
X137926738Y-68373502D01*
X137898212Y-68312328D01*
X137830568Y-68167266D01*
X137700047Y-67980861D01*
X137700045Y-67980858D01*
X137539141Y-67819954D01*
X137352734Y-67689432D01*
X137352732Y-67689431D01*
X137294725Y-67662382D01*
X137294132Y-67662105D01*
X137241694Y-67615934D01*
X137222542Y-67548740D01*
X137242758Y-67481859D01*
X137294134Y-67437341D01*
X137352484Y-67410132D01*
X137538820Y-67279657D01*
X137699657Y-67118820D01*
X137830134Y-66932482D01*
X137926265Y-66726326D01*
X137926269Y-66726317D01*
X137978872Y-66530000D01*
X137015686Y-66530000D01*
X137020080Y-66525606D01*
X137072741Y-66434394D01*
X137100000Y-66332661D01*
X137100000Y-66227339D01*
X137072741Y-66125606D01*
X137020080Y-66034394D01*
X137015686Y-66030000D01*
X137978872Y-66030000D01*
X137978872Y-66029999D01*
X137926269Y-65833682D01*
X137926265Y-65833673D01*
X137830134Y-65627517D01*
X137699657Y-65441179D01*
X137538820Y-65280342D01*
X137352482Y-65149865D01*
X137294133Y-65122657D01*
X137241694Y-65076484D01*
X137222542Y-65009291D01*
X137242758Y-64942410D01*
X137294129Y-64897895D01*
X137352734Y-64870568D01*
X137539139Y-64740047D01*
X137700047Y-64579139D01*
X137830568Y-64392734D01*
X137926739Y-64186496D01*
X137985635Y-63966692D01*
X138002634Y-63772384D01*
X138005468Y-63740001D01*
X138005468Y-63739998D01*
X137991038Y-63575063D01*
X137985635Y-63513308D01*
X137926739Y-63293504D01*
X137830568Y-63087266D01*
X137700047Y-62900861D01*
X137700045Y-62900858D01*
X137539141Y-62739954D01*
X137352734Y-62609432D01*
X137352728Y-62609429D01*
X137294725Y-62582382D01*
X137242285Y-62536210D01*
X137223133Y-62469017D01*
X137243348Y-62402135D01*
X137294725Y-62357618D01*
X137352734Y-62330568D01*
X137539139Y-62200047D01*
X137700047Y-62039139D01*
X137830568Y-61852734D01*
X137926739Y-61646496D01*
X137985635Y-61426692D01*
X138002634Y-61232384D01*
X138005468Y-61200001D01*
X138005468Y-61199998D01*
X137985635Y-60973313D01*
X137985635Y-60973308D01*
X137926739Y-60753504D01*
X137830568Y-60547266D01*
X137700047Y-60360861D01*
X137700045Y-60360858D01*
X137539141Y-60199954D01*
X137352734Y-60069432D01*
X137352728Y-60069429D01*
X137294725Y-60042382D01*
X137242285Y-59996210D01*
X137223133Y-59929017D01*
X137243348Y-59862135D01*
X137294725Y-59817618D01*
X137352734Y-59790568D01*
X137539139Y-59660047D01*
X137700047Y-59499139D01*
X137830568Y-59312734D01*
X137926739Y-59106496D01*
X137985635Y-58886692D01*
X138002634Y-58692384D01*
X138005468Y-58660001D01*
X138005468Y-58659998D01*
X137985635Y-58433313D01*
X137985635Y-58433308D01*
X137936175Y-58248721D01*
X137926741Y-58213511D01*
X137926738Y-58213502D01*
X137926225Y-58212401D01*
X137830568Y-58007266D01*
X137700047Y-57820861D01*
X137700045Y-57820858D01*
X137539141Y-57659954D01*
X137352734Y-57529432D01*
X137352728Y-57529429D01*
X137294725Y-57502382D01*
X137242285Y-57456210D01*
X137223133Y-57389017D01*
X137243348Y-57322135D01*
X137294725Y-57277618D01*
X137352734Y-57250568D01*
X137539139Y-57120047D01*
X137700047Y-56959139D01*
X137830568Y-56772734D01*
X137926739Y-56566496D01*
X137985635Y-56346692D01*
X138002634Y-56152384D01*
X138005468Y-56120001D01*
X138005468Y-56119998D01*
X137993741Y-55985965D01*
X137985635Y-55893308D01*
X137926739Y-55673504D01*
X137830568Y-55467266D01*
X137700047Y-55280861D01*
X137700045Y-55280858D01*
X137539141Y-55119954D01*
X137352734Y-54989432D01*
X137352728Y-54989429D01*
X137294725Y-54962382D01*
X137242285Y-54916210D01*
X137223133Y-54849017D01*
X137243348Y-54782135D01*
X137294725Y-54737618D01*
X137352734Y-54710568D01*
X137539139Y-54580047D01*
X137700047Y-54419139D01*
X137830568Y-54232734D01*
X137926739Y-54026496D01*
X137985635Y-53806692D01*
X138004998Y-53585369D01*
X138005468Y-53580001D01*
X138005468Y-53579998D01*
X137985635Y-53353313D01*
X137985635Y-53353308D01*
X137926739Y-53133504D01*
X137830568Y-52927266D01*
X137700047Y-52740861D01*
X137700045Y-52740858D01*
X137539141Y-52579954D01*
X137352734Y-52449432D01*
X137352728Y-52449429D01*
X137294725Y-52422382D01*
X137242285Y-52376210D01*
X137223133Y-52309017D01*
X137243348Y-52242135D01*
X137294725Y-52197618D01*
X137352734Y-52170568D01*
X137539139Y-52040047D01*
X137700047Y-51879139D01*
X137830568Y-51692734D01*
X137926739Y-51486496D01*
X137985635Y-51266692D01*
X138002634Y-51072384D01*
X138005468Y-51040001D01*
X138005468Y-51039998D01*
X137992769Y-50894855D01*
X137985635Y-50813308D01*
X137926739Y-50593504D01*
X137830568Y-50387266D01*
X137700047Y-50200861D01*
X137700045Y-50200858D01*
X137539143Y-50039956D01*
X137514536Y-50022726D01*
X137470912Y-49968149D01*
X137463719Y-49898650D01*
X137495241Y-49836296D01*
X137555471Y-49800882D01*
X137572404Y-49797861D01*
X137607483Y-49794091D01*
X137742331Y-49743796D01*
X137857546Y-49657546D01*
X137943796Y-49542331D01*
X137994091Y-49407483D01*
X138000500Y-49347873D01*
X138000499Y-47652128D01*
X137994091Y-47592517D01*
X137966850Y-47519481D01*
X137943797Y-47457671D01*
X137943793Y-47457664D01*
X137857547Y-47342455D01*
X137857544Y-47342452D01*
X137742335Y-47256206D01*
X137742328Y-47256202D01*
X137607482Y-47205908D01*
X137607483Y-47205908D01*
X137547883Y-47199501D01*
X137547881Y-47199500D01*
X137547873Y-47199500D01*
X137547864Y-47199500D01*
X135852129Y-47199500D01*
X135852123Y-47199501D01*
X135792516Y-47205908D01*
X135657671Y-47256202D01*
X135657664Y-47256206D01*
X135542455Y-47342452D01*
X135542452Y-47342455D01*
X135456206Y-47457664D01*
X135456202Y-47457671D01*
X135405908Y-47592517D01*
X135399501Y-47652116D01*
X135399501Y-47652123D01*
X135399500Y-47652135D01*
X135399500Y-49347870D01*
X135399501Y-49347876D01*
X135405908Y-49407483D01*
X135456202Y-49542328D01*
X135456206Y-49542335D01*
X135542452Y-49657544D01*
X135542455Y-49657547D01*
X135657664Y-49743793D01*
X135657671Y-49743797D01*
X135702618Y-49760561D01*
X135792517Y-49794091D01*
X135827596Y-49797862D01*
X135892144Y-49824599D01*
X135931993Y-49881991D01*
X135934488Y-49951816D01*
X135898836Y-50011905D01*
X135885464Y-50022725D01*
X135860858Y-50039954D01*
X135699954Y-50200858D01*
X135569432Y-50387265D01*
X135569431Y-50387267D01*
X135473261Y-50593502D01*
X135473258Y-50593511D01*
X135414366Y-50813302D01*
X135414364Y-50813313D01*
X135394532Y-51039998D01*
X135394532Y-51040001D01*
X135414364Y-51266686D01*
X135414366Y-51266697D01*
X135440152Y-51362931D01*
X135438489Y-51432781D01*
X135408058Y-51482705D01*
X133333895Y-53556868D01*
X133272572Y-53590353D01*
X133202880Y-53585369D01*
X133146947Y-53543497D01*
X133133832Y-53521592D01*
X133113181Y-53477306D01*
X133113180Y-53477304D01*
X133099499Y-53457766D01*
X133006685Y-53325212D01*
X132984668Y-53293768D01*
X132916319Y-53225419D01*
X132826233Y-53135333D01*
X132826229Y-53135330D01*
X132826228Y-53135329D01*
X132642700Y-53006821D01*
X132642692Y-53006817D01*
X132547400Y-52962382D01*
X132494960Y-52916210D01*
X132475808Y-52849017D01*
X132496023Y-52782135D01*
X132547400Y-52737618D01*
X132642696Y-52693181D01*
X132826233Y-52564667D01*
X132984667Y-52406233D01*
X133113181Y-52222696D01*
X133207872Y-52019630D01*
X133265863Y-51803206D01*
X133285391Y-51580000D01*
X133280125Y-51519815D01*
X133277406Y-51488735D01*
X133265863Y-51356794D01*
X133207872Y-51140370D01*
X133113181Y-50937305D01*
X133008287Y-50787500D01*
X132984668Y-50753768D01*
X132913047Y-50682147D01*
X132826233Y-50595333D01*
X132826229Y-50595330D01*
X132826228Y-50595329D01*
X132642700Y-50466821D01*
X132642692Y-50466817D01*
X132547400Y-50422382D01*
X132494960Y-50376210D01*
X132475808Y-50309017D01*
X132496023Y-50242135D01*
X132547400Y-50197618D01*
X132642696Y-50153181D01*
X132826233Y-50024667D01*
X132984667Y-49866233D01*
X133113181Y-49682696D01*
X133207872Y-49479630D01*
X133265863Y-49263206D01*
X133285391Y-49040000D01*
X133265863Y-48816794D01*
X133207872Y-48600370D01*
X133113181Y-48397305D01*
X132998175Y-48233058D01*
X132984668Y-48213768D01*
X132916319Y-48145419D01*
X132826233Y-48055333D01*
X132826229Y-48055330D01*
X132826228Y-48055329D01*
X132642700Y-47926821D01*
X132642696Y-47926819D01*
X132630095Y-47920943D01*
X132439630Y-47832128D01*
X132439627Y-47832127D01*
X132439625Y-47832126D01*
X132223208Y-47774137D01*
X132223200Y-47774136D01*
X132000002Y-47754609D01*
X131999998Y-47754609D01*
X131776799Y-47774136D01*
X131776791Y-47774137D01*
X131560374Y-47832126D01*
X131560368Y-47832129D01*
X131357306Y-47926818D01*
X131357304Y-47926819D01*
X131173764Y-48055334D01*
X131015334Y-48213764D01*
X130886819Y-48397304D01*
X130886818Y-48397306D01*
X130836882Y-48504395D01*
X130790709Y-48556834D01*
X130723516Y-48575986D01*
X130656635Y-48555770D01*
X130611300Y-48502605D01*
X130600500Y-48451990D01*
X130600500Y-48300097D01*
X130620185Y-48233058D01*
X130636819Y-48212416D01*
X133212417Y-45636819D01*
X133273740Y-45603334D01*
X133300098Y-45600500D01*
X146199903Y-45600500D01*
X146266942Y-45620185D01*
X146287583Y-45636818D01*
X149131284Y-48480520D01*
X149131286Y-48480521D01*
X149131290Y-48480524D01*
X149261622Y-48555770D01*
X149268216Y-48559577D01*
X149420943Y-48600501D01*
X149420945Y-48600501D01*
X149586654Y-48600501D01*
X149586670Y-48600500D01*
X151699903Y-48600500D01*
X151766942Y-48620185D01*
X151787584Y-48636819D01*
X155595139Y-52444374D01*
X155595149Y-52444385D01*
X155599479Y-52448715D01*
X155599480Y-52448716D01*
X155711284Y-52560520D01*
X155711286Y-52560521D01*
X155711290Y-52560524D01*
X155763665Y-52590762D01*
X155848216Y-52639577D01*
X155960019Y-52669534D01*
X156000942Y-52680500D01*
X156000943Y-52680500D01*
X168210909Y-52680500D01*
X168277948Y-52700185D01*
X168323292Y-52752097D01*
X168325965Y-52757830D01*
X168444606Y-52927267D01*
X168461501Y-52951395D01*
X168461506Y-52951402D01*
X168628597Y-53118493D01*
X168628603Y-53118498D01*
X168814158Y-53248425D01*
X168857783Y-53303002D01*
X168864977Y-53372500D01*
X168833454Y-53434855D01*
X168814158Y-53451575D01*
X168628597Y-53581505D01*
X168461505Y-53748597D01*
X168325965Y-53942169D01*
X168325964Y-53942171D01*
X168226098Y-54156335D01*
X168226094Y-54156344D01*
X168164938Y-54384586D01*
X168164936Y-54384596D01*
X168144341Y-54619999D01*
X168144341Y-54620000D01*
X168164936Y-54855403D01*
X168164938Y-54855413D01*
X168226094Y-55083655D01*
X168226096Y-55083659D01*
X168226097Y-55083663D01*
X168292103Y-55225212D01*
X168325965Y-55297830D01*
X168325967Y-55297834D01*
X168376618Y-55370170D01*
X168444605Y-55467266D01*
X168461501Y-55491395D01*
X168461506Y-55491402D01*
X168628597Y-55658493D01*
X168628603Y-55658498D01*
X168814158Y-55788425D01*
X168857783Y-55843002D01*
X168864977Y-55912500D01*
X168833454Y-55974855D01*
X168814158Y-55991575D01*
X168628597Y-56121505D01*
X168461505Y-56288597D01*
X168325965Y-56482169D01*
X168325964Y-56482171D01*
X168226098Y-56696335D01*
X168226094Y-56696344D01*
X168164938Y-56924586D01*
X168164937Y-56924590D01*
X168164937Y-56924592D01*
X168161914Y-56959141D01*
X168144341Y-57159999D01*
X168144341Y-57160000D01*
X168164936Y-57395403D01*
X168164938Y-57395413D01*
X168226094Y-57623655D01*
X168226096Y-57623659D01*
X168226097Y-57623663D01*
X168295817Y-57773178D01*
X168325965Y-57837830D01*
X168325967Y-57837834D01*
X168434006Y-57992128D01*
X168444605Y-58007266D01*
X168461501Y-58031395D01*
X168461506Y-58031402D01*
X168628597Y-58198493D01*
X168628603Y-58198498D01*
X168814158Y-58328425D01*
X168857783Y-58383002D01*
X168864977Y-58452500D01*
X168833454Y-58514855D01*
X168814158Y-58531575D01*
X168628597Y-58661505D01*
X168461505Y-58828597D01*
X168325965Y-59022169D01*
X168325964Y-59022171D01*
X168226098Y-59236335D01*
X168226094Y-59236344D01*
X168164938Y-59464586D01*
X168164936Y-59464596D01*
X168144341Y-59699999D01*
X168144341Y-59700000D01*
X168164936Y-59935403D01*
X168164938Y-59935413D01*
X168226094Y-60163655D01*
X168226096Y-60163659D01*
X168226097Y-60163663D01*
X168268103Y-60253745D01*
X168325965Y-60377830D01*
X168325967Y-60377834D01*
X168387606Y-60465863D01*
X168444605Y-60547266D01*
X168461501Y-60571395D01*
X168461506Y-60571402D01*
X168628597Y-60738493D01*
X168628603Y-60738498D01*
X168814158Y-60868425D01*
X168857783Y-60923002D01*
X168864977Y-60992500D01*
X168833454Y-61054855D01*
X168814158Y-61071575D01*
X168628597Y-61201505D01*
X168461505Y-61368597D01*
X168325965Y-61562169D01*
X168325964Y-61562171D01*
X168226098Y-61776335D01*
X168226094Y-61776344D01*
X168164938Y-62004586D01*
X168164936Y-62004596D01*
X168144341Y-62239999D01*
X168144341Y-62240000D01*
X168164936Y-62475403D01*
X168164938Y-62475413D01*
X168226094Y-62703655D01*
X168226096Y-62703659D01*
X168226097Y-62703663D01*
X168325965Y-62917830D01*
X168325967Y-62917834D01*
X168387606Y-63005863D01*
X168461505Y-63111401D01*
X168628599Y-63278495D01*
X168652648Y-63295334D01*
X168822165Y-63414032D01*
X168822167Y-63414033D01*
X168822170Y-63414035D01*
X169036337Y-63513903D01*
X169264592Y-63575063D01*
X169452918Y-63591539D01*
X169499999Y-63595659D01*
X169500000Y-63595659D01*
X169500001Y-63595659D01*
X169539234Y-63592226D01*
X169735408Y-63575063D01*
X169963663Y-63513903D01*
X170177830Y-63414035D01*
X170371401Y-63278495D01*
X170538495Y-63111401D01*
X170674035Y-62917830D01*
X170773903Y-62703663D01*
X170835063Y-62475408D01*
X170855659Y-62240000D01*
X170835063Y-62004592D01*
X170773903Y-61776337D01*
X170674035Y-61562171D01*
X170642266Y-61516799D01*
X170538494Y-61368597D01*
X170371402Y-61201506D01*
X170371396Y-61201501D01*
X170185842Y-61071575D01*
X170142217Y-61016998D01*
X170135023Y-60947500D01*
X170166546Y-60885145D01*
X170185842Y-60868425D01*
X170347352Y-60755334D01*
X170371401Y-60738495D01*
X170538495Y-60571401D01*
X170674035Y-60377830D01*
X170773903Y-60163663D01*
X170835063Y-59935408D01*
X170855659Y-59700000D01*
X170835063Y-59464592D01*
X170773903Y-59236337D01*
X170674035Y-59022171D01*
X170642266Y-58976799D01*
X170538494Y-58828597D01*
X170371402Y-58661506D01*
X170371396Y-58661501D01*
X170185842Y-58531575D01*
X170142217Y-58476998D01*
X170135023Y-58407500D01*
X170166546Y-58345145D01*
X170185842Y-58328425D01*
X170347352Y-58215334D01*
X170371401Y-58198495D01*
X170538495Y-58031401D01*
X170674035Y-57837830D01*
X170773903Y-57623663D01*
X170835063Y-57395408D01*
X170855659Y-57160000D01*
X170852163Y-57120047D01*
X170838086Y-56959141D01*
X170835063Y-56924592D01*
X170773903Y-56696337D01*
X170674035Y-56482171D01*
X170642266Y-56436799D01*
X170538494Y-56288597D01*
X170371402Y-56121506D01*
X170371396Y-56121501D01*
X170185842Y-55991575D01*
X170142217Y-55936998D01*
X170135023Y-55867500D01*
X170166546Y-55805145D01*
X170185842Y-55788425D01*
X170259401Y-55736918D01*
X170371401Y-55658495D01*
X170538495Y-55491401D01*
X170674035Y-55297830D01*
X170773903Y-55083663D01*
X170835063Y-54855408D01*
X170855659Y-54620000D01*
X170835063Y-54384592D01*
X170773903Y-54156337D01*
X170674035Y-53942171D01*
X170662674Y-53925945D01*
X170538494Y-53748597D01*
X170371402Y-53581506D01*
X170371396Y-53581501D01*
X170185842Y-53451575D01*
X170142217Y-53396998D01*
X170135023Y-53327500D01*
X170166546Y-53265145D01*
X170185842Y-53248425D01*
X170347352Y-53135334D01*
X170371401Y-53118495D01*
X170538495Y-52951401D01*
X170674035Y-52757830D01*
X170773903Y-52543663D01*
X170835063Y-52315408D01*
X170855659Y-52080000D01*
X170855576Y-52079057D01*
X170841743Y-51920943D01*
X170835063Y-51844592D01*
X170773903Y-51616337D01*
X170674035Y-51402171D01*
X170674034Y-51402169D01*
X170538494Y-51208597D01*
X170371402Y-51041506D01*
X170371396Y-51041501D01*
X170185842Y-50911575D01*
X170142217Y-50856998D01*
X170135023Y-50787500D01*
X170166546Y-50725145D01*
X170185842Y-50708425D01*
X170278497Y-50643547D01*
X170371401Y-50578495D01*
X170538495Y-50411401D01*
X170674035Y-50217830D01*
X170773903Y-50003663D01*
X170835063Y-49775408D01*
X170855659Y-49540000D01*
X170835063Y-49304592D01*
X170773903Y-49076337D01*
X170674035Y-48862171D01*
X170642266Y-48816799D01*
X170538494Y-48668597D01*
X170371402Y-48501506D01*
X170371396Y-48501501D01*
X170185842Y-48371575D01*
X170142217Y-48316998D01*
X170135023Y-48247500D01*
X170166546Y-48185145D01*
X170185842Y-48168425D01*
X170299188Y-48089059D01*
X170371401Y-48038495D01*
X170538495Y-47871401D01*
X170674035Y-47677830D01*
X170773903Y-47463663D01*
X170835063Y-47235408D01*
X170855659Y-47000000D01*
X170835063Y-46764592D01*
X170773903Y-46536337D01*
X170674035Y-46322171D01*
X170538495Y-46128599D01*
X170538494Y-46128597D01*
X170371402Y-45961506D01*
X170371401Y-45961505D01*
X170185405Y-45831269D01*
X170141781Y-45776692D01*
X170134588Y-45707193D01*
X170166110Y-45644839D01*
X170185405Y-45628119D01*
X170371082Y-45498105D01*
X170538105Y-45331082D01*
X170673600Y-45137578D01*
X170773429Y-44923492D01*
X170773432Y-44923486D01*
X170830636Y-44710000D01*
X169933012Y-44710000D01*
X169965925Y-44652993D01*
X170000000Y-44525826D01*
X170000000Y-44394174D01*
X169965925Y-44267007D01*
X169933012Y-44210000D01*
X170830636Y-44210000D01*
X170830635Y-44209999D01*
X170773432Y-43996513D01*
X170773429Y-43996507D01*
X170673600Y-43782422D01*
X170673599Y-43782420D01*
X170538113Y-43588926D01*
X170538108Y-43588920D01*
X170416053Y-43466865D01*
X170382568Y-43405542D01*
X170387552Y-43335850D01*
X170429424Y-43279917D01*
X170460400Y-43263002D01*
X170568024Y-43222862D01*
X170592326Y-43213798D01*
X170592326Y-43213797D01*
X170592331Y-43213796D01*
X170707546Y-43127546D01*
X170793796Y-43012331D01*
X170844091Y-42877483D01*
X170850500Y-42817873D01*
X170850499Y-41022128D01*
X170844091Y-40962517D01*
X170842387Y-40957949D01*
X170793797Y-40827671D01*
X170793793Y-40827664D01*
X170707547Y-40712455D01*
X170707544Y-40712452D01*
X170592335Y-40626206D01*
X170592328Y-40626202D01*
X170457482Y-40575908D01*
X170457483Y-40575908D01*
X170397883Y-40569501D01*
X170397881Y-40569500D01*
X170397873Y-40569500D01*
X170397864Y-40569500D01*
X168602129Y-40569500D01*
X168602123Y-40569501D01*
X168542516Y-40575908D01*
X168407671Y-40626202D01*
X168407664Y-40626206D01*
X168292455Y-40712452D01*
X168292452Y-40712455D01*
X168206204Y-40827667D01*
X168202239Y-40834929D01*
X168152832Y-40884334D01*
X168093408Y-40899500D01*
X139265937Y-40899500D01*
X139198898Y-40879815D01*
X139153143Y-40827011D01*
X139143199Y-40757853D01*
X139172224Y-40694297D01*
X139215850Y-40662066D01*
X139303732Y-40623261D01*
X139508188Y-40532985D01*
X139871739Y-40330489D01*
X140215054Y-40095313D01*
X140535206Y-39829462D01*
X140829462Y-39535206D01*
X141095313Y-39215054D01*
X141330489Y-38871739D01*
X141532985Y-38508188D01*
X141701074Y-38127505D01*
X141833320Y-37732936D01*
X141928596Y-37327848D01*
X141986088Y-36915697D01*
X142005307Y-36500000D01*
X141986088Y-36084303D01*
X141928596Y-35672152D01*
X141833320Y-35267064D01*
X141701074Y-34872495D01*
X141631572Y-34715090D01*
X141532989Y-34491822D01*
X141532985Y-34491812D01*
X141330489Y-34128261D01*
X141095313Y-33784946D01*
X141095307Y-33784939D01*
X141095303Y-33784933D01*
X140829471Y-33464805D01*
X140829462Y-33464794D01*
X140535206Y-33170538D01*
X140535194Y-33170528D01*
X140329829Y-32999994D01*
X165994556Y-32999994D01*
X165994556Y-33000005D01*
X166014310Y-33314004D01*
X166014311Y-33314011D01*
X166073270Y-33623083D01*
X166170497Y-33922316D01*
X166170499Y-33922321D01*
X166304461Y-34207003D01*
X166304464Y-34207009D01*
X166473051Y-34472661D01*
X166473054Y-34472665D01*
X166673606Y-34715090D01*
X166673608Y-34715092D01*
X166902968Y-34930476D01*
X166902978Y-34930484D01*
X167157504Y-35115408D01*
X167157509Y-35115410D01*
X167157516Y-35115416D01*
X167433234Y-35266994D01*
X167433239Y-35266996D01*
X167433241Y-35266997D01*
X167433242Y-35266998D01*
X167725771Y-35382818D01*
X167725774Y-35382819D01*
X168030523Y-35461065D01*
X168030527Y-35461066D01*
X168096010Y-35469338D01*
X168342670Y-35500499D01*
X168342679Y-35500499D01*
X168342682Y-35500500D01*
X168342684Y-35500500D01*
X168657316Y-35500500D01*
X168657318Y-35500500D01*
X168657321Y-35500499D01*
X168657329Y-35500499D01*
X168843593Y-35476968D01*
X168969473Y-35461066D01*
X169274225Y-35382819D01*
X169274228Y-35382818D01*
X169566757Y-35266998D01*
X169566758Y-35266997D01*
X169566756Y-35266997D01*
X169566766Y-35266994D01*
X169842484Y-35115416D01*
X170097030Y-34930478D01*
X170326390Y-34715094D01*
X170526947Y-34472663D01*
X170695537Y-34207007D01*
X170829503Y-33922315D01*
X170926731Y-33623079D01*
X170985688Y-33314015D01*
X170985689Y-33314004D01*
X171005444Y-33000005D01*
X171005444Y-32999994D01*
X170985689Y-32685995D01*
X170985688Y-32685988D01*
X170985688Y-32685985D01*
X170926731Y-32376921D01*
X170829503Y-32077685D01*
X170826547Y-32071404D01*
X170695538Y-31792996D01*
X170695537Y-31792993D01*
X170526947Y-31527337D01*
X170526945Y-31527334D01*
X170326393Y-31284909D01*
X170326391Y-31284907D01*
X170097031Y-31069523D01*
X170097021Y-31069515D01*
X169842495Y-30884591D01*
X169842488Y-30884586D01*
X169842484Y-30884584D01*
X169566766Y-30733006D01*
X169566763Y-30733004D01*
X169566758Y-30733002D01*
X169566757Y-30733001D01*
X169274228Y-30617181D01*
X169274225Y-30617180D01*
X168969476Y-30538934D01*
X168969463Y-30538932D01*
X168657329Y-30499500D01*
X168657318Y-30499500D01*
X168342682Y-30499500D01*
X168342670Y-30499500D01*
X168030536Y-30538932D01*
X168030523Y-30538934D01*
X167725774Y-30617180D01*
X167725771Y-30617181D01*
X167433242Y-30733001D01*
X167433241Y-30733002D01*
X167157516Y-30884584D01*
X167157504Y-30884591D01*
X166902978Y-31069515D01*
X166902968Y-31069523D01*
X166673608Y-31284907D01*
X166673606Y-31284909D01*
X166473054Y-31527334D01*
X166473051Y-31527338D01*
X166304464Y-31792990D01*
X166304461Y-31792996D01*
X166170499Y-32077678D01*
X166170497Y-32077683D01*
X166073270Y-32376916D01*
X166014311Y-32685988D01*
X166014310Y-32685995D01*
X165994556Y-32999994D01*
X140329829Y-32999994D01*
X140215066Y-32904696D01*
X140215056Y-32904689D01*
X140215054Y-32904687D01*
X139871739Y-32669511D01*
X139871735Y-32669509D01*
X139871731Y-32669506D01*
X139508198Y-32467020D01*
X139508177Y-32467010D01*
X139127514Y-32298929D01*
X138732933Y-32166679D01*
X138327853Y-32071405D01*
X138327845Y-32071403D01*
X137915707Y-32013913D01*
X137915702Y-32013912D01*
X137915697Y-32013912D01*
X137500000Y-31994693D01*
X137084303Y-32013912D01*
X137084297Y-32013912D01*
X137084292Y-32013913D01*
X136672154Y-32071403D01*
X136672146Y-32071405D01*
X136267066Y-32166679D01*
X135872485Y-32298929D01*
X135491822Y-32467010D01*
X135491801Y-32467020D01*
X135128268Y-32669506D01*
X135128262Y-32669510D01*
X134784943Y-32904689D01*
X134784933Y-32904696D01*
X134464805Y-33170528D01*
X134464785Y-33170546D01*
X134170546Y-33464785D01*
X134170528Y-33464805D01*
X133904696Y-33784933D01*
X133904689Y-33784943D01*
X133669510Y-34128262D01*
X133669506Y-34128268D01*
X133467020Y-34491801D01*
X133467010Y-34491822D01*
X133298929Y-34872485D01*
X133166679Y-35267066D01*
X133071405Y-35672146D01*
X133071403Y-35672154D01*
X133013913Y-36084292D01*
X133013912Y-36084297D01*
X133013912Y-36084303D01*
X132994693Y-36500000D01*
X133013912Y-36915697D01*
X133013912Y-36915702D01*
X133013913Y-36915707D01*
X133071403Y-37327845D01*
X133071405Y-37327853D01*
X133166679Y-37732933D01*
X133298929Y-38127514D01*
X133467010Y-38508177D01*
X133467020Y-38508198D01*
X133669506Y-38871731D01*
X133669509Y-38871735D01*
X133669511Y-38871739D01*
X133904687Y-39215054D01*
X133904689Y-39215056D01*
X133904696Y-39215066D01*
X134170528Y-39535194D01*
X134170538Y-39535206D01*
X134464794Y-39829462D01*
X134464805Y-39829471D01*
X134784933Y-40095303D01*
X134784939Y-40095307D01*
X134784946Y-40095313D01*
X135128261Y-40330489D01*
X135491812Y-40532985D01*
X135589023Y-40575908D01*
X135784150Y-40662066D01*
X135837526Y-40707152D01*
X135858053Y-40773938D01*
X135839215Y-40841220D01*
X135786991Y-40887637D01*
X135734063Y-40899500D01*
X106501456Y-40899500D01*
X106308171Y-40937947D01*
X106308163Y-40937949D01*
X106259880Y-40957949D01*
X106259879Y-40957949D01*
X106126090Y-41013365D01*
X106126087Y-41013367D01*
X106112974Y-41022127D01*
X106112975Y-41022128D01*
X105962218Y-41122860D01*
X105962214Y-41122863D01*
X104267215Y-42817864D01*
X103862220Y-43222859D01*
X103862218Y-43222861D01*
X103822077Y-43263002D01*
X103722859Y-43362219D01*
X103613371Y-43526079D01*
X103613364Y-43526092D01*
X103537950Y-43708160D01*
X103537947Y-43708170D01*
X103499500Y-43901456D01*
X103499500Y-94851581D01*
X103537947Y-95044870D01*
X103537949Y-95044874D01*
X103543948Y-95059356D01*
X103560038Y-95098202D01*
X103578892Y-95143720D01*
X103613366Y-95226948D01*
X103613371Y-95226957D01*
X103722859Y-95390817D01*
X103722860Y-95390818D01*
X103722861Y-95390819D01*
X103862218Y-95530176D01*
X103862219Y-95530176D01*
X103869286Y-95537243D01*
X103869285Y-95537243D01*
X103869288Y-95537245D01*
X105469823Y-97137781D01*
X105469824Y-97137782D01*
X105549891Y-97217849D01*
X105609182Y-97277140D01*
X105773042Y-97386628D01*
X105773055Y-97386635D01*
X105901796Y-97439961D01*
X105944707Y-97457735D01*
X105955127Y-97462051D01*
X106051775Y-97481275D01*
X106100098Y-97490887D01*
X106148421Y-97500500D01*
X106148422Y-97500500D01*
X130358542Y-97500500D01*
X130377870Y-97496655D01*
X130455188Y-97481275D01*
X130551836Y-97462051D01*
X130605165Y-97439961D01*
X130733914Y-97386632D01*
X130897782Y-97277139D01*
X131037139Y-97137782D01*
X131037139Y-97137780D01*
X131047347Y-97127573D01*
X131047348Y-97127570D01*
X132098102Y-96076818D01*
X132159425Y-96043333D01*
X132185783Y-96040499D01*
X132775500Y-96040499D01*
X132842539Y-96060184D01*
X132888294Y-96112988D01*
X132899500Y-96164499D01*
X132899500Y-121913330D01*
X132899499Y-121913348D01*
X132899499Y-122079054D01*
X132899498Y-122079054D01*
X132940423Y-122231785D01*
X132969358Y-122281900D01*
X132969359Y-122281904D01*
X132969360Y-122281904D01*
X133019479Y-122368714D01*
X133019481Y-122368717D01*
X133138349Y-122487585D01*
X133138355Y-122487590D01*
X134515139Y-123864374D01*
X134515149Y-123864385D01*
X134519479Y-123868715D01*
X134519480Y-123868716D01*
X134631284Y-123980520D01*
X134631286Y-123980521D01*
X134631290Y-123980524D01*
X134673830Y-124005084D01*
X134768216Y-124059577D01*
X134880019Y-124089534D01*
X134920942Y-124100500D01*
X134920943Y-124100500D01*
X134920944Y-124100500D01*
X142579055Y-124100500D01*
X142579057Y-124100500D01*
X142731784Y-124059577D01*
X142868716Y-123980520D01*
X142980520Y-123868716D01*
X143059577Y-123731784D01*
X143100500Y-123579057D01*
X143100500Y-118378711D01*
X143649500Y-118378711D01*
X143649500Y-118621288D01*
X143681161Y-118861785D01*
X143743947Y-119096104D01*
X143836773Y-119320205D01*
X143836776Y-119320212D01*
X143958064Y-119530289D01*
X143958066Y-119530292D01*
X143958067Y-119530293D01*
X144105733Y-119722736D01*
X144105739Y-119722743D01*
X144277256Y-119894260D01*
X144277263Y-119894266D01*
X144301811Y-119913102D01*
X144469711Y-120041936D01*
X144679788Y-120163224D01*
X144903900Y-120256054D01*
X145138211Y-120318838D01*
X145318586Y-120342584D01*
X145378711Y-120350500D01*
X145378712Y-120350500D01*
X145621289Y-120350500D01*
X145675166Y-120343407D01*
X145861789Y-120318838D01*
X146096100Y-120256054D01*
X146320212Y-120163224D01*
X146530289Y-120041936D01*
X146722738Y-119894265D01*
X146894265Y-119722738D01*
X147041936Y-119530289D01*
X147163224Y-119320212D01*
X147256054Y-119096100D01*
X147318838Y-118861789D01*
X147350500Y-118621288D01*
X147350500Y-118378712D01*
X147350283Y-118377065D01*
X151124500Y-118377065D01*
X151124500Y-118622934D01*
X151151227Y-118825939D01*
X151156591Y-118866677D01*
X151220222Y-119104152D01*
X151220225Y-119104162D01*
X151309717Y-119320214D01*
X151314306Y-119331292D01*
X151437233Y-119544208D01*
X151437235Y-119544211D01*
X151437236Y-119544212D01*
X151586897Y-119739254D01*
X151586903Y-119739261D01*
X151760738Y-119913096D01*
X151760744Y-119913101D01*
X151955792Y-120062767D01*
X152168708Y-120185694D01*
X152395847Y-120279778D01*
X152633323Y-120343409D01*
X152877073Y-120375500D01*
X152877080Y-120375500D01*
X153122920Y-120375500D01*
X153122927Y-120375500D01*
X153366677Y-120343409D01*
X153604153Y-120279778D01*
X153831292Y-120185694D01*
X154044208Y-120062767D01*
X154239256Y-119913101D01*
X154413101Y-119739256D01*
X154562767Y-119544208D01*
X154685694Y-119331292D01*
X154779778Y-119104153D01*
X154843409Y-118866677D01*
X154875500Y-118622927D01*
X154875500Y-118377073D01*
X154843409Y-118133323D01*
X154779778Y-117895847D01*
X154685694Y-117668708D01*
X154562767Y-117455792D01*
X154413101Y-117260744D01*
X154413096Y-117260738D01*
X154239261Y-117086903D01*
X154239254Y-117086897D01*
X154044212Y-116937236D01*
X154044211Y-116937235D01*
X154044208Y-116937233D01*
X153831292Y-116814306D01*
X153831285Y-116814303D01*
X153604162Y-116720225D01*
X153604155Y-116720223D01*
X153604153Y-116720222D01*
X153366677Y-116656591D01*
X153312817Y-116649500D01*
X153122934Y-116624500D01*
X153122927Y-116624500D01*
X152877073Y-116624500D01*
X152877065Y-116624500D01*
X152645059Y-116655045D01*
X152633323Y-116656591D01*
X152395847Y-116720222D01*
X152395837Y-116720225D01*
X152168714Y-116814303D01*
X152168705Y-116814307D01*
X151955787Y-116937236D01*
X151760745Y-117086897D01*
X151760738Y-117086903D01*
X151586903Y-117260738D01*
X151586897Y-117260745D01*
X151437236Y-117455787D01*
X151314307Y-117668705D01*
X151314303Y-117668714D01*
X151220225Y-117895837D01*
X151220222Y-117895847D01*
X151164462Y-118103950D01*
X151156592Y-118133320D01*
X151156590Y-118133331D01*
X151124500Y-118377065D01*
X147350283Y-118377065D01*
X147349436Y-118370633D01*
X147328763Y-118213600D01*
X147318838Y-118138211D01*
X147256054Y-117903900D01*
X147163224Y-117679788D01*
X147041936Y-117469711D01*
X146894265Y-117277262D01*
X146894260Y-117277256D01*
X146722743Y-117105739D01*
X146722736Y-117105733D01*
X146530293Y-116958067D01*
X146530292Y-116958066D01*
X146530289Y-116958064D01*
X146320212Y-116836776D01*
X146265967Y-116814307D01*
X146096104Y-116743947D01*
X145861785Y-116681161D01*
X145621289Y-116649500D01*
X145621288Y-116649500D01*
X145378712Y-116649500D01*
X145378711Y-116649500D01*
X145138214Y-116681161D01*
X144903895Y-116743947D01*
X144679794Y-116836773D01*
X144679785Y-116836777D01*
X144469706Y-116958067D01*
X144277263Y-117105733D01*
X144277256Y-117105739D01*
X144105739Y-117277256D01*
X144105733Y-117277263D01*
X143958067Y-117469706D01*
X143836777Y-117679785D01*
X143836773Y-117679794D01*
X143743947Y-117903895D01*
X143681161Y-118138214D01*
X143649500Y-118378711D01*
X143100500Y-118378711D01*
X143100500Y-111800096D01*
X143120185Y-111733058D01*
X143136819Y-111712416D01*
X143399252Y-111449983D01*
X146009500Y-111449983D01*
X146009500Y-112850001D01*
X146009501Y-112850018D01*
X146020000Y-112952796D01*
X146020001Y-112952799D01*
X146075185Y-113119331D01*
X146075187Y-113119336D01*
X146091106Y-113145145D01*
X146167288Y-113268656D01*
X146291344Y-113392712D01*
X146440666Y-113484814D01*
X146607203Y-113539999D01*
X146709991Y-113550500D01*
X148110008Y-113550499D01*
X148212797Y-113539999D01*
X148379334Y-113484814D01*
X148528656Y-113392712D01*
X148652712Y-113268656D01*
X148736710Y-113132471D01*
X148788655Y-113085749D01*
X148857618Y-113074526D01*
X148921700Y-113102369D01*
X148933473Y-113113584D01*
X148998216Y-113183913D01*
X148998219Y-113183915D01*
X148998222Y-113183918D01*
X149181365Y-113326464D01*
X149181371Y-113326468D01*
X149181374Y-113326470D01*
X149385497Y-113436936D01*
X149457064Y-113461505D01*
X149605015Y-113512297D01*
X149605017Y-113512297D01*
X149605019Y-113512298D01*
X149833951Y-113550500D01*
X149833952Y-113550500D01*
X150066048Y-113550500D01*
X150066049Y-113550500D01*
X150294981Y-113512298D01*
X150514503Y-113436936D01*
X150718626Y-113326470D01*
X150901784Y-113183913D01*
X151058979Y-113013153D01*
X151185924Y-112818849D01*
X151279157Y-112606300D01*
X151336134Y-112381305D01*
X151336135Y-112381297D01*
X151355300Y-112150006D01*
X151355300Y-112149993D01*
X151336135Y-111918702D01*
X151336133Y-111918691D01*
X151279157Y-111693699D01*
X151185924Y-111481151D01*
X151058981Y-111286849D01*
X150994331Y-111216620D01*
X150963409Y-111153966D01*
X150971270Y-111084540D01*
X151015417Y-111030384D01*
X151081834Y-111008694D01*
X151098859Y-111009849D01*
X151098882Y-111009577D01*
X151103987Y-111010000D01*
X151336007Y-111010000D01*
X151564860Y-110971811D01*
X151784293Y-110896479D01*
X151784301Y-110896476D01*
X151988355Y-110786047D01*
X152018797Y-110762351D01*
X152018798Y-110762350D01*
X151308585Y-110052137D01*
X151393694Y-110029333D01*
X151496306Y-109970090D01*
X151580090Y-109886306D01*
X151639333Y-109783694D01*
X151662138Y-109698585D01*
X152371186Y-110407633D01*
X152455482Y-110278611D01*
X152548682Y-110066135D01*
X152605638Y-109841218D01*
X152624798Y-109610005D01*
X152624798Y-109609994D01*
X152605638Y-109378781D01*
X152548682Y-109153864D01*
X152455484Y-108941393D01*
X152371186Y-108812365D01*
X151662137Y-109521414D01*
X151639333Y-109436306D01*
X151580090Y-109333694D01*
X151496306Y-109249910D01*
X151393694Y-109190667D01*
X151308584Y-109167861D01*
X152018797Y-108457647D01*
X152018797Y-108457645D01*
X151988360Y-108433955D01*
X151988354Y-108433951D01*
X151784302Y-108323523D01*
X151784293Y-108323520D01*
X151564860Y-108248188D01*
X151336007Y-108210000D01*
X151103993Y-108210000D01*
X150875139Y-108248188D01*
X150655706Y-108323520D01*
X150655697Y-108323523D01*
X150451650Y-108433949D01*
X150421200Y-108457647D01*
X151131415Y-109167861D01*
X151046306Y-109190667D01*
X150943694Y-109249910D01*
X150859910Y-109333694D01*
X150800667Y-109436306D01*
X150777861Y-109521415D01*
X150068811Y-108812365D01*
X150054106Y-108834873D01*
X150000959Y-108880230D01*
X149931728Y-108889653D01*
X149868392Y-108860150D01*
X149846489Y-108834873D01*
X149812863Y-108783405D01*
X149788979Y-108746847D01*
X149631784Y-108576087D01*
X149631779Y-108576083D01*
X149631777Y-108576081D01*
X149448634Y-108433535D01*
X149448628Y-108433531D01*
X149244504Y-108323064D01*
X149244495Y-108323061D01*
X149024984Y-108247702D01*
X148813739Y-108212452D01*
X148796049Y-108209500D01*
X148563951Y-108209500D01*
X148546261Y-108212452D01*
X148335015Y-108247702D01*
X148115504Y-108323061D01*
X148115495Y-108323064D01*
X147911371Y-108433531D01*
X147911365Y-108433535D01*
X147728222Y-108576081D01*
X147728219Y-108576084D01*
X147571016Y-108746852D01*
X147444075Y-108941151D01*
X147350842Y-109153699D01*
X147293866Y-109378691D01*
X147293864Y-109378702D01*
X147274700Y-109609993D01*
X147274700Y-109610006D01*
X147293864Y-109841297D01*
X147293866Y-109841308D01*
X147350842Y-110066300D01*
X147444075Y-110278848D01*
X147571018Y-110473150D01*
X147633955Y-110541518D01*
X147664877Y-110604172D01*
X147657017Y-110673598D01*
X147612869Y-110727754D01*
X147546452Y-110749444D01*
X147542725Y-110749500D01*
X146709998Y-110749500D01*
X146709981Y-110749501D01*
X146607203Y-110760000D01*
X146607200Y-110760001D01*
X146440668Y-110815185D01*
X146440663Y-110815187D01*
X146291342Y-110907289D01*
X146167289Y-111031342D01*
X146075187Y-111180663D01*
X146075185Y-111180668D01*
X146047349Y-111264670D01*
X146020001Y-111347203D01*
X146020001Y-111347204D01*
X146020000Y-111347204D01*
X146009500Y-111449983D01*
X143399252Y-111449983D01*
X145515541Y-109333694D01*
X147960520Y-106888716D01*
X148039577Y-106751784D01*
X148080501Y-106599057D01*
X148080501Y-106440942D01*
X148080501Y-106433347D01*
X148080500Y-106433329D01*
X148080500Y-103360096D01*
X148100185Y-103293057D01*
X148116815Y-103272419D01*
X148553806Y-102835427D01*
X148615127Y-102801944D01*
X148681748Y-102805829D01*
X148707114Y-102814538D01*
X148928020Y-102851400D01*
X149151980Y-102851400D01*
X149372886Y-102814538D01*
X149584712Y-102741818D01*
X149781679Y-102635225D01*
X149958415Y-102497665D01*
X150110100Y-102332892D01*
X150206192Y-102185813D01*
X150259338Y-102140457D01*
X150328569Y-102131033D01*
X150391905Y-102160535D01*
X150413808Y-102185813D01*
X150509898Y-102332889D01*
X150509906Y-102332900D01*
X150661581Y-102497661D01*
X150661591Y-102497670D01*
X150766700Y-102579480D01*
X150838321Y-102635225D01*
X150838323Y-102635226D01*
X150838326Y-102635228D01*
X150940104Y-102690307D01*
X151035288Y-102741818D01*
X151232483Y-102809515D01*
X151245692Y-102814050D01*
X151247114Y-102814538D01*
X151468020Y-102851400D01*
X151691980Y-102851400D01*
X151912886Y-102814538D01*
X152124712Y-102741818D01*
X152321679Y-102635225D01*
X152498415Y-102497665D01*
X152650100Y-102332892D01*
X152772595Y-102145400D01*
X152862558Y-101940303D01*
X152917537Y-101723196D01*
X152922200Y-101666929D01*
X152936032Y-101500005D01*
X152936032Y-101499994D01*
X152917538Y-101276812D01*
X152917536Y-101276800D01*
X152862558Y-101059698D01*
X152849999Y-101031067D01*
X152772595Y-100854600D01*
X152763005Y-100839922D01*
X152650101Y-100667110D01*
X152650093Y-100667099D01*
X152498418Y-100502338D01*
X152498408Y-100502329D01*
X152321682Y-100364777D01*
X152321673Y-100364771D01*
X152124718Y-100258185D01*
X152124715Y-100258184D01*
X152124712Y-100258182D01*
X152124706Y-100258180D01*
X152124704Y-100258179D01*
X151912888Y-100185462D01*
X151691980Y-100148600D01*
X151468020Y-100148600D01*
X151247111Y-100185462D01*
X151035295Y-100258179D01*
X151035281Y-100258185D01*
X150838326Y-100364771D01*
X150838317Y-100364777D01*
X150661591Y-100502329D01*
X150661581Y-100502338D01*
X150509906Y-100667099D01*
X150509898Y-100667110D01*
X150413808Y-100814186D01*
X150360662Y-100859543D01*
X150291430Y-100868966D01*
X150228095Y-100839463D01*
X150206192Y-100814186D01*
X150110101Y-100667110D01*
X150110093Y-100667099D01*
X149958418Y-100502338D01*
X149958408Y-100502329D01*
X149781682Y-100364777D01*
X149781673Y-100364771D01*
X149584718Y-100258185D01*
X149584715Y-100258184D01*
X149584712Y-100258182D01*
X149584706Y-100258180D01*
X149584704Y-100258179D01*
X149372888Y-100185462D01*
X149151980Y-100148600D01*
X148928020Y-100148600D01*
X148707111Y-100185462D01*
X148495295Y-100258179D01*
X148495281Y-100258185D01*
X148298326Y-100364771D01*
X148298317Y-100364777D01*
X148121591Y-100502329D01*
X148121581Y-100502338D01*
X147969906Y-100667099D01*
X147969898Y-100667110D01*
X147873509Y-100814644D01*
X147820363Y-100860001D01*
X147751131Y-100869424D01*
X147687796Y-100839922D01*
X147665892Y-100814643D01*
X147615713Y-100737839D01*
X147062081Y-101291470D01*
X147056223Y-101269605D01*
X146977639Y-101133495D01*
X146866505Y-101022361D01*
X146730395Y-100943777D01*
X146708527Y-100937917D01*
X147263810Y-100382635D01*
X147263809Y-100382634D01*
X147241407Y-100365198D01*
X147241401Y-100365193D01*
X147044516Y-100258645D01*
X147044502Y-100258639D01*
X146832766Y-100185949D01*
X146611938Y-100149100D01*
X146388062Y-100149100D01*
X146167233Y-100185949D01*
X145955497Y-100258639D01*
X145955487Y-100258643D01*
X145908712Y-100283956D01*
X145840383Y-100298550D01*
X145775011Y-100273886D01*
X145733351Y-100217795D01*
X145728630Y-100148085D01*
X145762013Y-100087221D01*
X146480520Y-99368716D01*
X146559577Y-99231784D01*
X146600501Y-99079057D01*
X146600501Y-98920942D01*
X146600501Y-98913347D01*
X146600500Y-98913329D01*
X146600500Y-92229997D01*
X147232677Y-92229997D01*
X147232677Y-92230002D01*
X147251929Y-92450062D01*
X147251930Y-92450070D01*
X147309104Y-92663445D01*
X147309105Y-92663447D01*
X147309106Y-92663450D01*
X147325726Y-92699091D01*
X147402466Y-92863662D01*
X147402468Y-92863666D01*
X147529170Y-93044615D01*
X147529175Y-93044621D01*
X147685378Y-93200824D01*
X147685384Y-93200829D01*
X147866333Y-93327531D01*
X147866335Y-93327532D01*
X147866338Y-93327534D01*
X147974332Y-93377892D01*
X147995189Y-93387618D01*
X148047628Y-93433790D01*
X148066780Y-93500984D01*
X148046564Y-93567865D01*
X147995189Y-93612382D01*
X147866340Y-93672465D01*
X147866338Y-93672466D01*
X147685377Y-93799175D01*
X147529175Y-93955377D01*
X147402466Y-94136338D01*
X147402465Y-94136340D01*
X147309107Y-94336548D01*
X147309104Y-94336554D01*
X147251930Y-94549929D01*
X147251929Y-94549937D01*
X147232677Y-94769997D01*
X147232677Y-94770002D01*
X147251929Y-94990062D01*
X147251930Y-94990070D01*
X147309104Y-95203445D01*
X147309105Y-95203447D01*
X147309106Y-95203450D01*
X147344802Y-95280000D01*
X147402466Y-95403662D01*
X147402468Y-95403666D01*
X147529170Y-95584615D01*
X147529175Y-95584621D01*
X147685378Y-95740824D01*
X147685384Y-95740829D01*
X147866333Y-95867531D01*
X147866335Y-95867532D01*
X147866338Y-95867534D01*
X148066550Y-95960894D01*
X148279932Y-96018070D01*
X148437123Y-96031822D01*
X148499998Y-96037323D01*
X148500000Y-96037323D01*
X148500002Y-96037323D01*
X148555017Y-96032509D01*
X148720068Y-96018070D01*
X148933450Y-95960894D01*
X149133662Y-95867534D01*
X149314620Y-95740826D01*
X149470826Y-95584620D01*
X149597534Y-95403662D01*
X149690894Y-95203450D01*
X149748070Y-94990068D01*
X149767323Y-94770000D01*
X149766448Y-94760002D01*
X149757218Y-94654497D01*
X149748070Y-94549932D01*
X149690894Y-94336550D01*
X149597534Y-94136339D01*
X149470826Y-93955380D01*
X149314620Y-93799174D01*
X149314616Y-93799171D01*
X149314615Y-93799170D01*
X149133666Y-93672468D01*
X149133658Y-93672464D01*
X149004811Y-93612382D01*
X148952371Y-93566210D01*
X148933219Y-93499017D01*
X148953435Y-93432135D01*
X149004811Y-93387618D01*
X149025668Y-93377892D01*
X149133662Y-93327534D01*
X149314620Y-93200826D01*
X149470826Y-93044620D01*
X149597534Y-92863662D01*
X149690894Y-92663450D01*
X149748070Y-92450068D01*
X149767323Y-92230000D01*
X149748070Y-92009932D01*
X149690894Y-91796550D01*
X149597534Y-91596339D01*
X149496807Y-91452485D01*
X149470827Y-91415381D01*
X149449210Y-91393764D01*
X149314620Y-91259174D01*
X149314616Y-91259171D01*
X149314615Y-91259170D01*
X149133666Y-91132468D01*
X149133662Y-91132466D01*
X149133660Y-91132465D01*
X148933450Y-91039106D01*
X148933447Y-91039105D01*
X148933445Y-91039104D01*
X148720070Y-90981930D01*
X148720062Y-90981929D01*
X148500002Y-90962677D01*
X148499998Y-90962677D01*
X148279937Y-90981929D01*
X148279929Y-90981930D01*
X148066554Y-91039104D01*
X148066548Y-91039107D01*
X147866340Y-91132465D01*
X147866338Y-91132466D01*
X147685377Y-91259175D01*
X147529175Y-91415377D01*
X147402466Y-91596338D01*
X147402465Y-91596340D01*
X147309107Y-91796548D01*
X147309104Y-91796554D01*
X147251930Y-92009929D01*
X147251929Y-92009937D01*
X147232677Y-92229997D01*
X146600500Y-92229997D01*
X146600500Y-69759999D01*
X152644341Y-69759999D01*
X152644341Y-69760000D01*
X152664936Y-69995403D01*
X152664938Y-69995413D01*
X152726094Y-70223655D01*
X152726096Y-70223659D01*
X152726097Y-70223663D01*
X152762137Y-70300951D01*
X152825965Y-70437830D01*
X152825967Y-70437834D01*
X152961501Y-70631395D01*
X152961506Y-70631402D01*
X153128597Y-70798493D01*
X153128603Y-70798498D01*
X153314594Y-70928730D01*
X153358219Y-70983307D01*
X153365413Y-71052805D01*
X153333890Y-71115160D01*
X153314595Y-71131880D01*
X153128922Y-71261890D01*
X153128920Y-71261891D01*
X152961891Y-71428920D01*
X152961886Y-71428926D01*
X152826400Y-71622420D01*
X152826399Y-71622422D01*
X152726570Y-71836507D01*
X152726567Y-71836513D01*
X152669364Y-72049999D01*
X152669364Y-72050000D01*
X153566988Y-72050000D01*
X153534075Y-72107007D01*
X153500000Y-72234174D01*
X153500000Y-72365826D01*
X153534075Y-72492993D01*
X153566988Y-72550000D01*
X152669364Y-72550000D01*
X152726567Y-72763486D01*
X152726570Y-72763492D01*
X152826399Y-72977578D01*
X152961894Y-73171082D01*
X153128917Y-73338105D01*
X153314595Y-73468119D01*
X153358219Y-73522696D01*
X153365412Y-73592195D01*
X153333890Y-73654549D01*
X153314595Y-73671269D01*
X153128594Y-73801508D01*
X152961505Y-73968597D01*
X152825965Y-74162169D01*
X152825964Y-74162171D01*
X152726098Y-74376335D01*
X152726094Y-74376344D01*
X152664938Y-74604586D01*
X152664936Y-74604596D01*
X152644341Y-74839999D01*
X152644341Y-74840000D01*
X152664936Y-75075403D01*
X152664938Y-75075413D01*
X152726094Y-75303655D01*
X152726096Y-75303659D01*
X152726097Y-75303663D01*
X152782522Y-75424667D01*
X152825965Y-75517830D01*
X152825967Y-75517834D01*
X152961501Y-75711395D01*
X152961506Y-75711402D01*
X153128597Y-75878493D01*
X153128603Y-75878498D01*
X153314158Y-76008425D01*
X153357783Y-76063002D01*
X153364977Y-76132500D01*
X153333454Y-76194855D01*
X153314158Y-76211575D01*
X153128597Y-76341505D01*
X152961505Y-76508597D01*
X152825965Y-76702169D01*
X152825964Y-76702171D01*
X152726098Y-76916335D01*
X152726094Y-76916344D01*
X152664938Y-77144586D01*
X152664936Y-77144596D01*
X152644341Y-77379999D01*
X152644341Y-77380000D01*
X152664936Y-77615403D01*
X152664938Y-77615413D01*
X152726094Y-77843655D01*
X152726096Y-77843659D01*
X152726097Y-77843663D01*
X152798998Y-78000000D01*
X152825965Y-78057830D01*
X152825967Y-78057834D01*
X152961501Y-78251395D01*
X152961506Y-78251402D01*
X153128597Y-78418493D01*
X153128603Y-78418498D01*
X153314158Y-78548425D01*
X153357783Y-78603002D01*
X153364977Y-78672500D01*
X153333454Y-78734855D01*
X153314158Y-78751575D01*
X153128597Y-78881505D01*
X152961505Y-79048597D01*
X152825965Y-79242169D01*
X152825964Y-79242171D01*
X152726098Y-79456335D01*
X152726094Y-79456344D01*
X152664938Y-79684586D01*
X152664936Y-79684596D01*
X152644341Y-79919999D01*
X152644341Y-79920000D01*
X152664936Y-80155403D01*
X152664938Y-80155413D01*
X152726094Y-80383655D01*
X152726096Y-80383659D01*
X152726097Y-80383663D01*
X152782522Y-80504667D01*
X152825965Y-80597830D01*
X152825967Y-80597834D01*
X152961501Y-80791395D01*
X152961506Y-80791402D01*
X153128597Y-80958493D01*
X153128603Y-80958498D01*
X153314158Y-81088425D01*
X153357783Y-81143002D01*
X153364977Y-81212500D01*
X153333454Y-81274855D01*
X153314158Y-81291575D01*
X153128597Y-81421505D01*
X152961505Y-81588597D01*
X152825965Y-81782169D01*
X152825964Y-81782171D01*
X152726098Y-81996335D01*
X152726094Y-81996344D01*
X152664938Y-82224586D01*
X152664936Y-82224596D01*
X152644341Y-82459999D01*
X152644341Y-82460000D01*
X152664936Y-82695403D01*
X152664938Y-82695413D01*
X152726094Y-82923655D01*
X152726096Y-82923659D01*
X152726097Y-82923663D01*
X152782522Y-83044667D01*
X152825965Y-83137830D01*
X152825967Y-83137834D01*
X152961501Y-83331395D01*
X152961506Y-83331402D01*
X153128597Y-83498493D01*
X153128603Y-83498498D01*
X153314158Y-83628425D01*
X153357783Y-83683002D01*
X153364977Y-83752500D01*
X153333454Y-83814855D01*
X153314158Y-83831575D01*
X153128597Y-83961505D01*
X152961505Y-84128597D01*
X152825965Y-84322169D01*
X152825964Y-84322171D01*
X152726098Y-84536335D01*
X152726094Y-84536344D01*
X152664938Y-84764586D01*
X152664936Y-84764596D01*
X152644341Y-84999999D01*
X152644341Y-85000000D01*
X152664936Y-85235403D01*
X152664938Y-85235413D01*
X152726094Y-85463655D01*
X152726096Y-85463659D01*
X152726097Y-85463663D01*
X152782522Y-85584667D01*
X152825965Y-85677830D01*
X152825967Y-85677834D01*
X152881833Y-85757618D01*
X152961505Y-85871401D01*
X153128599Y-86038495D01*
X153220913Y-86103134D01*
X153322165Y-86174032D01*
X153322167Y-86174033D01*
X153322170Y-86174035D01*
X153536337Y-86273903D01*
X153764592Y-86335063D01*
X153952918Y-86351539D01*
X153999999Y-86355659D01*
X154000000Y-86355659D01*
X154000001Y-86355659D01*
X154039234Y-86352226D01*
X154235408Y-86335063D01*
X154463663Y-86273903D01*
X154677830Y-86174035D01*
X154871401Y-86038495D01*
X155038495Y-85871401D01*
X155174035Y-85677830D01*
X155273903Y-85463663D01*
X155335063Y-85235408D01*
X155355659Y-85000000D01*
X155335063Y-84764592D01*
X155273903Y-84536337D01*
X155174035Y-84322171D01*
X155173036Y-84320743D01*
X155038494Y-84128597D01*
X154871402Y-83961506D01*
X154871396Y-83961501D01*
X154685842Y-83831575D01*
X154642217Y-83776998D01*
X154635023Y-83707500D01*
X154666546Y-83645145D01*
X154685842Y-83628425D01*
X154741808Y-83589237D01*
X154871401Y-83498495D01*
X155038495Y-83331401D01*
X155174035Y-83137830D01*
X155273903Y-82923663D01*
X155335063Y-82695408D01*
X155355659Y-82460000D01*
X155335063Y-82224592D01*
X155273903Y-81996337D01*
X155174035Y-81782171D01*
X155149193Y-81746692D01*
X155038494Y-81588597D01*
X154871402Y-81421506D01*
X154871396Y-81421501D01*
X154685842Y-81291575D01*
X154642217Y-81236998D01*
X154635023Y-81167500D01*
X154666546Y-81105145D01*
X154685842Y-81088425D01*
X154741808Y-81049237D01*
X154871401Y-80958495D01*
X155038495Y-80791401D01*
X155174035Y-80597830D01*
X155273903Y-80383663D01*
X155335063Y-80155408D01*
X155355659Y-79920000D01*
X155335063Y-79684592D01*
X155276327Y-79465384D01*
X155273905Y-79456344D01*
X155273904Y-79456343D01*
X155273903Y-79456337D01*
X155174035Y-79242171D01*
X155149193Y-79206692D01*
X155038494Y-79048597D01*
X154871402Y-78881506D01*
X154871396Y-78881501D01*
X154685842Y-78751575D01*
X154642217Y-78696998D01*
X154635023Y-78627500D01*
X154666546Y-78565145D01*
X154685842Y-78548425D01*
X154792644Y-78473641D01*
X154871401Y-78418495D01*
X155038495Y-78251401D01*
X155174035Y-78057830D01*
X155273903Y-77843663D01*
X155335063Y-77615408D01*
X155355659Y-77380000D01*
X155335063Y-77144592D01*
X155273903Y-76916337D01*
X155174035Y-76702171D01*
X155149193Y-76666692D01*
X155038494Y-76508597D01*
X154871402Y-76341506D01*
X154871396Y-76341501D01*
X154685842Y-76211575D01*
X154642217Y-76156998D01*
X154635023Y-76087500D01*
X154666546Y-76025145D01*
X154685842Y-76008425D01*
X154741808Y-75969237D01*
X154871401Y-75878495D01*
X155038495Y-75711401D01*
X155174035Y-75517830D01*
X155273903Y-75303663D01*
X155335063Y-75075408D01*
X155355659Y-74840000D01*
X155335063Y-74604592D01*
X155273903Y-74376337D01*
X155174035Y-74162171D01*
X155149609Y-74127286D01*
X155038494Y-73968597D01*
X154871402Y-73801506D01*
X154871401Y-73801505D01*
X154685405Y-73671269D01*
X154641781Y-73616692D01*
X154634588Y-73547193D01*
X154666110Y-73484839D01*
X154685405Y-73468119D01*
X154871082Y-73338105D01*
X155038105Y-73171082D01*
X155173600Y-72977578D01*
X155273429Y-72763492D01*
X155273432Y-72763486D01*
X155330636Y-72550000D01*
X154433012Y-72550000D01*
X154465925Y-72492993D01*
X154500000Y-72365826D01*
X154500000Y-72234174D01*
X154465925Y-72107007D01*
X154433012Y-72050000D01*
X155330636Y-72050000D01*
X155330635Y-72049999D01*
X155273432Y-71836513D01*
X155273429Y-71836507D01*
X155173600Y-71622422D01*
X155173599Y-71622420D01*
X155038113Y-71428926D01*
X155038108Y-71428920D01*
X154871078Y-71261890D01*
X154685405Y-71131879D01*
X154641780Y-71077302D01*
X154634588Y-71007804D01*
X154666110Y-70945449D01*
X154685406Y-70928730D01*
X154707468Y-70913282D01*
X154871401Y-70798495D01*
X155038495Y-70631401D01*
X155174035Y-70437830D01*
X155273903Y-70223663D01*
X155335063Y-69995408D01*
X155355659Y-69760000D01*
X155335063Y-69524592D01*
X155273903Y-69296337D01*
X155174035Y-69082171D01*
X155166205Y-69070989D01*
X155038496Y-68888600D01*
X154988303Y-68838407D01*
X154916567Y-68766671D01*
X154883084Y-68705351D01*
X154888068Y-68635659D01*
X154929939Y-68579725D01*
X154960915Y-68562810D01*
X155092331Y-68513796D01*
X155207546Y-68427546D01*
X155293796Y-68312331D01*
X155344091Y-68177483D01*
X155350500Y-68117873D01*
X155350499Y-66322128D01*
X155344091Y-66262517D01*
X155330970Y-66227339D01*
X155293797Y-66127671D01*
X155293793Y-66127664D01*
X155207547Y-66012455D01*
X155207544Y-66012452D01*
X155092335Y-65926206D01*
X155092328Y-65926202D01*
X154957482Y-65875908D01*
X154957483Y-65875908D01*
X154897883Y-65869501D01*
X154897881Y-65869500D01*
X154897873Y-65869500D01*
X154897864Y-65869500D01*
X153102129Y-65869500D01*
X153102123Y-65869501D01*
X153042516Y-65875908D01*
X152907671Y-65926202D01*
X152907664Y-65926206D01*
X152792455Y-66012452D01*
X152792452Y-66012455D01*
X152706206Y-66127664D01*
X152706202Y-66127671D01*
X152655908Y-66262517D01*
X152649501Y-66322116D01*
X152649501Y-66322123D01*
X152649500Y-66322135D01*
X152649500Y-68117870D01*
X152649501Y-68117876D01*
X152655908Y-68177483D01*
X152706202Y-68312328D01*
X152706206Y-68312335D01*
X152792452Y-68427544D01*
X152792455Y-68427547D01*
X152907664Y-68513793D01*
X152907671Y-68513797D01*
X153039081Y-68562810D01*
X153095015Y-68604681D01*
X153119432Y-68670145D01*
X153104580Y-68738418D01*
X153083430Y-68766673D01*
X152961503Y-68888600D01*
X152825965Y-69082169D01*
X152825964Y-69082171D01*
X152726098Y-69296335D01*
X152726094Y-69296344D01*
X152664938Y-69524586D01*
X152664936Y-69524596D01*
X152644341Y-69759999D01*
X146600500Y-69759999D01*
X146600500Y-58300082D01*
X146620185Y-58233043D01*
X146636814Y-58212406D01*
X148018535Y-56830684D01*
X148079856Y-56797201D01*
X148092311Y-56795149D01*
X148179255Y-56785354D01*
X148349522Y-56725775D01*
X148502262Y-56629802D01*
X148629816Y-56502248D01*
X148725789Y-56349508D01*
X148785368Y-56179241D01*
X148785369Y-56179235D01*
X148805565Y-55999989D01*
X148805565Y-55999984D01*
X148801410Y-55963112D01*
X148813464Y-55894290D01*
X148860812Y-55842910D01*
X148928422Y-55825285D01*
X148994828Y-55847011D01*
X149012310Y-55861545D01*
X156725825Y-63575061D01*
X164432057Y-71281293D01*
X164465542Y-71342616D01*
X164460558Y-71412308D01*
X164438089Y-71450177D01*
X164344432Y-71558261D01*
X164344430Y-71558265D01*
X164284664Y-71689131D01*
X164284662Y-71689138D01*
X164264977Y-71756177D01*
X164264976Y-71756181D01*
X164244500Y-71898597D01*
X164244500Y-72376000D01*
X164244501Y-72376009D01*
X164256052Y-72483450D01*
X164256054Y-72483462D01*
X164267260Y-72534972D01*
X164301383Y-72637497D01*
X164301386Y-72637503D01*
X164379171Y-72758537D01*
X164379179Y-72758548D01*
X164424923Y-72811340D01*
X164424926Y-72811343D01*
X164424930Y-72811347D01*
X164533664Y-72905567D01*
X164533667Y-72905568D01*
X164533668Y-72905569D01*
X164628536Y-72948895D01*
X164664541Y-72965338D01*
X164731580Y-72985023D01*
X164731584Y-72985024D01*
X164874000Y-73005500D01*
X164874003Y-73005500D01*
X165351421Y-73005500D01*
X165369403Y-73005179D01*
X165369413Y-73005178D01*
X165369448Y-73005178D01*
X165378294Y-73004862D01*
X165396311Y-73003896D01*
X165536903Y-72973312D01*
X165602367Y-72948895D01*
X165728642Y-72879944D01*
X165791997Y-72816589D01*
X165853320Y-72783107D01*
X165923011Y-72788093D01*
X165967357Y-72816593D01*
X166249454Y-73098690D01*
X166282939Y-73160013D01*
X166281549Y-73218461D01*
X166264487Y-73282142D01*
X166264485Y-73282151D01*
X166245426Y-73499999D01*
X166245426Y-73500000D01*
X166264485Y-73717849D01*
X166264487Y-73717859D01*
X166321083Y-73929082D01*
X166321085Y-73929086D01*
X166321086Y-73929090D01*
X166367296Y-74028188D01*
X166413506Y-74127286D01*
X166413507Y-74127287D01*
X166538941Y-74306425D01*
X166693575Y-74461059D01*
X166872713Y-74586493D01*
X166872716Y-74586494D01*
X166872717Y-74586495D01*
X166872719Y-74586496D01*
X166879389Y-74589607D01*
X166931828Y-74635780D01*
X166950979Y-74702974D01*
X166941548Y-74749431D01*
X166940423Y-74752146D01*
X166914519Y-74848819D01*
X166878154Y-74908479D01*
X166865869Y-74918298D01*
X166693574Y-75038941D01*
X166538945Y-75193570D01*
X166538942Y-75193573D01*
X166538941Y-75193575D01*
X166497190Y-75253201D01*
X166413506Y-75372713D01*
X166321087Y-75570908D01*
X166321083Y-75570917D01*
X166264487Y-75782140D01*
X166264485Y-75782150D01*
X166245426Y-75999999D01*
X166245426Y-76000000D01*
X166264485Y-76217849D01*
X166264487Y-76217859D01*
X166321083Y-76429082D01*
X166321085Y-76429086D01*
X166321086Y-76429090D01*
X166326174Y-76440001D01*
X166413506Y-76627286D01*
X166413507Y-76627287D01*
X166538941Y-76806425D01*
X166693575Y-76961059D01*
X166872706Y-77086488D01*
X166872713Y-77086493D01*
X166982943Y-77137894D01*
X167035382Y-77184066D01*
X167054534Y-77251260D01*
X167034318Y-77318141D01*
X166982943Y-77362658D01*
X166872960Y-77413944D01*
X166810931Y-77457376D01*
X166810930Y-77457377D01*
X167374427Y-78020874D01*
X167308821Y-78038454D01*
X167195879Y-78103661D01*
X167103661Y-78195879D01*
X167038454Y-78308821D01*
X167020874Y-78374427D01*
X166457377Y-77810930D01*
X166457376Y-77810931D01*
X166413944Y-77872960D01*
X166321559Y-78071080D01*
X166321555Y-78071089D01*
X166264981Y-78282228D01*
X166264979Y-78282238D01*
X166245928Y-78499998D01*
X166245928Y-78500001D01*
X166264979Y-78717761D01*
X166264981Y-78717771D01*
X166321555Y-78928910D01*
X166321559Y-78928919D01*
X166413941Y-79127034D01*
X166413942Y-79127036D01*
X166457377Y-79189067D01*
X166457378Y-79189068D01*
X167020874Y-78625571D01*
X167038454Y-78691179D01*
X167103661Y-78804121D01*
X167195879Y-78896339D01*
X167308821Y-78961546D01*
X167374426Y-78979124D01*
X166810930Y-79542621D01*
X166872964Y-79586057D01*
X167071080Y-79678440D01*
X167071089Y-79678444D01*
X167282228Y-79735018D01*
X167282238Y-79735020D01*
X167499998Y-79754072D01*
X167500002Y-79754072D01*
X167717761Y-79735020D01*
X167717771Y-79735018D01*
X167928910Y-79678444D01*
X167928919Y-79678440D01*
X168127036Y-79586057D01*
X168127040Y-79586055D01*
X168299377Y-79465384D01*
X168365583Y-79443057D01*
X168433350Y-79460067D01*
X168481163Y-79511015D01*
X168494500Y-79566959D01*
X168494500Y-110239254D01*
X168474815Y-110306293D01*
X168458181Y-110326935D01*
X167080738Y-111704377D01*
X167019415Y-111737862D01*
X166949723Y-111732878D01*
X166893790Y-111691006D01*
X166869373Y-111625542D01*
X166872852Y-111586255D01*
X166891983Y-111510710D01*
X166891983Y-111510706D01*
X166910818Y-111283405D01*
X166910818Y-111283394D01*
X166891983Y-111056095D01*
X166835991Y-110834984D01*
X166744369Y-110626109D01*
X166663864Y-110502887D01*
X166109641Y-111057111D01*
X166081276Y-110988630D01*
X166013173Y-110886707D01*
X165926494Y-110800028D01*
X165824571Y-110731925D01*
X165756089Y-110703559D01*
X166311711Y-110147937D01*
X166311710Y-110147935D01*
X166290683Y-110131568D01*
X166249871Y-110074857D01*
X166246198Y-110005084D01*
X166280830Y-109944401D01*
X166290672Y-109935872D01*
X166465478Y-109799817D01*
X166620014Y-109631947D01*
X166744811Y-109440930D01*
X166836465Y-109231978D01*
X166892478Y-109010791D01*
X166892479Y-109010783D01*
X166911320Y-108783405D01*
X166911320Y-108783394D01*
X166892479Y-108556016D01*
X166892477Y-108556008D01*
X166851972Y-108396057D01*
X166854596Y-108326240D01*
X166884494Y-108277940D01*
X167064607Y-108097828D01*
X167064612Y-108097824D01*
X167074815Y-108087620D01*
X167074817Y-108087620D01*
X167186621Y-107975816D01*
X167265678Y-107838884D01*
X167306601Y-107686157D01*
X167306601Y-87295161D01*
X167306602Y-87295148D01*
X167306602Y-87127045D01*
X167305999Y-87124793D01*
X167265678Y-86974317D01*
X167264421Y-86972140D01*
X167186625Y-86837391D01*
X167186619Y-86837383D01*
X164830700Y-84481465D01*
X164797215Y-84420142D01*
X164795163Y-84407686D01*
X164785368Y-84320745D01*
X164725789Y-84150478D01*
X164629816Y-83997738D01*
X164502262Y-83870184D01*
X164458915Y-83842947D01*
X164349523Y-83774211D01*
X164179254Y-83714631D01*
X164179249Y-83714630D01*
X164000004Y-83694435D01*
X163999996Y-83694435D01*
X163820750Y-83714630D01*
X163820745Y-83714631D01*
X163650476Y-83774211D01*
X163497737Y-83870184D01*
X163370184Y-83997737D01*
X163274211Y-84150476D01*
X163214631Y-84320745D01*
X163214630Y-84320750D01*
X163194435Y-84499996D01*
X163194435Y-84500003D01*
X163214630Y-84679249D01*
X163214631Y-84679254D01*
X163274211Y-84849523D01*
X163368762Y-84999999D01*
X163370184Y-85002262D01*
X163497738Y-85129816D01*
X163650478Y-85225789D01*
X163820745Y-85285368D01*
X163907669Y-85295161D01*
X163972080Y-85322226D01*
X163981465Y-85330700D01*
X166069282Y-87418517D01*
X166102767Y-87479840D01*
X166105601Y-87506198D01*
X166105601Y-93208753D01*
X166085916Y-93275792D01*
X166033112Y-93321547D01*
X165963954Y-93331491D01*
X165934275Y-93322649D01*
X165934171Y-93322936D01*
X165929373Y-93321189D01*
X165929207Y-93321140D01*
X165929098Y-93321089D01*
X165929082Y-93321083D01*
X165717859Y-93264487D01*
X165717849Y-93264485D01*
X165500001Y-93245426D01*
X165499999Y-93245426D01*
X165282150Y-93264485D01*
X165282140Y-93264487D01*
X165070917Y-93321083D01*
X165070910Y-93321085D01*
X165070910Y-93321086D01*
X165067558Y-93322649D01*
X164872713Y-93413506D01*
X164778584Y-93479417D01*
X164693575Y-93538941D01*
X164693573Y-93538942D01*
X164693570Y-93538945D01*
X164538945Y-93693570D01*
X164538942Y-93693573D01*
X164538941Y-93693575D01*
X164508066Y-93737669D01*
X164413506Y-93872713D01*
X164321087Y-94070908D01*
X164321083Y-94070917D01*
X164264487Y-94282140D01*
X164264485Y-94282150D01*
X164245426Y-94499999D01*
X164245426Y-94500000D01*
X164264485Y-94717849D01*
X164264487Y-94717859D01*
X164321083Y-94929082D01*
X164321085Y-94929086D01*
X164321086Y-94929090D01*
X164346283Y-94983124D01*
X164413506Y-95127286D01*
X164413507Y-95127287D01*
X164538941Y-95306425D01*
X164693575Y-95461059D01*
X164870031Y-95584615D01*
X164872713Y-95586493D01*
X164982351Y-95637618D01*
X165034790Y-95683790D01*
X165053942Y-95750984D01*
X165033726Y-95817865D01*
X164982351Y-95862382D01*
X164872713Y-95913506D01*
X164765024Y-95988912D01*
X164693575Y-96038941D01*
X164693573Y-96038942D01*
X164693570Y-96038945D01*
X164538945Y-96193570D01*
X164413506Y-96372713D01*
X164321087Y-96570908D01*
X164321083Y-96570917D01*
X164264487Y-96782140D01*
X164264485Y-96782150D01*
X164245426Y-96999999D01*
X164245426Y-97000000D01*
X164264485Y-97217849D01*
X164264487Y-97217859D01*
X164321083Y-97429082D01*
X164321085Y-97429086D01*
X164321086Y-97429090D01*
X164354385Y-97500500D01*
X164413506Y-97627286D01*
X164413507Y-97627287D01*
X164538941Y-97806425D01*
X164693575Y-97961059D01*
X164872713Y-98086493D01*
X165070910Y-98178914D01*
X165282146Y-98235514D01*
X165456429Y-98250762D01*
X165499999Y-98254574D01*
X165500000Y-98254574D01*
X165500001Y-98254574D01*
X165536309Y-98251397D01*
X165717854Y-98235514D01*
X165929090Y-98178914D01*
X165929191Y-98178866D01*
X165929238Y-98178859D01*
X165934171Y-98177064D01*
X165934531Y-98178055D01*
X165998266Y-98168371D01*
X166062052Y-98196887D01*
X166100295Y-98255361D01*
X166105601Y-98291246D01*
X166105601Y-102351726D01*
X166085916Y-102418765D01*
X166033112Y-102464520D01*
X165963954Y-102474464D01*
X165941339Y-102469007D01*
X165868948Y-102444155D01*
X165643886Y-102406600D01*
X165415716Y-102406600D01*
X165190655Y-102444155D01*
X164974858Y-102518239D01*
X164974850Y-102518242D01*
X164774180Y-102626840D01*
X164594124Y-102766982D01*
X164594120Y-102766986D01*
X164439588Y-102934851D01*
X164314790Y-103125870D01*
X164223136Y-103334822D01*
X164167124Y-103556008D01*
X164167122Y-103556017D01*
X164149770Y-103765436D01*
X164124617Y-103830621D01*
X164068215Y-103871859D01*
X163998472Y-103876057D01*
X163938513Y-103842877D01*
X161636819Y-101541183D01*
X161603334Y-101479860D01*
X161600500Y-101453502D01*
X161600500Y-85082412D01*
X161620185Y-85015373D01*
X161627555Y-85005097D01*
X161629810Y-85002267D01*
X161629816Y-85002262D01*
X161725789Y-84849522D01*
X161785368Y-84679255D01*
X161805565Y-84500000D01*
X161796567Y-84420142D01*
X161785369Y-84320750D01*
X161785368Y-84320745D01*
X161785367Y-84320743D01*
X161725789Y-84150478D01*
X161712041Y-84128599D01*
X161629815Y-83997737D01*
X161502262Y-83870184D01*
X161349523Y-83774211D01*
X161179254Y-83714631D01*
X161179249Y-83714630D01*
X161000004Y-83694435D01*
X160999996Y-83694435D01*
X160820750Y-83714630D01*
X160820745Y-83714631D01*
X160650476Y-83774211D01*
X160497737Y-83870184D01*
X160370184Y-83997737D01*
X160274211Y-84150476D01*
X160214631Y-84320745D01*
X160214630Y-84320750D01*
X160194435Y-84499996D01*
X160194435Y-84500003D01*
X160214630Y-84679249D01*
X160214631Y-84679254D01*
X160274211Y-84849523D01*
X160370185Y-85002263D01*
X160372445Y-85005097D01*
X160373334Y-85007275D01*
X160373889Y-85008158D01*
X160373734Y-85008255D01*
X160398855Y-85069783D01*
X160399500Y-85082412D01*
X160399500Y-101666929D01*
X160399499Y-101666947D01*
X160399499Y-101832653D01*
X160399498Y-101832653D01*
X160440423Y-101985384D01*
X160469358Y-102035499D01*
X160469359Y-102035503D01*
X160469360Y-102035503D01*
X160481322Y-102056223D01*
X160519479Y-102122313D01*
X160519481Y-102122316D01*
X160638349Y-102241184D01*
X160638355Y-102241189D01*
X164175104Y-105777938D01*
X164208589Y-105839261D01*
X164207629Y-105896059D01*
X164167124Y-106056005D01*
X164167122Y-106056016D01*
X164148282Y-106283394D01*
X164148282Y-106283405D01*
X164167122Y-106510783D01*
X164167124Y-106510791D01*
X164223136Y-106731977D01*
X164314790Y-106940929D01*
X164439588Y-107131948D01*
X164594120Y-107299813D01*
X164594131Y-107299824D01*
X164768509Y-107435547D01*
X164809322Y-107492257D01*
X164812997Y-107562030D01*
X164778365Y-107622713D01*
X164768509Y-107631253D01*
X164594131Y-107766975D01*
X164594120Y-107766986D01*
X164439588Y-107934851D01*
X164314790Y-108125870D01*
X164223136Y-108334822D01*
X164167124Y-108556008D01*
X164167122Y-108556016D01*
X164148282Y-108783394D01*
X164148282Y-108783405D01*
X164167122Y-109010783D01*
X164167124Y-109010791D01*
X164223136Y-109231977D01*
X164314790Y-109440929D01*
X164439588Y-109631948D01*
X164594120Y-109799813D01*
X164594124Y-109799817D01*
X164768916Y-109935862D01*
X164809729Y-109992573D01*
X164813404Y-110062346D01*
X164778773Y-110123029D01*
X164768917Y-110131569D01*
X164747890Y-110147934D01*
X164747890Y-110147936D01*
X165303513Y-110703559D01*
X165235031Y-110731925D01*
X165133108Y-110800028D01*
X165046429Y-110886707D01*
X164978326Y-110988630D01*
X164949960Y-111057112D01*
X164395736Y-110502888D01*
X164315232Y-110626110D01*
X164315230Y-110626114D01*
X164223610Y-110834984D01*
X164167618Y-111056095D01*
X164148784Y-111283394D01*
X164148784Y-111283405D01*
X164167618Y-111510704D01*
X164223610Y-111731815D01*
X164315232Y-111940690D01*
X164395735Y-112063910D01*
X164949959Y-111509687D01*
X164978326Y-111578170D01*
X165046429Y-111680093D01*
X165133108Y-111766772D01*
X165235031Y-111834875D01*
X165303512Y-111863240D01*
X164747889Y-112418862D01*
X164747890Y-112418863D01*
X164774452Y-112439537D01*
X164774453Y-112439539D01*
X164975051Y-112548098D01*
X164975056Y-112548100D01*
X165190777Y-112622157D01*
X165415759Y-112659700D01*
X165643843Y-112659700D01*
X165840081Y-112626953D01*
X165909446Y-112635335D01*
X165963268Y-112679887D01*
X165984459Y-112746466D01*
X165966292Y-112813932D01*
X165948172Y-112836943D01*
X163678892Y-115106223D01*
X163678855Y-115106262D01*
X163642728Y-115146480D01*
X163642718Y-115146492D01*
X163626076Y-115167143D01*
X163594433Y-115211025D01*
X163534663Y-115341899D01*
X163534662Y-115341903D01*
X163514977Y-115408942D01*
X163514976Y-115408946D01*
X163494500Y-115551362D01*
X163494500Y-117253383D01*
X163506875Y-117364547D01*
X163506876Y-117364550D01*
X163518866Y-117417742D01*
X163518872Y-117417762D01*
X163555378Y-117523454D01*
X163555380Y-117523459D01*
X163555382Y-117523463D01*
X163555384Y-117523466D01*
X163555385Y-117523468D01*
X163634977Y-117643317D01*
X163684473Y-117698733D01*
X163683535Y-117699570D01*
X163715198Y-117755530D01*
X163711267Y-117825289D01*
X163688157Y-117864918D01*
X163594432Y-117973080D01*
X163594430Y-117973084D01*
X163534664Y-118103950D01*
X163514976Y-118170998D01*
X163494500Y-118313417D01*
X163494500Y-119448640D01*
X163497397Y-119502688D01*
X163497397Y-119502689D01*
X163500229Y-119529022D01*
X163500232Y-119529049D01*
X163508885Y-119582445D01*
X163508885Y-119582447D01*
X163559166Y-119717252D01*
X163559168Y-119717257D01*
X163592653Y-119778580D01*
X163678877Y-119893761D01*
X163678881Y-119893765D01*
X163678886Y-119893771D01*
X163774713Y-119989598D01*
X163775884Y-119990732D01*
X163786295Y-120000817D01*
X163792071Y-120006236D01*
X163804044Y-120017114D01*
X163804046Y-120017115D01*
X163804047Y-120017116D01*
X163924496Y-120095809D01*
X163924497Y-120095810D01*
X163981952Y-120122573D01*
X163983494Y-120123392D01*
X163987833Y-120125311D01*
X163987837Y-120125314D01*
X164061114Y-120147429D01*
X164119606Y-120185642D01*
X164148154Y-120249414D01*
X164148863Y-120276376D01*
X164148583Y-120279774D01*
X164148282Y-120283402D01*
X164148282Y-120283405D01*
X164167122Y-120510783D01*
X164167124Y-120510791D01*
X164223136Y-120731977D01*
X164314790Y-120940929D01*
X164439588Y-121131948D01*
X164594120Y-121299813D01*
X164594131Y-121299824D01*
X164768509Y-121435547D01*
X164809322Y-121492257D01*
X164812997Y-121562030D01*
X164778365Y-121622713D01*
X164768509Y-121631253D01*
X164594131Y-121766975D01*
X164594120Y-121766986D01*
X164439588Y-121934851D01*
X164314790Y-122125870D01*
X164223136Y-122334822D01*
X164167124Y-122556008D01*
X164167122Y-122556016D01*
X164148282Y-122783394D01*
X164148282Y-122783405D01*
X164167122Y-123010783D01*
X164167124Y-123010791D01*
X164223136Y-123231977D01*
X164314790Y-123440929D01*
X164439588Y-123631948D01*
X164531500Y-123731790D01*
X164594124Y-123799817D01*
X164677081Y-123864385D01*
X164768916Y-123935862D01*
X164809729Y-123992573D01*
X164813404Y-124062346D01*
X164778773Y-124123029D01*
X164768917Y-124131569D01*
X164747890Y-124147934D01*
X164747890Y-124147936D01*
X165303513Y-124703559D01*
X165235031Y-124731925D01*
X165133108Y-124800028D01*
X165046429Y-124886707D01*
X164978326Y-124988630D01*
X164949960Y-125057112D01*
X164395736Y-124502888D01*
X164315232Y-124626110D01*
X164315230Y-124626114D01*
X164223610Y-124834984D01*
X164167618Y-125056095D01*
X164148784Y-125283394D01*
X164148784Y-125283405D01*
X164167618Y-125510704D01*
X164223610Y-125731815D01*
X164315232Y-125940690D01*
X164395735Y-126063910D01*
X164949959Y-125509687D01*
X164978326Y-125578170D01*
X165046429Y-125680093D01*
X165133108Y-125766772D01*
X165235031Y-125834875D01*
X165303512Y-125863240D01*
X164747889Y-126418862D01*
X164747890Y-126418863D01*
X164774452Y-126439537D01*
X164774453Y-126439539D01*
X164975051Y-126548098D01*
X164975056Y-126548100D01*
X165190777Y-126622157D01*
X165415759Y-126659700D01*
X165643843Y-126659700D01*
X165868824Y-126622157D01*
X166084545Y-126548100D01*
X166084550Y-126548098D01*
X166285147Y-126439539D01*
X166285150Y-126439537D01*
X166311711Y-126418863D01*
X165756088Y-125863240D01*
X165824571Y-125834875D01*
X165926494Y-125766772D01*
X166013173Y-125680093D01*
X166081276Y-125578170D01*
X166109641Y-125509688D01*
X166663864Y-126063911D01*
X166744370Y-125940687D01*
X166756944Y-125912023D01*
X166801900Y-125858537D01*
X166868635Y-125837847D01*
X166935963Y-125856521D01*
X166982507Y-125908631D01*
X166994500Y-125961833D01*
X166994500Y-128739254D01*
X166974815Y-128806293D01*
X166958181Y-128826935D01*
X166326935Y-129458181D01*
X166265612Y-129491666D01*
X166239254Y-129494500D01*
X164551360Y-129494500D01*
X164497311Y-129497397D01*
X164497310Y-129497397D01*
X164470977Y-129500229D01*
X164470950Y-129500232D01*
X164417554Y-129508885D01*
X164417552Y-129508885D01*
X164282747Y-129559166D01*
X164221422Y-129592651D01*
X164106240Y-129678876D01*
X164106228Y-129678886D01*
X163303693Y-130481422D01*
X163303656Y-130481461D01*
X163267529Y-130521679D01*
X163267519Y-130521691D01*
X163250877Y-130542342D01*
X163219234Y-130586224D01*
X163159464Y-130717098D01*
X163139777Y-130784143D01*
X163119301Y-130926562D01*
X163119301Y-132113040D01*
X163122198Y-132167088D01*
X163122198Y-132167089D01*
X163125030Y-132193422D01*
X163125033Y-132193449D01*
X163133686Y-132246845D01*
X163133686Y-132246847D01*
X163177302Y-132363782D01*
X163183969Y-132381657D01*
X163217454Y-132442980D01*
X163303678Y-132558161D01*
X163303682Y-132558165D01*
X163303687Y-132558171D01*
X163892850Y-133147334D01*
X163907181Y-133161112D01*
X163907206Y-133161135D01*
X163914391Y-133167775D01*
X163929327Y-133181040D01*
X164050948Y-133257915D01*
X164114720Y-133286461D01*
X164114724Y-133286462D01*
X164114729Y-133286464D01*
X164253066Y-133325956D01*
X164253069Y-133325957D01*
X164253069Y-133325956D01*
X164253070Y-133325957D01*
X164280806Y-133325748D01*
X164347990Y-133344926D01*
X164394142Y-133397384D01*
X164404606Y-133466465D01*
X164385548Y-133517564D01*
X164314792Y-133625866D01*
X164223136Y-133834822D01*
X164167124Y-134056008D01*
X164167122Y-134056016D01*
X164148282Y-134283394D01*
X164148282Y-134283405D01*
X164167122Y-134510783D01*
X164167124Y-134510791D01*
X164223136Y-134731977D01*
X164314790Y-134940929D01*
X164439588Y-135131948D01*
X164594120Y-135299813D01*
X164594131Y-135299824D01*
X164768509Y-135435547D01*
X164809322Y-135492257D01*
X164812997Y-135562030D01*
X164778365Y-135622713D01*
X164768509Y-135631253D01*
X164594131Y-135766975D01*
X164594120Y-135766986D01*
X164439588Y-135934851D01*
X164314790Y-136125870D01*
X164223136Y-136334822D01*
X164167124Y-136556008D01*
X164167122Y-136556016D01*
X164148282Y-136783394D01*
X164148282Y-136783405D01*
X164167122Y-137010783D01*
X164167124Y-137010791D01*
X164223136Y-137231977D01*
X164314790Y-137440929D01*
X164439588Y-137631948D01*
X164594120Y-137799813D01*
X164594124Y-137799817D01*
X164768916Y-137935862D01*
X164809729Y-137992573D01*
X164813404Y-138062346D01*
X164778773Y-138123029D01*
X164768917Y-138131569D01*
X164747890Y-138147934D01*
X164747890Y-138147936D01*
X165303513Y-138703559D01*
X165235031Y-138731925D01*
X165133108Y-138800028D01*
X165046429Y-138886707D01*
X164978326Y-138988630D01*
X164949960Y-139057112D01*
X164395736Y-138502888D01*
X164315232Y-138626110D01*
X164315230Y-138626114D01*
X164223610Y-138834984D01*
X164167618Y-139056095D01*
X164148784Y-139283394D01*
X164148784Y-139283405D01*
X164167618Y-139510704D01*
X164223610Y-139731815D01*
X164315232Y-139940690D01*
X164395735Y-140063910D01*
X164949959Y-139509687D01*
X164978326Y-139578170D01*
X165046429Y-139680093D01*
X165133108Y-139766772D01*
X165235031Y-139834875D01*
X165303512Y-139863240D01*
X164747889Y-140418862D01*
X164747890Y-140418863D01*
X164774452Y-140439537D01*
X164774453Y-140439539D01*
X164975051Y-140548098D01*
X164975056Y-140548100D01*
X165190777Y-140622157D01*
X165415759Y-140659700D01*
X165643843Y-140659700D01*
X165868824Y-140622157D01*
X166084545Y-140548100D01*
X166084550Y-140548098D01*
X166285147Y-140439539D01*
X166285150Y-140439537D01*
X166311711Y-140418863D01*
X165756088Y-139863240D01*
X165824571Y-139834875D01*
X165926494Y-139766772D01*
X166013173Y-139680093D01*
X166081276Y-139578170D01*
X166109641Y-139509688D01*
X166663864Y-140063911D01*
X166744370Y-139940687D01*
X166835991Y-139731815D01*
X166891983Y-139510704D01*
X166910818Y-139283405D01*
X166910818Y-139283394D01*
X166891983Y-139056095D01*
X166835991Y-138834984D01*
X166744369Y-138626109D01*
X166663864Y-138502887D01*
X166109641Y-139057110D01*
X166081276Y-138988630D01*
X166013173Y-138886707D01*
X165926494Y-138800028D01*
X165824571Y-138731925D01*
X165756089Y-138703559D01*
X166311711Y-138147937D01*
X166311710Y-138147935D01*
X166290683Y-138131568D01*
X166249871Y-138074857D01*
X166246198Y-138005084D01*
X166280830Y-137944401D01*
X166290672Y-137935872D01*
X166465478Y-137799817D01*
X166620014Y-137631947D01*
X166744811Y-137440930D01*
X166836465Y-137231978D01*
X166892478Y-137010791D01*
X166911320Y-136783400D01*
X166892478Y-136556009D01*
X166836465Y-136334822D01*
X166744811Y-136125870D01*
X166620014Y-135934853D01*
X166620013Y-135934851D01*
X166465481Y-135766986D01*
X166465477Y-135766982D01*
X166351717Y-135678440D01*
X166291091Y-135631253D01*
X166250279Y-135574543D01*
X166246604Y-135504770D01*
X166281235Y-135444087D01*
X166291092Y-135435546D01*
X166465478Y-135299817D01*
X166620014Y-135131947D01*
X166744811Y-134940930D01*
X166836465Y-134731978D01*
X166892478Y-134510791D01*
X166893372Y-134500001D01*
X166911320Y-134283405D01*
X166911320Y-134283394D01*
X166892479Y-134056016D01*
X166892478Y-134056013D01*
X166892478Y-134056009D01*
X166836465Y-133834822D01*
X166768252Y-133679310D01*
X166759349Y-133610009D01*
X166789327Y-133546897D01*
X166848666Y-133510011D01*
X166881808Y-133505500D01*
X171875500Y-133505500D01*
X171942539Y-133525185D01*
X171988294Y-133577989D01*
X171999500Y-133629500D01*
X171999500Y-158375500D01*
X171979815Y-158442539D01*
X171927011Y-158488294D01*
X171875500Y-158499500D01*
X103124500Y-158499500D01*
X103057461Y-158479815D01*
X103011706Y-158427011D01*
X103000500Y-158375500D01*
X103000500Y-154999994D01*
X103994556Y-154999994D01*
X103994556Y-155000005D01*
X104014310Y-155314004D01*
X104014311Y-155314011D01*
X104017455Y-155330493D01*
X104056083Y-155532989D01*
X104073270Y-155623083D01*
X104170497Y-155922316D01*
X104170499Y-155922321D01*
X104304461Y-156207003D01*
X104304464Y-156207009D01*
X104473051Y-156472661D01*
X104473054Y-156472665D01*
X104673606Y-156715090D01*
X104673608Y-156715092D01*
X104902968Y-156930476D01*
X104902978Y-156930484D01*
X105157504Y-157115408D01*
X105157509Y-157115410D01*
X105157516Y-157115416D01*
X105433234Y-157266994D01*
X105433239Y-157266996D01*
X105433241Y-157266997D01*
X105433242Y-157266998D01*
X105725771Y-157382818D01*
X105725774Y-157382819D01*
X106030523Y-157461065D01*
X106030527Y-157461066D01*
X106096010Y-157469338D01*
X106342670Y-157500499D01*
X106342679Y-157500499D01*
X106342682Y-157500500D01*
X106342684Y-157500500D01*
X106657316Y-157500500D01*
X106657318Y-157500500D01*
X106657321Y-157500499D01*
X106657329Y-157500499D01*
X106843593Y-157476968D01*
X106969473Y-157461066D01*
X107274225Y-157382819D01*
X107274228Y-157382818D01*
X107566757Y-157266998D01*
X107566758Y-157266997D01*
X107566756Y-157266997D01*
X107566766Y-157266994D01*
X107842484Y-157115416D01*
X108097030Y-156930478D01*
X108326390Y-156715094D01*
X108526947Y-156472663D01*
X108695537Y-156207007D01*
X108829503Y-155922315D01*
X108926731Y-155623079D01*
X108985688Y-155314015D01*
X108985689Y-155314004D01*
X109005444Y-155000005D01*
X109005444Y-154999994D01*
X108985689Y-154685995D01*
X108985688Y-154685988D01*
X108985688Y-154685985D01*
X108926731Y-154376921D01*
X108829503Y-154077685D01*
X108695537Y-153792993D01*
X108526947Y-153527337D01*
X108511106Y-153508188D01*
X108326393Y-153284909D01*
X108326391Y-153284907D01*
X108097031Y-153069523D01*
X108097021Y-153069515D01*
X107842495Y-152884591D01*
X107842488Y-152884586D01*
X107842484Y-152884584D01*
X107566766Y-152733006D01*
X107566763Y-152733004D01*
X107566758Y-152733002D01*
X107566757Y-152733001D01*
X107274228Y-152617181D01*
X107274225Y-152617180D01*
X106969476Y-152538934D01*
X106969463Y-152538932D01*
X106657329Y-152499500D01*
X106657318Y-152499500D01*
X106342682Y-152499500D01*
X106342670Y-152499500D01*
X106030536Y-152538932D01*
X106030523Y-152538934D01*
X105725774Y-152617180D01*
X105725771Y-152617181D01*
X105433242Y-152733001D01*
X105433241Y-152733002D01*
X105157516Y-152884584D01*
X105157504Y-152884591D01*
X104902978Y-153069515D01*
X104902968Y-153069523D01*
X104673608Y-153284907D01*
X104673606Y-153284909D01*
X104473054Y-153527334D01*
X104473051Y-153527338D01*
X104304464Y-153792990D01*
X104304461Y-153792996D01*
X104170499Y-154077678D01*
X104170497Y-154077683D01*
X104073270Y-154376916D01*
X104014311Y-154685988D01*
X104014310Y-154685995D01*
X103994556Y-154999994D01*
X103000500Y-154999994D01*
X103000500Y-151500000D01*
X132994693Y-151500000D01*
X133013912Y-151915697D01*
X133013912Y-151915702D01*
X133013913Y-151915707D01*
X133071403Y-152327845D01*
X133071405Y-152327853D01*
X133166679Y-152732933D01*
X133298929Y-153127514D01*
X133467010Y-153508177D01*
X133467020Y-153508198D01*
X133669506Y-153871731D01*
X133669509Y-153871735D01*
X133669511Y-153871739D01*
X133904687Y-154215054D01*
X133904689Y-154215056D01*
X133904696Y-154215066D01*
X134170528Y-154535194D01*
X134170538Y-154535206D01*
X134464794Y-154829462D01*
X134464805Y-154829471D01*
X134784933Y-155095303D01*
X134784939Y-155095307D01*
X134784946Y-155095313D01*
X135128261Y-155330489D01*
X135491812Y-155532985D01*
X135682153Y-155617029D01*
X135872485Y-155701070D01*
X135872488Y-155701071D01*
X135872495Y-155701074D01*
X136267064Y-155833320D01*
X136672152Y-155928596D01*
X137084303Y-155986088D01*
X137500000Y-156005307D01*
X137915697Y-155986088D01*
X138327848Y-155928596D01*
X138732936Y-155833320D01*
X139127505Y-155701074D01*
X139508188Y-155532985D01*
X139871739Y-155330489D01*
X140215054Y-155095313D01*
X140329842Y-154999994D01*
X165994556Y-154999994D01*
X165994556Y-155000005D01*
X166014310Y-155314004D01*
X166014311Y-155314011D01*
X166017455Y-155330493D01*
X166056083Y-155532989D01*
X166073270Y-155623083D01*
X166170497Y-155922316D01*
X166170499Y-155922321D01*
X166304461Y-156207003D01*
X166304464Y-156207009D01*
X166473051Y-156472661D01*
X166473054Y-156472665D01*
X166673606Y-156715090D01*
X166673608Y-156715092D01*
X166902968Y-156930476D01*
X166902978Y-156930484D01*
X167157504Y-157115408D01*
X167157509Y-157115410D01*
X167157516Y-157115416D01*
X167433234Y-157266994D01*
X167433239Y-157266996D01*
X167433241Y-157266997D01*
X167433242Y-157266998D01*
X167725771Y-157382818D01*
X167725774Y-157382819D01*
X168030523Y-157461065D01*
X168030527Y-157461066D01*
X168096010Y-157469338D01*
X168342670Y-157500499D01*
X168342679Y-157500499D01*
X168342682Y-157500500D01*
X168342684Y-157500500D01*
X168657316Y-157500500D01*
X168657318Y-157500500D01*
X168657321Y-157500499D01*
X168657329Y-157500499D01*
X168843593Y-157476968D01*
X168969473Y-157461066D01*
X169274225Y-157382819D01*
X169274228Y-157382818D01*
X169566757Y-157266998D01*
X169566758Y-157266997D01*
X169566756Y-157266997D01*
X169566766Y-157266994D01*
X169842484Y-157115416D01*
X170097030Y-156930478D01*
X170326390Y-156715094D01*
X170526947Y-156472663D01*
X170695537Y-156207007D01*
X170829503Y-155922315D01*
X170926731Y-155623079D01*
X170985688Y-155314015D01*
X170985689Y-155314004D01*
X171005444Y-155000005D01*
X171005444Y-154999994D01*
X170985689Y-154685995D01*
X170985688Y-154685988D01*
X170985688Y-154685985D01*
X170926731Y-154376921D01*
X170829503Y-154077685D01*
X170695537Y-153792993D01*
X170526947Y-153527337D01*
X170511106Y-153508188D01*
X170326393Y-153284909D01*
X170326391Y-153284907D01*
X170097031Y-153069523D01*
X170097021Y-153069515D01*
X169842495Y-152884591D01*
X169842488Y-152884586D01*
X169842484Y-152884584D01*
X169566766Y-152733006D01*
X169566763Y-152733004D01*
X169566758Y-152733002D01*
X169566757Y-152733001D01*
X169274228Y-152617181D01*
X169274225Y-152617180D01*
X168969476Y-152538934D01*
X168969463Y-152538932D01*
X168657329Y-152499500D01*
X168657318Y-152499500D01*
X168342682Y-152499500D01*
X168342670Y-152499500D01*
X168030536Y-152538932D01*
X168030523Y-152538934D01*
X167725774Y-152617180D01*
X167725771Y-152617181D01*
X167433242Y-152733001D01*
X167433241Y-152733002D01*
X167157516Y-152884584D01*
X167157504Y-152884591D01*
X166902978Y-153069515D01*
X166902968Y-153069523D01*
X166673608Y-153284907D01*
X166673606Y-153284909D01*
X166473054Y-153527334D01*
X166473051Y-153527338D01*
X166304464Y-153792990D01*
X166304461Y-153792996D01*
X166170499Y-154077678D01*
X166170497Y-154077683D01*
X166073270Y-154376916D01*
X166014311Y-154685988D01*
X166014310Y-154685995D01*
X165994556Y-154999994D01*
X140329842Y-154999994D01*
X140535206Y-154829462D01*
X140829462Y-154535206D01*
X141095313Y-154215054D01*
X141330489Y-153871739D01*
X141532985Y-153508188D01*
X141701074Y-153127505D01*
X141833320Y-152732936D01*
X141928596Y-152327848D01*
X141986088Y-151915697D01*
X142005307Y-151500000D01*
X141986088Y-151084303D01*
X141928596Y-150672152D01*
X141833320Y-150267064D01*
X141701074Y-149872495D01*
X141532985Y-149491812D01*
X141330489Y-149128261D01*
X141095313Y-148784946D01*
X141095307Y-148784939D01*
X141095303Y-148784933D01*
X140829471Y-148464805D01*
X140829462Y-148464794D01*
X140535206Y-148170538D01*
X140535194Y-148170528D01*
X140215066Y-147904696D01*
X140215056Y-147904689D01*
X140215054Y-147904687D01*
X139871739Y-147669511D01*
X139871735Y-147669509D01*
X139871731Y-147669506D01*
X139508198Y-147467020D01*
X139508177Y-147467010D01*
X139127514Y-147298929D01*
X138732933Y-147166679D01*
X138327853Y-147071405D01*
X138327845Y-147071403D01*
X137915707Y-147013913D01*
X137915702Y-147013912D01*
X137915697Y-147013912D01*
X137500000Y-146994693D01*
X137084303Y-147013912D01*
X137084297Y-147013912D01*
X137084292Y-147013913D01*
X136672154Y-147071403D01*
X136672146Y-147071405D01*
X136267066Y-147166679D01*
X135872485Y-147298929D01*
X135491822Y-147467010D01*
X135491801Y-147467020D01*
X135128268Y-147669506D01*
X135128262Y-147669510D01*
X134784943Y-147904689D01*
X134784933Y-147904696D01*
X134464805Y-148170528D01*
X134464785Y-148170546D01*
X134170546Y-148464785D01*
X134170528Y-148464805D01*
X133904696Y-148784933D01*
X133904689Y-148784943D01*
X133669510Y-149128262D01*
X133669506Y-149128268D01*
X133467020Y-149491801D01*
X133467010Y-149491822D01*
X133298929Y-149872485D01*
X133166679Y-150267066D01*
X133071405Y-150672146D01*
X133071403Y-150672154D01*
X133013913Y-151084292D01*
X133013912Y-151084297D01*
X133013912Y-151084303D01*
X132994693Y-151500000D01*
X103000500Y-151500000D01*
X103000500Y-131999999D01*
X107245426Y-131999999D01*
X107245426Y-132000000D01*
X107264485Y-132217849D01*
X107264487Y-132217859D01*
X107321083Y-132429082D01*
X107321085Y-132429086D01*
X107321086Y-132429090D01*
X107327562Y-132442977D01*
X107413506Y-132627286D01*
X107413507Y-132627287D01*
X107538941Y-132806425D01*
X107693575Y-132961059D01*
X107872713Y-133086493D01*
X107937781Y-133116835D01*
X107982351Y-133137618D01*
X108034790Y-133183790D01*
X108053942Y-133250984D01*
X108033726Y-133317865D01*
X107982351Y-133362382D01*
X107872713Y-133413506D01*
X107786827Y-133473645D01*
X107693575Y-133538941D01*
X107693573Y-133538942D01*
X107693570Y-133538945D01*
X107538945Y-133693570D01*
X107413506Y-133872713D01*
X107321087Y-134070908D01*
X107321083Y-134070917D01*
X107264487Y-134282140D01*
X107264485Y-134282150D01*
X107245426Y-134499999D01*
X107245426Y-134500000D01*
X107264485Y-134717849D01*
X107264487Y-134717859D01*
X107321083Y-134929082D01*
X107321085Y-134929086D01*
X107321086Y-134929090D01*
X107336221Y-134961546D01*
X107413506Y-135127286D01*
X107438593Y-135163114D01*
X107538941Y-135306425D01*
X107693575Y-135461059D01*
X107872713Y-135586493D01*
X108070910Y-135678914D01*
X108282146Y-135735514D01*
X108456429Y-135750762D01*
X108499999Y-135754574D01*
X108500000Y-135754574D01*
X108500001Y-135754574D01*
X108536309Y-135751397D01*
X108717854Y-135735514D01*
X108929090Y-135678914D01*
X109127287Y-135586493D01*
X109306425Y-135461059D01*
X109461059Y-135306425D01*
X109586493Y-135127287D01*
X109678914Y-134929090D01*
X109735514Y-134717854D01*
X109754574Y-134500000D01*
X109735514Y-134282146D01*
X109678914Y-134070910D01*
X109586493Y-133872713D01*
X109461059Y-133693575D01*
X109306425Y-133538941D01*
X109127287Y-133413507D01*
X109017648Y-133362381D01*
X108965209Y-133316210D01*
X108946057Y-133249016D01*
X108966273Y-133182135D01*
X109017649Y-133137618D01*
X109127287Y-133086493D01*
X109306425Y-132961059D01*
X109461059Y-132806425D01*
X109586493Y-132627287D01*
X109678914Y-132429090D01*
X109735514Y-132217854D01*
X109754574Y-132000000D01*
X109754574Y-131999999D01*
X116738027Y-131999999D01*
X116738027Y-132000000D01*
X116757086Y-132217849D01*
X116757088Y-132217859D01*
X116813684Y-132429082D01*
X116813686Y-132429086D01*
X116813687Y-132429090D01*
X116820163Y-132442977D01*
X116906107Y-132627286D01*
X116906108Y-132627287D01*
X117031542Y-132806425D01*
X117186176Y-132961059D01*
X117365314Y-133086493D01*
X117430382Y-133116835D01*
X117475544Y-133137894D01*
X117527983Y-133184066D01*
X117547135Y-133251260D01*
X117526919Y-133318141D01*
X117475544Y-133362658D01*
X117365561Y-133413944D01*
X117303532Y-133457376D01*
X117303531Y-133457377D01*
X117867029Y-134020874D01*
X117801422Y-134038454D01*
X117688480Y-134103661D01*
X117596262Y-134195879D01*
X117531055Y-134308821D01*
X117513475Y-134374427D01*
X116949978Y-133810930D01*
X116949977Y-133810931D01*
X116906545Y-133872960D01*
X116814160Y-134071080D01*
X116814156Y-134071089D01*
X116757582Y-134282228D01*
X116757580Y-134282238D01*
X116738529Y-134499998D01*
X116738529Y-134500001D01*
X116757580Y-134717761D01*
X116757582Y-134717771D01*
X116814156Y-134928910D01*
X116814160Y-134928919D01*
X116906542Y-135127034D01*
X116906543Y-135127036D01*
X116949978Y-135189067D01*
X116949979Y-135189068D01*
X117513475Y-134625571D01*
X117531055Y-134691179D01*
X117596262Y-134804121D01*
X117688480Y-134896339D01*
X117801422Y-134961546D01*
X117867028Y-134979125D01*
X117303531Y-135542621D01*
X117365565Y-135586057D01*
X117563681Y-135678440D01*
X117563690Y-135678444D01*
X117774829Y-135735018D01*
X117774839Y-135735020D01*
X117992599Y-135754072D01*
X117992603Y-135754072D01*
X118210362Y-135735020D01*
X118210372Y-135735018D01*
X118421511Y-135678444D01*
X118421520Y-135678440D01*
X118619636Y-135586058D01*
X118619640Y-135586056D01*
X118681669Y-135542622D01*
X118681669Y-135542621D01*
X118118173Y-134979125D01*
X118183780Y-134961546D01*
X118296722Y-134896339D01*
X118388940Y-134804121D01*
X118454147Y-134691179D01*
X118471726Y-134625572D01*
X119035222Y-135189068D01*
X119035223Y-135189068D01*
X119078657Y-135127039D01*
X119078659Y-135127035D01*
X119171041Y-134928919D01*
X119171045Y-134928910D01*
X119227619Y-134717771D01*
X119227621Y-134717761D01*
X119246673Y-134500001D01*
X119246673Y-134499998D01*
X119227621Y-134282238D01*
X119227619Y-134282228D01*
X119171045Y-134071089D01*
X119171041Y-134071080D01*
X119078658Y-133872964D01*
X119035222Y-133810930D01*
X118471725Y-134374426D01*
X118454147Y-134308821D01*
X118388940Y-134195879D01*
X118296722Y-134103661D01*
X118183780Y-134038454D01*
X118118173Y-134020874D01*
X118681669Y-133457378D01*
X118681668Y-133457377D01*
X118619637Y-133413942D01*
X118619631Y-133413939D01*
X118509658Y-133362658D01*
X118457218Y-133316486D01*
X118438066Y-133249292D01*
X118458282Y-133182411D01*
X118509658Y-133137894D01*
X118510250Y-133137618D01*
X118619888Y-133086493D01*
X118799026Y-132961059D01*
X118953660Y-132806425D01*
X119079094Y-132627287D01*
X119171515Y-132429090D01*
X119228115Y-132217854D01*
X119247175Y-132000000D01*
X119241462Y-131934699D01*
X126208226Y-131934699D01*
X126208226Y-131934700D01*
X126227285Y-132152549D01*
X126227287Y-132152559D01*
X126283883Y-132363782D01*
X126283885Y-132363786D01*
X126283886Y-132363790D01*
X126320812Y-132442977D01*
X126376306Y-132561986D01*
X126376307Y-132561987D01*
X126501741Y-132741125D01*
X126656375Y-132895759D01*
X126806626Y-133000966D01*
X126835513Y-133021193D01*
X126945151Y-133072318D01*
X126997590Y-133118490D01*
X127016742Y-133185684D01*
X126996526Y-133252565D01*
X126945151Y-133297082D01*
X126835513Y-133348206D01*
X126742255Y-133413507D01*
X126656375Y-133473641D01*
X126656373Y-133473642D01*
X126656370Y-133473645D01*
X126501745Y-133628270D01*
X126501742Y-133628273D01*
X126501741Y-133628275D01*
X126482076Y-133656360D01*
X126376306Y-133807413D01*
X126283887Y-134005608D01*
X126283883Y-134005617D01*
X126227287Y-134216840D01*
X126227285Y-134216850D01*
X126208226Y-134434699D01*
X126208226Y-134434700D01*
X126227285Y-134652549D01*
X126227287Y-134652559D01*
X126283883Y-134863782D01*
X126283885Y-134863786D01*
X126283886Y-134863790D01*
X126319857Y-134940929D01*
X126376306Y-135061986D01*
X126376307Y-135061987D01*
X126501741Y-135241125D01*
X126656375Y-135395759D01*
X126835513Y-135521193D01*
X127033710Y-135613614D01*
X127244946Y-135670214D01*
X127419229Y-135685462D01*
X127462799Y-135689274D01*
X127462800Y-135689274D01*
X127462801Y-135689274D01*
X127499109Y-135686097D01*
X127680654Y-135670214D01*
X127891890Y-135613614D01*
X128090087Y-135521193D01*
X128269225Y-135395759D01*
X128423859Y-135241125D01*
X128549293Y-135061987D01*
X128641714Y-134863790D01*
X128698314Y-134652554D01*
X128717374Y-134434700D01*
X128698314Y-134216846D01*
X128641714Y-134005610D01*
X128549293Y-133807413D01*
X128423859Y-133628275D01*
X128269225Y-133473641D01*
X128090087Y-133348207D01*
X127980448Y-133297081D01*
X127928009Y-133250910D01*
X127908857Y-133183716D01*
X127929073Y-133116835D01*
X127980449Y-133072318D01*
X128090087Y-133021193D01*
X128269225Y-132895759D01*
X128423859Y-132741125D01*
X128549293Y-132561987D01*
X128641714Y-132363790D01*
X128698314Y-132152554D01*
X128717374Y-131934700D01*
X128704137Y-131783399D01*
X135745426Y-131783399D01*
X135745426Y-131783400D01*
X135764485Y-132001249D01*
X135764487Y-132001259D01*
X135821083Y-132212482D01*
X135821085Y-132212486D01*
X135821086Y-132212490D01*
X135867296Y-132311588D01*
X135913506Y-132410686D01*
X135936117Y-132442977D01*
X136038941Y-132589825D01*
X136193575Y-132744459D01*
X136372713Y-132869893D01*
X136482943Y-132921294D01*
X136535382Y-132967466D01*
X136554534Y-133034660D01*
X136534318Y-133101541D01*
X136482943Y-133146058D01*
X136372960Y-133197344D01*
X136310931Y-133240776D01*
X136310930Y-133240777D01*
X136874428Y-133804274D01*
X136808821Y-133821854D01*
X136695879Y-133887061D01*
X136603661Y-133979279D01*
X136538454Y-134092221D01*
X136520874Y-134157827D01*
X135957377Y-133594330D01*
X135957376Y-133594331D01*
X135913944Y-133656360D01*
X135821559Y-133854480D01*
X135821555Y-133854489D01*
X135764981Y-134065628D01*
X135764979Y-134065638D01*
X135745928Y-134283398D01*
X135745928Y-134283401D01*
X135764979Y-134501161D01*
X135764981Y-134501171D01*
X135821555Y-134712310D01*
X135821559Y-134712319D01*
X135913941Y-134910434D01*
X135913942Y-134910436D01*
X135957377Y-134972467D01*
X135957378Y-134972468D01*
X136520874Y-134408971D01*
X136538454Y-134474579D01*
X136603661Y-134587521D01*
X136695879Y-134679739D01*
X136808821Y-134744946D01*
X136874427Y-134762525D01*
X136310930Y-135326021D01*
X136372964Y-135369457D01*
X136571080Y-135461840D01*
X136571089Y-135461844D01*
X136782228Y-135518418D01*
X136782238Y-135518420D01*
X136999998Y-135537472D01*
X137000002Y-135537472D01*
X137217761Y-135518420D01*
X137217771Y-135518418D01*
X137428910Y-135461844D01*
X137428919Y-135461840D01*
X137627035Y-135369458D01*
X137627039Y-135369456D01*
X137689068Y-135326022D01*
X137689068Y-135326021D01*
X137125572Y-134762525D01*
X137191179Y-134744946D01*
X137304121Y-134679739D01*
X137396339Y-134587521D01*
X137461546Y-134474579D01*
X137479125Y-134408972D01*
X138042621Y-134972468D01*
X138042622Y-134972468D01*
X138086056Y-134910439D01*
X138086058Y-134910435D01*
X138178440Y-134712319D01*
X138178444Y-134712310D01*
X138235018Y-134501171D01*
X138235020Y-134501161D01*
X138254072Y-134283401D01*
X138254072Y-134283398D01*
X138235020Y-134065638D01*
X138235018Y-134065628D01*
X138178444Y-133854489D01*
X138178440Y-133854480D01*
X138086057Y-133656364D01*
X138042621Y-133594330D01*
X137479124Y-134157826D01*
X137461546Y-134092221D01*
X137396339Y-133979279D01*
X137304121Y-133887061D01*
X137191179Y-133821854D01*
X137125572Y-133804274D01*
X137689068Y-133240778D01*
X137689067Y-133240777D01*
X137627036Y-133197342D01*
X137627030Y-133197339D01*
X137517057Y-133146058D01*
X137464617Y-133099886D01*
X137445465Y-133032692D01*
X137465681Y-132965811D01*
X137517057Y-132921294D01*
X137627287Y-132869893D01*
X137806425Y-132744459D01*
X137961059Y-132589825D01*
X138086493Y-132410687D01*
X138178914Y-132212490D01*
X138235514Y-132001254D01*
X138254574Y-131783400D01*
X138235514Y-131565546D01*
X138178914Y-131354310D01*
X138086493Y-131156113D01*
X137961059Y-130976975D01*
X137806425Y-130822341D01*
X137656123Y-130717098D01*
X137627286Y-130696906D01*
X137528188Y-130650696D01*
X137429090Y-130604486D01*
X137429086Y-130604485D01*
X137429082Y-130604483D01*
X137217859Y-130547887D01*
X137217849Y-130547885D01*
X137000001Y-130528826D01*
X136999999Y-130528826D01*
X136782150Y-130547885D01*
X136782140Y-130547887D01*
X136570917Y-130604483D01*
X136570908Y-130604487D01*
X136372713Y-130696906D01*
X136276202Y-130764485D01*
X136193575Y-130822341D01*
X136193573Y-130822342D01*
X136193570Y-130822345D01*
X136038945Y-130976970D01*
X135913506Y-131156113D01*
X135821087Y-131354308D01*
X135821083Y-131354317D01*
X135764487Y-131565540D01*
X135764485Y-131565550D01*
X135745426Y-131783399D01*
X128704137Y-131783399D01*
X128698314Y-131716846D01*
X128641714Y-131505610D01*
X128549293Y-131307413D01*
X128423859Y-131128275D01*
X128269225Y-130973641D01*
X128090087Y-130848207D01*
X128090088Y-130848207D01*
X128090086Y-130848206D01*
X127990988Y-130801996D01*
X127891890Y-130755786D01*
X127891886Y-130755785D01*
X127891882Y-130755783D01*
X127680659Y-130699187D01*
X127680649Y-130699185D01*
X127462801Y-130680126D01*
X127462799Y-130680126D01*
X127244950Y-130699185D01*
X127244940Y-130699187D01*
X127033717Y-130755783D01*
X127033708Y-130755787D01*
X126835513Y-130848206D01*
X126742255Y-130913507D01*
X126656375Y-130973641D01*
X126656373Y-130973642D01*
X126656370Y-130973645D01*
X126501745Y-131128270D01*
X126376306Y-131307413D01*
X126283887Y-131505608D01*
X126283883Y-131505617D01*
X126227287Y-131716840D01*
X126227285Y-131716850D01*
X126208226Y-131934699D01*
X119241462Y-131934699D01*
X119228115Y-131782146D01*
X119171515Y-131570910D01*
X119079094Y-131372713D01*
X118953660Y-131193575D01*
X118799026Y-131038941D01*
X118655715Y-130938593D01*
X118619887Y-130913506D01*
X118479852Y-130848207D01*
X118421691Y-130821086D01*
X118421687Y-130821085D01*
X118421683Y-130821083D01*
X118210460Y-130764487D01*
X118210450Y-130764485D01*
X117992602Y-130745426D01*
X117992600Y-130745426D01*
X117774751Y-130764485D01*
X117774741Y-130764487D01*
X117563518Y-130821083D01*
X117563509Y-130821087D01*
X117365314Y-130913506D01*
X117274672Y-130976975D01*
X117186176Y-131038941D01*
X117186174Y-131038942D01*
X117186171Y-131038945D01*
X117031546Y-131193570D01*
X116906107Y-131372713D01*
X116813688Y-131570908D01*
X116813684Y-131570917D01*
X116757088Y-131782140D01*
X116757086Y-131782150D01*
X116738027Y-131999999D01*
X109754574Y-131999999D01*
X109735514Y-131782146D01*
X109678914Y-131570910D01*
X109586493Y-131372713D01*
X109461059Y-131193575D01*
X109306425Y-131038941D01*
X109163114Y-130938593D01*
X109127286Y-130913506D01*
X108987251Y-130848207D01*
X108929090Y-130821086D01*
X108929086Y-130821085D01*
X108929082Y-130821083D01*
X108717859Y-130764487D01*
X108717849Y-130764485D01*
X108500001Y-130745426D01*
X108499999Y-130745426D01*
X108282150Y-130764485D01*
X108282140Y-130764487D01*
X108070917Y-130821083D01*
X108070908Y-130821087D01*
X107872713Y-130913506D01*
X107782071Y-130976975D01*
X107693575Y-131038941D01*
X107693573Y-131038942D01*
X107693570Y-131038945D01*
X107538945Y-131193570D01*
X107413506Y-131372713D01*
X107321087Y-131570908D01*
X107321083Y-131570917D01*
X107264487Y-131782140D01*
X107264485Y-131782150D01*
X107245426Y-131999999D01*
X103000500Y-131999999D01*
X103000500Y-32999994D01*
X103994556Y-32999994D01*
X103994556Y-33000005D01*
X104014310Y-33314004D01*
X104014311Y-33314011D01*
X104073270Y-33623083D01*
X104170497Y-33922316D01*
X104170499Y-33922321D01*
X104304461Y-34207003D01*
X104304464Y-34207009D01*
X104473051Y-34472661D01*
X104473054Y-34472665D01*
X104673606Y-34715090D01*
X104673608Y-34715092D01*
X104902968Y-34930476D01*
X104902978Y-34930484D01*
X105157504Y-35115408D01*
X105157509Y-35115410D01*
X105157516Y-35115416D01*
X105433234Y-35266994D01*
X105433239Y-35266996D01*
X105433241Y-35266997D01*
X105433242Y-35266998D01*
X105725771Y-35382818D01*
X105725774Y-35382819D01*
X106030523Y-35461065D01*
X106030527Y-35461066D01*
X106096010Y-35469338D01*
X106342670Y-35500499D01*
X106342679Y-35500499D01*
X106342682Y-35500500D01*
X106342684Y-35500500D01*
X106657316Y-35500500D01*
X106657318Y-35500500D01*
X106657321Y-35500499D01*
X106657329Y-35500499D01*
X106843593Y-35476968D01*
X106969473Y-35461066D01*
X107274225Y-35382819D01*
X107274228Y-35382818D01*
X107566757Y-35266998D01*
X107566758Y-35266997D01*
X107566756Y-35266997D01*
X107566766Y-35266994D01*
X107842484Y-35115416D01*
X108097030Y-34930478D01*
X108326390Y-34715094D01*
X108526947Y-34472663D01*
X108695537Y-34207007D01*
X108829503Y-33922315D01*
X108926731Y-33623079D01*
X108985688Y-33314015D01*
X108985689Y-33314004D01*
X109005444Y-33000005D01*
X109005444Y-32999994D01*
X108985689Y-32685995D01*
X108985688Y-32685988D01*
X108985688Y-32685985D01*
X108926731Y-32376921D01*
X108829503Y-32077685D01*
X108826547Y-32071404D01*
X108695538Y-31792996D01*
X108695537Y-31792993D01*
X108526947Y-31527337D01*
X108526945Y-31527334D01*
X108326393Y-31284909D01*
X108326391Y-31284907D01*
X108097031Y-31069523D01*
X108097021Y-31069515D01*
X107842495Y-30884591D01*
X107842488Y-30884586D01*
X107842484Y-30884584D01*
X107566766Y-30733006D01*
X107566763Y-30733004D01*
X107566758Y-30733002D01*
X107566757Y-30733001D01*
X107274228Y-30617181D01*
X107274225Y-30617180D01*
X106969476Y-30538934D01*
X106969463Y-30538932D01*
X106657329Y-30499500D01*
X106657318Y-30499500D01*
X106342682Y-30499500D01*
X106342670Y-30499500D01*
X106030536Y-30538932D01*
X106030523Y-30538934D01*
X105725774Y-30617180D01*
X105725771Y-30617181D01*
X105433242Y-30733001D01*
X105433241Y-30733002D01*
X105157516Y-30884584D01*
X105157504Y-30884591D01*
X104902978Y-31069515D01*
X104902968Y-31069523D01*
X104673608Y-31284907D01*
X104673606Y-31284909D01*
X104473054Y-31527334D01*
X104473051Y-31527338D01*
X104304464Y-31792990D01*
X104304461Y-31792996D01*
X104170499Y-32077678D01*
X104170497Y-32077683D01*
X104073270Y-32376916D01*
X104014311Y-32685988D01*
X104014310Y-32685995D01*
X103994556Y-32999994D01*
X103000500Y-32999994D01*
X103000500Y-29624500D01*
X103020185Y-29557461D01*
X103072989Y-29511706D01*
X103124500Y-29500500D01*
X171875500Y-29500500D01*
X171942539Y-29520185D01*
G37*
%TD.AperFunction*%
%TA.AperFunction,Conductor*%
G36*
X166935962Y-123357767D02*
G01*
X166982507Y-123409876D01*
X166994500Y-123463079D01*
X166994500Y-124604966D01*
X166974815Y-124672005D01*
X166922011Y-124717760D01*
X166852853Y-124727704D01*
X166789297Y-124698679D01*
X166756944Y-124654777D01*
X166744368Y-124626107D01*
X166663864Y-124502887D01*
X166109641Y-125057110D01*
X166081276Y-124988630D01*
X166013173Y-124886707D01*
X165926494Y-124800028D01*
X165824571Y-124731925D01*
X165756089Y-124703559D01*
X166311711Y-124147937D01*
X166311710Y-124147935D01*
X166290683Y-124131568D01*
X166249871Y-124074857D01*
X166246198Y-124005084D01*
X166280830Y-123944401D01*
X166290672Y-123935872D01*
X166465478Y-123799817D01*
X166620014Y-123631947D01*
X166744811Y-123440930D01*
X166756944Y-123413268D01*
X166801899Y-123359784D01*
X166868634Y-123339093D01*
X166935962Y-123357767D01*
G37*
%TD.AperFunction*%
%TA.AperFunction,Conductor*%
G36*
X130867465Y-71060185D02*
G01*
X130913220Y-71112989D01*
X130923164Y-71182147D01*
X130902001Y-71235623D01*
X130886819Y-71257304D01*
X130886818Y-71257306D01*
X130792129Y-71460368D01*
X130792126Y-71460374D01*
X130734137Y-71676791D01*
X130734136Y-71676799D01*
X130714609Y-71899998D01*
X130714609Y-71900001D01*
X130734136Y-72123200D01*
X130734137Y-72123208D01*
X130792126Y-72339625D01*
X130792127Y-72339627D01*
X130792128Y-72339630D01*
X130862512Y-72490570D01*
X130886819Y-72542696D01*
X130886821Y-72542700D01*
X131015329Y-72726228D01*
X131015334Y-72726234D01*
X131173765Y-72884665D01*
X131173771Y-72884670D01*
X131357299Y-73013178D01*
X131357301Y-73013179D01*
X131357304Y-73013181D01*
X131452600Y-73057618D01*
X131505039Y-73103790D01*
X131524191Y-73170984D01*
X131503975Y-73237865D01*
X131452600Y-73282382D01*
X131357306Y-73326818D01*
X131357304Y-73326819D01*
X131173764Y-73455334D01*
X131015334Y-73613764D01*
X130886819Y-73797304D01*
X130886818Y-73797306D01*
X130792129Y-74000368D01*
X130792126Y-74000374D01*
X130734137Y-74216791D01*
X130734136Y-74216799D01*
X130714609Y-74439998D01*
X130714609Y-74440001D01*
X130734136Y-74663200D01*
X130734137Y-74663208D01*
X130792126Y-74879625D01*
X130792127Y-74879627D01*
X130792128Y-74879630D01*
X130862512Y-75030570D01*
X130886819Y-75082696D01*
X130886821Y-75082700D01*
X131015329Y-75266228D01*
X131015334Y-75266234D01*
X131173765Y-75424665D01*
X131173771Y-75424670D01*
X131357299Y-75553178D01*
X131357301Y-75553179D01*
X131357304Y-75553181D01*
X131452600Y-75597618D01*
X131505039Y-75643790D01*
X131524191Y-75710984D01*
X131503975Y-75777865D01*
X131452600Y-75822382D01*
X131357306Y-75866818D01*
X131357304Y-75866819D01*
X131173764Y-75995334D01*
X131015334Y-76153764D01*
X130886819Y-76337304D01*
X130886818Y-76337306D01*
X130792129Y-76540368D01*
X130792126Y-76540374D01*
X130734137Y-76756791D01*
X130734136Y-76756799D01*
X130714609Y-76979998D01*
X130714609Y-76980001D01*
X130734136Y-77203200D01*
X130734137Y-77203208D01*
X130792126Y-77419625D01*
X130792127Y-77419627D01*
X130792128Y-77419630D01*
X130862512Y-77570570D01*
X130886819Y-77622696D01*
X130886821Y-77622700D01*
X131015329Y-77806228D01*
X131015334Y-77806234D01*
X131173765Y-77964665D01*
X131173771Y-77964670D01*
X131357299Y-78093178D01*
X131357301Y-78093179D01*
X131357304Y-78093181D01*
X131452600Y-78137618D01*
X131505039Y-78183790D01*
X131524191Y-78250984D01*
X131503975Y-78317865D01*
X131452600Y-78362382D01*
X131357306Y-78406818D01*
X131357304Y-78406819D01*
X131173764Y-78535334D01*
X131015334Y-78693764D01*
X130886819Y-78877304D01*
X130886818Y-78877306D01*
X130792129Y-79080368D01*
X130792126Y-79080374D01*
X130734137Y-79296791D01*
X130734136Y-79296799D01*
X130714609Y-79519998D01*
X130714609Y-79520001D01*
X130734136Y-79743200D01*
X130734137Y-79743208D01*
X130792126Y-79959625D01*
X130792127Y-79959627D01*
X130792128Y-79959630D01*
X130862512Y-80110570D01*
X130886819Y-80162696D01*
X130886821Y-80162700D01*
X131015329Y-80346228D01*
X131015334Y-80346234D01*
X131173765Y-80504665D01*
X131173771Y-80504670D01*
X131357299Y-80633178D01*
X131357301Y-80633179D01*
X131357304Y-80633181D01*
X131452006Y-80677341D01*
X131452600Y-80677618D01*
X131505039Y-80723790D01*
X131524191Y-80790984D01*
X131503975Y-80857865D01*
X131452600Y-80902382D01*
X131357306Y-80946818D01*
X131357304Y-80946819D01*
X131173764Y-81075334D01*
X131015334Y-81233764D01*
X130886819Y-81417304D01*
X130886818Y-81417306D01*
X130792129Y-81620368D01*
X130792126Y-81620374D01*
X130734137Y-81836791D01*
X130734136Y-81836799D01*
X130714609Y-82059998D01*
X130714609Y-82060001D01*
X130734136Y-82283200D01*
X130734137Y-82283208D01*
X130792126Y-82499625D01*
X130792127Y-82499627D01*
X130792128Y-82499630D01*
X130883418Y-82695403D01*
X130886819Y-82702696D01*
X130886821Y-82702700D01*
X131015329Y-82886228D01*
X131015334Y-82886234D01*
X131173765Y-83044665D01*
X131173771Y-83044670D01*
X131357299Y-83173178D01*
X131357301Y-83173179D01*
X131357304Y-83173181D01*
X131452600Y-83217618D01*
X131505039Y-83263790D01*
X131524191Y-83330984D01*
X131503975Y-83397865D01*
X131452600Y-83442382D01*
X131357306Y-83486818D01*
X131357304Y-83486819D01*
X131173764Y-83615334D01*
X131015334Y-83773764D01*
X130886819Y-83957304D01*
X130886818Y-83957306D01*
X130792129Y-84160368D01*
X130792126Y-84160374D01*
X130734137Y-84376791D01*
X130734136Y-84376799D01*
X130714609Y-84599998D01*
X130714609Y-84600001D01*
X130734136Y-84823200D01*
X130734137Y-84823208D01*
X130792126Y-85039625D01*
X130792127Y-85039627D01*
X130792128Y-85039630D01*
X130878935Y-85225789D01*
X130886819Y-85242696D01*
X130886821Y-85242700D01*
X131015329Y-85426228D01*
X131015334Y-85426234D01*
X131173765Y-85584665D01*
X131173771Y-85584670D01*
X131357299Y-85713178D01*
X131357301Y-85713179D01*
X131357304Y-85713181D01*
X131452600Y-85757618D01*
X131505039Y-85803790D01*
X131524191Y-85870984D01*
X131503975Y-85937865D01*
X131452600Y-85982382D01*
X131357306Y-86026818D01*
X131357304Y-86026819D01*
X131173764Y-86155334D01*
X131015334Y-86313764D01*
X130886819Y-86497304D01*
X130886818Y-86497306D01*
X130792129Y-86700368D01*
X130792126Y-86700374D01*
X130734137Y-86916791D01*
X130734136Y-86916799D01*
X130714609Y-87139998D01*
X130714609Y-87140001D01*
X130734136Y-87363200D01*
X130734137Y-87363208D01*
X130792126Y-87579625D01*
X130792127Y-87579627D01*
X130792128Y-87579630D01*
X130810529Y-87619091D01*
X130886819Y-87782696D01*
X130886821Y-87782700D01*
X131015329Y-87966228D01*
X131015334Y-87966234D01*
X131173765Y-88124665D01*
X131173771Y-88124670D01*
X131357299Y-88253178D01*
X131357301Y-88253179D01*
X131357304Y-88253181D01*
X131452600Y-88297618D01*
X131505039Y-88343790D01*
X131524191Y-88410984D01*
X131503975Y-88477865D01*
X131452600Y-88522382D01*
X131357306Y-88566818D01*
X131357304Y-88566819D01*
X131173764Y-88695334D01*
X131015334Y-88853764D01*
X130886819Y-89037304D01*
X130886818Y-89037306D01*
X130792129Y-89240368D01*
X130792126Y-89240374D01*
X130734137Y-89456791D01*
X130734136Y-89456799D01*
X130714609Y-89679998D01*
X130714609Y-89680001D01*
X130734136Y-89903200D01*
X130734137Y-89903208D01*
X130792126Y-90119625D01*
X130792127Y-90119627D01*
X130792128Y-90119630D01*
X130810529Y-90159091D01*
X130886819Y-90322696D01*
X130886821Y-90322700D01*
X131015329Y-90506228D01*
X131015334Y-90506234D01*
X131173765Y-90664665D01*
X131173771Y-90664670D01*
X131357299Y-90793178D01*
X131357301Y-90793179D01*
X131357304Y-90793181D01*
X131452600Y-90837618D01*
X131505039Y-90883790D01*
X131524191Y-90950984D01*
X131503975Y-91017865D01*
X131452600Y-91062382D01*
X131357306Y-91106818D01*
X131357304Y-91106819D01*
X131173764Y-91235334D01*
X131015334Y-91393764D01*
X130886819Y-91577304D01*
X130886818Y-91577306D01*
X130792129Y-91780368D01*
X130792126Y-91780374D01*
X130734137Y-91996791D01*
X130734136Y-91996799D01*
X130714609Y-92219998D01*
X130714609Y-92220001D01*
X130734136Y-92443200D01*
X130734137Y-92443208D01*
X130792126Y-92659625D01*
X130792127Y-92659627D01*
X130792128Y-92659630D01*
X130810529Y-92699091D01*
X130886819Y-92862696D01*
X130886821Y-92862700D01*
X131015329Y-93046228D01*
X131015334Y-93046234D01*
X131173765Y-93204665D01*
X131173771Y-93204670D01*
X131244115Y-93253925D01*
X131287740Y-93308501D01*
X131294934Y-93378000D01*
X131263412Y-93440355D01*
X131203182Y-93475769D01*
X131175429Y-93479202D01*
X131175436Y-93479324D01*
X131173688Y-93479417D01*
X131173022Y-93479500D01*
X131172144Y-93479500D01*
X131172123Y-93479501D01*
X131112516Y-93485908D01*
X130977671Y-93536202D01*
X130977664Y-93536206D01*
X130862455Y-93622452D01*
X130862452Y-93622455D01*
X130776206Y-93737664D01*
X130776202Y-93737671D01*
X130725908Y-93872517D01*
X130719501Y-93932116D01*
X130719500Y-93932135D01*
X130719500Y-94574216D01*
X130699815Y-94641255D01*
X130683181Y-94661897D01*
X130415997Y-94929082D01*
X130065080Y-95280000D01*
X129881899Y-95463181D01*
X129820576Y-95496666D01*
X129794218Y-95499500D01*
X107862130Y-95499500D01*
X107795091Y-95479815D01*
X107749336Y-95427011D01*
X107739392Y-95357853D01*
X107749748Y-95323095D01*
X107807399Y-95199459D01*
X107807403Y-95199450D01*
X107865367Y-94983124D01*
X107865369Y-94983113D01*
X107884889Y-94760002D01*
X107884889Y-94759997D01*
X107865369Y-94536886D01*
X107865367Y-94536875D01*
X107807403Y-94320549D01*
X107807399Y-94320540D01*
X107712747Y-94117557D01*
X107712746Y-94117555D01*
X107664664Y-94048887D01*
X107664664Y-94048886D01*
X107099292Y-94614258D01*
X107084563Y-94559288D01*
X107016104Y-94440713D01*
X106919287Y-94343896D01*
X106800712Y-94275437D01*
X106745740Y-94260707D01*
X107311112Y-93695334D01*
X107311112Y-93695333D01*
X107242445Y-93647253D01*
X107242443Y-93647252D01*
X107146808Y-93602657D01*
X107094369Y-93556485D01*
X107075217Y-93489291D01*
X107095433Y-93422410D01*
X107146804Y-93377895D01*
X107242696Y-93333181D01*
X107426233Y-93204667D01*
X107584667Y-93046233D01*
X107713181Y-92862696D01*
X107807872Y-92659630D01*
X107865863Y-92443206D01*
X107885391Y-92220000D01*
X107865863Y-91996794D01*
X107807872Y-91780370D01*
X107713181Y-91577305D01*
X107599801Y-91415380D01*
X107584668Y-91393768D01*
X107516319Y-91325419D01*
X107426233Y-91235333D01*
X107426229Y-91235330D01*
X107426228Y-91235329D01*
X107242700Y-91106821D01*
X107242692Y-91106817D01*
X107163904Y-91070078D01*
X107147399Y-91062381D01*
X107094960Y-91016210D01*
X107075808Y-90949017D01*
X107096023Y-90882135D01*
X107147400Y-90837618D01*
X107242696Y-90793181D01*
X107426233Y-90664667D01*
X107584667Y-90506233D01*
X107713181Y-90322696D01*
X107807872Y-90119630D01*
X107865863Y-89903206D01*
X107885391Y-89680000D01*
X107865863Y-89456794D01*
X107807872Y-89240370D01*
X107713181Y-89037305D01*
X107584667Y-88853767D01*
X107426233Y-88695333D01*
X107426229Y-88695330D01*
X107426228Y-88695329D01*
X107242700Y-88566821D01*
X107242692Y-88566817D01*
X107196988Y-88545505D01*
X107147399Y-88522381D01*
X107094960Y-88476210D01*
X107075808Y-88409017D01*
X107096023Y-88342135D01*
X107147400Y-88297618D01*
X107242696Y-88253181D01*
X107426233Y-88124667D01*
X107584667Y-87966233D01*
X107713181Y-87782696D01*
X107807872Y-87579630D01*
X107865863Y-87363206D01*
X107885391Y-87140000D01*
X107884257Y-87127044D01*
X107873039Y-86998821D01*
X107865863Y-86916794D01*
X107807872Y-86700370D01*
X107713181Y-86497305D01*
X107584667Y-86313767D01*
X107426233Y-86155333D01*
X107426229Y-86155330D01*
X107426228Y-86155329D01*
X107242700Y-86026821D01*
X107242692Y-86026817D01*
X107147400Y-85982382D01*
X107094960Y-85936210D01*
X107075808Y-85869017D01*
X107096023Y-85802135D01*
X107147400Y-85757618D01*
X107242696Y-85713181D01*
X107426233Y-85584667D01*
X107584667Y-85426233D01*
X107713181Y-85242696D01*
X107807872Y-85039630D01*
X107865863Y-84823206D01*
X107885391Y-84600000D01*
X107865863Y-84376794D01*
X107807872Y-84160370D01*
X107713181Y-83957305D01*
X107613437Y-83814855D01*
X107584668Y-83773768D01*
X107516319Y-83705419D01*
X107426233Y-83615333D01*
X107426229Y-83615330D01*
X107426228Y-83615329D01*
X107242700Y-83486821D01*
X107242692Y-83486817D01*
X107147400Y-83442382D01*
X107094960Y-83396210D01*
X107075808Y-83329017D01*
X107096023Y-83262135D01*
X107147400Y-83217618D01*
X107242696Y-83173181D01*
X107426233Y-83044667D01*
X107584667Y-82886233D01*
X107713181Y-82702696D01*
X107807872Y-82499630D01*
X107865863Y-82283206D01*
X107885391Y-82060000D01*
X107865863Y-81836794D01*
X107807872Y-81620370D01*
X107713181Y-81417305D01*
X107613437Y-81274855D01*
X107584668Y-81233768D01*
X107516319Y-81165419D01*
X107426233Y-81075333D01*
X107426229Y-81075330D01*
X107426228Y-81075329D01*
X107242700Y-80946821D01*
X107242696Y-80946819D01*
X107146808Y-80902106D01*
X107094369Y-80855934D01*
X107075217Y-80788740D01*
X107095433Y-80721859D01*
X107146809Y-80677341D01*
X107242450Y-80632743D01*
X107242451Y-80632742D01*
X107311112Y-80584665D01*
X106745739Y-80019292D01*
X106800712Y-80004563D01*
X106919287Y-79936104D01*
X107016104Y-79839287D01*
X107084563Y-79720712D01*
X107099292Y-79665739D01*
X107664665Y-80231112D01*
X107712742Y-80162451D01*
X107712746Y-80162445D01*
X107807399Y-79959459D01*
X107807403Y-79959450D01*
X107865367Y-79743124D01*
X107865369Y-79743113D01*
X107884889Y-79520002D01*
X107884889Y-79519997D01*
X107865369Y-79296886D01*
X107865367Y-79296875D01*
X107807403Y-79080549D01*
X107807399Y-79080540D01*
X107712747Y-78877557D01*
X107712746Y-78877555D01*
X107664664Y-78808887D01*
X107664664Y-78808886D01*
X107099292Y-79374259D01*
X107084563Y-79319288D01*
X107016104Y-79200713D01*
X106919287Y-79103896D01*
X106800712Y-79035437D01*
X106745740Y-79020707D01*
X107311112Y-78455334D01*
X107311112Y-78455333D01*
X107242445Y-78407253D01*
X107242443Y-78407252D01*
X107146808Y-78362657D01*
X107094369Y-78316485D01*
X107075217Y-78249291D01*
X107095433Y-78182410D01*
X107146804Y-78137895D01*
X107242696Y-78093181D01*
X107426233Y-77964667D01*
X107584667Y-77806233D01*
X107713181Y-77622696D01*
X107807872Y-77419630D01*
X107865863Y-77203206D01*
X107885391Y-76980000D01*
X107883733Y-76961054D01*
X107879811Y-76916226D01*
X107865863Y-76756794D01*
X107807872Y-76540370D01*
X107713181Y-76337305D01*
X107648924Y-76245536D01*
X107584668Y-76153768D01*
X107516319Y-76085419D01*
X107426233Y-75995333D01*
X107426229Y-75995330D01*
X107426228Y-75995329D01*
X107242700Y-75866821D01*
X107242692Y-75866817D01*
X107147400Y-75822382D01*
X107094960Y-75776210D01*
X107075808Y-75709017D01*
X107096023Y-75642135D01*
X107147400Y-75597618D01*
X107242696Y-75553181D01*
X107426233Y-75424667D01*
X107584667Y-75266233D01*
X107713181Y-75082696D01*
X107807872Y-74879630D01*
X107865863Y-74663206D01*
X107885391Y-74440000D01*
X107865863Y-74216794D01*
X107807872Y-74000370D01*
X107713181Y-73797305D01*
X107584667Y-73613767D01*
X107426233Y-73455333D01*
X107426229Y-73455330D01*
X107426228Y-73455329D01*
X107242700Y-73326821D01*
X107242692Y-73326817D01*
X107147400Y-73282382D01*
X107094960Y-73236210D01*
X107075808Y-73169017D01*
X107096023Y-73102135D01*
X107147400Y-73057618D01*
X107242696Y-73013181D01*
X107426233Y-72884667D01*
X107584667Y-72726233D01*
X107713181Y-72542696D01*
X107807872Y-72339630D01*
X107865863Y-72123206D01*
X107885391Y-71900000D01*
X107885382Y-71899901D01*
X107879623Y-71834075D01*
X107865863Y-71676794D01*
X107807872Y-71460370D01*
X107713181Y-71257305D01*
X107697998Y-71235622D01*
X107675671Y-71169416D01*
X107692683Y-71101649D01*
X107743631Y-71053837D01*
X107799574Y-71040500D01*
X130800426Y-71040500D01*
X130867465Y-71060185D01*
G37*
%TD.AperFunction*%
%TA.AperFunction,Conductor*%
G36*
X105705703Y-93137049D02*
G01*
X105712181Y-93143081D01*
X105773765Y-93204665D01*
X105773771Y-93204670D01*
X105957299Y-93333178D01*
X105957301Y-93333179D01*
X105957304Y-93333181D01*
X106053190Y-93377893D01*
X106105630Y-93424065D01*
X106124782Y-93491258D01*
X106104567Y-93558139D01*
X106053192Y-93602657D01*
X105957554Y-93647254D01*
X105888887Y-93695334D01*
X106454260Y-94260707D01*
X106399288Y-94275437D01*
X106280713Y-94343896D01*
X106183896Y-94440713D01*
X106115437Y-94559288D01*
X106100707Y-94614260D01*
X105536819Y-94050372D01*
X105503334Y-93989049D01*
X105500500Y-93962691D01*
X105500500Y-93230762D01*
X105520185Y-93163723D01*
X105572989Y-93117968D01*
X105642147Y-93108024D01*
X105705703Y-93137049D01*
G37*
%TD.AperFunction*%
%TA.AperFunction,Conductor*%
G36*
X106115437Y-79720712D02*
G01*
X106183896Y-79839287D01*
X106280713Y-79936104D01*
X106399288Y-80004563D01*
X106454259Y-80019292D01*
X105888886Y-80584664D01*
X105957556Y-80632747D01*
X105957558Y-80632748D01*
X106053190Y-80677342D01*
X106105630Y-80723514D01*
X106124782Y-80790707D01*
X106104567Y-80857588D01*
X106053192Y-80902106D01*
X105957303Y-80946820D01*
X105773764Y-81075334D01*
X105712181Y-81136918D01*
X105650858Y-81170403D01*
X105581166Y-81165419D01*
X105525233Y-81123547D01*
X105500816Y-81058083D01*
X105500500Y-81049237D01*
X105500500Y-80317309D01*
X105520185Y-80250270D01*
X105536819Y-80229628D01*
X106100707Y-79665739D01*
X106115437Y-79720712D01*
G37*
%TD.AperFunction*%
%TA.AperFunction,Conductor*%
G36*
X105705703Y-77897049D02*
G01*
X105712181Y-77903081D01*
X105773765Y-77964665D01*
X105773771Y-77964670D01*
X105957299Y-78093178D01*
X105957301Y-78093179D01*
X105957304Y-78093181D01*
X106053190Y-78137893D01*
X106105630Y-78184065D01*
X106124782Y-78251258D01*
X106104567Y-78318139D01*
X106053192Y-78362657D01*
X105957554Y-78407254D01*
X105888887Y-78455334D01*
X106454260Y-79020707D01*
X106399288Y-79035437D01*
X106280713Y-79103896D01*
X106183896Y-79200713D01*
X106115437Y-79319288D01*
X106100707Y-79374260D01*
X105536819Y-78810372D01*
X105503334Y-78749049D01*
X105500500Y-78722691D01*
X105500500Y-77990762D01*
X105520185Y-77923723D01*
X105572989Y-77877968D01*
X105642147Y-77868024D01*
X105705703Y-77897049D01*
G37*
%TD.AperFunction*%
%TA.AperFunction,Conductor*%
G36*
X152231339Y-42920185D02*
G01*
X152277094Y-42972989D01*
X152288300Y-43024500D01*
X152288300Y-44259070D01*
X152288301Y-44259076D01*
X152294708Y-44318683D01*
X152345002Y-44453528D01*
X152345006Y-44453535D01*
X152431252Y-44568744D01*
X152431255Y-44568747D01*
X152546464Y-44654993D01*
X152546471Y-44654997D01*
X152681317Y-44705291D01*
X152681316Y-44705291D01*
X152688244Y-44706035D01*
X152740927Y-44711700D01*
X154259072Y-44711699D01*
X154318683Y-44705291D01*
X154453531Y-44654996D01*
X154568746Y-44568746D01*
X154654996Y-44453531D01*
X154705291Y-44318683D01*
X154711700Y-44259073D01*
X154711699Y-43024499D01*
X154731384Y-42957461D01*
X154784187Y-42911706D01*
X154835699Y-42900500D01*
X157248499Y-42900500D01*
X157315538Y-42920185D01*
X157361293Y-42972989D01*
X157371237Y-43042147D01*
X157360880Y-43076907D01*
X157357496Y-43084161D01*
X157357493Y-43084170D01*
X157302645Y-43288868D01*
X157302643Y-43288879D01*
X157284173Y-43499998D01*
X157284173Y-43500001D01*
X157302643Y-43711120D01*
X157302645Y-43711131D01*
X157357493Y-43915829D01*
X157357497Y-43915838D01*
X157447062Y-44107912D01*
X157447063Y-44107914D01*
X157484733Y-44161712D01*
X157484733Y-44161713D01*
X158051983Y-43594463D01*
X158073958Y-43676473D01*
X158134149Y-43780727D01*
X158219273Y-43865851D01*
X158323527Y-43926042D01*
X158405535Y-43948016D01*
X157838285Y-44515265D01*
X157892087Y-44552937D01*
X158084161Y-44642502D01*
X158084170Y-44642506D01*
X158288868Y-44697354D01*
X158288879Y-44697356D01*
X158499998Y-44715827D01*
X158500002Y-44715827D01*
X158711120Y-44697356D01*
X158711131Y-44697354D01*
X158915829Y-44642506D01*
X158915838Y-44642502D01*
X159107913Y-44552937D01*
X159107917Y-44552935D01*
X159161713Y-44515266D01*
X158594464Y-43948016D01*
X158676473Y-43926042D01*
X158780727Y-43865851D01*
X158865851Y-43780727D01*
X158926042Y-43676473D01*
X158948016Y-43594463D01*
X159515266Y-44161713D01*
X159552935Y-44107917D01*
X159552937Y-44107913D01*
X159642502Y-43915838D01*
X159642506Y-43915829D01*
X159697354Y-43711131D01*
X159697356Y-43711120D01*
X159715827Y-43500001D01*
X159715827Y-43499998D01*
X159697356Y-43288879D01*
X159697354Y-43288868D01*
X159642506Y-43084170D01*
X159642503Y-43084161D01*
X159639120Y-43076907D01*
X159628627Y-43007830D01*
X159657145Y-42944046D01*
X159715620Y-42905805D01*
X159751501Y-42900500D01*
X168078398Y-42900500D01*
X168145437Y-42920185D01*
X168191192Y-42972989D01*
X168194580Y-42981167D01*
X168206202Y-43012328D01*
X168206206Y-43012335D01*
X168292452Y-43127544D01*
X168292455Y-43127547D01*
X168407664Y-43213793D01*
X168407671Y-43213797D01*
X168431976Y-43222862D01*
X168539598Y-43263002D01*
X168595531Y-43304873D01*
X168619949Y-43370337D01*
X168605098Y-43438610D01*
X168583947Y-43466865D01*
X168461886Y-43588926D01*
X168326400Y-43782420D01*
X168326399Y-43782422D01*
X168226570Y-43996507D01*
X168226567Y-43996513D01*
X168169364Y-44209999D01*
X168169364Y-44210000D01*
X169066988Y-44210000D01*
X169034075Y-44267007D01*
X169000000Y-44394174D01*
X169000000Y-44525826D01*
X169034075Y-44652993D01*
X169066988Y-44710000D01*
X168169364Y-44710000D01*
X168226567Y-44923486D01*
X168226570Y-44923492D01*
X168326399Y-45137578D01*
X168461894Y-45331082D01*
X168628917Y-45498105D01*
X168814595Y-45628119D01*
X168858219Y-45682696D01*
X168865412Y-45752195D01*
X168833890Y-45814549D01*
X168814595Y-45831269D01*
X168628594Y-45961508D01*
X168461505Y-46128597D01*
X168325965Y-46322169D01*
X168325964Y-46322171D01*
X168226098Y-46536335D01*
X168226094Y-46536344D01*
X168164938Y-46764586D01*
X168164936Y-46764596D01*
X168144341Y-46999999D01*
X168144341Y-47000000D01*
X168164936Y-47235403D01*
X168164938Y-47235413D01*
X168226094Y-47463655D01*
X168226096Y-47463659D01*
X168226097Y-47463663D01*
X168325965Y-47677829D01*
X168325967Y-47677834D01*
X168379726Y-47754609D01*
X168444605Y-47847266D01*
X168461501Y-47871395D01*
X168461506Y-47871402D01*
X168628597Y-48038493D01*
X168628603Y-48038498D01*
X168814158Y-48168425D01*
X168857783Y-48223002D01*
X168864977Y-48292500D01*
X168833454Y-48354855D01*
X168814158Y-48371575D01*
X168628597Y-48501505D01*
X168461505Y-48668597D01*
X168325965Y-48862169D01*
X168325964Y-48862171D01*
X168226098Y-49076335D01*
X168226094Y-49076344D01*
X168164938Y-49304586D01*
X168164936Y-49304596D01*
X168144341Y-49539999D01*
X168144341Y-49540000D01*
X168164936Y-49775403D01*
X168164938Y-49775413D01*
X168226094Y-50003655D01*
X168226096Y-50003659D01*
X168226097Y-50003663D01*
X168243020Y-50039954D01*
X168325965Y-50217830D01*
X168325967Y-50217834D01*
X168387606Y-50305863D01*
X168444605Y-50387266D01*
X168461501Y-50411395D01*
X168461506Y-50411402D01*
X168628597Y-50578493D01*
X168628603Y-50578498D01*
X168814158Y-50708425D01*
X168857783Y-50763002D01*
X168864977Y-50832500D01*
X168833454Y-50894855D01*
X168814158Y-50911575D01*
X168628597Y-51041505D01*
X168461506Y-51208596D01*
X168325965Y-51402170D01*
X168325962Y-51402175D01*
X168323289Y-51407909D01*
X168277115Y-51460346D01*
X168210909Y-51479500D01*
X156380097Y-51479500D01*
X156313058Y-51459815D01*
X156292416Y-51443181D01*
X152487590Y-47638355D01*
X152487588Y-47638352D01*
X152368717Y-47519481D01*
X152368716Y-47519480D01*
X152272037Y-47463663D01*
X152272036Y-47463662D01*
X152231783Y-47440422D01*
X152175881Y-47425443D01*
X152079057Y-47399499D01*
X151920943Y-47399499D01*
X151913347Y-47399499D01*
X151913331Y-47399500D01*
X149800098Y-47399500D01*
X149733059Y-47379815D01*
X149712417Y-47363181D01*
X146987590Y-44638355D01*
X146987588Y-44638352D01*
X146868717Y-44519481D01*
X146868716Y-44519480D01*
X146754489Y-44453531D01*
X146754489Y-44453530D01*
X146754484Y-44453529D01*
X146746563Y-44448955D01*
X146731786Y-44440423D01*
X146693603Y-44430192D01*
X146579057Y-44399499D01*
X146420943Y-44399499D01*
X146413347Y-44399499D01*
X146413331Y-44399500D01*
X133086670Y-44399500D01*
X133086654Y-44399499D01*
X133079058Y-44399499D01*
X132920943Y-44399499D01*
X132844579Y-44419961D01*
X132768214Y-44440423D01*
X132768209Y-44440426D01*
X132631290Y-44519475D01*
X132631282Y-44519481D01*
X129519479Y-47631284D01*
X129502406Y-47660858D01*
X129492607Y-47677830D01*
X129440423Y-47768215D01*
X129399499Y-47920943D01*
X129399499Y-47920945D01*
X129399499Y-48089046D01*
X129399500Y-48089059D01*
X129399500Y-65913330D01*
X129399499Y-65913348D01*
X129399499Y-66079054D01*
X129399498Y-66079054D01*
X129399499Y-66079057D01*
X129440423Y-66231785D01*
X129468260Y-66280000D01*
X129468260Y-66280001D01*
X129519475Y-66368709D01*
X129519481Y-66368717D01*
X129638349Y-66487585D01*
X129638355Y-66487590D01*
X130335139Y-67184374D01*
X130335160Y-67184397D01*
X130338582Y-67187819D01*
X130339023Y-67188627D01*
X130342717Y-67192672D01*
X130342727Y-67192684D01*
X130341704Y-67193536D01*
X130372067Y-67249142D01*
X130367083Y-67318834D01*
X130325211Y-67374767D01*
X130259747Y-67399184D01*
X130250901Y-67399500D01*
X107931994Y-67399500D01*
X107864955Y-67379815D01*
X107819200Y-67327011D01*
X107809256Y-67257853D01*
X107812219Y-67243406D01*
X107865863Y-67043206D01*
X107885391Y-66820000D01*
X107865863Y-66596794D01*
X107807872Y-66380370D01*
X107713181Y-66177305D01*
X107613114Y-66034394D01*
X107584668Y-65993768D01*
X107511839Y-65920939D01*
X107426233Y-65835333D01*
X107426229Y-65835330D01*
X107426228Y-65835329D01*
X107242700Y-65706821D01*
X107242692Y-65706817D01*
X107147400Y-65662382D01*
X107094960Y-65616210D01*
X107075808Y-65549017D01*
X107096023Y-65482135D01*
X107147400Y-65437618D01*
X107242696Y-65393181D01*
X107426233Y-65264667D01*
X107584667Y-65106233D01*
X107713181Y-64922696D01*
X107807872Y-64719630D01*
X107865863Y-64503206D01*
X107885391Y-64280000D01*
X107865863Y-64056794D01*
X107807872Y-63840370D01*
X107713181Y-63637305D01*
X107626776Y-63513905D01*
X107584668Y-63453768D01*
X107516319Y-63385419D01*
X107426233Y-63295333D01*
X107426229Y-63295330D01*
X107426228Y-63295329D01*
X107242700Y-63166821D01*
X107242692Y-63166817D01*
X107147400Y-63122382D01*
X107094960Y-63076210D01*
X107075808Y-63009017D01*
X107096023Y-62942135D01*
X107147400Y-62897618D01*
X107242696Y-62853181D01*
X107426233Y-62724667D01*
X107584667Y-62566233D01*
X107713181Y-62382696D01*
X107807872Y-62179630D01*
X107865863Y-61963206D01*
X107885391Y-61740000D01*
X107865863Y-61516794D01*
X107807872Y-61300370D01*
X107713181Y-61097305D01*
X107608287Y-60947500D01*
X107584668Y-60913768D01*
X107516319Y-60845419D01*
X107426233Y-60755333D01*
X107426229Y-60755330D01*
X107426228Y-60755329D01*
X107242700Y-60626821D01*
X107242692Y-60626817D01*
X107147400Y-60582382D01*
X107094960Y-60536210D01*
X107075808Y-60469017D01*
X107096023Y-60402135D01*
X107147400Y-60357618D01*
X107242696Y-60313181D01*
X107426233Y-60184667D01*
X107584667Y-60026233D01*
X107713181Y-59842696D01*
X107807872Y-59639630D01*
X107865863Y-59423206D01*
X107885391Y-59200000D01*
X107865863Y-58976794D01*
X107807872Y-58760370D01*
X107713181Y-58557305D01*
X107608287Y-58407500D01*
X107584668Y-58373768D01*
X107510982Y-58300082D01*
X107426233Y-58215333D01*
X107426229Y-58215330D01*
X107426228Y-58215329D01*
X107242700Y-58086821D01*
X107242692Y-58086817D01*
X107147400Y-58042382D01*
X107094960Y-57996210D01*
X107075808Y-57929017D01*
X107096023Y-57862135D01*
X107147400Y-57817618D01*
X107242696Y-57773181D01*
X107426233Y-57644667D01*
X107584667Y-57486233D01*
X107713181Y-57302696D01*
X107807872Y-57099630D01*
X107865863Y-56883206D01*
X107885391Y-56660000D01*
X107865863Y-56436794D01*
X107807872Y-56220370D01*
X107713181Y-56017305D01*
X107634669Y-55905178D01*
X107584668Y-55833768D01*
X107516319Y-55765419D01*
X107426233Y-55675333D01*
X107426229Y-55675330D01*
X107426228Y-55675329D01*
X107242700Y-55546821D01*
X107242692Y-55546817D01*
X107147400Y-55502382D01*
X107094960Y-55456210D01*
X107075808Y-55389017D01*
X107096023Y-55322135D01*
X107147400Y-55277618D01*
X107242696Y-55233181D01*
X107426233Y-55104667D01*
X107584667Y-54946233D01*
X107713181Y-54762696D01*
X107807872Y-54559630D01*
X107865863Y-54343206D01*
X107885391Y-54120000D01*
X107865863Y-53896794D01*
X107807872Y-53680370D01*
X107713181Y-53477305D01*
X107606685Y-53325212D01*
X107584668Y-53293768D01*
X107516319Y-53225419D01*
X107426233Y-53135333D01*
X107426229Y-53135330D01*
X107426228Y-53135329D01*
X107242700Y-53006821D01*
X107242692Y-53006817D01*
X107147400Y-52962382D01*
X107094960Y-52916210D01*
X107075808Y-52849017D01*
X107096023Y-52782135D01*
X107147400Y-52737618D01*
X107242696Y-52693181D01*
X107426233Y-52564667D01*
X107584667Y-52406233D01*
X107713181Y-52222696D01*
X107807872Y-52019630D01*
X107865863Y-51803206D01*
X107885391Y-51580000D01*
X107880125Y-51519815D01*
X107877406Y-51488735D01*
X107865863Y-51356794D01*
X107807872Y-51140370D01*
X107713181Y-50937305D01*
X107608287Y-50787500D01*
X107584668Y-50753768D01*
X107513047Y-50682147D01*
X107426233Y-50595333D01*
X107426229Y-50595330D01*
X107426228Y-50595329D01*
X107242700Y-50466821D01*
X107242692Y-50466817D01*
X107147400Y-50422382D01*
X107094960Y-50376210D01*
X107075808Y-50309017D01*
X107096023Y-50242135D01*
X107147400Y-50197618D01*
X107242696Y-50153181D01*
X107426233Y-50024667D01*
X107584667Y-49866233D01*
X107713181Y-49682696D01*
X107807872Y-49479630D01*
X107865863Y-49263206D01*
X107885391Y-49040000D01*
X107865863Y-48816794D01*
X107807872Y-48600370D01*
X107713181Y-48397305D01*
X107598175Y-48233058D01*
X107584668Y-48213768D01*
X107516319Y-48145419D01*
X107426233Y-48055333D01*
X107426229Y-48055330D01*
X107426228Y-48055329D01*
X107242700Y-47926821D01*
X107242696Y-47926819D01*
X107230095Y-47920943D01*
X107039630Y-47832128D01*
X107039627Y-47832127D01*
X107039625Y-47832126D01*
X106823208Y-47774137D01*
X106823200Y-47774136D01*
X106600002Y-47754609D01*
X106599998Y-47754609D01*
X106376799Y-47774136D01*
X106376791Y-47774137D01*
X106160374Y-47832126D01*
X106160368Y-47832129D01*
X105957306Y-47926818D01*
X105957304Y-47926819D01*
X105773764Y-48055334D01*
X105712181Y-48116918D01*
X105650858Y-48150403D01*
X105581166Y-48145419D01*
X105525233Y-48103547D01*
X105500816Y-48038083D01*
X105500500Y-48029237D01*
X105500500Y-44465782D01*
X105520185Y-44398743D01*
X105536819Y-44378101D01*
X106978102Y-42936819D01*
X107039425Y-42903334D01*
X107065783Y-42900500D01*
X152164300Y-42900500D01*
X152231339Y-42920185D01*
G37*
%TD.AperFunction*%
%TD*%
%TA.AperFunction,Conductor*%
%TO.N,+5V*%
G36*
X171515677Y-69519685D02*
G01*
X171536319Y-69536319D01*
X171963181Y-69963181D01*
X171996666Y-70024504D01*
X171999500Y-70050862D01*
X171999500Y-132876000D01*
X171979815Y-132943039D01*
X171927011Y-132988794D01*
X171875500Y-133000000D01*
X166438610Y-133000000D01*
X166371571Y-132980315D01*
X166351969Y-132957694D01*
X166351256Y-132958408D01*
X165756088Y-132363240D01*
X165824571Y-132334875D01*
X165926494Y-132266772D01*
X166013173Y-132180093D01*
X166081276Y-132078170D01*
X166109641Y-132009688D01*
X166663864Y-132563911D01*
X166744370Y-132440687D01*
X166835991Y-132231815D01*
X166891983Y-132010704D01*
X166910818Y-131783405D01*
X166910818Y-131783394D01*
X166891983Y-131556095D01*
X166835991Y-131334984D01*
X166744369Y-131126109D01*
X166663864Y-131002887D01*
X166109641Y-131557110D01*
X166081276Y-131488630D01*
X166013173Y-131386707D01*
X165926494Y-131300028D01*
X165824571Y-131231925D01*
X165756089Y-131203559D01*
X166311711Y-130647937D01*
X166311710Y-130647935D01*
X166285150Y-130627262D01*
X166285149Y-130627261D01*
X166084550Y-130518701D01*
X166084545Y-130518699D01*
X165868824Y-130444642D01*
X165643843Y-130407100D01*
X165415759Y-130407100D01*
X165190777Y-130444642D01*
X164975056Y-130518699D01*
X164975051Y-130518701D01*
X164774453Y-130627260D01*
X164774447Y-130627264D01*
X164747890Y-130647934D01*
X164747890Y-130647936D01*
X165303513Y-131203559D01*
X165235031Y-131231925D01*
X165133108Y-131300028D01*
X165046429Y-131386707D01*
X164978326Y-131488630D01*
X164949960Y-131557112D01*
X164395736Y-131002888D01*
X164315232Y-131126110D01*
X164315230Y-131126114D01*
X164223610Y-131334984D01*
X164167618Y-131556095D01*
X164148784Y-131783394D01*
X164148784Y-131783405D01*
X164167618Y-132010704D01*
X164223610Y-132231815D01*
X164315232Y-132440690D01*
X164441781Y-132634388D01*
X164461968Y-132701277D01*
X164442788Y-132768463D01*
X164390330Y-132814613D01*
X164321248Y-132825076D01*
X164257476Y-132796530D01*
X164250291Y-132789890D01*
X163661120Y-132200719D01*
X163627635Y-132139396D01*
X163624801Y-132113038D01*
X163624801Y-130926561D01*
X163644486Y-130859522D01*
X163661120Y-130838880D01*
X164463681Y-130036319D01*
X164525004Y-130002834D01*
X164551362Y-130000000D01*
X166500000Y-130000000D01*
X167500000Y-129000000D01*
X167500000Y-121000000D01*
X167000000Y-120500000D01*
X166980505Y-120491925D01*
X166926102Y-120448084D01*
X166904037Y-120381789D01*
X166904381Y-120367132D01*
X166911320Y-120283400D01*
X166892478Y-120056009D01*
X166836465Y-119834822D01*
X166744811Y-119625870D01*
X166620014Y-119434853D01*
X166620013Y-119434851D01*
X166465481Y-119266986D01*
X166465477Y-119266982D01*
X166290685Y-119130937D01*
X166249872Y-119074226D01*
X166246197Y-119004453D01*
X166280828Y-118943770D01*
X166290681Y-118935232D01*
X166311710Y-118918862D01*
X165756088Y-118363240D01*
X165824571Y-118334875D01*
X165926494Y-118266772D01*
X166013173Y-118180093D01*
X166081276Y-118078170D01*
X166109641Y-118009688D01*
X166663864Y-118563911D01*
X166744370Y-118440687D01*
X166835991Y-118231815D01*
X166891983Y-118010704D01*
X166910818Y-117783405D01*
X166910818Y-117783394D01*
X166891983Y-117556095D01*
X166835991Y-117334984D01*
X166744369Y-117126109D01*
X166663864Y-117002887D01*
X166109641Y-117557110D01*
X166081276Y-117488630D01*
X166013173Y-117386707D01*
X165926494Y-117300028D01*
X165824571Y-117231925D01*
X165756089Y-117203559D01*
X166311711Y-116647937D01*
X166311710Y-116647935D01*
X166285150Y-116627262D01*
X166285149Y-116627261D01*
X166084550Y-116518701D01*
X166084545Y-116518699D01*
X165868824Y-116444642D01*
X165643843Y-116407100D01*
X165415759Y-116407100D01*
X165190777Y-116444642D01*
X164975056Y-116518699D01*
X164975051Y-116518701D01*
X164774453Y-116627260D01*
X164774447Y-116627264D01*
X164747890Y-116647934D01*
X164747890Y-116647936D01*
X165303513Y-117203559D01*
X165235031Y-117231925D01*
X165133108Y-117300028D01*
X165046429Y-117386707D01*
X164978326Y-117488630D01*
X164949960Y-117557112D01*
X164395736Y-117002888D01*
X164315232Y-117126110D01*
X164315230Y-117126114D01*
X164237556Y-117303193D01*
X164192600Y-117356679D01*
X164125864Y-117377369D01*
X164058536Y-117358694D01*
X164011993Y-117306584D01*
X164000000Y-117253383D01*
X164000000Y-115551362D01*
X164019685Y-115484323D01*
X164036319Y-115463681D01*
X169000000Y-110500000D01*
X169000000Y-74384306D01*
X169019685Y-74317267D01*
X169025620Y-74308825D01*
X169029815Y-74303355D01*
X169029820Y-74303351D01*
X169079939Y-74216539D01*
X169108877Y-74166420D01*
X169149800Y-74013693D01*
X169149800Y-73855578D01*
X169149800Y-73154425D01*
X169149801Y-73154412D01*
X169149801Y-72986309D01*
X169108876Y-72833579D01*
X169108873Y-72833574D01*
X169029823Y-72696652D01*
X169025623Y-72691179D01*
X169000430Y-72626010D01*
X169000000Y-72615694D01*
X169000000Y-72500000D01*
X168884533Y-72500000D01*
X168817494Y-72480315D01*
X168796852Y-72463681D01*
X168422225Y-72089055D01*
X168422223Y-72089052D01*
X168303352Y-71970181D01*
X168303351Y-71970180D01*
X168216539Y-71920060D01*
X168216539Y-71920059D01*
X168216535Y-71920058D01*
X168166420Y-71891123D01*
X168022496Y-71852558D01*
X167966911Y-71820465D01*
X167625572Y-71479125D01*
X167691179Y-71461546D01*
X167804121Y-71396339D01*
X167896339Y-71304121D01*
X167961546Y-71191179D01*
X167979125Y-71125572D01*
X168542621Y-71689068D01*
X168542622Y-71689068D01*
X168586056Y-71627039D01*
X168586058Y-71627035D01*
X168678440Y-71428919D01*
X168678444Y-71428910D01*
X168735018Y-71217771D01*
X168735020Y-71217761D01*
X168754072Y-71000001D01*
X168754072Y-70999998D01*
X168735020Y-70782238D01*
X168735018Y-70782228D01*
X168678444Y-70571089D01*
X168678440Y-70571080D01*
X168586057Y-70372964D01*
X168542621Y-70310930D01*
X167979124Y-70874426D01*
X167961546Y-70808821D01*
X167896339Y-70695879D01*
X167804121Y-70603661D01*
X167691179Y-70538454D01*
X167625572Y-70520874D01*
X168189068Y-69957378D01*
X168189067Y-69957377D01*
X168127036Y-69913942D01*
X168127030Y-69913939D01*
X168017057Y-69862658D01*
X167964617Y-69816486D01*
X167945465Y-69749292D01*
X167965681Y-69682411D01*
X168017057Y-69637894D01*
X168127287Y-69586493D01*
X168198943Y-69536319D01*
X168218786Y-69522425D01*
X168284992Y-69500098D01*
X168289909Y-69500000D01*
X171448638Y-69500000D01*
X171515677Y-69519685D01*
G37*
%TD.AperFunction*%
%TA.AperFunction,Conductor*%
G36*
X164978326Y-118078170D02*
G01*
X165046429Y-118180093D01*
X165133108Y-118266772D01*
X165235031Y-118334875D01*
X165303512Y-118363240D01*
X164747889Y-118918862D01*
X164747890Y-118918863D01*
X164768918Y-118935231D01*
X164809730Y-118991942D01*
X164813403Y-119061715D01*
X164778771Y-119122398D01*
X164768916Y-119130936D01*
X164594131Y-119266975D01*
X164594120Y-119266986D01*
X164439588Y-119434852D01*
X164439586Y-119434854D01*
X164323652Y-119612304D01*
X164270506Y-119657660D01*
X164201275Y-119667084D01*
X164137939Y-119637582D01*
X164132163Y-119632163D01*
X164036319Y-119536319D01*
X164002834Y-119474996D01*
X164000000Y-119448638D01*
X164000000Y-118313416D01*
X164019685Y-118246377D01*
X164072489Y-118200622D01*
X164141647Y-118190678D01*
X164205203Y-118219703D01*
X164237556Y-118263606D01*
X164315232Y-118440690D01*
X164395735Y-118563910D01*
X164949959Y-118009687D01*
X164978326Y-118078170D01*
G37*
%TD.AperFunction*%
%TA.AperFunction,Conductor*%
G36*
X166777130Y-69519685D02*
G01*
X166781214Y-69522425D01*
X166872708Y-69586490D01*
X166872710Y-69586491D01*
X166872713Y-69586493D01*
X166982943Y-69637894D01*
X167035382Y-69684066D01*
X167054534Y-69751260D01*
X167034318Y-69818141D01*
X166982943Y-69862658D01*
X166872960Y-69913944D01*
X166810931Y-69957376D01*
X166810930Y-69957377D01*
X167374428Y-70520874D01*
X167308821Y-70538454D01*
X167195879Y-70603661D01*
X167103661Y-70695879D01*
X167038454Y-70808821D01*
X167020874Y-70874428D01*
X166457377Y-70310931D01*
X166426352Y-70355239D01*
X166371774Y-70398864D01*
X166302276Y-70406056D01*
X166239921Y-70374534D01*
X166237096Y-70371796D01*
X165576981Y-69711681D01*
X165543496Y-69650358D01*
X165548480Y-69580666D01*
X165590352Y-69524733D01*
X165655816Y-69500316D01*
X165664662Y-69500000D01*
X166710091Y-69500000D01*
X166777130Y-69519685D01*
G37*
%TD.AperFunction*%
%TD*%
M02*
