%TF.GenerationSoftware,KiCad,Pcbnew,8.0.6*%
%TF.CreationDate,2025-03-07T17:01:16-07:00*%
%TF.ProjectId,Capstone_DataLogger,43617073-746f-46e6-955f-446174614c6f,rev?*%
%TF.SameCoordinates,Original*%
%TF.FileFunction,Soldermask,Bot*%
%TF.FilePolarity,Negative*%
%FSLAX46Y46*%
G04 Gerber Fmt 4.6, Leading zero omitted, Abs format (unit mm)*
G04 Created by KiCad (PCBNEW 8.0.6) date 2025-03-07 17:01:16*
%MOMM*%
%LPD*%
G01*
G04 APERTURE LIST*
G04 Aperture macros list*
%AMRoundRect*
0 Rectangle with rounded corners*
0 $1 Rounding radius*
0 $2 $3 $4 $5 $6 $7 $8 $9 X,Y pos of 4 corners*
0 Add a 4 corners polygon primitive as box body*
4,1,4,$2,$3,$4,$5,$6,$7,$8,$9,$2,$3,0*
0 Add four circle primitives for the rounded corners*
1,1,$1+$1,$2,$3*
1,1,$1+$1,$4,$5*
1,1,$1+$1,$6,$7*
1,1,$1+$1,$8,$9*
0 Add four rect primitives between the rounded corners*
20,1,$1+$1,$2,$3,$4,$5,0*
20,1,$1+$1,$4,$5,$6,$7,0*
20,1,$1+$1,$6,$7,$8,$9,0*
20,1,$1+$1,$8,$9,$2,$3,0*%
G04 Aperture macros list end*
%ADD10R,1.700000X1.700000*%
%ADD11O,1.700000X1.700000*%
%ADD12C,1.701800*%
%ADD13R,1.422400X1.422400*%
%ADD14C,1.422400*%
%ADD15C,1.752600*%
%ADD16C,1.498600*%
%ADD17R,1.600000X1.600000*%
%ADD18O,1.600000X1.600000*%
%ADD19C,1.524000*%
%ADD20RoundRect,0.102000X0.780000X0.780000X-0.780000X0.780000X-0.780000X-0.780000X0.780000X-0.780000X0*%
%ADD21C,1.764000*%
%ADD22R,1.498600X1.498600*%
%ADD23C,3.250000*%
%ADD24RoundRect,0.250000X-0.650000X-0.650000X0.650000X-0.650000X0.650000X0.650000X-0.650000X0.650000X0*%
%ADD25C,1.800000*%
G04 APERTURE END LIST*
D10*
%TO.C,J6*%
X154000000Y-67220000D03*
D11*
X154000000Y-69760000D03*
X154000000Y-72300000D03*
X154000000Y-74840000D03*
X154000000Y-77380000D03*
X154000000Y-79920000D03*
X154000000Y-82460000D03*
X154000000Y-85000000D03*
%TD*%
D12*
%TO.C,U5*%
X151580000Y-101500000D03*
X149040000Y-101500000D03*
X146500000Y-101500000D03*
%TD*%
D13*
%TO.C,XTAL1*%
X153500000Y-43500000D03*
D14*
X158500000Y-43500000D03*
%TD*%
D15*
%TO.C,J7*%
X165529801Y-117783400D03*
X165529801Y-120283400D03*
X165529801Y-122783400D03*
X165529801Y-125283400D03*
%TD*%
D16*
%TO.C,J3*%
X167500000Y-68500000D03*
X167500000Y-71000000D03*
X167500000Y-73500000D03*
X167500000Y-76000000D03*
X167500000Y-78500000D03*
%TD*%
D17*
%TO.C,U3*%
X136700000Y-48500000D03*
D18*
X136700000Y-51040000D03*
X136700000Y-53580000D03*
X136700000Y-56120000D03*
X136700000Y-58660000D03*
X136700000Y-61200000D03*
X136700000Y-63740000D03*
X136700000Y-66280000D03*
X136700000Y-68820000D03*
X136700000Y-71360000D03*
X136700000Y-73900000D03*
X136700000Y-76440000D03*
X136700000Y-78980000D03*
X136700000Y-81520000D03*
X144320000Y-81520000D03*
X144320000Y-78980000D03*
X144320000Y-76440000D03*
X144320000Y-73900000D03*
X144320000Y-71360000D03*
X144320000Y-68820000D03*
X144320000Y-66280000D03*
X144320000Y-63740000D03*
X144320000Y-61200000D03*
X144320000Y-58660000D03*
X144320000Y-56120000D03*
X144320000Y-53580000D03*
X144320000Y-51040000D03*
X144320000Y-48500000D03*
%TD*%
D10*
%TO.C,J11*%
X137500000Y-109420000D03*
D11*
X137500000Y-111960000D03*
X137500000Y-114500000D03*
X137500000Y-117040000D03*
%TD*%
D19*
%TO.C,Y2*%
X148500000Y-94770000D03*
X148500000Y-92230000D03*
%TD*%
D20*
%TO.C,U2*%
X132000000Y-94760000D03*
D21*
X132000000Y-92220000D03*
X132000000Y-89680000D03*
X132000000Y-87140000D03*
X132000000Y-84600000D03*
X132000000Y-82060000D03*
X132000000Y-79520000D03*
X132000000Y-76980000D03*
X132000000Y-74440000D03*
X132000000Y-71900000D03*
X132000000Y-69360000D03*
X132000000Y-66820000D03*
X132000000Y-64280000D03*
X132000000Y-61740000D03*
X132000000Y-59200000D03*
X132000000Y-56660000D03*
X132000000Y-54120000D03*
X132000000Y-51580000D03*
X132000000Y-49040000D03*
X106600000Y-94760000D03*
X106600000Y-92220000D03*
X106600000Y-89680000D03*
X106600000Y-87140000D03*
X106600000Y-84600000D03*
X106600000Y-82060000D03*
X106600000Y-79520000D03*
X106600000Y-76980000D03*
X106600000Y-74440000D03*
X106600000Y-71900000D03*
X106600000Y-69360000D03*
X106600000Y-66820000D03*
X106600000Y-64280000D03*
X106600000Y-61740000D03*
X106600000Y-59200000D03*
X106600000Y-56660000D03*
X106600000Y-54120000D03*
X106600000Y-51580000D03*
X106600000Y-49040000D03*
%TD*%
D15*
%TO.C,J9*%
X165529801Y-131783400D03*
X165529801Y-134283400D03*
X165529801Y-136783400D03*
X165529801Y-139283400D03*
%TD*%
D10*
%TO.C,U1*%
X169500000Y-41920000D03*
D11*
X169500000Y-44460000D03*
X169500000Y-47000000D03*
X169500000Y-49540000D03*
X169500000Y-52080000D03*
X169500000Y-54620000D03*
X169500000Y-57160000D03*
X169500000Y-59700000D03*
X169500000Y-62240000D03*
%TD*%
D22*
%TO.C,U4*%
X144620000Y-94810000D03*
D16*
X144620000Y-92270000D03*
X144620000Y-89730000D03*
X144620000Y-87190000D03*
X137000000Y-87190000D03*
X137000000Y-89730000D03*
X137000000Y-92270000D03*
X137000000Y-94810000D03*
%TD*%
D23*
%TO.C,J10*%
X145500000Y-118500000D03*
X153000000Y-118500000D03*
D24*
X147410000Y-112150000D03*
D25*
X148680000Y-109610000D03*
X149950000Y-112150000D03*
X151220000Y-109610000D03*
%TD*%
D16*
%TO.C,J5*%
X117992601Y-132000000D03*
X117992601Y-134500000D03*
%TD*%
D15*
%TO.C,J8*%
X165529801Y-103783400D03*
X165529801Y-106283400D03*
X165529801Y-108783400D03*
X165529801Y-111283400D03*
%TD*%
D16*
%TO.C,J12*%
X165500000Y-94500000D03*
X165500000Y-97000000D03*
%TD*%
%TO.C,J1*%
X127462800Y-131934700D03*
X127462800Y-134434700D03*
%TD*%
%TO.C,J4*%
X108500000Y-132000000D03*
X108500000Y-134500000D03*
%TD*%
%TO.C,J2*%
X137000000Y-131783400D03*
X137000000Y-134283400D03*
%TD*%
M02*
