%TF.GenerationSoftware,KiCad,Pcbnew,8.0.6*%
%TF.CreationDate,2025-03-07T17:01:16-07:00*%
%TF.ProjectId,Capstone_DataLogger,43617073-746f-46e6-955f-446174614c6f,rev?*%
%TF.SameCoordinates,Original*%
%TF.FileFunction,Legend,Top*%
%TF.FilePolarity,Positive*%
%FSLAX46Y46*%
G04 Gerber Fmt 4.6, Leading zero omitted, Abs format (unit mm)*
G04 Created by KiCad (PCBNEW 8.0.6) date 2025-03-07 17:01:16*
%MOMM*%
%LPD*%
G01*
G04 APERTURE LIST*
%ADD10C,0.125000*%
%ADD11C,0.100000*%
%ADD12C,0.300000*%
%ADD13C,0.150000*%
%ADD14C,0.120000*%
%ADD15C,0.152400*%
%ADD16C,0.508000*%
%ADD17C,0.400000*%
%ADD18C,0.127000*%
%ADD19C,0.200000*%
G04 APERTURE END LIST*
D10*
X163896331Y-42162166D02*
X164658236Y-42162166D01*
X164277283Y-42543119D02*
X164277283Y-41781214D01*
X165039188Y-41543119D02*
X165658235Y-41543119D01*
X165658235Y-41543119D02*
X165324902Y-41924071D01*
X165324902Y-41924071D02*
X165467759Y-41924071D01*
X165467759Y-41924071D02*
X165562997Y-41971690D01*
X165562997Y-41971690D02*
X165610616Y-42019309D01*
X165610616Y-42019309D02*
X165658235Y-42114547D01*
X165658235Y-42114547D02*
X165658235Y-42352642D01*
X165658235Y-42352642D02*
X165610616Y-42447880D01*
X165610616Y-42447880D02*
X165562997Y-42495500D01*
X165562997Y-42495500D02*
X165467759Y-42543119D01*
X165467759Y-42543119D02*
X165182045Y-42543119D01*
X165182045Y-42543119D02*
X165086807Y-42495500D01*
X165086807Y-42495500D02*
X165039188Y-42447880D01*
X165943950Y-41543119D02*
X166277283Y-42543119D01*
X166277283Y-42543119D02*
X166610616Y-41543119D01*
X166848712Y-41543119D02*
X167467759Y-41543119D01*
X167467759Y-41543119D02*
X167134426Y-41924071D01*
X167134426Y-41924071D02*
X167277283Y-41924071D01*
X167277283Y-41924071D02*
X167372521Y-41971690D01*
X167372521Y-41971690D02*
X167420140Y-42019309D01*
X167420140Y-42019309D02*
X167467759Y-42114547D01*
X167467759Y-42114547D02*
X167467759Y-42352642D01*
X167467759Y-42352642D02*
X167420140Y-42447880D01*
X167420140Y-42447880D02*
X167372521Y-42495500D01*
X167372521Y-42495500D02*
X167277283Y-42543119D01*
X167277283Y-42543119D02*
X166991569Y-42543119D01*
X166991569Y-42543119D02*
X166896331Y-42495500D01*
X166896331Y-42495500D02*
X166848712Y-42447880D01*
D11*
X165608000Y-55380000D02*
X165608000Y-60630000D01*
X161950000Y-56500000D02*
X162450000Y-56500000D01*
X159500000Y-55380000D02*
X165608000Y-55380000D01*
X161950000Y-59500000D02*
X162450000Y-59500000D01*
X165608000Y-60620000D02*
X159500000Y-60620000D01*
D12*
X122810829Y-137800389D02*
X121310829Y-137800389D01*
X121310829Y-137800389D02*
X121310829Y-137228960D01*
X121310829Y-137228960D02*
X121382258Y-137086103D01*
X121382258Y-137086103D02*
X121453686Y-137014674D01*
X121453686Y-137014674D02*
X121596543Y-136943246D01*
X121596543Y-136943246D02*
X121810829Y-136943246D01*
X121810829Y-136943246D02*
X121953686Y-137014674D01*
X121953686Y-137014674D02*
X122025115Y-137086103D01*
X122025115Y-137086103D02*
X122096543Y-137228960D01*
X122096543Y-137228960D02*
X122096543Y-137800389D01*
X121310829Y-136443246D02*
X122810829Y-136086103D01*
X122810829Y-136086103D02*
X121739401Y-135800389D01*
X121739401Y-135800389D02*
X122810829Y-135514674D01*
X122810829Y-135514674D02*
X121310829Y-135157532D01*
X122810829Y-133728960D02*
X122096543Y-134228960D01*
X122810829Y-134586103D02*
X121310829Y-134586103D01*
X121310829Y-134586103D02*
X121310829Y-134014674D01*
X121310829Y-134014674D02*
X121382258Y-133871817D01*
X121382258Y-133871817D02*
X121453686Y-133800388D01*
X121453686Y-133800388D02*
X121596543Y-133728960D01*
X121596543Y-133728960D02*
X121810829Y-133728960D01*
X121810829Y-133728960D02*
X121953686Y-133800388D01*
X121953686Y-133800388D02*
X122025115Y-133871817D01*
X122025115Y-133871817D02*
X122096543Y-134014674D01*
X122096543Y-134014674D02*
X122096543Y-134586103D01*
X122667972Y-133086103D02*
X122739401Y-133014674D01*
X122739401Y-133014674D02*
X122810829Y-133086103D01*
X122810829Y-133086103D02*
X122739401Y-133157531D01*
X122739401Y-133157531D02*
X122667972Y-133086103D01*
X122667972Y-133086103D02*
X122810829Y-133086103D01*
X122810829Y-130514674D02*
X122810829Y-131228960D01*
X122810829Y-131228960D02*
X121310829Y-131228960D01*
X122025115Y-130014674D02*
X122025115Y-129514674D01*
X122810829Y-129300388D02*
X122810829Y-130014674D01*
X122810829Y-130014674D02*
X121310829Y-130014674D01*
X121310829Y-130014674D02*
X121310829Y-129300388D01*
X122810829Y-128657531D02*
X121310829Y-128657531D01*
X121310829Y-128657531D02*
X121310829Y-128300388D01*
X121310829Y-128300388D02*
X121382258Y-128086102D01*
X121382258Y-128086102D02*
X121525115Y-127943245D01*
X121525115Y-127943245D02*
X121667972Y-127871816D01*
X121667972Y-127871816D02*
X121953686Y-127800388D01*
X121953686Y-127800388D02*
X122167972Y-127800388D01*
X122167972Y-127800388D02*
X122453686Y-127871816D01*
X122453686Y-127871816D02*
X122596543Y-127943245D01*
X122596543Y-127943245D02*
X122739401Y-128086102D01*
X122739401Y-128086102D02*
X122810829Y-128300388D01*
X122810829Y-128300388D02*
X122810829Y-128657531D01*
X168800828Y-99159774D02*
X168800828Y-98302632D01*
X170300828Y-98731203D02*
X168800828Y-98731203D01*
X170300828Y-97802632D02*
X168800828Y-97802632D01*
X169515114Y-97802632D02*
X169515114Y-96945489D01*
X170300828Y-96945489D02*
X168800828Y-96945489D01*
X169515114Y-96231203D02*
X169515114Y-95731203D01*
X170300828Y-95516917D02*
X170300828Y-96231203D01*
X170300828Y-96231203D02*
X168800828Y-96231203D01*
X168800828Y-96231203D02*
X168800828Y-95516917D01*
X170300828Y-94016917D02*
X169586542Y-94516917D01*
X170300828Y-94874060D02*
X168800828Y-94874060D01*
X168800828Y-94874060D02*
X168800828Y-94302631D01*
X168800828Y-94302631D02*
X168872257Y-94159774D01*
X168872257Y-94159774D02*
X168943685Y-94088345D01*
X168943685Y-94088345D02*
X169086542Y-94016917D01*
X169086542Y-94016917D02*
X169300828Y-94016917D01*
X169300828Y-94016917D02*
X169443685Y-94088345D01*
X169443685Y-94088345D02*
X169515114Y-94159774D01*
X169515114Y-94159774D02*
X169586542Y-94302631D01*
X169586542Y-94302631D02*
X169586542Y-94874060D01*
X170300828Y-93374060D02*
X168800828Y-93374060D01*
X168800828Y-93374060D02*
X169872257Y-92874060D01*
X169872257Y-92874060D02*
X168800828Y-92374060D01*
X168800828Y-92374060D02*
X170300828Y-92374060D01*
D10*
X158272712Y-137323500D02*
X158415569Y-137371119D01*
X158415569Y-137371119D02*
X158653664Y-137371119D01*
X158653664Y-137371119D02*
X158748902Y-137323500D01*
X158748902Y-137323500D02*
X158796521Y-137275880D01*
X158796521Y-137275880D02*
X158844140Y-137180642D01*
X158844140Y-137180642D02*
X158844140Y-137085404D01*
X158844140Y-137085404D02*
X158796521Y-136990166D01*
X158796521Y-136990166D02*
X158748902Y-136942547D01*
X158748902Y-136942547D02*
X158653664Y-136894928D01*
X158653664Y-136894928D02*
X158463188Y-136847309D01*
X158463188Y-136847309D02*
X158367950Y-136799690D01*
X158367950Y-136799690D02*
X158320331Y-136752071D01*
X158320331Y-136752071D02*
X158272712Y-136656833D01*
X158272712Y-136656833D02*
X158272712Y-136561595D01*
X158272712Y-136561595D02*
X158320331Y-136466357D01*
X158320331Y-136466357D02*
X158367950Y-136418738D01*
X158367950Y-136418738D02*
X158463188Y-136371119D01*
X158463188Y-136371119D02*
X158701283Y-136371119D01*
X158701283Y-136371119D02*
X158844140Y-136418738D01*
X159844140Y-137275880D02*
X159796521Y-137323500D01*
X159796521Y-137323500D02*
X159653664Y-137371119D01*
X159653664Y-137371119D02*
X159558426Y-137371119D01*
X159558426Y-137371119D02*
X159415569Y-137323500D01*
X159415569Y-137323500D02*
X159320331Y-137228261D01*
X159320331Y-137228261D02*
X159272712Y-137133023D01*
X159272712Y-137133023D02*
X159225093Y-136942547D01*
X159225093Y-136942547D02*
X159225093Y-136799690D01*
X159225093Y-136799690D02*
X159272712Y-136609214D01*
X159272712Y-136609214D02*
X159320331Y-136513976D01*
X159320331Y-136513976D02*
X159415569Y-136418738D01*
X159415569Y-136418738D02*
X159558426Y-136371119D01*
X159558426Y-136371119D02*
X159653664Y-136371119D01*
X159653664Y-136371119D02*
X159796521Y-136418738D01*
X159796521Y-136418738D02*
X159844140Y-136466357D01*
X160748902Y-137371119D02*
X160272712Y-137371119D01*
X160272712Y-137371119D02*
X160272712Y-136371119D01*
D12*
X170259201Y-112800317D02*
X170330629Y-112586032D01*
X170330629Y-112586032D02*
X170330629Y-112228889D01*
X170330629Y-112228889D02*
X170259201Y-112086032D01*
X170259201Y-112086032D02*
X170187772Y-112014603D01*
X170187772Y-112014603D02*
X170044915Y-111943174D01*
X170044915Y-111943174D02*
X169902058Y-111943174D01*
X169902058Y-111943174D02*
X169759201Y-112014603D01*
X169759201Y-112014603D02*
X169687772Y-112086032D01*
X169687772Y-112086032D02*
X169616343Y-112228889D01*
X169616343Y-112228889D02*
X169544915Y-112514603D01*
X169544915Y-112514603D02*
X169473486Y-112657460D01*
X169473486Y-112657460D02*
X169402058Y-112728889D01*
X169402058Y-112728889D02*
X169259201Y-112800317D01*
X169259201Y-112800317D02*
X169116343Y-112800317D01*
X169116343Y-112800317D02*
X168973486Y-112728889D01*
X168973486Y-112728889D02*
X168902058Y-112657460D01*
X168902058Y-112657460D02*
X168830629Y-112514603D01*
X168830629Y-112514603D02*
X168830629Y-112157460D01*
X168830629Y-112157460D02*
X168902058Y-111943174D01*
X169544915Y-111300318D02*
X169544915Y-110800318D01*
X170330629Y-110586032D02*
X170330629Y-111300318D01*
X170330629Y-111300318D02*
X168830629Y-111300318D01*
X168830629Y-111300318D02*
X168830629Y-110586032D01*
X170330629Y-109943175D02*
X168830629Y-109943175D01*
X168830629Y-109943175D02*
X170330629Y-109086032D01*
X170330629Y-109086032D02*
X168830629Y-109086032D01*
X170259201Y-108443174D02*
X170330629Y-108228889D01*
X170330629Y-108228889D02*
X170330629Y-107871746D01*
X170330629Y-107871746D02*
X170259201Y-107728889D01*
X170259201Y-107728889D02*
X170187772Y-107657460D01*
X170187772Y-107657460D02*
X170044915Y-107586031D01*
X170044915Y-107586031D02*
X169902058Y-107586031D01*
X169902058Y-107586031D02*
X169759201Y-107657460D01*
X169759201Y-107657460D02*
X169687772Y-107728889D01*
X169687772Y-107728889D02*
X169616343Y-107871746D01*
X169616343Y-107871746D02*
X169544915Y-108157460D01*
X169544915Y-108157460D02*
X169473486Y-108300317D01*
X169473486Y-108300317D02*
X169402058Y-108371746D01*
X169402058Y-108371746D02*
X169259201Y-108443174D01*
X169259201Y-108443174D02*
X169116343Y-108443174D01*
X169116343Y-108443174D02*
X168973486Y-108371746D01*
X168973486Y-108371746D02*
X168902058Y-108300317D01*
X168902058Y-108300317D02*
X168830629Y-108157460D01*
X168830629Y-108157460D02*
X168830629Y-107800317D01*
X168830629Y-107800317D02*
X168902058Y-107586031D01*
X168830629Y-106657460D02*
X168830629Y-106371746D01*
X168830629Y-106371746D02*
X168902058Y-106228889D01*
X168902058Y-106228889D02*
X169044915Y-106086032D01*
X169044915Y-106086032D02*
X169330629Y-106014603D01*
X169330629Y-106014603D02*
X169830629Y-106014603D01*
X169830629Y-106014603D02*
X170116343Y-106086032D01*
X170116343Y-106086032D02*
X170259201Y-106228889D01*
X170259201Y-106228889D02*
X170330629Y-106371746D01*
X170330629Y-106371746D02*
X170330629Y-106657460D01*
X170330629Y-106657460D02*
X170259201Y-106800318D01*
X170259201Y-106800318D02*
X170116343Y-106943175D01*
X170116343Y-106943175D02*
X169830629Y-107014603D01*
X169830629Y-107014603D02*
X169330629Y-107014603D01*
X169330629Y-107014603D02*
X169044915Y-106943175D01*
X169044915Y-106943175D02*
X168902058Y-106800318D01*
X168902058Y-106800318D02*
X168830629Y-106657460D01*
X170330629Y-104514603D02*
X169616343Y-105014603D01*
X170330629Y-105371746D02*
X168830629Y-105371746D01*
X168830629Y-105371746D02*
X168830629Y-104800317D01*
X168830629Y-104800317D02*
X168902058Y-104657460D01*
X168902058Y-104657460D02*
X168973486Y-104586031D01*
X168973486Y-104586031D02*
X169116343Y-104514603D01*
X169116343Y-104514603D02*
X169330629Y-104514603D01*
X169330629Y-104514603D02*
X169473486Y-104586031D01*
X169473486Y-104586031D02*
X169544915Y-104657460D01*
X169544915Y-104657460D02*
X169616343Y-104800317D01*
X169616343Y-104800317D02*
X169616343Y-105371746D01*
X170473486Y-104228889D02*
X170473486Y-103086031D01*
X168830629Y-102871746D02*
X168830629Y-101943174D01*
X168830629Y-101943174D02*
X169402058Y-102443174D01*
X169402058Y-102443174D02*
X169402058Y-102228889D01*
X169402058Y-102228889D02*
X169473486Y-102086032D01*
X169473486Y-102086032D02*
X169544915Y-102014603D01*
X169544915Y-102014603D02*
X169687772Y-101943174D01*
X169687772Y-101943174D02*
X170044915Y-101943174D01*
X170044915Y-101943174D02*
X170187772Y-102014603D01*
X170187772Y-102014603D02*
X170259201Y-102086032D01*
X170259201Y-102086032D02*
X170330629Y-102228889D01*
X170330629Y-102228889D02*
X170330629Y-102657460D01*
X170330629Y-102657460D02*
X170259201Y-102800317D01*
X170259201Y-102800317D02*
X170187772Y-102871746D01*
X146340225Y-151385912D02*
X147197368Y-151385912D01*
X146768796Y-152885912D02*
X146768796Y-151385912D01*
X147697367Y-152100198D02*
X148197367Y-152100198D01*
X148411653Y-152885912D02*
X147697367Y-152885912D01*
X147697367Y-152885912D02*
X147697367Y-151385912D01*
X147697367Y-151385912D02*
X148411653Y-151385912D01*
X149483082Y-151385912D02*
X149483082Y-152457341D01*
X149483082Y-152457341D02*
X149411653Y-152671626D01*
X149411653Y-152671626D02*
X149268796Y-152814484D01*
X149268796Y-152814484D02*
X149054510Y-152885912D01*
X149054510Y-152885912D02*
X148911653Y-152885912D01*
X150125939Y-152457341D02*
X150840225Y-152457341D01*
X149983082Y-152885912D02*
X150483082Y-151385912D01*
X150483082Y-151385912D02*
X150983082Y-152885912D01*
X151411653Y-152814484D02*
X151625939Y-152885912D01*
X151625939Y-152885912D02*
X151983081Y-152885912D01*
X151983081Y-152885912D02*
X152125939Y-152814484D01*
X152125939Y-152814484D02*
X152197367Y-152743055D01*
X152197367Y-152743055D02*
X152268796Y-152600198D01*
X152268796Y-152600198D02*
X152268796Y-152457341D01*
X152268796Y-152457341D02*
X152197367Y-152314484D01*
X152197367Y-152314484D02*
X152125939Y-152243055D01*
X152125939Y-152243055D02*
X151983081Y-152171626D01*
X151983081Y-152171626D02*
X151697367Y-152100198D01*
X151697367Y-152100198D02*
X151554510Y-152028769D01*
X151554510Y-152028769D02*
X151483081Y-151957341D01*
X151483081Y-151957341D02*
X151411653Y-151814484D01*
X151411653Y-151814484D02*
X151411653Y-151671626D01*
X151411653Y-151671626D02*
X151483081Y-151528769D01*
X151483081Y-151528769D02*
X151554510Y-151457341D01*
X151554510Y-151457341D02*
X151697367Y-151385912D01*
X151697367Y-151385912D02*
X152054510Y-151385912D01*
X152054510Y-151385912D02*
X152268796Y-151457341D01*
X154911652Y-152885912D02*
X154411652Y-152171626D01*
X154054509Y-152885912D02*
X154054509Y-151385912D01*
X154054509Y-151385912D02*
X154625938Y-151385912D01*
X154625938Y-151385912D02*
X154768795Y-151457341D01*
X154768795Y-151457341D02*
X154840224Y-151528769D01*
X154840224Y-151528769D02*
X154911652Y-151671626D01*
X154911652Y-151671626D02*
X154911652Y-151885912D01*
X154911652Y-151885912D02*
X154840224Y-152028769D01*
X154840224Y-152028769D02*
X154768795Y-152100198D01*
X154768795Y-152100198D02*
X154625938Y-152171626D01*
X154625938Y-152171626D02*
X154054509Y-152171626D01*
X155483081Y-152457341D02*
X156197367Y-152457341D01*
X155340224Y-152885912D02*
X155840224Y-151385912D01*
X155840224Y-151385912D02*
X156340224Y-152885912D01*
X156625938Y-151385912D02*
X157125938Y-152885912D01*
X157125938Y-152885912D02*
X157625938Y-151385912D01*
X158125937Y-152885912D02*
X158125937Y-151385912D01*
X158768795Y-152814484D02*
X158983081Y-152885912D01*
X158983081Y-152885912D02*
X159340223Y-152885912D01*
X159340223Y-152885912D02*
X159483081Y-152814484D01*
X159483081Y-152814484D02*
X159554509Y-152743055D01*
X159554509Y-152743055D02*
X159625938Y-152600198D01*
X159625938Y-152600198D02*
X159625938Y-152457341D01*
X159625938Y-152457341D02*
X159554509Y-152314484D01*
X159554509Y-152314484D02*
X159483081Y-152243055D01*
X159483081Y-152243055D02*
X159340223Y-152171626D01*
X159340223Y-152171626D02*
X159054509Y-152100198D01*
X159054509Y-152100198D02*
X158911652Y-152028769D01*
X158911652Y-152028769D02*
X158840223Y-151957341D01*
X158840223Y-151957341D02*
X158768795Y-151814484D01*
X158768795Y-151814484D02*
X158768795Y-151671626D01*
X158768795Y-151671626D02*
X158840223Y-151528769D01*
X158840223Y-151528769D02*
X158911652Y-151457341D01*
X158911652Y-151457341D02*
X159054509Y-151385912D01*
X159054509Y-151385912D02*
X159411652Y-151385912D01*
X159411652Y-151385912D02*
X159625938Y-151457341D01*
X160268794Y-152885912D02*
X160268794Y-151385912D01*
X160268794Y-152100198D02*
X161125937Y-152100198D01*
X161125937Y-152885912D02*
X161125937Y-151385912D01*
X146554510Y-155300828D02*
X146554510Y-153800828D01*
X146554510Y-153800828D02*
X146911653Y-153800828D01*
X146911653Y-153800828D02*
X147125939Y-153872257D01*
X147125939Y-153872257D02*
X147268796Y-154015114D01*
X147268796Y-154015114D02*
X147340225Y-154157971D01*
X147340225Y-154157971D02*
X147411653Y-154443685D01*
X147411653Y-154443685D02*
X147411653Y-154657971D01*
X147411653Y-154657971D02*
X147340225Y-154943685D01*
X147340225Y-154943685D02*
X147268796Y-155086542D01*
X147268796Y-155086542D02*
X147125939Y-155229400D01*
X147125939Y-155229400D02*
X146911653Y-155300828D01*
X146911653Y-155300828D02*
X146554510Y-155300828D01*
X147983082Y-154872257D02*
X148697368Y-154872257D01*
X147840225Y-155300828D02*
X148340225Y-153800828D01*
X148340225Y-153800828D02*
X148840225Y-155300828D01*
X149340224Y-155300828D02*
X149340224Y-153800828D01*
X149340224Y-153800828D02*
X149840224Y-154872257D01*
X149840224Y-154872257D02*
X150340224Y-153800828D01*
X150340224Y-153800828D02*
X150340224Y-155300828D01*
X151054510Y-155300828D02*
X151054510Y-153800828D01*
X151697368Y-154872257D02*
X152411654Y-154872257D01*
X151554511Y-155300828D02*
X152054511Y-153800828D01*
X152054511Y-153800828D02*
X152554511Y-155300828D01*
X153054510Y-155300828D02*
X153054510Y-153800828D01*
X153054510Y-153800828D02*
X153911653Y-155300828D01*
X153911653Y-155300828D02*
X153911653Y-153800828D01*
X155768796Y-155300828D02*
X155768796Y-153800828D01*
X155768796Y-154515114D02*
X156625939Y-154515114D01*
X156625939Y-155300828D02*
X156625939Y-153800828D01*
X157340225Y-153800828D02*
X157340225Y-155015114D01*
X157340225Y-155015114D02*
X157411654Y-155157971D01*
X157411654Y-155157971D02*
X157483083Y-155229400D01*
X157483083Y-155229400D02*
X157625940Y-155300828D01*
X157625940Y-155300828D02*
X157911654Y-155300828D01*
X157911654Y-155300828D02*
X158054511Y-155229400D01*
X158054511Y-155229400D02*
X158125940Y-155157971D01*
X158125940Y-155157971D02*
X158197368Y-155015114D01*
X158197368Y-155015114D02*
X158197368Y-153800828D01*
X158840226Y-155229400D02*
X159054512Y-155300828D01*
X159054512Y-155300828D02*
X159411654Y-155300828D01*
X159411654Y-155300828D02*
X159554512Y-155229400D01*
X159554512Y-155229400D02*
X159625940Y-155157971D01*
X159625940Y-155157971D02*
X159697369Y-155015114D01*
X159697369Y-155015114D02*
X159697369Y-154872257D01*
X159697369Y-154872257D02*
X159625940Y-154729400D01*
X159625940Y-154729400D02*
X159554512Y-154657971D01*
X159554512Y-154657971D02*
X159411654Y-154586542D01*
X159411654Y-154586542D02*
X159125940Y-154515114D01*
X159125940Y-154515114D02*
X158983083Y-154443685D01*
X158983083Y-154443685D02*
X158911654Y-154372257D01*
X158911654Y-154372257D02*
X158840226Y-154229400D01*
X158840226Y-154229400D02*
X158840226Y-154086542D01*
X158840226Y-154086542D02*
X158911654Y-153943685D01*
X158911654Y-153943685D02*
X158983083Y-153872257D01*
X158983083Y-153872257D02*
X159125940Y-153800828D01*
X159125940Y-153800828D02*
X159483083Y-153800828D01*
X159483083Y-153800828D02*
X159697369Y-153872257D01*
X160340225Y-155300828D02*
X160340225Y-153800828D01*
X161197368Y-155300828D02*
X160554511Y-154443685D01*
X161197368Y-153800828D02*
X160340225Y-154657971D01*
X161840225Y-155300828D02*
X161840225Y-153800828D01*
X163411654Y-155157971D02*
X163340226Y-155229400D01*
X163340226Y-155229400D02*
X163125940Y-155300828D01*
X163125940Y-155300828D02*
X162983083Y-155300828D01*
X162983083Y-155300828D02*
X162768797Y-155229400D01*
X162768797Y-155229400D02*
X162625940Y-155086542D01*
X162625940Y-155086542D02*
X162554511Y-154943685D01*
X162554511Y-154943685D02*
X162483083Y-154657971D01*
X162483083Y-154657971D02*
X162483083Y-154443685D01*
X162483083Y-154443685D02*
X162554511Y-154157971D01*
X162554511Y-154157971D02*
X162625940Y-154015114D01*
X162625940Y-154015114D02*
X162768797Y-153872257D01*
X162768797Y-153872257D02*
X162983083Y-153800828D01*
X162983083Y-153800828D02*
X163125940Y-153800828D01*
X163125940Y-153800828D02*
X163340226Y-153872257D01*
X163340226Y-153872257D02*
X163411654Y-153943685D01*
X110554510Y-143600198D02*
X111054510Y-143600198D01*
X111268796Y-144385912D02*
X110554510Y-144385912D01*
X110554510Y-144385912D02*
X110554510Y-142885912D01*
X110554510Y-142885912D02*
X111268796Y-142885912D01*
X112768796Y-144243055D02*
X112697368Y-144314484D01*
X112697368Y-144314484D02*
X112483082Y-144385912D01*
X112483082Y-144385912D02*
X112340225Y-144385912D01*
X112340225Y-144385912D02*
X112125939Y-144314484D01*
X112125939Y-144314484D02*
X111983082Y-144171626D01*
X111983082Y-144171626D02*
X111911653Y-144028769D01*
X111911653Y-144028769D02*
X111840225Y-143743055D01*
X111840225Y-143743055D02*
X111840225Y-143528769D01*
X111840225Y-143528769D02*
X111911653Y-143243055D01*
X111911653Y-143243055D02*
X111983082Y-143100198D01*
X111983082Y-143100198D02*
X112125939Y-142957341D01*
X112125939Y-142957341D02*
X112340225Y-142885912D01*
X112340225Y-142885912D02*
X112483082Y-142885912D01*
X112483082Y-142885912D02*
X112697368Y-142957341D01*
X112697368Y-142957341D02*
X112768796Y-143028769D01*
X113411653Y-143600198D02*
X113911653Y-143600198D01*
X114125939Y-144385912D02*
X113411653Y-144385912D01*
X113411653Y-144385912D02*
X113411653Y-142885912D01*
X113411653Y-142885912D02*
X114125939Y-142885912D01*
X116554511Y-143385912D02*
X116554511Y-144385912D01*
X116197368Y-142814484D02*
X115840225Y-143885912D01*
X115840225Y-143885912D02*
X116768796Y-143885912D01*
X117411653Y-144385912D02*
X117697367Y-144385912D01*
X117697367Y-144385912D02*
X117840224Y-144314484D01*
X117840224Y-144314484D02*
X117911653Y-144243055D01*
X117911653Y-144243055D02*
X118054510Y-144028769D01*
X118054510Y-144028769D02*
X118125939Y-143743055D01*
X118125939Y-143743055D02*
X118125939Y-143171626D01*
X118125939Y-143171626D02*
X118054510Y-143028769D01*
X118054510Y-143028769D02*
X117983082Y-142957341D01*
X117983082Y-142957341D02*
X117840224Y-142885912D01*
X117840224Y-142885912D02*
X117554510Y-142885912D01*
X117554510Y-142885912D02*
X117411653Y-142957341D01*
X117411653Y-142957341D02*
X117340224Y-143028769D01*
X117340224Y-143028769D02*
X117268796Y-143171626D01*
X117268796Y-143171626D02*
X117268796Y-143528769D01*
X117268796Y-143528769D02*
X117340224Y-143671626D01*
X117340224Y-143671626D02*
X117411653Y-143743055D01*
X117411653Y-143743055D02*
X117554510Y-143814484D01*
X117554510Y-143814484D02*
X117840224Y-143814484D01*
X117840224Y-143814484D02*
X117983082Y-143743055D01*
X117983082Y-143743055D02*
X118054510Y-143671626D01*
X118054510Y-143671626D02*
X118125939Y-143528769D01*
X119054510Y-142885912D02*
X119197367Y-142885912D01*
X119197367Y-142885912D02*
X119340224Y-142957341D01*
X119340224Y-142957341D02*
X119411653Y-143028769D01*
X119411653Y-143028769D02*
X119483081Y-143171626D01*
X119483081Y-143171626D02*
X119554510Y-143457341D01*
X119554510Y-143457341D02*
X119554510Y-143814484D01*
X119554510Y-143814484D02*
X119483081Y-144100198D01*
X119483081Y-144100198D02*
X119411653Y-144243055D01*
X119411653Y-144243055D02*
X119340224Y-144314484D01*
X119340224Y-144314484D02*
X119197367Y-144385912D01*
X119197367Y-144385912D02*
X119054510Y-144385912D01*
X119054510Y-144385912D02*
X118911653Y-144314484D01*
X118911653Y-144314484D02*
X118840224Y-144243055D01*
X118840224Y-144243055D02*
X118768795Y-144100198D01*
X118768795Y-144100198D02*
X118697367Y-143814484D01*
X118697367Y-143814484D02*
X118697367Y-143457341D01*
X118697367Y-143457341D02*
X118768795Y-143171626D01*
X118768795Y-143171626D02*
X118840224Y-143028769D01*
X118840224Y-143028769D02*
X118911653Y-142957341D01*
X118911653Y-142957341D02*
X119054510Y-142885912D01*
X121268795Y-142814484D02*
X119983081Y-144743055D01*
X122554510Y-144385912D02*
X121697367Y-144385912D01*
X122125938Y-144385912D02*
X122125938Y-142885912D01*
X122125938Y-142885912D02*
X121983081Y-143100198D01*
X121983081Y-143100198D02*
X121840224Y-143243055D01*
X121840224Y-143243055D02*
X121697367Y-143314484D01*
X125197366Y-144243055D02*
X125125938Y-144314484D01*
X125125938Y-144314484D02*
X124911652Y-144385912D01*
X124911652Y-144385912D02*
X124768795Y-144385912D01*
X124768795Y-144385912D02*
X124554509Y-144314484D01*
X124554509Y-144314484D02*
X124411652Y-144171626D01*
X124411652Y-144171626D02*
X124340223Y-144028769D01*
X124340223Y-144028769D02*
X124268795Y-143743055D01*
X124268795Y-143743055D02*
X124268795Y-143528769D01*
X124268795Y-143528769D02*
X124340223Y-143243055D01*
X124340223Y-143243055D02*
X124411652Y-143100198D01*
X124411652Y-143100198D02*
X124554509Y-142957341D01*
X124554509Y-142957341D02*
X124768795Y-142885912D01*
X124768795Y-142885912D02*
X124911652Y-142885912D01*
X124911652Y-142885912D02*
X125125938Y-142957341D01*
X125125938Y-142957341D02*
X125197366Y-143028769D01*
X125768795Y-143957341D02*
X126483081Y-143957341D01*
X125625938Y-144385912D02*
X126125938Y-142885912D01*
X126125938Y-142885912D02*
X126625938Y-144385912D01*
X127125937Y-144385912D02*
X127125937Y-142885912D01*
X127125937Y-142885912D02*
X127697366Y-142885912D01*
X127697366Y-142885912D02*
X127840223Y-142957341D01*
X127840223Y-142957341D02*
X127911652Y-143028769D01*
X127911652Y-143028769D02*
X127983080Y-143171626D01*
X127983080Y-143171626D02*
X127983080Y-143385912D01*
X127983080Y-143385912D02*
X127911652Y-143528769D01*
X127911652Y-143528769D02*
X127840223Y-143600198D01*
X127840223Y-143600198D02*
X127697366Y-143671626D01*
X127697366Y-143671626D02*
X127125937Y-143671626D01*
X128554509Y-144314484D02*
X128768795Y-144385912D01*
X128768795Y-144385912D02*
X129125937Y-144385912D01*
X129125937Y-144385912D02*
X129268795Y-144314484D01*
X129268795Y-144314484D02*
X129340223Y-144243055D01*
X129340223Y-144243055D02*
X129411652Y-144100198D01*
X129411652Y-144100198D02*
X129411652Y-143957341D01*
X129411652Y-143957341D02*
X129340223Y-143814484D01*
X129340223Y-143814484D02*
X129268795Y-143743055D01*
X129268795Y-143743055D02*
X129125937Y-143671626D01*
X129125937Y-143671626D02*
X128840223Y-143600198D01*
X128840223Y-143600198D02*
X128697366Y-143528769D01*
X128697366Y-143528769D02*
X128625937Y-143457341D01*
X128625937Y-143457341D02*
X128554509Y-143314484D01*
X128554509Y-143314484D02*
X128554509Y-143171626D01*
X128554509Y-143171626D02*
X128625937Y-143028769D01*
X128625937Y-143028769D02*
X128697366Y-142957341D01*
X128697366Y-142957341D02*
X128840223Y-142885912D01*
X128840223Y-142885912D02*
X129197366Y-142885912D01*
X129197366Y-142885912D02*
X129411652Y-142957341D01*
X129840223Y-142885912D02*
X130697366Y-142885912D01*
X130268794Y-144385912D02*
X130268794Y-142885912D01*
X131483080Y-142885912D02*
X131768794Y-142885912D01*
X131768794Y-142885912D02*
X131911651Y-142957341D01*
X131911651Y-142957341D02*
X132054508Y-143100198D01*
X132054508Y-143100198D02*
X132125937Y-143385912D01*
X132125937Y-143385912D02*
X132125937Y-143885912D01*
X132125937Y-143885912D02*
X132054508Y-144171626D01*
X132054508Y-144171626D02*
X131911651Y-144314484D01*
X131911651Y-144314484D02*
X131768794Y-144385912D01*
X131768794Y-144385912D02*
X131483080Y-144385912D01*
X131483080Y-144385912D02*
X131340223Y-144314484D01*
X131340223Y-144314484D02*
X131197365Y-144171626D01*
X131197365Y-144171626D02*
X131125937Y-143885912D01*
X131125937Y-143885912D02*
X131125937Y-143385912D01*
X131125937Y-143385912D02*
X131197365Y-143100198D01*
X131197365Y-143100198D02*
X131340223Y-142957341D01*
X131340223Y-142957341D02*
X131483080Y-142885912D01*
X132768794Y-144385912D02*
X132768794Y-142885912D01*
X132768794Y-142885912D02*
X133625937Y-144385912D01*
X133625937Y-144385912D02*
X133625937Y-142885912D01*
X134340223Y-143600198D02*
X134840223Y-143600198D01*
X135054509Y-144385912D02*
X134340223Y-144385912D01*
X134340223Y-144385912D02*
X134340223Y-142885912D01*
X134340223Y-142885912D02*
X135054509Y-142885912D01*
X136768795Y-144314484D02*
X136983081Y-144385912D01*
X136983081Y-144385912D02*
X137340223Y-144385912D01*
X137340223Y-144385912D02*
X137483081Y-144314484D01*
X137483081Y-144314484D02*
X137554509Y-144243055D01*
X137554509Y-144243055D02*
X137625938Y-144100198D01*
X137625938Y-144100198D02*
X137625938Y-143957341D01*
X137625938Y-143957341D02*
X137554509Y-143814484D01*
X137554509Y-143814484D02*
X137483081Y-143743055D01*
X137483081Y-143743055D02*
X137340223Y-143671626D01*
X137340223Y-143671626D02*
X137054509Y-143600198D01*
X137054509Y-143600198D02*
X136911652Y-143528769D01*
X136911652Y-143528769D02*
X136840223Y-143457341D01*
X136840223Y-143457341D02*
X136768795Y-143314484D01*
X136768795Y-143314484D02*
X136768795Y-143171626D01*
X136768795Y-143171626D02*
X136840223Y-143028769D01*
X136840223Y-143028769D02*
X136911652Y-142957341D01*
X136911652Y-142957341D02*
X137054509Y-142885912D01*
X137054509Y-142885912D02*
X137411652Y-142885912D01*
X137411652Y-142885912D02*
X137625938Y-142957341D01*
X138197366Y-144314484D02*
X138411652Y-144385912D01*
X138411652Y-144385912D02*
X138768794Y-144385912D01*
X138768794Y-144385912D02*
X138911652Y-144314484D01*
X138911652Y-144314484D02*
X138983080Y-144243055D01*
X138983080Y-144243055D02*
X139054509Y-144100198D01*
X139054509Y-144100198D02*
X139054509Y-143957341D01*
X139054509Y-143957341D02*
X138983080Y-143814484D01*
X138983080Y-143814484D02*
X138911652Y-143743055D01*
X138911652Y-143743055D02*
X138768794Y-143671626D01*
X138768794Y-143671626D02*
X138483080Y-143600198D01*
X138483080Y-143600198D02*
X138340223Y-143528769D01*
X138340223Y-143528769D02*
X138268794Y-143457341D01*
X138268794Y-143457341D02*
X138197366Y-143314484D01*
X138197366Y-143314484D02*
X138197366Y-143171626D01*
X138197366Y-143171626D02*
X138268794Y-143028769D01*
X138268794Y-143028769D02*
X138340223Y-142957341D01*
X138340223Y-142957341D02*
X138483080Y-142885912D01*
X138483080Y-142885912D02*
X138840223Y-142885912D01*
X138840223Y-142885912D02*
X139054509Y-142957341D01*
X139697365Y-142885912D02*
X139697365Y-144100198D01*
X139697365Y-144100198D02*
X139768794Y-144243055D01*
X139768794Y-144243055D02*
X139840223Y-144314484D01*
X139840223Y-144314484D02*
X139983080Y-144385912D01*
X139983080Y-144385912D02*
X140268794Y-144385912D01*
X140268794Y-144385912D02*
X140411651Y-144314484D01*
X140411651Y-144314484D02*
X140483080Y-144243055D01*
X140483080Y-144243055D02*
X140554508Y-144100198D01*
X140554508Y-144100198D02*
X140554508Y-142885912D01*
X141983080Y-144385912D02*
X141268794Y-144385912D01*
X141268794Y-144385912D02*
X141268794Y-142885912D01*
X142483080Y-144385912D02*
X142483080Y-142885912D01*
X142483080Y-142885912D02*
X143054509Y-142885912D01*
X143054509Y-142885912D02*
X143197366Y-142957341D01*
X143197366Y-142957341D02*
X143268795Y-143028769D01*
X143268795Y-143028769D02*
X143340223Y-143171626D01*
X143340223Y-143171626D02*
X143340223Y-143385912D01*
X143340223Y-143385912D02*
X143268795Y-143528769D01*
X143268795Y-143528769D02*
X143197366Y-143600198D01*
X143197366Y-143600198D02*
X143054509Y-143671626D01*
X143054509Y-143671626D02*
X142483080Y-143671626D01*
X143983080Y-143600198D02*
X144483080Y-143600198D01*
X144697366Y-144385912D02*
X143983080Y-144385912D01*
X143983080Y-144385912D02*
X143983080Y-142885912D01*
X143983080Y-142885912D02*
X144697366Y-142885912D01*
X145340223Y-144385912D02*
X145340223Y-142885912D01*
X145340223Y-142885912D02*
X145911652Y-142885912D01*
X145911652Y-142885912D02*
X146054509Y-142957341D01*
X146054509Y-142957341D02*
X146125938Y-143028769D01*
X146125938Y-143028769D02*
X146197366Y-143171626D01*
X146197366Y-143171626D02*
X146197366Y-143385912D01*
X146197366Y-143385912D02*
X146125938Y-143528769D01*
X146125938Y-143528769D02*
X146054509Y-143600198D01*
X146054509Y-143600198D02*
X145911652Y-143671626D01*
X145911652Y-143671626D02*
X145340223Y-143671626D01*
X147983080Y-144385912D02*
X147983080Y-142885912D01*
X147983080Y-142885912D02*
X148340223Y-142885912D01*
X148340223Y-142885912D02*
X148554509Y-142957341D01*
X148554509Y-142957341D02*
X148697366Y-143100198D01*
X148697366Y-143100198D02*
X148768795Y-143243055D01*
X148768795Y-143243055D02*
X148840223Y-143528769D01*
X148840223Y-143528769D02*
X148840223Y-143743055D01*
X148840223Y-143743055D02*
X148768795Y-144028769D01*
X148768795Y-144028769D02*
X148697366Y-144171626D01*
X148697366Y-144171626D02*
X148554509Y-144314484D01*
X148554509Y-144314484D02*
X148340223Y-144385912D01*
X148340223Y-144385912D02*
X147983080Y-144385912D01*
X149411652Y-143957341D02*
X150125938Y-143957341D01*
X149268795Y-144385912D02*
X149768795Y-142885912D01*
X149768795Y-142885912D02*
X150268795Y-144385912D01*
X150554509Y-142885912D02*
X151411652Y-142885912D01*
X150983080Y-144385912D02*
X150983080Y-142885912D01*
X151840223Y-143957341D02*
X152554509Y-143957341D01*
X151697366Y-144385912D02*
X152197366Y-142885912D01*
X152197366Y-142885912D02*
X152697366Y-144385912D01*
X155054508Y-144385912D02*
X154340222Y-144385912D01*
X154340222Y-144385912D02*
X154340222Y-142885912D01*
X155840223Y-142885912D02*
X156125937Y-142885912D01*
X156125937Y-142885912D02*
X156268794Y-142957341D01*
X156268794Y-142957341D02*
X156411651Y-143100198D01*
X156411651Y-143100198D02*
X156483080Y-143385912D01*
X156483080Y-143385912D02*
X156483080Y-143885912D01*
X156483080Y-143885912D02*
X156411651Y-144171626D01*
X156411651Y-144171626D02*
X156268794Y-144314484D01*
X156268794Y-144314484D02*
X156125937Y-144385912D01*
X156125937Y-144385912D02*
X155840223Y-144385912D01*
X155840223Y-144385912D02*
X155697366Y-144314484D01*
X155697366Y-144314484D02*
X155554508Y-144171626D01*
X155554508Y-144171626D02*
X155483080Y-143885912D01*
X155483080Y-143885912D02*
X155483080Y-143385912D01*
X155483080Y-143385912D02*
X155554508Y-143100198D01*
X155554508Y-143100198D02*
X155697366Y-142957341D01*
X155697366Y-142957341D02*
X155840223Y-142885912D01*
X157911652Y-142957341D02*
X157768795Y-142885912D01*
X157768795Y-142885912D02*
X157554509Y-142885912D01*
X157554509Y-142885912D02*
X157340223Y-142957341D01*
X157340223Y-142957341D02*
X157197366Y-143100198D01*
X157197366Y-143100198D02*
X157125937Y-143243055D01*
X157125937Y-143243055D02*
X157054509Y-143528769D01*
X157054509Y-143528769D02*
X157054509Y-143743055D01*
X157054509Y-143743055D02*
X157125937Y-144028769D01*
X157125937Y-144028769D02*
X157197366Y-144171626D01*
X157197366Y-144171626D02*
X157340223Y-144314484D01*
X157340223Y-144314484D02*
X157554509Y-144385912D01*
X157554509Y-144385912D02*
X157697366Y-144385912D01*
X157697366Y-144385912D02*
X157911652Y-144314484D01*
X157911652Y-144314484D02*
X157983080Y-144243055D01*
X157983080Y-144243055D02*
X157983080Y-143743055D01*
X157983080Y-143743055D02*
X157697366Y-143743055D01*
X159411652Y-142957341D02*
X159268795Y-142885912D01*
X159268795Y-142885912D02*
X159054509Y-142885912D01*
X159054509Y-142885912D02*
X158840223Y-142957341D01*
X158840223Y-142957341D02*
X158697366Y-143100198D01*
X158697366Y-143100198D02*
X158625937Y-143243055D01*
X158625937Y-143243055D02*
X158554509Y-143528769D01*
X158554509Y-143528769D02*
X158554509Y-143743055D01*
X158554509Y-143743055D02*
X158625937Y-144028769D01*
X158625937Y-144028769D02*
X158697366Y-144171626D01*
X158697366Y-144171626D02*
X158840223Y-144314484D01*
X158840223Y-144314484D02*
X159054509Y-144385912D01*
X159054509Y-144385912D02*
X159197366Y-144385912D01*
X159197366Y-144385912D02*
X159411652Y-144314484D01*
X159411652Y-144314484D02*
X159483080Y-144243055D01*
X159483080Y-144243055D02*
X159483080Y-143743055D01*
X159483080Y-143743055D02*
X159197366Y-143743055D01*
X160125937Y-143600198D02*
X160625937Y-143600198D01*
X160840223Y-144385912D02*
X160125937Y-144385912D01*
X160125937Y-144385912D02*
X160125937Y-142885912D01*
X160125937Y-142885912D02*
X160840223Y-142885912D01*
X162340223Y-144385912D02*
X161840223Y-143671626D01*
X161483080Y-144385912D02*
X161483080Y-142885912D01*
X161483080Y-142885912D02*
X162054509Y-142885912D01*
X162054509Y-142885912D02*
X162197366Y-142957341D01*
X162197366Y-142957341D02*
X162268795Y-143028769D01*
X162268795Y-143028769D02*
X162340223Y-143171626D01*
X162340223Y-143171626D02*
X162340223Y-143385912D01*
X162340223Y-143385912D02*
X162268795Y-143528769D01*
X162268795Y-143528769D02*
X162197366Y-143600198D01*
X162197366Y-143600198D02*
X162054509Y-143671626D01*
X162054509Y-143671626D02*
X161483080Y-143671626D01*
X122697367Y-146015114D02*
X122911653Y-146086542D01*
X122911653Y-146086542D02*
X122983082Y-146157971D01*
X122983082Y-146157971D02*
X123054510Y-146300828D01*
X123054510Y-146300828D02*
X123054510Y-146515114D01*
X123054510Y-146515114D02*
X122983082Y-146657971D01*
X122983082Y-146657971D02*
X122911653Y-146729400D01*
X122911653Y-146729400D02*
X122768796Y-146800828D01*
X122768796Y-146800828D02*
X122197367Y-146800828D01*
X122197367Y-146800828D02*
X122197367Y-145300828D01*
X122197367Y-145300828D02*
X122697367Y-145300828D01*
X122697367Y-145300828D02*
X122840225Y-145372257D01*
X122840225Y-145372257D02*
X122911653Y-145443685D01*
X122911653Y-145443685D02*
X122983082Y-145586542D01*
X122983082Y-145586542D02*
X122983082Y-145729400D01*
X122983082Y-145729400D02*
X122911653Y-145872257D01*
X122911653Y-145872257D02*
X122840225Y-145943685D01*
X122840225Y-145943685D02*
X122697367Y-146015114D01*
X122697367Y-146015114D02*
X122197367Y-146015114D01*
X124554510Y-146800828D02*
X124054510Y-146086542D01*
X123697367Y-146800828D02*
X123697367Y-145300828D01*
X123697367Y-145300828D02*
X124268796Y-145300828D01*
X124268796Y-145300828D02*
X124411653Y-145372257D01*
X124411653Y-145372257D02*
X124483082Y-145443685D01*
X124483082Y-145443685D02*
X124554510Y-145586542D01*
X124554510Y-145586542D02*
X124554510Y-145800828D01*
X124554510Y-145800828D02*
X124483082Y-145943685D01*
X124483082Y-145943685D02*
X124411653Y-146015114D01*
X124411653Y-146015114D02*
X124268796Y-146086542D01*
X124268796Y-146086542D02*
X123697367Y-146086542D01*
X125197367Y-146800828D02*
X125197367Y-145300828D01*
X125911653Y-146800828D02*
X125911653Y-145300828D01*
X125911653Y-145300828D02*
X126268796Y-145300828D01*
X126268796Y-145300828D02*
X126483082Y-145372257D01*
X126483082Y-145372257D02*
X126625939Y-145515114D01*
X126625939Y-145515114D02*
X126697368Y-145657971D01*
X126697368Y-145657971D02*
X126768796Y-145943685D01*
X126768796Y-145943685D02*
X126768796Y-146157971D01*
X126768796Y-146157971D02*
X126697368Y-146443685D01*
X126697368Y-146443685D02*
X126625939Y-146586542D01*
X126625939Y-146586542D02*
X126483082Y-146729400D01*
X126483082Y-146729400D02*
X126268796Y-146800828D01*
X126268796Y-146800828D02*
X125911653Y-146800828D01*
X128197368Y-145372257D02*
X128054511Y-145300828D01*
X128054511Y-145300828D02*
X127840225Y-145300828D01*
X127840225Y-145300828D02*
X127625939Y-145372257D01*
X127625939Y-145372257D02*
X127483082Y-145515114D01*
X127483082Y-145515114D02*
X127411653Y-145657971D01*
X127411653Y-145657971D02*
X127340225Y-145943685D01*
X127340225Y-145943685D02*
X127340225Y-146157971D01*
X127340225Y-146157971D02*
X127411653Y-146443685D01*
X127411653Y-146443685D02*
X127483082Y-146586542D01*
X127483082Y-146586542D02*
X127625939Y-146729400D01*
X127625939Y-146729400D02*
X127840225Y-146800828D01*
X127840225Y-146800828D02*
X127983082Y-146800828D01*
X127983082Y-146800828D02*
X128197368Y-146729400D01*
X128197368Y-146729400D02*
X128268796Y-146657971D01*
X128268796Y-146657971D02*
X128268796Y-146157971D01*
X128268796Y-146157971D02*
X127983082Y-146157971D01*
X128911653Y-146015114D02*
X129411653Y-146015114D01*
X129625939Y-146800828D02*
X128911653Y-146800828D01*
X128911653Y-146800828D02*
X128911653Y-145300828D01*
X128911653Y-145300828D02*
X129625939Y-145300828D01*
X131911653Y-146015114D02*
X132125939Y-146086542D01*
X132125939Y-146086542D02*
X132197368Y-146157971D01*
X132197368Y-146157971D02*
X132268796Y-146300828D01*
X132268796Y-146300828D02*
X132268796Y-146515114D01*
X132268796Y-146515114D02*
X132197368Y-146657971D01*
X132197368Y-146657971D02*
X132125939Y-146729400D01*
X132125939Y-146729400D02*
X131983082Y-146800828D01*
X131983082Y-146800828D02*
X131411653Y-146800828D01*
X131411653Y-146800828D02*
X131411653Y-145300828D01*
X131411653Y-145300828D02*
X131911653Y-145300828D01*
X131911653Y-145300828D02*
X132054511Y-145372257D01*
X132054511Y-145372257D02*
X132125939Y-145443685D01*
X132125939Y-145443685D02*
X132197368Y-145586542D01*
X132197368Y-145586542D02*
X132197368Y-145729400D01*
X132197368Y-145729400D02*
X132125939Y-145872257D01*
X132125939Y-145872257D02*
X132054511Y-145943685D01*
X132054511Y-145943685D02*
X131911653Y-146015114D01*
X131911653Y-146015114D02*
X131411653Y-146015114D01*
X132840225Y-146372257D02*
X133554511Y-146372257D01*
X132697368Y-146800828D02*
X133197368Y-145300828D01*
X133197368Y-145300828D02*
X133697368Y-146800828D01*
X134125939Y-146729400D02*
X134340225Y-146800828D01*
X134340225Y-146800828D02*
X134697367Y-146800828D01*
X134697367Y-146800828D02*
X134840225Y-146729400D01*
X134840225Y-146729400D02*
X134911653Y-146657971D01*
X134911653Y-146657971D02*
X134983082Y-146515114D01*
X134983082Y-146515114D02*
X134983082Y-146372257D01*
X134983082Y-146372257D02*
X134911653Y-146229400D01*
X134911653Y-146229400D02*
X134840225Y-146157971D01*
X134840225Y-146157971D02*
X134697367Y-146086542D01*
X134697367Y-146086542D02*
X134411653Y-146015114D01*
X134411653Y-146015114D02*
X134268796Y-145943685D01*
X134268796Y-145943685D02*
X134197367Y-145872257D01*
X134197367Y-145872257D02*
X134125939Y-145729400D01*
X134125939Y-145729400D02*
X134125939Y-145586542D01*
X134125939Y-145586542D02*
X134197367Y-145443685D01*
X134197367Y-145443685D02*
X134268796Y-145372257D01*
X134268796Y-145372257D02*
X134411653Y-145300828D01*
X134411653Y-145300828D02*
X134768796Y-145300828D01*
X134768796Y-145300828D02*
X134983082Y-145372257D01*
X135625938Y-146800828D02*
X135625938Y-145300828D01*
X137197367Y-146657971D02*
X137125939Y-146729400D01*
X137125939Y-146729400D02*
X136911653Y-146800828D01*
X136911653Y-146800828D02*
X136768796Y-146800828D01*
X136768796Y-146800828D02*
X136554510Y-146729400D01*
X136554510Y-146729400D02*
X136411653Y-146586542D01*
X136411653Y-146586542D02*
X136340224Y-146443685D01*
X136340224Y-146443685D02*
X136268796Y-146157971D01*
X136268796Y-146157971D02*
X136268796Y-145943685D01*
X136268796Y-145943685D02*
X136340224Y-145657971D01*
X136340224Y-145657971D02*
X136411653Y-145515114D01*
X136411653Y-145515114D02*
X136554510Y-145372257D01*
X136554510Y-145372257D02*
X136768796Y-145300828D01*
X136768796Y-145300828D02*
X136911653Y-145300828D01*
X136911653Y-145300828D02*
X137125939Y-145372257D01*
X137125939Y-145372257D02*
X137197367Y-145443685D01*
X138911653Y-146729400D02*
X139125939Y-146800828D01*
X139125939Y-146800828D02*
X139483081Y-146800828D01*
X139483081Y-146800828D02*
X139625939Y-146729400D01*
X139625939Y-146729400D02*
X139697367Y-146657971D01*
X139697367Y-146657971D02*
X139768796Y-146515114D01*
X139768796Y-146515114D02*
X139768796Y-146372257D01*
X139768796Y-146372257D02*
X139697367Y-146229400D01*
X139697367Y-146229400D02*
X139625939Y-146157971D01*
X139625939Y-146157971D02*
X139483081Y-146086542D01*
X139483081Y-146086542D02*
X139197367Y-146015114D01*
X139197367Y-146015114D02*
X139054510Y-145943685D01*
X139054510Y-145943685D02*
X138983081Y-145872257D01*
X138983081Y-145872257D02*
X138911653Y-145729400D01*
X138911653Y-145729400D02*
X138911653Y-145586542D01*
X138911653Y-145586542D02*
X138983081Y-145443685D01*
X138983081Y-145443685D02*
X139054510Y-145372257D01*
X139054510Y-145372257D02*
X139197367Y-145300828D01*
X139197367Y-145300828D02*
X139554510Y-145300828D01*
X139554510Y-145300828D02*
X139768796Y-145372257D01*
X140697367Y-145300828D02*
X140983081Y-145300828D01*
X140983081Y-145300828D02*
X141125938Y-145372257D01*
X141125938Y-145372257D02*
X141268795Y-145515114D01*
X141268795Y-145515114D02*
X141340224Y-145800828D01*
X141340224Y-145800828D02*
X141340224Y-146300828D01*
X141340224Y-146300828D02*
X141268795Y-146586542D01*
X141268795Y-146586542D02*
X141125938Y-146729400D01*
X141125938Y-146729400D02*
X140983081Y-146800828D01*
X140983081Y-146800828D02*
X140697367Y-146800828D01*
X140697367Y-146800828D02*
X140554510Y-146729400D01*
X140554510Y-146729400D02*
X140411652Y-146586542D01*
X140411652Y-146586542D02*
X140340224Y-146300828D01*
X140340224Y-146300828D02*
X140340224Y-145800828D01*
X140340224Y-145800828D02*
X140411652Y-145515114D01*
X140411652Y-145515114D02*
X140554510Y-145372257D01*
X140554510Y-145372257D02*
X140697367Y-145300828D01*
X142697367Y-146800828D02*
X141983081Y-146800828D01*
X141983081Y-146800828D02*
X141983081Y-145300828D01*
X143197367Y-145300828D02*
X143197367Y-146515114D01*
X143197367Y-146515114D02*
X143268796Y-146657971D01*
X143268796Y-146657971D02*
X143340225Y-146729400D01*
X143340225Y-146729400D02*
X143483082Y-146800828D01*
X143483082Y-146800828D02*
X143768796Y-146800828D01*
X143768796Y-146800828D02*
X143911653Y-146729400D01*
X143911653Y-146729400D02*
X143983082Y-146657971D01*
X143983082Y-146657971D02*
X144054510Y-146515114D01*
X144054510Y-146515114D02*
X144054510Y-145300828D01*
X144554511Y-145300828D02*
X145411654Y-145300828D01*
X144983082Y-146800828D02*
X144983082Y-145300828D01*
X145911653Y-146800828D02*
X145911653Y-145300828D01*
X146911654Y-145300828D02*
X147197368Y-145300828D01*
X147197368Y-145300828D02*
X147340225Y-145372257D01*
X147340225Y-145372257D02*
X147483082Y-145515114D01*
X147483082Y-145515114D02*
X147554511Y-145800828D01*
X147554511Y-145800828D02*
X147554511Y-146300828D01*
X147554511Y-146300828D02*
X147483082Y-146586542D01*
X147483082Y-146586542D02*
X147340225Y-146729400D01*
X147340225Y-146729400D02*
X147197368Y-146800828D01*
X147197368Y-146800828D02*
X146911654Y-146800828D01*
X146911654Y-146800828D02*
X146768797Y-146729400D01*
X146768797Y-146729400D02*
X146625939Y-146586542D01*
X146625939Y-146586542D02*
X146554511Y-146300828D01*
X146554511Y-146300828D02*
X146554511Y-145800828D01*
X146554511Y-145800828D02*
X146625939Y-145515114D01*
X146625939Y-145515114D02*
X146768797Y-145372257D01*
X146768797Y-145372257D02*
X146911654Y-145300828D01*
X148197368Y-146800828D02*
X148197368Y-145300828D01*
X148197368Y-145300828D02*
X149054511Y-146800828D01*
X149054511Y-146800828D02*
X149054511Y-145300828D01*
X149697369Y-146729400D02*
X149911655Y-146800828D01*
X149911655Y-146800828D02*
X150268797Y-146800828D01*
X150268797Y-146800828D02*
X150411655Y-146729400D01*
X150411655Y-146729400D02*
X150483083Y-146657971D01*
X150483083Y-146657971D02*
X150554512Y-146515114D01*
X150554512Y-146515114D02*
X150554512Y-146372257D01*
X150554512Y-146372257D02*
X150483083Y-146229400D01*
X150483083Y-146229400D02*
X150411655Y-146157971D01*
X150411655Y-146157971D02*
X150268797Y-146086542D01*
X150268797Y-146086542D02*
X149983083Y-146015114D01*
X149983083Y-146015114D02*
X149840226Y-145943685D01*
X149840226Y-145943685D02*
X149768797Y-145872257D01*
X149768797Y-145872257D02*
X149697369Y-145729400D01*
X149697369Y-145729400D02*
X149697369Y-145586542D01*
X149697369Y-145586542D02*
X149768797Y-145443685D01*
X149768797Y-145443685D02*
X149840226Y-145372257D01*
X149840226Y-145372257D02*
X149983083Y-145300828D01*
X149983083Y-145300828D02*
X150340226Y-145300828D01*
X150340226Y-145300828D02*
X150554512Y-145372257D01*
D10*
X158772712Y-106823500D02*
X158915569Y-106871119D01*
X158915569Y-106871119D02*
X159153664Y-106871119D01*
X159153664Y-106871119D02*
X159248902Y-106823500D01*
X159248902Y-106823500D02*
X159296521Y-106775880D01*
X159296521Y-106775880D02*
X159344140Y-106680642D01*
X159344140Y-106680642D02*
X159344140Y-106585404D01*
X159344140Y-106585404D02*
X159296521Y-106490166D01*
X159296521Y-106490166D02*
X159248902Y-106442547D01*
X159248902Y-106442547D02*
X159153664Y-106394928D01*
X159153664Y-106394928D02*
X158963188Y-106347309D01*
X158963188Y-106347309D02*
X158867950Y-106299690D01*
X158867950Y-106299690D02*
X158820331Y-106252071D01*
X158820331Y-106252071D02*
X158772712Y-106156833D01*
X158772712Y-106156833D02*
X158772712Y-106061595D01*
X158772712Y-106061595D02*
X158820331Y-105966357D01*
X158820331Y-105966357D02*
X158867950Y-105918738D01*
X158867950Y-105918738D02*
X158963188Y-105871119D01*
X158963188Y-105871119D02*
X159201283Y-105871119D01*
X159201283Y-105871119D02*
X159344140Y-105918738D01*
X159772712Y-106871119D02*
X159772712Y-105871119D01*
X159772712Y-105871119D02*
X160010807Y-105871119D01*
X160010807Y-105871119D02*
X160153664Y-105918738D01*
X160153664Y-105918738D02*
X160248902Y-106013976D01*
X160248902Y-106013976D02*
X160296521Y-106109214D01*
X160296521Y-106109214D02*
X160344140Y-106299690D01*
X160344140Y-106299690D02*
X160344140Y-106442547D01*
X160344140Y-106442547D02*
X160296521Y-106633023D01*
X160296521Y-106633023D02*
X160248902Y-106728261D01*
X160248902Y-106728261D02*
X160153664Y-106823500D01*
X160153664Y-106823500D02*
X160010807Y-106871119D01*
X160010807Y-106871119D02*
X159772712Y-106871119D01*
X160725093Y-106585404D02*
X161201283Y-106585404D01*
X160629855Y-106871119D02*
X160963188Y-105871119D01*
X160963188Y-105871119D02*
X161296521Y-106871119D01*
X158320331Y-76371119D02*
X158320331Y-75371119D01*
X158320331Y-75847309D02*
X158891759Y-75847309D01*
X158891759Y-76371119D02*
X158891759Y-75371119D01*
X159367950Y-75847309D02*
X159701283Y-75847309D01*
X159844140Y-76371119D02*
X159367950Y-76371119D01*
X159367950Y-76371119D02*
X159367950Y-75371119D01*
X159367950Y-75371119D02*
X159844140Y-75371119D01*
X160225093Y-76085404D02*
X160701283Y-76085404D01*
X160129855Y-76371119D02*
X160463188Y-75371119D01*
X160463188Y-75371119D02*
X160796521Y-76371119D01*
X160986998Y-75371119D02*
X161558426Y-75371119D01*
X161272712Y-76371119D02*
X161272712Y-75371119D01*
X161891760Y-75847309D02*
X162225093Y-75847309D01*
X162367950Y-76371119D02*
X161891760Y-76371119D01*
X161891760Y-76371119D02*
X161891760Y-75371119D01*
X161891760Y-75371119D02*
X162367950Y-75371119D01*
X163367950Y-76371119D02*
X163034617Y-75894928D01*
X162796522Y-76371119D02*
X162796522Y-75371119D01*
X162796522Y-75371119D02*
X163177474Y-75371119D01*
X163177474Y-75371119D02*
X163272712Y-75418738D01*
X163272712Y-75418738D02*
X163320331Y-75466357D01*
X163320331Y-75466357D02*
X163367950Y-75561595D01*
X163367950Y-75561595D02*
X163367950Y-75704452D01*
X163367950Y-75704452D02*
X163320331Y-75799690D01*
X163320331Y-75799690D02*
X163272712Y-75847309D01*
X163272712Y-75847309D02*
X163177474Y-75894928D01*
X163177474Y-75894928D02*
X162796522Y-75894928D01*
D12*
X113318228Y-134693246D02*
X112603942Y-135193246D01*
X113318228Y-135550389D02*
X111818228Y-135550389D01*
X111818228Y-135550389D02*
X111818228Y-134978960D01*
X111818228Y-134978960D02*
X111889657Y-134836103D01*
X111889657Y-134836103D02*
X111961085Y-134764674D01*
X111961085Y-134764674D02*
X112103942Y-134693246D01*
X112103942Y-134693246D02*
X112318228Y-134693246D01*
X112318228Y-134693246D02*
X112461085Y-134764674D01*
X112461085Y-134764674D02*
X112532514Y-134836103D01*
X112532514Y-134836103D02*
X112603942Y-134978960D01*
X112603942Y-134978960D02*
X112603942Y-135550389D01*
X113246800Y-134121817D02*
X113318228Y-133907532D01*
X113318228Y-133907532D02*
X113318228Y-133550389D01*
X113318228Y-133550389D02*
X113246800Y-133407532D01*
X113246800Y-133407532D02*
X113175371Y-133336103D01*
X113175371Y-133336103D02*
X113032514Y-133264674D01*
X113032514Y-133264674D02*
X112889657Y-133264674D01*
X112889657Y-133264674D02*
X112746800Y-133336103D01*
X112746800Y-133336103D02*
X112675371Y-133407532D01*
X112675371Y-133407532D02*
X112603942Y-133550389D01*
X112603942Y-133550389D02*
X112532514Y-133836103D01*
X112532514Y-133836103D02*
X112461085Y-133978960D01*
X112461085Y-133978960D02*
X112389657Y-134050389D01*
X112389657Y-134050389D02*
X112246800Y-134121817D01*
X112246800Y-134121817D02*
X112103942Y-134121817D01*
X112103942Y-134121817D02*
X111961085Y-134050389D01*
X111961085Y-134050389D02*
X111889657Y-133978960D01*
X111889657Y-133978960D02*
X111818228Y-133836103D01*
X111818228Y-133836103D02*
X111818228Y-133478960D01*
X111818228Y-133478960D02*
X111889657Y-133264674D01*
X113461085Y-132978961D02*
X113461085Y-131836103D01*
X111961085Y-131550389D02*
X111889657Y-131478961D01*
X111889657Y-131478961D02*
X111818228Y-131336104D01*
X111818228Y-131336104D02*
X111818228Y-130978961D01*
X111818228Y-130978961D02*
X111889657Y-130836104D01*
X111889657Y-130836104D02*
X111961085Y-130764675D01*
X111961085Y-130764675D02*
X112103942Y-130693246D01*
X112103942Y-130693246D02*
X112246800Y-130693246D01*
X112246800Y-130693246D02*
X112461085Y-130764675D01*
X112461085Y-130764675D02*
X113318228Y-131621818D01*
X113318228Y-131621818D02*
X113318228Y-130693246D01*
D10*
X159344140Y-110918738D02*
X159248902Y-110871119D01*
X159248902Y-110871119D02*
X159106045Y-110871119D01*
X159106045Y-110871119D02*
X158963188Y-110918738D01*
X158963188Y-110918738D02*
X158867950Y-111013976D01*
X158867950Y-111013976D02*
X158820331Y-111109214D01*
X158820331Y-111109214D02*
X158772712Y-111299690D01*
X158772712Y-111299690D02*
X158772712Y-111442547D01*
X158772712Y-111442547D02*
X158820331Y-111633023D01*
X158820331Y-111633023D02*
X158867950Y-111728261D01*
X158867950Y-111728261D02*
X158963188Y-111823500D01*
X158963188Y-111823500D02*
X159106045Y-111871119D01*
X159106045Y-111871119D02*
X159201283Y-111871119D01*
X159201283Y-111871119D02*
X159344140Y-111823500D01*
X159344140Y-111823500D02*
X159391759Y-111775880D01*
X159391759Y-111775880D02*
X159391759Y-111442547D01*
X159391759Y-111442547D02*
X159201283Y-111442547D01*
X159820331Y-111871119D02*
X159820331Y-110871119D01*
X159820331Y-110871119D02*
X160391759Y-111871119D01*
X160391759Y-111871119D02*
X160391759Y-110871119D01*
X160867950Y-111871119D02*
X160867950Y-110871119D01*
X160867950Y-110871119D02*
X161106045Y-110871119D01*
X161106045Y-110871119D02*
X161248902Y-110918738D01*
X161248902Y-110918738D02*
X161344140Y-111013976D01*
X161344140Y-111013976D02*
X161391759Y-111109214D01*
X161391759Y-111109214D02*
X161439378Y-111299690D01*
X161439378Y-111299690D02*
X161439378Y-111442547D01*
X161439378Y-111442547D02*
X161391759Y-111633023D01*
X161391759Y-111633023D02*
X161344140Y-111728261D01*
X161344140Y-111728261D02*
X161248902Y-111823500D01*
X161248902Y-111823500D02*
X161106045Y-111871119D01*
X161106045Y-111871119D02*
X160867950Y-111871119D01*
D12*
X172050828Y-78945489D02*
X170550828Y-78945489D01*
X170550828Y-78945489D02*
X170550828Y-78374060D01*
X170550828Y-78374060D02*
X170622257Y-78231203D01*
X170622257Y-78231203D02*
X170693685Y-78159774D01*
X170693685Y-78159774D02*
X170836542Y-78088346D01*
X170836542Y-78088346D02*
X171050828Y-78088346D01*
X171050828Y-78088346D02*
X171193685Y-78159774D01*
X171193685Y-78159774D02*
X171265114Y-78231203D01*
X171265114Y-78231203D02*
X171336542Y-78374060D01*
X171336542Y-78374060D02*
X171336542Y-78945489D01*
X170550828Y-77588346D02*
X172050828Y-77231203D01*
X172050828Y-77231203D02*
X170979400Y-76945489D01*
X170979400Y-76945489D02*
X172050828Y-76659774D01*
X172050828Y-76659774D02*
X170550828Y-76302632D01*
X172050828Y-74874060D02*
X171336542Y-75374060D01*
X172050828Y-75731203D02*
X170550828Y-75731203D01*
X170550828Y-75731203D02*
X170550828Y-75159774D01*
X170550828Y-75159774D02*
X170622257Y-75016917D01*
X170622257Y-75016917D02*
X170693685Y-74945488D01*
X170693685Y-74945488D02*
X170836542Y-74874060D01*
X170836542Y-74874060D02*
X171050828Y-74874060D01*
X171050828Y-74874060D02*
X171193685Y-74945488D01*
X171193685Y-74945488D02*
X171265114Y-75016917D01*
X171265114Y-75016917D02*
X171336542Y-75159774D01*
X171336542Y-75159774D02*
X171336542Y-75731203D01*
X171907971Y-72231203D02*
X171979400Y-72302631D01*
X171979400Y-72302631D02*
X172050828Y-72516917D01*
X172050828Y-72516917D02*
X172050828Y-72659774D01*
X172050828Y-72659774D02*
X171979400Y-72874060D01*
X171979400Y-72874060D02*
X171836542Y-73016917D01*
X171836542Y-73016917D02*
X171693685Y-73088346D01*
X171693685Y-73088346D02*
X171407971Y-73159774D01*
X171407971Y-73159774D02*
X171193685Y-73159774D01*
X171193685Y-73159774D02*
X170907971Y-73088346D01*
X170907971Y-73088346D02*
X170765114Y-73016917D01*
X170765114Y-73016917D02*
X170622257Y-72874060D01*
X170622257Y-72874060D02*
X170550828Y-72659774D01*
X170550828Y-72659774D02*
X170550828Y-72516917D01*
X170550828Y-72516917D02*
X170622257Y-72302631D01*
X170622257Y-72302631D02*
X170693685Y-72231203D01*
X170550828Y-71302631D02*
X170550828Y-71016917D01*
X170550828Y-71016917D02*
X170622257Y-70874060D01*
X170622257Y-70874060D02*
X170765114Y-70731203D01*
X170765114Y-70731203D02*
X171050828Y-70659774D01*
X171050828Y-70659774D02*
X171550828Y-70659774D01*
X171550828Y-70659774D02*
X171836542Y-70731203D01*
X171836542Y-70731203D02*
X171979400Y-70874060D01*
X171979400Y-70874060D02*
X172050828Y-71016917D01*
X172050828Y-71016917D02*
X172050828Y-71302631D01*
X172050828Y-71302631D02*
X171979400Y-71445489D01*
X171979400Y-71445489D02*
X171836542Y-71588346D01*
X171836542Y-71588346D02*
X171550828Y-71659774D01*
X171550828Y-71659774D02*
X171050828Y-71659774D01*
X171050828Y-71659774D02*
X170765114Y-71588346D01*
X170765114Y-71588346D02*
X170622257Y-71445489D01*
X170622257Y-71445489D02*
X170550828Y-71302631D01*
X172050828Y-70016917D02*
X170550828Y-70016917D01*
X170550828Y-70016917D02*
X172050828Y-69159774D01*
X172050828Y-69159774D02*
X170550828Y-69159774D01*
X172050828Y-68445488D02*
X170550828Y-68445488D01*
X170550828Y-68445488D02*
X172050828Y-67588345D01*
X172050828Y-67588345D02*
X170550828Y-67588345D01*
X144554510Y-129300828D02*
X144554510Y-127800828D01*
X144554510Y-127800828D02*
X145125939Y-127800828D01*
X145125939Y-127800828D02*
X145268796Y-127872257D01*
X145268796Y-127872257D02*
X145340225Y-127943685D01*
X145340225Y-127943685D02*
X145411653Y-128086542D01*
X145411653Y-128086542D02*
X145411653Y-128300828D01*
X145411653Y-128300828D02*
X145340225Y-128443685D01*
X145340225Y-128443685D02*
X145268796Y-128515114D01*
X145268796Y-128515114D02*
X145125939Y-128586542D01*
X145125939Y-128586542D02*
X144554510Y-128586542D01*
X145697368Y-129443685D02*
X146840225Y-129443685D01*
X147125939Y-129229400D02*
X147340225Y-129300828D01*
X147340225Y-129300828D02*
X147697367Y-129300828D01*
X147697367Y-129300828D02*
X147840225Y-129229400D01*
X147840225Y-129229400D02*
X147911653Y-129157971D01*
X147911653Y-129157971D02*
X147983082Y-129015114D01*
X147983082Y-129015114D02*
X147983082Y-128872257D01*
X147983082Y-128872257D02*
X147911653Y-128729400D01*
X147911653Y-128729400D02*
X147840225Y-128657971D01*
X147840225Y-128657971D02*
X147697367Y-128586542D01*
X147697367Y-128586542D02*
X147411653Y-128515114D01*
X147411653Y-128515114D02*
X147268796Y-128443685D01*
X147268796Y-128443685D02*
X147197367Y-128372257D01*
X147197367Y-128372257D02*
X147125939Y-128229400D01*
X147125939Y-128229400D02*
X147125939Y-128086542D01*
X147125939Y-128086542D02*
X147197367Y-127943685D01*
X147197367Y-127943685D02*
X147268796Y-127872257D01*
X147268796Y-127872257D02*
X147411653Y-127800828D01*
X147411653Y-127800828D02*
X147768796Y-127800828D01*
X147768796Y-127800828D02*
X147983082Y-127872257D01*
X148625938Y-128515114D02*
X149125938Y-128515114D01*
X149340224Y-129300828D02*
X148625938Y-129300828D01*
X148625938Y-129300828D02*
X148625938Y-127800828D01*
X148625938Y-127800828D02*
X149340224Y-127800828D01*
X149983081Y-129300828D02*
X149983081Y-127800828D01*
X149983081Y-127800828D02*
X150840224Y-129300828D01*
X150840224Y-129300828D02*
X150840224Y-127800828D01*
X151483082Y-129229400D02*
X151697368Y-129300828D01*
X151697368Y-129300828D02*
X152054510Y-129300828D01*
X152054510Y-129300828D02*
X152197368Y-129229400D01*
X152197368Y-129229400D02*
X152268796Y-129157971D01*
X152268796Y-129157971D02*
X152340225Y-129015114D01*
X152340225Y-129015114D02*
X152340225Y-128872257D01*
X152340225Y-128872257D02*
X152268796Y-128729400D01*
X152268796Y-128729400D02*
X152197368Y-128657971D01*
X152197368Y-128657971D02*
X152054510Y-128586542D01*
X152054510Y-128586542D02*
X151768796Y-128515114D01*
X151768796Y-128515114D02*
X151625939Y-128443685D01*
X151625939Y-128443685D02*
X151554510Y-128372257D01*
X151554510Y-128372257D02*
X151483082Y-128229400D01*
X151483082Y-128229400D02*
X151483082Y-128086542D01*
X151483082Y-128086542D02*
X151554510Y-127943685D01*
X151554510Y-127943685D02*
X151625939Y-127872257D01*
X151625939Y-127872257D02*
X151768796Y-127800828D01*
X151768796Y-127800828D02*
X152125939Y-127800828D01*
X152125939Y-127800828D02*
X152340225Y-127872257D01*
X152983081Y-128515114D02*
X153483081Y-128515114D01*
X153697367Y-129300828D02*
X152983081Y-129300828D01*
X152983081Y-129300828D02*
X152983081Y-127800828D01*
X152983081Y-127800828D02*
X153697367Y-127800828D01*
X140221653Y-98300828D02*
X139721653Y-97586542D01*
X139364510Y-98300828D02*
X139364510Y-96800828D01*
X139364510Y-96800828D02*
X139935939Y-96800828D01*
X139935939Y-96800828D02*
X140078796Y-96872257D01*
X140078796Y-96872257D02*
X140150225Y-96943685D01*
X140150225Y-96943685D02*
X140221653Y-97086542D01*
X140221653Y-97086542D02*
X140221653Y-97300828D01*
X140221653Y-97300828D02*
X140150225Y-97443685D01*
X140150225Y-97443685D02*
X140078796Y-97515114D01*
X140078796Y-97515114D02*
X139935939Y-97586542D01*
X139935939Y-97586542D02*
X139364510Y-97586542D01*
X140650225Y-96800828D02*
X141507368Y-96800828D01*
X141078796Y-98300828D02*
X141078796Y-96800828D01*
X142864510Y-98157971D02*
X142793082Y-98229400D01*
X142793082Y-98229400D02*
X142578796Y-98300828D01*
X142578796Y-98300828D02*
X142435939Y-98300828D01*
X142435939Y-98300828D02*
X142221653Y-98229400D01*
X142221653Y-98229400D02*
X142078796Y-98086542D01*
X142078796Y-98086542D02*
X142007367Y-97943685D01*
X142007367Y-97943685D02*
X141935939Y-97657971D01*
X141935939Y-97657971D02*
X141935939Y-97443685D01*
X141935939Y-97443685D02*
X142007367Y-97157971D01*
X142007367Y-97157971D02*
X142078796Y-97015114D01*
X142078796Y-97015114D02*
X142221653Y-96872257D01*
X142221653Y-96872257D02*
X142435939Y-96800828D01*
X142435939Y-96800828D02*
X142578796Y-96800828D01*
X142578796Y-96800828D02*
X142793082Y-96872257D01*
X142793082Y-96872257D02*
X142864510Y-96943685D01*
D10*
X158272712Y-123323500D02*
X158415569Y-123371119D01*
X158415569Y-123371119D02*
X158653664Y-123371119D01*
X158653664Y-123371119D02*
X158748902Y-123323500D01*
X158748902Y-123323500D02*
X158796521Y-123275880D01*
X158796521Y-123275880D02*
X158844140Y-123180642D01*
X158844140Y-123180642D02*
X158844140Y-123085404D01*
X158844140Y-123085404D02*
X158796521Y-122990166D01*
X158796521Y-122990166D02*
X158748902Y-122942547D01*
X158748902Y-122942547D02*
X158653664Y-122894928D01*
X158653664Y-122894928D02*
X158463188Y-122847309D01*
X158463188Y-122847309D02*
X158367950Y-122799690D01*
X158367950Y-122799690D02*
X158320331Y-122752071D01*
X158320331Y-122752071D02*
X158272712Y-122656833D01*
X158272712Y-122656833D02*
X158272712Y-122561595D01*
X158272712Y-122561595D02*
X158320331Y-122466357D01*
X158320331Y-122466357D02*
X158367950Y-122418738D01*
X158367950Y-122418738D02*
X158463188Y-122371119D01*
X158463188Y-122371119D02*
X158701283Y-122371119D01*
X158701283Y-122371119D02*
X158844140Y-122418738D01*
X159844140Y-123275880D02*
X159796521Y-123323500D01*
X159796521Y-123323500D02*
X159653664Y-123371119D01*
X159653664Y-123371119D02*
X159558426Y-123371119D01*
X159558426Y-123371119D02*
X159415569Y-123323500D01*
X159415569Y-123323500D02*
X159320331Y-123228261D01*
X159320331Y-123228261D02*
X159272712Y-123133023D01*
X159272712Y-123133023D02*
X159225093Y-122942547D01*
X159225093Y-122942547D02*
X159225093Y-122799690D01*
X159225093Y-122799690D02*
X159272712Y-122609214D01*
X159272712Y-122609214D02*
X159320331Y-122513976D01*
X159320331Y-122513976D02*
X159415569Y-122418738D01*
X159415569Y-122418738D02*
X159558426Y-122371119D01*
X159558426Y-122371119D02*
X159653664Y-122371119D01*
X159653664Y-122371119D02*
X159796521Y-122418738D01*
X159796521Y-122418738D02*
X159844140Y-122466357D01*
X160748902Y-123371119D02*
X160272712Y-123371119D01*
X160272712Y-123371119D02*
X160272712Y-122371119D01*
D12*
X170259201Y-140800317D02*
X170330629Y-140586032D01*
X170330629Y-140586032D02*
X170330629Y-140228889D01*
X170330629Y-140228889D02*
X170259201Y-140086032D01*
X170259201Y-140086032D02*
X170187772Y-140014603D01*
X170187772Y-140014603D02*
X170044915Y-139943174D01*
X170044915Y-139943174D02*
X169902058Y-139943174D01*
X169902058Y-139943174D02*
X169759201Y-140014603D01*
X169759201Y-140014603D02*
X169687772Y-140086032D01*
X169687772Y-140086032D02*
X169616343Y-140228889D01*
X169616343Y-140228889D02*
X169544915Y-140514603D01*
X169544915Y-140514603D02*
X169473486Y-140657460D01*
X169473486Y-140657460D02*
X169402058Y-140728889D01*
X169402058Y-140728889D02*
X169259201Y-140800317D01*
X169259201Y-140800317D02*
X169116343Y-140800317D01*
X169116343Y-140800317D02*
X168973486Y-140728889D01*
X168973486Y-140728889D02*
X168902058Y-140657460D01*
X168902058Y-140657460D02*
X168830629Y-140514603D01*
X168830629Y-140514603D02*
X168830629Y-140157460D01*
X168830629Y-140157460D02*
X168902058Y-139943174D01*
X169544915Y-139300318D02*
X169544915Y-138800318D01*
X170330629Y-138586032D02*
X170330629Y-139300318D01*
X170330629Y-139300318D02*
X168830629Y-139300318D01*
X168830629Y-139300318D02*
X168830629Y-138586032D01*
X170330629Y-137943175D02*
X168830629Y-137943175D01*
X168830629Y-137943175D02*
X170330629Y-137086032D01*
X170330629Y-137086032D02*
X168830629Y-137086032D01*
X170259201Y-136443174D02*
X170330629Y-136228889D01*
X170330629Y-136228889D02*
X170330629Y-135871746D01*
X170330629Y-135871746D02*
X170259201Y-135728889D01*
X170259201Y-135728889D02*
X170187772Y-135657460D01*
X170187772Y-135657460D02*
X170044915Y-135586031D01*
X170044915Y-135586031D02*
X169902058Y-135586031D01*
X169902058Y-135586031D02*
X169759201Y-135657460D01*
X169759201Y-135657460D02*
X169687772Y-135728889D01*
X169687772Y-135728889D02*
X169616343Y-135871746D01*
X169616343Y-135871746D02*
X169544915Y-136157460D01*
X169544915Y-136157460D02*
X169473486Y-136300317D01*
X169473486Y-136300317D02*
X169402058Y-136371746D01*
X169402058Y-136371746D02*
X169259201Y-136443174D01*
X169259201Y-136443174D02*
X169116343Y-136443174D01*
X169116343Y-136443174D02*
X168973486Y-136371746D01*
X168973486Y-136371746D02*
X168902058Y-136300317D01*
X168902058Y-136300317D02*
X168830629Y-136157460D01*
X168830629Y-136157460D02*
X168830629Y-135800317D01*
X168830629Y-135800317D02*
X168902058Y-135586031D01*
X168830629Y-134657460D02*
X168830629Y-134371746D01*
X168830629Y-134371746D02*
X168902058Y-134228889D01*
X168902058Y-134228889D02*
X169044915Y-134086032D01*
X169044915Y-134086032D02*
X169330629Y-134014603D01*
X169330629Y-134014603D02*
X169830629Y-134014603D01*
X169830629Y-134014603D02*
X170116343Y-134086032D01*
X170116343Y-134086032D02*
X170259201Y-134228889D01*
X170259201Y-134228889D02*
X170330629Y-134371746D01*
X170330629Y-134371746D02*
X170330629Y-134657460D01*
X170330629Y-134657460D02*
X170259201Y-134800318D01*
X170259201Y-134800318D02*
X170116343Y-134943175D01*
X170116343Y-134943175D02*
X169830629Y-135014603D01*
X169830629Y-135014603D02*
X169330629Y-135014603D01*
X169330629Y-135014603D02*
X169044915Y-134943175D01*
X169044915Y-134943175D02*
X168902058Y-134800318D01*
X168902058Y-134800318D02*
X168830629Y-134657460D01*
X170330629Y-132514603D02*
X169616343Y-133014603D01*
X170330629Y-133371746D02*
X168830629Y-133371746D01*
X168830629Y-133371746D02*
X168830629Y-132800317D01*
X168830629Y-132800317D02*
X168902058Y-132657460D01*
X168902058Y-132657460D02*
X168973486Y-132586031D01*
X168973486Y-132586031D02*
X169116343Y-132514603D01*
X169116343Y-132514603D02*
X169330629Y-132514603D01*
X169330629Y-132514603D02*
X169473486Y-132586031D01*
X169473486Y-132586031D02*
X169544915Y-132657460D01*
X169544915Y-132657460D02*
X169616343Y-132800317D01*
X169616343Y-132800317D02*
X169616343Y-133371746D01*
X170473486Y-132228889D02*
X170473486Y-131086031D01*
X170330629Y-129943174D02*
X170330629Y-130800317D01*
X170330629Y-130371746D02*
X168830629Y-130371746D01*
X168830629Y-130371746D02*
X169044915Y-130514603D01*
X169044915Y-130514603D02*
X169187772Y-130657460D01*
X169187772Y-130657460D02*
X169259201Y-130800317D01*
D13*
X162759524Y-59907200D02*
X162902381Y-59954819D01*
X162902381Y-59954819D02*
X163140476Y-59954819D01*
X163140476Y-59954819D02*
X163235714Y-59907200D01*
X163235714Y-59907200D02*
X163283333Y-59859580D01*
X163283333Y-59859580D02*
X163330952Y-59764342D01*
X163330952Y-59764342D02*
X163330952Y-59669104D01*
X163330952Y-59669104D02*
X163283333Y-59573866D01*
X163283333Y-59573866D02*
X163235714Y-59526247D01*
X163235714Y-59526247D02*
X163140476Y-59478628D01*
X163140476Y-59478628D02*
X162950000Y-59431009D01*
X162950000Y-59431009D02*
X162854762Y-59383390D01*
X162854762Y-59383390D02*
X162807143Y-59335771D01*
X162807143Y-59335771D02*
X162759524Y-59240533D01*
X162759524Y-59240533D02*
X162759524Y-59145295D01*
X162759524Y-59145295D02*
X162807143Y-59050057D01*
X162807143Y-59050057D02*
X162854762Y-59002438D01*
X162854762Y-59002438D02*
X162950000Y-58954819D01*
X162950000Y-58954819D02*
X163188095Y-58954819D01*
X163188095Y-58954819D02*
X163330952Y-59002438D01*
X164330952Y-59859580D02*
X164283333Y-59907200D01*
X164283333Y-59907200D02*
X164140476Y-59954819D01*
X164140476Y-59954819D02*
X164045238Y-59954819D01*
X164045238Y-59954819D02*
X163902381Y-59907200D01*
X163902381Y-59907200D02*
X163807143Y-59811961D01*
X163807143Y-59811961D02*
X163759524Y-59716723D01*
X163759524Y-59716723D02*
X163711905Y-59526247D01*
X163711905Y-59526247D02*
X163711905Y-59383390D01*
X163711905Y-59383390D02*
X163759524Y-59192914D01*
X163759524Y-59192914D02*
X163807143Y-59097676D01*
X163807143Y-59097676D02*
X163902381Y-59002438D01*
X163902381Y-59002438D02*
X164045238Y-58954819D01*
X164045238Y-58954819D02*
X164140476Y-58954819D01*
X164140476Y-58954819D02*
X164283333Y-59002438D01*
X164283333Y-59002438D02*
X164330952Y-59050057D01*
X165235714Y-59954819D02*
X164759524Y-59954819D01*
X164759524Y-59954819D02*
X164759524Y-58954819D01*
D12*
X116554510Y-69015114D02*
X117054510Y-69015114D01*
X117268796Y-69800828D02*
X116554510Y-69800828D01*
X116554510Y-69800828D02*
X116554510Y-68300828D01*
X116554510Y-68300828D02*
X117268796Y-68300828D01*
X117840225Y-69729400D02*
X118054511Y-69800828D01*
X118054511Y-69800828D02*
X118411653Y-69800828D01*
X118411653Y-69800828D02*
X118554511Y-69729400D01*
X118554511Y-69729400D02*
X118625939Y-69657971D01*
X118625939Y-69657971D02*
X118697368Y-69515114D01*
X118697368Y-69515114D02*
X118697368Y-69372257D01*
X118697368Y-69372257D02*
X118625939Y-69229400D01*
X118625939Y-69229400D02*
X118554511Y-69157971D01*
X118554511Y-69157971D02*
X118411653Y-69086542D01*
X118411653Y-69086542D02*
X118125939Y-69015114D01*
X118125939Y-69015114D02*
X117983082Y-68943685D01*
X117983082Y-68943685D02*
X117911653Y-68872257D01*
X117911653Y-68872257D02*
X117840225Y-68729400D01*
X117840225Y-68729400D02*
X117840225Y-68586542D01*
X117840225Y-68586542D02*
X117911653Y-68443685D01*
X117911653Y-68443685D02*
X117983082Y-68372257D01*
X117983082Y-68372257D02*
X118125939Y-68300828D01*
X118125939Y-68300828D02*
X118483082Y-68300828D01*
X118483082Y-68300828D02*
X118697368Y-68372257D01*
X119340224Y-69800828D02*
X119340224Y-68300828D01*
X119340224Y-68300828D02*
X119911653Y-68300828D01*
X119911653Y-68300828D02*
X120054510Y-68372257D01*
X120054510Y-68372257D02*
X120125939Y-68443685D01*
X120125939Y-68443685D02*
X120197367Y-68586542D01*
X120197367Y-68586542D02*
X120197367Y-68800828D01*
X120197367Y-68800828D02*
X120125939Y-68943685D01*
X120125939Y-68943685D02*
X120054510Y-69015114D01*
X120054510Y-69015114D02*
X119911653Y-69086542D01*
X119911653Y-69086542D02*
X119340224Y-69086542D01*
X120697367Y-68300828D02*
X121625939Y-68300828D01*
X121625939Y-68300828D02*
X121125939Y-68872257D01*
X121125939Y-68872257D02*
X121340224Y-68872257D01*
X121340224Y-68872257D02*
X121483082Y-68943685D01*
X121483082Y-68943685D02*
X121554510Y-69015114D01*
X121554510Y-69015114D02*
X121625939Y-69157971D01*
X121625939Y-69157971D02*
X121625939Y-69515114D01*
X121625939Y-69515114D02*
X121554510Y-69657971D01*
X121554510Y-69657971D02*
X121483082Y-69729400D01*
X121483082Y-69729400D02*
X121340224Y-69800828D01*
X121340224Y-69800828D02*
X120911653Y-69800828D01*
X120911653Y-69800828D02*
X120768796Y-69729400D01*
X120768796Y-69729400D02*
X120697367Y-69657971D01*
X122197367Y-68443685D02*
X122268795Y-68372257D01*
X122268795Y-68372257D02*
X122411653Y-68300828D01*
X122411653Y-68300828D02*
X122768795Y-68300828D01*
X122768795Y-68300828D02*
X122911653Y-68372257D01*
X122911653Y-68372257D02*
X122983081Y-68443685D01*
X122983081Y-68443685D02*
X123054510Y-68586542D01*
X123054510Y-68586542D02*
X123054510Y-68729400D01*
X123054510Y-68729400D02*
X122983081Y-68943685D01*
X122983081Y-68943685D02*
X122125938Y-69800828D01*
X122125938Y-69800828D02*
X123054510Y-69800828D01*
X113554510Y-152885912D02*
X113554510Y-151385912D01*
X113554510Y-151385912D02*
X114054510Y-152457341D01*
X114054510Y-152457341D02*
X114554510Y-151385912D01*
X114554510Y-151385912D02*
X114554510Y-152885912D01*
X115197368Y-152457341D02*
X115911654Y-152457341D01*
X115054511Y-152885912D02*
X115554511Y-151385912D01*
X115554511Y-151385912D02*
X116054511Y-152885912D01*
X116411653Y-151385912D02*
X117411653Y-152885912D01*
X117411653Y-151385912D02*
X116411653Y-152885912D01*
X119054510Y-152814484D02*
X119268796Y-152885912D01*
X119268796Y-152885912D02*
X119625938Y-152885912D01*
X119625938Y-152885912D02*
X119768796Y-152814484D01*
X119768796Y-152814484D02*
X119840224Y-152743055D01*
X119840224Y-152743055D02*
X119911653Y-152600198D01*
X119911653Y-152600198D02*
X119911653Y-152457341D01*
X119911653Y-152457341D02*
X119840224Y-152314484D01*
X119840224Y-152314484D02*
X119768796Y-152243055D01*
X119768796Y-152243055D02*
X119625938Y-152171626D01*
X119625938Y-152171626D02*
X119340224Y-152100198D01*
X119340224Y-152100198D02*
X119197367Y-152028769D01*
X119197367Y-152028769D02*
X119125938Y-151957341D01*
X119125938Y-151957341D02*
X119054510Y-151814484D01*
X119054510Y-151814484D02*
X119054510Y-151671626D01*
X119054510Y-151671626D02*
X119125938Y-151528769D01*
X119125938Y-151528769D02*
X119197367Y-151457341D01*
X119197367Y-151457341D02*
X119340224Y-151385912D01*
X119340224Y-151385912D02*
X119697367Y-151385912D01*
X119697367Y-151385912D02*
X119911653Y-151457341D01*
X121411652Y-152743055D02*
X121340224Y-152814484D01*
X121340224Y-152814484D02*
X121125938Y-152885912D01*
X121125938Y-152885912D02*
X120983081Y-152885912D01*
X120983081Y-152885912D02*
X120768795Y-152814484D01*
X120768795Y-152814484D02*
X120625938Y-152671626D01*
X120625938Y-152671626D02*
X120554509Y-152528769D01*
X120554509Y-152528769D02*
X120483081Y-152243055D01*
X120483081Y-152243055D02*
X120483081Y-152028769D01*
X120483081Y-152028769D02*
X120554509Y-151743055D01*
X120554509Y-151743055D02*
X120625938Y-151600198D01*
X120625938Y-151600198D02*
X120768795Y-151457341D01*
X120768795Y-151457341D02*
X120983081Y-151385912D01*
X120983081Y-151385912D02*
X121125938Y-151385912D01*
X121125938Y-151385912D02*
X121340224Y-151457341D01*
X121340224Y-151457341D02*
X121411652Y-151528769D01*
X122054509Y-152885912D02*
X122054509Y-151385912D01*
X122054509Y-152100198D02*
X122911652Y-152100198D01*
X122911652Y-152885912D02*
X122911652Y-151385912D01*
X123554510Y-152457341D02*
X124268796Y-152457341D01*
X123411653Y-152885912D02*
X123911653Y-151385912D01*
X123911653Y-151385912D02*
X124411653Y-152885912D01*
X124697367Y-151385912D02*
X125554510Y-151385912D01*
X125125938Y-152885912D02*
X125125938Y-151385912D01*
X125911652Y-151385912D02*
X126911652Y-151385912D01*
X126911652Y-151385912D02*
X125911652Y-152885912D01*
X125911652Y-152885912D02*
X126911652Y-152885912D01*
X113483082Y-155229400D02*
X113697368Y-155300828D01*
X113697368Y-155300828D02*
X114054510Y-155300828D01*
X114054510Y-155300828D02*
X114197368Y-155229400D01*
X114197368Y-155229400D02*
X114268796Y-155157971D01*
X114268796Y-155157971D02*
X114340225Y-155015114D01*
X114340225Y-155015114D02*
X114340225Y-154872257D01*
X114340225Y-154872257D02*
X114268796Y-154729400D01*
X114268796Y-154729400D02*
X114197368Y-154657971D01*
X114197368Y-154657971D02*
X114054510Y-154586542D01*
X114054510Y-154586542D02*
X113768796Y-154515114D01*
X113768796Y-154515114D02*
X113625939Y-154443685D01*
X113625939Y-154443685D02*
X113554510Y-154372257D01*
X113554510Y-154372257D02*
X113483082Y-154229400D01*
X113483082Y-154229400D02*
X113483082Y-154086542D01*
X113483082Y-154086542D02*
X113554510Y-153943685D01*
X113554510Y-153943685D02*
X113625939Y-153872257D01*
X113625939Y-153872257D02*
X113768796Y-153800828D01*
X113768796Y-153800828D02*
X114125939Y-153800828D01*
X114125939Y-153800828D02*
X114340225Y-153872257D01*
X114768796Y-153800828D02*
X115625939Y-153800828D01*
X115197367Y-155300828D02*
X115197367Y-153800828D01*
X116125938Y-154515114D02*
X116625938Y-154515114D01*
X116840224Y-155300828D02*
X116125938Y-155300828D01*
X116125938Y-155300828D02*
X116125938Y-153800828D01*
X116125938Y-153800828D02*
X116840224Y-153800828D01*
X117268796Y-153800828D02*
X117768796Y-155300828D01*
X117768796Y-155300828D02*
X118268796Y-153800828D01*
X118768795Y-154515114D02*
X119268795Y-154515114D01*
X119483081Y-155300828D02*
X118768795Y-155300828D01*
X118768795Y-155300828D02*
X118768795Y-153800828D01*
X118768795Y-153800828D02*
X119483081Y-153800828D01*
X120125938Y-155300828D02*
X120125938Y-153800828D01*
X120125938Y-153800828D02*
X120983081Y-155300828D01*
X120983081Y-155300828D02*
X120983081Y-153800828D01*
X122768796Y-155229400D02*
X122983082Y-155300828D01*
X122983082Y-155300828D02*
X123340224Y-155300828D01*
X123340224Y-155300828D02*
X123483082Y-155229400D01*
X123483082Y-155229400D02*
X123554510Y-155157971D01*
X123554510Y-155157971D02*
X123625939Y-155015114D01*
X123625939Y-155015114D02*
X123625939Y-154872257D01*
X123625939Y-154872257D02*
X123554510Y-154729400D01*
X123554510Y-154729400D02*
X123483082Y-154657971D01*
X123483082Y-154657971D02*
X123340224Y-154586542D01*
X123340224Y-154586542D02*
X123054510Y-154515114D01*
X123054510Y-154515114D02*
X122911653Y-154443685D01*
X122911653Y-154443685D02*
X122840224Y-154372257D01*
X122840224Y-154372257D02*
X122768796Y-154229400D01*
X122768796Y-154229400D02*
X122768796Y-154086542D01*
X122768796Y-154086542D02*
X122840224Y-153943685D01*
X122840224Y-153943685D02*
X122911653Y-153872257D01*
X122911653Y-153872257D02*
X123054510Y-153800828D01*
X123054510Y-153800828D02*
X123411653Y-153800828D01*
X123411653Y-153800828D02*
X123625939Y-153872257D01*
X124197367Y-154872257D02*
X124911653Y-154872257D01*
X124054510Y-155300828D02*
X124554510Y-153800828D01*
X124554510Y-153800828D02*
X125054510Y-155300828D01*
X126340224Y-153872257D02*
X126197367Y-153800828D01*
X126197367Y-153800828D02*
X125983081Y-153800828D01*
X125983081Y-153800828D02*
X125768795Y-153872257D01*
X125768795Y-153872257D02*
X125625938Y-154015114D01*
X125625938Y-154015114D02*
X125554509Y-154157971D01*
X125554509Y-154157971D02*
X125483081Y-154443685D01*
X125483081Y-154443685D02*
X125483081Y-154657971D01*
X125483081Y-154657971D02*
X125554509Y-154943685D01*
X125554509Y-154943685D02*
X125625938Y-155086542D01*
X125625938Y-155086542D02*
X125768795Y-155229400D01*
X125768795Y-155229400D02*
X125983081Y-155300828D01*
X125983081Y-155300828D02*
X126125938Y-155300828D01*
X126125938Y-155300828D02*
X126340224Y-155229400D01*
X126340224Y-155229400D02*
X126411652Y-155157971D01*
X126411652Y-155157971D02*
X126411652Y-154657971D01*
X126411652Y-154657971D02*
X126125938Y-154657971D01*
X127054509Y-154515114D02*
X127554509Y-154515114D01*
X127768795Y-155300828D02*
X127054509Y-155300828D01*
X127054509Y-155300828D02*
X127054509Y-153800828D01*
X127054509Y-153800828D02*
X127768795Y-153800828D01*
X129268795Y-155300828D02*
X128768795Y-154586542D01*
X128411652Y-155300828D02*
X128411652Y-153800828D01*
X128411652Y-153800828D02*
X128983081Y-153800828D01*
X128983081Y-153800828D02*
X129125938Y-153872257D01*
X129125938Y-153872257D02*
X129197367Y-153943685D01*
X129197367Y-153943685D02*
X129268795Y-154086542D01*
X129268795Y-154086542D02*
X129268795Y-154300828D01*
X129268795Y-154300828D02*
X129197367Y-154443685D01*
X129197367Y-154443685D02*
X129125938Y-154515114D01*
X129125938Y-154515114D02*
X128983081Y-154586542D01*
X128983081Y-154586542D02*
X128411652Y-154586542D01*
X141072257Y-71256917D02*
X141072257Y-70542632D01*
X141500828Y-71399774D02*
X140000828Y-70899774D01*
X140000828Y-70899774D02*
X141500828Y-70399774D01*
X140000828Y-70114060D02*
X140000828Y-69256918D01*
X141500828Y-69685489D02*
X140000828Y-69685489D01*
X141500828Y-68756918D02*
X140000828Y-68756918D01*
X140000828Y-68756918D02*
X141072257Y-68256918D01*
X141072257Y-68256918D02*
X140000828Y-67756918D01*
X140000828Y-67756918D02*
X141500828Y-67756918D01*
X140715114Y-67042632D02*
X140715114Y-66542632D01*
X141500828Y-66328346D02*
X141500828Y-67042632D01*
X141500828Y-67042632D02*
X140000828Y-67042632D01*
X140000828Y-67042632D02*
X140000828Y-66328346D01*
X140072257Y-64899774D02*
X140000828Y-65042632D01*
X140000828Y-65042632D02*
X140000828Y-65256917D01*
X140000828Y-65256917D02*
X140072257Y-65471203D01*
X140072257Y-65471203D02*
X140215114Y-65614060D01*
X140215114Y-65614060D02*
X140357971Y-65685489D01*
X140357971Y-65685489D02*
X140643685Y-65756917D01*
X140643685Y-65756917D02*
X140857971Y-65756917D01*
X140857971Y-65756917D02*
X141143685Y-65685489D01*
X141143685Y-65685489D02*
X141286542Y-65614060D01*
X141286542Y-65614060D02*
X141429400Y-65471203D01*
X141429400Y-65471203D02*
X141500828Y-65256917D01*
X141500828Y-65256917D02*
X141500828Y-65114060D01*
X141500828Y-65114060D02*
X141429400Y-64899774D01*
X141429400Y-64899774D02*
X141357971Y-64828346D01*
X141357971Y-64828346D02*
X140857971Y-64828346D01*
X140857971Y-64828346D02*
X140857971Y-65114060D01*
X141072257Y-64256917D02*
X141072257Y-63542632D01*
X141500828Y-64399774D02*
X140000828Y-63899774D01*
X140000828Y-63899774D02*
X141500828Y-63399774D01*
X140000828Y-63042632D02*
X140000828Y-62114060D01*
X140000828Y-62114060D02*
X140572257Y-62614060D01*
X140572257Y-62614060D02*
X140572257Y-62399775D01*
X140572257Y-62399775D02*
X140643685Y-62256918D01*
X140643685Y-62256918D02*
X140715114Y-62185489D01*
X140715114Y-62185489D02*
X140857971Y-62114060D01*
X140857971Y-62114060D02*
X141215114Y-62114060D01*
X141215114Y-62114060D02*
X141357971Y-62185489D01*
X141357971Y-62185489D02*
X141429400Y-62256918D01*
X141429400Y-62256918D02*
X141500828Y-62399775D01*
X141500828Y-62399775D02*
X141500828Y-62828346D01*
X141500828Y-62828346D02*
X141429400Y-62971203D01*
X141429400Y-62971203D02*
X141357971Y-63042632D01*
X140143685Y-61542632D02*
X140072257Y-61471204D01*
X140072257Y-61471204D02*
X140000828Y-61328347D01*
X140000828Y-61328347D02*
X140000828Y-60971204D01*
X140000828Y-60971204D02*
X140072257Y-60828347D01*
X140072257Y-60828347D02*
X140143685Y-60756918D01*
X140143685Y-60756918D02*
X140286542Y-60685489D01*
X140286542Y-60685489D02*
X140429400Y-60685489D01*
X140429400Y-60685489D02*
X140643685Y-60756918D01*
X140643685Y-60756918D02*
X141500828Y-61614061D01*
X141500828Y-61614061D02*
X141500828Y-60685489D01*
X140643685Y-59828347D02*
X140572257Y-59971204D01*
X140572257Y-59971204D02*
X140500828Y-60042633D01*
X140500828Y-60042633D02*
X140357971Y-60114061D01*
X140357971Y-60114061D02*
X140286542Y-60114061D01*
X140286542Y-60114061D02*
X140143685Y-60042633D01*
X140143685Y-60042633D02*
X140072257Y-59971204D01*
X140072257Y-59971204D02*
X140000828Y-59828347D01*
X140000828Y-59828347D02*
X140000828Y-59542633D01*
X140000828Y-59542633D02*
X140072257Y-59399776D01*
X140072257Y-59399776D02*
X140143685Y-59328347D01*
X140143685Y-59328347D02*
X140286542Y-59256918D01*
X140286542Y-59256918D02*
X140357971Y-59256918D01*
X140357971Y-59256918D02*
X140500828Y-59328347D01*
X140500828Y-59328347D02*
X140572257Y-59399776D01*
X140572257Y-59399776D02*
X140643685Y-59542633D01*
X140643685Y-59542633D02*
X140643685Y-59828347D01*
X140643685Y-59828347D02*
X140715114Y-59971204D01*
X140715114Y-59971204D02*
X140786542Y-60042633D01*
X140786542Y-60042633D02*
X140929400Y-60114061D01*
X140929400Y-60114061D02*
X141215114Y-60114061D01*
X141215114Y-60114061D02*
X141357971Y-60042633D01*
X141357971Y-60042633D02*
X141429400Y-59971204D01*
X141429400Y-59971204D02*
X141500828Y-59828347D01*
X141500828Y-59828347D02*
X141500828Y-59542633D01*
X141500828Y-59542633D02*
X141429400Y-59399776D01*
X141429400Y-59399776D02*
X141357971Y-59328347D01*
X141357971Y-59328347D02*
X141215114Y-59256918D01*
X141215114Y-59256918D02*
X140929400Y-59256918D01*
X140929400Y-59256918D02*
X140786542Y-59328347D01*
X140786542Y-59328347D02*
X140715114Y-59399776D01*
X140715114Y-59399776D02*
X140643685Y-59542633D01*
X141500828Y-58614062D02*
X140000828Y-58614062D01*
X140000828Y-58614062D02*
X140000828Y-58042633D01*
X140000828Y-58042633D02*
X140072257Y-57899776D01*
X140072257Y-57899776D02*
X140143685Y-57828347D01*
X140143685Y-57828347D02*
X140286542Y-57756919D01*
X140286542Y-57756919D02*
X140500828Y-57756919D01*
X140500828Y-57756919D02*
X140643685Y-57828347D01*
X140643685Y-57828347D02*
X140715114Y-57899776D01*
X140715114Y-57899776D02*
X140786542Y-58042633D01*
X140786542Y-58042633D02*
X140786542Y-58614062D01*
X140300828Y-137588346D02*
X141800828Y-137231203D01*
X141800828Y-137231203D02*
X140729400Y-136945489D01*
X140729400Y-136945489D02*
X141800828Y-136659774D01*
X141800828Y-136659774D02*
X140300828Y-136302632D01*
X141800828Y-135731203D02*
X140300828Y-135731203D01*
X141015114Y-134516917D02*
X141015114Y-135016917D01*
X141800828Y-135016917D02*
X140300828Y-135016917D01*
X140300828Y-135016917D02*
X140300828Y-134302631D01*
X141800828Y-133731203D02*
X140300828Y-133731203D01*
X141943685Y-133374060D02*
X141943685Y-132231202D01*
X141800828Y-131159774D02*
X141800828Y-131874060D01*
X141800828Y-131874060D02*
X140300828Y-131874060D01*
X141015114Y-130659774D02*
X141015114Y-130159774D01*
X141800828Y-129945488D02*
X141800828Y-130659774D01*
X141800828Y-130659774D02*
X140300828Y-130659774D01*
X140300828Y-130659774D02*
X140300828Y-129945488D01*
X141800828Y-129302631D02*
X140300828Y-129302631D01*
X140300828Y-129302631D02*
X140300828Y-128945488D01*
X140300828Y-128945488D02*
X140372257Y-128731202D01*
X140372257Y-128731202D02*
X140515114Y-128588345D01*
X140515114Y-128588345D02*
X140657971Y-128516916D01*
X140657971Y-128516916D02*
X140943685Y-128445488D01*
X140943685Y-128445488D02*
X141157971Y-128445488D01*
X141157971Y-128445488D02*
X141443685Y-128516916D01*
X141443685Y-128516916D02*
X141586542Y-128588345D01*
X141586542Y-128588345D02*
X141729400Y-128731202D01*
X141729400Y-128731202D02*
X141800828Y-128945488D01*
X141800828Y-128945488D02*
X141800828Y-129302631D01*
X151800828Y-82640489D02*
X150300828Y-82640489D01*
X150300828Y-82640489D02*
X150300828Y-82069060D01*
X150300828Y-82069060D02*
X150372257Y-81926203D01*
X150372257Y-81926203D02*
X150443685Y-81854774D01*
X150443685Y-81854774D02*
X150586542Y-81783346D01*
X150586542Y-81783346D02*
X150800828Y-81783346D01*
X150800828Y-81783346D02*
X150943685Y-81854774D01*
X150943685Y-81854774D02*
X151015114Y-81926203D01*
X151015114Y-81926203D02*
X151086542Y-82069060D01*
X151086542Y-82069060D02*
X151086542Y-82640489D01*
X151800828Y-81140489D02*
X150300828Y-81140489D01*
X151657971Y-79569060D02*
X151729400Y-79640488D01*
X151729400Y-79640488D02*
X151800828Y-79854774D01*
X151800828Y-79854774D02*
X151800828Y-79997631D01*
X151800828Y-79997631D02*
X151729400Y-80211917D01*
X151729400Y-80211917D02*
X151586542Y-80354774D01*
X151586542Y-80354774D02*
X151443685Y-80426203D01*
X151443685Y-80426203D02*
X151157971Y-80497631D01*
X151157971Y-80497631D02*
X150943685Y-80497631D01*
X150943685Y-80497631D02*
X150657971Y-80426203D01*
X150657971Y-80426203D02*
X150515114Y-80354774D01*
X150515114Y-80354774D02*
X150372257Y-80211917D01*
X150372257Y-80211917D02*
X150300828Y-79997631D01*
X150300828Y-79997631D02*
X150300828Y-79854774D01*
X150300828Y-79854774D02*
X150372257Y-79640488D01*
X150372257Y-79640488D02*
X150443685Y-79569060D01*
X151800828Y-78926203D02*
X150300828Y-78926203D01*
X151800828Y-78069060D02*
X150943685Y-78711917D01*
X150300828Y-78069060D02*
X151157971Y-78926203D01*
X151800828Y-77426203D02*
X150300828Y-77426203D01*
X150300828Y-76926202D02*
X150300828Y-76069060D01*
X151800828Y-76497631D02*
X150300828Y-76497631D01*
X151657971Y-73569060D02*
X151729400Y-73640488D01*
X151729400Y-73640488D02*
X151800828Y-73854774D01*
X151800828Y-73854774D02*
X151800828Y-73997631D01*
X151800828Y-73997631D02*
X151729400Y-74211917D01*
X151729400Y-74211917D02*
X151586542Y-74354774D01*
X151586542Y-74354774D02*
X151443685Y-74426203D01*
X151443685Y-74426203D02*
X151157971Y-74497631D01*
X151157971Y-74497631D02*
X150943685Y-74497631D01*
X150943685Y-74497631D02*
X150657971Y-74426203D01*
X150657971Y-74426203D02*
X150515114Y-74354774D01*
X150515114Y-74354774D02*
X150372257Y-74211917D01*
X150372257Y-74211917D02*
X150300828Y-73997631D01*
X150300828Y-73997631D02*
X150300828Y-73854774D01*
X150300828Y-73854774D02*
X150372257Y-73640488D01*
X150372257Y-73640488D02*
X150443685Y-73569060D01*
X150300828Y-72640488D02*
X150300828Y-72354774D01*
X150300828Y-72354774D02*
X150372257Y-72211917D01*
X150372257Y-72211917D02*
X150515114Y-72069060D01*
X150515114Y-72069060D02*
X150800828Y-71997631D01*
X150800828Y-71997631D02*
X151300828Y-71997631D01*
X151300828Y-71997631D02*
X151586542Y-72069060D01*
X151586542Y-72069060D02*
X151729400Y-72211917D01*
X151729400Y-72211917D02*
X151800828Y-72354774D01*
X151800828Y-72354774D02*
X151800828Y-72640488D01*
X151800828Y-72640488D02*
X151729400Y-72783346D01*
X151729400Y-72783346D02*
X151586542Y-72926203D01*
X151586542Y-72926203D02*
X151300828Y-72997631D01*
X151300828Y-72997631D02*
X150800828Y-72997631D01*
X150800828Y-72997631D02*
X150515114Y-72926203D01*
X150515114Y-72926203D02*
X150372257Y-72783346D01*
X150372257Y-72783346D02*
X150300828Y-72640488D01*
X151800828Y-71354774D02*
X150300828Y-71354774D01*
X150300828Y-71354774D02*
X151800828Y-70497631D01*
X151800828Y-70497631D02*
X150300828Y-70497631D01*
X151800828Y-69783345D02*
X150300828Y-69783345D01*
X150300828Y-69783345D02*
X151800828Y-68926202D01*
X151800828Y-68926202D02*
X150300828Y-68926202D01*
D13*
X162735714Y-56907200D02*
X162878571Y-56954819D01*
X162878571Y-56954819D02*
X163116666Y-56954819D01*
X163116666Y-56954819D02*
X163211904Y-56907200D01*
X163211904Y-56907200D02*
X163259523Y-56859580D01*
X163259523Y-56859580D02*
X163307142Y-56764342D01*
X163307142Y-56764342D02*
X163307142Y-56669104D01*
X163307142Y-56669104D02*
X163259523Y-56573866D01*
X163259523Y-56573866D02*
X163211904Y-56526247D01*
X163211904Y-56526247D02*
X163116666Y-56478628D01*
X163116666Y-56478628D02*
X162926190Y-56431009D01*
X162926190Y-56431009D02*
X162830952Y-56383390D01*
X162830952Y-56383390D02*
X162783333Y-56335771D01*
X162783333Y-56335771D02*
X162735714Y-56240533D01*
X162735714Y-56240533D02*
X162735714Y-56145295D01*
X162735714Y-56145295D02*
X162783333Y-56050057D01*
X162783333Y-56050057D02*
X162830952Y-56002438D01*
X162830952Y-56002438D02*
X162926190Y-55954819D01*
X162926190Y-55954819D02*
X163164285Y-55954819D01*
X163164285Y-55954819D02*
X163307142Y-56002438D01*
X163735714Y-56954819D02*
X163735714Y-55954819D01*
X163735714Y-55954819D02*
X163973809Y-55954819D01*
X163973809Y-55954819D02*
X164116666Y-56002438D01*
X164116666Y-56002438D02*
X164211904Y-56097676D01*
X164211904Y-56097676D02*
X164259523Y-56192914D01*
X164259523Y-56192914D02*
X164307142Y-56383390D01*
X164307142Y-56383390D02*
X164307142Y-56526247D01*
X164307142Y-56526247D02*
X164259523Y-56716723D01*
X164259523Y-56716723D02*
X164211904Y-56811961D01*
X164211904Y-56811961D02*
X164116666Y-56907200D01*
X164116666Y-56907200D02*
X163973809Y-56954819D01*
X163973809Y-56954819D02*
X163735714Y-56954819D01*
X164688095Y-56669104D02*
X165164285Y-56669104D01*
X164592857Y-56954819D02*
X164926190Y-55954819D01*
X164926190Y-55954819D02*
X165259523Y-56954819D01*
D10*
X157820331Y-117990166D02*
X158582236Y-117990166D01*
X158201283Y-118371119D02*
X158201283Y-117609214D01*
X159534616Y-117371119D02*
X159058426Y-117371119D01*
X159058426Y-117371119D02*
X159010807Y-117847309D01*
X159010807Y-117847309D02*
X159058426Y-117799690D01*
X159058426Y-117799690D02*
X159153664Y-117752071D01*
X159153664Y-117752071D02*
X159391759Y-117752071D01*
X159391759Y-117752071D02*
X159486997Y-117799690D01*
X159486997Y-117799690D02*
X159534616Y-117847309D01*
X159534616Y-117847309D02*
X159582235Y-117942547D01*
X159582235Y-117942547D02*
X159582235Y-118180642D01*
X159582235Y-118180642D02*
X159534616Y-118275880D01*
X159534616Y-118275880D02*
X159486997Y-118323500D01*
X159486997Y-118323500D02*
X159391759Y-118371119D01*
X159391759Y-118371119D02*
X159153664Y-118371119D01*
X159153664Y-118371119D02*
X159058426Y-118323500D01*
X159058426Y-118323500D02*
X159010807Y-118275880D01*
X159867950Y-117371119D02*
X160201283Y-118371119D01*
X160201283Y-118371119D02*
X160534616Y-117371119D01*
X158320331Y-103990166D02*
X159082236Y-103990166D01*
X158701283Y-104371119D02*
X158701283Y-103609214D01*
X160034616Y-103371119D02*
X159558426Y-103371119D01*
X159558426Y-103371119D02*
X159510807Y-103847309D01*
X159510807Y-103847309D02*
X159558426Y-103799690D01*
X159558426Y-103799690D02*
X159653664Y-103752071D01*
X159653664Y-103752071D02*
X159891759Y-103752071D01*
X159891759Y-103752071D02*
X159986997Y-103799690D01*
X159986997Y-103799690D02*
X160034616Y-103847309D01*
X160034616Y-103847309D02*
X160082235Y-103942547D01*
X160082235Y-103942547D02*
X160082235Y-104180642D01*
X160082235Y-104180642D02*
X160034616Y-104275880D01*
X160034616Y-104275880D02*
X159986997Y-104323500D01*
X159986997Y-104323500D02*
X159891759Y-104371119D01*
X159891759Y-104371119D02*
X159653664Y-104371119D01*
X159653664Y-104371119D02*
X159558426Y-104323500D01*
X159558426Y-104323500D02*
X159510807Y-104275880D01*
X160367950Y-103371119D02*
X160701283Y-104371119D01*
X160701283Y-104371119D02*
X161034616Y-103371119D01*
D12*
X132300828Y-134588346D02*
X131586542Y-135088346D01*
X132300828Y-135445489D02*
X130800828Y-135445489D01*
X130800828Y-135445489D02*
X130800828Y-134874060D01*
X130800828Y-134874060D02*
X130872257Y-134731203D01*
X130872257Y-134731203D02*
X130943685Y-134659774D01*
X130943685Y-134659774D02*
X131086542Y-134588346D01*
X131086542Y-134588346D02*
X131300828Y-134588346D01*
X131300828Y-134588346D02*
X131443685Y-134659774D01*
X131443685Y-134659774D02*
X131515114Y-134731203D01*
X131515114Y-134731203D02*
X131586542Y-134874060D01*
X131586542Y-134874060D02*
X131586542Y-135445489D01*
X132229400Y-134016917D02*
X132300828Y-133802632D01*
X132300828Y-133802632D02*
X132300828Y-133445489D01*
X132300828Y-133445489D02*
X132229400Y-133302632D01*
X132229400Y-133302632D02*
X132157971Y-133231203D01*
X132157971Y-133231203D02*
X132015114Y-133159774D01*
X132015114Y-133159774D02*
X131872257Y-133159774D01*
X131872257Y-133159774D02*
X131729400Y-133231203D01*
X131729400Y-133231203D02*
X131657971Y-133302632D01*
X131657971Y-133302632D02*
X131586542Y-133445489D01*
X131586542Y-133445489D02*
X131515114Y-133731203D01*
X131515114Y-133731203D02*
X131443685Y-133874060D01*
X131443685Y-133874060D02*
X131372257Y-133945489D01*
X131372257Y-133945489D02*
X131229400Y-134016917D01*
X131229400Y-134016917D02*
X131086542Y-134016917D01*
X131086542Y-134016917D02*
X130943685Y-133945489D01*
X130943685Y-133945489D02*
X130872257Y-133874060D01*
X130872257Y-133874060D02*
X130800828Y-133731203D01*
X130800828Y-133731203D02*
X130800828Y-133374060D01*
X130800828Y-133374060D02*
X130872257Y-133159774D01*
X132443685Y-132874061D02*
X132443685Y-131731203D01*
X132300828Y-130588346D02*
X132300828Y-131445489D01*
X132300828Y-131016918D02*
X130800828Y-131016918D01*
X130800828Y-131016918D02*
X131015114Y-131159775D01*
X131015114Y-131159775D02*
X131157971Y-131302632D01*
X131157971Y-131302632D02*
X131229400Y-131445489D01*
D10*
X158844140Y-124918738D02*
X158748902Y-124871119D01*
X158748902Y-124871119D02*
X158606045Y-124871119D01*
X158606045Y-124871119D02*
X158463188Y-124918738D01*
X158463188Y-124918738D02*
X158367950Y-125013976D01*
X158367950Y-125013976D02*
X158320331Y-125109214D01*
X158320331Y-125109214D02*
X158272712Y-125299690D01*
X158272712Y-125299690D02*
X158272712Y-125442547D01*
X158272712Y-125442547D02*
X158320331Y-125633023D01*
X158320331Y-125633023D02*
X158367950Y-125728261D01*
X158367950Y-125728261D02*
X158463188Y-125823500D01*
X158463188Y-125823500D02*
X158606045Y-125871119D01*
X158606045Y-125871119D02*
X158701283Y-125871119D01*
X158701283Y-125871119D02*
X158844140Y-125823500D01*
X158844140Y-125823500D02*
X158891759Y-125775880D01*
X158891759Y-125775880D02*
X158891759Y-125442547D01*
X158891759Y-125442547D02*
X158701283Y-125442547D01*
X159320331Y-125871119D02*
X159320331Y-124871119D01*
X159320331Y-124871119D02*
X159891759Y-125871119D01*
X159891759Y-125871119D02*
X159891759Y-124871119D01*
X160367950Y-125871119D02*
X160367950Y-124871119D01*
X160367950Y-124871119D02*
X160606045Y-124871119D01*
X160606045Y-124871119D02*
X160748902Y-124918738D01*
X160748902Y-124918738D02*
X160844140Y-125013976D01*
X160844140Y-125013976D02*
X160891759Y-125109214D01*
X160891759Y-125109214D02*
X160939378Y-125299690D01*
X160939378Y-125299690D02*
X160939378Y-125442547D01*
X160939378Y-125442547D02*
X160891759Y-125633023D01*
X160891759Y-125633023D02*
X160844140Y-125728261D01*
X160844140Y-125728261D02*
X160748902Y-125823500D01*
X160748902Y-125823500D02*
X160606045Y-125871119D01*
X160606045Y-125871119D02*
X160367950Y-125871119D01*
X160844140Y-77918738D02*
X160748902Y-77871119D01*
X160748902Y-77871119D02*
X160606045Y-77871119D01*
X160606045Y-77871119D02*
X160463188Y-77918738D01*
X160463188Y-77918738D02*
X160367950Y-78013976D01*
X160367950Y-78013976D02*
X160320331Y-78109214D01*
X160320331Y-78109214D02*
X160272712Y-78299690D01*
X160272712Y-78299690D02*
X160272712Y-78442547D01*
X160272712Y-78442547D02*
X160320331Y-78633023D01*
X160320331Y-78633023D02*
X160367950Y-78728261D01*
X160367950Y-78728261D02*
X160463188Y-78823500D01*
X160463188Y-78823500D02*
X160606045Y-78871119D01*
X160606045Y-78871119D02*
X160701283Y-78871119D01*
X160701283Y-78871119D02*
X160844140Y-78823500D01*
X160844140Y-78823500D02*
X160891759Y-78775880D01*
X160891759Y-78775880D02*
X160891759Y-78442547D01*
X160891759Y-78442547D02*
X160701283Y-78442547D01*
X161320331Y-78871119D02*
X161320331Y-77871119D01*
X161320331Y-77871119D02*
X161891759Y-78871119D01*
X161891759Y-78871119D02*
X161891759Y-77871119D01*
X162367950Y-78871119D02*
X162367950Y-77871119D01*
X162367950Y-77871119D02*
X162606045Y-77871119D01*
X162606045Y-77871119D02*
X162748902Y-77918738D01*
X162748902Y-77918738D02*
X162844140Y-78013976D01*
X162844140Y-78013976D02*
X162891759Y-78109214D01*
X162891759Y-78109214D02*
X162939378Y-78299690D01*
X162939378Y-78299690D02*
X162939378Y-78442547D01*
X162939378Y-78442547D02*
X162891759Y-78633023D01*
X162891759Y-78633023D02*
X162844140Y-78728261D01*
X162844140Y-78728261D02*
X162748902Y-78823500D01*
X162748902Y-78823500D02*
X162606045Y-78871119D01*
X162606045Y-78871119D02*
X162367950Y-78871119D01*
X158772712Y-109323500D02*
X158915569Y-109371119D01*
X158915569Y-109371119D02*
X159153664Y-109371119D01*
X159153664Y-109371119D02*
X159248902Y-109323500D01*
X159248902Y-109323500D02*
X159296521Y-109275880D01*
X159296521Y-109275880D02*
X159344140Y-109180642D01*
X159344140Y-109180642D02*
X159344140Y-109085404D01*
X159344140Y-109085404D02*
X159296521Y-108990166D01*
X159296521Y-108990166D02*
X159248902Y-108942547D01*
X159248902Y-108942547D02*
X159153664Y-108894928D01*
X159153664Y-108894928D02*
X158963188Y-108847309D01*
X158963188Y-108847309D02*
X158867950Y-108799690D01*
X158867950Y-108799690D02*
X158820331Y-108752071D01*
X158820331Y-108752071D02*
X158772712Y-108656833D01*
X158772712Y-108656833D02*
X158772712Y-108561595D01*
X158772712Y-108561595D02*
X158820331Y-108466357D01*
X158820331Y-108466357D02*
X158867950Y-108418738D01*
X158867950Y-108418738D02*
X158963188Y-108371119D01*
X158963188Y-108371119D02*
X159201283Y-108371119D01*
X159201283Y-108371119D02*
X159344140Y-108418738D01*
X160344140Y-109275880D02*
X160296521Y-109323500D01*
X160296521Y-109323500D02*
X160153664Y-109371119D01*
X160153664Y-109371119D02*
X160058426Y-109371119D01*
X160058426Y-109371119D02*
X159915569Y-109323500D01*
X159915569Y-109323500D02*
X159820331Y-109228261D01*
X159820331Y-109228261D02*
X159772712Y-109133023D01*
X159772712Y-109133023D02*
X159725093Y-108942547D01*
X159725093Y-108942547D02*
X159725093Y-108799690D01*
X159725093Y-108799690D02*
X159772712Y-108609214D01*
X159772712Y-108609214D02*
X159820331Y-108513976D01*
X159820331Y-108513976D02*
X159915569Y-108418738D01*
X159915569Y-108418738D02*
X160058426Y-108371119D01*
X160058426Y-108371119D02*
X160153664Y-108371119D01*
X160153664Y-108371119D02*
X160296521Y-108418738D01*
X160296521Y-108418738D02*
X160344140Y-108466357D01*
X161248902Y-109371119D02*
X160772712Y-109371119D01*
X160772712Y-109371119D02*
X160772712Y-108371119D01*
X158272712Y-120823500D02*
X158415569Y-120871119D01*
X158415569Y-120871119D02*
X158653664Y-120871119D01*
X158653664Y-120871119D02*
X158748902Y-120823500D01*
X158748902Y-120823500D02*
X158796521Y-120775880D01*
X158796521Y-120775880D02*
X158844140Y-120680642D01*
X158844140Y-120680642D02*
X158844140Y-120585404D01*
X158844140Y-120585404D02*
X158796521Y-120490166D01*
X158796521Y-120490166D02*
X158748902Y-120442547D01*
X158748902Y-120442547D02*
X158653664Y-120394928D01*
X158653664Y-120394928D02*
X158463188Y-120347309D01*
X158463188Y-120347309D02*
X158367950Y-120299690D01*
X158367950Y-120299690D02*
X158320331Y-120252071D01*
X158320331Y-120252071D02*
X158272712Y-120156833D01*
X158272712Y-120156833D02*
X158272712Y-120061595D01*
X158272712Y-120061595D02*
X158320331Y-119966357D01*
X158320331Y-119966357D02*
X158367950Y-119918738D01*
X158367950Y-119918738D02*
X158463188Y-119871119D01*
X158463188Y-119871119D02*
X158701283Y-119871119D01*
X158701283Y-119871119D02*
X158844140Y-119918738D01*
X159272712Y-120871119D02*
X159272712Y-119871119D01*
X159272712Y-119871119D02*
X159510807Y-119871119D01*
X159510807Y-119871119D02*
X159653664Y-119918738D01*
X159653664Y-119918738D02*
X159748902Y-120013976D01*
X159748902Y-120013976D02*
X159796521Y-120109214D01*
X159796521Y-120109214D02*
X159844140Y-120299690D01*
X159844140Y-120299690D02*
X159844140Y-120442547D01*
X159844140Y-120442547D02*
X159796521Y-120633023D01*
X159796521Y-120633023D02*
X159748902Y-120728261D01*
X159748902Y-120728261D02*
X159653664Y-120823500D01*
X159653664Y-120823500D02*
X159510807Y-120871119D01*
X159510807Y-120871119D02*
X159272712Y-120871119D01*
X160225093Y-120585404D02*
X160701283Y-120585404D01*
X160129855Y-120871119D02*
X160463188Y-119871119D01*
X160463188Y-119871119D02*
X160796521Y-120871119D01*
X158272712Y-134823500D02*
X158415569Y-134871119D01*
X158415569Y-134871119D02*
X158653664Y-134871119D01*
X158653664Y-134871119D02*
X158748902Y-134823500D01*
X158748902Y-134823500D02*
X158796521Y-134775880D01*
X158796521Y-134775880D02*
X158844140Y-134680642D01*
X158844140Y-134680642D02*
X158844140Y-134585404D01*
X158844140Y-134585404D02*
X158796521Y-134490166D01*
X158796521Y-134490166D02*
X158748902Y-134442547D01*
X158748902Y-134442547D02*
X158653664Y-134394928D01*
X158653664Y-134394928D02*
X158463188Y-134347309D01*
X158463188Y-134347309D02*
X158367950Y-134299690D01*
X158367950Y-134299690D02*
X158320331Y-134252071D01*
X158320331Y-134252071D02*
X158272712Y-134156833D01*
X158272712Y-134156833D02*
X158272712Y-134061595D01*
X158272712Y-134061595D02*
X158320331Y-133966357D01*
X158320331Y-133966357D02*
X158367950Y-133918738D01*
X158367950Y-133918738D02*
X158463188Y-133871119D01*
X158463188Y-133871119D02*
X158701283Y-133871119D01*
X158701283Y-133871119D02*
X158844140Y-133918738D01*
X159272712Y-134871119D02*
X159272712Y-133871119D01*
X159272712Y-133871119D02*
X159510807Y-133871119D01*
X159510807Y-133871119D02*
X159653664Y-133918738D01*
X159653664Y-133918738D02*
X159748902Y-134013976D01*
X159748902Y-134013976D02*
X159796521Y-134109214D01*
X159796521Y-134109214D02*
X159844140Y-134299690D01*
X159844140Y-134299690D02*
X159844140Y-134442547D01*
X159844140Y-134442547D02*
X159796521Y-134633023D01*
X159796521Y-134633023D02*
X159748902Y-134728261D01*
X159748902Y-134728261D02*
X159653664Y-134823500D01*
X159653664Y-134823500D02*
X159510807Y-134871119D01*
X159510807Y-134871119D02*
X159272712Y-134871119D01*
X160225093Y-134585404D02*
X160701283Y-134585404D01*
X160129855Y-134871119D02*
X160463188Y-133871119D01*
X160463188Y-133871119D02*
X160796521Y-134871119D01*
X158844140Y-138918738D02*
X158748902Y-138871119D01*
X158748902Y-138871119D02*
X158606045Y-138871119D01*
X158606045Y-138871119D02*
X158463188Y-138918738D01*
X158463188Y-138918738D02*
X158367950Y-139013976D01*
X158367950Y-139013976D02*
X158320331Y-139109214D01*
X158320331Y-139109214D02*
X158272712Y-139299690D01*
X158272712Y-139299690D02*
X158272712Y-139442547D01*
X158272712Y-139442547D02*
X158320331Y-139633023D01*
X158320331Y-139633023D02*
X158367950Y-139728261D01*
X158367950Y-139728261D02*
X158463188Y-139823500D01*
X158463188Y-139823500D02*
X158606045Y-139871119D01*
X158606045Y-139871119D02*
X158701283Y-139871119D01*
X158701283Y-139871119D02*
X158844140Y-139823500D01*
X158844140Y-139823500D02*
X158891759Y-139775880D01*
X158891759Y-139775880D02*
X158891759Y-139442547D01*
X158891759Y-139442547D02*
X158701283Y-139442547D01*
X159320331Y-139871119D02*
X159320331Y-138871119D01*
X159320331Y-138871119D02*
X159891759Y-139871119D01*
X159891759Y-139871119D02*
X159891759Y-138871119D01*
X160367950Y-139871119D02*
X160367950Y-138871119D01*
X160367950Y-138871119D02*
X160606045Y-138871119D01*
X160606045Y-138871119D02*
X160748902Y-138918738D01*
X160748902Y-138918738D02*
X160844140Y-139013976D01*
X160844140Y-139013976D02*
X160891759Y-139109214D01*
X160891759Y-139109214D02*
X160939378Y-139299690D01*
X160939378Y-139299690D02*
X160939378Y-139442547D01*
X160939378Y-139442547D02*
X160891759Y-139633023D01*
X160891759Y-139633023D02*
X160844140Y-139728261D01*
X160844140Y-139728261D02*
X160748902Y-139823500D01*
X160748902Y-139823500D02*
X160606045Y-139871119D01*
X160606045Y-139871119D02*
X160367950Y-139871119D01*
X158320331Y-70990166D02*
X159082236Y-70990166D01*
X158701283Y-71371119D02*
X158701283Y-70609214D01*
X160034616Y-70371119D02*
X159558426Y-70371119D01*
X159558426Y-70371119D02*
X159510807Y-70847309D01*
X159510807Y-70847309D02*
X159558426Y-70799690D01*
X159558426Y-70799690D02*
X159653664Y-70752071D01*
X159653664Y-70752071D02*
X159891759Y-70752071D01*
X159891759Y-70752071D02*
X159986997Y-70799690D01*
X159986997Y-70799690D02*
X160034616Y-70847309D01*
X160034616Y-70847309D02*
X160082235Y-70942547D01*
X160082235Y-70942547D02*
X160082235Y-71180642D01*
X160082235Y-71180642D02*
X160034616Y-71275880D01*
X160034616Y-71275880D02*
X159986997Y-71323500D01*
X159986997Y-71323500D02*
X159891759Y-71371119D01*
X159891759Y-71371119D02*
X159653664Y-71371119D01*
X159653664Y-71371119D02*
X159558426Y-71323500D01*
X159558426Y-71323500D02*
X159510807Y-71275880D01*
X160367950Y-70371119D02*
X160701283Y-71371119D01*
X160701283Y-71371119D02*
X161034616Y-70371119D01*
X161129855Y-71466357D02*
X161891759Y-71466357D01*
X162129855Y-71371119D02*
X162129855Y-70371119D01*
X162606045Y-71371119D02*
X162606045Y-70371119D01*
X162606045Y-70371119D02*
X163177473Y-71371119D01*
X163177473Y-71371119D02*
X163177473Y-70371119D01*
X157320331Y-68490166D02*
X158082236Y-68490166D01*
X157701283Y-68871119D02*
X157701283Y-68109214D01*
X158463188Y-67871119D02*
X159082235Y-67871119D01*
X159082235Y-67871119D02*
X158748902Y-68252071D01*
X158748902Y-68252071D02*
X158891759Y-68252071D01*
X158891759Y-68252071D02*
X158986997Y-68299690D01*
X158986997Y-68299690D02*
X159034616Y-68347309D01*
X159034616Y-68347309D02*
X159082235Y-68442547D01*
X159082235Y-68442547D02*
X159082235Y-68680642D01*
X159082235Y-68680642D02*
X159034616Y-68775880D01*
X159034616Y-68775880D02*
X158986997Y-68823500D01*
X158986997Y-68823500D02*
X158891759Y-68871119D01*
X158891759Y-68871119D02*
X158606045Y-68871119D01*
X158606045Y-68871119D02*
X158510807Y-68823500D01*
X158510807Y-68823500D02*
X158463188Y-68775880D01*
X159367950Y-67871119D02*
X159701283Y-68871119D01*
X159701283Y-68871119D02*
X160034616Y-67871119D01*
X160272712Y-67871119D02*
X160891759Y-67871119D01*
X160891759Y-67871119D02*
X160558426Y-68252071D01*
X160558426Y-68252071D02*
X160701283Y-68252071D01*
X160701283Y-68252071D02*
X160796521Y-68299690D01*
X160796521Y-68299690D02*
X160844140Y-68347309D01*
X160844140Y-68347309D02*
X160891759Y-68442547D01*
X160891759Y-68442547D02*
X160891759Y-68680642D01*
X160891759Y-68680642D02*
X160844140Y-68775880D01*
X160844140Y-68775880D02*
X160796521Y-68823500D01*
X160796521Y-68823500D02*
X160701283Y-68871119D01*
X160701283Y-68871119D02*
X160415569Y-68871119D01*
X160415569Y-68871119D02*
X160320331Y-68823500D01*
X160320331Y-68823500D02*
X160272712Y-68775880D01*
X161082236Y-68966357D02*
X161844140Y-68966357D01*
X162082236Y-68871119D02*
X162082236Y-67871119D01*
X162558426Y-68871119D02*
X162558426Y-67871119D01*
X162558426Y-67871119D02*
X163129854Y-68871119D01*
X163129854Y-68871119D02*
X163129854Y-67871119D01*
D12*
X170259201Y-126800317D02*
X170330629Y-126586032D01*
X170330629Y-126586032D02*
X170330629Y-126228889D01*
X170330629Y-126228889D02*
X170259201Y-126086032D01*
X170259201Y-126086032D02*
X170187772Y-126014603D01*
X170187772Y-126014603D02*
X170044915Y-125943174D01*
X170044915Y-125943174D02*
X169902058Y-125943174D01*
X169902058Y-125943174D02*
X169759201Y-126014603D01*
X169759201Y-126014603D02*
X169687772Y-126086032D01*
X169687772Y-126086032D02*
X169616343Y-126228889D01*
X169616343Y-126228889D02*
X169544915Y-126514603D01*
X169544915Y-126514603D02*
X169473486Y-126657460D01*
X169473486Y-126657460D02*
X169402058Y-126728889D01*
X169402058Y-126728889D02*
X169259201Y-126800317D01*
X169259201Y-126800317D02*
X169116343Y-126800317D01*
X169116343Y-126800317D02*
X168973486Y-126728889D01*
X168973486Y-126728889D02*
X168902058Y-126657460D01*
X168902058Y-126657460D02*
X168830629Y-126514603D01*
X168830629Y-126514603D02*
X168830629Y-126157460D01*
X168830629Y-126157460D02*
X168902058Y-125943174D01*
X169544915Y-125300318D02*
X169544915Y-124800318D01*
X170330629Y-124586032D02*
X170330629Y-125300318D01*
X170330629Y-125300318D02*
X168830629Y-125300318D01*
X168830629Y-125300318D02*
X168830629Y-124586032D01*
X170330629Y-123943175D02*
X168830629Y-123943175D01*
X168830629Y-123943175D02*
X170330629Y-123086032D01*
X170330629Y-123086032D02*
X168830629Y-123086032D01*
X170259201Y-122443174D02*
X170330629Y-122228889D01*
X170330629Y-122228889D02*
X170330629Y-121871746D01*
X170330629Y-121871746D02*
X170259201Y-121728889D01*
X170259201Y-121728889D02*
X170187772Y-121657460D01*
X170187772Y-121657460D02*
X170044915Y-121586031D01*
X170044915Y-121586031D02*
X169902058Y-121586031D01*
X169902058Y-121586031D02*
X169759201Y-121657460D01*
X169759201Y-121657460D02*
X169687772Y-121728889D01*
X169687772Y-121728889D02*
X169616343Y-121871746D01*
X169616343Y-121871746D02*
X169544915Y-122157460D01*
X169544915Y-122157460D02*
X169473486Y-122300317D01*
X169473486Y-122300317D02*
X169402058Y-122371746D01*
X169402058Y-122371746D02*
X169259201Y-122443174D01*
X169259201Y-122443174D02*
X169116343Y-122443174D01*
X169116343Y-122443174D02*
X168973486Y-122371746D01*
X168973486Y-122371746D02*
X168902058Y-122300317D01*
X168902058Y-122300317D02*
X168830629Y-122157460D01*
X168830629Y-122157460D02*
X168830629Y-121800317D01*
X168830629Y-121800317D02*
X168902058Y-121586031D01*
X168830629Y-120657460D02*
X168830629Y-120371746D01*
X168830629Y-120371746D02*
X168902058Y-120228889D01*
X168902058Y-120228889D02*
X169044915Y-120086032D01*
X169044915Y-120086032D02*
X169330629Y-120014603D01*
X169330629Y-120014603D02*
X169830629Y-120014603D01*
X169830629Y-120014603D02*
X170116343Y-120086032D01*
X170116343Y-120086032D02*
X170259201Y-120228889D01*
X170259201Y-120228889D02*
X170330629Y-120371746D01*
X170330629Y-120371746D02*
X170330629Y-120657460D01*
X170330629Y-120657460D02*
X170259201Y-120800318D01*
X170259201Y-120800318D02*
X170116343Y-120943175D01*
X170116343Y-120943175D02*
X169830629Y-121014603D01*
X169830629Y-121014603D02*
X169330629Y-121014603D01*
X169330629Y-121014603D02*
X169044915Y-120943175D01*
X169044915Y-120943175D02*
X168902058Y-120800318D01*
X168902058Y-120800318D02*
X168830629Y-120657460D01*
X170330629Y-118514603D02*
X169616343Y-119014603D01*
X170330629Y-119371746D02*
X168830629Y-119371746D01*
X168830629Y-119371746D02*
X168830629Y-118800317D01*
X168830629Y-118800317D02*
X168902058Y-118657460D01*
X168902058Y-118657460D02*
X168973486Y-118586031D01*
X168973486Y-118586031D02*
X169116343Y-118514603D01*
X169116343Y-118514603D02*
X169330629Y-118514603D01*
X169330629Y-118514603D02*
X169473486Y-118586031D01*
X169473486Y-118586031D02*
X169544915Y-118657460D01*
X169544915Y-118657460D02*
X169616343Y-118800317D01*
X169616343Y-118800317D02*
X169616343Y-119371746D01*
X170473486Y-118228889D02*
X170473486Y-117086031D01*
X168973486Y-116800317D02*
X168902058Y-116728889D01*
X168902058Y-116728889D02*
X168830629Y-116586032D01*
X168830629Y-116586032D02*
X168830629Y-116228889D01*
X168830629Y-116228889D02*
X168902058Y-116086032D01*
X168902058Y-116086032D02*
X168973486Y-116014603D01*
X168973486Y-116014603D02*
X169116343Y-115943174D01*
X169116343Y-115943174D02*
X169259201Y-115943174D01*
X169259201Y-115943174D02*
X169473486Y-116014603D01*
X169473486Y-116014603D02*
X170330629Y-116871746D01*
X170330629Y-116871746D02*
X170330629Y-115943174D01*
D10*
X157820331Y-131990166D02*
X158582236Y-131990166D01*
X158201283Y-132371119D02*
X158201283Y-131609214D01*
X159534616Y-131371119D02*
X159058426Y-131371119D01*
X159058426Y-131371119D02*
X159010807Y-131847309D01*
X159010807Y-131847309D02*
X159058426Y-131799690D01*
X159058426Y-131799690D02*
X159153664Y-131752071D01*
X159153664Y-131752071D02*
X159391759Y-131752071D01*
X159391759Y-131752071D02*
X159486997Y-131799690D01*
X159486997Y-131799690D02*
X159534616Y-131847309D01*
X159534616Y-131847309D02*
X159582235Y-131942547D01*
X159582235Y-131942547D02*
X159582235Y-132180642D01*
X159582235Y-132180642D02*
X159534616Y-132275880D01*
X159534616Y-132275880D02*
X159486997Y-132323500D01*
X159486997Y-132323500D02*
X159391759Y-132371119D01*
X159391759Y-132371119D02*
X159153664Y-132371119D01*
X159153664Y-132371119D02*
X159058426Y-132323500D01*
X159058426Y-132323500D02*
X159010807Y-132275880D01*
X159867950Y-131371119D02*
X160201283Y-132371119D01*
X160201283Y-132371119D02*
X160534616Y-131371119D01*
X159677474Y-72871119D02*
X160010807Y-73871119D01*
X160010807Y-73871119D02*
X160344140Y-72871119D01*
X161010807Y-73347309D02*
X161153664Y-73394928D01*
X161153664Y-73394928D02*
X161201283Y-73442547D01*
X161201283Y-73442547D02*
X161248902Y-73537785D01*
X161248902Y-73537785D02*
X161248902Y-73680642D01*
X161248902Y-73680642D02*
X161201283Y-73775880D01*
X161201283Y-73775880D02*
X161153664Y-73823500D01*
X161153664Y-73823500D02*
X161058426Y-73871119D01*
X161058426Y-73871119D02*
X160677474Y-73871119D01*
X160677474Y-73871119D02*
X160677474Y-72871119D01*
X160677474Y-72871119D02*
X161010807Y-72871119D01*
X161010807Y-72871119D02*
X161106045Y-72918738D01*
X161106045Y-72918738D02*
X161153664Y-72966357D01*
X161153664Y-72966357D02*
X161201283Y-73061595D01*
X161201283Y-73061595D02*
X161201283Y-73156833D01*
X161201283Y-73156833D02*
X161153664Y-73252071D01*
X161153664Y-73252071D02*
X161106045Y-73299690D01*
X161106045Y-73299690D02*
X161010807Y-73347309D01*
X161010807Y-73347309D02*
X160677474Y-73347309D01*
X161629855Y-73585404D02*
X162106045Y-73585404D01*
X161534617Y-73871119D02*
X161867950Y-72871119D01*
X161867950Y-72871119D02*
X162201283Y-73871119D01*
X162391760Y-72871119D02*
X162963188Y-72871119D01*
X162677474Y-73871119D02*
X162677474Y-72871119D01*
D12*
X167369400Y-56516917D02*
X167440828Y-56302632D01*
X167440828Y-56302632D02*
X167440828Y-55945489D01*
X167440828Y-55945489D02*
X167369400Y-55802632D01*
X167369400Y-55802632D02*
X167297971Y-55731203D01*
X167297971Y-55731203D02*
X167155114Y-55659774D01*
X167155114Y-55659774D02*
X167012257Y-55659774D01*
X167012257Y-55659774D02*
X166869400Y-55731203D01*
X166869400Y-55731203D02*
X166797971Y-55802632D01*
X166797971Y-55802632D02*
X166726542Y-55945489D01*
X166726542Y-55945489D02*
X166655114Y-56231203D01*
X166655114Y-56231203D02*
X166583685Y-56374060D01*
X166583685Y-56374060D02*
X166512257Y-56445489D01*
X166512257Y-56445489D02*
X166369400Y-56516917D01*
X166369400Y-56516917D02*
X166226542Y-56516917D01*
X166226542Y-56516917D02*
X166083685Y-56445489D01*
X166083685Y-56445489D02*
X166012257Y-56374060D01*
X166012257Y-56374060D02*
X165940828Y-56231203D01*
X165940828Y-56231203D02*
X165940828Y-55874060D01*
X165940828Y-55874060D02*
X166012257Y-55659774D01*
X167440828Y-55016918D02*
X165940828Y-55016918D01*
X165940828Y-55016918D02*
X165940828Y-54659775D01*
X165940828Y-54659775D02*
X166012257Y-54445489D01*
X166012257Y-54445489D02*
X166155114Y-54302632D01*
X166155114Y-54302632D02*
X166297971Y-54231203D01*
X166297971Y-54231203D02*
X166583685Y-54159775D01*
X166583685Y-54159775D02*
X166797971Y-54159775D01*
X166797971Y-54159775D02*
X167083685Y-54231203D01*
X167083685Y-54231203D02*
X167226542Y-54302632D01*
X167226542Y-54302632D02*
X167369400Y-54445489D01*
X167369400Y-54445489D02*
X167440828Y-54659775D01*
X167440828Y-54659775D02*
X167440828Y-55016918D01*
X167297971Y-51516918D02*
X167369400Y-51588346D01*
X167369400Y-51588346D02*
X167440828Y-51802632D01*
X167440828Y-51802632D02*
X167440828Y-51945489D01*
X167440828Y-51945489D02*
X167369400Y-52159775D01*
X167369400Y-52159775D02*
X167226542Y-52302632D01*
X167226542Y-52302632D02*
X167083685Y-52374061D01*
X167083685Y-52374061D02*
X166797971Y-52445489D01*
X166797971Y-52445489D02*
X166583685Y-52445489D01*
X166583685Y-52445489D02*
X166297971Y-52374061D01*
X166297971Y-52374061D02*
X166155114Y-52302632D01*
X166155114Y-52302632D02*
X166012257Y-52159775D01*
X166012257Y-52159775D02*
X165940828Y-51945489D01*
X165940828Y-51945489D02*
X165940828Y-51802632D01*
X165940828Y-51802632D02*
X166012257Y-51588346D01*
X166012257Y-51588346D02*
X166083685Y-51516918D01*
X167012257Y-50945489D02*
X167012257Y-50231204D01*
X167440828Y-51088346D02*
X165940828Y-50588346D01*
X165940828Y-50588346D02*
X167440828Y-50088346D01*
X167440828Y-48731204D02*
X166726542Y-49231204D01*
X167440828Y-49588347D02*
X165940828Y-49588347D01*
X165940828Y-49588347D02*
X165940828Y-49016918D01*
X165940828Y-49016918D02*
X166012257Y-48874061D01*
X166012257Y-48874061D02*
X166083685Y-48802632D01*
X166083685Y-48802632D02*
X166226542Y-48731204D01*
X166226542Y-48731204D02*
X166440828Y-48731204D01*
X166440828Y-48731204D02*
X166583685Y-48802632D01*
X166583685Y-48802632D02*
X166655114Y-48874061D01*
X166655114Y-48874061D02*
X166726542Y-49016918D01*
X166726542Y-49016918D02*
X166726542Y-49588347D01*
X167440828Y-48088347D02*
X165940828Y-48088347D01*
X165940828Y-48088347D02*
X165940828Y-47731204D01*
X165940828Y-47731204D02*
X166012257Y-47516918D01*
X166012257Y-47516918D02*
X166155114Y-47374061D01*
X166155114Y-47374061D02*
X166297971Y-47302632D01*
X166297971Y-47302632D02*
X166583685Y-47231204D01*
X166583685Y-47231204D02*
X166797971Y-47231204D01*
X166797971Y-47231204D02*
X167083685Y-47302632D01*
X167083685Y-47302632D02*
X167226542Y-47374061D01*
X167226542Y-47374061D02*
X167369400Y-47516918D01*
X167369400Y-47516918D02*
X167440828Y-47731204D01*
X167440828Y-47731204D02*
X167440828Y-48088347D01*
D13*
X153666666Y-64344819D02*
X153666666Y-65059104D01*
X153666666Y-65059104D02*
X153619047Y-65201961D01*
X153619047Y-65201961D02*
X153523809Y-65297200D01*
X153523809Y-65297200D02*
X153380952Y-65344819D01*
X153380952Y-65344819D02*
X153285714Y-65344819D01*
X154571428Y-64344819D02*
X154380952Y-64344819D01*
X154380952Y-64344819D02*
X154285714Y-64392438D01*
X154285714Y-64392438D02*
X154238095Y-64440057D01*
X154238095Y-64440057D02*
X154142857Y-64582914D01*
X154142857Y-64582914D02*
X154095238Y-64773390D01*
X154095238Y-64773390D02*
X154095238Y-65154342D01*
X154095238Y-65154342D02*
X154142857Y-65249580D01*
X154142857Y-65249580D02*
X154190476Y-65297200D01*
X154190476Y-65297200D02*
X154285714Y-65344819D01*
X154285714Y-65344819D02*
X154476190Y-65344819D01*
X154476190Y-65344819D02*
X154571428Y-65297200D01*
X154571428Y-65297200D02*
X154619047Y-65249580D01*
X154619047Y-65249580D02*
X154666666Y-65154342D01*
X154666666Y-65154342D02*
X154666666Y-64916247D01*
X154666666Y-64916247D02*
X154619047Y-64821009D01*
X154619047Y-64821009D02*
X154571428Y-64773390D01*
X154571428Y-64773390D02*
X154476190Y-64725771D01*
X154476190Y-64725771D02*
X154285714Y-64725771D01*
X154285714Y-64725771D02*
X154190476Y-64773390D01*
X154190476Y-64773390D02*
X154142857Y-64821009D01*
X154142857Y-64821009D02*
X154095238Y-64916247D01*
X160783333Y-56954819D02*
X160450000Y-56478628D01*
X160211905Y-56954819D02*
X160211905Y-55954819D01*
X160211905Y-55954819D02*
X160592857Y-55954819D01*
X160592857Y-55954819D02*
X160688095Y-56002438D01*
X160688095Y-56002438D02*
X160735714Y-56050057D01*
X160735714Y-56050057D02*
X160783333Y-56145295D01*
X160783333Y-56145295D02*
X160783333Y-56288152D01*
X160783333Y-56288152D02*
X160735714Y-56383390D01*
X160735714Y-56383390D02*
X160688095Y-56431009D01*
X160688095Y-56431009D02*
X160592857Y-56478628D01*
X160592857Y-56478628D02*
X160211905Y-56478628D01*
X161116667Y-55954819D02*
X161735714Y-55954819D01*
X161735714Y-55954819D02*
X161402381Y-56335771D01*
X161402381Y-56335771D02*
X161545238Y-56335771D01*
X161545238Y-56335771D02*
X161640476Y-56383390D01*
X161640476Y-56383390D02*
X161688095Y-56431009D01*
X161688095Y-56431009D02*
X161735714Y-56526247D01*
X161735714Y-56526247D02*
X161735714Y-56764342D01*
X161735714Y-56764342D02*
X161688095Y-56859580D01*
X161688095Y-56859580D02*
X161640476Y-56907200D01*
X161640476Y-56907200D02*
X161545238Y-56954819D01*
X161545238Y-56954819D02*
X161259524Y-56954819D01*
X161259524Y-56954819D02*
X161164286Y-56907200D01*
X161164286Y-56907200D02*
X161116667Y-56859580D01*
X148238095Y-98454819D02*
X148238095Y-99264342D01*
X148238095Y-99264342D02*
X148285714Y-99359580D01*
X148285714Y-99359580D02*
X148333333Y-99407200D01*
X148333333Y-99407200D02*
X148428571Y-99454819D01*
X148428571Y-99454819D02*
X148619047Y-99454819D01*
X148619047Y-99454819D02*
X148714285Y-99407200D01*
X148714285Y-99407200D02*
X148761904Y-99359580D01*
X148761904Y-99359580D02*
X148809523Y-99264342D01*
X148809523Y-99264342D02*
X148809523Y-98454819D01*
X149761904Y-98454819D02*
X149285714Y-98454819D01*
X149285714Y-98454819D02*
X149238095Y-98931009D01*
X149238095Y-98931009D02*
X149285714Y-98883390D01*
X149285714Y-98883390D02*
X149380952Y-98835771D01*
X149380952Y-98835771D02*
X149619047Y-98835771D01*
X149619047Y-98835771D02*
X149714285Y-98883390D01*
X149714285Y-98883390D02*
X149761904Y-98931009D01*
X149761904Y-98931009D02*
X149809523Y-99026247D01*
X149809523Y-99026247D02*
X149809523Y-99264342D01*
X149809523Y-99264342D02*
X149761904Y-99359580D01*
X149761904Y-99359580D02*
X149714285Y-99407200D01*
X149714285Y-99407200D02*
X149619047Y-99454819D01*
X149619047Y-99454819D02*
X149380952Y-99454819D01*
X149380952Y-99454819D02*
X149285714Y-99407200D01*
X149285714Y-99407200D02*
X149238095Y-99359580D01*
X153976190Y-40954819D02*
X154642856Y-41954819D01*
X154642856Y-40954819D02*
X153976190Y-41954819D01*
X154880952Y-40954819D02*
X155452380Y-40954819D01*
X155166666Y-41954819D02*
X155166666Y-40954819D01*
X155738095Y-41669104D02*
X156214285Y-41669104D01*
X155642857Y-41954819D02*
X155976190Y-40954819D01*
X155976190Y-40954819D02*
X156309523Y-41954819D01*
X157119047Y-41954819D02*
X156642857Y-41954819D01*
X156642857Y-41954819D02*
X156642857Y-40954819D01*
X157976190Y-41954819D02*
X157404762Y-41954819D01*
X157690476Y-41954819D02*
X157690476Y-40954819D01*
X157690476Y-40954819D02*
X157595238Y-41097676D01*
X157595238Y-41097676D02*
X157500000Y-41192914D01*
X157500000Y-41192914D02*
X157404762Y-41240533D01*
X160454819Y-127333333D02*
X161169104Y-127333333D01*
X161169104Y-127333333D02*
X161311961Y-127380952D01*
X161311961Y-127380952D02*
X161407200Y-127476190D01*
X161407200Y-127476190D02*
X161454819Y-127619047D01*
X161454819Y-127619047D02*
X161454819Y-127714285D01*
X160454819Y-126952380D02*
X160454819Y-126285714D01*
X160454819Y-126285714D02*
X161454819Y-126714285D01*
X160783333Y-59954819D02*
X160450000Y-59478628D01*
X160211905Y-59954819D02*
X160211905Y-58954819D01*
X160211905Y-58954819D02*
X160592857Y-58954819D01*
X160592857Y-58954819D02*
X160688095Y-59002438D01*
X160688095Y-59002438D02*
X160735714Y-59050057D01*
X160735714Y-59050057D02*
X160783333Y-59145295D01*
X160783333Y-59145295D02*
X160783333Y-59288152D01*
X160783333Y-59288152D02*
X160735714Y-59383390D01*
X160735714Y-59383390D02*
X160688095Y-59431009D01*
X160688095Y-59431009D02*
X160592857Y-59478628D01*
X160592857Y-59478628D02*
X160211905Y-59478628D01*
X161164286Y-59050057D02*
X161211905Y-59002438D01*
X161211905Y-59002438D02*
X161307143Y-58954819D01*
X161307143Y-58954819D02*
X161545238Y-58954819D01*
X161545238Y-58954819D02*
X161640476Y-59002438D01*
X161640476Y-59002438D02*
X161688095Y-59050057D01*
X161688095Y-59050057D02*
X161735714Y-59145295D01*
X161735714Y-59145295D02*
X161735714Y-59240533D01*
X161735714Y-59240533D02*
X161688095Y-59383390D01*
X161688095Y-59383390D02*
X161116667Y-59954819D01*
X161116667Y-59954819D02*
X161735714Y-59954819D01*
X150833333Y-61954819D02*
X150500000Y-61478628D01*
X150261905Y-61954819D02*
X150261905Y-60954819D01*
X150261905Y-60954819D02*
X150642857Y-60954819D01*
X150642857Y-60954819D02*
X150738095Y-61002438D01*
X150738095Y-61002438D02*
X150785714Y-61050057D01*
X150785714Y-61050057D02*
X150833333Y-61145295D01*
X150833333Y-61145295D02*
X150833333Y-61288152D01*
X150833333Y-61288152D02*
X150785714Y-61383390D01*
X150785714Y-61383390D02*
X150738095Y-61431009D01*
X150738095Y-61431009D02*
X150642857Y-61478628D01*
X150642857Y-61478628D02*
X150261905Y-61478628D01*
X151166667Y-60954819D02*
X151833333Y-60954819D01*
X151833333Y-60954819D02*
X151404762Y-61954819D01*
X160869333Y-63192819D02*
X160536000Y-62716628D01*
X160297905Y-63192819D02*
X160297905Y-62192819D01*
X160297905Y-62192819D02*
X160678857Y-62192819D01*
X160678857Y-62192819D02*
X160774095Y-62240438D01*
X160774095Y-62240438D02*
X160821714Y-62288057D01*
X160821714Y-62288057D02*
X160869333Y-62383295D01*
X160869333Y-62383295D02*
X160869333Y-62526152D01*
X160869333Y-62526152D02*
X160821714Y-62621390D01*
X160821714Y-62621390D02*
X160774095Y-62669009D01*
X160774095Y-62669009D02*
X160678857Y-62716628D01*
X160678857Y-62716628D02*
X160297905Y-62716628D01*
X161726476Y-62192819D02*
X161536000Y-62192819D01*
X161536000Y-62192819D02*
X161440762Y-62240438D01*
X161440762Y-62240438D02*
X161393143Y-62288057D01*
X161393143Y-62288057D02*
X161297905Y-62430914D01*
X161297905Y-62430914D02*
X161250286Y-62621390D01*
X161250286Y-62621390D02*
X161250286Y-63002342D01*
X161250286Y-63002342D02*
X161297905Y-63097580D01*
X161297905Y-63097580D02*
X161345524Y-63145200D01*
X161345524Y-63145200D02*
X161440762Y-63192819D01*
X161440762Y-63192819D02*
X161631238Y-63192819D01*
X161631238Y-63192819D02*
X161726476Y-63145200D01*
X161726476Y-63145200D02*
X161774095Y-63097580D01*
X161774095Y-63097580D02*
X161821714Y-63002342D01*
X161821714Y-63002342D02*
X161821714Y-62764247D01*
X161821714Y-62764247D02*
X161774095Y-62669009D01*
X161774095Y-62669009D02*
X161726476Y-62621390D01*
X161726476Y-62621390D02*
X161631238Y-62573771D01*
X161631238Y-62573771D02*
X161440762Y-62573771D01*
X161440762Y-62573771D02*
X161345524Y-62621390D01*
X161345524Y-62621390D02*
X161297905Y-62669009D01*
X161297905Y-62669009D02*
X161250286Y-62764247D01*
X162454819Y-80333333D02*
X163169104Y-80333333D01*
X163169104Y-80333333D02*
X163311961Y-80380952D01*
X163311961Y-80380952D02*
X163407200Y-80476190D01*
X163407200Y-80476190D02*
X163454819Y-80619047D01*
X163454819Y-80619047D02*
X163454819Y-80714285D01*
X162454819Y-79952380D02*
X162454819Y-79333333D01*
X162454819Y-79333333D02*
X162835771Y-79666666D01*
X162835771Y-79666666D02*
X162835771Y-79523809D01*
X162835771Y-79523809D02*
X162883390Y-79428571D01*
X162883390Y-79428571D02*
X162931009Y-79380952D01*
X162931009Y-79380952D02*
X163026247Y-79333333D01*
X163026247Y-79333333D02*
X163264342Y-79333333D01*
X163264342Y-79333333D02*
X163359580Y-79380952D01*
X163359580Y-79380952D02*
X163407200Y-79428571D01*
X163407200Y-79428571D02*
X163454819Y-79523809D01*
X163454819Y-79523809D02*
X163454819Y-79809523D01*
X163454819Y-79809523D02*
X163407200Y-79904761D01*
X163407200Y-79904761D02*
X163359580Y-79952380D01*
X146833333Y-53954819D02*
X146500000Y-53478628D01*
X146261905Y-53954819D02*
X146261905Y-52954819D01*
X146261905Y-52954819D02*
X146642857Y-52954819D01*
X146642857Y-52954819D02*
X146738095Y-53002438D01*
X146738095Y-53002438D02*
X146785714Y-53050057D01*
X146785714Y-53050057D02*
X146833333Y-53145295D01*
X146833333Y-53145295D02*
X146833333Y-53288152D01*
X146833333Y-53288152D02*
X146785714Y-53383390D01*
X146785714Y-53383390D02*
X146738095Y-53431009D01*
X146738095Y-53431009D02*
X146642857Y-53478628D01*
X146642857Y-53478628D02*
X146261905Y-53478628D01*
X147785714Y-53954819D02*
X147214286Y-53954819D01*
X147500000Y-53954819D02*
X147500000Y-52954819D01*
X147500000Y-52954819D02*
X147404762Y-53097676D01*
X147404762Y-53097676D02*
X147309524Y-53192914D01*
X147309524Y-53192914D02*
X147214286Y-53240533D01*
X139748095Y-45624819D02*
X139748095Y-46434342D01*
X139748095Y-46434342D02*
X139795714Y-46529580D01*
X139795714Y-46529580D02*
X139843333Y-46577200D01*
X139843333Y-46577200D02*
X139938571Y-46624819D01*
X139938571Y-46624819D02*
X140129047Y-46624819D01*
X140129047Y-46624819D02*
X140224285Y-46577200D01*
X140224285Y-46577200D02*
X140271904Y-46529580D01*
X140271904Y-46529580D02*
X140319523Y-46434342D01*
X140319523Y-46434342D02*
X140319523Y-45624819D01*
X140700476Y-45624819D02*
X141319523Y-45624819D01*
X141319523Y-45624819D02*
X140986190Y-46005771D01*
X140986190Y-46005771D02*
X141129047Y-46005771D01*
X141129047Y-46005771D02*
X141224285Y-46053390D01*
X141224285Y-46053390D02*
X141271904Y-46101009D01*
X141271904Y-46101009D02*
X141319523Y-46196247D01*
X141319523Y-46196247D02*
X141319523Y-46434342D01*
X141319523Y-46434342D02*
X141271904Y-46529580D01*
X141271904Y-46529580D02*
X141224285Y-46577200D01*
X141224285Y-46577200D02*
X141129047Y-46624819D01*
X141129047Y-46624819D02*
X140843333Y-46624819D01*
X140843333Y-46624819D02*
X140748095Y-46577200D01*
X140748095Y-46577200D02*
X140700476Y-46529580D01*
X132310476Y-106104819D02*
X132310476Y-106819104D01*
X132310476Y-106819104D02*
X132262857Y-106961961D01*
X132262857Y-106961961D02*
X132167619Y-107057200D01*
X132167619Y-107057200D02*
X132024762Y-107104819D01*
X132024762Y-107104819D02*
X131929524Y-107104819D01*
X133310476Y-107104819D02*
X132739048Y-107104819D01*
X133024762Y-107104819D02*
X133024762Y-106104819D01*
X133024762Y-106104819D02*
X132929524Y-106247676D01*
X132929524Y-106247676D02*
X132834286Y-106342914D01*
X132834286Y-106342914D02*
X132739048Y-106390533D01*
X134262857Y-107104819D02*
X133691429Y-107104819D01*
X133977143Y-107104819D02*
X133977143Y-106104819D01*
X133977143Y-106104819D02*
X133881905Y-106247676D01*
X133881905Y-106247676D02*
X133786667Y-106342914D01*
X133786667Y-106342914D02*
X133691429Y-106390533D01*
D11*
X158018771Y-93023809D02*
X157542580Y-93023809D01*
X158542580Y-92690476D02*
X158018771Y-93023809D01*
X158018771Y-93023809D02*
X158542580Y-93357142D01*
X158447342Y-93642857D02*
X158494961Y-93690476D01*
X158494961Y-93690476D02*
X158542580Y-93785714D01*
X158542580Y-93785714D02*
X158542580Y-94023809D01*
X158542580Y-94023809D02*
X158494961Y-94119047D01*
X158494961Y-94119047D02*
X158447342Y-94166666D01*
X158447342Y-94166666D02*
X158352104Y-94214285D01*
X158352104Y-94214285D02*
X158256866Y-94214285D01*
X158256866Y-94214285D02*
X158114009Y-94166666D01*
X158114009Y-94166666D02*
X157542580Y-93595238D01*
X157542580Y-93595238D02*
X157542580Y-94214285D01*
D13*
X131837801Y-102774612D02*
X131837801Y-103584448D01*
X131837801Y-103584448D02*
X131885438Y-103679723D01*
X131885438Y-103679723D02*
X131933076Y-103727361D01*
X131933076Y-103727361D02*
X132028350Y-103774998D01*
X132028350Y-103774998D02*
X132218900Y-103774998D01*
X132218900Y-103774998D02*
X132314175Y-103727361D01*
X132314175Y-103727361D02*
X132361812Y-103679723D01*
X132361812Y-103679723D02*
X132409450Y-103584448D01*
X132409450Y-103584448D02*
X132409450Y-102774612D01*
X132838186Y-102869887D02*
X132885824Y-102822249D01*
X132885824Y-102822249D02*
X132981099Y-102774612D01*
X132981099Y-102774612D02*
X133219286Y-102774612D01*
X133219286Y-102774612D02*
X133314561Y-102822249D01*
X133314561Y-102822249D02*
X133362198Y-102869887D01*
X133362198Y-102869887D02*
X133409835Y-102965162D01*
X133409835Y-102965162D02*
X133409835Y-103060437D01*
X133409835Y-103060437D02*
X133362198Y-103203349D01*
X133362198Y-103203349D02*
X132790549Y-103774998D01*
X132790549Y-103774998D02*
X133409835Y-103774998D01*
X160454819Y-141333333D02*
X161169104Y-141333333D01*
X161169104Y-141333333D02*
X161311961Y-141380952D01*
X161311961Y-141380952D02*
X161407200Y-141476190D01*
X161407200Y-141476190D02*
X161454819Y-141619047D01*
X161454819Y-141619047D02*
X161454819Y-141714285D01*
X161454819Y-140809523D02*
X161454819Y-140619047D01*
X161454819Y-140619047D02*
X161407200Y-140523809D01*
X161407200Y-140523809D02*
X161359580Y-140476190D01*
X161359580Y-140476190D02*
X161216723Y-140380952D01*
X161216723Y-140380952D02*
X161026247Y-140333333D01*
X161026247Y-140333333D02*
X160645295Y-140333333D01*
X160645295Y-140333333D02*
X160550057Y-140380952D01*
X160550057Y-140380952D02*
X160502438Y-140428571D01*
X160502438Y-140428571D02*
X160454819Y-140523809D01*
X160454819Y-140523809D02*
X160454819Y-140714285D01*
X160454819Y-140714285D02*
X160502438Y-140809523D01*
X160502438Y-140809523D02*
X160550057Y-140857142D01*
X160550057Y-140857142D02*
X160645295Y-140904761D01*
X160645295Y-140904761D02*
X160883390Y-140904761D01*
X160883390Y-140904761D02*
X160978628Y-140857142D01*
X160978628Y-140857142D02*
X161026247Y-140809523D01*
X161026247Y-140809523D02*
X161073866Y-140714285D01*
X161073866Y-140714285D02*
X161073866Y-140523809D01*
X161073866Y-140523809D02*
X161026247Y-140428571D01*
X161026247Y-140428571D02*
X160978628Y-140380952D01*
X160978628Y-140380952D02*
X160883390Y-140333333D01*
X168738095Y-39044819D02*
X168738095Y-39854342D01*
X168738095Y-39854342D02*
X168785714Y-39949580D01*
X168785714Y-39949580D02*
X168833333Y-39997200D01*
X168833333Y-39997200D02*
X168928571Y-40044819D01*
X168928571Y-40044819D02*
X169119047Y-40044819D01*
X169119047Y-40044819D02*
X169214285Y-39997200D01*
X169214285Y-39997200D02*
X169261904Y-39949580D01*
X169261904Y-39949580D02*
X169309523Y-39854342D01*
X169309523Y-39854342D02*
X169309523Y-39044819D01*
X170309523Y-40044819D02*
X169738095Y-40044819D01*
X170023809Y-40044819D02*
X170023809Y-39044819D01*
X170023809Y-39044819D02*
X169928571Y-39187676D01*
X169928571Y-39187676D02*
X169833333Y-39282914D01*
X169833333Y-39282914D02*
X169738095Y-39330533D01*
X140048095Y-84454819D02*
X140048095Y-85264342D01*
X140048095Y-85264342D02*
X140095714Y-85359580D01*
X140095714Y-85359580D02*
X140143333Y-85407200D01*
X140143333Y-85407200D02*
X140238571Y-85454819D01*
X140238571Y-85454819D02*
X140429047Y-85454819D01*
X140429047Y-85454819D02*
X140524285Y-85407200D01*
X140524285Y-85407200D02*
X140571904Y-85359580D01*
X140571904Y-85359580D02*
X140619523Y-85264342D01*
X140619523Y-85264342D02*
X140619523Y-84454819D01*
X141524285Y-84788152D02*
X141524285Y-85454819D01*
X141286190Y-84407200D02*
X141048095Y-85121485D01*
X141048095Y-85121485D02*
X141667142Y-85121485D01*
X146120000Y-95564819D02*
X146120000Y-95802914D01*
X145881905Y-95707676D02*
X146120000Y-95802914D01*
X146120000Y-95802914D02*
X146358095Y-95707676D01*
X145977143Y-95993390D02*
X146120000Y-95802914D01*
X146120000Y-95802914D02*
X146262857Y-95993390D01*
D11*
X148590476Y-117557419D02*
X148590476Y-118271704D01*
X148590476Y-118271704D02*
X148542857Y-118414561D01*
X148542857Y-118414561D02*
X148447619Y-118509800D01*
X148447619Y-118509800D02*
X148304762Y-118557419D01*
X148304762Y-118557419D02*
X148209524Y-118557419D01*
X149590476Y-118557419D02*
X149019048Y-118557419D01*
X149304762Y-118557419D02*
X149304762Y-117557419D01*
X149304762Y-117557419D02*
X149209524Y-117700276D01*
X149209524Y-117700276D02*
X149114286Y-117795514D01*
X149114286Y-117795514D02*
X149019048Y-117843133D01*
X150209524Y-117557419D02*
X150304762Y-117557419D01*
X150304762Y-117557419D02*
X150400000Y-117605038D01*
X150400000Y-117605038D02*
X150447619Y-117652657D01*
X150447619Y-117652657D02*
X150495238Y-117747895D01*
X150495238Y-117747895D02*
X150542857Y-117938371D01*
X150542857Y-117938371D02*
X150542857Y-118176466D01*
X150542857Y-118176466D02*
X150495238Y-118366942D01*
X150495238Y-118366942D02*
X150447619Y-118462180D01*
X150447619Y-118462180D02*
X150400000Y-118509800D01*
X150400000Y-118509800D02*
X150304762Y-118557419D01*
X150304762Y-118557419D02*
X150209524Y-118557419D01*
X150209524Y-118557419D02*
X150114286Y-118509800D01*
X150114286Y-118509800D02*
X150066667Y-118462180D01*
X150066667Y-118462180D02*
X150019048Y-118366942D01*
X150019048Y-118366942D02*
X149971429Y-118176466D01*
X149971429Y-118176466D02*
X149971429Y-117938371D01*
X149971429Y-117938371D02*
X150019048Y-117747895D01*
X150019048Y-117747895D02*
X150066667Y-117652657D01*
X150066667Y-117652657D02*
X150114286Y-117605038D01*
X150114286Y-117605038D02*
X150209524Y-117557419D01*
D13*
X147333333Y-63234580D02*
X147285714Y-63282200D01*
X147285714Y-63282200D02*
X147142857Y-63329819D01*
X147142857Y-63329819D02*
X147047619Y-63329819D01*
X147047619Y-63329819D02*
X146904762Y-63282200D01*
X146904762Y-63282200D02*
X146809524Y-63186961D01*
X146809524Y-63186961D02*
X146761905Y-63091723D01*
X146761905Y-63091723D02*
X146714286Y-62901247D01*
X146714286Y-62901247D02*
X146714286Y-62758390D01*
X146714286Y-62758390D02*
X146761905Y-62567914D01*
X146761905Y-62567914D02*
X146809524Y-62472676D01*
X146809524Y-62472676D02*
X146904762Y-62377438D01*
X146904762Y-62377438D02*
X147047619Y-62329819D01*
X147047619Y-62329819D02*
X147142857Y-62329819D01*
X147142857Y-62329819D02*
X147285714Y-62377438D01*
X147285714Y-62377438D02*
X147333333Y-62425057D01*
X147714286Y-62425057D02*
X147761905Y-62377438D01*
X147761905Y-62377438D02*
X147857143Y-62329819D01*
X147857143Y-62329819D02*
X148095238Y-62329819D01*
X148095238Y-62329819D02*
X148190476Y-62377438D01*
X148190476Y-62377438D02*
X148238095Y-62425057D01*
X148238095Y-62425057D02*
X148285714Y-62520295D01*
X148285714Y-62520295D02*
X148285714Y-62615533D01*
X148285714Y-62615533D02*
X148238095Y-62758390D01*
X148238095Y-62758390D02*
X147666667Y-63329819D01*
X147666667Y-63329819D02*
X148285714Y-63329819D01*
X114666666Y-127954819D02*
X114666666Y-128669104D01*
X114666666Y-128669104D02*
X114619047Y-128811961D01*
X114619047Y-128811961D02*
X114523809Y-128907200D01*
X114523809Y-128907200D02*
X114380952Y-128954819D01*
X114380952Y-128954819D02*
X114285714Y-128954819D01*
X115619047Y-127954819D02*
X115142857Y-127954819D01*
X115142857Y-127954819D02*
X115095238Y-128431009D01*
X115095238Y-128431009D02*
X115142857Y-128383390D01*
X115142857Y-128383390D02*
X115238095Y-128335771D01*
X115238095Y-128335771D02*
X115476190Y-128335771D01*
X115476190Y-128335771D02*
X115571428Y-128383390D01*
X115571428Y-128383390D02*
X115619047Y-128431009D01*
X115619047Y-128431009D02*
X115666666Y-128526247D01*
X115666666Y-128526247D02*
X115666666Y-128764342D01*
X115666666Y-128764342D02*
X115619047Y-128859580D01*
X115619047Y-128859580D02*
X115571428Y-128907200D01*
X115571428Y-128907200D02*
X115476190Y-128954819D01*
X115476190Y-128954819D02*
X115238095Y-128954819D01*
X115238095Y-128954819D02*
X115142857Y-128907200D01*
X115142857Y-128907200D02*
X115095238Y-128859580D01*
X160454819Y-113333333D02*
X161169104Y-113333333D01*
X161169104Y-113333333D02*
X161311961Y-113380952D01*
X161311961Y-113380952D02*
X161407200Y-113476190D01*
X161407200Y-113476190D02*
X161454819Y-113619047D01*
X161454819Y-113619047D02*
X161454819Y-113714285D01*
X160883390Y-112714285D02*
X160835771Y-112809523D01*
X160835771Y-112809523D02*
X160788152Y-112857142D01*
X160788152Y-112857142D02*
X160692914Y-112904761D01*
X160692914Y-112904761D02*
X160645295Y-112904761D01*
X160645295Y-112904761D02*
X160550057Y-112857142D01*
X160550057Y-112857142D02*
X160502438Y-112809523D01*
X160502438Y-112809523D02*
X160454819Y-112714285D01*
X160454819Y-112714285D02*
X160454819Y-112523809D01*
X160454819Y-112523809D02*
X160502438Y-112428571D01*
X160502438Y-112428571D02*
X160550057Y-112380952D01*
X160550057Y-112380952D02*
X160645295Y-112333333D01*
X160645295Y-112333333D02*
X160692914Y-112333333D01*
X160692914Y-112333333D02*
X160788152Y-112380952D01*
X160788152Y-112380952D02*
X160835771Y-112428571D01*
X160835771Y-112428571D02*
X160883390Y-112523809D01*
X160883390Y-112523809D02*
X160883390Y-112714285D01*
X160883390Y-112714285D02*
X160931009Y-112809523D01*
X160931009Y-112809523D02*
X160978628Y-112857142D01*
X160978628Y-112857142D02*
X161073866Y-112904761D01*
X161073866Y-112904761D02*
X161264342Y-112904761D01*
X161264342Y-112904761D02*
X161359580Y-112857142D01*
X161359580Y-112857142D02*
X161407200Y-112809523D01*
X161407200Y-112809523D02*
X161454819Y-112714285D01*
X161454819Y-112714285D02*
X161454819Y-112523809D01*
X161454819Y-112523809D02*
X161407200Y-112428571D01*
X161407200Y-112428571D02*
X161359580Y-112380952D01*
X161359580Y-112380952D02*
X161264342Y-112333333D01*
X161264342Y-112333333D02*
X161073866Y-112333333D01*
X161073866Y-112333333D02*
X160978628Y-112380952D01*
X160978628Y-112380952D02*
X160931009Y-112428571D01*
X160931009Y-112428571D02*
X160883390Y-112523809D01*
X160833333Y-53954819D02*
X160500000Y-53478628D01*
X160261905Y-53954819D02*
X160261905Y-52954819D01*
X160261905Y-52954819D02*
X160642857Y-52954819D01*
X160642857Y-52954819D02*
X160738095Y-53002438D01*
X160738095Y-53002438D02*
X160785714Y-53050057D01*
X160785714Y-53050057D02*
X160833333Y-53145295D01*
X160833333Y-53145295D02*
X160833333Y-53288152D01*
X160833333Y-53288152D02*
X160785714Y-53383390D01*
X160785714Y-53383390D02*
X160738095Y-53431009D01*
X160738095Y-53431009D02*
X160642857Y-53478628D01*
X160642857Y-53478628D02*
X160261905Y-53478628D01*
X161690476Y-53288152D02*
X161690476Y-53954819D01*
X161452381Y-52907200D02*
X161214286Y-53621485D01*
X161214286Y-53621485D02*
X161833333Y-53621485D01*
X146833333Y-56954819D02*
X146500000Y-56478628D01*
X146261905Y-56954819D02*
X146261905Y-55954819D01*
X146261905Y-55954819D02*
X146642857Y-55954819D01*
X146642857Y-55954819D02*
X146738095Y-56002438D01*
X146738095Y-56002438D02*
X146785714Y-56050057D01*
X146785714Y-56050057D02*
X146833333Y-56145295D01*
X146833333Y-56145295D02*
X146833333Y-56288152D01*
X146833333Y-56288152D02*
X146785714Y-56383390D01*
X146785714Y-56383390D02*
X146738095Y-56431009D01*
X146738095Y-56431009D02*
X146642857Y-56478628D01*
X146642857Y-56478628D02*
X146261905Y-56478628D01*
X147738095Y-55954819D02*
X147261905Y-55954819D01*
X147261905Y-55954819D02*
X147214286Y-56431009D01*
X147214286Y-56431009D02*
X147261905Y-56383390D01*
X147261905Y-56383390D02*
X147357143Y-56335771D01*
X147357143Y-56335771D02*
X147595238Y-56335771D01*
X147595238Y-56335771D02*
X147690476Y-56383390D01*
X147690476Y-56383390D02*
X147738095Y-56431009D01*
X147738095Y-56431009D02*
X147785714Y-56526247D01*
X147785714Y-56526247D02*
X147785714Y-56764342D01*
X147785714Y-56764342D02*
X147738095Y-56859580D01*
X147738095Y-56859580D02*
X147690476Y-56907200D01*
X147690476Y-56907200D02*
X147595238Y-56954819D01*
X147595238Y-56954819D02*
X147357143Y-56954819D01*
X147357143Y-56954819D02*
X147261905Y-56907200D01*
X147261905Y-56907200D02*
X147214286Y-56859580D01*
X160454819Y-98809523D02*
X161169104Y-98809523D01*
X161169104Y-98809523D02*
X161311961Y-98857142D01*
X161311961Y-98857142D02*
X161407200Y-98952380D01*
X161407200Y-98952380D02*
X161454819Y-99095237D01*
X161454819Y-99095237D02*
X161454819Y-99190475D01*
X161454819Y-97809523D02*
X161454819Y-98380951D01*
X161454819Y-98095237D02*
X160454819Y-98095237D01*
X160454819Y-98095237D02*
X160597676Y-98190475D01*
X160597676Y-98190475D02*
X160692914Y-98285713D01*
X160692914Y-98285713D02*
X160740533Y-98380951D01*
X160550057Y-97428570D02*
X160502438Y-97380951D01*
X160502438Y-97380951D02*
X160454819Y-97285713D01*
X160454819Y-97285713D02*
X160454819Y-97047618D01*
X160454819Y-97047618D02*
X160502438Y-96952380D01*
X160502438Y-96952380D02*
X160550057Y-96904761D01*
X160550057Y-96904761D02*
X160645295Y-96857142D01*
X160645295Y-96857142D02*
X160740533Y-96857142D01*
X160740533Y-96857142D02*
X160883390Y-96904761D01*
X160883390Y-96904761D02*
X161454819Y-97476189D01*
X161454819Y-97476189D02*
X161454819Y-96857142D01*
X124166666Y-127954819D02*
X124166666Y-128669104D01*
X124166666Y-128669104D02*
X124119047Y-128811961D01*
X124119047Y-128811961D02*
X124023809Y-128907200D01*
X124023809Y-128907200D02*
X123880952Y-128954819D01*
X123880952Y-128954819D02*
X123785714Y-128954819D01*
X125166666Y-128954819D02*
X124595238Y-128954819D01*
X124880952Y-128954819D02*
X124880952Y-127954819D01*
X124880952Y-127954819D02*
X124785714Y-128097676D01*
X124785714Y-128097676D02*
X124690476Y-128192914D01*
X124690476Y-128192914D02*
X124595238Y-128240533D01*
X105166666Y-127954819D02*
X105166666Y-128669104D01*
X105166666Y-128669104D02*
X105119047Y-128811961D01*
X105119047Y-128811961D02*
X105023809Y-128907200D01*
X105023809Y-128907200D02*
X104880952Y-128954819D01*
X104880952Y-128954819D02*
X104785714Y-128954819D01*
X106071428Y-128288152D02*
X106071428Y-128954819D01*
X105833333Y-127907200D02*
X105595238Y-128621485D01*
X105595238Y-128621485D02*
X106214285Y-128621485D01*
X133666666Y-127954819D02*
X133666666Y-128669104D01*
X133666666Y-128669104D02*
X133619047Y-128811961D01*
X133619047Y-128811961D02*
X133523809Y-128907200D01*
X133523809Y-128907200D02*
X133380952Y-128954819D01*
X133380952Y-128954819D02*
X133285714Y-128954819D01*
X134095238Y-128050057D02*
X134142857Y-128002438D01*
X134142857Y-128002438D02*
X134238095Y-127954819D01*
X134238095Y-127954819D02*
X134476190Y-127954819D01*
X134476190Y-127954819D02*
X134571428Y-128002438D01*
X134571428Y-128002438D02*
X134619047Y-128050057D01*
X134619047Y-128050057D02*
X134666666Y-128145295D01*
X134666666Y-128145295D02*
X134666666Y-128240533D01*
X134666666Y-128240533D02*
X134619047Y-128383390D01*
X134619047Y-128383390D02*
X134047619Y-128954819D01*
X134047619Y-128954819D02*
X134666666Y-128954819D01*
D11*
%TO.C,J6*%
X157000000Y-68120000D02*
X156000000Y-67120000D01*
X157000000Y-66220000D01*
X157000000Y-68120000D01*
G36*
X157000000Y-68120000D02*
G01*
X156000000Y-67120000D01*
X157000000Y-66220000D01*
X157000000Y-68120000D01*
G37*
D14*
X152670000Y-65890000D02*
X154000000Y-65890000D01*
X152670000Y-67220000D02*
X152670000Y-65890000D01*
X152670000Y-68490000D02*
X152670000Y-86330000D01*
X152670000Y-68490000D02*
X155330000Y-68490000D01*
X152670000Y-86330000D02*
X155330000Y-86330000D01*
X155330000Y-68490000D02*
X155330000Y-86330000D01*
%TO.C,R3*%
X156322936Y-55590000D02*
X157777064Y-55590000D01*
X156322936Y-57410000D02*
X157777064Y-57410000D01*
D15*
%TO.C,U5*%
X143642500Y-99874400D02*
X143642500Y-104827400D01*
X143642500Y-104827400D02*
X154437500Y-104827400D01*
X154310500Y-103506600D02*
X143769500Y-103506600D01*
X154437500Y-99874400D02*
X143642500Y-99874400D01*
X154437500Y-104827400D02*
X154437500Y-99874400D01*
X156418700Y-101500000D02*
G75*
G02*
X156012300Y-101500000I-203200J0D01*
G01*
X156012300Y-101500000D02*
G75*
G02*
X156418700Y-101500000I203200J0D01*
G01*
%TO.C,XTAL1*%
X148126000Y-43500000D02*
X149396000Y-43500000D01*
X148761000Y-42865000D02*
X148761000Y-44135000D01*
X162477000Y-43500000D02*
G75*
G02*
X149523000Y-43500000I-6477000J0D01*
G01*
X149523000Y-43500000D02*
G75*
G02*
X162477000Y-43500000I6477000J0D01*
G01*
%TO.C,J7*%
X162002800Y-115208800D02*
X162002800Y-127858000D01*
X162002800Y-127858000D02*
X167997200Y-127858000D01*
X167997200Y-115208800D02*
X162002800Y-115208800D01*
X167997200Y-127858000D02*
X167997200Y-115208800D01*
D16*
X165910801Y-114573800D02*
G75*
G02*
X165148801Y-114573800I-381000J0D01*
G01*
X165148801Y-114573800D02*
G75*
G02*
X165910801Y-114573800I381000J0D01*
G01*
D14*
%TO.C,R2*%
X157777064Y-58590000D02*
X156322936Y-58590000D01*
X157777064Y-60410000D02*
X156322936Y-60410000D01*
%TO.C,R7*%
X150322936Y-58590000D02*
X151777064Y-58590000D01*
X150322936Y-60410000D02*
X151777064Y-60410000D01*
%TO.C,R6*%
X157727064Y-61590000D02*
X156272936Y-61590000D01*
X157727064Y-63410000D02*
X156272936Y-63410000D01*
D15*
%TO.C,J3*%
X163972999Y-65918100D02*
X163972999Y-81081900D01*
X163972999Y-81081900D02*
X169967399Y-81081900D01*
X169967399Y-65918100D02*
X163972999Y-65918100D01*
X169967399Y-81081900D02*
X169967399Y-65918100D01*
D16*
X167881000Y-65283100D02*
G75*
G02*
X167119000Y-65283100I-381000J0D01*
G01*
X167119000Y-65283100D02*
G75*
G02*
X167881000Y-65283100I381000J0D01*
G01*
D14*
%TO.C,R1*%
X151727064Y-52590000D02*
X150272936Y-52590000D01*
X151727064Y-54410000D02*
X150272936Y-54410000D01*
%TO.C,U3*%
X137860000Y-47170000D02*
X137860000Y-82850000D01*
X137860000Y-82850000D02*
X143160000Y-82850000D01*
X139510000Y-47170000D02*
X137860000Y-47170000D01*
X143160000Y-47170000D02*
X141510000Y-47170000D01*
X143160000Y-82850000D02*
X143160000Y-47170000D01*
X141510000Y-47170000D02*
G75*
G02*
X139510000Y-47170000I-1000000J0D01*
G01*
%TO.C,J11*%
X127410000Y-108090000D02*
X127410000Y-118370000D01*
X127410000Y-108090000D02*
X136040000Y-108090000D01*
X127410000Y-108210000D02*
X136040000Y-108210000D01*
X127410000Y-108328095D02*
X136040000Y-108328095D01*
X127410000Y-108446190D02*
X136040000Y-108446190D01*
X127410000Y-108564285D02*
X136040000Y-108564285D01*
X127410000Y-108682380D02*
X136040000Y-108682380D01*
X127410000Y-108800475D02*
X136040000Y-108800475D01*
X127410000Y-108918570D02*
X136040000Y-108918570D01*
X127410000Y-109036665D02*
X136040000Y-109036665D01*
X127410000Y-109154760D02*
X136040000Y-109154760D01*
X127410000Y-109272855D02*
X136040000Y-109272855D01*
X127410000Y-109390950D02*
X136040000Y-109390950D01*
X127410000Y-109509045D02*
X136040000Y-109509045D01*
X127410000Y-109627140D02*
X136040000Y-109627140D01*
X127410000Y-109745235D02*
X136040000Y-109745235D01*
X127410000Y-109863330D02*
X136040000Y-109863330D01*
X127410000Y-109981425D02*
X136040000Y-109981425D01*
X127410000Y-110099520D02*
X136040000Y-110099520D01*
X127410000Y-110217615D02*
X136040000Y-110217615D01*
X127410000Y-110335710D02*
X136040000Y-110335710D01*
X127410000Y-110453805D02*
X136040000Y-110453805D01*
X127410000Y-110571900D02*
X136040000Y-110571900D01*
X127410000Y-110690000D02*
X136040000Y-110690000D01*
X127410000Y-113230000D02*
X136040000Y-113230000D01*
X127410000Y-115770000D02*
X136040000Y-115770000D01*
X127410000Y-118370000D02*
X136040000Y-118370000D01*
X136040000Y-108090000D02*
X136040000Y-118370000D01*
X136040000Y-109060000D02*
X136390000Y-109060000D01*
X136040000Y-109780000D02*
X136390000Y-109780000D01*
X136040000Y-111600000D02*
X136450000Y-111600000D01*
X136040000Y-112320000D02*
X136450000Y-112320000D01*
X136040000Y-114140000D02*
X136450000Y-114140000D01*
X136040000Y-114860000D02*
X136450000Y-114860000D01*
X136040000Y-116680000D02*
X136450000Y-116680000D01*
X136040000Y-117400000D02*
X136450000Y-117400000D01*
X137500000Y-108090000D02*
X138610000Y-108090000D01*
X138610000Y-108090000D02*
X138610000Y-109420000D01*
D17*
X104910000Y-103240000D02*
X124910000Y-103240000D01*
X124910000Y-123240000D01*
X104910000Y-123240000D01*
X104910000Y-103240000D01*
D12*
X124910000Y-108090000D02*
X127410000Y-108090000D01*
X127410000Y-118390000D01*
X124910000Y-118390000D01*
X124910000Y-108090000D01*
D11*
%TO.C,Y2*%
X150200000Y-92800000D02*
X150200000Y-93000000D01*
X150200000Y-93000000D02*
X151000000Y-93000000D01*
X150200000Y-94100000D02*
X150200000Y-94200000D01*
X150200000Y-94200000D02*
X150200000Y-94300000D01*
X150200000Y-94300000D02*
X151000000Y-94300000D01*
X151000000Y-92800000D02*
X150200000Y-92800000D01*
X151000000Y-92900000D02*
X150200000Y-92900000D01*
X151000000Y-93000000D02*
X151000000Y-92800000D01*
X151000000Y-94100000D02*
X150200000Y-94100000D01*
X151000000Y-94200000D02*
X150200000Y-94200000D01*
X151000000Y-94200000D02*
X150200000Y-94200000D01*
X157225400Y-92300000D02*
X151000000Y-92300000D01*
X151000000Y-94700000D01*
X157225400Y-94700000D01*
X157225400Y-92300000D01*
D18*
%TO.C,U2*%
X105350000Y-47750000D02*
X133250000Y-47750000D01*
X105350000Y-102150000D02*
X105350000Y-47750000D01*
X133250000Y-47750000D02*
X133250000Y-102150000D01*
X133250000Y-102150000D02*
X105350000Y-102150000D01*
D19*
X134000000Y-94760000D02*
G75*
G02*
X133800000Y-94760000I-100000J0D01*
G01*
X133800000Y-94760000D02*
G75*
G02*
X134000000Y-94760000I100000J0D01*
G01*
D15*
%TO.C,J9*%
X162002800Y-129208800D02*
X162002800Y-141858000D01*
X162002800Y-141858000D02*
X167997200Y-141858000D01*
X167997200Y-129208800D02*
X162002800Y-129208800D01*
X167997200Y-141858000D02*
X167997200Y-129208800D01*
D16*
X165910801Y-128573800D02*
G75*
G02*
X165148801Y-128573800I-381000J0D01*
G01*
X165148801Y-128573800D02*
G75*
G02*
X165910801Y-128573800I381000J0D01*
G01*
D14*
%TO.C,U1*%
X168170000Y-40590000D02*
X169500000Y-40590000D01*
X168170000Y-41920000D02*
X168170000Y-40590000D01*
X168170000Y-43190000D02*
X168170000Y-63570000D01*
X168170000Y-43190000D02*
X170830000Y-43190000D01*
X168170000Y-63570000D02*
X170830000Y-63570000D01*
X170830000Y-43190000D02*
X170830000Y-63570000D01*
D15*
%TO.C,U4*%
X137127000Y-85793000D02*
X137127000Y-86115439D01*
X137127000Y-88264561D02*
X137127000Y-88655439D01*
X137127000Y-90804561D02*
X137127000Y-91195439D01*
X137127000Y-93344561D02*
X137127000Y-93735439D01*
X137127000Y-95884561D02*
X137127000Y-96207000D01*
X137127000Y-96207000D02*
X144493000Y-96207000D01*
X144493000Y-85793000D02*
X137127000Y-85793000D01*
X144493000Y-86115439D02*
X144493000Y-85793000D01*
X144493000Y-88655439D02*
X144493000Y-88264561D01*
X144493000Y-91195439D02*
X144493000Y-90804561D01*
X144493000Y-93727960D02*
X144493000Y-93344561D01*
X144493000Y-96207000D02*
X144493000Y-95892040D01*
D14*
%TO.C,J10*%
X143300000Y-112915000D02*
X143300000Y-111385000D01*
X143590000Y-108290000D02*
X154910000Y-108290000D01*
X143590000Y-117200000D02*
X143590000Y-108290000D01*
X154910000Y-108290000D02*
X154910000Y-117200000D01*
%TO.C,C2*%
X146590000Y-67148752D02*
X146590000Y-65726248D01*
X148410000Y-67148752D02*
X148410000Y-65726248D01*
D15*
%TO.C,J5*%
X114465600Y-129423000D02*
X114465600Y-137077000D01*
X114465600Y-137077000D02*
X120460000Y-137077000D01*
X120460000Y-129423000D02*
X114465600Y-129423000D01*
X120460000Y-137077000D02*
X120460000Y-129423000D01*
D16*
X118373601Y-128788000D02*
G75*
G02*
X117611601Y-128788000I-381000J0D01*
G01*
X117611601Y-128788000D02*
G75*
G02*
X118373601Y-128788000I381000J0D01*
G01*
D15*
%TO.C,J8*%
X162002800Y-101208800D02*
X162002800Y-113858000D01*
X162002800Y-113858000D02*
X167997200Y-113858000D01*
X167997200Y-101208800D02*
X162002800Y-101208800D01*
X167997200Y-113858000D02*
X167997200Y-101208800D01*
D16*
X165910801Y-100573800D02*
G75*
G02*
X165148801Y-100573800I-381000J0D01*
G01*
X165148801Y-100573800D02*
G75*
G02*
X165910801Y-100573800I381000J0D01*
G01*
D14*
%TO.C,R4*%
X156272936Y-52590000D02*
X157727064Y-52590000D01*
X156272936Y-54410000D02*
X157727064Y-54410000D01*
%TO.C,R5*%
X151727064Y-55590000D02*
X150272936Y-55590000D01*
X151727064Y-57410000D02*
X150272936Y-57410000D01*
D15*
%TO.C,J12*%
X161972999Y-91923000D02*
X161972999Y-99577000D01*
X161972999Y-99577000D02*
X167967399Y-99577000D01*
X167967399Y-91923000D02*
X161972999Y-91923000D01*
X167967399Y-99577000D02*
X167967399Y-91923000D01*
D16*
X165881000Y-91288000D02*
G75*
G02*
X165119000Y-91288000I-381000J0D01*
G01*
X165119000Y-91288000D02*
G75*
G02*
X165881000Y-91288000I381000J0D01*
G01*
D15*
%TO.C,J1*%
X123935799Y-129357700D02*
X123935799Y-137011700D01*
X123935799Y-137011700D02*
X129930199Y-137011700D01*
X129930199Y-129357700D02*
X123935799Y-129357700D01*
X129930199Y-137011700D02*
X129930199Y-129357700D01*
D16*
X127843800Y-128722700D02*
G75*
G02*
X127081800Y-128722700I-381000J0D01*
G01*
X127081800Y-128722700D02*
G75*
G02*
X127843800Y-128722700I381000J0D01*
G01*
D15*
%TO.C,J4*%
X104972999Y-129423000D02*
X104972999Y-137077000D01*
X104972999Y-137077000D02*
X110967399Y-137077000D01*
X110967399Y-129423000D02*
X104972999Y-129423000D01*
X110967399Y-137077000D02*
X110967399Y-129423000D01*
D16*
X108881000Y-128788000D02*
G75*
G02*
X108119000Y-128788000I-381000J0D01*
G01*
X108119000Y-128788000D02*
G75*
G02*
X108881000Y-128788000I381000J0D01*
G01*
D15*
%TO.C,J2*%
X133472999Y-129206400D02*
X133472999Y-136860400D01*
X133472999Y-136860400D02*
X139467399Y-136860400D01*
X139467399Y-129206400D02*
X133472999Y-129206400D01*
X139467399Y-136860400D02*
X139467399Y-129206400D01*
D16*
X137381000Y-128571400D02*
G75*
G02*
X136619000Y-128571400I-381000J0D01*
G01*
X136619000Y-128571400D02*
G75*
G02*
X137381000Y-128571400I381000J0D01*
G01*
%TD*%
M02*
