%TF.GenerationSoftware,KiCad,Pcbnew,8.0.6*%
%TF.CreationDate,2025-02-14T11:57:35-07:00*%
%TF.ProjectId,Capstone_DataLogger,43617073-746f-46e6-955f-446174614c6f,rev?*%
%TF.SameCoordinates,Original*%
%TF.FileFunction,Soldermask,Top*%
%TF.FilePolarity,Negative*%
%FSLAX46Y46*%
G04 Gerber Fmt 4.6, Leading zero omitted, Abs format (unit mm)*
G04 Created by KiCad (PCBNEW 8.0.6) date 2025-02-14 11:57:35*
%MOMM*%
%LPD*%
G01*
G04 APERTURE LIST*
G04 Aperture macros list*
%AMRoundRect*
0 Rectangle with rounded corners*
0 $1 Rounding radius*
0 $2 $3 $4 $5 $6 $7 $8 $9 X,Y pos of 4 corners*
0 Add a 4 corners polygon primitive as box body*
4,1,4,$2,$3,$4,$5,$6,$7,$8,$9,$2,$3,0*
0 Add four circle primitives for the rounded corners*
1,1,$1+$1,$2,$3*
1,1,$1+$1,$4,$5*
1,1,$1+$1,$6,$7*
1,1,$1+$1,$8,$9*
0 Add four rect primitives between the rounded corners*
20,1,$1+$1,$2,$3,$4,$5,0*
20,1,$1+$1,$4,$5,$6,$7,0*
20,1,$1+$1,$6,$7,$8,$9,0*
20,1,$1+$1,$8,$9,$2,$3,0*%
G04 Aperture macros list end*
%ADD10RoundRect,0.250000X-0.400000X-0.625000X0.400000X-0.625000X0.400000X0.625000X-0.400000X0.625000X0*%
%ADD11R,1.422400X1.422400*%
%ADD12C,1.422400*%
%ADD13C,1.752600*%
%ADD14R,1.700000X1.700000*%
%ADD15O,1.700000X1.700000*%
%ADD16RoundRect,0.250000X0.400000X0.625000X-0.400000X0.625000X-0.400000X-0.625000X0.400000X-0.625000X0*%
%ADD17C,1.498600*%
%ADD18R,1.600000X1.600000*%
%ADD19O,1.600000X1.600000*%
%ADD20C,1.524000*%
%ADD21RoundRect,0.102000X-0.780000X-0.780000X0.780000X-0.780000X0.780000X0.780000X-0.780000X0.780000X0*%
%ADD22C,1.764000*%
%ADD23RoundRect,0.250000X-0.650000X0.350000X-0.650000X-0.350000X0.650000X-0.350000X0.650000X0.350000X0*%
%ADD24O,1.800000X1.200000*%
%ADD25R,1.498600X1.498600*%
%ADD26C,3.250000*%
%ADD27RoundRect,0.250000X-0.650000X-0.650000X0.650000X-0.650000X0.650000X0.650000X-0.650000X0.650000X0*%
%ADD28C,1.800000*%
%ADD29RoundRect,0.250000X0.650000X-0.412500X0.650000X0.412500X-0.650000X0.412500X-0.650000X-0.412500X0*%
G04 APERTURE END LIST*
D10*
%TO.C,R3*%
X155500000Y-56500000D03*
X158600000Y-56500000D03*
%TD*%
D11*
%TO.C,XTAL1*%
X153500000Y-43500000D03*
D12*
X158500000Y-43500000D03*
%TD*%
D13*
%TO.C,J7*%
X165529801Y-117783400D03*
X165529801Y-120283400D03*
X165529801Y-122783400D03*
X165529801Y-125283400D03*
%TD*%
D14*
%TO.C,J6*%
X151979386Y-67340000D03*
D15*
X151979386Y-69880000D03*
X151979386Y-72420000D03*
X151979386Y-74960000D03*
X151979386Y-77500000D03*
X151979386Y-80040000D03*
X151979386Y-82580000D03*
X151979386Y-85120000D03*
%TD*%
D16*
%TO.C,R2*%
X158600000Y-59500000D03*
X155500000Y-59500000D03*
%TD*%
D10*
%TO.C,R7*%
X149500000Y-59500000D03*
X152600000Y-59500000D03*
%TD*%
D17*
%TO.C,J3*%
X167500000Y-68500000D03*
X167500000Y-71000000D03*
X167500000Y-73500000D03*
X167500000Y-76000000D03*
X167500000Y-78500000D03*
%TD*%
D16*
%TO.C,R1*%
X152550000Y-53500000D03*
X149450000Y-53500000D03*
%TD*%
D18*
%TO.C,U3*%
X137000000Y-44760000D03*
D19*
X137000000Y-47300000D03*
X137000000Y-49840000D03*
X137000000Y-52380000D03*
X137000000Y-54920000D03*
X137000000Y-57460000D03*
X137000000Y-60000000D03*
X137000000Y-62540000D03*
X137000000Y-65080000D03*
X137000000Y-67620000D03*
X137000000Y-70160000D03*
X137000000Y-72700000D03*
X137000000Y-75240000D03*
X137000000Y-77780000D03*
X144620000Y-77780000D03*
X144620000Y-75240000D03*
X144620000Y-72700000D03*
X144620000Y-70160000D03*
X144620000Y-67620000D03*
X144620000Y-65080000D03*
X144620000Y-62540000D03*
X144620000Y-60000000D03*
X144620000Y-57460000D03*
X144620000Y-54920000D03*
X144620000Y-52380000D03*
X144620000Y-49840000D03*
X144620000Y-47300000D03*
X144620000Y-44760000D03*
%TD*%
D14*
%TO.C,J11*%
X137500000Y-109420000D03*
D15*
X137500000Y-111960000D03*
X137500000Y-114500000D03*
X137500000Y-117040000D03*
%TD*%
D20*
%TO.C,Y2*%
X148500000Y-94770000D03*
X148500000Y-92230000D03*
%TD*%
D21*
%TO.C,U2*%
X106600000Y-49060000D03*
D22*
X106600000Y-51600000D03*
X106600000Y-54140000D03*
X106600000Y-56680000D03*
X106600000Y-59220000D03*
X106600000Y-61760000D03*
X106600000Y-64300000D03*
X106600000Y-66840000D03*
X106600000Y-69380000D03*
X106600000Y-71920000D03*
X106600000Y-74460000D03*
X106600000Y-77000000D03*
X106600000Y-79540000D03*
X106600000Y-82080000D03*
X106600000Y-84620000D03*
X106600000Y-87160000D03*
X106600000Y-89700000D03*
X106600000Y-92240000D03*
X106600000Y-94780000D03*
X132000000Y-49060000D03*
X132000000Y-51600000D03*
X132000000Y-54140000D03*
X132000000Y-56680000D03*
X132000000Y-59220000D03*
X132000000Y-61760000D03*
X132000000Y-64300000D03*
X132000000Y-66840000D03*
X132000000Y-69380000D03*
X132000000Y-71920000D03*
X132000000Y-74460000D03*
X132000000Y-77000000D03*
X132000000Y-79540000D03*
X132000000Y-82080000D03*
X132000000Y-84620000D03*
X132000000Y-87160000D03*
X132000000Y-89700000D03*
X132000000Y-92240000D03*
X132000000Y-94780000D03*
%TD*%
D13*
%TO.C,J9*%
X165529801Y-131783400D03*
X165529801Y-134283400D03*
X165529801Y-136783400D03*
X165529801Y-139283400D03*
%TD*%
D23*
%TO.C,U1*%
X169200000Y-41900000D03*
D24*
X169200000Y-43900000D03*
X169200000Y-45900000D03*
X169200000Y-47900000D03*
X169200000Y-49900000D03*
X169200000Y-51900000D03*
X169200000Y-53900000D03*
X169200000Y-55900000D03*
X169200000Y-57900000D03*
%TD*%
D25*
%TO.C,U4*%
X144620000Y-94810000D03*
D17*
X144620000Y-92270000D03*
X144620000Y-89730000D03*
X144620000Y-87190000D03*
X137000000Y-87190000D03*
X137000000Y-89730000D03*
X137000000Y-92270000D03*
X137000000Y-94810000D03*
%TD*%
D26*
%TO.C,J10*%
X145500000Y-118500000D03*
X153000000Y-118500000D03*
D27*
X147410000Y-112150000D03*
D28*
X148680000Y-109610000D03*
X149950000Y-112150000D03*
X151220000Y-109610000D03*
%TD*%
D29*
%TO.C,C2*%
X147000000Y-64125000D03*
X147000000Y-61000000D03*
%TD*%
D17*
%TO.C,J5*%
X117992601Y-132000000D03*
X117992601Y-134500000D03*
%TD*%
D13*
%TO.C,J8*%
X165529801Y-103783400D03*
X165529801Y-106283400D03*
X165529801Y-108783400D03*
X165529801Y-111283400D03*
%TD*%
D10*
%TO.C,R4*%
X155450000Y-53500000D03*
X158550000Y-53500000D03*
%TD*%
D16*
%TO.C,R5*%
X152550000Y-56500000D03*
X149450000Y-56500000D03*
%TD*%
D17*
%TO.C,J12*%
X165500000Y-94500000D03*
X165500000Y-97000000D03*
%TD*%
%TO.C,J1*%
X127462800Y-131934700D03*
X127462800Y-134434700D03*
%TD*%
%TO.C,J4*%
X108500000Y-132000000D03*
X108500000Y-134500000D03*
%TD*%
%TO.C,J2*%
X137000000Y-131783400D03*
X137000000Y-134283400D03*
%TD*%
M02*
