M48
; DRILL file {KiCad 8.0.6} date 2025-02-14T11:57:29-0700
; FORMAT={-:-/ absolute / inch / decimal}
; #@! TF.CreationDate,2025-02-14T11:57:29-07:00
; #@! TF.GenerationSoftware,Kicad,Pcbnew,8.0.6
; #@! TF.FileFunction,Plated,1,2,PTH
FMAT,2
INCH
; #@! TA.AperFunction,Plated,PTH,ViaDrill
T1C0.0118
; #@! TA.AperFunction,Plated,PTH,ComponentDrill
T2C0.0300
; #@! TA.AperFunction,Plated,PTH,ComponentDrill
T3C0.0315
; #@! TA.AperFunction,Plated,PTH,ComponentDrill
T4C0.0354
; #@! TA.AperFunction,Plated,PTH,ComponentDrill
T5C0.0360
; #@! TA.AperFunction,Plated,PTH,ComponentDrill
T6C0.0390
; #@! TA.AperFunction,Plated,PTH,ComponentDrill
T7C0.0394
; #@! TA.AperFunction,Plated,PTH,ComponentDrill
T8C0.0409
; #@! TA.AperFunction,Plated,PTH,ComponentDrill
T9C0.0490
; #@! TA.AperFunction,Plated,PTH,ViaDrill
T10C0.0866
; #@! TA.AperFunction,Plated,PTH,ViaDrill
T11C0.1575
%
G90
G05
T1
X5.5315Y-3.0709
X5.5709Y-4.7441
X5.8268Y-2.2047
X6.0433Y-2.4213
X6.063Y-3.6024
X6.1417Y-2.0079
X6.3386Y-3.3268
X6.4567Y-3.3268
T2
X5.8465Y-3.6311
X5.8465Y-3.7311
T3
X5.3937Y-1.7622
X5.3937Y-1.8622
X5.3937Y-1.9622
X5.3937Y-2.0622
X5.3937Y-2.1622
X5.3937Y-2.2622
X5.3937Y-2.3622
X5.3937Y-2.4622
X5.3937Y-2.5622
X5.3937Y-2.6622
X5.3937Y-2.7622
X5.3937Y-2.8622
X5.3937Y-2.9622
X5.3937Y-3.0622
X5.6937Y-1.7622
X5.6937Y-1.8622
X5.6937Y-1.9622
X5.6937Y-2.0622
X5.6937Y-2.1622
X5.6937Y-2.2622
X5.6937Y-2.3622
X5.6937Y-2.4622
X5.6937Y-2.5622
X5.6937Y-2.6622
X5.6937Y-2.7622
X5.6937Y-2.8622
X5.6937Y-2.9622
X5.6937Y-3.0622
X6.6614Y-1.6496
X6.6614Y-1.7283
X6.6614Y-1.8071
X6.6614Y-1.8858
X6.6614Y-1.9646
X6.6614Y-2.0433
X6.6614Y-2.122
X6.6614Y-2.2008
X6.6614Y-2.2795
T4
X5.8035Y-4.4154
X5.8535Y-4.3154
X5.9035Y-4.4154
X5.9535Y-4.3154
T5
X6.0433Y-1.7126
X6.2402Y-1.7126
T6
X4.2717Y-5.1969
X4.2717Y-5.2953
X4.6454Y-5.1969
X4.6454Y-5.2953
X5.0182Y-5.1943
X5.0182Y-5.2927
X5.3937Y-3.4327
X5.3937Y-3.5327
X5.3937Y-3.6327
X5.3937Y-3.7327
X5.3937Y-5.1883
X5.3937Y-5.2867
X5.6937Y-3.4327
X5.6937Y-3.5327
X5.6937Y-3.6327
X5.6937Y-3.7327
X6.5157Y-3.7205
X6.5157Y-3.8189
X6.5945Y-2.6969
X6.5945Y-2.7953
X6.5945Y-2.8937
X6.5945Y-2.9921
X6.5945Y-3.0906
T7
X5.4134Y-4.3079
X5.4134Y-4.4079
X5.4134Y-4.5079
X5.4134Y-4.6079
X5.9834Y-2.6512
X5.9834Y-2.7512
X5.9834Y-2.8512
X5.9834Y-2.9512
X5.9834Y-3.0512
X5.9834Y-3.1512
X5.9834Y-3.2512
X5.9834Y-3.3512
T8
X4.1969Y-1.9315
X4.1969Y-2.0315
X4.1969Y-2.1315
X4.1969Y-2.2315
X4.1969Y-2.3315
X4.1969Y-2.4315
X4.1969Y-2.5315
X4.1969Y-2.6315
X4.1969Y-2.7315
X4.1969Y-2.8315
X4.1969Y-2.9315
X4.1969Y-3.0315
X4.1969Y-3.1315
X4.1969Y-3.2315
X4.1969Y-3.3315
X4.1969Y-3.4315
X4.1969Y-3.5315
X4.1969Y-3.6315
X4.1969Y-3.7315
X5.1969Y-1.9315
X5.1969Y-2.0315
X5.1969Y-2.1315
X5.1969Y-2.2315
X5.1969Y-2.3315
X5.1969Y-2.4315
X5.1969Y-2.5315
X5.1969Y-2.6315
X5.1969Y-2.7315
X5.1969Y-2.8315
X5.1969Y-2.9315
X5.1969Y-3.0315
X5.1969Y-3.1315
X5.1969Y-3.2315
X5.1969Y-3.3315
X5.1969Y-3.4315
X5.1969Y-3.5315
X5.1969Y-3.6315
X5.1969Y-3.7315
T9
X6.5169Y-4.086
X6.5169Y-4.1844
X6.5169Y-4.2828
X6.5169Y-4.3812
X6.5169Y-4.6371
X6.5169Y-4.7356
X6.5169Y-4.834
X6.5169Y-4.9324
X6.5169Y-5.1883
X6.5169Y-5.2867
X6.5169Y-5.3852
X6.5169Y-5.4836
T10
X4.1929Y-1.2992
X4.1929Y-6.1024
X6.6339Y-1.2992
X6.6339Y-6.1024
T11
X5.4134Y-1.437
X5.4134Y-5.9646
M30
