M48
; DRILL file {KiCad 8.0.6} date 2025-03-07T17:01:13-0700
; FORMAT={-:-/ absolute / inch / decimal}
; #@! TF.CreationDate,2025-03-07T17:01:13-07:00
; #@! TF.GenerationSoftware,Kicad,Pcbnew,8.0.6
; #@! TF.FileFunction,Plated,1,2,PTH
FMAT,2
INCH
; #@! TA.AperFunction,Plated,PTH,ViaDrill
T1C0.0118
; #@! TA.AperFunction,Plated,PTH,ComponentDrill
T2C0.0300
; #@! TA.AperFunction,Plated,PTH,ComponentDrill
T3C0.0315
; #@! TA.AperFunction,Plated,PTH,ComponentDrill
T4C0.0354
; #@! TA.AperFunction,Plated,PTH,ComponentDrill
T5C0.0360
; #@! TA.AperFunction,Plated,PTH,ComponentDrill
T6C0.0390
; #@! TA.AperFunction,Plated,PTH,ComponentDrill
T7C0.0394
; #@! TA.AperFunction,Plated,PTH,ComponentDrill
T8C0.0409
; #@! TA.AperFunction,Plated,PTH,ComponentDrill
T9C0.0470
; #@! TA.AperFunction,Plated,PTH,ComponentDrill
T10C0.0490
; #@! TA.AperFunction,Plated,PTH,ViaDrill
T11C0.0866
; #@! TA.AperFunction,Plated,PTH,ViaDrill
T12C0.1575
%
G90
G05
T1
X5.4528Y-4.7835
X5.5256Y-3.0709
X5.5512Y-4.0748
X5.8172Y-2.0733
X5.8268Y-2.2047
X6.0433Y-2.4213
X6.1125Y-2.0542
X6.3386Y-3.3268
X6.4567Y-3.3268
T2
X5.8465Y-3.6311
X5.8465Y-3.7311
T3
X5.3819Y-1.9094
X5.3819Y-2.0094
X5.3819Y-2.1094
X5.3819Y-2.2094
X5.3819Y-2.3094
X5.3819Y-2.4094
X5.3819Y-2.5094
X5.3819Y-2.6094
X5.3819Y-2.7094
X5.3819Y-2.8094
X5.3819Y-2.9094
X5.3819Y-3.0094
X5.3819Y-3.1094
X5.3819Y-3.2094
X5.6819Y-1.9094
X5.6819Y-2.0094
X5.6819Y-2.1094
X5.6819Y-2.2094
X5.6819Y-2.3094
X5.6819Y-2.4094
X5.6819Y-2.5094
X5.6819Y-2.6094
X5.6819Y-2.7094
X5.6819Y-2.8094
X5.6819Y-2.9094
X5.6819Y-3.0094
X5.6819Y-3.1094
X5.6819Y-3.2094
T4
X5.8035Y-4.4154
X5.8535Y-4.3154
X5.9035Y-4.4154
X5.9535Y-4.3154
T5
X6.0433Y-1.7126
X6.2402Y-1.7126
T6
X4.2717Y-5.1969
X4.2717Y-5.2953
X4.6454Y-5.1969
X4.6454Y-5.2953
X5.0182Y-5.1943
X5.0182Y-5.2927
X5.3937Y-3.4327
X5.3937Y-3.5327
X5.3937Y-3.6327
X5.3937Y-3.7327
X5.3937Y-5.1883
X5.3937Y-5.2867
X5.6937Y-3.4327
X5.6937Y-3.5327
X5.6937Y-3.6327
X5.6937Y-3.7327
X6.5157Y-3.7205
X6.5157Y-3.8189
X6.5945Y-2.6969
X6.5945Y-2.7953
X6.5945Y-2.8937
X6.5945Y-2.9921
X6.5945Y-3.0906
T7
X5.4134Y-4.3079
X5.4134Y-4.4079
X5.4134Y-4.5079
X5.4134Y-4.6079
X6.063Y-2.6465
X6.063Y-2.7465
X6.063Y-2.8465
X6.063Y-2.9465
X6.063Y-3.0465
X6.063Y-3.1465
X6.063Y-3.2465
X6.063Y-3.3465
X6.6732Y-1.6504
X6.6732Y-1.7504
X6.6732Y-1.8504
X6.6732Y-1.9504
X6.6732Y-2.0504
X6.6732Y-2.1504
X6.6732Y-2.2504
X6.6732Y-2.3504
X6.6732Y-2.4504
T8
X4.1969Y-1.9307
X4.1969Y-2.0307
X4.1969Y-2.1307
X4.1969Y-2.2307
X4.1969Y-2.3307
X4.1969Y-2.4307
X4.1969Y-2.5307
X4.1969Y-2.6307
X4.1969Y-2.7307
X4.1969Y-2.8307
X4.1969Y-2.9307
X4.1969Y-3.0307
X4.1969Y-3.1307
X4.1969Y-3.2307
X4.1969Y-3.3307
X4.1969Y-3.4307
X4.1969Y-3.5307
X4.1969Y-3.6307
X4.1969Y-3.7307
X5.1969Y-1.9307
X5.1969Y-2.0307
X5.1969Y-2.1307
X5.1969Y-2.2307
X5.1969Y-2.3307
X5.1969Y-2.4307
X5.1969Y-2.5307
X5.1969Y-2.6307
X5.1969Y-2.7307
X5.1969Y-2.8307
X5.1969Y-2.9307
X5.1969Y-3.0307
X5.1969Y-3.1307
X5.1969Y-3.2307
X5.1969Y-3.3307
X5.1969Y-3.4307
X5.1969Y-3.5307
X5.1969Y-3.6307
X5.1969Y-3.7307
T9
X5.7677Y-3.9961
X5.8677Y-3.9961
X5.9677Y-3.9961
T10
X6.5169Y-4.086
X6.5169Y-4.1844
X6.5169Y-4.2828
X6.5169Y-4.3812
X6.5169Y-4.6371
X6.5169Y-4.7356
X6.5169Y-4.834
X6.5169Y-4.9324
X6.5169Y-5.1883
X6.5169Y-5.2867
X6.5169Y-5.3852
X6.5169Y-5.4836
T11
X4.1929Y-1.2992
X4.1929Y-6.1024
X6.6339Y-1.2992
X6.6339Y-6.1024
T12
X5.4134Y-1.437
X5.4134Y-5.9646
M30
