%TF.GenerationSoftware,KiCad,Pcbnew,8.0.6*%
%TF.CreationDate,2025-01-14T14:57:28-07:00*%
%TF.ProjectId,IdealDiodeBoard,49646561-6c44-4696-9f64-65426f617264,rev?*%
%TF.SameCoordinates,Original*%
%TF.FileFunction,Paste,Bot*%
%TF.FilePolarity,Positive*%
%FSLAX46Y46*%
G04 Gerber Fmt 4.6, Leading zero omitted, Abs format (unit mm)*
G04 Created by KiCad (PCBNEW 8.0.6) date 2025-01-14 14:57:28*
%MOMM*%
%LPD*%
G01*
G04 APERTURE LIST*
%ADD10C,0.000000*%
%ADD11R,0.599999X0.249999*%
G04 APERTURE END LIST*
D10*
%TO.C,U1*%
G36*
X127640001Y-91079998D02*
G01*
X127640001Y-92039998D01*
X127590001Y-92089998D01*
X127410002Y-92089998D01*
X127360002Y-92039998D01*
X127360002Y-91079998D01*
X127410002Y-91029998D01*
X127590001Y-91029998D01*
X127640001Y-91079998D01*
G37*
G36*
X127640001Y-92339998D02*
G01*
X127640001Y-93299998D01*
X127590001Y-93349998D01*
X127410002Y-93349998D01*
X127360002Y-93299998D01*
X127360002Y-92339998D01*
X127410002Y-92289998D01*
X127590001Y-92289998D01*
X127640001Y-92339998D01*
G37*
G36*
X128140000Y-91079998D02*
G01*
X128140000Y-92039998D01*
X128090000Y-92089998D01*
X127910001Y-92089998D01*
X127860001Y-92039998D01*
X127860001Y-91079998D01*
X127910001Y-91029998D01*
X128090000Y-91029998D01*
X128140000Y-91079998D01*
G37*
G36*
X128140000Y-92339998D02*
G01*
X128140000Y-93299998D01*
X128090000Y-93349998D01*
X127910001Y-93349998D01*
X127860001Y-93299998D01*
X127860001Y-92339998D01*
X127910001Y-92289998D01*
X128090000Y-92289998D01*
X128140000Y-92339998D01*
G37*
%TD*%
D11*
%TO.C,U1*%
X126850000Y-92414999D03*
X126850000Y-91964997D03*
X128650002Y-91964997D03*
X128650002Y-92414999D03*
%TD*%
M02*
