%TF.GenerationSoftware,KiCad,Pcbnew,8.0.6*%
%TF.CreationDate,2025-01-14T14:57:28-07:00*%
%TF.ProjectId,IdealDiodeBoard,49646561-6c44-4696-9f64-65426f617264,rev?*%
%TF.SameCoordinates,Original*%
%TF.FileFunction,Legend,Top*%
%TF.FilePolarity,Positive*%
%FSLAX46Y46*%
G04 Gerber Fmt 4.6, Leading zero omitted, Abs format (unit mm)*
G04 Created by KiCad (PCBNEW 8.0.6) date 2025-01-14 14:57:28*
%MOMM*%
%LPD*%
G01*
G04 APERTURE LIST*
%ADD10C,0.100000*%
%ADD11C,0.200000*%
G04 APERTURE END LIST*
D10*
X130232455Y-96909133D02*
X130232455Y-96209133D01*
X130232455Y-96209133D02*
X130499122Y-96209133D01*
X130499122Y-96209133D02*
X130565789Y-96242466D01*
X130565789Y-96242466D02*
X130599122Y-96275800D01*
X130599122Y-96275800D02*
X130632455Y-96342466D01*
X130632455Y-96342466D02*
X130632455Y-96442466D01*
X130632455Y-96442466D02*
X130599122Y-96509133D01*
X130599122Y-96509133D02*
X130565789Y-96542466D01*
X130565789Y-96542466D02*
X130499122Y-96575800D01*
X130499122Y-96575800D02*
X130232455Y-96575800D01*
X131299122Y-96242466D02*
X131232455Y-96209133D01*
X131232455Y-96209133D02*
X131132455Y-96209133D01*
X131132455Y-96209133D02*
X131032455Y-96242466D01*
X131032455Y-96242466D02*
X130965789Y-96309133D01*
X130965789Y-96309133D02*
X130932455Y-96375800D01*
X130932455Y-96375800D02*
X130899122Y-96509133D01*
X130899122Y-96509133D02*
X130899122Y-96609133D01*
X130899122Y-96609133D02*
X130932455Y-96742466D01*
X130932455Y-96742466D02*
X130965789Y-96809133D01*
X130965789Y-96809133D02*
X131032455Y-96875800D01*
X131032455Y-96875800D02*
X131132455Y-96909133D01*
X131132455Y-96909133D02*
X131199122Y-96909133D01*
X131199122Y-96909133D02*
X131299122Y-96875800D01*
X131299122Y-96875800D02*
X131332455Y-96842466D01*
X131332455Y-96842466D02*
X131332455Y-96609133D01*
X131332455Y-96609133D02*
X131199122Y-96609133D01*
X131532455Y-96209133D02*
X131932455Y-96209133D01*
X131732455Y-96909133D02*
X131732455Y-96209133D01*
X132165788Y-96909133D02*
X132165788Y-96209133D01*
X132165788Y-96542466D02*
X132565788Y-96542466D01*
X132565788Y-96909133D02*
X132565788Y-96209133D01*
X124232455Y-89409133D02*
X124232455Y-88709133D01*
X124565788Y-89409133D02*
X124565788Y-88709133D01*
X124565788Y-88709133D02*
X124965788Y-89409133D01*
X124965788Y-89409133D02*
X124965788Y-88709133D01*
X130232455Y-91909133D02*
X130232455Y-91209133D01*
X130565788Y-91909133D02*
X130565788Y-91209133D01*
X130565788Y-91209133D02*
X130799122Y-91709133D01*
X130799122Y-91709133D02*
X131032455Y-91209133D01*
X131032455Y-91209133D02*
X131032455Y-91909133D01*
X131499122Y-91209133D02*
X131632455Y-91209133D01*
X131632455Y-91209133D02*
X131699122Y-91242466D01*
X131699122Y-91242466D02*
X131765788Y-91309133D01*
X131765788Y-91309133D02*
X131799122Y-91442466D01*
X131799122Y-91442466D02*
X131799122Y-91675800D01*
X131799122Y-91675800D02*
X131765788Y-91809133D01*
X131765788Y-91809133D02*
X131699122Y-91875800D01*
X131699122Y-91875800D02*
X131632455Y-91909133D01*
X131632455Y-91909133D02*
X131499122Y-91909133D01*
X131499122Y-91909133D02*
X131432455Y-91875800D01*
X131432455Y-91875800D02*
X131365788Y-91809133D01*
X131365788Y-91809133D02*
X131332455Y-91675800D01*
X131332455Y-91675800D02*
X131332455Y-91442466D01*
X131332455Y-91442466D02*
X131365788Y-91309133D01*
X131365788Y-91309133D02*
X131432455Y-91242466D01*
X131432455Y-91242466D02*
X131499122Y-91209133D01*
X132099121Y-91909133D02*
X132099121Y-91209133D01*
X132099121Y-91209133D02*
X132499121Y-91909133D01*
X132499121Y-91909133D02*
X132499121Y-91209133D01*
X130865789Y-98709133D02*
X130999122Y-98709133D01*
X130999122Y-98709133D02*
X131065789Y-98742466D01*
X131065789Y-98742466D02*
X131132455Y-98809133D01*
X131132455Y-98809133D02*
X131165789Y-98942466D01*
X131165789Y-98942466D02*
X131165789Y-99175800D01*
X131165789Y-99175800D02*
X131132455Y-99309133D01*
X131132455Y-99309133D02*
X131065789Y-99375800D01*
X131065789Y-99375800D02*
X130999122Y-99409133D01*
X130999122Y-99409133D02*
X130865789Y-99409133D01*
X130865789Y-99409133D02*
X130799122Y-99375800D01*
X130799122Y-99375800D02*
X130732455Y-99309133D01*
X130732455Y-99309133D02*
X130699122Y-99175800D01*
X130699122Y-99175800D02*
X130699122Y-98942466D01*
X130699122Y-98942466D02*
X130732455Y-98809133D01*
X130732455Y-98809133D02*
X130799122Y-98742466D01*
X130799122Y-98742466D02*
X130865789Y-98709133D01*
X131465788Y-98709133D02*
X131465788Y-99275800D01*
X131465788Y-99275800D02*
X131499122Y-99342466D01*
X131499122Y-99342466D02*
X131532455Y-99375800D01*
X131532455Y-99375800D02*
X131599122Y-99409133D01*
X131599122Y-99409133D02*
X131732455Y-99409133D01*
X131732455Y-99409133D02*
X131799122Y-99375800D01*
X131799122Y-99375800D02*
X131832455Y-99342466D01*
X131832455Y-99342466D02*
X131865788Y-99275800D01*
X131865788Y-99275800D02*
X131865788Y-98709133D01*
X132099121Y-98709133D02*
X132499121Y-98709133D01*
X132299121Y-99409133D02*
X132299121Y-98709133D01*
X123732455Y-91542466D02*
X123965789Y-91542466D01*
X124065789Y-91909133D02*
X123732455Y-91909133D01*
X123732455Y-91909133D02*
X123732455Y-91209133D01*
X123732455Y-91209133D02*
X124065789Y-91209133D01*
X124365788Y-91909133D02*
X124365788Y-91209133D01*
X124365788Y-91209133D02*
X124765788Y-91909133D01*
X124765788Y-91909133D02*
X124765788Y-91209133D01*
X124932455Y-91975800D02*
X125465788Y-91975800D01*
X125632454Y-91209133D02*
X125632454Y-91775800D01*
X125632454Y-91775800D02*
X125665788Y-91842466D01*
X125665788Y-91842466D02*
X125699121Y-91875800D01*
X125699121Y-91875800D02*
X125765788Y-91909133D01*
X125765788Y-91909133D02*
X125899121Y-91909133D01*
X125899121Y-91909133D02*
X125965788Y-91875800D01*
X125965788Y-91875800D02*
X125999121Y-91842466D01*
X125999121Y-91842466D02*
X126032454Y-91775800D01*
X126032454Y-91775800D02*
X126032454Y-91209133D01*
X126265787Y-91209133D02*
X126499121Y-91909133D01*
X126499121Y-91909133D02*
X126732454Y-91209133D01*
X127299121Y-91909133D02*
X126965787Y-91909133D01*
X126965787Y-91909133D02*
X126965787Y-91209133D01*
X127665788Y-91209133D02*
X127732454Y-91209133D01*
X127732454Y-91209133D02*
X127799121Y-91242466D01*
X127799121Y-91242466D02*
X127832454Y-91275800D01*
X127832454Y-91275800D02*
X127865788Y-91342466D01*
X127865788Y-91342466D02*
X127899121Y-91475800D01*
X127899121Y-91475800D02*
X127899121Y-91642466D01*
X127899121Y-91642466D02*
X127865788Y-91775800D01*
X127865788Y-91775800D02*
X127832454Y-91842466D01*
X127832454Y-91842466D02*
X127799121Y-91875800D01*
X127799121Y-91875800D02*
X127732454Y-91909133D01*
X127732454Y-91909133D02*
X127665788Y-91909133D01*
X127665788Y-91909133D02*
X127599121Y-91875800D01*
X127599121Y-91875800D02*
X127565788Y-91842466D01*
X127565788Y-91842466D02*
X127532454Y-91775800D01*
X127532454Y-91775800D02*
X127499121Y-91642466D01*
X127499121Y-91642466D02*
X127499121Y-91475800D01*
X127499121Y-91475800D02*
X127532454Y-91342466D01*
X127532454Y-91342466D02*
X127565788Y-91275800D01*
X127565788Y-91275800D02*
X127599121Y-91242466D01*
X127599121Y-91242466D02*
X127665788Y-91209133D01*
X131099122Y-88742466D02*
X131032455Y-88709133D01*
X131032455Y-88709133D02*
X130932455Y-88709133D01*
X130932455Y-88709133D02*
X130832455Y-88742466D01*
X130832455Y-88742466D02*
X130765789Y-88809133D01*
X130765789Y-88809133D02*
X130732455Y-88875800D01*
X130732455Y-88875800D02*
X130699122Y-89009133D01*
X130699122Y-89009133D02*
X130699122Y-89109133D01*
X130699122Y-89109133D02*
X130732455Y-89242466D01*
X130732455Y-89242466D02*
X130765789Y-89309133D01*
X130765789Y-89309133D02*
X130832455Y-89375800D01*
X130832455Y-89375800D02*
X130932455Y-89409133D01*
X130932455Y-89409133D02*
X130999122Y-89409133D01*
X130999122Y-89409133D02*
X131099122Y-89375800D01*
X131099122Y-89375800D02*
X131132455Y-89342466D01*
X131132455Y-89342466D02*
X131132455Y-89109133D01*
X131132455Y-89109133D02*
X130999122Y-89109133D01*
X131432455Y-89409133D02*
X131432455Y-88709133D01*
X131432455Y-88709133D02*
X131832455Y-89409133D01*
X131832455Y-89409133D02*
X131832455Y-88709133D01*
X132165788Y-89409133D02*
X132165788Y-88709133D01*
X132165788Y-88709133D02*
X132332455Y-88709133D01*
X132332455Y-88709133D02*
X132432455Y-88742466D01*
X132432455Y-88742466D02*
X132499122Y-88809133D01*
X132499122Y-88809133D02*
X132532455Y-88875800D01*
X132532455Y-88875800D02*
X132565788Y-89009133D01*
X132565788Y-89009133D02*
X132565788Y-89109133D01*
X132565788Y-89109133D02*
X132532455Y-89242466D01*
X132532455Y-89242466D02*
X132499122Y-89309133D01*
X132499122Y-89309133D02*
X132432455Y-89375800D01*
X132432455Y-89375800D02*
X132332455Y-89409133D01*
X132332455Y-89409133D02*
X132165788Y-89409133D01*
X130732455Y-94409133D02*
X130732455Y-93709133D01*
X130732455Y-93709133D02*
X130999122Y-93709133D01*
X130999122Y-93709133D02*
X131065789Y-93742466D01*
X131065789Y-93742466D02*
X131099122Y-93775800D01*
X131099122Y-93775800D02*
X131132455Y-93842466D01*
X131132455Y-93842466D02*
X131132455Y-93942466D01*
X131132455Y-93942466D02*
X131099122Y-94009133D01*
X131099122Y-94009133D02*
X131065789Y-94042466D01*
X131065789Y-94042466D02*
X130999122Y-94075800D01*
X130999122Y-94075800D02*
X130732455Y-94075800D01*
X131799122Y-93742466D02*
X131732455Y-93709133D01*
X131732455Y-93709133D02*
X131632455Y-93709133D01*
X131632455Y-93709133D02*
X131532455Y-93742466D01*
X131532455Y-93742466D02*
X131465789Y-93809133D01*
X131465789Y-93809133D02*
X131432455Y-93875800D01*
X131432455Y-93875800D02*
X131399122Y-94009133D01*
X131399122Y-94009133D02*
X131399122Y-94109133D01*
X131399122Y-94109133D02*
X131432455Y-94242466D01*
X131432455Y-94242466D02*
X131465789Y-94309133D01*
X131465789Y-94309133D02*
X131532455Y-94375800D01*
X131532455Y-94375800D02*
X131632455Y-94409133D01*
X131632455Y-94409133D02*
X131699122Y-94409133D01*
X131699122Y-94409133D02*
X131799122Y-94375800D01*
X131799122Y-94375800D02*
X131832455Y-94342466D01*
X131832455Y-94342466D02*
X131832455Y-94109133D01*
X131832455Y-94109133D02*
X131699122Y-94109133D01*
X124032455Y-96909133D02*
X124032455Y-96209133D01*
X124032455Y-96875800D02*
X123965789Y-96909133D01*
X123965789Y-96909133D02*
X123832455Y-96909133D01*
X123832455Y-96909133D02*
X123765789Y-96875800D01*
X123765789Y-96875800D02*
X123732455Y-96842466D01*
X123732455Y-96842466D02*
X123699122Y-96775800D01*
X123699122Y-96775800D02*
X123699122Y-96575800D01*
X123699122Y-96575800D02*
X123732455Y-96509133D01*
X123732455Y-96509133D02*
X123765789Y-96475800D01*
X123765789Y-96475800D02*
X123832455Y-96442466D01*
X123832455Y-96442466D02*
X123965789Y-96442466D01*
X123965789Y-96442466D02*
X124032455Y-96475800D01*
X124265788Y-96209133D02*
X124499122Y-96909133D01*
X124499122Y-96909133D02*
X124732455Y-96209133D01*
X125265788Y-96909133D02*
X125265788Y-96209133D01*
X125265788Y-96875800D02*
X125199122Y-96909133D01*
X125199122Y-96909133D02*
X125065788Y-96909133D01*
X125065788Y-96909133D02*
X124999122Y-96875800D01*
X124999122Y-96875800D02*
X124965788Y-96842466D01*
X124965788Y-96842466D02*
X124932455Y-96775800D01*
X124932455Y-96775800D02*
X124932455Y-96575800D01*
X124932455Y-96575800D02*
X124965788Y-96509133D01*
X124965788Y-96509133D02*
X124999122Y-96475800D01*
X124999122Y-96475800D02*
X125065788Y-96442466D01*
X125065788Y-96442466D02*
X125199122Y-96442466D01*
X125199122Y-96442466D02*
X125265788Y-96475800D01*
X125499121Y-96442466D02*
X125765788Y-96442466D01*
X125599121Y-96209133D02*
X125599121Y-96809133D01*
X125599121Y-96809133D02*
X125632455Y-96875800D01*
X125632455Y-96875800D02*
X125699121Y-96909133D01*
X125699121Y-96909133D02*
X125765788Y-96909133D01*
X123865789Y-93709133D02*
X123999122Y-93709133D01*
X123999122Y-93709133D02*
X124065789Y-93742466D01*
X124065789Y-93742466D02*
X124132455Y-93809133D01*
X124132455Y-93809133D02*
X124165789Y-93942466D01*
X124165789Y-93942466D02*
X124165789Y-94175800D01*
X124165789Y-94175800D02*
X124132455Y-94309133D01*
X124132455Y-94309133D02*
X124065789Y-94375800D01*
X124065789Y-94375800D02*
X123999122Y-94409133D01*
X123999122Y-94409133D02*
X123865789Y-94409133D01*
X123865789Y-94409133D02*
X123799122Y-94375800D01*
X123799122Y-94375800D02*
X123732455Y-94309133D01*
X123732455Y-94309133D02*
X123699122Y-94175800D01*
X123699122Y-94175800D02*
X123699122Y-93942466D01*
X123699122Y-93942466D02*
X123732455Y-93809133D01*
X123732455Y-93809133D02*
X123799122Y-93742466D01*
X123799122Y-93742466D02*
X123865789Y-93709133D01*
X124365788Y-93709133D02*
X124599122Y-94409133D01*
X124599122Y-94409133D02*
X124832455Y-93709133D01*
X125399122Y-94409133D02*
X125065788Y-94409133D01*
X125065788Y-94409133D02*
X125065788Y-93709133D01*
X125765789Y-93709133D02*
X125899122Y-93709133D01*
X125899122Y-93709133D02*
X125965789Y-93742466D01*
X125965789Y-93742466D02*
X126032455Y-93809133D01*
X126032455Y-93809133D02*
X126065789Y-93942466D01*
X126065789Y-93942466D02*
X126065789Y-94175800D01*
X126065789Y-94175800D02*
X126032455Y-94309133D01*
X126032455Y-94309133D02*
X125965789Y-94375800D01*
X125965789Y-94375800D02*
X125899122Y-94409133D01*
X125899122Y-94409133D02*
X125765789Y-94409133D01*
X125765789Y-94409133D02*
X125699122Y-94375800D01*
X125699122Y-94375800D02*
X125632455Y-94309133D01*
X125632455Y-94309133D02*
X125599122Y-94175800D01*
X125599122Y-94175800D02*
X125599122Y-93942466D01*
X125599122Y-93942466D02*
X125632455Y-93809133D01*
X125632455Y-93809133D02*
X125699122Y-93742466D01*
X125699122Y-93742466D02*
X125765789Y-93709133D01*
D11*
%TO.C,J1*%
X133250000Y-87530000D02*
X135990000Y-87530000D01*
X133250000Y-100430000D02*
X133250000Y-87530000D01*
X135990000Y-87530000D02*
X135990000Y-100430000D01*
X135990000Y-100430000D02*
X133250000Y-100430000D01*
X135620000Y-99980000D02*
G75*
G02*
X135420000Y-99980000I-100000J0D01*
G01*
X135420000Y-99980000D02*
G75*
G02*
X135620000Y-99980000I100000J0D01*
G01*
%TO.C,J2*%
X120550000Y-87530000D02*
X123290000Y-87530000D01*
X120550000Y-97890000D02*
X120550000Y-87530000D01*
X123290000Y-87530000D02*
X123290000Y-97890000D01*
X123290000Y-97890000D02*
X120550000Y-97890000D01*
X122920000Y-97410000D02*
G75*
G02*
X122720000Y-97410000I-100000J0D01*
G01*
X122720000Y-97410000D02*
G75*
G02*
X122920000Y-97410000I100000J0D01*
G01*
%TD*%
M02*
