%TF.GenerationSoftware,KiCad,Pcbnew,8.0.6*%
%TF.CreationDate,2025-01-14T14:57:28-07:00*%
%TF.ProjectId,IdealDiodeBoard,49646561-6c44-4696-9f64-65426f617264,rev?*%
%TF.SameCoordinates,Original*%
%TF.FileFunction,Legend,Bot*%
%TF.FilePolarity,Positive*%
%FSLAX46Y46*%
G04 Gerber Fmt 4.6, Leading zero omitted, Abs format (unit mm)*
G04 Created by KiCad (PCBNEW 8.0.6) date 2025-01-14 14:57:28*
%MOMM*%
%LPD*%
G01*
G04 APERTURE LIST*
%ADD10C,0.150000*%
%ADD11C,0.200000*%
%ADD12C,0.250000*%
G04 APERTURE END LIST*
D10*
X131045180Y-88285714D02*
X131045180Y-87809524D01*
X131045180Y-87809524D02*
X132045180Y-87809524D01*
X131045180Y-88619048D02*
X132045180Y-88619048D01*
X132045180Y-88619048D02*
X131330895Y-88952381D01*
X131330895Y-88952381D02*
X132045180Y-89285714D01*
X132045180Y-89285714D02*
X131045180Y-89285714D01*
X132045180Y-89666667D02*
X132045180Y-90333333D01*
X132045180Y-90333333D02*
X131045180Y-89904762D01*
X132045180Y-90619048D02*
X132045180Y-91238095D01*
X132045180Y-91238095D02*
X131664228Y-90904762D01*
X131664228Y-90904762D02*
X131664228Y-91047619D01*
X131664228Y-91047619D02*
X131616609Y-91142857D01*
X131616609Y-91142857D02*
X131568990Y-91190476D01*
X131568990Y-91190476D02*
X131473752Y-91238095D01*
X131473752Y-91238095D02*
X131235657Y-91238095D01*
X131235657Y-91238095D02*
X131140419Y-91190476D01*
X131140419Y-91190476D02*
X131092800Y-91142857D01*
X131092800Y-91142857D02*
X131045180Y-91047619D01*
X131045180Y-91047619D02*
X131045180Y-90761905D01*
X131045180Y-90761905D02*
X131092800Y-90666667D01*
X131092800Y-90666667D02*
X131140419Y-90619048D01*
X131045180Y-92190476D02*
X131045180Y-91619048D01*
X131045180Y-91904762D02*
X132045180Y-91904762D01*
X132045180Y-91904762D02*
X131902323Y-91809524D01*
X131902323Y-91809524D02*
X131807085Y-91714286D01*
X131807085Y-91714286D02*
X131759466Y-91619048D01*
X132045180Y-92809524D02*
X132045180Y-92904762D01*
X132045180Y-92904762D02*
X131997561Y-93000000D01*
X131997561Y-93000000D02*
X131949942Y-93047619D01*
X131949942Y-93047619D02*
X131854704Y-93095238D01*
X131854704Y-93095238D02*
X131664228Y-93142857D01*
X131664228Y-93142857D02*
X131426133Y-93142857D01*
X131426133Y-93142857D02*
X131235657Y-93095238D01*
X131235657Y-93095238D02*
X131140419Y-93047619D01*
X131140419Y-93047619D02*
X131092800Y-93000000D01*
X131092800Y-93000000D02*
X131045180Y-92904762D01*
X131045180Y-92904762D02*
X131045180Y-92809524D01*
X131045180Y-92809524D02*
X131092800Y-92714286D01*
X131092800Y-92714286D02*
X131140419Y-92666667D01*
X131140419Y-92666667D02*
X131235657Y-92619048D01*
X131235657Y-92619048D02*
X131426133Y-92571429D01*
X131426133Y-92571429D02*
X131664228Y-92571429D01*
X131664228Y-92571429D02*
X131854704Y-92619048D01*
X131854704Y-92619048D02*
X131949942Y-92666667D01*
X131949942Y-92666667D02*
X131997561Y-92714286D01*
X131997561Y-92714286D02*
X132045180Y-92809524D01*
X132045180Y-93761905D02*
X132045180Y-93857143D01*
X132045180Y-93857143D02*
X131997561Y-93952381D01*
X131997561Y-93952381D02*
X131949942Y-94000000D01*
X131949942Y-94000000D02*
X131854704Y-94047619D01*
X131854704Y-94047619D02*
X131664228Y-94095238D01*
X131664228Y-94095238D02*
X131426133Y-94095238D01*
X131426133Y-94095238D02*
X131235657Y-94047619D01*
X131235657Y-94047619D02*
X131140419Y-94000000D01*
X131140419Y-94000000D02*
X131092800Y-93952381D01*
X131092800Y-93952381D02*
X131045180Y-93857143D01*
X131045180Y-93857143D02*
X131045180Y-93761905D01*
X131045180Y-93761905D02*
X131092800Y-93666667D01*
X131092800Y-93666667D02*
X131140419Y-93619048D01*
X131140419Y-93619048D02*
X131235657Y-93571429D01*
X131235657Y-93571429D02*
X131426133Y-93523810D01*
X131426133Y-93523810D02*
X131664228Y-93523810D01*
X131664228Y-93523810D02*
X131854704Y-93571429D01*
X131854704Y-93571429D02*
X131949942Y-93619048D01*
X131949942Y-93619048D02*
X131997561Y-93666667D01*
X131997561Y-93666667D02*
X132045180Y-93761905D01*
X131045180Y-95095238D02*
X131521371Y-94761905D01*
X131045180Y-94523810D02*
X132045180Y-94523810D01*
X132045180Y-94523810D02*
X132045180Y-94904762D01*
X132045180Y-94904762D02*
X131997561Y-95000000D01*
X131997561Y-95000000D02*
X131949942Y-95047619D01*
X131949942Y-95047619D02*
X131854704Y-95095238D01*
X131854704Y-95095238D02*
X131711847Y-95095238D01*
X131711847Y-95095238D02*
X131616609Y-95047619D01*
X131616609Y-95047619D02*
X131568990Y-95000000D01*
X131568990Y-95000000D02*
X131521371Y-94904762D01*
X131521371Y-94904762D02*
X131521371Y-94523810D01*
X131045180Y-95523810D02*
X132045180Y-95523810D01*
X132045180Y-95523810D02*
X132045180Y-95904762D01*
X132045180Y-95904762D02*
X131997561Y-96000000D01*
X131997561Y-96000000D02*
X131949942Y-96047619D01*
X131949942Y-96047619D02*
X131854704Y-96095238D01*
X131854704Y-96095238D02*
X131711847Y-96095238D01*
X131711847Y-96095238D02*
X131616609Y-96047619D01*
X131616609Y-96047619D02*
X131568990Y-96000000D01*
X131568990Y-96000000D02*
X131521371Y-95904762D01*
X131521371Y-95904762D02*
X131521371Y-95523810D01*
X132045180Y-96428572D02*
X131045180Y-96666667D01*
X131045180Y-96666667D02*
X131759466Y-96857143D01*
X131759466Y-96857143D02*
X131045180Y-97047619D01*
X131045180Y-97047619D02*
X132045180Y-97285715D01*
X131045180Y-98238095D02*
X131521371Y-97904762D01*
X131045180Y-97666667D02*
X132045180Y-97666667D01*
X132045180Y-97666667D02*
X132045180Y-98047619D01*
X132045180Y-98047619D02*
X131997561Y-98142857D01*
X131997561Y-98142857D02*
X131949942Y-98190476D01*
X131949942Y-98190476D02*
X131854704Y-98238095D01*
X131854704Y-98238095D02*
X131711847Y-98238095D01*
X131711847Y-98238095D02*
X131616609Y-98190476D01*
X131616609Y-98190476D02*
X131568990Y-98142857D01*
X131568990Y-98142857D02*
X131521371Y-98047619D01*
X131521371Y-98047619D02*
X131521371Y-97666667D01*
D11*
%TO.C,U1*%
X128800001Y-90614997D02*
X126700001Y-90614997D01*
X128800001Y-93764999D02*
X126700001Y-93764999D01*
D12*
X126125003Y-92889999D02*
G75*
G02*
X125875001Y-92889999I-125001J0D01*
G01*
X125875001Y-92889999D02*
G75*
G02*
X126125003Y-92889999I125001J0D01*
G01*
%TD*%
M02*
